<?xml version="1.0" encoding="UTF-8"?>
<svg width="69px" height="69px" viewBox="0 0 69 69" version="1.1" xmlns="http://www.w3.org/2000/svg" xmlns:xlink="http://www.w3.org/1999/xlink">
    <!-- Generator: Sketch 47.1 (45422) - http://www.bohemiancoding.com/sketch -->
    <title>Artboard 8</title>
    <desc>Created with Sketch.</desc>
    <defs>
        <circle id="path-1" cx="30.5" cy="30.5" r="30.5"></circle>
        <filter x="-13.1%" y="-9.8%" width="126.2%" height="126.2%" filterUnits="objectBoundingBox" id="filter-2">
            <feMorphology radius="1" operator="dilate" in="SourceAlpha" result="shadowSpreadOuter1"></feMorphology>
            <feOffset dx="0" dy="2" in="shadowSpreadOuter1" result="shadowOffsetOuter1"></feOffset>
            <feGaussianBlur stdDeviation="2" in="shadowOffsetOuter1" result="shadowBlurOuter1"></feGaussianBlur>
            <feComposite in="shadowBlurOuter1" in2="SourceAlpha" operator="out" result="shadowBlurOuter1"></feComposite>
            <feColorMatrix values="0 0 0 0 0   0 0 0 0 0   0 0 0 0 0  0 0 0 0.139351223 0" type="matrix" in="shadowBlurOuter1"></feColorMatrix>
        </filter>
    </defs>
    <g stroke="none" stroke-width="1" fill="none" fill-rule="evenodd">
        <g>
            <g transform="translate(4.000000, 2.000000)">
                <g>
                    <use fill="black" fill-opacity="1" filter="url(#filter-2)" xlink:href="#path-1"></use>
                    <use stroke="#FFD001" stroke-width="2" fill="#FFFFFF" fill-rule="evenodd" xlink:href="#path-1"></use>
                </g>
                <path d="M35.9680032,16.7061159 C34.4730689,17.1032536 36.1935693,20.9290866 34.616075,20.6097114 C33.0542439,20.2935094 31.1785772,18.8044846 30.1595675,17.953896 C28.9564771,16.9496505 32.2030133,17.031609 32.8080684,16.2056267 C33.5332578,15.2156441 32.9038184,14.2687213 32.3081424,14.0846516 C30.0445181,13.3851694 26.9037577,15.0248174 25.4186466,14.6636443 C22.794494,14.0254605 24.0087149,13.4054617 21.1838109,13.0246862 C19.7742539,12.834689 18.2358469,13.8179495 15.8959634,13.3721816 C13.0414567,12.828375 13.06729,18.0065341 12,19.2185859 C14.6716834,16.9636557 20.0744665,18.613172 19.5452377,20.6097114 C18.8534202,23.2196323 23.7903767,27.3176813 24.5751352,29.1929071 C24.9862836,30.1753703 26.6832573,28.1288881 28.0585095,31.8432005 C28.30778,32.999696 29.8055205,32.2312135 31.0922395,32.4577793 C32.6680683,32.7352517 33.5666299,33.9807338 34.0862105,34.2644208 C35.662997,35.1253369 27.6464451,36.935726 35.5359233,42.5037773 C35.3353606,45.2755105 35.4536381,47.8569674 35.1489983,48.3243457 C34.4539722,49.3906439 34.8233993,50.0742122 35.1489983,50.4123656 C33.267139,50.8783962 35.5257088,54.7541479 37.0308548,53.869098 C37.955308,53.3255034 37.0308548,52.1945538 37.835737,51.1188839 C37.0308548,49.2389307 43.7295639,44.0960409 44.9628676,43.2024354 C44.9628676,43.2024354 44.9209214,40.9413979 46.7881806,39.5202942 C47.7159341,38.8142135 45.3900123,37.3846589 43.8005409,37.8785496 C43.8005409,37.8785496 43.7058706,34.969911 39.3508366,35.3328586 C37.6838515,35.4717827 36.5715205,34.4603186 36.5715205,34.4603186 C36.5715205,34.4603186 35.1489983,31.8432032 33.5866315,31.8432032 C33.3344272,31.8432032 33.7799108,30.8739425 32.8080684,30.3817914 C32.0457069,29.9957247 29.9248833,29.9713787 29.9248833,29.1929071 C29.9248833,28.4144328 31.9815441,28.7247235 33.2626868,27.7413744 C33.6476272,27.4459103 34.215216,28.8988122 34.616075,28.5718694 C35.0741519,28.1982588 34.1133983,27.5136757 35.5359233,26.3437871 C35.79316,26.1322359 37.1891161,24.679871 38.3752081,23.7383226 C38.803341,23.3984619 39.6447207,23.6605922 39.775078,23.3178832 C40.2686032,22.0204045 37.976628,23.1119668 38.7481215,21.4661712 C39.0244937,20.8765987 43.2708624,22.5036698 43.5144399,22.2670344 C44.102455,21.6957731 40.3737323,21.5016284 41.9193367,20.6097114 C42.5753228,20.2311641 37.4629347,16.3089755 35.9680032,16.7061159 Z" stroke="#FFD001" stroke-width="2"></path>
            </g>
        </g>
    </g>
</svg>