<?xml version="1.0" encoding="UTF-8"?>
<svg width="14px" height="20px" viewBox="0 0 14 20" version="1.1" xmlns="http://www.w3.org/2000/svg" xmlns:xlink="http://www.w3.org/1999/xlink">
    <!-- Generator: Sketch 47.1 (45422) - http://www.bohemiancoding.com/sketch -->
    <title>if_91_171450</title>
    <desc>Created with Sketch.</desc>
    <defs></defs>
    <g stroke="none" stroke-width="1" fill="none" fill-rule="evenodd" opacity="0.239526721">
        <g transform="translate(-1172.000000, -484.000000)" fill-rule="nonzero" fill="#000000">
            <g transform="translate(1172.000000, 484.000000)">
                <g>
                    <path d="M10.2182167,4.65252305 L10.2182167,7.90111742 L3.78079256,7.90111742 L3.78079256,4.65252305 C3.78079256,2.87399623 5.22211888,1.43154555 6.99971694,1.43154555 C8.77717347,1.43140393 10.2182167,2.87357136 10.2182167,4.65252305 M5.70869389,11.9201518 C5.70869389,11.2065034 6.28683785,10.6282485 6.99971694,10.6282485 C7.71287909,10.6282485 8.29073999,11.2065034 8.29073999,11.9201518 C8.29073999,12.4709315 7.94583502,12.9395686 7.46081682,13.1259471 L7.46081682,17.2723024 L6.53847554,17.2723024 L6.53847554,13.1259471 C6.05359887,12.9397102 5.70869389,12.4706482 5.70869389,11.9201518 M13.9992924,19.3624042 L13.9992924,19.3624042 L13.9994339,8.5381467 L13.9992924,8.5381467 C13.9992924,8.5375802 13.9994339,8.5370137 13.9994339,8.5364472 C13.9994339,8.18550043 13.7152446,7.9009758 13.3643955,7.9009758 C13.3638294,7.9009758 13.3632632,7.90111742 13.3626971,7.90111742 L13.3626971,7.9009758 L11.6492115,7.9009758 L11.6492115,4.65252305 C11.6492115,2.08287895 9.56746866,0 6.99971694,0 C4.4318237,0 2.3502224,2.08287895 2.3502224,4.65252305 L2.3502224,7.90111742 L0.636595228,7.90111742 L0.636595228,7.90125905 C0.636029114,7.90125905 0.635321472,7.90111742 0.634755358,7.90111742 C0.284047715,7.90125905 0,8.18564206 0,8.53658882 C0,8.53715532 0.000141528508,8.53772182 0.000141528508,8.53828832 L0,8.53828832 L0,19.3625459 L0.000141528508,19.3625459 C0.000141528508,19.3635372 0,19.3641037 0,19.3646702 C0,19.7151921 0.284189244,20 0.634896886,20 C0.635463,20 0.636170643,19.9998584 0.636736757,19.9998584 L0.636736757,20 L13.3631217,20 L13.3631217,19.9998584 C13.3636878,19.9998584 13.3642539,20 13.3648201,20 C13.7153862,20 14,19.715617 14,19.3646702 C13.9994339,19.3635372 13.9992924,19.3629707 13.9992924,19.3624042"></path>
                </g>
            </g>
        </g>
    </g>
</svg>