<?xml version="1.0" encoding="UTF-8"?>
<svg width="63px" height="76px" viewBox="0 0 63 76" version="1.1" xmlns="http://www.w3.org/2000/svg" xmlns:xlink="http://www.w3.org/1999/xlink">
    <!-- Generator: Sketch 47.1 (45422) - http://www.bohemiancoding.com/sketch -->
    <title>Artboard 7</title>
    <desc>Created with Sketch.</desc>
    <defs>
        <path d="M27.5,68 C27.5,68 55,54.4 55,34 L55,6.8 L27.5,0 L0,6.8 L0,34 C0,54.4 27.5,68 27.5,68 Z" id="path-1"></path>
        <filter x="-14.5%" y="-8.8%" width="129.1%" height="123.5%" filterUnits="objectBoundingBox" id="filter-2">
            <feMorphology radius="1" operator="dilate" in="SourceAlpha" result="shadowSpreadOuter1"></feMorphology>
            <feOffset dx="0" dy="2" in="shadowSpreadOuter1" result="shadowOffsetOuter1"></feOffset>
            <feGaussianBlur stdDeviation="2" in="shadowOffsetOuter1" result="shadowBlurOuter1"></feGaussianBlur>
            <feComposite in="shadowBlurOuter1" in2="SourceAlpha" operator="out" result="shadowBlurOuter1"></feComposite>
            <feColorMatrix values="0 0 0 0 0   0 0 0 0 0   0 0 0 0 0  0 0 0 0.136322464 0" type="matrix" in="shadowBlurOuter1"></feColorMatrix>
        </filter>
        <path d="M10.364,37 L10.364,35.04 L14.228,31.54 C14.4706679,31.3066655 14.6666659,31.0686679 14.816,30.826 C14.9653341,30.5833321 15.04,30.3126682 15.04,30.014 C15.04,29.6593316 14.9280011,29.3723344 14.704,29.153 C14.4799989,28.9336656 14.1813352,28.824 13.808,28.824 C13.415998,28.824 13.0963346,28.9616653 12.849,29.237 C12.6016654,29.5123347 12.4546669,29.8739978 12.408,30.322 L10.154,30.014 C10.2100003,29.5099975 10.3476656,29.062002 10.567,28.67 C10.7863344,28.277998 11.0639983,27.9443347 11.4,27.669 C11.7360017,27.3936653 12.1209978,27.1836674 12.555,27.039 C12.9890022,26.8943326 13.4486642,26.822 13.934,26.822 C14.3913356,26.822 14.8346645,26.8826661 15.264,27.004 C15.6933355,27.1253339 16.0759983,27.3119987 16.412,27.564 C16.7480017,27.8160013 17.0163323,28.1333314 17.217,28.516 C17.4176677,28.8986686 17.518,29.3466641 17.518,29.86 C17.518,30.2146684 17.4713338,30.5343319 17.378,30.819 C17.2846662,31.1036681 17.1563341,31.3673321 16.993,31.61 C16.8296658,31.8526679 16.643001,32.0789989 16.433,32.289 C16.2229989,32.4990011 16.0060011,32.7066656 15.782,32.912 L13.486,34.956 L17.532,34.956 L17.532,37 L10.364,37 Z M26.856,32.016 C26.856,32.7160035 26.7860007,33.3833302 26.646,34.018 C26.5059993,34.6526698 26.2820015,35.2103309 25.974,35.691 C25.6659985,36.1716691 25.2670024,36.5543319 24.777,36.839 C24.2869975,37.1236681 23.6920035,37.266 22.992,37.266 C22.2919965,37.266 21.6946691,37.1236681 21.2,36.839 C20.7053309,36.5543319 20.3016682,36.1716691 19.989,35.691 C19.6763318,35.2103309 19.4500007,34.6526698 19.31,34.018 C19.1699993,33.3833302 19.1,32.7160035 19.1,32.016 C19.1,31.3159965 19.1699993,30.6510032 19.31,30.021 C19.4500007,29.3909969 19.6763318,28.8403357 19.989,28.369 C20.3016682,27.8976643 20.7053309,27.5220014 21.2,27.242 C21.6946691,26.9619986 22.2919965,26.822 22.992,26.822 C23.6920035,26.822 24.2869975,26.9619986 24.777,27.242 C25.2670024,27.5220014 25.6659985,27.8976643 25.974,28.369 C26.2820015,28.8403357 26.5059993,29.3909969 26.646,30.021 C26.7860007,30.6510032 26.856,31.3159965 26.856,32.016 Z M24.448,32.016 C24.448,31.7079985 24.4293335,31.3673352 24.392,30.994 C24.3546665,30.6206648 24.2846672,30.2730016 24.182,29.951 C24.0793328,29.6289984 23.9323343,29.3583344 23.741,29.139 C23.5496657,28.9196656 23.3000015,28.81 22.992,28.81 C22.6839985,28.81 22.432001,28.9196656 22.236,29.139 C22.039999,29.3583344 21.8883339,29.6289984 21.781,29.951 C21.6736661,30.2730016 21.6013335,30.6206648 21.564,30.994 C21.5266665,31.3673352 21.508,31.7079985 21.508,32.016 C21.508,32.3333349 21.5266665,32.6809981 21.564,33.059 C21.6013335,33.4370019 21.6736661,33.7869984 21.781,34.109 C21.8883339,34.4310016 22.039999,34.7016656 22.236,34.921 C22.432001,35.1403344 22.6839985,35.25 22.992,35.25 C23.3000015,35.25 23.5496657,35.1403344 23.741,34.921 C23.9323343,34.7016656 24.0793328,34.4310016 24.182,34.109 C24.2846672,33.7869984 24.3546665,33.4370019 24.392,33.059 C24.4293335,32.6809981 24.448,32.3333349 24.448,32.016 Z M31.462,37 L31.462,29.72 L29.614,31.148 L28.396,29.482 L31.658,27.088 L33.814,27.088 L33.814,37 L31.462,37 Z M44.944,32.016 C44.944,32.7160035 44.8740007,33.3833302 44.734,34.018 C44.5939993,34.6526698 44.3700015,35.2103309 44.062,35.691 C43.7539985,36.1716691 43.3550025,36.5543319 42.865,36.839 C42.3749976,37.1236681 41.7800035,37.266 41.08,37.266 C40.3799965,37.266 39.7826691,37.1236681 39.288,36.839 C38.7933309,36.5543319 38.3896682,36.1716691 38.077,35.691 C37.7643318,35.2103309 37.5380007,34.6526698 37.398,34.018 C37.2579993,33.3833302 37.188,32.7160035 37.188,32.016 C37.188,31.3159965 37.2579993,30.6510032 37.398,30.021 C37.5380007,29.3909969 37.7643318,28.8403357 38.077,28.369 C38.3896682,27.8976643 38.7933309,27.5220014 39.288,27.242 C39.7826691,26.9619986 40.3799965,26.822 41.08,26.822 C41.7800035,26.822 42.3749976,26.9619986 42.865,27.242 C43.3550025,27.5220014 43.7539985,27.8976643 44.062,28.369 C44.3700015,28.8403357 44.5939993,29.3909969 44.734,30.021 C44.8740007,30.6510032 44.944,31.3159965 44.944,32.016 Z M42.536,32.016 C42.536,31.7079985 42.5173335,31.3673352 42.48,30.994 C42.4426665,30.6206648 42.3726672,30.2730016 42.27,29.951 C42.1673328,29.6289984 42.0203343,29.3583344 41.829,29.139 C41.6376657,28.9196656 41.3880015,28.81 41.08,28.81 C40.7719985,28.81 40.520001,28.9196656 40.324,29.139 C40.127999,29.3583344 39.9763339,29.6289984 39.869,29.951 C39.7616661,30.2730016 39.6893335,30.6206648 39.652,30.994 C39.6146665,31.3673352 39.596,31.7079985 39.596,32.016 C39.596,32.3333349 39.6146665,32.6809981 39.652,33.059 C39.6893335,33.4370019 39.7616661,33.7869984 39.869,34.109 C39.9763339,34.4310016 40.127999,34.7016656 40.324,34.921 C40.520001,35.1403344 40.7719985,35.25 41.08,35.25 C41.3880015,35.25 41.6376657,35.1403344 41.829,34.921 C42.0203343,34.7016656 42.1673328,34.4310016 42.27,34.109 C42.3726672,33.7869984 42.4426665,33.4370019 42.48,33.059 C42.5173335,32.6809981 42.536,32.3333349 42.536,32.016 Z" id="path-3"></path>
        <filter x="-5.7%" y="-9.6%" width="111.5%" height="138.3%" filterUnits="objectBoundingBox" id="filter-4">
            <feOffset dx="0" dy="1" in="SourceAlpha" result="shadowOffsetOuter1"></feOffset>
            <feGaussianBlur stdDeviation="0.5" in="shadowOffsetOuter1" result="shadowBlurOuter1"></feGaussianBlur>
            <feColorMatrix values="0 0 0 0 0   0 0 0 0 0   0 0 0 0 0  0 0 0 0.0756906703 0" type="matrix" in="shadowBlurOuter1"></feColorMatrix>
        </filter>
    </defs>
    <g stroke="none" stroke-width="1" fill="none" fill-rule="evenodd">
        <g>
            <g transform="translate(4.000000, 2.000000)">
                <g>
                    <g stroke-linecap="round" stroke-linejoin="round">
                        <use fill="black" fill-opacity="1" filter="url(#filter-2)" xlink:href="#path-1"></use>
                        <use stroke="#FFD001" stroke-width="2" fill="#FFFFFF" fill-rule="evenodd" xlink:href="#path-1"></use>
                    </g>
                    <circle fill="#DBDBDB" transform="translate(28.000000, 59.000000) rotate(-90.000000) translate(-28.000000, -59.000000) " cx="28" cy="59" r="2"></circle>
                    <circle fill="#DBDBDB" transform="translate(28.000000, 9.000000) rotate(-90.000000) translate(-28.000000, -9.000000) " cx="28" cy="9" r="2"></circle>
                    <g>
                        <use fill="black" fill-opacity="1" filter="url(#filter-4)" xlink:href="#path-3"></use>
                        <use fill="#FFD001" fill-rule="evenodd" xlink:href="#path-3"></use>
                    </g>
                </g>
            </g>
        </g>
    </g>
</svg>