<?xml version="1.0" encoding="UTF-8"?>
<svg width="17px" height="17px" viewBox="0 0 17 17" version="1.1" xmlns="http://www.w3.org/2000/svg" xmlns:xlink="http://www.w3.org/1999/xlink">
    <!-- Generator: Sketch 47.1 (45422) - http://www.bohemiancoding.com/sketch -->
    <title>Artboard</title>
    <desc>Created with Sketch.</desc>
    <defs></defs>
    <g stroke="none" stroke-width="1" fill="none" fill-rule="evenodd">
        <g fill="#FFD001">
            <path d="M-0.813033542,9.79974841 L18.0441093,9.79974841 C18.9115379,9.79974841 19.6155379,9.2692221 19.6155379,8.61553789 C19.6155379,7.96185368 18.9115379,7.43132736 18.0441093,7.43132736 L-0.813033542,7.43132736 C-1.68046211,7.43132736 -2.38446211,7.96185368 -2.38446211,8.61553789 C-2.38446211,9.2692221 -1.68046211,9.79974841 -0.813033542,9.79974841 Z" transform="translate(8.615538, 8.615538) rotate(-45.000000) translate(-8.615538, -8.615538) "></path>
            <path d="M18.0441093,7.43132736 L-0.813033542,7.43132736 C-1.68046211,7.43132736 -2.38446211,7.96185368 -2.38446211,8.61553789 C-2.38446211,9.2692221 -1.68046211,9.79974841 -0.813033542,9.79974841 L18.0441093,9.79974841 C18.9115379,9.79974841 19.6155379,9.2692221 19.6155379,8.61553789 C19.6155379,7.96185368 18.9115379,7.43132736 18.0441093,7.43132736 Z" transform="translate(8.615538, 8.615538) rotate(45.000000) translate(-8.615538, -8.615538) "></path>
        </g>
    </g>
</svg>