<?xml version="1.0" encoding="UTF-8"?>
<svg width="371px" height="27px" viewBox="0 0 371 27" version="1.1" xmlns="http://www.w3.org/2000/svg" xmlns:xlink="http://www.w3.org/1999/xlink">
    <!-- Generator: Sketch 47.1 (45422) - http://www.bohemiancoding.com/sketch -->
    <title>Artboard 7</title>
    <desc>Created with Sketch.</desc>
    <defs></defs>
    <g stroke="none" stroke-width="1" fill="none" fill-rule="evenodd">
        <g>
            <g transform="translate(-1.000000, -2.000000)">
                <g transform="translate(359.426140, 17.942236) rotate(192.000000) translate(-359.426140, -17.942236) translate(346.426140, 7.942236)" stroke-width="2" stroke="#25262A">
                    <path d="M6.01672144,12.9462434 C6.01672144,12.9462434 18.5212527,21.8706261 24.6862994,4.9322995" transform="translate(15.351510, 10.113975) rotate(36.000000) translate(-15.351510, -10.113975) "></path>
                    <path d="M4.18748606,14.7866215 C4.18748606,14.7866215 3.62831509,11.1491499 3.46929382,10.4173296 C3.31027256,9.68550929 1.57724472,5.83524001 1.57724472,5.83524001 C1.57724472,5.83524001 4.27022436,6.27168371 6.66241582,6.02953357 C9.05460728,5.78738342 11.9268458,5.896535 11.9268458,5.896535" transform="translate(6.752045, 10.310931) rotate(25.000000) translate(-6.752045, -10.310931) "></path>
                </g>
                <path d="M21.722,9.4878353 C21.0646634,11.1878438 20.299671,12.9614927 19.427,14.8088353 C18.554329,16.6561779 17.5173393,18.4864929 16.316,20.2998353 C15.9759983,20.8211712 15.5906688,21.0818353 15.16,21.0818353 C14.8879986,21.0818353 14.6613342,21.0195026 14.48,20.8948353 C14.2986658,20.770168 14.1400007,20.6058363 14.004,20.4018353 C13.4146637,19.4951641 12.8820024,18.5318404 12.406,17.5118353 C11.9299976,16.4918302 11.4653356,15.3358418 11.012,14.0438353 C10.3546634,15.1998411 9.62367069,16.3671627 8.819,17.5458353 C8.01432931,18.7245079 7.13600476,19.8238302 6.184,20.8438353 C6.00266576,21.0478363 5.81566763,21.183835 5.623,21.2518353 C5.43033237,21.3198356 5.2773339,21.3425021 5.164,21.3198353 C4.68799762,21.251835 4.31400136,20.9571712 4.042,20.4358353 C3.20332914,18.8718275 2.63666814,17.149178 2.342,15.2678353 C2.04733186,13.3864926 1.88866678,11.4598452 1.866,9.4878353 C1.866,9.30650106 1.93399932,9.12516954 2.07,8.9438353 C2.20600068,8.76250106 2.40999864,8.68316852 2.682,8.7058353 C3.09000204,8.72850208 3.4073322,8.88150055 3.634,9.1648353 C3.8606678,9.44817005 3.99666644,9.79383326 4.042,10.2018353 C4.08733356,10.7685048 4.14399966,11.4088317 4.212,12.1228353 C4.28000034,12.8368389 4.3706661,13.5678316 4.484,14.3158353 C4.5973339,15.063839 4.74466576,15.7891651 4.926,16.4918353 C5.10733424,17.1945055 5.33399864,17.8064994 5.606,18.3278353 C5.9460017,17.8971665 6.30866474,17.4211712 6.694,16.8998353 C7.07933526,16.3784994 7.45899813,15.8345048 7.833,15.2678353 C8.20700187,14.7011658 8.5639983,14.1288382 8.904,13.5508353 C9.2440017,12.9728324 9.54999864,12.4005048 9.822,11.8338353 C10.0033342,11.4485 10.2299986,11.1991692 10.502,11.0858353 C10.7740014,10.9725014 10.9893325,10.9158353 11.148,10.9158353 C11.8280034,10.9158353 12.2926654,11.2444987 12.542,11.9018353 C12.9273353,12.8538401 13.3183313,13.8624966 13.715,14.9278353 C14.1116686,15.993174 14.5479976,17.0018305 15.024,17.9538353 C15.432002,17.3191655 15.8513312,16.6051726 16.282,15.8118353 C16.7126688,15.018498 17.131998,14.2081728 17.54,13.3808353 C17.948002,12.5534978 18.3389981,11.7205062 18.713,10.8818353 C19.0870019,10.0431644 19.4213319,9.24983904 19.716,8.5018353 C19.8293339,8.22983394 20.0219986,8.00316954 20.294,7.8218353 C20.5660014,7.64050106 20.8606651,7.65183428 21.178,7.8558353 C21.4273346,8.01450276 21.6029995,8.26950021 21.705,8.6208353 C21.8070005,8.97217039 21.8126671,9.2611675 21.722,9.4878353 Z M26.482,7.5498353 C26.482,8.09383802 26.4763334,8.7058319 26.465,9.3858353 C26.4536666,10.0658387 26.4536666,10.7684983 26.465,11.4938353 C26.4763334,12.2191723 26.4876666,12.9671648 26.499,13.7378353 C26.5103334,14.5085058 26.5273332,15.2451651 26.55,15.9478353 C26.7766678,15.4944997 27.0486651,15.0468375 27.366,14.6048353 C27.6833349,14.1628331 28.0403313,13.771837 28.437,13.4318353 C28.8336686,13.0918336 29.2529978,12.8198363 29.695,12.6158353 C30.1370022,12.4118343 30.6186641,12.3098353 31.14,12.3098353 C31.7066695,12.3098353 32.2109978,12.4911668 32.653,12.8538353 C33.0950022,13.2165038 33.4803317,13.6981656 33.809,14.2988353 C34.1376683,14.899505 34.4153322,15.568165 34.642,16.3048353 C34.8686678,17.0415057 35.0556659,17.7894982 35.203,18.5488353 C35.3503341,19.3081724 35.4579997,20.0334985 35.526,20.7248353 C35.5940003,21.4161721 35.6506664,22.0111661 35.696,22.5098353 C35.696,22.8725038 35.6053342,23.1671675 35.424,23.3938353 C35.2426658,23.6205031 35.0273346,23.7338353 34.778,23.7338353 C34.5966658,23.7338353 34.375668,23.6148365 34.115,23.3768353 C33.854332,23.1388341 33.6673339,22.849837 33.554,22.5098353 C33.4859997,22.2378339 33.4180003,21.8411712 33.35,21.3198353 C33.2819997,20.7984994 33.2026671,20.237505 33.112,19.6368353 C33.0213329,19.0361656 32.9080007,18.4298384 32.772,17.8178353 C32.6359993,17.2058322 32.4716676,16.6561711 32.279,16.1688353 C32.0863324,15.6814995 31.8540014,15.3018367 31.582,15.0298353 C31.3099986,14.7578339 30.9926685,14.655835 30.63,14.7238353 C30.0633305,14.8371692 29.5703354,15.2338319 29.151,15.9138353 C28.7316646,16.5938387 28.3690015,17.3644977 28.063,18.2258353 C27.7569985,19.0871729 27.5076676,19.9598309 27.315,20.8438353 C27.1223324,21.7278397 26.9806671,22.4418326 26.89,22.9858353 C26.7993329,23.3938373 26.6803341,23.6715012 26.533,23.8188353 C26.3856659,23.9661694 26.2213342,24.0398353 26.04,24.0398353 C25.8586658,24.0398353 25.6943341,23.9491695 25.547,23.7678353 C25.3996659,23.5865011 25.2636673,23.3655033 25.139,23.1048353 C25.0143327,22.8441673 24.9066671,22.5721701 24.816,22.2888353 C24.7253329,22.0055006 24.6686668,21.7618363 24.646,21.5578353 C24.5326661,20.3338292 24.4420003,19.1608409 24.374,18.0388353 C24.3059997,16.9168297 24.2550002,15.7891743 24.221,14.6558353 C24.1869998,13.5224963 24.17,12.3608413 24.17,11.1708353 C24.17,9.98082935 24.1926664,8.7058421 24.238,7.3458353 C24.238,6.2124963 24.6459959,5.7025014 25.462,5.8158353 C25.7340014,5.86116886 25.971999,6.05950021 26.176,6.4108353 C26.380001,6.76217039 26.482,7.14183326 26.482,7.5498353 Z M46.644,10.0318353 C46.7346671,10.6665051 46.808333,11.3408317 46.865,12.0548353 C46.9216669,12.7688389 46.9669998,13.4884983 47.001,14.2138353 C47.0350002,14.9391723 47.052,15.6418319 47.052,16.3218353 C47.052,17.0018387 47.0406668,17.6138326 47.018,18.1578353 C47.743337,18.6565045 48.1796659,19.0985 48.327,19.4838353 C48.4743341,19.8691706 48.4913339,20.2091672 48.378,20.5038353 C48.2419993,20.9118373 47.9983351,21.1215019 47.647,21.1328353 C47.2956649,21.1441687 46.8933356,21.0251699 46.44,20.7758353 C46.1226651,21.0025031 45.760002,21.2461673 45.352,21.5068353 C44.943998,21.7675033 44.5133356,22.0168341 44.06,22.2548353 C43.6066644,22.4928365 43.1533356,22.7025011 42.7,22.8838353 C42.2466644,23.0651695 41.8273353,23.189835 41.442,23.2578353 C40.716663,23.3711692 40.0650029,23.2351706 39.487,22.8498353 C38.9089971,22.4645 38.518001,21.8865058 38.314,21.1158353 C38.1779993,20.5944994 38.1439997,20.0561714 38.212,19.5008353 C38.2800003,18.9454992 38.4499986,18.4128379 38.722,17.9028353 C38.9940014,17.3928328 39.362331,16.9338373 39.827,16.5258353 C40.291669,16.1178333 40.8413302,15.8005031 41.476,15.5738353 C41.6346675,15.505835 41.8556652,15.4491689 42.139,15.4038353 C42.4223347,15.3585017 42.7169985,15.3415019 43.023,15.3528353 C43.3290015,15.3641687 43.6406651,15.4265014 43.958,15.5398353 C44.2753349,15.6531692 44.5699986,15.8458339 44.842,16.1178353 C44.842,15.7325 44.8363334,15.3075043 44.825,14.8428353 C44.8136666,14.3781663 44.7966668,13.9078377 44.774,13.4318353 C44.7513332,12.9558329 44.7230002,12.5081707 44.689,12.0888353 C44.6549998,11.6694999 44.6153336,11.3125034 44.57,11.0178353 C44.5246664,10.6778336 44.3943344,10.468169 44.179,10.3888353 C43.9636656,10.3095016 43.6973349,10.3265014 43.38,10.4398353 C42.8359973,10.6211695 42.201337,10.9724994 41.476,11.4938353 C40.750663,12.0151712 40.0593366,12.570499 39.402,13.1598353 C39.197999,13.3638363 38.965668,13.4545021 38.705,13.4318353 C38.444332,13.4091685 38.2233342,13.3071695 38.042,13.1258353 C37.8606658,12.9445011 37.7586668,12.7348365 37.736,12.4968353 C37.7133332,12.2588341 37.803999,12.0038367 38.008,11.7318353 C38.3933353,11.3238333 38.8239976,10.9045041 39.3,10.4738353 C39.7760024,10.0431665 40.2746641,9.65217039 40.796,9.3008353 C41.3173359,8.94950021 41.8499973,8.6605031 42.394,8.4338353 C42.9380027,8.2071675 43.4819973,8.08250208 44.026,8.0598353 C44.8193373,8.03716852 45.4313312,8.21283343 45.862,8.5868353 C46.2926688,8.96083717 46.5533329,9.44249902 46.644,10.0318353 Z M42.7,17.3418353 C42.4053319,17.4098356 42.0936683,17.5515009 41.765,17.7668353 C41.4363317,17.9821697 41.141668,18.2428338 40.881,18.5488353 C40.620332,18.8548368 40.4276673,19.1948334 40.303,19.5688353 C40.1783327,19.9428372 40.1726661,20.3111668 40.286,20.6738353 C40.3313336,20.809836 40.4276659,20.911835 40.575,20.9798353 C40.7223341,21.0478356 40.8866658,21.0591689 41.068,21.0138353 C41.6120027,20.9005014 42.2296632,20.6795036 42.921,20.3508353 C43.6123368,20.022167 44.161998,19.6651706 44.57,19.2798353 C44.57,19.1438346 44.5020007,18.9681697 44.366,18.7528353 C44.2299993,18.5375009 44.0713342,18.3221697 43.89,18.1068353 C43.7086658,17.8915009 43.5103344,17.7045028 43.295,17.5458353 C43.0796656,17.3871678 42.8813342,17.3191685 42.7,17.3418353 Z M58.068,13.4998353 C58.4986688,13.4771685 58.9293312,13.5791675 59.36,13.8058353 C59.7906688,14.0325031 60.006,14.3838329 60.006,14.8598353 C59.9606664,15.2451706 59.7510019,15.4888348 59.377,15.5908353 C59.0029981,15.6928358 58.7026678,15.7438353 58.476,15.7438353 C58.0226644,15.7438353 57.5353359,15.7551685 57.014,15.7778353 C56.4926641,15.8005021 55.9600027,15.8345017 55.416,15.8798353 C55.3706664,16.627839 55.3310002,17.3304987 55.297,17.9878353 C55.2629998,18.6451719 55.2346668,19.2288328 55.212,19.7388353 C55.1893332,20.2488379 55.178,20.6625004 55.178,20.9798353 C55.178,21.2971702 55.1893332,21.4671685 55.212,21.4898353 C55.7106692,21.3991682 56.2489971,21.2461697 56.827,21.0308353 C57.4050029,20.8155009 57.9829971,20.5775033 58.561,20.3168353 C59.1390029,20.0561673 59.7056639,19.7841701 60.261,19.5008353 C60.8163361,19.2175006 61.3433308,18.9511699 61.842,18.7018353 C62.0686678,18.5885014 62.2783324,18.5545017 62.471,18.5998353 C62.6636676,18.6451689 62.7826664,18.7471678 62.828,18.9058353 C62.8733336,19.1551699 62.8393339,19.4611668 62.726,19.8238353 C62.6126661,20.1865038 62.4086681,20.5151672 62.114,20.8098353 C61.7739983,21.0818367 61.3263361,21.3935002 60.771,21.7448353 C60.2156639,22.0961704 59.6206698,22.4305004 58.986,22.7478353 C58.3513302,23.0651702 57.7110032,23.3428341 57.065,23.5808353 C56.4189968,23.8188365 55.8466692,23.9605017 55.348,24.0058353 C54.5999963,24.0738356 54.0333353,23.8698377 53.648,23.3938353 C53.2626647,22.9178329 53.0473336,22.3171723 53.002,21.5918353 C52.9566664,20.8664983 52.9509998,20.0278401 52.985,19.0758353 C53.0190002,18.1238305 53.0586664,17.115174 53.104,16.0498353 C52.6733312,16.0951689 52.2596686,16.1348351 51.863,16.1688353 C51.4663313,16.2028355 51.0866685,16.2425017 50.724,16.2878353 C50.4293319,16.2878353 50.1063351,16.219836 49.755,16.0838353 C49.4036649,15.9478346 49.228,15.6871706 49.228,15.3018353 C49.228,15.1658346 49.2846661,14.9845031 49.398,14.7578353 C49.5113339,14.5311675 49.7606647,14.3611692 50.146,14.2478353 C51.075338,14.0891678 52.106661,13.9531692 53.24,13.8398353 C53.3080003,12.7744966 53.3873329,11.7431736 53.478,10.7458353 C53.5686671,9.74849698 53.6479997,8.84183938 53.716,8.0258353 C53.7386668,7.75383394 53.8179993,7.51583632 53.954,7.3118353 C54.0900007,7.10783428 54.2373325,7.0058353 54.396,7.0058353 C54.7813353,6.98316852 55.1496649,7.07950089 55.501,7.2948353 C55.8523351,7.51016971 56.028,7.75383394 56.028,8.0258353 C55.9373329,8.79650582 55.8523337,9.66916376 55.773,10.6438353 C55.6936663,11.6185068 55.6200003,12.6158302 55.552,13.6358353 C56.0053356,13.5905017 56.4416646,13.5621687 56.861,13.5508353 C57.2803354,13.5395019 57.6826647,13.5225021 58.068,13.4998353 Z M81.46,13.4998353 C81.8906688,13.4771685 82.3213312,13.5791675 82.752,13.8058353 C83.1826688,14.0325031 83.398,14.3838329 83.398,14.8598353 C83.3526664,15.2451706 83.1430019,15.4888348 82.769,15.5908353 C82.3949981,15.6928358 82.0946678,15.7438353 81.868,15.7438353 C81.4146644,15.7438353 80.9273359,15.7551685 80.406,15.7778353 C79.8846641,15.8005021 79.3520027,15.8345017 78.808,15.8798353 C78.7626664,16.627839 78.7230002,17.3304987 78.689,17.9878353 C78.6549998,18.6451719 78.6266668,19.2288328 78.604,19.7388353 C78.5813332,20.2488379 78.57,20.6625004 78.57,20.9798353 C78.57,21.2971702 78.5813332,21.4671685 78.604,21.4898353 C79.1026692,21.3991682 79.6409971,21.2461697 80.219,21.0308353 C80.7970029,20.8155009 81.3749971,20.5775033 81.953,20.3168353 C82.5310029,20.0561673 83.0976639,19.7841701 83.653,19.5008353 C84.2083361,19.2175006 84.7353308,18.9511699 85.234,18.7018353 C85.4606678,18.5885014 85.6703324,18.5545017 85.863,18.5998353 C86.0556676,18.6451689 86.1746664,18.7471678 86.22,18.9058353 C86.2653336,19.1551699 86.2313339,19.4611668 86.118,19.8238353 C86.0046661,20.1865038 85.8006681,20.5151672 85.506,20.8098353 C85.1659983,21.0818367 84.7183361,21.3935002 84.163,21.7448353 C83.6076639,22.0961704 83.0126698,22.4305004 82.378,22.7478353 C81.7433302,23.0651702 81.1030032,23.3428341 80.457,23.5808353 C79.8109968,23.8188365 79.2386692,23.9605017 78.74,24.0058353 C77.9919963,24.0738356 77.4253353,23.8698377 77.04,23.3938353 C76.6546647,22.9178329 76.4393336,22.3171723 76.394,21.5918353 C76.3486664,20.8664983 76.3429998,20.0278401 76.377,19.0758353 C76.4110002,18.1238305 76.4506664,17.115174 76.496,16.0498353 C76.0653312,16.0951689 75.6516686,16.1348351 75.255,16.1688353 C74.8583313,16.2028355 74.4786685,16.2425017 74.116,16.2878353 C73.8213319,16.2878353 73.4983351,16.219836 73.147,16.0838353 C72.7956649,15.9478346 72.62,15.6871706 72.62,15.3018353 C72.62,15.1658346 72.6766661,14.9845031 72.79,14.7578353 C72.9033339,14.5311675 73.1526647,14.3611692 73.538,14.2478353 C74.467338,14.0891678 75.498661,13.9531692 76.632,13.8398353 C76.7000003,12.7744966 76.7793329,11.7431736 76.87,10.7458353 C76.9606671,9.74849698 77.0399997,8.84183938 77.108,8.0258353 C77.1306668,7.75383394 77.2099993,7.51583632 77.346,7.3118353 C77.4820007,7.10783428 77.6293325,7.0058353 77.788,7.0058353 C78.1733353,6.98316852 78.5416649,7.07950089 78.893,7.2948353 C79.2443351,7.51016971 79.42,7.75383394 79.42,8.0258353 C79.3293329,8.79650582 79.2443337,9.66916376 79.165,10.6438353 C79.0856663,11.6185068 79.0120003,12.6158302 78.944,13.6358353 C79.3973356,13.5905017 79.8336646,13.5621687 80.253,13.5508353 C80.6723354,13.5395019 81.0746647,13.5225021 81.46,13.4998353 Z M89.994,7.5498353 C89.994,8.09383802 89.9883334,8.7058319 89.977,9.3858353 C89.9656666,10.0658387 89.9656666,10.7684983 89.977,11.4938353 C89.9883334,12.2191723 89.9996666,12.9671648 90.011,13.7378353 C90.0223334,14.5085058 90.0393332,15.2451651 90.062,15.9478353 C90.2886678,15.4944997 90.5606651,15.0468375 90.878,14.6048353 C91.1953349,14.1628331 91.5523313,13.771837 91.949,13.4318353 C92.3456686,13.0918336 92.7649978,12.8198363 93.207,12.6158353 C93.6490022,12.4118343 94.1306641,12.3098353 94.652,12.3098353 C95.2186695,12.3098353 95.7229978,12.4911668 96.165,12.8538353 C96.6070022,13.2165038 96.9923317,13.6981656 97.321,14.2988353 C97.6496683,14.899505 97.9273322,15.568165 98.154,16.3048353 C98.3806678,17.0415057 98.5676659,17.7894982 98.715,18.5488353 C98.8623341,19.3081724 98.9699997,20.0334985 99.038,20.7248353 C99.1060003,21.4161721 99.1626664,22.0111661 99.208,22.5098353 C99.208,22.8725038 99.1173342,23.1671675 98.936,23.3938353 C98.7546658,23.6205031 98.5393346,23.7338353 98.29,23.7338353 C98.1086658,23.7338353 97.887668,23.6148365 97.627,23.3768353 C97.366332,23.1388341 97.1793339,22.849837 97.066,22.5098353 C96.9979997,22.2378339 96.9300003,21.8411712 96.862,21.3198353 C96.7939997,20.7984994 96.7146671,20.237505 96.624,19.6368353 C96.5333329,19.0361656 96.4200007,18.4298384 96.284,17.8178353 C96.1479993,17.2058322 95.9836676,16.6561711 95.791,16.1688353 C95.5983324,15.6814995 95.3660014,15.3018367 95.094,15.0298353 C94.8219986,14.7578339 94.5046685,14.655835 94.142,14.7238353 C93.5753305,14.8371692 93.0823354,15.2338319 92.663,15.9138353 C92.2436646,16.5938387 91.8810015,17.3644977 91.575,18.2258353 C91.2689985,19.0871729 91.0196676,19.9598309 90.827,20.8438353 C90.6343324,21.7278397 90.4926671,22.4418326 90.402,22.9858353 C90.3113329,23.3938373 90.1923341,23.6715012 90.045,23.8188353 C89.8976659,23.9661694 89.7333342,24.0398353 89.552,24.0398353 C89.3706658,24.0398353 89.2063341,23.9491695 89.059,23.7678353 C88.9116659,23.5865011 88.7756673,23.3655033 88.651,23.1048353 C88.5263327,22.8441673 88.4186671,22.5721701 88.328,22.2888353 C88.2373329,22.0055006 88.1806668,21.7618363 88.158,21.5578353 C88.0446661,20.3338292 87.9540003,19.1608409 87.886,18.0388353 C87.8179997,16.9168297 87.7670002,15.7891743 87.733,14.6558353 C87.6989998,13.5224963 87.682,12.3608413 87.682,11.1708353 C87.682,9.98082935 87.7046664,8.7058421 87.75,7.3458353 C87.75,6.2124963 88.1579959,5.7025014 88.974,5.8158353 C89.2460014,5.86116886 89.483999,6.05950021 89.688,6.4108353 C89.892001,6.76217039 89.994,7.14183326 89.994,7.5498353 Z M109.884,14.6218353 C108.999996,15.1431712 108.048005,15.5455006 107.028,15.8288353 C106.007995,16.1121701 104.908673,16.2538353 103.73,16.2538353 C103.775334,17.0471726 104.001998,17.6761663 104.41,18.1408353 C104.818002,18.6055043 105.327997,18.8831682 105.94,18.9738353 C106.302668,19.0191689 106.670998,19.0078356 107.045,18.9398353 C107.419002,18.871835 107.770332,18.7641694 108.099,18.6168353 C108.427668,18.4695012 108.727999,18.3051695 109,18.1238353 C109.272001,17.9425011 109.509999,17.7611695 109.714,17.5798353 C109.918001,17.3985011 110.133332,17.2795023 110.36,17.2228353 C110.586668,17.1661684 110.756666,17.1605017 110.87,17.2058353 C111.187335,17.3191692 111.300667,17.6591658 111.21,18.2258353 C110.847332,18.9511723 110.326003,19.5688328 109.646,20.0788353 C108.965997,20.5888379 108.206671,20.9118346 107.368,21.0478353 C106.642663,21.183836 105.894671,21.1498363 105.124,20.9458353 C104.353329,20.7418343 103.662003,20.3451716 103.05,19.7558353 C102.528664,19.2344994 102.132001,18.6225055 101.86,17.9198353 C101.587999,17.2171651 101.418,16.491839 101.35,15.7438353 C101.282,15.0411651 101.344332,14.3725051 101.537,13.7378353 C101.729668,13.1031655 102.029998,12.5421711 102.438,12.0548353 C102.846002,11.5674995 103.355997,11.1651702 103.968,10.8478353 C104.580003,10.5305004 105.293996,10.3491689 106.11,10.3038353 C107.084672,10.235835 107.968663,10.4171665 108.762,10.8478353 C109.555337,11.2785041 110.110665,11.8791648 110.428,12.6498353 C110.609334,13.0805041 110.660334,13.4545004 110.581,13.7718353 C110.501666,14.0891702 110.269335,14.3725007 109.884,14.6218353 Z M105.974,12.3098353 C105.747332,12.3551689 105.503668,12.4345014 105.243,12.5478353 C104.982332,12.6611692 104.744334,12.8028345 104.529,12.9728353 C104.313666,13.1428362 104.121001,13.3355009 103.951,13.5508353 C103.780999,13.7661697 103.684667,14.0098339 103.662,14.2818353 C104.047335,14.2818353 104.472331,14.2478356 104.937,14.1798353 C105.401669,14.111835 105.854998,14.0268358 106.297,13.9248353 C106.739002,13.8228348 107.146998,13.703836 107.521,13.5678353 C107.895002,13.4318346 108.206665,13.2845028 108.456,13.1258353 C108.274666,12.6951665 107.940336,12.4288358 107.453,12.3268353 C106.965664,12.2248348 106.472669,12.2191682 105.974,12.3098353 Z M131.338,14.6218353 C130.453996,15.1431712 129.502005,15.5455006 128.482,15.8288353 C127.461995,16.1121701 126.362673,16.2538353 125.184,16.2538353 C125.229334,17.0471726 125.455998,17.6761663 125.864,18.1408353 C126.272002,18.6055043 126.781997,18.8831682 127.394,18.9738353 C127.756668,19.0191689 128.124998,19.0078356 128.499,18.9398353 C128.873002,18.871835 129.224332,18.7641694 129.553,18.6168353 C129.881668,18.4695012 130.181999,18.3051695 130.454,18.1238353 C130.726001,17.9425011 130.963999,17.7611695 131.168,17.5798353 C131.372001,17.3985011 131.587332,17.2795023 131.814,17.2228353 C132.040668,17.1661684 132.210666,17.1605017 132.324,17.2058353 C132.641335,17.3191692 132.754667,17.6591658 132.664,18.2258353 C132.301332,18.9511723 131.780003,19.5688328 131.1,20.0788353 C130.419997,20.5888379 129.660671,20.9118346 128.822,21.0478353 C128.096663,21.183836 127.348671,21.1498363 126.578,20.9458353 C125.807329,20.7418343 125.116003,20.3451716 124.504,19.7558353 C123.982664,19.2344994 123.586001,18.6225055 123.314,17.9198353 C123.041999,17.2171651 122.872,16.491839 122.804,15.7438353 C122.736,15.0411651 122.798332,14.3725051 122.991,13.7378353 C123.183668,13.1031655 123.483998,12.5421711 123.892,12.0548353 C124.300002,11.5674995 124.809997,11.1651702 125.422,10.8478353 C126.034003,10.5305004 126.747996,10.3491689 127.564,10.3038353 C128.538672,10.235835 129.422663,10.4171665 130.216,10.8478353 C131.009337,11.2785041 131.564665,11.8791648 131.882,12.6498353 C132.063334,13.0805041 132.114334,13.4545004 132.035,13.7718353 C131.955666,14.0891702 131.723335,14.3725007 131.338,14.6218353 Z M127.428,12.3098353 C127.201332,12.3551689 126.957668,12.4345014 126.697,12.5478353 C126.436332,12.6611692 126.198334,12.8028345 125.983,12.9728353 C125.767666,13.1428362 125.575001,13.3355009 125.405,13.5508353 C125.234999,13.7661697 125.138667,14.0098339 125.116,14.2818353 C125.501335,14.2818353 125.926331,14.2478356 126.391,14.1798353 C126.855669,14.111835 127.308998,14.0268358 127.751,13.9248353 C128.193002,13.8228348 128.600998,13.703836 128.975,13.5678353 C129.349002,13.4318346 129.660665,13.2845028 129.91,13.1258353 C129.728666,12.6951665 129.394336,12.4288358 128.907,12.3268353 C128.419664,12.2248348 127.926669,12.2191682 127.428,12.3098353 Z M145.04,19.4158353 C145.470669,19.9371712 145.72,20.4074999 145.788,20.8268353 C145.856,21.2461707 145.686002,21.5465011 145.278,21.7278353 C145.187333,21.7731689 145.057001,21.7788355 144.887,21.7448353 C144.716999,21.7108351 144.535668,21.654169 144.343,21.5748353 C144.150332,21.4955016 143.963334,21.3991692 143.782,21.2858353 C143.600666,21.1725014 143.453334,21.0591692 143.34,20.9458353 C142.841331,20.3791658 142.348336,19.8125048 141.861,19.2458353 C141.373664,18.6791658 140.869336,18.1125048 140.348,17.5458353 L136.642,21.3198353 C136.256665,21.6371702 135.905335,21.7675023 135.588,21.7108353 C135.270665,21.6541684 135.112,21.4898367 135.112,21.2178353 C135.112,20.7871665 135.185666,20.3848372 135.333,20.0108353 C135.480334,19.6368334 135.678665,19.279837 135.928,18.9398353 C136.381336,18.3958326 136.845998,17.8631712 137.322,17.3418353 L138.75,15.7778353 C138.160664,15.1658322 137.56567,14.559505 136.965,13.9588353 C136.36433,13.3581656 135.74667,12.7631716 135.112,12.1738353 C134.839999,12.1738353 134.658667,12.1285024 134.568,12.0378353 C134.477333,11.9471682 134.426333,11.8395026 134.415,11.7148353 C134.403667,11.590168 134.420666,11.4711692 134.466,11.3578353 C134.511334,11.2445014 134.556666,11.1651689 134.602,11.1198353 C135.010002,10.7118333 135.417998,10.5135019 135.826,10.5248353 C136.234002,10.5361687 136.641998,10.6665007 137.05,10.9158353 C138.251339,11.8678401 139.373328,12.8991631 140.416,14.0098353 C141.322671,13.0578305 142.251995,12.1285065 143.204,11.2218353 C143.498668,11.0405011 143.815998,10.9271689 144.156,10.8818353 C144.496002,10.8365017 144.869998,10.9158343 145.278,11.1198353 C145.482001,11.3691699 145.544334,11.658167 145.465,11.9868353 C145.385666,12.3155036 145.198668,12.6385004 144.904,12.9558353 L142.082,15.8118353 C142.603336,16.4011716 143.113331,17.0018322 143.612,17.6138353 C144.110669,18.2258384 144.586664,18.826499 145.04,19.4158353 Z M153.812,26.3178353 C153.789333,26.5671699 153.676001,26.7995009 153.472,27.0148353 C153.267999,27.2301697 153.041335,27.3265021 152.792,27.3038353 C152.406665,27.2811685 152.112001,27.1338367 151.908,26.8618353 C151.703999,26.5898339 151.602,26.3631695 151.602,26.1818353 C151.602,25.3204977 151.579334,24.4195067 151.534,23.4788353 C151.488666,22.5381639 151.432,21.5691736 151.364,20.5718353 C151.069332,20.6171689 150.803001,20.5888358 150.565,20.4868353 C150.326999,20.3848348 150.162667,20.2205031 150.072,19.9938353 C149.913333,19.6085 149.935999,19.2685034 150.14,18.9738353 C150.344001,18.6791672 150.672664,18.3958367 151.126,18.1238353 C151.012666,17.2851644 150.905001,16.4578394 150.803,15.6418353 C150.700999,14.8258312 150.593334,14.0325058 150.48,13.2618353 C150.457333,13.1258346 150.468666,13.0011692 150.514,12.8878353 C150.559334,12.7745014 150.616,12.6668358 150.684,12.5648353 C150.752,12.4628348 150.876666,12.3665024 151.058,12.2758353 C151.352668,12.1625014 151.686998,12.2531672 152.061,12.5478353 C152.435002,12.8425034 152.689999,13.2164997 152.826,13.6698353 C152.894,14.1005041 152.967666,14.5934992 153.047,15.1488353 C153.126334,15.7041714 153.2,16.3104987 153.268,16.9678353 C153.744002,16.6731672 154.191665,16.355837 154.611,16.0158353 C155.030335,15.6758336 155.392998,15.3131706 155.699,14.9278353 C156.005002,14.5425 156.237333,14.1401707 156.396,13.7208353 C156.554667,13.3014999 156.6,12.8651709 156.532,12.4118353 C156.486666,12.0265 156.316668,11.6808368 156.022,11.3748353 C155.727332,11.0688338 155.26267,10.9045021 154.628,10.8818353 C154.06133,10.8591685 153.500336,10.9045014 152.945,11.0178353 C152.389664,11.1311692 151.845669,11.2785011 151.313,11.4598353 C150.780331,11.6411695 150.259003,11.8565007 149.749,12.1058353 C149.238997,12.3551699 148.746002,12.6045007 148.27,12.8538353 C147.952665,13.0351695 147.641002,13.1088355 147.335,13.0748353 C147.028998,13.0408351 146.830667,12.9331695 146.74,12.7518353 C146.535999,12.2984997 146.552999,11.8905038 146.791,11.5278353 C147.029001,11.1651668 147.397331,10.8251702 147.896,10.5078353 C148.326669,10.2585007 148.84233,10.0035033 149.443,9.7428353 C150.04367,9.48216733 150.67833,9.25550293 151.347,9.0628353 C152.01567,8.87016767 152.695663,8.73416903 153.387,8.6548353 C154.078337,8.57550157 154.74133,8.58683479 155.376,8.6888353 C156.01067,8.79083581 156.582997,9.00616699 157.093,9.3348353 C157.603003,9.66350361 158.016665,10.1451655 158.334,10.7798353 C158.719335,11.8225072 158.827001,12.7801643 158.657,13.6528353 C158.486999,14.5255063 158.147003,15.3188317 157.637,16.0328353 C157.126997,16.7468389 156.50367,17.3928324 155.767,17.9708353 C155.03033,18.5488382 154.288004,19.0644997 153.54,19.5178353 C153.653334,20.7418414 153.732666,21.954496 153.778,23.1558353 C153.823334,24.3571746 153.834667,25.4111641 153.812,26.3178353 Z M169.248,14.6218353 C168.363996,15.1431712 167.412005,15.5455006 166.392,15.8288353 C165.371995,16.1121701 164.272673,16.2538353 163.094,16.2538353 C163.139334,17.0471726 163.365998,17.6761663 163.774,18.1408353 C164.182002,18.6055043 164.691997,18.8831682 165.304,18.9738353 C165.666668,19.0191689 166.034998,19.0078356 166.409,18.9398353 C166.783002,18.871835 167.134332,18.7641694 167.463,18.6168353 C167.791668,18.4695012 168.091999,18.3051695 168.364,18.1238353 C168.636001,17.9425011 168.873999,17.7611695 169.078,17.5798353 C169.282001,17.3985011 169.497332,17.2795023 169.724,17.2228353 C169.950668,17.1661684 170.120666,17.1605017 170.234,17.2058353 C170.551335,17.3191692 170.664667,17.6591658 170.574,18.2258353 C170.211332,18.9511723 169.690003,19.5688328 169.01,20.0788353 C168.329997,20.5888379 167.570671,20.9118346 166.732,21.0478353 C166.006663,21.183836 165.258671,21.1498363 164.488,20.9458353 C163.717329,20.7418343 163.026003,20.3451716 162.414,19.7558353 C161.892664,19.2344994 161.496001,18.6225055 161.224,17.9198353 C160.951999,17.2171651 160.782,16.491839 160.714,15.7438353 C160.646,15.0411651 160.708332,14.3725051 160.901,13.7378353 C161.093668,13.1031655 161.393998,12.5421711 161.802,12.0548353 C162.210002,11.5674995 162.719997,11.1651702 163.332,10.8478353 C163.944003,10.5305004 164.657996,10.3491689 165.474,10.3038353 C166.448672,10.235835 167.332663,10.4171665 168.126,10.8478353 C168.919337,11.2785041 169.474665,11.8791648 169.792,12.6498353 C169.973334,13.0805041 170.024334,13.4545004 169.945,13.7718353 C169.865666,14.0891702 169.633335,14.3725007 169.248,14.6218353 Z M165.338,12.3098353 C165.111332,12.3551689 164.867668,12.4345014 164.607,12.5478353 C164.346332,12.6611692 164.108334,12.8028345 163.893,12.9728353 C163.677666,13.1428362 163.485001,13.3355009 163.315,13.5508353 C163.144999,13.7661697 163.048667,14.0098339 163.026,14.2818353 C163.411335,14.2818353 163.836331,14.2478356 164.301,14.1798353 C164.765669,14.111835 165.218998,14.0268358 165.661,13.9248353 C166.103002,13.8228348 166.510998,13.703836 166.885,13.5678353 C167.259002,13.4318346 167.570665,13.2845028 167.82,13.1258353 C167.638666,12.6951665 167.304336,12.4288358 166.817,12.3268353 C166.329664,12.2248348 165.836669,12.2191682 165.338,12.3098353 Z M183.12,10.8818353 C182.711998,11.1085031 182.287002,11.3465007 181.845,11.5958353 C181.402998,11.8451699 180.961002,12.134167 180.519,12.4628353 C180.076998,12.7915036 179.657669,13.1768331 179.261,13.6188353 C178.864331,14.0608375 178.507335,14.5878322 178.19,15.1998353 C177.736664,16.0611729 177.430667,16.9394975 177.272,17.8348353 C177.113333,18.7301731 177.011334,19.6084977 176.966,20.4698353 C176.966,20.8778373 176.869668,21.2914999 176.677,21.7108353 C176.484332,22.1301707 176.218002,22.3398353 175.878,22.3398353 C175.447331,22.3398353 175.101668,22.1188375 174.841,21.6768353 C174.580332,21.2348331 174.404667,20.8098373 174.314,20.4018353 C173.928665,18.7924939 173.611335,17.2001765 173.362,15.6248353 C173.112665,14.0494941 172.897334,12.4798431 172.716,10.9158353 C172.716,10.5985004 172.812332,10.3945024 173.005,10.3038353 C173.197668,10.2131682 173.418665,10.1791685 173.668,10.2018353 C173.940001,10.2245021 174.200665,10.2925014 174.45,10.4058353 C174.699335,10.5191692 174.846666,10.7005007 174.892,10.9498353 C174.982667,11.7885062 175.095999,12.6668307 175.232,13.5848353 C175.368001,14.5028399 175.503999,15.2904987 175.64,15.9478353 C175.730667,15.1771648 175.979998,14.4291723 176.388,13.7038353 C176.796002,12.9784983 177.30033,12.3211716 177.901,11.7318353 C178.50167,11.142499 179.181663,10.6438373 179.941,10.2358353 C180.700337,9.82783326 181.476663,9.55583598 182.27,9.4198353 C182.610002,9.37450174 182.893332,9.37450174 183.12,9.4198353 C183.346668,9.46516886 183.505333,9.5445014 183.596,9.6578353 C183.686667,9.7711692 183.703667,9.95250072 183.647,10.2018353 C183.590333,10.4511699 183.414668,10.6778343 183.12,10.8818353 Z M192.878,13.4998353 C193.308669,13.4771685 193.739331,13.5791675 194.17,13.8058353 C194.600669,14.0325031 194.816,14.3838329 194.816,14.8598353 C194.770666,15.2451706 194.561002,15.4888348 194.187,15.5908353 C193.812998,15.6928358 193.512668,15.7438353 193.286,15.7438353 C192.832664,15.7438353 192.345336,15.7551685 191.824,15.7778353 C191.302664,15.8005021 190.770003,15.8345017 190.226,15.8798353 C190.180666,16.627839 190.141,17.3304987 190.107,17.9878353 C190.073,18.6451719 190.044667,19.2288328 190.022,19.7388353 C189.999333,20.2488379 189.988,20.6625004 189.988,20.9798353 C189.988,21.2971702 189.999333,21.4671685 190.022,21.4898353 C190.520669,21.3991682 191.058997,21.2461697 191.637,21.0308353 C192.215003,20.8155009 192.792997,20.5775033 193.371,20.3168353 C193.949003,20.0561673 194.515664,19.7841701 195.071,19.5008353 C195.626336,19.2175006 196.153331,18.9511699 196.652,18.7018353 C196.878668,18.5885014 197.088332,18.5545017 197.281,18.5998353 C197.473668,18.6451689 197.592666,18.7471678 197.638,18.9058353 C197.683334,19.1551699 197.649334,19.4611668 197.536,19.8238353 C197.422666,20.1865038 197.218668,20.5151672 196.924,20.8098353 C196.583998,21.0818367 196.136336,21.3935002 195.581,21.7448353 C195.025664,22.0961704 194.43067,22.4305004 193.796,22.7478353 C193.16133,23.0651702 192.521003,23.3428341 191.875,23.5808353 C191.228997,23.8188365 190.656669,23.9605017 190.158,24.0058353 C189.409996,24.0738356 188.843335,23.8698377 188.458,23.3938353 C188.072665,22.9178329 187.857334,22.3171723 187.812,21.5918353 C187.766666,20.8664983 187.761,20.0278401 187.795,19.0758353 C187.829,18.1238305 187.868666,17.115174 187.914,16.0498353 C187.483331,16.0951689 187.069669,16.1348351 186.673,16.1688353 C186.276331,16.2028355 185.896668,16.2425017 185.534,16.2878353 C185.239332,16.2878353 184.916335,16.219836 184.565,16.0838353 C184.213665,15.9478346 184.038,15.6871706 184.038,15.3018353 C184.038,15.1658346 184.094666,14.9845031 184.208,14.7578353 C184.321334,14.5311675 184.570665,14.3611692 184.956,14.2478353 C185.885338,14.0891678 186.916661,13.9531692 188.05,13.8398353 C188.118,12.7744966 188.197333,11.7431736 188.288,10.7458353 C188.378667,9.74849698 188.458,8.84183938 188.526,8.0258353 C188.548667,7.75383394 188.627999,7.51583632 188.764,7.3118353 C188.900001,7.10783428 189.047333,7.0058353 189.206,7.0058353 C189.591335,6.98316852 189.959665,7.07950089 190.311,7.2948353 C190.662335,7.51016971 190.838,7.75383394 190.838,8.0258353 C190.747333,8.79650582 190.662334,9.66916376 190.583,10.6438353 C190.503666,11.6185068 190.43,12.6158302 190.362,13.6358353 C190.815336,13.5905017 191.251665,13.5621687 191.671,13.5508353 C192.090335,13.5395019 192.492665,13.5225021 192.878,13.4998353 Z M205.39,12.4458353 C205.344666,12.1965007 205.299334,11.9585031 205.254,11.7318353 C205.208666,11.5051675 205.095334,11.3578356 204.914,11.2898353 C204.528665,11.1765014 204.120669,11.1651682 203.69,11.2558353 C203.259331,11.3465024 202.862668,11.4881677 202.5,11.6808353 C202.137332,11.8735029 201.831335,12.0888341 201.582,12.3268353 C201.332665,12.5648365 201.196667,12.7745011 201.174,12.9558353 C201.106,13.295837 201.196665,13.6245004 201.446,13.9418353 C201.695335,14.2591702 202.057998,14.5765004 202.534,14.8938353 C203.327337,15.3698377 204.154662,15.8571661 205.016,16.3558353 C205.877338,16.8545045 206.602664,17.3644994 207.192,17.8858353 C207.781336,18.4071712 208.183666,18.9794989 208.399,19.6028353 C208.614334,20.2261718 208.563335,20.934498 208.246,21.7278353 C207.996665,22.3398384 207.532003,22.8385 206.852,23.2238353 C206.171997,23.6091706 205.424004,23.9095009 204.608,24.1248353 C203.791996,24.3401697 202.976004,24.4875016 202.16,24.5668353 C201.343996,24.646169 200.652669,24.6858353 200.086,24.6858353 C199.949999,24.6858353 199.785668,24.6348358 199.593,24.5328353 C199.400332,24.4308348 199.219001,24.311836 199.049,24.1758353 C198.878999,24.0398346 198.731667,23.8981694 198.607,23.7508353 C198.482333,23.6035012 198.42,23.4731692 198.42,23.3598353 C198.42,22.9518333 198.601332,22.6685028 198.964,22.5098353 C199.326668,22.3511678 199.700665,22.2718353 200.086,22.2718353 C200.630003,22.2718353 201.213664,22.2435023 201.837,22.1868353 C202.460336,22.1301684 203.05533,22.0395026 203.622,21.9148353 C204.188669,21.790168 204.698664,21.6258363 205.152,21.4218353 C205.605336,21.2178343 205.922666,20.9571702 206.104,20.6398353 C206.262667,20.3678339 206.166335,20.0448372 205.815,19.6708353 C205.463665,19.2968334 204.999003,18.9058373 204.421,18.4978353 C203.842997,18.0898333 203.21967,17.6931706 202.551,17.3078353 C201.88233,16.9225 201.310002,16.5711702 200.834,16.2538353 C200.357998,15.9365004 199.950002,15.5568375 199.61,15.1148353 C199.269998,14.6728331 199.054667,14.1231719 198.964,13.4658353 C198.941333,12.876499 199.065999,12.309838 199.338,11.7658353 C199.610001,11.2218326 199.966998,10.7401707 200.409,10.3208353 C200.851002,9.90149987 201.35533,9.56716988 201.922,9.3178353 C202.488669,9.06850072 203.05533,8.9438353 203.622,8.9438353 C204.596672,8.98916886 205.40133,9.25549953 206.036,9.7428353 C206.67067,10.2301711 207.044666,10.9498305 207.158,11.9018353 C207.158,12.2191702 207.107001,12.4798343 207.005,12.6838353 C206.902999,12.8878363 206.727335,13.0125017 206.478,13.0578353 C206.160665,13.1031689 205.905668,13.0635026 205.713,12.9388353 C205.520332,12.814168 205.412667,12.6498363 205.39,12.4458353 Z M228.578,10.0318353 C228.668667,10.6665051 228.742333,11.3408317 228.799,12.0548353 C228.855667,12.7688389 228.901,13.4884983 228.935,14.2138353 C228.969,14.9391723 228.986,15.6418319 228.986,16.3218353 C228.986,17.0018387 228.974667,17.6138326 228.952,18.1578353 C229.677337,18.6565045 230.113666,19.0985 230.261,19.4838353 C230.408334,19.8691706 230.425334,20.2091672 230.312,20.5038353 C230.175999,20.9118373 229.932335,21.1215019 229.581,21.1328353 C229.229665,21.1441687 228.827336,21.0251699 228.374,20.7758353 C228.056665,21.0025031 227.694002,21.2461673 227.286,21.5068353 C226.877998,21.7675033 226.447336,22.0168341 225.994,22.2548353 C225.540664,22.4928365 225.087336,22.7025011 224.634,22.8838353 C224.180664,23.0651695 223.761335,23.189835 223.376,23.2578353 C222.650663,23.3711692 221.999003,23.2351706 221.421,22.8498353 C220.842997,22.4645 220.452001,21.8865058 220.248,21.1158353 C220.111999,20.5944994 220.078,20.0561714 220.146,19.5008353 C220.214,18.9454992 220.383999,18.4128379 220.656,17.9028353 C220.928001,17.3928328 221.296331,16.9338373 221.761,16.5258353 C222.225669,16.1178333 222.77533,15.8005031 223.41,15.5738353 C223.568667,15.505835 223.789665,15.4491689 224.073,15.4038353 C224.356335,15.3585017 224.650998,15.3415019 224.957,15.3528353 C225.263002,15.3641687 225.574665,15.4265014 225.892,15.5398353 C226.209335,15.6531692 226.503999,15.8458339 226.776,16.1178353 C226.776,15.7325 226.770333,15.3075043 226.759,14.8428353 C226.747667,14.3781663 226.730667,13.9078377 226.708,13.4318353 C226.685333,12.9558329 226.657,12.5081707 226.623,12.0888353 C226.589,11.6694999 226.549334,11.3125034 226.504,11.0178353 C226.458666,10.6778336 226.328334,10.468169 226.113,10.3888353 C225.897666,10.3095016 225.631335,10.3265014 225.314,10.4398353 C224.769997,10.6211695 224.135337,10.9724994 223.41,11.4938353 C222.684663,12.0151712 221.993337,12.570499 221.336,13.1598353 C221.131999,13.3638363 220.899668,13.4545021 220.639,13.4318353 C220.378332,13.4091685 220.157334,13.3071695 219.976,13.1258353 C219.794666,12.9445011 219.692667,12.7348365 219.67,12.4968353 C219.647333,12.2588341 219.737999,12.0038367 219.942,11.7318353 C220.327335,11.3238333 220.757998,10.9045041 221.234,10.4738353 C221.710002,10.0431665 222.208664,9.65217039 222.73,9.3008353 C223.251336,8.94950021 223.783997,8.6605031 224.328,8.4338353 C224.872003,8.2071675 225.415997,8.08250208 225.96,8.0598353 C226.753337,8.03716852 227.365331,8.21283343 227.796,8.5868353 C228.226669,8.96083717 228.487333,9.44249902 228.578,10.0318353 Z M224.634,17.3418353 C224.339332,17.4098356 224.027668,17.5515009 223.699,17.7668353 C223.370332,17.9821697 223.075668,18.2428338 222.815,18.5488353 C222.554332,18.8548368 222.361667,19.1948334 222.237,19.5688353 C222.112333,19.9428372 222.106666,20.3111668 222.22,20.6738353 C222.265334,20.809836 222.361666,20.911835 222.509,20.9798353 C222.656334,21.0478356 222.820666,21.0591689 223.002,21.0138353 C223.546003,20.9005014 224.163663,20.6795036 224.855,20.3508353 C225.546337,20.022167 226.095998,19.6651706 226.504,19.2798353 C226.504,19.1438346 226.436001,18.9681697 226.3,18.7528353 C226.163999,18.5375009 226.005334,18.3221697 225.824,18.1068353 C225.642666,17.8915009 225.444334,17.7045028 225.229,17.5458353 C225.013666,17.3871678 224.815334,17.3191685 224.634,17.3418353 Z M242.45,10.8818353 C242.041998,11.1085031 241.617002,11.3465007 241.175,11.5958353 C240.732998,11.8451699 240.291002,12.134167 239.849,12.4628353 C239.406998,12.7915036 238.987669,13.1768331 238.591,13.6188353 C238.194331,14.0608375 237.837335,14.5878322 237.52,15.1998353 C237.066664,16.0611729 236.760667,16.9394975 236.602,17.8348353 C236.443333,18.7301731 236.341334,19.6084977 236.296,20.4698353 C236.296,20.8778373 236.199668,21.2914999 236.007,21.7108353 C235.814332,22.1301707 235.548002,22.3398353 235.208,22.3398353 C234.777331,22.3398353 234.431668,22.1188375 234.171,21.6768353 C233.910332,21.2348331 233.734667,20.8098373 233.644,20.4018353 C233.258665,18.7924939 232.941335,17.2001765 232.692,15.6248353 C232.442665,14.0494941 232.227334,12.4798431 232.046,10.9158353 C232.046,10.5985004 232.142332,10.3945024 232.335,10.3038353 C232.527668,10.2131682 232.748665,10.1791685 232.998,10.2018353 C233.270001,10.2245021 233.530665,10.2925014 233.78,10.4058353 C234.029335,10.5191692 234.176666,10.7005007 234.222,10.9498353 C234.312667,11.7885062 234.425999,12.6668307 234.562,13.5848353 C234.698001,14.5028399 234.833999,15.2904987 234.97,15.9478353 C235.060667,15.1771648 235.309998,14.4291723 235.718,13.7038353 C236.126002,12.9784983 236.63033,12.3211716 237.231,11.7318353 C237.83167,11.142499 238.511663,10.6438373 239.271,10.2358353 C240.030337,9.82783326 240.806663,9.55583598 241.6,9.4198353 C241.940002,9.37450174 242.223332,9.37450174 242.45,9.4198353 C242.676668,9.46516886 242.835333,9.5445014 242.926,9.6578353 C243.016667,9.7711692 243.033667,9.95250072 242.977,10.2018353 C242.920333,10.4511699 242.744668,10.6778343 242.45,10.8818353 Z M252.718,14.6218353 C251.833996,15.1431712 250.882005,15.5455006 249.862,15.8288353 C248.841995,16.1121701 247.742673,16.2538353 246.564,16.2538353 C246.609334,17.0471726 246.835998,17.6761663 247.244,18.1408353 C247.652002,18.6055043 248.161997,18.8831682 248.774,18.9738353 C249.136668,19.0191689 249.504998,19.0078356 249.879,18.9398353 C250.253002,18.871835 250.604332,18.7641694 250.933,18.6168353 C251.261668,18.4695012 251.561999,18.3051695 251.834,18.1238353 C252.106001,17.9425011 252.343999,17.7611695 252.548,17.5798353 C252.752001,17.3985011 252.967332,17.2795023 253.194,17.2228353 C253.420668,17.1661684 253.590666,17.1605017 253.704,17.2058353 C254.021335,17.3191692 254.134667,17.6591658 254.044,18.2258353 C253.681332,18.9511723 253.160003,19.5688328 252.48,20.0788353 C251.799997,20.5888379 251.040671,20.9118346 250.202,21.0478353 C249.476663,21.183836 248.728671,21.1498363 247.958,20.9458353 C247.187329,20.7418343 246.496003,20.3451716 245.884,19.7558353 C245.362664,19.2344994 244.966001,18.6225055 244.694,17.9198353 C244.421999,17.2171651 244.252,16.491839 244.184,15.7438353 C244.116,15.0411651 244.178332,14.3725051 244.371,13.7378353 C244.563668,13.1031655 244.863998,12.5421711 245.272,12.0548353 C245.680002,11.5674995 246.189997,11.1651702 246.802,10.8478353 C247.414003,10.5305004 248.127996,10.3491689 248.944,10.3038353 C249.918672,10.235835 250.802663,10.4171665 251.596,10.8478353 C252.389337,11.2785041 252.944665,11.8791648 253.262,12.6498353 C253.443334,13.0805041 253.494334,13.4545004 253.415,13.7718353 C253.335666,14.0891702 253.103335,14.3725007 252.718,14.6218353 Z M248.808,12.3098353 C248.581332,12.3551689 248.337668,12.4345014 248.077,12.5478353 C247.816332,12.6611692 247.578334,12.8028345 247.363,12.9728353 C247.147666,13.1428362 246.955001,13.3355009 246.785,13.5508353 C246.614999,13.7661697 246.518667,14.0098339 246.496,14.2818353 C246.881335,14.2818353 247.306331,14.2478356 247.771,14.1798353 C248.235669,14.111835 248.688998,14.0268358 249.131,13.9248353 C249.573002,13.8228348 249.980998,13.703836 250.355,13.5678353 C250.729002,13.4318346 251.040665,13.2845028 251.29,13.1258353 C251.108666,12.6951665 250.774336,12.4288358 250.287,12.3268353 C249.799664,12.2248348 249.306669,12.2191682 248.808,12.3098353 Z M272.302,12.4458353 C272.256666,12.1965007 272.211334,11.9585031 272.166,11.7318353 C272.120666,11.5051675 272.007334,11.3578356 271.826,11.2898353 C271.440665,11.1765014 271.032669,11.1651682 270.602,11.2558353 C270.171331,11.3465024 269.774668,11.4881677 269.412,11.6808353 C269.049332,11.8735029 268.743335,12.0888341 268.494,12.3268353 C268.244665,12.5648365 268.108667,12.7745011 268.086,12.9558353 C268.018,13.295837 268.108665,13.6245004 268.358,13.9418353 C268.607335,14.2591702 268.969998,14.5765004 269.446,14.8938353 C270.239337,15.3698377 271.066662,15.8571661 271.928,16.3558353 C272.789338,16.8545045 273.514664,17.3644994 274.104,17.8858353 C274.693336,18.4071712 275.095666,18.9794989 275.311,19.6028353 C275.526334,20.2261718 275.475335,20.934498 275.158,21.7278353 C274.908665,22.3398384 274.444003,22.8385 273.764,23.2238353 C273.083997,23.6091706 272.336004,23.9095009 271.52,24.1248353 C270.703996,24.3401697 269.888004,24.4875016 269.072,24.5668353 C268.255996,24.646169 267.56467,24.6858353 266.998,24.6858353 C266.861999,24.6858353 266.697668,24.6348358 266.505,24.5328353 C266.312332,24.4308348 266.131001,24.311836 265.961,24.1758353 C265.790999,24.0398346 265.643667,23.8981694 265.519,23.7508353 C265.394333,23.6035012 265.332,23.4731692 265.332,23.3598353 C265.332,22.9518333 265.513332,22.6685028 265.876,22.5098353 C266.238668,22.3511678 266.612665,22.2718353 266.998,22.2718353 C267.542003,22.2718353 268.125664,22.2435023 268.749,22.1868353 C269.372336,22.1301684 269.967331,22.0395026 270.534,21.9148353 C271.10067,21.790168 271.610664,21.6258363 272.064,21.4218353 C272.517336,21.2178343 272.834666,20.9571702 273.016,20.6398353 C273.174667,20.3678339 273.078335,20.0448372 272.727,19.6708353 C272.375665,19.2968334 271.911003,18.9058373 271.333,18.4978353 C270.754997,18.0898333 270.13167,17.6931706 269.463,17.3078353 C268.79433,16.9225 268.222002,16.5711702 267.746,16.2538353 C267.269998,15.9365004 266.862002,15.5568375 266.522,15.1148353 C266.181998,14.6728331 265.966667,14.1231719 265.876,13.4658353 C265.853333,12.876499 265.977999,12.309838 266.25,11.7658353 C266.522001,11.2218326 266.878998,10.7401707 267.321,10.3208353 C267.763002,9.90149987 268.267331,9.56716988 268.834,9.3178353 C269.400669,9.06850072 269.967331,8.9438353 270.534,8.9438353 C271.508672,8.98916886 272.31333,9.25549953 272.948,9.7428353 C273.58267,10.2301711 273.956666,10.9498305 274.07,11.9018353 C274.07,12.2191702 274.019001,12.4798343 273.917,12.6838353 C273.814999,12.8878363 273.639335,13.0125017 273.39,13.0578353 C273.072665,13.1031689 272.817668,13.0635026 272.625,12.9388353 C272.432332,12.814168 272.324667,12.6498363 272.302,12.4458353 Z M285.97,10.0318353 C286.060667,10.6665051 286.134333,11.3408317 286.191,12.0548353 C286.247667,12.7688389 286.293,13.4884983 286.327,14.2138353 C286.361,14.9391723 286.378,15.6418319 286.378,16.3218353 C286.378,17.0018387 286.366667,17.6138326 286.344,18.1578353 C287.069337,18.6565045 287.505666,19.0985 287.653,19.4838353 C287.800334,19.8691706 287.817334,20.2091672 287.704,20.5038353 C287.567999,20.9118373 287.324335,21.1215019 286.973,21.1328353 C286.621665,21.1441687 286.219336,21.0251699 285.766,20.7758353 C285.448665,21.0025031 285.086002,21.2461673 284.678,21.5068353 C284.269998,21.7675033 283.839336,22.0168341 283.386,22.2548353 C282.932664,22.4928365 282.479336,22.7025011 282.026,22.8838353 C281.572664,23.0651695 281.153335,23.189835 280.768,23.2578353 C280.042663,23.3711692 279.391003,23.2351706 278.813,22.8498353 C278.234997,22.4645 277.844001,21.8865058 277.64,21.1158353 C277.503999,20.5944994 277.47,20.0561714 277.538,19.5008353 C277.606,18.9454992 277.775999,18.4128379 278.048,17.9028353 C278.320001,17.3928328 278.688331,16.9338373 279.153,16.5258353 C279.617669,16.1178333 280.16733,15.8005031 280.802,15.5738353 C280.960667,15.505835 281.181665,15.4491689 281.465,15.4038353 C281.748335,15.3585017 282.042998,15.3415019 282.349,15.3528353 C282.655002,15.3641687 282.966665,15.4265014 283.284,15.5398353 C283.601335,15.6531692 283.895999,15.8458339 284.168,16.1178353 C284.168,15.7325 284.162333,15.3075043 284.151,14.8428353 C284.139667,14.3781663 284.122667,13.9078377 284.1,13.4318353 C284.077333,12.9558329 284.049,12.5081707 284.015,12.0888353 C283.981,11.6694999 283.941334,11.3125034 283.896,11.0178353 C283.850666,10.6778336 283.720334,10.468169 283.505,10.3888353 C283.289666,10.3095016 283.023335,10.3265014 282.706,10.4398353 C282.161997,10.6211695 281.527337,10.9724994 280.802,11.4938353 C280.076663,12.0151712 279.385337,12.570499 278.728,13.1598353 C278.523999,13.3638363 278.291668,13.4545021 278.031,13.4318353 C277.770332,13.4091685 277.549334,13.3071695 277.368,13.1258353 C277.186666,12.9445011 277.084667,12.7348365 277.062,12.4968353 C277.039333,12.2588341 277.129999,12.0038367 277.334,11.7318353 C277.719335,11.3238333 278.149998,10.9045041 278.626,10.4738353 C279.102002,10.0431665 279.600664,9.65217039 280.122,9.3008353 C280.643336,8.94950021 281.175997,8.6605031 281.72,8.4338353 C282.264003,8.2071675 282.807997,8.08250208 283.352,8.0598353 C284.145337,8.03716852 284.757331,8.21283343 285.188,8.5868353 C285.618669,8.96083717 285.879333,9.44249902 285.97,10.0318353 Z M282.026,17.3418353 C281.731332,17.4098356 281.419668,17.5515009 281.091,17.7668353 C280.762332,17.9821697 280.467668,18.2428338 280.207,18.5488353 C279.946332,18.8548368 279.753667,19.1948334 279.629,19.5688353 C279.504333,19.9428372 279.498666,20.3111668 279.612,20.6738353 C279.657334,20.809836 279.753666,20.911835 279.901,20.9798353 C280.048334,21.0478356 280.212666,21.0591689 280.394,21.0138353 C280.938003,20.9005014 281.555663,20.6795036 282.247,20.3508353 C282.938337,20.022167 283.487998,19.6651706 283.896,19.2798353 C283.896,19.1438346 283.828001,18.9681697 283.692,18.7528353 C283.555999,18.5375009 283.397334,18.3221697 283.216,18.1068353 C283.034666,17.8915009 282.836334,17.7045028 282.621,17.5458353 C282.405666,17.3871678 282.207334,17.3191685 282.026,17.3418353 Z M300.216,11.9018353 C300.284,13.1258414 300.357666,14.3611624 300.437,15.6078353 C300.516334,16.8545082 300.533334,18.0841626 300.488,19.2968353 C300.442666,20.509508 300.323668,21.6938295 300.131,22.8498353 C299.938332,24.0058411 299.615336,25.11083 299.162,26.1648353 C298.708664,27.2188406 298.102337,28.1991641 297.343,29.1058353 C296.583663,30.0125065 295.626006,30.8284983 294.47,31.5538353 C294.288666,31.6671692 294.090334,31.7351685 293.875,31.7578353 C293.659666,31.7805021 293.450001,31.7748355 293.246,31.7408353 C293.041999,31.7068351 292.860667,31.650169 292.702,31.5708353 C292.543333,31.4915016 292.441334,31.383836 292.396,31.2478353 C292.328,31.0438343 292.361999,30.8171699 292.498,30.5678353 C292.634001,30.3185007 292.860665,30.0578367 293.178,29.7858353 C294.175338,29.0378316 295.013997,28.2445062 295.694,27.4058353 C296.374003,26.5671644 296.917998,25.6605068 297.326,24.6858353 C297.734002,23.7111638 298.000333,22.6515077 298.125,21.5068353 C298.249667,20.3621629 298.244001,19.1098421 298.108,17.7498353 C297.835999,18.089837 297.518668,18.4411668 297.156,18.8038353 C296.793332,19.1665038 296.408002,19.4895006 296,19.7728353 C295.591998,20.0561701 295.172669,20.2941677 294.742,20.4868353 C294.311331,20.6795029 293.903335,20.7758353 293.518,20.7758353 C293.200665,20.7758353 292.883335,20.707836 292.566,20.5718353 C292.248665,20.4358346 291.931335,20.1751706 291.614,19.7898353 C291.251332,19.3138329 290.928335,18.775505 290.645,18.1748353 C290.361665,17.5741656 290.118001,16.9905048 289.914,16.4238353 C289.709999,15.8571658 289.545667,15.3471709 289.421,14.8938353 C289.296333,14.4404997 289.222667,14.1231695 289.2,13.9418353 C289.154666,13.7151675 289.154666,13.4998363 289.2,13.2958353 C289.245334,13.0918343 289.392665,12.9671689 289.642,12.9218353 C289.982002,12.853835 290.299332,12.8765014 290.594,12.9898353 C290.888668,13.1031692 291.092666,13.2845007 291.206,13.5338353 C291.296667,13.7831699 291.421333,14.1684994 291.58,14.6898353 C291.738667,15.2111712 291.931332,15.7268328 292.158,16.2368353 C292.384668,16.7468379 292.628332,17.1945 292.889,17.5798353 C293.149668,17.9651706 293.427332,18.1578353 293.722,18.1578353 C294.062002,18.1578353 294.464331,17.987837 294.929,17.6478353 C295.393669,17.3078336 295.841331,16.865838 296.272,16.3218353 C296.702669,15.7778326 297.070998,15.1715053 297.377,14.5028353 C297.683002,13.8341653 297.836,13.1825051 297.836,12.5478353 C297.836,12.4118346 297.858666,12.2531695 297.904,12.0718353 C297.949334,11.8905011 298.017333,11.7148362 298.108,11.5448353 C298.198667,11.3748345 298.306333,11.2275026 298.431,11.1028353 C298.555667,10.978168 298.685999,10.9045021 298.822,10.8818353 C299.184668,10.8365017 299.507665,10.9328341 299.791,11.1708353 C300.074335,11.4088365 300.216,11.6525007 300.216,11.9018353 Z M309.192,8.7398353 C309.146666,8.9665031 308.988001,9.09116852 308.716,9.1138353 C308.443999,9.13650208 308.217334,9.1478353 308.036,9.1478353 C307.46933,9.17050208 306.88567,9.22716818 306.285,9.3178353 C305.68433,9.40850242 305.055337,9.54450106 304.398,9.7258353 C304.125999,9.81650242 303.831335,9.78250276 303.514,9.6238353 C303.196665,9.46516784 303.004,9.14783768 302.936,8.6718353 C302.936,8.49050106 303.003999,8.3431692 303.14,8.2298353 C303.276001,8.1165014 303.434666,8.01450242 303.616,7.9238353 C303.910668,7.78783462 304.261998,7.66883581 304.67,7.5668353 C305.078002,7.46483479 305.491665,7.39116886 305.911,7.3458353 C306.330335,7.30050174 306.732665,7.28350191 307.118,7.2948353 C307.503335,7.30616869 307.820665,7.34583496 308.07,7.4138353 C308.432668,7.5271692 308.721666,7.6971675 308.937,7.9238353 C309.152334,8.1505031 309.237334,8.42250038 309.192,8.7398353 Z M308.41,20.0618353 C308.568667,20.4245038 308.653667,20.8154999 308.665,21.2348353 C308.676333,21.6541707 308.557335,21.9431678 308.308,22.1018353 C307.990665,22.3058363 307.650668,22.2945031 307.288,22.0678353 C306.925332,21.8411675 306.653334,21.5351706 306.472,21.1498353 C306.222665,20.6738329 306.030001,20.0901721 305.894,19.3988353 C305.757999,18.7074985 305.656,18.0218387 305.588,17.3418353 C305.52,16.6618319 305.480333,16.0271716 305.469,15.4378353 C305.457667,14.848499 305.452,14.4065034 305.452,14.1118353 C305.474667,13.7945004 305.565333,13.4998367 305.724,13.2278353 C305.882667,12.9558339 306.086665,12.7971689 306.336,12.7518353 C306.744002,12.7745021 307.072665,12.9615002 307.322,13.3128353 C307.571335,13.6641704 307.684667,14.1004994 307.662,14.6218353 C307.662,15.0298373 307.673333,15.4831661 307.696,15.9818353 C307.718667,16.4805045 307.764,16.9791661 307.832,17.4778353 C307.9,17.9765045 307.979333,18.4581663 308.07,18.9228353 C308.160667,19.3875043 308.273999,19.7671672 308.41,20.0618353 Z M313.884,11.3918353 C313.952,11.731837 314.025666,12.1114999 314.105,12.5308353 C314.184334,12.9501707 314.269333,13.3808331 314.36,13.8228353 C314.450667,14.2648375 314.53,14.7124997 314.598,15.1658353 C314.666,15.6191709 314.722666,16.0498333 314.768,16.4578353 C315.040001,15.868499 315.334665,15.2451719 315.652,14.5878353 C315.969335,13.9304987 316.314998,13.3241714 316.689,12.7688353 C317.063002,12.2134992 317.459665,11.7545038 317.879,11.3918353 C318.298335,11.0291668 318.757331,10.8478353 319.256,10.8478353 C320.004004,10.8478353 320.632997,11.1198326 321.143,11.6638353 C321.653003,12.207838 322.083665,12.8821646 322.435,13.6868353 C322.786335,14.491506 323.063999,15.3358309 323.268,16.2198353 C323.472001,17.1038397 323.641999,17.8858319 323.778,18.5658353 C323.914001,19.1778384 323.642003,19.6311672 322.962,19.9258353 C322.644665,20.0845028 322.406667,20.1071692 322.248,19.9938353 C322.089333,19.8805014 321.998667,19.7671692 321.976,19.6538353 C321.862666,19.3818339 321.721001,18.9058387 321.551,18.2258353 C321.380999,17.5458319 321.188334,16.8545055 320.973,16.1518353 C320.757666,15.4491651 320.514001,14.8371712 320.242,14.3158353 C319.969999,13.7944994 319.664002,13.5565017 319.324,13.6018353 C318.915998,13.6245021 318.553335,13.930499 318.236,14.5198353 C317.963999,14.9958377 317.686335,15.5228324 317.403,16.1008353 C317.119665,16.6788382 316.842001,17.2681656 316.57,17.8688353 C316.297999,18.469505 316.031668,19.0701656 315.771,19.6708353 C315.510332,20.271505 315.266668,20.8211661 315.04,21.3198353 C314.881333,21.4785028 314.683001,21.5861684 314.445,21.6428353 C314.206999,21.6995023 313.963335,21.6825024 313.714,21.5918353 C313.487332,21.523835 313.306001,21.4105028 313.17,21.2518353 C313.033999,21.0931678 312.966,20.9345028 312.966,20.7758353 C312.761999,19.0078265 312.552334,17.3985092 312.337,15.9478353 C312.121666,14.4971614 311.844002,13.0125096 311.504,11.4938353 C311.345333,10.9724994 311.316999,10.5588368 311.419,10.2528353 C311.521001,9.94683377 311.85533,9.82783496 312.422,9.8958353 C313.215337,10.031836 313.702666,10.5304977 313.884,11.3918353 Z M332.312,13.2278353 C332.493334,13.4771699 332.668999,13.7888334 332.839,14.1628353 C333.009001,14.5368372 333.139333,14.9165 333.23,15.3018353 C333.366001,15.9138384 333.518999,16.5768317 333.689,17.2908353 C333.859001,18.0048389 334.028999,18.7471648 334.199,19.5178353 C334.369001,20.2885058 334.527666,21.070498 334.675,21.8638353 C334.822334,22.6571726 334.952666,23.4164983 335.066,24.1418353 C335.202001,25.1391736 335.128335,26.0968307 334.845,27.0148353 C334.561665,27.9328399 334.091337,28.7544983 333.434,29.4798353 C332.776663,30.2051723 331.960672,30.7831665 330.986,31.2138353 C330.011328,31.6445041 328.912006,31.8825017 327.688,31.9278353 C327.415999,31.9051685 327.132668,31.7748365 326.838,31.5368353 C326.543332,31.2988341 326.396,31.0551699 326.396,30.8058353 C326.373333,30.5565007 326.492332,30.3581694 326.753,30.2108353 C327.013668,30.0635012 327.279999,29.9671689 327.552,29.9218353 C328.028002,29.8765017 328.520997,29.7801694 329.031,29.6328353 C329.541003,29.4855012 330.022664,29.2758367 330.476,29.0038353 C330.929336,28.7318339 331.342998,28.4031706 331.717,28.0178353 C332.091002,27.6325 332.379999,27.1791712 332.584,26.6578353 C332.742667,26.2498333 332.822,25.745505 332.822,25.1448353 C332.822,24.5441656 332.782334,23.9491716 332.703,23.3598353 C332.623666,22.770499 332.521667,22.2095046 332.397,21.6768353 C332.272333,21.144166 332.164667,20.7418367 332.074,20.4698353 C331.915333,20.6285028 331.717001,20.7985011 331.479,20.9798353 C331.240999,21.1611695 330.974668,21.3311678 330.68,21.4898353 C330.385332,21.6485028 330.062335,21.7731682 329.711,21.8638353 C329.359665,21.9545024 329.002668,21.9885021 328.64,21.9658353 C328.254665,21.9431685 327.897668,21.8071699 327.569,21.5578353 C327.240332,21.3085007 326.951335,20.985504 326.702,20.5888353 C326.452665,20.1921667 326.254334,19.7331712 326.107,19.2118353 C325.959666,18.6904994 325.886,18.1465048 325.886,17.5798353 C325.931334,16.2198285 326.276997,15.0128406 326.923,13.9588353 C327.569003,12.90483 328.605993,12.0831716 330.034,11.4938353 C330.147334,11.4711685 330.300332,11.4485021 330.493,11.4258353 C330.685668,11.4031685 330.883999,11.3975019 331.088,11.4088353 C331.292001,11.4201687 331.490332,11.4485017 331.683,11.4938353 C331.875668,11.5391689 332.039999,11.6071682 332.176,11.6978353 C332.425335,11.8791695 332.55,12.1398336 332.55,12.4798353 C332.55,12.819837 332.470667,13.0691678 332.312,13.2278353 Z M328.028,17.8858353 C328.028,18.1351699 328.050666,18.4128338 328.096,18.7188353 C328.141334,19.0248368 328.288665,19.2458346 328.538,19.3818353 C328.810001,19.5405028 329.144331,19.5631692 329.541,19.4498353 C329.937669,19.3365014 330.305998,19.1438367 330.646,18.8718353 C330.963335,18.6225007 331.172999,18.3448368 331.275,18.0388353 C331.377001,17.7328338 331.371334,17.3191712 331.258,16.7978353 C331.144666,16.2764994 331.020001,15.7325048 330.884,15.1658353 C330.747999,14.5991658 330.657334,14.0891709 330.612,13.6358353 C330.339999,13.771836 330.051002,13.9645007 329.745,14.2138353 C329.438998,14.4631699 329.161335,14.7748334 328.912,15.1488353 C328.662665,15.5228372 328.453001,15.9364997 328.283,16.3898353 C328.112999,16.8431709 328.028,17.3418326 328.028,17.8858353 Z" fill="#25262A" transform="translate(168.499081, 18.864108) rotate(-2.000000) translate(-168.499081, -18.864108) "></path>
            </g>
        </g>
    </g>
</svg>