<?xml version="1.0" encoding="UTF-8"?>
<svg width="95px" height="33px" viewBox="0 0 95 33" version="1.1" xmlns="http://www.w3.org/2000/svg" xmlns:xlink="http://www.w3.org/1999/xlink">
    <!-- Generator: Sketch 47.1 (45422) - http://www.bohemiancoding.com/sketch -->
    <title>Artboard 5</title>
    <desc>Created with Sketch.</desc>
    <defs></defs>
    <g stroke="none" stroke-width="1" fill="none" fill-rule="evenodd">
        <g>
            <g transform="translate(-3.000000, -9.000000)">
                <g>
                    <g transform="translate(35.500000, 22.000000) rotate(-4.000000) translate(-35.500000, -22.000000) translate(2.000000, 3.000000)">
                        <path d="M17.246,14.28 C17.246,15.4373391 17.0313355,16.4126627 16.602,17.206 C16.1726645,17.9993373 15.5940036,18.6386642 14.866,19.124 C14.1379964,19.6093358 13.2980048,19.9639989 12.346,20.188 C11.3939952,20.4120011 10.4046718,20.524 9.378,20.524 L6.998,20.524 L6.998,28 L2.21,28 L2.21,8.176 L9.49,8.176 C10.5726721,8.176 11.5853286,8.28333226 12.528,8.498 C13.4706714,8.71266774 14.2919965,9.05799762 14.992,9.534 C15.6920035,10.0100024 16.2426647,10.6353295 16.644,11.41 C17.0453353,12.1846705 17.246,13.1413276 17.246,14.28 Z M12.458,14.308 C12.458,13.841331 12.3646676,13.4586682 12.178,13.16 C11.9913324,12.8613318 11.7393349,12.6280008 11.422,12.46 C11.1046651,12.2919992 10.7453353,12.1800003 10.344,12.124 C9.94266466,12.0679997 9.52733548,12.04 9.098,12.04 L6.998,12.04 L6.998,16.716 L9.014,16.716 C9.46200224,16.716 9.89133128,16.678667 10.302,16.604 C10.7126687,16.529333 11.0813317,16.3986676 11.408,16.212 C11.7346683,16.0253324 11.9913324,15.7780015 12.178,15.47 C12.3646676,15.1619985 12.458,14.774669 12.458,14.308 Z M19.934,28 L19.934,6.832 L24.582,6.832 L24.582,28 L19.934,28 Z M37.406,28 L37.406,26.068 L37.35,26.068 C37.1819992,26.3853349 36.962668,26.6839986 36.692,26.964 C36.421332,27.2440014 36.1040018,27.4866656 35.74,27.692 C35.3759982,27.8973344 34.9746689,28.0653327 34.536,28.196 C34.0973311,28.3266673 33.6353358,28.392 33.15,28.392 C32.216662,28.392 31.4280032,28.2240017 30.784,27.888 C30.1399968,27.5519983 29.6173353,27.1180027 29.216,26.586 C28.8146647,26.0539973 28.5253342,25.4473367 28.348,24.766 C28.1706658,24.0846633 28.082,23.3893369 28.082,22.68 L28.082,14.056 L32.702,14.056 L32.702,21.616 C32.702,22.008002 32.7299997,22.3813316 32.786,22.736 C32.8420003,23.0906684 32.9493325,23.4079986 33.108,23.688 C33.2666675,23.9680014 33.4766654,24.1873325 33.738,24.346 C33.9993346,24.5046675 34.3446645,24.584 34.774,24.584 C35.5766707,24.584 36.1879979,24.2853363 36.608,23.688 C37.0280021,23.0906637 37.238,22.3906707 37.238,21.588 L37.238,14.056 L41.83,14.056 L41.83,28 L37.406,28 Z M53.618,18.172 C53.2446648,17.8173316 52.8060025,17.5186679 52.302,17.276 C51.7979975,17.0333321 51.2660028,16.912 50.706,16.912 C50.2766645,16.912 49.8800018,16.9959992 49.516,17.164 C49.1519982,17.3320008 48.97,17.6213313 48.97,18.032 C48.97,18.424002 49.1706647,18.7039992 49.572,18.872 C49.9733353,19.0400008 50.6219955,19.2266656 51.518,19.432 C52.0406693,19.5440006 52.5679973,19.7026656 53.1,19.908 C53.6320027,20.1133344 54.1126645,20.3839983 54.542,20.72 C54.9713355,21.0560017 55.3166654,21.4666642 55.578,21.952 C55.8393346,22.4373358 55.97,23.0159966 55.97,23.688 C55.97,24.5653377 55.7926684,25.3073303 55.438,25.914 C55.0833316,26.5206697 54.6213362,27.0106648 54.052,27.384 C53.4826638,27.7573352 52.8433369,28.0279992 52.134,28.196 C51.4246631,28.3640008 50.7153369,28.448 50.006,28.448 C48.8673276,28.448 47.7520055,28.2660018 46.66,27.902 C45.5679945,27.5379982 44.6580036,27.0013369 43.93,26.292 L46.506,23.576 C46.9166687,24.0240022 47.4206637,24.3973318 48.018,24.696 C48.6153363,24.9946682 49.2499966,25.144 49.922,25.144 C50.2953352,25.144 50.6639982,25.0553342 51.028,24.878 C51.3920018,24.7006658 51.574,24.3880022 51.574,23.94 C51.574,23.5106645 51.3500022,23.1933344 50.902,22.988 C50.4539978,22.7826656 49.7540048,22.5680011 48.802,22.344 C48.3166642,22.2319994 47.8313358,22.0826676 47.346,21.896 C46.8606642,21.7093324 46.4266686,21.4573349 46.044,21.14 C45.6613314,20.8226651 45.3486679,20.430669 45.106,19.964 C44.8633321,19.497331 44.742,18.9373366 44.742,18.284 C44.742,17.4439958 44.9193316,16.7300029 45.274,16.142 C45.6286684,15.5539971 46.0859972,15.0733352 46.646,14.7 C47.2060028,14.3266648 47.8266633,14.0513342 48.508,13.874 C49.1893367,13.6966658 49.8659966,13.608 50.538,13.608 C51.5833386,13.608 52.6053283,13.7713317 53.604,14.098 C54.6026717,14.4246683 55.4473299,14.9146634 56.138,15.568 L53.618,18.172 Z M59.47,21.364 L59.47,8.176 L64.174,8.176 L64.174,21.364 L59.47,21.364 Z M64.566,25.62 C64.566,25.9933352 64.4960007,26.3433317 64.356,26.67 C64.2159993,26.9966683 64.0200013,27.2766655 63.768,27.51 C63.5159987,27.7433345 63.2220017,27.9299993 62.886,28.07 C62.5499983,28.2100007 62.1953352,28.28 61.822,28.28 C61.4486648,28.28 61.0986683,28.2146673 60.772,28.084 C60.4453317,27.9533327 60.1606679,27.7666679 59.918,27.524 C59.6753321,27.2813321 59.4793341,27.0013349 59.33,26.684 C59.1806659,26.3666651 59.106,26.0213352 59.106,25.648 C59.106,25.2933316 59.1759993,24.9526683 59.316,24.626 C59.4560007,24.2993317 59.6473321,24.0146679 59.89,23.772 C60.1326679,23.5293321 60.4219983,23.3380007 60.758,23.198 C61.0940017,23.0579993 61.4486648,22.988 61.822,22.988 C62.1953352,22.988 62.5499983,23.0579993 62.886,23.198 C63.2220017,23.3380007 63.5159987,23.5246655 63.768,23.758 C64.0200013,23.9913345 64.2159993,24.2713317 64.356,24.598 C64.4960007,24.9246683 64.566,25.2653316 64.566,25.62 Z" fill="#FFFFFF"></path>
                        <path d="M2,34 C2,34 8.02191741,34.8301522 20.9044961,34.8436725 C33.7870749,34.8571928 50.4482709,34.0533949 64.6500015,34.0232212" stroke="#FFD001" stroke-width="2" stroke-linecap="round" stroke-linejoin="round"></path>
                    </g>
                </g>
                <g transform="translate(87.500000, 28.000000) scale(-1, -1) rotate(75.000000) translate(-87.500000, -28.000000) translate(73.000000, 15.000000)" stroke-width="2" stroke="#FFFFFF">
                    <path d="M5.63604065,19.9968182 C5.63604065,19.9968182 35.8503138,28.1262242 21.7195522,5.24467205" transform="translate(15.559491, 13.322131) rotate(36.000000) translate(-15.559491, -13.322131) "></path>
                    <path d="M3.73911247,20.6922709 C3.73911247,20.6922709 3.17994151,17.0547993 3.02092024,16.322979 C2.86189897,15.5911587 1.12887113,11.7408894 1.12887113,11.7408894 C1.12887113,11.7408894 3.82185077,12.1773331 6.21404223,11.9351829 C8.60623369,11.6930328 11.4784723,11.8021844 11.4784723,11.8021844" transform="translate(6.303672, 16.216580) rotate(17.000000) translate(-6.303672, -16.216580) "></path>
                </g>
            </g>
        </g>
    </g>
</svg>