<svg width="22" height="15" viewBox="0 0 22 15" xmlns="http://www.w3.org/2000/svg"><title>Artboard</title><path d="M1.571 2.368H20.43c.867 0 1.571-.53 1.571-1.184C22 .531 21.296 0 20.429 0H1.57C.704 0 0 .53 0 1.184c0 .654.704 1.184 1.571 1.184zM20.43 6.316H1.57C.704 6.316 0 6.846 0 7.5c0 .654.704 1.184 1.571 1.184H20.43c.867 0 1.571-.53 1.571-1.184 0-.654-.704-1.184-1.571-1.184zm0 6.316H1.57c-.867 0-1.571.53-1.571 1.184C0 14.469.704 15 1.571 15H20.43c.867 0 1.571-.53 1.571-1.184 0-.654-.704-1.184-1.571-1.184z" fill="#FFD001" fill-rule="evenodd"/></svg>