<?xml version="1.0" encoding="UTF-8"?>
<svg width="269px" height="81px" viewBox="0 0 269 81" version="1.1" xmlns="http://www.w3.org/2000/svg" xmlns:xlink="http://www.w3.org/1999/xlink">
    <!-- Generator: Sketch 47.1 (45422) - http://www.bohemiancoding.com/sketch -->
    <title>Artboard 7</title>
    <desc>Created with Sketch.</desc>
    <defs></defs>
    <g stroke="none" stroke-width="1" fill="none" fill-rule="evenodd">
        <g>
            <path d="M63.4307172,24.1376908 C61.7827089,24.0576904 60.1987248,24.1856891 58.6787172,24.5216908 C57.1587096,24.8576924 55.6547246,25.3136879 54.1667172,25.8896908 C53.7827152,26.0336915 53.4907182,26.0176916 53.2907172,25.8416908 C53.0907162,25.6656899 52.9907172,25.4896916 52.9907172,25.3136908 C53.1027177,25.0096892 53.3027157,24.7616917 53.5907172,24.5696908 C56.8707336,22.9696828 60.1507008,22.3776887 63.4307172,22.7936908 C63.590718,22.841691 63.7227166,22.9576898 63.8267172,23.1416908 C63.9307177,23.3256917 63.9667173,23.4816901 63.9347172,23.6096908 C63.902717,23.7696916 63.8547175,23.9016902 63.7907172,24.0056908 C63.7267168,24.1096913 63.606718,24.1536908 63.4307172,24.1376908 Z M60.0227172,32.5136908 C60.0227172,32.6896916 59.9627178,32.8456901 59.8427172,32.9816908 C59.7227166,33.1176914 59.574718,33.2016906 59.3987172,33.2336908 C59.0787156,33.281691 58.8707176,33.2256916 58.7747172,33.0656908 C58.6787167,32.90569 58.6227172,32.7216918 58.6067172,32.5136908 C58.5907171,31.3936852 58.5707173,30.2776963 58.5467172,29.1656908 C58.522717,28.0536852 58.4707176,26.9376964 58.3907172,25.8176908 C58.3907172,25.7536904 58.3827172,25.6776912 58.3667172,25.5896908 C58.3507171,25.5016903 58.3507171,25.4136912 58.3667172,25.3256908 C58.3827172,25.2376903 58.4187169,25.1616911 58.4747172,25.0976908 C58.5307174,25.0336904 58.6227165,24.9856909 58.7507172,24.9536908 C59.118719,24.8896904 59.3827164,24.9496898 59.5427172,25.1336908 C59.702718,25.3176917 59.7827172,25.4976899 59.7827172,25.6736908 C59.9107178,26.8256965 59.990717,27.9696851 60.0227172,29.1056908 C60.0547173,30.2416964 60.0547173,31.3776851 60.0227172,32.5136908 Z M67.0787172,23.0576908 C67.0787172,23.4416927 67.0747172,23.8736884 67.0667172,24.3536908 C67.0587171,24.8336932 67.0587171,25.3296882 67.0667172,25.8416908 C67.0747172,26.3536933 67.0827171,26.881688 67.0907172,27.4256908 C67.0987172,27.9696935 67.1107171,28.4896883 67.1267172,28.9856908 C67.286718,28.6656892 67.478716,28.3496923 67.7027172,28.0376908 C67.9267183,27.7256892 68.1787158,27.449692 68.4587172,27.2096908 C68.7387186,26.9696896 69.0347156,26.7776915 69.3467172,26.6336908 C69.6587187,26.48969 69.9987153,26.4176908 70.3667172,26.4176908 C70.7667192,26.4176908 71.1227156,26.5456895 71.4347172,26.8016908 C71.7467187,27.057692 72.018716,27.3976886 72.2507172,27.8216908 C72.4827183,28.2456929 72.6787164,28.7176882 72.8387172,29.2376908 C72.998718,29.7576934 73.1307166,30.2856881 73.2347172,30.8216908 C73.3387177,31.3576934 73.4147169,31.8696883 73.4627172,32.3576908 C73.5107174,32.8456932 73.550717,33.265689 73.5827172,33.6176908 C73.5827172,33.873692 73.5187178,34.08169 73.3907172,34.2416908 C73.2627165,34.4016916 73.110718,34.4816908 72.9347172,34.4816908 C72.8067165,34.4816908 72.6507181,34.3976916 72.4667172,34.2296908 C72.2827162,34.0616899 72.1507176,33.857692 72.0707172,33.6176908 C72.0227169,33.4256898 71.9747174,33.1456926 71.9267172,32.7776908 C71.8787169,32.4096889 71.8227175,32.0136929 71.7587172,31.5896908 C71.6947168,31.1656886 71.6147176,30.7376929 71.5187172,30.3056908 C71.4227167,29.8736886 71.3067178,29.4856925 71.1707172,29.1416908 C71.0347165,28.797689 70.8707181,28.5296917 70.6787172,28.3376908 C70.4867162,28.1456898 70.2627184,28.0736905 70.0067172,28.1216908 C69.6067152,28.2016912 69.2587186,28.4816884 68.9627172,28.9616908 C68.6667157,29.4416932 68.4107182,29.9856877 68.1947172,30.5936908 C67.9787161,31.2016938 67.8027178,31.8176876 67.6667172,32.4416908 C67.5307165,33.0656939 67.4307175,33.5696888 67.3667172,33.9536908 C67.3027168,34.2416922 67.2187177,34.4376902 67.1147172,34.5416908 C67.0107166,34.6456913 66.8947178,34.6976908 66.7667172,34.6976908 C66.6387165,34.6976908 66.5227177,34.6336914 66.4187172,34.5056908 C66.3147166,34.3776901 66.2187176,34.2216917 66.1307172,34.0376908 C66.0427167,33.8536898 65.9667175,33.6616918 65.9027172,33.4616908 C65.8387168,33.2616898 65.7987172,33.0896915 65.7827172,32.9456908 C65.7027168,32.0816864 65.6387174,31.2536947 65.5907172,30.4616908 C65.5427169,29.6696868 65.5067173,28.8736948 65.4827172,28.0736908 C65.458717,27.2736868 65.4467172,26.453695 65.4467172,25.6136908 C65.4467172,24.7736866 65.462717,23.8736956 65.4947172,22.9136908 C65.4947172,22.1136868 65.7827143,21.7536904 66.3587172,21.8336908 C66.5507181,21.8656909 66.7187164,22.0056895 66.8627172,22.2536908 C67.0067179,22.501692 67.0787172,22.7696893 67.0787172,23.0576908 Z M79.3427172,23.8976908 C79.310717,24.0576916 79.1987181,24.1456907 79.0067172,24.1616908 C78.8147162,24.1776908 78.6547178,24.1856908 78.5267172,24.1856908 C78.1267152,24.2016908 77.7147193,24.2416904 77.2907172,24.3056908 C76.866715,24.3696911 76.4227195,24.4656901 75.9587172,24.5936908 C75.7667162,24.6576911 75.5587183,24.6336913 75.3347172,24.5216908 C75.110716,24.4096902 74.9747174,24.1856924 74.9267172,23.8496908 C74.9267172,23.7216901 74.9747167,23.6176912 75.0707172,23.5376908 C75.1667176,23.4576904 75.2787165,23.3856911 75.4067172,23.3216908 C75.6147182,23.2256903 75.8627157,23.1416911 76.1507172,23.0696908 C76.4387186,22.9976904 76.7307157,22.9456909 77.0267172,22.9136908 C77.3227186,22.8816906 77.6067158,22.8696907 77.8787172,22.8776908 C78.1507185,22.8856908 78.3747163,22.9136905 78.5507172,22.9616908 C78.8067184,23.0416912 79.0107164,23.16169 79.1627172,23.3216908 C79.3147179,23.4816916 79.3747173,23.6736896 79.3427172,23.8976908 Z M78.7907172,31.8896908 C78.9027177,32.145692 78.9627171,32.4216893 78.9707172,32.7176908 C78.9787172,33.0136922 78.894718,33.2176902 78.7187172,33.3296908 C78.494716,33.4736915 78.2547184,33.4656916 77.9987172,33.3056908 C77.7427159,33.14569 77.5507178,32.9296921 77.4227172,32.6576908 C77.2467163,32.3216891 77.1107176,31.9096932 77.0147172,31.4216908 C76.9187167,30.9336883 76.8467174,30.4496932 76.7987172,29.9696908 C76.7507169,29.4896884 76.7227172,29.0416928 76.7147172,28.6256908 C76.7067171,28.2096887 76.7027172,27.8976918 76.7027172,27.6896908 C76.7187172,27.4656896 76.7827166,27.2576917 76.8947172,27.0656908 C77.0067177,26.8736898 77.1507163,26.7616909 77.3267172,26.7296908 C77.6147186,26.7456908 77.8467163,26.8776895 78.0227172,27.1256908 C78.198718,27.373692 78.2787172,27.6816889 78.2627172,28.0496908 C78.2627172,28.3376922 78.2707171,28.657689 78.2867172,29.0096908 C78.3027172,29.3616925 78.3347169,29.713689 78.3827172,30.0656908 C78.4307174,30.4176925 78.4867168,30.7576891 78.5507172,31.0856908 C78.6147175,31.4136924 78.6947167,31.6816897 78.7907172,31.8896908 Z M85.6067172,26.5136908 C85.574717,26.3376899 85.5427173,26.1696916 85.5107172,26.0096908 C85.478717,25.84969 85.3987178,25.745691 85.2707172,25.6976908 C84.9987158,25.6176904 84.7107187,25.6096904 84.4067172,25.6736908 C84.1027156,25.7376911 83.8227184,25.8376901 83.5667172,25.9736908 C83.3107159,26.1096914 83.094718,26.2616899 82.9187172,26.4296908 C82.7427163,26.5976916 82.6467172,26.7456901 82.6307172,26.8736908 C82.5827169,27.113692 82.6467163,27.3456896 82.8227172,27.5696908 C82.998718,27.7936919 83.2547155,28.0176896 83.5907172,28.2416908 C84.15072,28.5776924 84.7347141,28.921689 85.3427172,29.2736908 C85.9507202,29.6256925 86.4627151,29.9856889 86.8787172,30.3536908 C87.2947192,30.7216926 87.5787164,31.1256886 87.7307172,31.5656908 C87.8827179,32.005693 87.8467183,32.505688 87.6227172,33.0656908 C87.4467163,33.4976929 87.1187196,33.8496894 86.6387172,34.1216908 C86.1587148,34.3936921 85.63072,34.60569 85.0547172,34.7576908 C84.4787143,34.9096915 83.90272,35.0136905 83.3267172,35.0696908 C82.7507143,35.125691 82.2627192,35.1536908 81.8627172,35.1536908 C81.7667167,35.1536908 81.6507178,35.1176911 81.5147172,35.0456908 C81.3787165,34.9736904 81.2507178,34.8896912 81.1307172,34.7936908 C81.0107166,34.6976903 80.9067176,34.5976913 80.8187172,34.4936908 C80.7307167,34.3896902 80.6867172,34.2976912 80.6867172,34.2176908 C80.6867172,33.9296893 80.8147159,33.7296913 81.0707172,33.6176908 C81.3267184,33.5056902 81.5907158,33.4496908 81.8627172,33.4496908 C82.2467191,33.4496908 82.658715,33.429691 83.0987172,33.3896908 C83.5387194,33.3496906 83.9587152,33.2856912 84.3587172,33.1976908 C84.7587192,33.1096903 85.1187156,32.9936915 85.4387172,32.8496908 C85.7587188,32.70569 85.9827165,32.5216919 86.1107172,32.2976908 C86.2227177,32.1056898 86.1547184,31.8776921 85.9067172,31.6136908 C85.6587159,31.3496894 85.3307192,31.0736922 84.9227172,30.7856908 C84.5147151,30.4976893 84.0747195,30.2176921 83.6027172,29.9456908 C83.1307148,29.6736894 82.7267188,29.4256919 82.3907172,29.2016908 C82.0547155,28.9776896 81.7667184,28.7096923 81.5267172,28.3976908 C81.286716,28.0856892 81.1347175,27.6976931 81.0707172,27.2336908 C81.0547171,26.8176887 81.1427162,26.4176927 81.3347172,26.0336908 C81.5267181,25.6496888 81.7787156,25.3096922 82.0907172,25.0136908 C82.4027187,24.7176893 82.7587152,24.4816916 83.1587172,24.3056908 C83.5587192,24.1296899 83.9587152,24.0416908 84.3587172,24.0416908 C85.0467206,24.0736909 85.6147149,24.261689 86.0627172,24.6056908 C86.5107194,24.9496925 86.7747168,25.4576874 86.8547172,26.1296908 C86.8547172,26.3536919 86.8187175,26.53769 86.7467172,26.6816908 C86.6747168,26.8256915 86.550718,26.9136906 86.3747172,26.9456908 C86.150716,26.9776909 85.9707178,26.9496912 85.8347172,26.8616908 C85.6987165,26.7736903 85.6227172,26.6576915 85.6067172,26.5136908 Z M100.054717,36.3056908 C100.038717,36.4816916 99.9587179,36.64569 99.8147172,36.7976908 C99.6707164,36.9496915 99.510718,37.0176908 99.3347172,37.0016908 C99.0627158,36.9856907 98.8547179,36.8816917 98.7107172,36.6896908 C98.5667164,36.4976898 98.4947172,36.3376914 98.4947172,36.2096908 C98.4947172,35.6016877 98.4787173,34.9656941 98.4467172,34.3016908 C98.414717,33.6376874 98.3747174,32.9536943 98.3267172,32.2496908 C98.1187161,32.2816909 97.930718,32.2616911 97.7627172,32.1896908 C97.5947163,32.1176904 97.4787175,32.0016916 97.4147172,31.8416908 C97.3027166,31.5696894 97.3187164,31.3296918 97.4627172,31.1216908 C97.6067179,30.9136897 97.8387156,30.7136917 98.1587172,30.5216908 C98.0787168,29.9296878 98.0027175,29.3456936 97.9307172,28.7696908 C97.8587168,28.1936879 97.7827176,27.6336935 97.7027172,27.0896908 C97.6867171,26.9936903 97.694717,26.9056912 97.7267172,26.8256908 C97.7587173,26.7456904 97.7987169,26.6696911 97.8467172,26.5976908 C97.8947174,26.5256904 97.9827165,26.4576911 98.1107172,26.3936908 C98.3187182,26.3136904 98.5547158,26.3776897 98.8187172,26.5856908 C99.0827185,26.7936918 99.2627167,27.0576892 99.3587172,27.3776908 C99.4067174,27.6816923 99.4587169,28.0296888 99.5147172,28.4216908 C99.5707174,28.8136927 99.6227169,29.2416884 99.6707172,29.7056908 C100.006719,29.4976897 100.322716,29.273692 100.618717,29.0336908 C100.914719,28.7936896 101.170716,28.5376921 101.386717,28.2656908 C101.602718,27.9936894 101.766717,27.7096922 101.878717,27.4136908 C101.990718,27.1176893 102.022717,26.8096924 101.974717,26.4896908 C101.942717,26.2176894 101.822718,25.9736918 101.614717,25.7576908 C101.406716,25.5416897 101.078719,25.4256908 100.630717,25.4096908 C100.230715,25.3936907 99.8347191,25.4256904 99.4427172,25.5056908 C99.0507152,25.5856912 98.666719,25.6896901 98.2907172,25.8176908 C97.9147153,25.9456914 97.546719,26.0976899 97.1867172,26.2736908 C96.8267154,26.4496916 96.4787188,26.6256899 96.1427172,26.8016908 C95.918716,26.9296914 95.6987182,26.9816909 95.4827172,26.9576908 C95.2667161,26.9336906 95.1267175,26.8576914 95.0627172,26.7296908 C94.9187164,26.4096892 94.9307163,26.121692 95.0987172,25.8656908 C95.266718,25.6096895 95.5267154,25.3696919 95.8787172,25.1456908 C96.1827187,24.9696899 96.546715,24.7896917 96.9707172,24.6056908 C97.3947193,24.4216898 97.8427148,24.2616914 98.3147172,24.1256908 C98.7867195,23.9896901 99.2667147,23.893691 99.7547172,23.8376908 C100.24272,23.7816905 100.710715,23.7896904 101.158717,23.8616908 C101.606719,23.9336911 102.010715,24.0856896 102.370717,24.3176908 C102.730719,24.5496919 103.022716,24.8896885 103.246717,25.3376908 C103.518719,26.0736944 103.594718,26.7496877 103.474717,27.3656908 C103.354717,27.9816938 103.114719,28.5416882 102.754717,29.0456908 C102.394715,29.5496933 101.95472,30.0056887 101.434717,30.4136908 C100.914715,30.8216928 100.39072,31.1856892 99.8627172,31.5056908 C99.9427176,32.3696951 99.998717,33.2256865 100.030717,34.0736908 C100.062717,34.921695 100.070717,35.6656876 100.054717,36.3056908 Z M107.158717,22.4576908 C107.238718,24.2016995 107.374716,26.0056814 107.566717,27.8696908 C107.758718,29.7337001 107.966716,31.5136823 108.190717,33.2096908 C108.238717,33.9136943 108.046719,34.2736907 107.614717,34.2896908 C107.518717,34.2896908 107.422718,34.2536911 107.326717,34.1816908 C107.230717,34.1096904 107.142718,34.0176913 107.062717,33.9056908 C106.982717,33.7936902 106.906718,33.6736914 106.834717,33.5456908 C106.762717,33.4176901 106.718717,33.3056912 106.702717,33.2096908 C106.574717,32.3936867 106.454718,31.5296953 106.342717,30.6176908 C106.230717,29.7056862 106.130718,28.7896954 106.042717,27.8696908 C105.954717,26.9496862 105.878717,26.0496952 105.814717,25.1696908 C105.750717,24.2896864 105.710717,23.4816944 105.694717,22.7456908 C105.726717,22.3616888 105.782717,22.0376921 105.862717,21.7736908 C105.942718,21.5096894 106.110716,21.3856907 106.366717,21.4016908 C106.638719,21.4176908 106.834717,21.5256898 106.954717,21.7256908 C107.074718,21.9256918 107.142717,22.1696893 107.158717,22.4576908 Z M116.158717,24.8096908 C116.222717,25.257693 116.274717,25.7336882 116.314717,26.2376908 C116.354717,26.7416933 116.386717,27.2496882 116.410717,27.7616908 C116.434717,28.2736933 116.446717,28.7696884 116.446717,29.2496908 C116.446717,29.7296932 116.438717,30.1616888 116.422717,30.5456908 C116.93472,30.8976925 117.242717,31.2096894 117.346717,31.4816908 C117.450718,31.7536921 117.462718,31.9936897 117.382717,32.2016908 C117.286717,32.4896922 117.114718,32.6376907 116.866717,32.6456908 C116.618716,32.6536908 116.334719,32.5696916 116.014717,32.3936908 C115.790716,32.5536916 115.534719,32.7256898 115.246717,32.9096908 C114.958716,33.0936917 114.654719,33.2696899 114.334717,33.4376908 C114.014716,33.6056916 113.694719,33.7536901 113.374717,33.8816908 C113.054716,34.0096914 112.758719,34.0976905 112.486717,34.1456908 C111.974715,34.2256912 111.514719,34.1296921 111.106717,33.8576908 C110.698715,33.5856894 110.422718,33.1776935 110.278717,32.6336908 C110.182717,32.2656889 110.158717,31.8856927 110.206717,31.4936908 C110.254717,31.1016888 110.374716,30.7256926 110.566717,30.3656908 C110.758718,30.005689 111.018716,29.6816922 111.346717,29.3936908 C111.674719,29.1056893 112.062715,28.8816916 112.510717,28.7216908 C112.622718,28.6736905 112.778716,28.6336909 112.978717,28.6016908 C113.178718,28.5696906 113.386716,28.5576907 113.602717,28.5656908 C113.818718,28.5736908 114.038716,28.6176904 114.262717,28.6976908 C114.486718,28.7776912 114.694716,28.9136898 114.886717,29.1056908 C114.886717,28.8336894 114.882717,28.5336924 114.874717,28.2056908 C114.866717,27.8776891 114.854717,27.5456924 114.838717,27.2096908 C114.822717,26.8736891 114.802717,26.5576922 114.778717,26.2616908 C114.754717,25.9656893 114.726717,25.7136918 114.694717,25.5056908 C114.662717,25.2656896 114.570718,25.117691 114.418717,25.0616908 C114.266716,25.0056905 114.078718,25.0176904 113.854717,25.0976908 C113.470715,25.2256914 113.02272,25.4736889 112.510717,25.8416908 C111.998715,26.2096926 111.510719,26.6016887 111.046717,27.0176908 C110.902716,27.1616915 110.738718,27.2256908 110.554717,27.2096908 C110.370716,27.1936907 110.214718,27.1216914 110.086717,26.9936908 C109.958717,26.8656901 109.886717,26.7176916 109.870717,26.5496908 C109.854717,26.3816899 109.918716,26.2016917 110.062717,26.0096908 C110.334719,25.7216893 110.638715,25.4256923 110.974717,25.1216908 C111.310719,24.8176892 111.662715,24.541692 112.030717,24.2936908 C112.398719,24.0456895 112.774715,23.8416916 113.158717,23.6816908 C113.542719,23.52169 113.926715,23.4336908 114.310717,23.4176908 C114.87072,23.4016907 115.302716,23.5256894 115.606717,23.7896908 C115.910719,24.0536921 116.094717,24.3936887 116.158717,24.8096908 Z M113.374717,29.9696908 C113.166716,30.017691 112.946718,30.11769 112.714717,30.2696908 C112.482716,30.4216915 112.274718,30.6056897 112.090717,30.8216908 C111.906716,31.0376918 111.770718,31.2776894 111.682717,31.5416908 C111.594717,31.8056921 111.590717,32.0656895 111.670717,32.3216908 C111.702717,32.4176912 111.770717,32.4896905 111.874717,32.5376908 C111.978718,32.585691 112.094717,32.5936909 112.222717,32.5616908 C112.606719,32.4816904 113.042715,32.3256919 113.530717,32.0936908 C114.01872,31.8616896 114.406716,31.6096921 114.694717,31.3376908 C114.694717,31.2416903 114.646718,31.1176915 114.550717,30.9656908 C114.454717,30.81369 114.342718,30.6616915 114.214717,30.5096908 C114.086717,30.35769 113.946718,30.2256913 113.794717,30.1136908 C113.642716,30.0016902 113.502718,29.9536907 113.374717,29.9696908 Z M120.310717,25.7696908 C120.358717,26.009692 120.410717,26.2776893 120.466717,26.5736908 C120.522717,26.8696922 120.582717,27.1736892 120.646717,27.4856908 C120.710717,27.7976923 120.766717,28.1136892 120.814717,28.4336908 C120.862717,28.7536924 120.902717,29.0576893 120.934717,29.3456908 C121.126718,28.9296887 121.334716,28.4896931 121.558717,28.0256908 C121.782718,27.5616884 122.026716,27.1336927 122.290717,26.7416908 C122.554718,26.3496888 122.834716,26.025692 123.130717,25.7696908 C123.426719,25.5136895 123.750715,25.3856908 124.102717,25.3856908 C124.63072,25.3856908 125.074715,25.5776888 125.434717,25.9616908 C125.794719,26.3456927 126.098716,26.8216879 126.346717,27.3896908 C126.594718,27.9576936 126.790716,28.5536876 126.934717,29.1776908 C127.078718,29.8016939 127.198717,30.3536884 127.294717,30.8336908 C127.390718,31.2656929 127.19872,31.5856897 126.718717,31.7936908 C126.494716,31.9056913 126.326718,31.9216912 126.214717,31.8416908 C126.102717,31.7616904 126.038717,31.6816912 126.022717,31.6016908 C125.942717,31.4096898 125.842718,31.0736932 125.722717,30.5936908 C125.602717,30.1136884 125.466718,29.6256932 125.314717,29.1296908 C125.162716,28.6336883 124.990718,28.2016926 124.798717,27.8336908 C124.606716,27.4656889 124.390718,27.2976906 124.150717,27.3296908 C123.862716,27.3456908 123.606718,27.5616887 123.382717,27.9776908 C123.190716,28.3136924 122.994718,28.6856887 122.794717,29.0936908 C122.594716,29.5016928 122.398718,29.9176886 122.206717,30.3416908 C122.014716,30.7656929 121.826718,31.1896886 121.642717,31.6136908 C121.458716,32.0376929 121.286718,32.425689 121.126717,32.7776908 C121.014717,32.8896913 120.874718,32.9656906 120.706717,33.0056908 C120.538716,33.045691 120.366718,33.0336911 120.190717,32.9696908 C120.030716,32.9216905 119.902718,32.8416913 119.806717,32.7296908 C119.710717,32.6176902 119.662717,32.5056913 119.662717,32.3936908 C119.518716,31.1456845 119.370718,30.0096959 119.218717,28.9856908 C119.066716,27.9616856 118.870718,26.9136961 118.630717,25.8416908 C118.518717,25.4736889 118.498717,25.1816918 118.570717,24.9656908 C118.642718,24.7496897 118.878715,24.6656905 119.278717,24.7136908 C119.83872,24.8096912 120.182717,25.1616877 120.310717,25.7696908 Z M140.038717,27.0656908 C140.166718,27.2416916 140.290717,27.4616894 140.410717,27.7256908 C140.530718,27.9896921 140.622717,28.2576894 140.686717,28.5296908 C140.782718,28.9616929 140.890717,29.4296882 141.010717,29.9336908 C141.130718,30.4376933 141.250717,30.961688 141.370717,31.5056908 C141.490718,32.0496935 141.602717,32.601688 141.706717,33.1616908 C141.810718,33.7216936 141.902717,34.2576882 141.982717,34.7696908 C142.078718,35.4736943 142.026718,36.1496875 141.826717,36.7976908 C141.626716,37.445694 141.294719,38.0256882 140.830717,38.5376908 C140.366715,39.0496933 139.790721,39.4576892 139.102717,39.7616908 C138.414714,40.0656923 137.638721,40.2336906 136.774717,40.2656908 C136.582716,40.2496907 136.382718,40.1576916 136.174717,39.9896908 C135.966716,39.8216899 135.862717,39.6496916 135.862717,39.4736908 C135.846717,39.2976899 135.930716,39.1576913 136.114717,39.0536908 C136.298718,38.9496902 136.486716,38.8816909 136.678717,38.8496908 C137.014719,38.8176906 137.362715,38.7496913 137.722717,38.6456908 C138.082719,38.5416902 138.422716,38.3936917 138.742717,38.2016908 C139.062719,38.0096898 139.354716,37.7776921 139.618717,37.5056908 C139.882718,37.2336894 140.086716,36.9136926 140.230717,36.5456908 C140.342718,36.2576893 140.398717,35.9016929 140.398717,35.4776908 C140.398717,35.0536886 140.370717,34.6336928 140.314717,34.2176908 C140.258717,33.8016887 140.186718,33.4056926 140.098717,33.0296908 C140.010717,32.6536889 139.934717,32.3696917 139.870717,32.1776908 C139.758717,32.2896913 139.618718,32.4096901 139.450717,32.5376908 C139.282716,32.6656914 139.094718,32.7856902 138.886717,32.8976908 C138.678716,33.0096913 138.450718,33.0976904 138.202717,33.1616908 C137.954716,33.2256911 137.702718,33.2496908 137.446717,33.2336908 C137.174716,33.2176907 136.922718,33.1216916 136.690717,32.9456908 C136.458716,32.7696899 136.254718,32.5416922 136.078717,32.2616908 C135.902716,31.9816894 135.762718,31.6576926 135.658717,31.2896908 C135.554717,30.9216889 135.502717,30.5376928 135.502717,30.1376908 C135.534717,29.177686 135.778715,28.3256945 136.234717,27.5816908 C136.690719,26.837687 137.422712,26.2576928 138.430717,25.8416908 C138.510718,25.8256907 138.618716,25.8096908 138.754717,25.7936908 C138.890718,25.7776907 139.030716,25.7736907 139.174717,25.7816908 C139.318718,25.7896908 139.458716,25.8096906 139.594717,25.8416908 C139.730718,25.8736909 139.846717,25.9216904 139.942717,25.9856908 C140.118718,26.1136914 140.206717,26.2976896 140.206717,26.5376908 C140.206717,26.777692 140.150718,26.9536902 140.038717,27.0656908 Z M137.014717,30.3536908 C137.014717,30.5296916 137.030717,30.7256897 137.062717,30.9416908 C137.094717,31.1576918 137.198716,31.3136903 137.374717,31.4096908 C137.566718,31.5216913 137.802716,31.5376912 138.082717,31.4576908 C138.362719,31.3776904 138.622716,31.2416917 138.862717,31.0496908 C139.086718,30.8736899 139.234717,30.6776918 139.306717,30.4616908 C139.378718,30.2456897 139.374718,29.9536926 139.294717,29.5856908 C139.214717,29.2176889 139.126718,28.8336928 139.030717,28.4336908 C138.934717,28.0336888 138.870717,27.6736924 138.838717,27.3536908 C138.646716,27.4496912 138.442718,27.5856899 138.226717,27.7616908 C138.010716,27.9376916 137.814718,28.1576894 137.638717,28.4216908 C137.462716,28.6856921 137.314718,28.9776892 137.194717,29.2976908 C137.074717,29.6176924 137.014717,29.9696888 137.014717,30.3536908 Z M149.614717,28.0496908 C148.990714,28.4176926 148.318721,28.7016898 147.598717,28.9016908 C146.878714,29.1016918 146.102721,29.2016908 145.270717,29.2016908 C145.302717,29.7616936 145.462716,30.2056891 145.750717,30.5336908 C146.038719,30.8616924 146.398715,31.0576904 146.830717,31.1216908 C147.086718,31.1536909 147.346716,31.145691 147.610717,31.0976908 C147.874718,31.0496905 148.122716,30.9736913 148.354717,30.8696908 C148.586718,30.7656902 148.798716,30.6496914 148.990717,30.5216908 C149.182718,30.3936901 149.350716,30.2656914 149.494717,30.1376908 C149.638718,30.0096901 149.790716,29.925691 149.950717,29.8856908 C150.110718,29.8456906 150.230717,29.8416906 150.310717,29.8736908 C150.534718,29.9536912 150.614717,30.1936888 150.550717,30.5936908 C150.294716,31.1056933 149.92672,31.541689 149.446717,31.9016908 C148.966715,32.2616926 148.43072,32.4896903 147.838717,32.5856908 C147.326715,32.6816912 146.79872,32.6576915 146.254717,32.5136908 C145.710714,32.36969 145.222719,32.0896928 144.790717,31.6736908 C144.422715,31.3056889 144.142718,30.8736932 143.950717,30.3776908 C143.758716,29.8816883 143.638717,29.3696934 143.590717,28.8416908 C143.542717,28.3456883 143.586716,27.873693 143.722717,27.4256908 C143.858718,26.9776885 144.070716,26.5816925 144.358717,26.2376908 C144.646719,25.893689 145.006715,25.6096919 145.438717,25.3856908 C145.870719,25.1616896 146.374714,25.0336909 146.950717,25.0016908 C147.638721,24.9536905 148.262714,25.0816892 148.822717,25.3856908 C149.38272,25.6896923 149.774716,26.113688 149.998717,26.6576908 C150.126718,26.9616923 150.162717,27.2256896 150.106717,27.4496908 C150.050717,27.6736919 149.886719,27.8736899 149.614717,28.0496908 Z M146.854717,26.4176908 C146.694716,26.4496909 146.522718,26.5056904 146.338717,26.5856908 C146.154716,26.6656912 145.986718,26.7656902 145.834717,26.8856908 C145.682716,27.0056914 145.546718,27.14169 145.426717,27.2936908 C145.306717,27.4456915 145.238717,27.6176898 145.222717,27.8096908 C145.494719,27.8096908 145.794716,27.785691 146.122717,27.7376908 C146.450719,27.6896905 146.770716,27.6296911 147.082717,27.5576908 C147.394719,27.4856904 147.682716,27.4016912 147.946717,27.3056908 C148.210718,27.2096903 148.430716,27.1056913 148.606717,26.9936908 C148.478717,26.6896892 148.242719,26.5016911 147.898717,26.4296908 C147.554715,26.3576904 147.206719,26.3536904 146.854717,26.4176908 Z M157.678717,27.2576908 C157.982719,27.2416907 158.286716,27.31369 158.590717,27.4736908 C158.894719,27.6336916 159.046717,27.8816891 159.046717,28.2176908 C159.014717,28.4896921 158.866718,28.6616904 158.602717,28.7336908 C158.338716,28.8056911 158.126718,28.8416908 157.966717,28.8416908 C157.646716,28.8416908 157.302719,28.8496907 156.934717,28.8656908 C156.566715,28.8816908 156.190719,28.9056906 155.806717,28.9376908 C155.774717,29.4656934 155.746717,29.9616884 155.722717,30.4256908 C155.698717,30.8896931 155.678717,31.301689 155.662717,31.6616908 C155.646717,32.0216926 155.638717,32.3136896 155.638717,32.5376908 C155.638717,32.7616919 155.646717,32.8816907 155.662717,32.8976908 C156.014719,32.8336904 156.394715,32.7256915 156.802717,32.5736908 C157.210719,32.42169 157.618715,32.2536917 158.026717,32.0696908 C158.434719,31.8856898 158.834715,31.6936918 159.226717,31.4936908 C159.618719,31.2936898 159.990715,31.1056916 160.342717,30.9296908 C160.502718,30.8496904 160.650716,30.8256906 160.786717,30.8576908 C160.922718,30.8896909 161.006717,30.9616902 161.038717,31.0736908 C161.070717,31.2496916 161.046718,31.4656895 160.966717,31.7216908 C160.886717,31.977692 160.742718,32.2096897 160.534717,32.4176908 C160.294716,32.6096917 159.978719,32.8296895 159.586717,33.0776908 C159.194715,33.325692 158.774719,33.5616896 158.326717,33.7856908 C157.878715,34.0096919 157.426719,34.2056899 156.970717,34.3736908 C156.514715,34.5416916 156.110719,34.6416906 155.758717,34.6736908 C155.230715,34.721691 154.830719,34.5776924 154.558717,34.2416908 C154.286716,33.9056891 154.134717,33.4816933 154.102717,32.9696908 C154.070717,32.4576882 154.066717,31.8656941 154.090717,31.1936908 C154.114717,30.5216874 154.142717,29.8096945 154.174717,29.0576908 C153.870716,29.0896909 153.578719,29.1176906 153.298717,29.1416908 C153.018716,29.1656909 152.750718,29.1936906 152.494717,29.2256908 C152.286716,29.2256908 152.058718,29.1776912 151.810717,29.0816908 C151.562716,28.9856903 151.438717,28.8016921 151.438717,28.5296908 C151.438717,28.4336903 151.478717,28.3056916 151.558717,28.1456908 C151.638718,27.98569 151.814716,27.8656912 152.086717,27.7856908 C152.74272,27.6736902 153.470713,27.5776912 154.270717,27.4976908 C154.318717,26.745687 154.374717,26.0176943 154.438717,25.3136908 C154.502717,24.6096872 154.558717,23.9696936 154.606717,23.3936908 C154.622717,23.2016898 154.678717,23.0336915 154.774717,22.8896908 C154.870718,22.74569 154.974717,22.6736908 155.086717,22.6736908 C155.358719,22.6576907 155.618716,22.72569 155.866717,22.8776908 C156.114718,23.0296915 156.238717,23.2016898 156.238717,23.3936908 C156.174717,23.9376935 156.114717,24.5536873 156.058717,25.2416908 C156.002717,25.9296942 155.950717,26.6336872 155.902717,27.3536908 C156.222719,27.3216906 156.530716,27.3016908 156.826717,27.2936908 C157.122719,27.2856907 157.406716,27.2736908 157.678717,27.2576908 Z M166.510717,26.5136908 C166.478717,26.3376899 166.446717,26.1696916 166.414717,26.0096908 C166.382717,25.84969 166.302718,25.745691 166.174717,25.6976908 C165.902716,25.6176904 165.614719,25.6096904 165.310717,25.6736908 C165.006716,25.7376911 164.726718,25.8376901 164.470717,25.9736908 C164.214716,26.1096914 163.998718,26.2616899 163.822717,26.4296908 C163.646716,26.5976916 163.550717,26.7456901 163.534717,26.8736908 C163.486717,27.113692 163.550716,27.3456896 163.726717,27.5696908 C163.902718,27.7936919 164.158715,28.0176896 164.494717,28.2416908 C165.05472,28.5776924 165.638714,28.921689 166.246717,29.2736908 C166.85472,29.6256925 167.366715,29.9856889 167.782717,30.3536908 C168.198719,30.7216926 168.482716,31.1256886 168.634717,31.5656908 C168.786718,32.005693 168.750718,32.505688 168.526717,33.0656908 C168.350716,33.4976929 168.02272,33.8496894 167.542717,34.1216908 C167.062715,34.3936921 166.53472,34.60569 165.958717,34.7576908 C165.382714,34.9096915 164.80672,35.0136905 164.230717,35.0696908 C163.654714,35.125691 163.166719,35.1536908 162.766717,35.1536908 C162.670717,35.1536908 162.554718,35.1176911 162.418717,35.0456908 C162.282716,34.9736904 162.154718,34.8896912 162.034717,34.7936908 C161.914717,34.6976903 161.810718,34.5976913 161.722717,34.4936908 C161.634717,34.3896902 161.590717,34.2976912 161.590717,34.2176908 C161.590717,33.9296893 161.718716,33.7296913 161.974717,33.6176908 C162.230718,33.5056902 162.494716,33.4496908 162.766717,33.4496908 C163.150719,33.4496908 163.562715,33.429691 164.002717,33.3896908 C164.442719,33.3496906 164.862715,33.2856912 165.262717,33.1976908 C165.662719,33.1096903 166.022716,32.9936915 166.342717,32.8496908 C166.662719,32.70569 166.886717,32.5216919 167.014717,32.2976908 C167.126718,32.1056898 167.058718,31.8776921 166.810717,31.6136908 C166.562716,31.3496894 166.234719,31.0736922 165.826717,30.7856908 C165.418715,30.4976893 164.97872,30.2176921 164.506717,29.9456908 C164.034715,29.6736894 163.630719,29.4256919 163.294717,29.2016908 C162.958715,28.9776896 162.670718,28.7096923 162.430717,28.3976908 C162.190716,28.0856892 162.038717,27.6976931 161.974717,27.2336908 C161.958717,26.8176887 162.046716,26.4176927 162.238717,26.0336908 C162.430718,25.6496888 162.682716,25.3096922 162.994717,25.0136908 C163.306719,24.7176893 163.662715,24.4816916 164.062717,24.3056908 C164.462719,24.1296899 164.862715,24.0416908 165.262717,24.0416908 C165.950721,24.0736909 166.518715,24.261689 166.966717,24.6056908 C167.414719,24.9496925 167.678717,25.4576874 167.758717,26.1296908 C167.758717,26.3536919 167.722718,26.53769 167.650717,26.6816908 C167.578717,26.8256915 167.454718,26.9136906 167.278717,26.9456908 C167.054716,26.9776909 166.874718,26.9496912 166.738717,26.8616908 C166.602716,26.7736903 166.526717,26.6576915 166.510717,26.5136908 Z M184.318717,26.1296908 C184.366717,26.9936951 184.418717,27.8656864 184.474717,28.7456908 C184.530717,29.6256952 184.542717,30.4936865 184.510717,31.3496908 C184.478717,32.205695 184.394718,33.0416867 184.258717,33.8576908 C184.122716,34.6736948 183.894719,35.453687 183.574717,36.1976908 C183.254716,36.9416945 182.82672,37.6336876 182.290717,38.2736908 C181.754714,38.913694 181.078721,39.4896882 180.262717,40.0016908 C180.134717,40.0816912 179.994718,40.1296907 179.842717,40.1456908 C179.690716,40.1616908 179.542718,40.1576909 179.398717,40.1336908 C179.254716,40.1096906 179.126718,40.069691 179.014717,40.0136908 C178.902717,39.9576905 178.830717,39.8816912 178.798717,39.7856908 C178.750717,39.64169 178.774717,39.4816916 178.870717,39.3056908 C178.966718,39.1296899 179.126716,38.9456917 179.350717,38.7536908 C180.054721,38.2256881 180.646715,37.6656937 181.126717,37.0736908 C181.60672,36.4816878 181.990716,35.8416942 182.278717,35.1536908 C182.566719,34.4656873 182.754717,33.7176948 182.842717,32.9096908 C182.930718,32.1016867 182.926718,31.2176956 182.830717,30.2576908 C182.638716,30.497692 182.414718,30.7456895 182.158717,31.0016908 C181.902716,31.257692 181.630719,31.4856898 181.342717,31.6856908 C181.054716,31.8856918 180.758719,32.0536901 180.454717,32.1896908 C180.150716,32.3256914 179.862719,32.3936908 179.590717,32.3936908 C179.366716,32.3936908 179.142718,32.3456912 178.918717,32.2496908 C178.694716,32.1536903 178.470718,31.9696921 178.246717,31.6976908 C177.990716,31.3616891 177.762718,30.9816929 177.562717,30.5576908 C177.362716,30.1336886 177.190718,29.7216928 177.046717,29.3216908 C176.902716,28.9216888 176.786718,28.5616924 176.698717,28.2416908 C176.610717,27.9216892 176.558717,27.6976914 176.542717,27.5696908 C176.510717,27.40969 176.510717,27.2576915 176.542717,27.1136908 C176.574717,26.96969 176.678716,26.8816909 176.854717,26.8496908 C177.094718,26.8016905 177.318716,26.8176904 177.526717,26.8976908 C177.734718,26.9776912 177.878717,27.1056899 177.958717,27.2816908 C178.022717,27.4576916 178.110717,27.7296889 178.222717,28.0976908 C178.334718,28.4656926 178.470716,28.829689 178.630717,29.1896908 C178.790718,29.5496926 178.962716,29.8656894 179.146717,30.1376908 C179.330718,30.4096921 179.526716,30.5456908 179.734717,30.5456908 C179.974718,30.5456908 180.258716,30.425692 180.586717,30.1856908 C180.914719,29.9456896 181.230716,29.6336927 181.534717,29.2496908 C181.838719,28.8656888 182.098716,28.4376931 182.314717,27.9656908 C182.530718,27.4936884 182.638717,27.033693 182.638717,26.5856908 C182.638717,26.4896903 182.654717,26.3776914 182.686717,26.2496908 C182.718717,26.1216901 182.766717,25.9976914 182.830717,25.8776908 C182.894717,25.7576902 182.970717,25.6536912 183.058717,25.5656908 C183.146718,25.4776903 183.238717,25.4256908 183.334717,25.4096908 C183.590718,25.3776906 183.818716,25.4456899 184.018717,25.6136908 C184.218718,25.7816916 184.318717,25.9536899 184.318717,26.1296908 Z M192.142717,25.3136908 C192.62272,25.4896916 193.026716,25.753689 193.354717,26.1056908 C193.682719,26.4576925 193.934716,26.8536886 194.110717,27.2936908 C194.286718,27.733693 194.386717,28.1856884 194.410717,28.6496908 C194.434717,29.1136931 194.382718,29.5456888 194.254717,29.9456908 C194.078716,30.393693 193.854719,30.8336886 193.582717,31.2656908 C193.310716,31.6976929 192.998719,32.0816891 192.646717,32.4176908 C192.294715,32.7536924 191.894719,33.0256897 191.446717,33.2336908 C190.998715,33.4416918 190.50272,33.5456908 189.958717,33.5456908 C189.302714,33.5456908 188.750719,33.3936923 188.302717,33.0896908 C187.854715,32.7856892 187.502718,32.3936932 187.246717,31.9136908 C186.990716,31.4336884 186.826718,30.8896938 186.754717,30.2816908 C186.682717,29.6736877 186.694717,29.0656938 186.790717,28.4576908 C186.854717,28.0096885 186.962716,27.5736929 187.114717,27.1496908 C187.266718,26.7256886 187.462716,26.3496924 187.702717,26.0216908 C187.942718,25.6936891 188.218716,25.4256918 188.530717,25.2176908 C188.842719,25.0096897 189.198715,24.9056908 189.598717,24.9056908 C189.822718,24.9056908 190.102715,24.9496903 190.438717,25.0376908 C190.774719,25.1256912 191.086716,25.24969 191.374717,25.4096908 C191.582718,25.2176898 191.838716,25.1856901 192.142717,25.3136908 Z M191.230717,27.0656908 C191.054716,26.9536902 190.850718,26.8056917 190.618717,26.6216908 C190.386716,26.4376898 190.182718,26.3456908 190.006717,26.3456908 C189.814716,26.3456908 189.626718,26.4336899 189.442717,26.6096908 C189.258716,26.7856916 189.098718,26.9896896 188.962717,27.2216908 C188.826716,27.4536919 188.710718,27.6896896 188.614717,27.9296908 C188.518717,28.169692 188.454717,28.36169 188.422717,28.5056908 C188.374717,28.745692 188.342717,29.0336891 188.326717,29.3696908 C188.310717,29.7056924 188.334717,30.0376891 188.398717,30.3656908 C188.462717,30.6936924 188.586716,30.9896894 188.770717,31.2536908 C188.954718,31.5176921 189.230715,31.7056902 189.598717,31.8176908 C189.822718,31.8816911 190.086716,31.8776911 190.390717,31.8056908 C190.694719,31.7336904 190.994716,31.6016917 191.290717,31.4096908 C191.586719,31.2176898 191.866716,30.9616924 192.130717,30.6416908 C192.394718,30.3216892 192.598716,29.9536928 192.742717,29.5376908 C192.902718,29.0736884 192.906718,28.5896933 192.754717,28.0856908 C192.602716,27.5816882 192.294719,27.2176919 191.830717,26.9936908 C191.718717,27.0736912 191.606718,27.1136908 191.494717,27.1136908 C191.382717,27.1136908 191.294717,27.0976909 191.230717,27.0656908 Z M198.382717,26.5856908 C198.286717,27.0176929 198.190718,27.4936882 198.094717,28.0136908 C197.998717,28.5336934 197.930717,29.0336884 197.890717,29.5136908 C197.850717,29.9936932 197.850717,30.4256888 197.890717,30.8096908 C197.930717,31.1936927 198.030716,31.46569 198.190717,31.6256908 C198.462719,31.673691 198.774715,31.5576922 199.126717,31.2776908 C199.478719,30.9976894 199.822715,30.6416929 200.158717,30.2096908 C200.494719,29.7776886 200.798716,29.3096933 201.070717,28.8056908 C201.342719,28.3016882 201.534717,27.8576927 201.646717,27.4736908 C201.710717,27.2816898 201.766717,27.0816918 201.814717,26.8736908 C201.862717,26.6656897 201.886717,26.4496919 201.886717,26.2256908 C201.886717,26.0976901 201.970716,25.9736914 202.138717,25.8536908 C202.306718,25.7336902 202.446717,25.6656908 202.558717,25.6496908 C202.638718,25.6336907 202.730717,25.6496905 202.834717,25.6976908 C202.938718,25.745691 203.034717,25.8136903 203.122717,25.9016908 C203.210718,25.9896912 203.290717,26.0936902 203.362717,26.2136908 C203.434718,26.3336914 203.470717,26.4576901 203.470717,26.5856908 C203.502717,27.0656932 203.550717,27.5936879 203.614717,28.1696908 C203.678717,28.7456936 203.754717,29.3216879 203.842717,29.8976908 C203.930718,30.4736936 204.022717,31.033688 204.118717,31.5776908 C204.214718,32.1216935 204.310717,32.6096886 204.406717,33.0416908 C204.454717,33.2176916 204.406718,33.4176896 204.262717,33.6416908 C204.118716,33.8656919 203.958718,34.0016905 203.782717,34.0496908 C203.638716,34.0816909 203.490718,34.0656911 203.338717,34.0016908 C203.186716,33.9376904 203.070718,33.8096917 202.990717,33.6176908 C202.910717,33.3936896 202.834718,33.1176924 202.762717,32.7896908 C202.690717,32.4616891 202.626717,32.1176926 202.570717,31.7576908 C202.514717,31.397689 202.462717,31.0536924 202.414717,30.7256908 C202.366717,30.3976891 202.334717,30.1216919 202.318717,29.8976908 C202.078716,30.3296929 201.794719,30.7656886 201.466717,31.2056908 C201.138716,31.645693 200.786719,32.045689 200.410717,32.4056908 C200.034715,32.7656926 199.642719,33.0456898 199.234717,33.2456908 C198.826715,33.4456918 198.406719,33.521691 197.974717,33.4736908 C197.334714,33.3936904 196.846719,32.7936964 196.510717,31.6736908 C196.382717,31.2256885 196.322717,30.7296935 196.330717,30.1856908 C196.338717,29.641688 196.378717,29.1016934 196.450717,28.5656908 C196.522718,28.0296881 196.610717,27.5216932 196.714717,27.0416908 C196.818718,26.5616884 196.910717,26.1696923 196.990717,25.8656908 C197.022717,25.7376901 197.086717,25.6216913 197.182717,25.5176908 C197.278718,25.4136902 197.390717,25.3776906 197.518717,25.4096908 C197.758718,25.457691 197.978716,25.6016896 198.178717,25.8416908 C198.378718,26.081692 198.446717,26.3296895 198.382717,26.5856908 Z M219.286717,25.9856908 C218.886715,27.3616976 218.510719,28.7336839 218.158717,30.1016908 C217.806715,31.4696976 217.462719,32.7536848 217.126717,33.9536908 C217.062717,34.209692 216.926718,34.4056901 216.718717,34.5416908 C216.510716,34.6776914 216.326718,34.7136911 216.166717,34.6496908 C216.086717,34.6176906 216.014717,34.5456913 215.950717,34.4336908 C215.886717,34.3216902 215.834717,34.1896915 215.794717,34.0376908 C215.754717,33.88569 215.730717,33.7256916 215.722717,33.5576908 C215.714717,33.3896899 215.718717,33.2336915 215.734717,33.0896908 C216.006719,32.0816857 216.322715,30.9176974 216.682717,29.5976908 C217.042719,28.2776842 217.430715,26.9456975 217.846717,25.6016908 C217.462715,25.6336909 217.062719,25.6696906 216.646717,25.7096908 C216.230715,25.749691 215.822719,25.7856906 215.422717,25.8176908 C215.022715,25.8496909 214.646719,25.8816906 214.294717,25.9136908 C213.942715,25.9456909 213.638718,25.9776906 213.382717,26.0096908 C213.110716,26.0096908 212.858718,25.881692 212.626717,25.6256908 C212.394716,25.3696895 212.278717,25.1056921 212.278717,24.8336908 C212.278717,24.7536904 212.318717,24.685691 212.398717,24.6296908 C212.478718,24.5736905 212.558717,24.5376908 212.638717,24.5216908 C213.054719,24.4576904 213.526715,24.401691 214.054717,24.3536908 C214.58272,24.3056905 215.118714,24.261691 215.662717,24.2216908 C216.20672,24.1816906 216.738715,24.1456909 217.258717,24.1136908 C217.77872,24.0816906 218.238715,24.0656908 218.638717,24.0656908 C218.734718,24.0656908 218.842717,24.1016904 218.962717,24.1736908 C219.082718,24.2456911 219.190717,24.3376902 219.286717,24.4496908 C219.382718,24.5616913 219.462717,24.6816901 219.526717,24.8096908 C219.590717,24.9376914 219.622717,25.0496903 219.622717,25.1456908 L219.286717,25.9856908 Z M55.0067172,55.9376908 C55.0227172,56.193692 55.050717,56.5096889 55.0907172,56.8856908 C55.1307174,57.2616926 55.1747169,57.6536887 55.2227172,58.0616908 C55.2707174,58.4696928 55.3227169,58.8736888 55.3787172,59.2736908 C55.4347174,59.6736928 55.4867169,60.0416891 55.5347172,60.3776908 L56.1827172,59.0816908 C56.4387184,58.5696882 56.7067158,58.0776931 56.9867172,57.6056908 C57.2667186,57.1336884 57.5547157,56.7336924 57.8507172,56.4056908 C58.1467186,56.0776891 58.414716,55.9136908 58.6547172,55.9136908 C58.9107184,55.9136908 59.1467161,56.0376895 59.3627172,56.2856908 C59.5787182,56.533692 59.7667164,56.833689 59.9267172,57.1856908 C60.086718,57.5376925 60.2267166,57.9136888 60.3467172,58.3136908 C60.4667178,58.7136928 60.5667168,59.0656892 60.6467172,59.3696908 C60.7107175,59.1616897 60.7947166,58.9256921 60.8987172,58.6616908 C61.0027177,58.3976894 61.1147166,58.1256922 61.2347172,57.8456908 C61.3547178,57.5656894 61.4907164,57.2896921 61.6427172,57.0176908 C61.7947179,56.7456894 61.9587163,56.5056918 62.1347172,56.2976908 C62.3427182,56.0736896 62.566716,55.9096913 62.8067172,55.8056908 C63.0467184,55.7016902 63.2227166,55.6496908 63.3347172,55.6496908 C63.4787179,55.6496908 63.6507162,55.6936903 63.8507172,55.7816908 C64.0507182,55.8696912 64.2547161,55.98569 64.4627172,56.1296908 C64.6707182,56.2736915 64.8667162,56.4456898 65.0507172,56.6456908 C65.2347181,56.8456918 65.3827166,57.0496897 65.4947172,57.2576908 C65.7187183,57.6896929 65.8987165,58.1616882 66.0347172,58.6736908 C66.1707178,59.1856933 66.2707168,59.6736884 66.3347172,60.1376908 C66.3987175,60.6016931 66.442717,61.013689 66.4667172,61.3736908 C66.4907173,61.7336926 66.5107171,61.98569 66.5267172,62.1296908 C66.5267172,62.3376918 66.5027174,62.4936902 66.4547172,62.5976908 C66.4067169,62.7016913 66.3187178,62.7856904 66.1907172,62.8496908 C66.0147163,62.9296912 65.8627178,62.9576909 65.7347172,62.9336908 C65.6067165,62.9096906 65.5027176,62.8576912 65.4227172,62.7776908 C65.3427168,62.6976904 65.2787174,62.6056913 65.2307172,62.5016908 C65.1827169,62.3976902 65.1507172,62.3056912 65.1347172,62.2256908 C65.0867169,61.8576889 65.0347174,61.4816927 64.9787172,61.0976908 C64.9227169,60.7136888 64.8627175,60.3416926 64.7987172,59.9816908 C64.7347168,59.621689 64.6587176,59.2856923 64.5707172,58.9736908 C64.4827167,58.6616892 64.3907176,58.385692 64.2947172,58.1456908 C64.262717,58.0816904 64.2107175,57.9976913 64.1387172,57.8936908 C64.0667168,57.7896902 63.9867176,57.6896912 63.8987172,57.5936908 C63.8107167,57.4976903 63.7267176,57.4176911 63.6467172,57.3536908 C63.5667168,57.2896904 63.5107173,57.2496908 63.4787172,57.2336908 C63.3187164,57.2336908 63.150718,57.3816893 62.9747172,57.6776908 C62.7987163,57.9736922 62.630718,58.3296887 62.4707172,58.7456908 C62.3107164,59.1616928 62.1627178,59.5976885 62.0267172,60.0536908 C61.8907165,60.509693 61.7907175,60.8976892 61.7267172,61.2176908 C61.7267172,61.6336928 61.646718,61.9416898 61.4867172,62.1416908 C61.3267164,62.3416918 61.158718,62.4416908 60.9827172,62.4416908 C60.8067163,62.4416908 60.6187182,62.3736914 60.4187172,62.2376908 C60.2187162,62.1016901 60.0867175,61.9456916 60.0227172,61.7696908 C59.9267167,61.5136895 59.8227177,61.2256924 59.7107172,60.9056908 C59.5987166,60.5856892 59.4827178,60.2576924 59.3627172,59.9216908 C59.2427166,59.5856891 59.1227178,59.2576924 59.0027172,58.9376908 C58.8827166,58.6176892 58.7667177,58.329692 58.6547172,58.0736908 C58.430716,58.3776923 58.2107182,58.7136889 57.9947172,59.0816908 C57.7787161,59.4496926 57.5707182,59.8256888 57.3707172,60.2096908 C57.1707162,60.5936927 56.9787181,60.9736889 56.7947172,61.3496908 C56.6107162,61.7256926 56.438718,62.0576893 56.2787172,62.3456908 C56.1667166,62.5216916 56.0467178,62.6776901 55.9187172,62.8136908 C55.7907165,62.9496914 55.638718,63.0176908 55.4627172,63.0176908 C55.3347165,63.0176908 55.1987179,62.9576914 55.0547172,62.8376908 C54.9107164,62.7176902 54.7747178,62.5696916 54.6467172,62.3936908 C54.5187165,62.2176899 54.4027177,62.0176919 54.2987172,61.7936908 C54.1947166,61.5696896 54.1187174,61.3456919 54.0707172,61.1216908 C53.9427165,60.4336873 53.8347176,59.6776949 53.7467172,58.8536908 C53.6587167,58.0296866 53.5747176,57.2256947 53.4947172,56.4416908 C53.4787171,56.1696894 53.5147167,55.9176919 53.6027172,55.6856908 C53.6907176,55.4536896 53.8627159,55.2976912 54.1187172,55.2176908 C54.3907185,55.1696905 54.5987164,55.2096901 54.7427172,55.3376908 C54.8867179,55.4656914 54.974717,55.6656894 55.0067172,55.9376908 Z M73.9907172,55.3136908 C74.4707196,55.4896916 74.8747155,55.753689 75.2027172,56.1056908 C75.5307188,56.4576925 75.7827163,56.8536886 75.9587172,57.2936908 C76.134718,57.733693 76.234717,58.1856884 76.2587172,58.6496908 C76.2827173,59.1136931 76.2307178,59.5456888 76.1027172,59.9456908 C75.9267163,60.393693 75.7027185,60.8336886 75.4307172,61.2656908 C75.1587158,61.6976929 74.8467189,62.0816891 74.4947172,62.4176908 C74.1427154,62.7536924 73.7427194,63.0256897 73.2947172,63.2336908 C72.8467149,63.4416918 72.3507199,63.5456908 71.8067172,63.5456908 C71.1507139,63.5456908 70.5987194,63.3936923 70.1507172,63.0896908 C69.7027149,62.7856892 69.3507184,62.3936932 69.0947172,61.9136908 C68.8387159,61.4336884 68.6747175,60.8896938 68.6027172,60.2816908 C68.5307168,59.6736877 68.5427167,59.0656938 68.6387172,58.4576908 C68.7027175,58.0096885 68.8107164,57.5736929 68.9627172,57.1496908 C69.1147179,56.7256886 69.310716,56.3496924 69.5507172,56.0216908 C69.7907184,55.6936891 70.0667156,55.4256918 70.3787172,55.2176908 C70.6907187,55.0096897 71.0467152,54.9056908 71.4467172,54.9056908 C71.6707183,54.9056908 71.9507155,54.9496903 72.2867172,55.0376908 C72.6227188,55.1256912 72.9347157,55.24969 73.2227172,55.4096908 C73.4307182,55.2176898 73.6867156,55.1856901 73.9907172,55.3136908 Z M73.0787172,57.0656908 C72.9027163,56.9536902 72.6987183,56.8056917 72.4667172,56.6216908 C72.234716,56.4376898 72.030718,56.3456908 71.8547172,56.3456908 C71.6627162,56.3456908 71.4747181,56.4336899 71.2907172,56.6096908 C71.1067162,56.7856916 70.9467178,56.9896896 70.8107172,57.2216908 C70.6747165,57.4536919 70.5587176,57.6896896 70.4627172,57.9296908 C70.3667167,58.169692 70.3027173,58.36169 70.2707172,58.5056908 C70.2227169,58.745692 70.1907172,59.0336891 70.1747172,59.3696908 C70.1587171,59.7056924 70.1827168,60.0376891 70.2467172,60.3656908 C70.3107175,60.6936924 70.4347162,60.9896894 70.6187172,61.2536908 C70.8027181,61.5176921 71.0787153,61.7056902 71.4467172,61.8176908 C71.6707183,61.8816911 71.9347156,61.8776911 72.2387172,61.8056908 C72.5427187,61.7336904 72.8427157,61.6016917 73.1387172,61.4096908 C73.4347186,61.2176898 73.7147158,60.9616924 73.9787172,60.6416908 C74.2427185,60.3216892 74.4467164,59.9536928 74.5907172,59.5376908 C74.750718,59.0736884 74.7547179,58.5896933 74.6027172,58.0856908 C74.4507164,57.5816882 74.1427195,57.2176919 73.6787172,56.9936908 C73.5667166,57.0736912 73.4547177,57.1136908 73.3427172,57.1136908 C73.2307166,57.1136908 73.1427175,57.0976909 73.0787172,57.0656908 Z M79.7027172,55.7696908 C79.7507174,56.009692 79.8027169,56.2776893 79.8587172,56.5736908 C79.9147174,56.8696922 79.9747168,57.1736892 80.0387172,57.4856908 C80.1027175,57.7976923 80.1587169,58.1136892 80.2067172,58.4336908 C80.2547174,58.7536924 80.294717,59.0576893 80.3267172,59.3456908 C80.5187181,58.9296887 80.726716,58.4896931 80.9507172,58.0256908 C81.1747183,57.5616884 81.4187158,57.1336927 81.6827172,56.7416908 C81.9467185,56.3496888 82.2267157,56.025692 82.5227172,55.7696908 C82.8187186,55.5136895 83.1427154,55.3856908 83.4947172,55.3856908 C84.0227198,55.3856908 84.4667154,55.5776888 84.8267172,55.9616908 C85.186719,56.3456927 85.4907159,56.8216879 85.7387172,57.3896908 C85.9867184,57.9576936 86.1827164,58.5536876 86.3267172,59.1776908 C86.4707179,59.8016939 86.5907167,60.3536884 86.6867172,60.8336908 C86.7827176,61.2656929 86.5907196,61.5856897 86.1107172,61.7936908 C85.886716,61.9056913 85.7187177,61.9216912 85.6067172,61.8416908 C85.4947166,61.7616904 85.4307172,61.6816912 85.4147172,61.6016908 C85.3347168,61.4096898 85.2347178,61.0736932 85.1147172,60.5936908 C84.9947166,60.1136884 84.8587179,59.6256932 84.7067172,59.1296908 C84.5547164,58.6336883 84.3827181,58.2016926 84.1907172,57.8336908 C83.9987162,57.4656889 83.7827184,57.2976906 83.5427172,57.3296908 C83.2547157,57.3456908 82.9987183,57.5616887 82.7747172,57.9776908 C82.5827162,58.3136924 82.3867182,58.6856887 82.1867172,59.0936908 C81.9867162,59.5016928 81.7907181,59.9176886 81.5987172,60.3416908 C81.4067162,60.7656929 81.2187181,61.1896886 81.0347172,61.6136908 C80.8507162,62.0376929 80.678718,62.425689 80.5187172,62.7776908 C80.4067166,62.8896913 80.266718,62.9656906 80.0987172,63.0056908 C79.9307163,63.045691 79.758718,63.0336911 79.5827172,62.9696908 C79.4227164,62.9216905 79.2947176,62.8416913 79.1987172,62.7296908 C79.1027167,62.6176902 79.0547172,62.5056913 79.0547172,62.3936908 C78.9107164,61.1456845 78.7627179,60.0096959 78.6107172,58.9856908 C78.4587164,57.9616856 78.2627184,56.9136961 78.0227172,55.8416908 C77.9107166,55.4736889 77.8907168,55.1816918 77.9627172,54.9656908 C78.0347175,54.7496897 78.2707152,54.6656905 78.6707172,54.7136908 C79.23072,54.8096912 79.5747165,55.1616877 79.7027172,55.7696908 Z M93.7907172,57.2576908 C94.0947187,57.2416907 94.3987156,57.31369 94.7027172,57.4736908 C95.0067187,57.6336916 95.1587172,57.8816891 95.1587172,58.2176908 C95.126717,58.4896921 94.9787185,58.6616904 94.7147172,58.7336908 C94.4507158,58.8056911 94.238718,58.8416908 94.0787172,58.8416908 C93.7587156,58.8416908 93.414719,58.8496907 93.0467172,58.8656908 C92.6787153,58.8816908 92.3027191,58.9056906 91.9187172,58.9376908 C91.886717,59.4656934 91.8587173,59.9616884 91.8347172,60.4256908 C91.810717,60.8896931 91.7907172,61.301689 91.7747172,61.6616908 C91.7587171,62.0216926 91.7507172,62.3136896 91.7507172,62.5376908 C91.7507172,62.7616919 91.7587171,62.8816907 91.7747172,62.8976908 C92.1267189,62.8336904 92.5067151,62.7256915 92.9147172,62.5736908 C93.3227192,62.42169 93.7307151,62.2536917 94.1387172,62.0696908 C94.5467192,61.8856898 94.9467152,61.6936918 95.3387172,61.4936908 C95.7307191,61.2936898 96.1027154,61.1056916 96.4547172,60.9296908 C96.614718,60.8496904 96.7627165,60.8256906 96.8987172,60.8576908 C97.0347178,60.8896909 97.118717,60.9616902 97.1507172,61.0736908 C97.1827173,61.2496916 97.1587176,61.4656895 97.0787172,61.7216908 C96.9987168,61.977692 96.8547182,62.2096897 96.6467172,62.4176908 C96.406716,62.6096917 96.0907191,62.8296895 95.6987172,63.0776908 C95.3067152,63.325692 94.8867194,63.5616896 94.4387172,63.7856908 C93.9907149,64.0096919 93.5387194,64.2056899 93.0827172,64.3736908 C92.6267149,64.5416916 92.2227189,64.6416906 91.8707172,64.6736908 C91.3427145,64.721691 90.9427185,64.5776924 90.6707172,64.2416908 C90.3987158,63.9056891 90.2467173,63.4816933 90.2147172,62.9696908 C90.182717,62.4576882 90.178717,61.8656941 90.2027172,61.1936908 C90.2267173,60.5216874 90.254717,59.8096945 90.2867172,59.0576908 C89.9827156,59.0896909 89.6907186,59.1176906 89.4107172,59.1416908 C89.1307158,59.1656909 88.8627184,59.1936906 88.6067172,59.2256908 C88.3987161,59.2256908 88.1707184,59.1776912 87.9227172,59.0816908 C87.6747159,58.9856903 87.5507172,58.8016921 87.5507172,58.5296908 C87.5507172,58.4336903 87.5907168,58.3056916 87.6707172,58.1456908 C87.7507176,57.98569 87.9267158,57.8656912 88.1987172,57.7856908 C88.8547204,57.6736902 89.5827132,57.5776912 90.3827172,57.4976908 C90.4307174,56.745687 90.4867168,56.0176943 90.5507172,55.3136908 C90.6147175,54.6096872 90.6707169,53.9696936 90.7187172,53.3936908 C90.7347172,53.2016898 90.7907167,53.0336915 90.8867172,52.8896908 C90.9827176,52.74569 91.0867166,52.6736908 91.1987172,52.6736908 C91.4707185,52.6576907 91.7307159,52.72569 91.9787172,52.8776908 C92.2267184,53.0296915 92.3507172,53.2016898 92.3507172,53.3936908 C92.2867168,53.9376935 92.2267174,54.5536873 92.1707172,55.2416908 C92.1147169,55.9296942 92.0627174,56.6336872 92.0147172,57.3536908 C92.3347188,57.3216906 92.6427157,57.3016908 92.9387172,57.2936908 C93.2347186,57.2856907 93.5187158,57.2736908 93.7907172,57.2576908 Z M99.8147172,53.0576908 C99.8147172,53.4416927 99.8107172,53.8736884 99.8027172,54.3536908 C99.7947171,54.8336932 99.7947171,55.3296882 99.8027172,55.8416908 C99.8107172,56.3536933 99.8187171,56.881688 99.8267172,57.4256908 C99.8347172,57.9696935 99.8467171,58.4896883 99.8627172,58.9856908 C100.022718,58.6656892 100.214716,58.3496923 100.438717,58.0376908 C100.662718,57.7256892 100.914716,57.449692 101.194717,57.2096908 C101.474719,56.9696896 101.770716,56.7776915 102.082717,56.6336908 C102.394719,56.48969 102.734715,56.4176908 103.102717,56.4176908 C103.502719,56.4176908 103.858716,56.5456895 104.170717,56.8016908 C104.482719,57.057692 104.754716,57.3976886 104.986717,57.8216908 C105.218718,58.2456929 105.414716,58.7176882 105.574717,59.2376908 C105.734718,59.7576934 105.866717,60.2856881 105.970717,60.8216908 C106.074718,61.3576934 106.150717,61.8696883 106.198717,62.3576908 C106.246717,62.8456932 106.286717,63.265689 106.318717,63.6176908 C106.318717,63.873692 106.254718,64.08169 106.126717,64.2416908 C105.998717,64.4016916 105.846718,64.4816908 105.670717,64.4816908 C105.542717,64.4816908 105.386718,64.3976916 105.202717,64.2296908 C105.018716,64.0616899 104.886718,63.857692 104.806717,63.6176908 C104.758717,63.4256898 104.710717,63.1456926 104.662717,62.7776908 C104.614717,62.4096889 104.558717,62.0136929 104.494717,61.5896908 C104.430717,61.1656886 104.350718,60.7376929 104.254717,60.3056908 C104.158717,59.8736886 104.042718,59.4856925 103.906717,59.1416908 C103.770716,58.797689 103.606718,58.5296917 103.414717,58.3376908 C103.222716,58.1456898 102.998718,58.0736905 102.742717,58.1216908 C102.342715,58.2016912 101.994719,58.4816884 101.698717,58.9616908 C101.402716,59.4416932 101.146718,59.9856877 100.930717,60.5936908 C100.714716,61.2016938 100.538718,61.8176876 100.402717,62.4416908 C100.266716,63.0656939 100.166717,63.5696888 100.102717,63.9536908 C100.038717,64.2416922 99.9547177,64.4376902 99.8507172,64.5416908 C99.7467166,64.6456913 99.6307178,64.6976908 99.5027172,64.6976908 C99.3747165,64.6976908 99.2587177,64.6336914 99.1547172,64.5056908 C99.0507166,64.3776901 98.9547176,64.2216917 98.8667172,64.0376908 C98.7787167,63.8536898 98.7027175,63.6616918 98.6387172,63.4616908 C98.5747168,63.2616898 98.5347172,63.0896915 98.5187172,62.9456908 C98.4387168,62.0816864 98.3747174,61.2536947 98.3267172,60.4616908 C98.2787169,59.6696868 98.2427173,58.8736948 98.2187172,58.0736908 C98.194717,57.2736868 98.1827172,56.453695 98.1827172,55.6136908 C98.1827172,54.7736866 98.198717,53.8736956 98.2307172,52.9136908 C98.2307172,52.1136868 98.5187143,51.7536904 99.0947172,51.8336908 C99.2867181,51.8656909 99.4547164,52.0056895 99.5987172,52.2536908 C99.7427179,52.501692 99.8147172,52.7696893 99.8147172,53.0576908 Z M112.534717,56.5136908 C112.502717,56.3376899 112.470717,56.1696916 112.438717,56.0096908 C112.406717,55.84969 112.326718,55.745691 112.198717,55.6976908 C111.926716,55.6176904 111.638719,55.6096904 111.334717,55.6736908 C111.030716,55.7376911 110.750718,55.8376901 110.494717,55.9736908 C110.238716,56.1096914 110.022718,56.2616899 109.846717,56.4296908 C109.670716,56.5976916 109.574717,56.7456901 109.558717,56.8736908 C109.510717,57.113692 109.574716,57.3456896 109.750717,57.5696908 C109.926718,57.7936919 110.182715,58.0176896 110.518717,58.2416908 C111.07872,58.5776924 111.662714,58.921689 112.270717,59.2736908 C112.87872,59.6256925 113.390715,59.9856889 113.806717,60.3536908 C114.222719,60.7216926 114.506716,61.1256886 114.658717,61.5656908 C114.810718,62.005693 114.774718,62.505688 114.550717,63.0656908 C114.374716,63.4976929 114.04672,63.8496894 113.566717,64.1216908 C113.086715,64.3936921 112.55872,64.60569 111.982717,64.7576908 C111.406714,64.9096915 110.83072,65.0136905 110.254717,65.0696908 C109.678714,65.125691 109.190719,65.1536908 108.790717,65.1536908 C108.694717,65.1536908 108.578718,65.1176911 108.442717,65.0456908 C108.306716,64.9736904 108.178718,64.8896912 108.058717,64.7936908 C107.938717,64.6976903 107.834718,64.5976913 107.746717,64.4936908 C107.658717,64.3896902 107.614717,64.2976912 107.614717,64.2176908 C107.614717,63.9296893 107.742716,63.7296913 107.998717,63.6176908 C108.254718,63.5056902 108.518716,63.4496908 108.790717,63.4496908 C109.174719,63.4496908 109.586715,63.429691 110.026717,63.3896908 C110.466719,63.3496906 110.886715,63.2856912 111.286717,63.1976908 C111.686719,63.1096903 112.046716,62.9936915 112.366717,62.8496908 C112.686719,62.70569 112.910717,62.5216919 113.038717,62.2976908 C113.150718,62.1056898 113.082718,61.8776921 112.834717,61.6136908 C112.586716,61.3496894 112.258719,61.0736922 111.850717,60.7856908 C111.442715,60.4976893 111.00272,60.2176921 110.530717,59.9456908 C110.058715,59.6736894 109.654719,59.4256919 109.318717,59.2016908 C108.982715,58.9776896 108.694718,58.7096923 108.454717,58.3976908 C108.214716,58.0856892 108.062717,57.6976931 107.998717,57.2336908 C107.982717,56.8176887 108.070716,56.4176927 108.262717,56.0336908 C108.454718,55.6496888 108.706716,55.3096922 109.018717,55.0136908 C109.330719,54.7176893 109.686715,54.4816916 110.086717,54.3056908 C110.486719,54.1296899 110.886715,54.0416908 111.286717,54.0416908 C111.974721,54.0736909 112.542715,54.261689 112.990717,54.6056908 C113.438719,54.9496925 113.702717,55.4576874 113.782717,56.1296908 C113.782717,56.3536919 113.746718,56.53769 113.674717,56.6816908 C113.602717,56.8256915 113.478718,56.9136906 113.302717,56.9456908 C113.078716,56.9776909 112.898718,56.9496912 112.762717,56.8616908 C112.626716,56.7736903 112.550717,56.6576915 112.534717,56.5136908 Z M123.742717,59.3216908 C123.518716,59.3536909 123.258719,59.3296912 122.962717,59.2496908 C122.666716,59.1696904 122.462718,58.9696924 122.350717,58.6496908 C122.302717,58.48969 122.294717,58.3336915 122.326717,58.1816908 C122.358717,58.02969 122.526716,57.9216911 122.830717,57.8576908 C123.118719,57.7936904 123.426716,57.733691 123.754717,57.6776908 C124.082719,57.6216905 124.414715,57.569691 124.750717,57.5216908 L123.862717,54.8336908 C123.590716,53.8096856 123.558716,52.9296944 123.766717,52.1936908 C123.974718,51.4576871 124.566712,50.9296924 125.542717,50.6096908 C125.942719,50.4816901 126.338715,50.4336906 126.730717,50.4656908 C127.122719,50.4976909 127.494715,50.6016899 127.846717,50.7776908 C128.198719,50.9536916 128.518716,51.1856893 128.806717,51.4736908 C129.094719,51.7616922 129.326716,52.0976888 129.502717,52.4816908 C129.566717,52.6576916 129.602717,52.8136901 129.610717,52.9496908 C129.618717,53.0856914 129.566718,53.2096902 129.454717,53.3216908 C129.294716,53.4816916 129.118718,53.5496909 128.926717,53.5256908 C128.734716,53.5016906 128.606717,53.4496912 128.542717,53.3696908 C128.398716,53.1936899 128.242718,53.0136917 128.074717,52.8296908 C127.906716,52.6456898 127.730718,52.4856914 127.546717,52.3496908 C127.362716,52.2136901 127.166718,52.1096911 126.958717,52.0376908 C126.750716,51.9656904 126.526718,51.9456906 126.286717,51.9776908 C126.174717,51.9936908 126.042718,52.0496903 125.890717,52.1456908 C125.738716,52.2416912 125.606718,52.3896898 125.494717,52.5896908 C125.382717,52.7896918 125.314717,53.0496892 125.290717,53.3696908 C125.266717,53.6896924 125.318717,54.0896884 125.446717,54.5696908 C125.558718,54.9696928 125.686716,55.4016884 125.830717,55.8656908 C125.974718,56.3296931 126.134716,56.8176882 126.310717,57.3296908 C127.078721,57.2496904 127.782714,57.2256906 128.422717,57.2576908 C128.774719,57.2896909 129.102716,57.3536903 129.406717,57.4496908 C129.710719,57.5456912 129.958716,57.6896898 130.150717,57.8816908 C130.198717,58.0416916 130.190717,58.1736902 130.126717,58.2776908 C130.062717,58.3816913 129.970718,58.4696904 129.850717,58.5416908 C129.730717,58.6136911 129.594718,58.6656906 129.442717,58.6976908 C129.290716,58.7296909 129.142718,58.7536907 128.998717,58.7696908 C128.678716,58.8016909 128.342719,58.8376906 127.990717,58.8776908 C127.638715,58.917691 127.270719,58.9536906 126.886717,58.9856908 C127.142718,59.7056944 127.378716,60.3896875 127.594717,61.0376908 C127.810718,61.685694 127.982717,62.2256886 128.110717,62.6576908 C128.174717,62.897692 128.182717,63.1536894 128.134717,63.4256908 C128.086717,63.6976921 128.022718,63.9616895 127.942717,64.2176908 C127.814717,64.5856926 127.654718,64.8816896 127.462717,65.1056908 C127.270716,65.3296919 127.062718,65.4016912 126.838717,65.3216908 C126.662716,65.2416904 126.550717,65.1376914 126.502717,65.0096908 C126.454717,64.8816901 126.446717,64.7056919 126.478717,64.4816908 C126.510717,64.2256895 126.526717,63.969692 126.526717,63.7136908 C126.526717,63.4576895 126.514717,63.2216918 126.490717,63.0056908 C126.466717,62.7896897 126.434717,62.5976916 126.394717,62.4296908 C126.354717,62.2616899 126.326717,62.1456911 126.310717,62.0816908 L125.302717,59.1536908 C125.046716,59.1856909 124.790718,59.2136906 124.534717,59.2376908 C124.278716,59.2616909 124.014719,59.2896906 123.742717,59.3216908 Z M138.982717,55.4096908 C138.694716,55.5696916 138.394719,55.7376899 138.082717,55.9136908 C137.770716,56.0896916 137.458719,56.2936896 137.146717,56.5256908 C136.834716,56.7576919 136.538719,57.0296892 136.258717,57.3416908 C135.978716,57.6536923 135.726718,58.0256886 135.502717,58.4576908 C135.182716,59.0656938 134.966718,59.6856876 134.854717,60.3176908 C134.742717,60.9496939 134.670717,61.5696877 134.638717,62.1776908 C134.638717,62.4656922 134.570718,62.7576893 134.434717,63.0536908 C134.298716,63.3496922 134.110718,63.4976908 133.870717,63.4976908 C133.566716,63.4976908 133.322718,63.3416923 133.138717,63.0296908 C132.954716,62.7176892 132.830717,62.4176922 132.766717,62.1296908 C132.494716,60.9936851 132.270718,59.8696963 132.094717,58.7576908 C131.918716,57.6456852 131.766718,56.5376963 131.638717,55.4336908 C131.638717,55.2096896 131.706716,55.0656911 131.842717,55.0016908 C131.978718,54.9376904 132.134716,54.9136907 132.310717,54.9296908 C132.502718,54.9456908 132.686716,54.9936904 132.862717,55.0736908 C133.038718,55.1536912 133.142717,55.2816899 133.174717,55.4576908 C133.238717,56.0496937 133.318717,56.6696875 133.414717,57.3176908 C133.510718,57.965694 133.606717,58.5216884 133.702717,58.9856908 C133.766717,58.441688 133.942716,57.9136933 134.230717,57.4016908 C134.518719,56.8896882 134.874715,56.4256928 135.298717,56.0096908 C135.722719,55.5936887 136.202714,55.2416922 136.738717,54.9536908 C137.27472,54.6656893 137.822714,54.4736912 138.382717,54.3776908 C138.622718,54.3456906 138.822716,54.3456906 138.982717,54.3776908 C139.142718,54.4096909 139.254717,54.4656904 139.318717,54.5456908 C139.382717,54.6256912 139.394717,54.7536899 139.354717,54.9296908 C139.314717,55.1056916 139.190718,55.26569 138.982717,55.4096908 Z M146.230717,58.0496908 C145.606714,58.4176926 144.934721,58.7016898 144.214717,58.9016908 C143.494714,59.1016918 142.718721,59.2016908 141.886717,59.2016908 C141.918717,59.7616936 142.078716,60.2056891 142.366717,60.5336908 C142.654719,60.8616924 143.014715,61.0576904 143.446717,61.1216908 C143.702718,61.1536909 143.962716,61.145691 144.226717,61.0976908 C144.490718,61.0496905 144.738716,60.9736913 144.970717,60.8696908 C145.202718,60.7656902 145.414716,60.6496914 145.606717,60.5216908 C145.798718,60.3936901 145.966716,60.2656914 146.110717,60.1376908 C146.254718,60.0096901 146.406716,59.925691 146.566717,59.8856908 C146.726718,59.8456906 146.846717,59.8416906 146.926717,59.8736908 C147.150718,59.9536912 147.230717,60.1936888 147.166717,60.5936908 C146.910716,61.1056933 146.54272,61.541689 146.062717,61.9016908 C145.582715,62.2616926 145.04672,62.4896903 144.454717,62.5856908 C143.942715,62.6816912 143.41472,62.6576915 142.870717,62.5136908 C142.326714,62.36969 141.838719,62.0896928 141.406717,61.6736908 C141.038715,61.3056889 140.758718,60.8736932 140.566717,60.3776908 C140.374716,59.8816883 140.254717,59.3696934 140.206717,58.8416908 C140.158717,58.3456883 140.202716,57.873693 140.338717,57.4256908 C140.474718,56.9776885 140.686716,56.5816925 140.974717,56.2376908 C141.262719,55.893689 141.622715,55.6096919 142.054717,55.3856908 C142.486719,55.1616896 142.990714,55.0336909 143.566717,55.0016908 C144.254721,54.9536905 144.878714,55.0816892 145.438717,55.3856908 C145.99872,55.6896923 146.390716,56.113688 146.614717,56.6576908 C146.742718,56.9616923 146.778717,57.2256896 146.722717,57.4496908 C146.666717,57.6736919 146.502719,57.8736899 146.230717,58.0496908 Z M143.470717,56.4176908 C143.310716,56.4496909 143.138718,56.5056904 142.954717,56.5856908 C142.770716,56.6656912 142.602718,56.7656902 142.450717,56.8856908 C142.298716,57.0056914 142.162718,57.14169 142.042717,57.2936908 C141.922717,57.4456915 141.854717,57.6176898 141.838717,57.8096908 C142.110719,57.8096908 142.410716,57.785691 142.738717,57.7376908 C143.066719,57.6896905 143.386716,57.6296911 143.698717,57.5576908 C144.010719,57.4856904 144.298716,57.4016912 144.562717,57.3056908 C144.826718,57.2096903 145.046716,57.1056913 145.222717,56.9936908 C145.094717,56.6896892 144.858719,56.5016911 144.514717,56.4296908 C144.170715,56.3576904 143.822719,56.3536904 143.470717,56.4176908 Z M154.654717,58.0496908 C154.030714,58.4176926 153.358721,58.7016898 152.638717,58.9016908 C151.918714,59.1016918 151.142721,59.2016908 150.310717,59.2016908 C150.342717,59.7616936 150.502716,60.2056891 150.790717,60.5336908 C151.078719,60.8616924 151.438715,61.0576904 151.870717,61.1216908 C152.126718,61.1536909 152.386716,61.145691 152.650717,61.0976908 C152.914718,61.0496905 153.162716,60.9736913 153.394717,60.8696908 C153.626718,60.7656902 153.838716,60.6496914 154.030717,60.5216908 C154.222718,60.3936901 154.390716,60.2656914 154.534717,60.1376908 C154.678718,60.0096901 154.830716,59.925691 154.990717,59.8856908 C155.150718,59.8456906 155.270717,59.8416906 155.350717,59.8736908 C155.574718,59.9536912 155.654717,60.1936888 155.590717,60.5936908 C155.334716,61.1056933 154.96672,61.541689 154.486717,61.9016908 C154.006715,62.2616926 153.47072,62.4896903 152.878717,62.5856908 C152.366715,62.6816912 151.83872,62.6576915 151.294717,62.5136908 C150.750714,62.36969 150.262719,62.0896928 149.830717,61.6736908 C149.462715,61.3056889 149.182718,60.8736932 148.990717,60.3776908 C148.798716,59.8816883 148.678717,59.3696934 148.630717,58.8416908 C148.582717,58.3456883 148.626716,57.873693 148.762717,57.4256908 C148.898718,56.9776885 149.110716,56.5816925 149.398717,56.2376908 C149.686719,55.893689 150.046715,55.6096919 150.478717,55.3856908 C150.910719,55.1616896 151.414714,55.0336909 151.990717,55.0016908 C152.678721,54.9536905 153.302714,55.0816892 153.862717,55.3856908 C154.42272,55.6896923 154.814716,56.113688 155.038717,56.6576908 C155.166718,56.9616923 155.202717,57.2256896 155.146717,57.4496908 C155.090717,57.6736919 154.926719,57.8736899 154.654717,58.0496908 Z M151.894717,56.4176908 C151.734716,56.4496909 151.562718,56.5056904 151.378717,56.5856908 C151.194716,56.6656912 151.026718,56.7656902 150.874717,56.8856908 C150.722716,57.0056914 150.586718,57.14169 150.466717,57.2936908 C150.346717,57.4456915 150.278717,57.6176898 150.262717,57.8096908 C150.534719,57.8096908 150.834716,57.785691 151.162717,57.7376908 C151.490719,57.6896905 151.810716,57.6296911 152.122717,57.5576908 C152.434719,57.4856904 152.722716,57.4016912 152.986717,57.3056908 C153.250718,57.2096903 153.470716,57.1056913 153.646717,56.9936908 C153.518717,56.6896892 153.282719,56.5016911 152.938717,56.4296908 C152.594715,56.3576904 152.246719,56.3536904 151.894717,56.4176908 Z M164.830717,59.3216908 C164.606716,59.3536909 164.346719,59.3296912 164.050717,59.2496908 C163.754716,59.1696904 163.550718,58.9696924 163.438717,58.6496908 C163.390717,58.48969 163.382717,58.3336915 163.414717,58.1816908 C163.446717,58.02969 163.614716,57.9216911 163.918717,57.8576908 C164.206719,57.7936904 164.514716,57.733691 164.842717,57.6776908 C165.170719,57.6216905 165.502715,57.569691 165.838717,57.5216908 L164.950717,54.8336908 C164.678716,53.8096856 164.646716,52.9296944 164.854717,52.1936908 C165.062718,51.4576871 165.654712,50.9296924 166.630717,50.6096908 C167.030719,50.4816901 167.426715,50.4336906 167.818717,50.4656908 C168.210719,50.4976909 168.582715,50.6016899 168.934717,50.7776908 C169.286719,50.9536916 169.606716,51.1856893 169.894717,51.4736908 C170.182719,51.7616922 170.414716,52.0976888 170.590717,52.4816908 C170.654717,52.6576916 170.690717,52.8136901 170.698717,52.9496908 C170.706717,53.0856914 170.654718,53.2096902 170.542717,53.3216908 C170.382716,53.4816916 170.206718,53.5496909 170.014717,53.5256908 C169.822716,53.5016906 169.694717,53.4496912 169.630717,53.3696908 C169.486716,53.1936899 169.330718,53.0136917 169.162717,52.8296908 C168.994716,52.6456898 168.818718,52.4856914 168.634717,52.3496908 C168.450716,52.2136901 168.254718,52.1096911 168.046717,52.0376908 C167.838716,51.9656904 167.614718,51.9456906 167.374717,51.9776908 C167.262717,51.9936908 167.130718,52.0496903 166.978717,52.1456908 C166.826716,52.2416912 166.694718,52.3896898 166.582717,52.5896908 C166.470717,52.7896918 166.402717,53.0496892 166.378717,53.3696908 C166.354717,53.6896924 166.406717,54.0896884 166.534717,54.5696908 C166.646718,54.9696928 166.774716,55.4016884 166.918717,55.8656908 C167.062718,56.3296931 167.222716,56.8176882 167.398717,57.3296908 C168.166721,57.2496904 168.870714,57.2256906 169.510717,57.2576908 C169.862719,57.2896909 170.190716,57.3536903 170.494717,57.4496908 C170.798719,57.5456912 171.046716,57.6896898 171.238717,57.8816908 C171.286717,58.0416916 171.278717,58.1736902 171.214717,58.2776908 C171.150717,58.3816913 171.058718,58.4696904 170.938717,58.5416908 C170.818717,58.6136911 170.682718,58.6656906 170.530717,58.6976908 C170.378716,58.7296909 170.230718,58.7536907 170.086717,58.7696908 C169.766716,58.8016909 169.430719,58.8376906 169.078717,58.8776908 C168.726715,58.917691 168.358719,58.9536906 167.974717,58.9856908 C168.230718,59.7056944 168.466716,60.3896875 168.682717,61.0376908 C168.898718,61.685694 169.070717,62.2256886 169.198717,62.6576908 C169.262717,62.897692 169.270717,63.1536894 169.222717,63.4256908 C169.174717,63.6976921 169.110718,63.9616895 169.030717,64.2176908 C168.902717,64.5856926 168.742718,64.8816896 168.550717,65.1056908 C168.358716,65.3296919 168.150718,65.4016912 167.926717,65.3216908 C167.750716,65.2416904 167.638717,65.1376914 167.590717,65.0096908 C167.542717,64.8816901 167.534717,64.7056919 167.566717,64.4816908 C167.598717,64.2256895 167.614717,63.969692 167.614717,63.7136908 C167.614717,63.4576895 167.602717,63.2216918 167.578717,63.0056908 C167.554717,62.7896897 167.522717,62.5976916 167.482717,62.4296908 C167.442717,62.2616899 167.414717,62.1456911 167.398717,62.0816908 L166.390717,59.1536908 C166.134716,59.1856909 165.878718,59.2136906 165.622717,59.2376908 C165.366716,59.2616909 165.102719,59.2896906 164.830717,59.3216908 Z M178.414717,55.3136908 C178.89472,55.4896916 179.298716,55.753689 179.626717,56.1056908 C179.954719,56.4576925 180.206716,56.8536886 180.382717,57.2936908 C180.558718,57.733693 180.658717,58.1856884 180.682717,58.6496908 C180.706717,59.1136931 180.654718,59.5456888 180.526717,59.9456908 C180.350716,60.393693 180.126719,60.8336886 179.854717,61.2656908 C179.582716,61.6976929 179.270719,62.0816891 178.918717,62.4176908 C178.566715,62.7536924 178.166719,63.0256897 177.718717,63.2336908 C177.270715,63.4416918 176.77472,63.5456908 176.230717,63.5456908 C175.574714,63.5456908 175.022719,63.3936923 174.574717,63.0896908 C174.126715,62.7856892 173.774718,62.3936932 173.518717,61.9136908 C173.262716,61.4336884 173.098718,60.8896938 173.026717,60.2816908 C172.954717,59.6736877 172.966717,59.0656938 173.062717,58.4576908 C173.126717,58.0096885 173.234716,57.5736929 173.386717,57.1496908 C173.538718,56.7256886 173.734716,56.3496924 173.974717,56.0216908 C174.214718,55.6936891 174.490716,55.4256918 174.802717,55.2176908 C175.114719,55.0096897 175.470715,54.9056908 175.870717,54.9056908 C176.094718,54.9056908 176.374715,54.9496903 176.710717,55.0376908 C177.046719,55.1256912 177.358716,55.24969 177.646717,55.4096908 C177.854718,55.2176898 178.110716,55.1856901 178.414717,55.3136908 Z M177.502717,57.0656908 C177.326716,56.9536902 177.122718,56.8056917 176.890717,56.6216908 C176.658716,56.4376898 176.454718,56.3456908 176.278717,56.3456908 C176.086716,56.3456908 175.898718,56.4336899 175.714717,56.6096908 C175.530716,56.7856916 175.370718,56.9896896 175.234717,57.2216908 C175.098716,57.4536919 174.982718,57.6896896 174.886717,57.9296908 C174.790717,58.169692 174.726717,58.36169 174.694717,58.5056908 C174.646717,58.745692 174.614717,59.0336891 174.598717,59.3696908 C174.582717,59.7056924 174.606717,60.0376891 174.670717,60.3656908 C174.734717,60.6936924 174.858716,60.9896894 175.042717,61.2536908 C175.226718,61.5176921 175.502715,61.7056902 175.870717,61.8176908 C176.094718,61.8816911 176.358716,61.8776911 176.662717,61.8056908 C176.966719,61.7336904 177.266716,61.6016917 177.562717,61.4096908 C177.858719,61.2176898 178.138716,60.9616924 178.402717,60.6416908 C178.666718,60.3216892 178.870716,59.9536928 179.014717,59.5376908 C179.174718,59.0736884 179.178718,58.5896933 179.026717,58.0856908 C178.874716,57.5816882 178.566719,57.2176919 178.102717,56.9936908 C177.990717,57.0736912 177.878718,57.1136908 177.766717,57.1136908 C177.654717,57.1136908 177.566717,57.0976909 177.502717,57.0656908 Z M189.766717,55.4096908 C189.478716,55.5696916 189.178719,55.7376899 188.866717,55.9136908 C188.554716,56.0896916 188.242719,56.2936896 187.930717,56.5256908 C187.618716,56.7576919 187.322719,57.0296892 187.042717,57.3416908 C186.762716,57.6536923 186.510718,58.0256886 186.286717,58.4576908 C185.966716,59.0656938 185.750718,59.6856876 185.638717,60.3176908 C185.526717,60.9496939 185.454717,61.5696877 185.422717,62.1776908 C185.422717,62.4656922 185.354718,62.7576893 185.218717,63.0536908 C185.082716,63.3496922 184.894718,63.4976908 184.654717,63.4976908 C184.350716,63.4976908 184.106718,63.3416923 183.922717,63.0296908 C183.738716,62.7176892 183.614717,62.4176922 183.550717,62.1296908 C183.278716,60.9936851 183.054718,59.8696963 182.878717,58.7576908 C182.702716,57.6456852 182.550718,56.5376963 182.422717,55.4336908 C182.422717,55.2096896 182.490716,55.0656911 182.626717,55.0016908 C182.762718,54.9376904 182.918716,54.9136907 183.094717,54.9296908 C183.286718,54.9456908 183.470716,54.9936904 183.646717,55.0736908 C183.822718,55.1536912 183.926717,55.2816899 183.958717,55.4576908 C184.022717,56.0496937 184.102717,56.6696875 184.198717,57.3176908 C184.294718,57.965694 184.390717,58.5216884 184.486717,58.9856908 C184.550717,58.441688 184.726716,57.9136933 185.014717,57.4016908 C185.302719,56.8896882 185.658715,56.4256928 186.082717,56.0096908 C186.506719,55.5936887 186.986714,55.2416922 187.522717,54.9536908 C188.05872,54.6656893 188.606714,54.4736912 189.166717,54.3776908 C189.406718,54.3456906 189.606716,54.3456906 189.766717,54.3776908 C189.926718,54.4096909 190.038717,54.4656904 190.102717,54.5456908 C190.166717,54.6256912 190.178717,54.7536899 190.138717,54.9296908 C190.098717,55.1056916 189.974718,55.26569 189.766717,55.4096908 Z M203.374717,57.2576908 C203.678719,57.2416907 203.982716,57.31369 204.286717,57.4736908 C204.590719,57.6336916 204.742717,57.8816891 204.742717,58.2176908 C204.710717,58.4896921 204.562718,58.6616904 204.298717,58.7336908 C204.034716,58.8056911 203.822718,58.8416908 203.662717,58.8416908 C203.342716,58.8416908 202.998719,58.8496907 202.630717,58.8656908 C202.262715,58.8816908 201.886719,58.9056906 201.502717,58.9376908 C201.470717,59.4656934 201.442717,59.9616884 201.418717,60.4256908 C201.394717,60.8896931 201.374717,61.301689 201.358717,61.6616908 C201.342717,62.0216926 201.334717,62.3136896 201.334717,62.5376908 C201.334717,62.7616919 201.342717,62.8816907 201.358717,62.8976908 C201.710719,62.8336904 202.090715,62.7256915 202.498717,62.5736908 C202.906719,62.42169 203.314715,62.2536917 203.722717,62.0696908 C204.130719,61.8856898 204.530715,61.6936918 204.922717,61.4936908 C205.314719,61.2936898 205.686715,61.1056916 206.038717,60.9296908 C206.198718,60.8496904 206.346716,60.8256906 206.482717,60.8576908 C206.618718,60.8896909 206.702717,60.9616902 206.734717,61.0736908 C206.766717,61.2496916 206.742718,61.4656895 206.662717,61.7216908 C206.582717,61.977692 206.438718,62.2096897 206.230717,62.4176908 C205.990716,62.6096917 205.674719,62.8296895 205.282717,63.0776908 C204.890715,63.325692 204.470719,63.5616896 204.022717,63.7856908 C203.574715,64.0096919 203.122719,64.2056899 202.666717,64.3736908 C202.210715,64.5416916 201.806719,64.6416906 201.454717,64.6736908 C200.926715,64.721691 200.526719,64.5776924 200.254717,64.2416908 C199.982716,63.9056891 199.830717,63.4816933 199.798717,62.9696908 C199.766717,62.4576882 199.762717,61.8656941 199.786717,61.1936908 C199.810717,60.5216874 199.838717,59.8096945 199.870717,59.0576908 C199.566716,59.0896909 199.274719,59.1176906 198.994717,59.1416908 C198.714716,59.1656909 198.446718,59.1936906 198.190717,59.2256908 C197.982716,59.2256908 197.754718,59.1776912 197.506717,59.0816908 C197.258716,58.9856903 197.134717,58.8016921 197.134717,58.5296908 C197.134717,58.4336903 197.174717,58.3056916 197.254717,58.1456908 C197.334718,57.98569 197.510716,57.8656912 197.782717,57.7856908 C198.43872,57.6736902 199.166713,57.5776912 199.966717,57.4976908 C200.014717,56.745687 200.070717,56.0176943 200.134717,55.3136908 C200.198717,54.6096872 200.254717,53.9696936 200.302717,53.3936908 C200.318717,53.2016898 200.374717,53.0336915 200.470717,52.8896908 C200.566718,52.74569 200.670717,52.6736908 200.782717,52.6736908 C201.054719,52.6576907 201.314716,52.72569 201.562717,52.8776908 C201.810718,53.0296915 201.934717,53.2016898 201.934717,53.3936908 C201.870717,53.9376935 201.810717,54.5536873 201.754717,55.2416908 C201.698717,55.9296942 201.646717,56.6336872 201.598717,57.3536908 C201.918719,57.3216906 202.226716,57.3016908 202.522717,57.2936908 C202.818719,57.2856907 203.102716,57.2736908 203.374717,57.2576908 Z M209.398717,53.0576908 C209.398717,53.4416927 209.394717,53.8736884 209.386717,54.3536908 C209.378717,54.8336932 209.378717,55.3296882 209.386717,55.8416908 C209.394717,56.3536933 209.402717,56.881688 209.410717,57.4256908 C209.418717,57.9696935 209.430717,58.4896883 209.446717,58.9856908 C209.606718,58.6656892 209.798716,58.3496923 210.022717,58.0376908 C210.246718,57.7256892 210.498716,57.449692 210.778717,57.2096908 C211.058719,56.9696896 211.354716,56.7776915 211.666717,56.6336908 C211.978719,56.48969 212.318715,56.4176908 212.686717,56.4176908 C213.086719,56.4176908 213.442716,56.5456895 213.754717,56.8016908 C214.066719,57.057692 214.338716,57.3976886 214.570717,57.8216908 C214.802718,58.2456929 214.998716,58.7176882 215.158717,59.2376908 C215.318718,59.7576934 215.450717,60.2856881 215.554717,60.8216908 C215.658718,61.3576934 215.734717,61.8696883 215.782717,62.3576908 C215.830717,62.8456932 215.870717,63.265689 215.902717,63.6176908 C215.902717,63.873692 215.838718,64.08169 215.710717,64.2416908 C215.582717,64.4016916 215.430718,64.4816908 215.254717,64.4816908 C215.126717,64.4816908 214.970718,64.3976916 214.786717,64.2296908 C214.602716,64.0616899 214.470718,63.857692 214.390717,63.6176908 C214.342717,63.4256898 214.294717,63.1456926 214.246717,62.7776908 C214.198717,62.4096889 214.142717,62.0136929 214.078717,61.5896908 C214.014717,61.1656886 213.934718,60.7376929 213.838717,60.3056908 C213.742717,59.8736886 213.626718,59.4856925 213.490717,59.1416908 C213.354716,58.797689 213.190718,58.5296917 212.998717,58.3376908 C212.806716,58.1456898 212.582718,58.0736905 212.326717,58.1216908 C211.926715,58.2016912 211.578719,58.4816884 211.282717,58.9616908 C210.986716,59.4416932 210.730718,59.9856877 210.514717,60.5936908 C210.298716,61.2016938 210.122718,61.8176876 209.986717,62.4416908 C209.850716,63.0656939 209.750717,63.5696888 209.686717,63.9536908 C209.622717,64.2416922 209.538718,64.4376902 209.434717,64.5416908 C209.330717,64.6456913 209.214718,64.6976908 209.086717,64.6976908 C208.958717,64.6976908 208.842718,64.6336914 208.738717,64.5056908 C208.634717,64.3776901 208.538718,64.2216917 208.450717,64.0376908 C208.362717,63.8536898 208.286717,63.6616918 208.222717,63.4616908 C208.158717,63.2616898 208.118717,63.0896915 208.102717,62.9456908 C208.022717,62.0816864 207.958717,61.2536947 207.910717,60.4616908 C207.862717,59.6696868 207.826717,58.8736948 207.802717,58.0736908 C207.778717,57.2736868 207.766717,56.453695 207.766717,55.6136908 C207.766717,54.7736866 207.782717,53.8736956 207.814717,52.9136908 C207.814717,52.1136868 208.102714,51.7536904 208.678717,51.8336908 C208.870718,51.8656909 209.038716,52.0056895 209.182717,52.2536908 C209.326718,52.501692 209.398717,52.7696893 209.398717,53.0576908 Z M223.438717,58.0496908 C222.814714,58.4176926 222.142721,58.7016898 221.422717,58.9016908 C220.702714,59.1016918 219.926721,59.2016908 219.094717,59.2016908 C219.126717,59.7616936 219.286716,60.2056891 219.574717,60.5336908 C219.862719,60.8616924 220.222715,61.0576904 220.654717,61.1216908 C220.910718,61.1536909 221.170716,61.145691 221.434717,61.0976908 C221.698718,61.0496905 221.946716,60.9736913 222.178717,60.8696908 C222.410718,60.7656902 222.622716,60.6496914 222.814717,60.5216908 C223.006718,60.3936901 223.174716,60.2656914 223.318717,60.1376908 C223.462718,60.0096901 223.614716,59.925691 223.774717,59.8856908 C223.934718,59.8456906 224.054717,59.8416906 224.134717,59.8736908 C224.358718,59.9536912 224.438717,60.1936888 224.374717,60.5936908 C224.118716,61.1056933 223.75072,61.541689 223.270717,61.9016908 C222.790715,62.2616926 222.25472,62.4896903 221.662717,62.5856908 C221.150715,62.6816912 220.62272,62.6576915 220.078717,62.5136908 C219.534714,62.36969 219.046719,62.0896928 218.614717,61.6736908 C218.246715,61.3056889 217.966718,60.8736932 217.774717,60.3776908 C217.582716,59.8816883 217.462717,59.3696934 217.414717,58.8416908 C217.366717,58.3456883 217.410716,57.873693 217.546717,57.4256908 C217.682718,56.9776885 217.894716,56.5816925 218.182717,56.2376908 C218.470719,55.893689 218.830715,55.6096919 219.262717,55.3856908 C219.694719,55.1616896 220.198714,55.0336909 220.774717,55.0016908 C221.462721,54.9536905 222.086714,55.0816892 222.646717,55.3856908 C223.20672,55.6896923 223.598716,56.113688 223.822717,56.6576908 C223.950718,56.9616923 223.986717,57.2256896 223.930717,57.4496908 C223.874717,57.6736919 223.710719,57.8736899 223.438717,58.0496908 Z M220.678717,56.4176908 C220.518716,56.4496909 220.346718,56.5056904 220.162717,56.5856908 C219.978716,56.6656912 219.810718,56.7656902 219.658717,56.8856908 C219.506716,57.0056914 219.370718,57.14169 219.250717,57.2936908 C219.130717,57.4456915 219.062717,57.6176898 219.046717,57.8096908 C219.318719,57.8096908 219.618716,57.785691 219.946717,57.7376908 C220.274719,57.6896905 220.594716,57.6296911 220.906717,57.5576908 C221.218719,57.4856904 221.506716,57.4016912 221.770717,57.3056908 C222.034718,57.2096903 222.254716,57.1056913 222.430717,56.9936908 C222.302717,56.6896892 222.066719,56.5016911 221.722717,56.4296908 C221.378715,56.3576904 221.030719,56.3536904 220.678717,56.4176908 Z M240.214717,56.1296908 C240.262717,56.9936951 240.314717,57.8656864 240.370717,58.7456908 C240.426717,59.6256952 240.438717,60.4936865 240.406717,61.3496908 C240.374717,62.205695 240.290718,63.0416867 240.154717,63.8576908 C240.018716,64.6736948 239.790719,65.453687 239.470717,66.1976908 C239.150716,66.9416945 238.72272,67.6336876 238.186717,68.2736908 C237.650714,68.913694 236.974721,69.4896882 236.158717,70.0016908 C236.030717,70.0816912 235.890718,70.1296907 235.738717,70.1456908 C235.586716,70.1616908 235.438718,70.1576909 235.294717,70.1336908 C235.150716,70.1096906 235.022718,70.069691 234.910717,70.0136908 C234.798717,69.9576905 234.726717,69.8816912 234.694717,69.7856908 C234.646717,69.64169 234.670717,69.4816916 234.766717,69.3056908 C234.862718,69.1296899 235.022716,68.9456917 235.246717,68.7536908 C235.950721,68.2256881 236.542715,67.6656937 237.022717,67.0736908 C237.50272,66.4816878 237.886716,65.8416942 238.174717,65.1536908 C238.462719,64.4656873 238.650717,63.7176948 238.738717,62.9096908 C238.826718,62.1016867 238.822718,61.2176956 238.726717,60.2576908 C238.534716,60.497692 238.310718,60.7456895 238.054717,61.0016908 C237.798716,61.257692 237.526719,61.4856898 237.238717,61.6856908 C236.950716,61.8856918 236.654719,62.0536901 236.350717,62.1896908 C236.046716,62.3256914 235.758719,62.3936908 235.486717,62.3936908 C235.262716,62.3936908 235.038718,62.3456912 234.814717,62.2496908 C234.590716,62.1536903 234.366718,61.9696921 234.142717,61.6976908 C233.886716,61.3616891 233.658718,60.9816929 233.458717,60.5576908 C233.258716,60.1336886 233.086718,59.7216928 232.942717,59.3216908 C232.798716,58.9216888 232.682718,58.5616924 232.594717,58.2416908 C232.506717,57.9216892 232.454717,57.6976914 232.438717,57.5696908 C232.406717,57.40969 232.406717,57.2576915 232.438717,57.1136908 C232.470717,56.96969 232.574716,56.8816909 232.750717,56.8496908 C232.990718,56.8016905 233.214716,56.8176904 233.422717,56.8976908 C233.630718,56.9776912 233.774717,57.1056899 233.854717,57.2816908 C233.918717,57.4576916 234.006717,57.7296889 234.118717,58.0976908 C234.230718,58.4656926 234.366716,58.829689 234.526717,59.1896908 C234.686718,59.5496926 234.858716,59.8656894 235.042717,60.1376908 C235.226718,60.4096921 235.422716,60.5456908 235.630717,60.5456908 C235.870718,60.5456908 236.154716,60.425692 236.482717,60.1856908 C236.810719,59.9456896 237.126716,59.6336927 237.430717,59.2496908 C237.734719,58.8656888 237.994716,58.4376931 238.210717,57.9656908 C238.426718,57.4936884 238.534717,57.033693 238.534717,56.5856908 C238.534717,56.4896903 238.550717,56.3776914 238.582717,56.2496908 C238.614717,56.1216901 238.662717,55.9976914 238.726717,55.8776908 C238.790717,55.7576902 238.866717,55.6536912 238.954717,55.5656908 C239.042718,55.4776903 239.134717,55.4256908 239.230717,55.4096908 C239.486718,55.3776906 239.714716,55.4456899 239.914717,55.6136908 C240.114718,55.7816916 240.214717,55.9536899 240.214717,56.1296908 Z M248.326717,58.0496908 C247.702714,58.4176926 247.030721,58.7016898 246.310717,58.9016908 C245.590714,59.1016918 244.814721,59.2016908 243.982717,59.2016908 C244.014717,59.7616936 244.174716,60.2056891 244.462717,60.5336908 C244.750719,60.8616924 245.110715,61.0576904 245.542717,61.1216908 C245.798718,61.1536909 246.058716,61.145691 246.322717,61.0976908 C246.586718,61.0496905 246.834716,60.9736913 247.066717,60.8696908 C247.298718,60.7656902 247.510716,60.6496914 247.702717,60.5216908 C247.894718,60.3936901 248.062716,60.2656914 248.206717,60.1376908 C248.350718,60.0096901 248.502716,59.925691 248.662717,59.8856908 C248.822718,59.8456906 248.942717,59.8416906 249.022717,59.8736908 C249.246718,59.9536912 249.326717,60.1936888 249.262717,60.5936908 C249.006716,61.1056933 248.63872,61.541689 248.158717,61.9016908 C247.678715,62.2616926 247.14272,62.4896903 246.550717,62.5856908 C246.038715,62.6816912 245.51072,62.6576915 244.966717,62.5136908 C244.422714,62.36969 243.934719,62.0896928 243.502717,61.6736908 C243.134715,61.3056889 242.854718,60.8736932 242.662717,60.3776908 C242.470716,59.8816883 242.350717,59.3696934 242.302717,58.8416908 C242.254717,58.3456883 242.298716,57.873693 242.434717,57.4256908 C242.570718,56.9776885 242.782716,56.5816925 243.070717,56.2376908 C243.358719,55.893689 243.718715,55.6096919 244.150717,55.3856908 C244.582719,55.1616896 245.086714,55.0336909 245.662717,55.0016908 C246.350721,54.9536905 246.974714,55.0816892 247.534717,55.3856908 C248.09472,55.6896923 248.486716,56.113688 248.710717,56.6576908 C248.838718,56.9616923 248.874717,57.2256896 248.818717,57.4496908 C248.762717,57.6736919 248.598719,57.8736899 248.326717,58.0496908 Z M245.566717,56.4176908 C245.406716,56.4496909 245.234718,56.5056904 245.050717,56.5856908 C244.866716,56.6656912 244.698718,56.7656902 244.546717,56.8856908 C244.394716,57.0056914 244.258718,57.14169 244.138717,57.2936908 C244.018717,57.4456915 243.950717,57.6176898 243.934717,57.8096908 C244.206719,57.8096908 244.506716,57.785691 244.834717,57.7376908 C245.162719,57.6896905 245.482716,57.6296911 245.794717,57.5576908 C246.106719,57.4856904 246.394716,57.4016912 246.658717,57.3056908 C246.922718,57.2096903 247.142716,57.1056913 247.318717,56.9936908 C247.190717,56.6896892 246.954719,56.5016911 246.610717,56.4296908 C246.266715,56.3576904 245.918719,56.3536904 245.566717,56.4176908 Z M256.942717,54.8096908 C257.006717,55.257693 257.058717,55.7336882 257.098717,56.2376908 C257.138717,56.7416933 257.170717,57.2496882 257.194717,57.7616908 C257.218717,58.2736933 257.230717,58.7696884 257.230717,59.2496908 C257.230717,59.7296932 257.222717,60.1616888 257.206717,60.5456908 C257.71872,60.8976925 258.026717,61.2096894 258.130717,61.4816908 C258.234718,61.7536921 258.246718,61.9936897 258.166717,62.2016908 C258.070717,62.4896922 257.898718,62.6376907 257.650717,62.6456908 C257.402716,62.6536908 257.118719,62.5696916 256.798717,62.3936908 C256.574716,62.5536916 256.318719,62.7256898 256.030717,62.9096908 C255.742716,63.0936917 255.438719,63.2696899 255.118717,63.4376908 C254.798716,63.6056916 254.478719,63.7536901 254.158717,63.8816908 C253.838716,64.0096914 253.542719,64.0976905 253.270717,64.1456908 C252.758715,64.2256912 252.298719,64.1296921 251.890717,63.8576908 C251.482715,63.5856894 251.206718,63.1776935 251.062717,62.6336908 C250.966717,62.2656889 250.942717,61.8856927 250.990717,61.4936908 C251.038717,61.1016888 251.158716,60.7256926 251.350717,60.3656908 C251.542718,60.005689 251.802716,59.6816922 252.130717,59.3936908 C252.458719,59.1056893 252.846715,58.8816916 253.294717,58.7216908 C253.406718,58.6736905 253.562716,58.6336909 253.762717,58.6016908 C253.962718,58.5696906 254.170716,58.5576907 254.386717,58.5656908 C254.602718,58.5736908 254.822716,58.6176904 255.046717,58.6976908 C255.270718,58.7776912 255.478716,58.9136898 255.670717,59.1056908 C255.670717,58.8336894 255.666717,58.5336924 255.658717,58.2056908 C255.650717,57.8776891 255.638717,57.5456924 255.622717,57.2096908 C255.606717,56.8736891 255.586717,56.5576922 255.562717,56.2616908 C255.538717,55.9656893 255.510717,55.7136918 255.478717,55.5056908 C255.446717,55.2656896 255.354718,55.117691 255.202717,55.0616908 C255.050716,55.0056905 254.862718,55.0176904 254.638717,55.0976908 C254.254715,55.2256914 253.80672,55.4736889 253.294717,55.8416908 C252.782715,56.2096926 252.294719,56.6016887 251.830717,57.0176908 C251.686716,57.1616915 251.522718,57.2256908 251.338717,57.2096908 C251.154716,57.1936907 250.998718,57.1216914 250.870717,56.9936908 C250.742717,56.8656901 250.670717,56.7176916 250.654717,56.5496908 C250.638717,56.3816899 250.702716,56.2016917 250.846717,56.0096908 C251.118719,55.7216893 251.422715,55.4256923 251.758717,55.1216908 C252.094719,54.8176892 252.446715,54.541692 252.814717,54.2936908 C253.182719,54.0456895 253.558715,53.8416916 253.942717,53.6816908 C254.326719,53.52169 254.710715,53.4336908 255.094717,53.4176908 C255.65472,53.4016907 256.086716,53.5256894 256.390717,53.7896908 C256.694719,54.0536921 256.878717,54.3936887 256.942717,54.8096908 Z M254.158717,59.9696908 C253.950716,60.017691 253.730718,60.11769 253.498717,60.2696908 C253.266716,60.4216915 253.058718,60.6056897 252.874717,60.8216908 C252.690716,61.0376918 252.554718,61.2776894 252.466717,61.5416908 C252.378717,61.8056921 252.374717,62.0656895 252.454717,62.3216908 C252.486717,62.4176912 252.554717,62.4896905 252.658717,62.5376908 C252.762718,62.585691 252.878717,62.5936909 253.006717,62.5616908 C253.390719,62.4816904 253.826715,62.3256919 254.314717,62.0936908 C254.80272,61.8616896 255.190716,61.6096921 255.478717,61.3376908 C255.478717,61.2416903 255.430718,61.1176915 255.334717,60.9656908 C255.238717,60.81369 255.126718,60.6616915 254.998717,60.5096908 C254.870717,60.35769 254.730718,60.2256913 254.578717,60.1136908 C254.426716,60.0016902 254.286718,59.9536907 254.158717,59.9696908 Z M266.734717,55.4096908 C266.446716,55.5696916 266.146719,55.7376899 265.834717,55.9136908 C265.522716,56.0896916 265.210719,56.2936896 264.898717,56.5256908 C264.586716,56.7576919 264.290719,57.0296892 264.010717,57.3416908 C263.730716,57.6536923 263.478718,58.0256886 263.254717,58.4576908 C262.934716,59.0656938 262.718718,59.6856876 262.606717,60.3176908 C262.494717,60.9496939 262.422717,61.5696877 262.390717,62.1776908 C262.390717,62.4656922 262.322718,62.7576893 262.186717,63.0536908 C262.050716,63.3496922 261.862718,63.4976908 261.622717,63.4976908 C261.318716,63.4976908 261.074718,63.3416923 260.890717,63.0296908 C260.706716,62.7176892 260.582717,62.4176922 260.518717,62.1296908 C260.246716,60.9936851 260.022718,59.8696963 259.846717,58.7576908 C259.670716,57.6456852 259.518718,56.5376963 259.390717,55.4336908 C259.390717,55.2096896 259.458716,55.0656911 259.594717,55.0016908 C259.730718,54.9376904 259.886716,54.9136907 260.062717,54.9296908 C260.254718,54.9456908 260.438716,54.9936904 260.614717,55.0736908 C260.790718,55.1536912 260.894717,55.2816899 260.926717,55.4576908 C260.990717,56.0496937 261.070717,56.6696875 261.166717,57.3176908 C261.262718,57.965694 261.358717,58.5216884 261.454717,58.9856908 C261.518717,58.441688 261.694716,57.9136933 261.982717,57.4016908 C262.270719,56.8896882 262.626715,56.4256928 263.050717,56.0096908 C263.474719,55.5936887 263.954714,55.2416922 264.490717,54.9536908 C265.02672,54.6656893 265.574714,54.4736912 266.134717,54.3776908 C266.374718,54.3456906 266.574716,54.3456906 266.734717,54.3776908 C266.894718,54.4096909 267.006717,54.4656904 267.070717,54.5456908 C267.134717,54.6256912 267.146717,54.7536899 267.106717,54.9296908 C267.066717,55.1056916 266.942718,55.26569 266.734717,55.4096908 Z" fill="#25262A" transform="translate(160.060256, 45.777805) rotate(-9.000000) translate(-160.060256, -45.777805) "></path>
            <g transform="translate(24.558459, 23.595400) rotate(72.000000) translate(-24.558459, -23.595400) translate(-0.941541, -3.404600)" stroke-width="2" stroke="#25262A">
                <path d="M12.8271879,49.9827919 C12.8271879,49.9827919 40.6874336,42.1852216 39.1330569,3.78044118" transform="translate(26.011474, 26.881617) rotate(36.000000) translate(-26.011474, -26.881617) "></path>
                <path d="M4.13337248,44.253426 C4.13337248,44.253426 3.57420151,40.6159544 3.41518024,39.8841341 C3.25615898,39.1523138 1.52313114,35.3020445 1.52313114,35.3020445 C1.52313114,35.3020445 4.21611077,35.7384882 6.60830224,35.496338 C9.0004937,35.2541879 11.8727323,35.3633395 11.8727323,35.3633395" transform="translate(6.697932, 39.777735) rotate(-19.000000) translate(-6.697932, -39.777735) "></path>
            </g>
        </g>
    </g>
</svg>