<?xml version="1.0" encoding="UTF-8"?>
<svg width="177px" height="59px" viewBox="0 0 177 59" version="1.1" xmlns="http://www.w3.org/2000/svg" xmlns:xlink="http://www.w3.org/1999/xlink">
    <!-- Generator: Sketch 47.1 (45422) - http://www.bohemiancoding.com/sketch -->
    <title>Group 266</title>
    <desc>Created with Sketch.</desc>
    <defs></defs>
    <g stroke="none" stroke-width="1" fill="none" fill-rule="evenodd">
        <g transform="translate(-961.000000, -1687.000000)">
            <g transform="translate(955.000000, 1670.000000)">
                <g>
                    <path d="M10.239,64.776 C10.1523329,65.0706681 10.0396674,65.3349988 9.901,65.569 C9.76233264,65.8030012 9.61500078,65.9373332 9.459,65.972 C9.12966502,66.0586671 8.8783342,66.0066676 8.705,65.816 C8.5316658,65.6253324 8.46233316,65.3826681 8.497,65.088 C8.63566736,64.0479948 8.86099844,62.9516724 9.173,61.799 C9.48500156,60.6463276 9.84899792,59.4936724 10.265,58.341 C10.6810021,57.1883276 11.1359975,56.0703387 11.63,54.987 C12.1240025,53.9036612 12.6309974,52.9200044 13.151,52.036 C13.2376671,51.8973326 13.3373328,51.8150001 13.45,51.789 C13.5626672,51.7629999 13.6623329,51.7673332 13.749,51.802 C13.8356671,51.7326663 13.9396661,51.6720003 14.061,51.62 C14.1823339,51.5679997 14.3036661,51.542 14.425,51.542 C14.4770003,51.542 14.533333,51.5506666 14.594,51.568 C14.654667,51.5853334 14.7196663,51.6373329 14.789,51.724 C14.8583337,51.8106671 14.9406662,51.9363325 15.036,52.101 C15.1313338,52.2656675 15.2483326,52.5039984 15.387,52.816 C15.6296679,53.7000044 15.9113317,54.6099953 16.232,55.546 C16.5526683,56.4820047 16.8863316,57.4179953 17.233,58.354 C17.2850003,58.3366666 17.3326664,58.3236667 17.376,58.315 C17.4193335,58.3063333 17.4669997,58.2933334 17.519,58.276 C17.7096676,58.2586666 17.9263321,58.2673332 18.169,58.302 C18.4116679,58.3366668 18.5763329,58.457999 18.663,58.666 C18.7670005,58.9260013 18.7496674,59.1513324 18.611,59.342 C18.4723326,59.5326676 18.2210018,59.7233324 17.857,59.914 C18.0823345,60.4686694 18.3076655,61.0103307 18.533,61.539 C18.7583345,62.0676693 18.9923321,62.5833308 19.235,63.086 C19.2523334,63.1726671 19.2783332,63.3069991 19.313,63.489 C19.3476668,63.6710009 19.3693333,63.8529991 19.378,64.035 C19.3866667,64.2170009 19.3736668,64.3859992 19.339,64.542 C19.3043332,64.6980008 19.2350005,64.8019997 19.131,64.854 C19.0096661,64.9060003 18.8840006,64.8973337 18.754,64.828 C18.6239993,64.7586663 18.4983339,64.6676672 18.377,64.555 C18.2556661,64.4423328 18.1473338,64.3210007 18.052,64.191 C17.9566662,64.0609994 17.8830003,63.9440005 17.831,63.84 C17.5363319,63.2679971 17.254668,62.6916696 16.986,62.111 C16.717332,61.5303304 16.4616679,60.9453363 16.219,60.356 C15.4909964,60.4946674 14.6980043,60.6159995 13.84,60.72 C12.9819957,60.8240005 12.1370042,60.8933332 11.305,60.928 C11.1143324,61.58667 10.9280009,62.2323302 10.746,62.865 C10.5639991,63.4976698 10.3950008,64.1346635 10.239,64.776 Z M13.931,53.856 C13.1336627,55.6413423 12.4403363,57.4266577 11.851,59.212 C13.0123391,59.1773332 14.2516601,59.0300013 15.569,58.77 C14.9449969,57.1926588 14.3990023,55.5546752 13.931,53.856 Z M22.719,56.17 C22.7710003,56.4300013 22.827333,56.7203317 22.888,57.041 C22.948667,57.3616683 23.0136663,57.6909983 23.083,58.029 C23.1523337,58.3670017 23.2129997,58.7093316 23.265,59.056 C23.3170003,59.4026684 23.3603332,59.7319984 23.395,60.044 C23.603001,59.5933311 23.8283321,59.1166692 24.071,58.614 C24.3136679,58.1113308 24.5779986,57.6476688 24.864,57.223 C25.1500014,56.7983312 25.4533317,56.4473347 25.774,56.17 C26.0946683,55.8926653 26.4456648,55.754 26.827,55.754 C27.3990029,55.754 27.879998,55.9619979 28.27,56.378 C28.6600019,56.7940021 28.989332,57.3096636 29.258,57.925 C29.526668,58.5403364 29.7389992,59.1859966 29.895,59.862 C30.0510008,60.5380034 30.1809995,61.1359974 30.285,61.656 C30.3890005,62.1240023 30.1810026,62.4706655 29.661,62.696 C29.4183321,62.8173339 29.2363339,62.8346671 29.115,62.748 C28.9936661,62.6613329 28.9243334,62.5746671 28.907,62.488 C28.8203329,62.279999 28.7120007,61.9160026 28.582,61.396 C28.4519994,60.8759974 28.3046675,60.347336 28.14,59.81 C27.9753325,59.272664 27.789001,58.8046687 27.581,58.406 C27.372999,58.0073313 27.1390013,57.8253332 26.879,57.86 C26.5669984,57.8773334 26.2896679,58.1113311 26.047,58.562 C25.838999,58.9260018 25.6266678,59.3289978 25.41,59.771 C25.1933322,60.2130022 24.981001,60.6636644 24.773,61.123 C24.564999,61.5823356 24.3613343,62.0416644 24.162,62.501 C23.9626657,62.9603356 23.7763342,63.3806648 23.603,63.762 C23.4816661,63.8833339 23.3300009,63.9656665 23.148,64.009 C22.9659991,64.0523336 22.7796676,64.0393337 22.589,63.97 C22.4156658,63.9179997 22.2770005,63.8313339 22.173,63.71 C22.0689995,63.5886661 22.017,63.4673339 22.017,63.346 C21.8609992,61.9939932 21.7006675,60.7633389 21.536,59.654 C21.3713325,58.5446611 21.1590013,57.4093391 20.899,56.248 C20.7776661,55.8493313 20.7559996,55.5330012 20.834,55.299 C20.9120004,55.0649988 21.1676645,54.9739997 21.601,55.026 C22.2076697,55.1300005 22.5803326,55.51133 22.719,56.17 Z M36.473,51.568 C36.4209997,51.2559984 36.4426662,50.9700013 36.538,50.71 C36.6333338,50.4499987 36.8283319,50.3026668 37.123,50.268 C37.3830013,50.2333332 37.6126657,50.3026658 37.812,50.476 C38.0113343,50.6493342 38.1369997,50.8746653 38.189,51.152 C38.5356684,53.1453433 38.8606652,55.1256568 39.164,57.093 C39.4673349,59.0603432 39.7403321,60.9886572 39.983,62.878 C40.0523337,63.3806692 40.0176674,63.7229991 39.879,63.905 C39.7403326,64.0870009 39.5756676,64.2213329 39.385,64.308 C39.176999,64.3946671 38.9820009,64.3946671 38.8,64.308 C38.6179991,64.2213329 38.5010003,64.0653345 38.449,63.84 L38.423,63.684 L38.319,63.71 C37.7469971,63.918001 37.1490031,64.0349999 36.525,64.061 C35.9009969,64.0870001 35.3030029,64.0133342 34.731,63.84 C34.1589971,63.6666658 33.6520022,63.385002 33.21,62.995 C32.7679978,62.604998 32.4516676,62.1066697 32.261,61.5 C31.8449979,60.1653267 32.1049953,58.9520055 33.041,57.86 C33.4396687,57.4093311 33.9336637,57.0020018 34.523,56.638 C35.1123363,56.2739982 35.8229958,55.988001 36.655,55.78 L37.123,55.676 L36.473,51.568 Z M33.847,60.85 C33.9510005,61.2660021 34.1416653,61.5866655 34.419,61.812 C34.6963347,62.0373345 35.0256648,62.1889996 35.407,62.267 C35.7883352,62.3450004 36.1956645,62.3580003 36.629,62.306 C37.0623355,62.2539997 37.4869979,62.1586674 37.903,62.02 L38.137,61.942 L37.409,57.366 L36.889,57.496 C36.5249982,57.6000005 36.1393354,57.7603322 35.732,57.977 C35.3246646,58.1936677 34.9650016,58.4493319 34.653,58.744 C34.3409984,59.0386681 34.1026675,59.3679982 33.938,59.732 C33.7733325,60.0960018 33.7429995,60.4686648 33.847,60.85 Z M53.373,57.574 C53.5116674,57.7646676 53.6459994,58.0029986 53.776,58.289 C53.9060007,58.5750014 54.0056663,58.8653319 54.075,59.16 C54.1790005,59.6280023 54.2959994,60.1349973 54.426,60.681 C54.5560007,61.2270027 54.6859994,61.7946637 54.816,62.384 C54.9460007,62.9733363 55.0673328,63.5713303 55.18,64.178 C55.2926672,64.7846697 55.3923329,65.3653306 55.479,65.92 C55.5830005,66.6826705 55.5266678,67.4149965 55.31,68.117 C55.0933323,68.8190035 54.7336692,69.4473306 54.231,70.002 C53.7283308,70.5566694 53.1043371,70.998665 52.359,71.328 C51.6136629,71.657335 50.7730047,71.8393332 49.837,71.874 C49.628999,71.8566666 49.4123345,71.7570009 49.187,71.575 C48.9616655,71.3929991 48.849,71.2066676 48.849,71.016 C48.8316666,70.8253324 48.9226657,70.6736672 49.122,70.561 C49.3213343,70.4483328 49.524999,70.3746668 49.733,70.34 C50.0970018,70.3053332 50.4739981,70.2316672 50.864,70.119 C51.254002,70.0063328 51.6223316,69.846001 51.969,69.638 C52.3156684,69.429999 52.6319986,69.1786681 52.918,68.884 C53.2040014,68.5893319 53.4249992,68.2426687 53.581,67.844 C53.7023339,67.5319984 53.763,67.1463356 53.763,66.687 C53.763,66.2276644 53.732667,65.7726689 53.672,65.322 C53.611333,64.8713311 53.5333338,64.4423354 53.438,64.035 C53.3426662,63.6276646 53.2603337,63.320001 53.191,63.112 C53.0696661,63.2333339 52.9180009,63.3633326 52.736,63.502 C52.5539991,63.6406674 52.3503345,63.7706661 52.125,63.892 C51.8996655,64.0133339 51.652668,64.1086663 51.384,64.178 C51.115332,64.2473337 50.8423347,64.2733334 50.565,64.256 C50.2703319,64.2386666 49.9973346,64.1346676 49.746,63.944 C49.4946654,63.7533324 49.2736676,63.5063349 49.083,63.203 C48.8923324,62.8996652 48.7406672,62.5486687 48.628,62.15 C48.5153328,61.7513313 48.459,61.3353355 48.459,60.902 C48.4936668,59.8619948 48.7579975,58.939004 49.252,58.133 C49.7460025,57.326996 50.5389945,56.6986689 51.631,56.248 C51.7176671,56.2306666 51.8346659,56.2133334 51.982,56.196 C52.1293341,56.1786666 52.2809992,56.1743333 52.437,56.183 C52.5930008,56.1916667 52.7446659,56.2133332 52.892,56.248 C53.0393341,56.2826668 53.1649995,56.3346663 53.269,56.404 C53.4596676,56.5426674 53.555,56.7419987 53.555,57.002 C53.555,57.2620013 53.4943339,57.4526661 53.373,57.574 Z M50.097,61.136 C50.097,61.3266676 50.1143332,61.5389988 50.149,61.773 C50.1836668,62.0070012 50.2963324,62.1759995 50.487,62.28 C50.695001,62.4013339 50.9506652,62.4186671 51.254,62.332 C51.5573349,62.2453329 51.8389987,62.098001 52.099,61.89 C52.3416679,61.6993324 52.5019996,61.4870012 52.58,61.253 C52.6580004,61.0189988 52.6536671,60.7026687 52.567,60.304 C52.4803329,59.9053313 52.3850005,59.4893355 52.281,59.056 C52.1769995,58.6226645 52.1076668,58.2326684 52.073,57.886 C51.864999,57.9900005 51.6440012,58.1373324 51.41,58.328 C51.1759988,58.5186676 50.9636676,58.7569986 50.773,59.043 C50.5823324,59.3290014 50.4220007,59.6453316 50.292,59.992 C50.1619994,60.3386684 50.097,60.7199979 50.097,61.136 Z M65.229,55.78 C64.9169984,55.9533342 64.5920017,56.1353324 64.254,56.326 C63.9159983,56.5166676 63.5780017,56.7376654 63.24,56.989 C62.9019983,57.2403346 62.5813349,57.5349983 62.278,57.873 C61.9746652,58.2110017 61.7016679,58.6139977 61.459,59.082 C61.1123316,59.74067 60.8783339,60.4123299 60.757,61.097 C60.6356661,61.7816701 60.5576668,62.45333 60.523,63.112 C60.523,63.4240016 60.4493341,63.7403317 60.302,64.061 C60.1546659,64.3816683 59.9510013,64.542 59.691,64.542 C59.361665,64.542 59.0973343,64.3730017 58.898,64.035 C58.6986657,63.6969983 58.5643337,63.3720016 58.495,63.06 C58.2003319,61.8293272 57.9576676,60.6116727 57.767,59.407 C57.5763324,58.2023273 57.4116674,57.002006 57.273,55.806 C57.273,55.5633321 57.3466659,55.4073337 57.494,55.338 C57.6413341,55.2686663 57.8103324,55.2426666 58.001,55.26 C58.209001,55.2773334 58.4083324,55.3293329 58.599,55.416 C58.7896676,55.5026671 58.9023332,55.6413324 58.937,55.832 C59.0063337,56.4733365 59.0929995,57.1449965 59.197,57.847 C59.3010005,58.5490035 59.4049995,59.1513308 59.509,59.654 C59.5783337,59.0646637 59.7689984,58.4926694 60.081,57.938 C60.3930016,57.3833306 60.7786644,56.8806689 61.238,56.43 C61.6973356,55.9793311 62.2173304,55.5980016 62.798,55.286 C63.3786696,54.9739984 63.9723303,54.7660005 64.579,54.662 C64.8390013,54.6273332 65.0556658,54.6273332 65.229,54.662 C65.4023342,54.6966668 65.5236663,54.7573329 65.593,54.844 C65.6623337,54.9306671 65.6753336,55.0693324 65.632,55.26 C65.5886665,55.4506676 65.4543345,55.6239992 65.229,55.78 Z M72.769,55.676 C73.2890026,55.8666676 73.7266649,56.1526648 74.082,56.534 C74.4373351,56.9153352 74.7103324,57.3443309 74.901,57.821 C75.0916676,58.297669 75.1999999,58.7873308 75.226,59.29 C75.2520001,59.7926692 75.1956674,60.2606645 75.057,60.694 C74.8663324,61.1793358 74.6236681,61.6559977 74.329,62.124 C74.0343319,62.5920023 73.6963352,63.0079982 73.315,63.372 C72.9336648,63.7360018 72.5003358,64.0306655 72.015,64.256 C71.5296642,64.4813345 70.9923363,64.594 70.403,64.594 C69.6923298,64.594 69.0943358,64.429335 68.609,64.1 C68.1236642,63.770665 67.7423347,63.3460026 67.465,62.826 C67.1876653,62.3059974 67.0100004,61.71667 66.932,61.058 C66.8539996,60.39933 66.8669995,59.74067 66.971,59.082 C67.0403337,58.5966642 67.1573325,58.1243356 67.322,57.665 C67.4866675,57.2056644 67.6989987,56.7983351 67.959,56.443 C68.2190013,56.0876649 68.5179983,55.7973345 68.856,55.572 C69.1940017,55.3466655 69.5796645,55.234 70.013,55.234 C70.2556679,55.234 70.5589982,55.2816662 70.923,55.377 C71.2870018,55.4723338 71.6249984,55.6066658 71.937,55.78 C72.1623345,55.571999 72.439665,55.5373326 72.769,55.676 Z M71.781,57.574 C71.5903324,57.4526661 71.3693346,57.2923343 71.118,57.093 C70.8666654,56.8936657 70.6456676,56.794 70.455,56.794 C70.246999,56.794 70.0433343,56.8893324 69.844,57.08 C69.6446657,57.2706676 69.4713341,57.4916654 69.324,57.743 C69.1766659,57.9943346 69.0510005,58.2499987 68.947,58.51 C68.8429995,58.7700013 68.7736668,58.9779992 68.739,59.134 C68.6869997,59.3940013 68.6523334,59.7059982 68.635,60.07 C68.6176666,60.4340018 68.6436663,60.7936649 68.713,61.149 C68.7823337,61.5043351 68.9166657,61.8249986 69.116,62.111 C69.3153343,62.3970014 69.6143313,62.6006661 70.013,62.722 C70.2556679,62.7913337 70.541665,62.7870004 70.871,62.709 C71.200335,62.6309996 71.5253317,62.488001 71.846,62.28 C72.1666683,62.071999 72.4699986,61.7946684 72.756,61.448 C73.0420014,61.1013316 73.2629992,60.7026689 73.419,60.252 C73.5923342,59.7493308 73.5966675,59.2250027 73.432,58.679 C73.2673325,58.1329973 72.9336692,57.7386679 72.431,57.496 C72.3096661,57.5826671 72.1883339,57.626 72.067,57.626 C71.9456661,57.626 71.8503337,57.6086668 71.781,57.574 Z M86.549,64.152 C86.4103326,64.3426676 86.2543342,64.468333 86.081,64.529 C85.9076658,64.589667 85.7516674,64.62 85.613,64.62 C85.3703321,64.6026666 85.145001,64.5203341 84.937,64.373 C84.728999,64.2256659 84.5990003,64.0740008 84.547,63.918 C84.4429995,63.6233319 84.3303339,63.2940018 84.209,62.93 C84.0876661,62.5659982 83.9706672,62.1976685 83.858,61.825 C83.7453328,61.4523315 83.6283339,61.0883351 83.507,60.733 C83.3856661,60.3776649 83.2730005,60.0526681 83.169,59.758 C82.8223316,60.3646697 82.4930016,60.9756636 82.181,61.591 C81.8689984,62.2063364 81.5223352,62.84333 81.141,63.502 C80.9676658,63.7620013 80.7683345,63.9396662 80.543,64.035 C80.3176655,64.1303338 80.1270008,64.1693334 79.971,64.152 C79.7456655,64.1346666 79.5420009,64.0480008 79.36,63.892 C79.1779991,63.7359992 79.0350005,63.5886674 78.931,63.45 C78.7403324,63.1379984 78.5496676,62.7350025 78.359,62.241 C78.1683324,61.7469975 77.9906675,61.2270027 77.826,60.681 C77.6613325,60.1349973 77.5096674,59.5890027 77.371,59.043 C77.2323326,58.4969973 77.1196671,58.0073355 77.033,57.574 C76.9809997,57.2793319 76.985333,57.0020013 77.046,56.742 C77.106667,56.4819987 77.2583321,56.3346668 77.501,56.3 C77.7956681,56.2826666 78.0643321,56.3823322 78.307,56.599 C78.5496679,56.8156677 78.6883332,57.027999 78.723,57.236 C78.7923337,57.5826684 78.8746662,57.9596646 78.97,58.367 C79.0653338,58.7743354 79.1693328,59.1859979 79.282,59.602 C79.3946672,60.0180021 79.5073328,60.4253313 79.62,60.824 C79.7326672,61.2226687 79.8496661,61.5779984 79.971,61.89 C80.2310013,61.4739979 80.5213317,60.9930027 80.842,60.447 C81.1626683,59.9009973 81.4703319,59.3723359 81.765,58.861 C82.0596681,58.3496641 82.3283321,57.9033352 82.571,57.522 C82.8136679,57.1406648 83.0043326,56.9066671 83.143,56.82 C83.2470005,56.7506663 83.3943324,56.7549996 83.585,56.833 C83.7756676,56.9110004 83.9143329,57.0193326 84.001,57.158 C84.3823352,57.9206705 84.6986654,58.7569954 84.95,59.667 C85.2013346,60.5770045 85.4483321,61.4219961 85.691,62.202 C85.9336679,61.8899984 86.1936653,61.4783359 86.471,60.967 C86.7483347,60.4556641 87.0169987,59.9140029 87.277,59.342 C87.5370013,58.7699971 87.7796655,58.1980029 88.005,57.626 C88.2303345,57.0539971 88.4123326,56.5426689 88.551,56.092 C88.6896674,55.6239977 88.8803321,55.3986666 89.123,55.416 C89.4350016,55.4506668 89.7036655,55.5546658 89.929,55.728 C90.1543345,55.9013342 90.2410003,56.0833324 90.189,56.274 C89.8076648,57.799341 89.3136697,59.1989936 88.707,60.473 C88.1003303,61.7470064 87.3810042,62.9733274 86.549,64.152 Z M96.429,54.142 C96.3943332,54.3153342 96.273001,54.4106666 96.065,54.428 C95.856999,54.4453334 95.6836674,54.454 95.545,54.454 C95.1116645,54.4713334 94.6653356,54.5146663 94.206,54.584 C93.7466644,54.6533337 93.2656692,54.7573326 92.763,54.896 C92.554999,54.9653337 92.3296679,54.9393339 92.087,54.818 C91.8443321,54.6966661 91.6970003,54.4540018 91.645,54.09 C91.645,53.9513326 91.6969995,53.8386671 91.801,53.752 C91.9050005,53.6653329 92.0263326,53.5873337 92.165,53.518 C92.3903345,53.4139995 92.6589984,53.3230004 92.971,53.245 C93.2830016,53.1669996 93.5993317,53.1106668 93.92,53.076 C94.2406683,53.0413332 94.5483319,53.0283333 94.843,53.037 C95.1376681,53.0456667 95.3803324,53.0759997 95.571,53.128 C95.8483347,53.2146671 96.0693325,53.3446658 96.234,53.518 C96.3986675,53.6913342 96.4636668,53.8993321 96.429,54.142 Z M95.831,62.8 C95.9523339,63.0773347 96.0173333,63.3763317 96.026,63.697 C96.0346667,64.0176683 95.9436676,64.2386661 95.753,64.36 C95.5103321,64.5160008 95.2503347,64.5073342 94.973,64.334 C94.6956653,64.1606658 94.4876674,63.9266681 94.349,63.632 C94.1583324,63.2679982 94.0110005,62.8216693 93.907,62.293 C93.8029995,61.7643307 93.7250003,61.2400026 93.673,60.72 C93.6209997,60.1999974 93.5906667,59.7146689 93.582,59.264 C93.5733333,58.8133311 93.569,58.4753345 93.569,58.25 C93.5863334,58.0073321 93.6556661,57.782001 93.777,57.574 C93.8983339,57.365999 94.0543324,57.2446668 94.245,57.21 C94.5570016,57.2273334 94.8083324,57.370332 94.999,57.639 C95.1896676,57.907668 95.2763334,58.2413313 95.259,58.64 C95.259,58.9520016 95.2676666,59.2986648 95.285,59.68 C95.3023334,60.0613352 95.3369997,60.4426648 95.389,60.824 C95.4410003,61.2053352 95.5016663,61.5736649 95.571,61.929 C95.6403337,62.2843351 95.7269995,62.5746655 95.831,62.8 Z M100.017,56.17 C100.069,56.4300013 100.125333,56.7203317 100.186,57.041 C100.246667,57.3616683 100.311666,57.6909983 100.381,58.029 C100.450334,58.3670017 100.511,58.7093316 100.563,59.056 C100.615,59.4026684 100.658333,59.7319984 100.693,60.044 C100.901001,59.5933311 101.126332,59.1166692 101.369,58.614 C101.611668,58.1113308 101.875999,57.6476688 102.162,57.223 C102.448001,56.7983312 102.751332,56.4473347 103.072,56.17 C103.392668,55.8926653 103.743665,55.754 104.125,55.754 C104.697003,55.754 105.177998,55.9619979 105.568,56.378 C105.958002,56.7940021 106.287332,57.3096636 106.556,57.925 C106.824668,58.5403364 107.036999,59.1859966 107.193,59.862 C107.349001,60.5380034 107.478999,61.1359974 107.583,61.656 C107.687001,62.1240023 107.479003,62.4706655 106.959,62.696 C106.716332,62.8173339 106.534334,62.8346671 106.413,62.748 C106.291666,62.6613329 106.222333,62.5746671 106.205,62.488 C106.118333,62.279999 106.010001,61.9160026 105.88,61.396 C105.749999,60.8759974 105.602667,60.347336 105.438,59.81 C105.273333,59.272664 105.087001,58.8046687 104.879,58.406 C104.670999,58.0073313 104.437001,57.8253332 104.177,57.86 C103.864998,57.8773334 103.587668,58.1113311 103.345,58.562 C103.136999,58.9260018 102.924668,59.3289978 102.708,59.771 C102.491332,60.2130022 102.279001,60.6636644 102.071,61.123 C101.862999,61.5823356 101.659334,62.0416644 101.46,62.501 C101.260666,62.9603356 101.074334,63.3806648 100.901,63.762 C100.779666,63.8833339 100.628001,63.9656665 100.446,64.009 C100.263999,64.0523336 100.077668,64.0393337 99.887,63.97 C99.7136658,63.9179997 99.5750005,63.8313339 99.471,63.71 C99.3669995,63.5886661 99.315,63.4673339 99.315,63.346 C99.1589992,61.9939932 98.9986675,60.7633389 98.834,59.654 C98.6693325,58.5446611 98.4570013,57.4093391 98.197,56.248 C98.0756661,55.8493313 98.0539996,55.5330012 98.132,55.299 C98.2100004,55.0649988 98.4656645,54.9739997 98.899,55.026 C99.5056697,55.1300005 99.8783326,55.51133 100.017,56.17 Z M114.109,57.574 C114.247667,57.7646676 114.381999,58.0029986 114.512,58.289 C114.642001,58.5750014 114.741666,58.8653319 114.811,59.16 C114.915001,59.6280023 115.031999,60.1349973 115.162,60.681 C115.292001,61.2270027 115.421999,61.7946637 115.552,62.384 C115.682001,62.9733363 115.803333,63.5713303 115.916,64.178 C116.028667,64.7846697 116.128333,65.3653306 116.215,65.92 C116.319001,66.6826705 116.262668,67.4149965 116.046,68.117 C115.829332,68.8190035 115.469669,69.4473306 114.967,70.002 C114.464331,70.5566694 113.840337,70.998665 113.095,71.328 C112.349663,71.657335 111.509005,71.8393332 110.573,71.874 C110.364999,71.8566666 110.148334,71.7570009 109.923,71.575 C109.697666,71.3929991 109.585,71.2066676 109.585,71.016 C109.567667,70.8253324 109.658666,70.6736672 109.858,70.561 C110.057334,70.4483328 110.260999,70.3746668 110.469,70.34 C110.833002,70.3053332 111.209998,70.2316672 111.6,70.119 C111.990002,70.0063328 112.358332,69.846001 112.705,69.638 C113.051668,69.429999 113.367999,69.1786681 113.654,68.884 C113.940001,68.5893319 114.160999,68.2426687 114.317,67.844 C114.438334,67.5319984 114.499,67.1463356 114.499,66.687 C114.499,66.2276644 114.468667,65.7726689 114.408,65.322 C114.347333,64.8713311 114.269334,64.4423354 114.174,64.035 C114.078666,63.6276646 113.996334,63.320001 113.927,63.112 C113.805666,63.2333339 113.654001,63.3633326 113.472,63.502 C113.289999,63.6406674 113.086334,63.7706661 112.861,63.892 C112.635666,64.0133339 112.388668,64.1086663 112.12,64.178 C111.851332,64.2473337 111.578335,64.2733334 111.301,64.256 C111.006332,64.2386666 110.733335,64.1346676 110.482,63.944 C110.230665,63.7533324 110.009668,63.5063349 109.819,63.203 C109.628332,62.8996652 109.476667,62.5486687 109.364,62.15 C109.251333,61.7513313 109.195,61.3353355 109.195,60.902 C109.229667,59.8619948 109.493998,58.939004 109.988,58.133 C110.482002,57.326996 111.274995,56.6986689 112.367,56.248 C112.453667,56.2306666 112.570666,56.2133334 112.718,56.196 C112.865334,56.1786666 113.016999,56.1743333 113.173,56.183 C113.329001,56.1916667 113.480666,56.2133332 113.628,56.248 C113.775334,56.2826668 113.900999,56.3346663 114.005,56.404 C114.195668,56.5426674 114.291,56.7419987 114.291,57.002 C114.291,57.2620013 114.230334,57.4526661 114.109,57.574 Z M110.833,61.136 C110.833,61.3266676 110.850333,61.5389988 110.885,61.773 C110.919667,62.0070012 111.032332,62.1759995 111.223,62.28 C111.431001,62.4013339 111.686665,62.4186671 111.99,62.332 C112.293335,62.2453329 112.574999,62.098001 112.835,61.89 C113.077668,61.6993324 113.238,61.4870012 113.316,61.253 C113.394,61.0189988 113.389667,60.7026687 113.303,60.304 C113.216333,59.9053313 113.121001,59.4893355 113.017,59.056 C112.912999,58.6226645 112.843667,58.2326684 112.809,57.886 C112.600999,57.9900005 112.380001,58.1373324 112.146,58.328 C111.911999,58.5186676 111.699668,58.7569986 111.509,59.043 C111.318332,59.3290014 111.158001,59.6453316 111.028,59.992 C110.897999,60.3386684 110.833,60.7199979 110.833,61.136 Z M134.727,64.152 C134.588333,64.3426676 134.432334,64.468333 134.259,64.529 C134.085666,64.589667 133.929667,64.62 133.791,64.62 C133.548332,64.6026666 133.323001,64.5203341 133.115,64.373 C132.906999,64.2256659 132.777,64.0740008 132.725,63.918 C132.620999,63.6233319 132.508334,63.2940018 132.387,62.93 C132.265666,62.5659982 132.148667,62.1976685 132.036,61.825 C131.923333,61.4523315 131.806334,61.0883351 131.685,60.733 C131.563666,60.3776649 131.451001,60.0526681 131.347,59.758 C131.000332,60.3646697 130.671002,60.9756636 130.359,61.591 C130.046998,62.2063364 129.700335,62.84333 129.319,63.502 C129.145666,63.7620013 128.946334,63.9396662 128.721,64.035 C128.495666,64.1303338 128.305001,64.1693334 128.149,64.152 C127.923666,64.1346666 127.720001,64.0480008 127.538,63.892 C127.355999,63.7359992 127.213001,63.5886674 127.109,63.45 C126.918332,63.1379984 126.727668,62.7350025 126.537,62.241 C126.346332,61.7469975 126.168667,61.2270027 126.004,60.681 C125.839333,60.1349973 125.687667,59.5890027 125.549,59.043 C125.410333,58.4969973 125.297667,58.0073355 125.211,57.574 C125.159,57.2793319 125.163333,57.0020013 125.224,56.742 C125.284667,56.4819987 125.436332,56.3346668 125.679,56.3 C125.973668,56.2826666 126.242332,56.3823322 126.485,56.599 C126.727668,56.8156677 126.866333,57.027999 126.901,57.236 C126.970334,57.5826684 127.052666,57.9596646 127.148,58.367 C127.243334,58.7743354 127.347333,59.1859979 127.46,59.602 C127.572667,60.0180021 127.685333,60.4253313 127.798,60.824 C127.910667,61.2226687 128.027666,61.5779984 128.149,61.89 C128.409001,61.4739979 128.699332,60.9930027 129.02,60.447 C129.340668,59.9009973 129.648332,59.3723359 129.943,58.861 C130.237668,58.3496641 130.506332,57.9033352 130.749,57.522 C130.991668,57.1406648 131.182333,56.9066671 131.321,56.82 C131.425001,56.7506663 131.572332,56.7549996 131.763,56.833 C131.953668,56.9110004 132.092333,57.0193326 132.179,57.158 C132.560335,57.9206705 132.876665,58.7569954 133.128,59.667 C133.379335,60.5770045 133.626332,61.4219961 133.869,62.202 C134.111668,61.8899984 134.371665,61.4783359 134.649,60.967 C134.926335,60.4556641 135.194999,59.9140029 135.455,59.342 C135.715001,58.7699971 135.957666,58.1980029 136.183,57.626 C136.408334,57.0539971 136.590333,56.5426689 136.729,56.092 C136.867667,55.6239977 137.058332,55.3986666 137.301,55.416 C137.613002,55.4506668 137.881666,55.5546658 138.107,55.728 C138.332334,55.9013342 138.419,56.0833324 138.367,56.274 C137.985665,57.799341 137.49167,59.1989936 136.885,60.473 C136.27833,61.7470064 135.559004,62.9733274 134.727,64.152 Z M146.531,58.64 C145.854997,59.0386687 145.127004,59.3463323 144.347,59.563 C143.566996,59.7796678 142.726338,59.888 141.825,59.888 C141.859667,60.4946697 142.032998,60.9756649 142.345,61.331 C142.657002,61.6863351 143.046998,61.8986663 143.515,61.968 C143.792335,62.0026668 144.073999,61.9940003 144.36,61.942 C144.646001,61.8899997 144.914665,61.8076672 145.166,61.695 C145.417335,61.5823328 145.646999,61.4566674 145.855,61.318 C146.063001,61.1793326 146.244999,61.0406674 146.401,60.902 C146.557001,60.7633326 146.721666,60.6723335 146.895,60.629 C147.068334,60.5856664 147.198333,60.5813332 147.285,60.616 C147.527668,60.7026671 147.614334,60.9626645 147.545,61.396 C147.267665,61.9506694 146.869003,62.422998 146.349,62.813 C145.828997,63.203002 145.248337,63.4499995 144.607,63.554 C144.052331,63.6580005 143.480336,63.6320008 142.891,63.476 C142.301664,63.3199992 141.773002,63.0166689 141.305,62.566 C140.906331,62.1673313 140.603001,61.699336 140.395,61.162 C140.186999,60.624664 140.057,60.0700029 140.005,59.498 C139.953,58.960664 140.000666,58.4493358 140.148,57.964 C140.295334,57.4786642 140.524998,57.0496685 140.837,56.677 C141.149002,56.3043315 141.538998,55.9966679 142.007,55.754 C142.475002,55.5113321 143.020997,55.3726668 143.645,55.338 C144.390337,55.2859997 145.06633,55.424665 145.673,55.754 C146.27967,56.083335 146.704332,56.5426637 146.947,57.132 C147.085667,57.461335 147.124667,57.7473321 147.064,57.99 C147.003333,58.2326679 146.825668,58.4493324 146.531,58.64 Z M143.541,56.872 C143.367666,56.9066668 143.181334,56.9673329 142.982,57.054 C142.782666,57.1406671 142.600667,57.2489993 142.436,57.379 C142.271333,57.5090006 142.124001,57.6563325 141.994,57.821 C141.863999,57.9856675 141.790333,58.171999 141.773,58.38 C142.067668,58.38 142.392665,58.3540003 142.748,58.302 C143.103335,58.2499997 143.449998,58.1850004 143.788,58.107 C144.126002,58.0289996 144.437999,57.9380005 144.724,57.834 C145.010001,57.7299995 145.248332,57.6173339 145.439,57.496 C145.300333,57.166665 145.044669,56.9630004 144.672,56.885 C144.299331,56.8069996 143.922335,56.8026663 143.541,56.872 Z M155.657,58.64 C154.980997,59.0386687 154.253004,59.3463323 153.473,59.563 C152.692996,59.7796678 151.852338,59.888 150.951,59.888 C150.985667,60.4946697 151.158998,60.9756649 151.471,61.331 C151.783002,61.6863351 152.172998,61.8986663 152.641,61.968 C152.918335,62.0026668 153.199999,61.9940003 153.486,61.942 C153.772001,61.8899997 154.040665,61.8076672 154.292,61.695 C154.543335,61.5823328 154.772999,61.4566674 154.981,61.318 C155.189001,61.1793326 155.370999,61.0406674 155.527,60.902 C155.683001,60.7633326 155.847666,60.6723335 156.021,60.629 C156.194334,60.5856664 156.324333,60.5813332 156.411,60.616 C156.653668,60.7026671 156.740334,60.9626645 156.671,61.396 C156.393665,61.9506694 155.995003,62.422998 155.475,62.813 C154.954997,63.203002 154.374337,63.4499995 153.733,63.554 C153.178331,63.6580005 152.606336,63.6320008 152.017,63.476 C151.427664,63.3199992 150.899002,63.0166689 150.431,62.566 C150.032331,62.1673313 149.729001,61.699336 149.521,61.162 C149.312999,60.624664 149.183,60.0700029 149.131,59.498 C149.079,58.960664 149.126666,58.4493358 149.274,57.964 C149.421334,57.4786642 149.650998,57.0496685 149.963,56.677 C150.275002,56.3043315 150.664998,55.9966679 151.133,55.754 C151.601002,55.5113321 152.146997,55.3726668 152.771,55.338 C153.516337,55.2859997 154.19233,55.424665 154.799,55.754 C155.40567,56.083335 155.830332,56.5426637 156.073,57.132 C156.211667,57.461335 156.250667,57.7473321 156.19,57.99 C156.129333,58.2326679 155.951668,58.4493324 155.657,58.64 Z M152.667,56.872 C152.493666,56.9066668 152.307334,56.9673329 152.108,57.054 C151.908666,57.1406671 151.726667,57.2489993 151.562,57.379 C151.397333,57.5090006 151.250001,57.6563325 151.12,57.821 C150.989999,57.9856675 150.916333,58.171999 150.899,58.38 C151.193668,58.38 151.518665,58.3540003 151.874,58.302 C152.229335,58.2499997 152.575998,58.1850004 152.914,58.107 C153.252002,58.0289996 153.563999,57.9380005 153.85,57.834 C154.136001,57.7299995 154.374332,57.6173339 154.565,57.496 C154.426333,57.166665 154.170669,56.9630004 153.798,56.885 C153.425331,56.8069996 153.048335,56.8026663 152.667,56.872 Z M165.641,56.248 C165.710334,56.2306666 165.814333,56.2176667 165.953,56.209 C166.091667,56.2003333 166.225999,56.2089999 166.356,56.235 C166.486001,56.2610001 166.598666,56.304333 166.694,56.365 C166.789334,56.425667 166.845667,56.4993329 166.863,56.586 C166.897667,56.794001 166.867334,56.9803325 166.772,57.145 C166.676666,57.3096675 166.507668,57.4526661 166.265,57.574 C165.60633,57.8860016 164.92167,58.236998 164.211,58.627 C163.50033,59.017002 162.893669,59.3679984 162.391,59.68 C162.703002,59.888001 163.062665,60.1219987 163.47,60.382 C163.877335,60.6420013 164.297665,60.9149986 164.731,61.201 C165.164335,61.4870014 165.597665,61.7903317 166.031,62.111 C166.464336,62.4316683 166.871665,62.7479984 167.253,63.06 C167.599668,63.3546681 167.660334,63.6233321 167.435,63.866 C167.330999,63.9873339 167.162001,64.0739997 166.928,64.126 C166.693999,64.1780003 166.473001,64.1520005 166.265,64.048 C165.883665,63.8573324 165.467669,63.627668 165.017,63.359 C164.566331,63.090332 164.107002,62.8130014 163.639,62.527 C163.170998,62.2409986 162.716002,61.9550014 162.274,61.669 C161.831998,61.3829986 161.429002,61.1186679 161.065,60.876 C161.134334,61.4826697 161.199333,62.0893303 161.26,62.696 C161.320667,63.3026697 161.377,63.9093303 161.429,64.516 C161.533001,64.845335 161.524334,65.113999 161.403,65.322 C161.281666,65.530001 161.082335,65.6253334 160.805,65.608 C160.510332,65.5559997 160.293667,65.4390009 160.155,65.257 C160.016333,65.0749991 159.912334,64.8366681 159.843,64.542 C159.738999,63.8313298 159.622001,62.9906715 159.492,62.02 C159.361999,61.0493285 159.227667,60.0440052 159.089,59.004 C158.950333,57.9639948 158.816001,56.9500049 158.686,55.962 C158.555999,54.9739951 158.439001,54.0986705 158.335,53.336 C158.300333,53.0933321 158.278667,52.8290014 158.27,52.543 C158.261333,52.2569986 158.352332,52.0706671 158.543,51.984 C158.803001,51.8799995 159.071665,51.9363322 159.349,52.153 C159.626335,52.3696677 159.834333,52.6946645 159.973,53.128 C160.111667,53.9253373 160.250333,54.7919953 160.389,55.728 C160.527667,56.6640047 160.666333,57.6519948 160.805,58.692 C161.151668,58.483999 161.554664,58.2543346 162.014,58.003 C162.473336,57.7516654 162.932664,57.5090012 163.392,57.275 C163.851336,57.0409988 164.280331,56.8286676 164.679,56.638 C165.077669,56.4473324 165.398332,56.3173337 165.641,56.248 Z M171.231,52.582 C171.317667,54.4713428 171.464999,56.4256566 171.673,58.445 C171.881001,60.4643434 172.106332,62.3926575 172.349,64.23 C172.401,64.9926705 172.193002,65.3826666 171.725,65.4 C171.620999,65.4 171.517001,65.3610004 171.413,65.283 C171.308999,65.2049996 171.213667,65.1053339 171.127,64.984 C171.040333,64.8626661 170.958,64.7326674 170.88,64.594 C170.802,64.4553326 170.754333,64.3340005 170.737,64.23 C170.598333,63.3459956 170.468334,62.4100049 170.347,61.422 C170.225666,60.4339951 170.117334,59.4416717 170.022,58.445 C169.926666,57.4483283 169.844334,56.4733381 169.775,55.52 C169.705666,54.5666619 169.662333,53.6913373 169.645,52.894 C169.679667,52.4779979 169.740333,52.1270014 169.827,51.841 C169.913667,51.5549986 170.095665,51.4206666 170.373,51.438 C170.667668,51.4553334 170.879999,51.5723323 171.01,51.789 C171.140001,52.0056678 171.213667,52.2699984 171.231,52.582 Z M182.541,56.56 C182.593,57.4960047 182.649333,58.4406619 182.71,59.394 C182.770667,60.3473381 182.783667,61.287662 182.749,62.215 C182.714333,63.142338 182.623334,64.0479956 182.476,64.932 C182.328666,65.8160044 182.081668,66.660996 181.735,67.467 C181.388332,68.273004 180.92467,69.0226632 180.344,69.716 C179.76333,70.4093368 179.031004,71.0333306 178.147,71.588 C178.008333,71.6746671 177.856667,71.7266666 177.692,71.744 C177.527333,71.7613334 177.367001,71.7570001 177.211,71.731 C177.054999,71.7049999 176.916334,71.661667 176.795,71.601 C176.673666,71.540333 176.595667,71.4580005 176.561,71.354 C176.509,71.1979992 176.534999,71.0246676 176.639,70.834 C176.743001,70.6433324 176.916332,70.444001 177.159,70.236 C177.92167,69.6639971 178.562997,69.0573365 179.083,68.416 C179.603003,67.7746635 180.018998,67.0813371 180.331,66.336 C180.643002,65.5906629 180.846666,64.7803377 180.942,63.905 C181.037334,63.0296623 181.033001,62.0720052 180.929,61.032 C180.720999,61.2920013 180.478335,61.5606653 180.201,61.838 C179.923665,62.1153347 179.629002,62.3623323 179.317,62.579 C179.004998,62.7956677 178.684335,62.9776659 178.355,63.125 C178.025665,63.2723341 177.713668,63.346 177.419,63.346 C177.176332,63.346 176.933668,63.2940005 176.691,63.19 C176.448332,63.0859995 176.205668,62.8866681 175.963,62.592 C175.685665,62.2279982 175.438668,61.8163356 175.222,61.357 C175.005332,60.8976644 174.819001,60.4513355 174.663,60.018 C174.506999,59.5846645 174.381334,59.1946684 174.286,58.848 C174.190666,58.5013316 174.134333,58.2586674 174.117,58.12 C174.082333,57.9466658 174.082333,57.7820008 174.117,57.626 C174.151667,57.4699992 174.264332,57.3746668 174.455,57.34 C174.715001,57.2879997 174.957666,57.3053329 175.183,57.392 C175.408334,57.4786671 175.564333,57.6173324 175.651,57.808 C175.720334,57.9986676 175.815666,58.2933313 175.937,58.692 C176.058334,59.0906687 176.205666,59.4849981 176.379,59.875 C176.552334,60.2650019 176.738666,60.6073319 176.938,60.902 C177.137334,61.1966681 177.349666,61.344 177.575,61.344 C177.835001,61.344 178.142665,61.2140013 178.498,60.954 C178.853335,60.6939987 179.195665,60.3560021 179.525,59.94 C179.854335,59.5239979 180.135999,59.0603359 180.37,58.549 C180.604001,58.0376641 180.721,57.5393358 180.721,57.054 C180.721,56.9499995 180.738333,56.8286674 180.773,56.69 C180.807667,56.5513326 180.859666,56.4170006 180.929,56.287 C180.998334,56.1569993 181.080666,56.0443338 181.176,55.949 C181.271334,55.8536662 181.370999,55.7973334 181.475,55.78 C181.752335,55.7453332 181.999332,55.8189991 182.216,56.001 C182.432668,56.1830009 182.541,56.3693324 182.541,56.56 Z" fill="#25262A" transform="translate(95.628121, 61.066667) rotate(-4.000000) translate(-95.628121, -61.066667) "></path>
                    <g transform="translate(33.000000, 33.000000) scale(-1, 1) rotate(158.000000) translate(-33.000000, -33.000000) translate(8.000000, 8.000000)" stroke-width="2" stroke="#FFD001">
                        <path d="M8.01336374,42.4801605 C8.01336374,42.4801605 2.30501677,17.2665603 42.188264,7.12728418" transform="translate(24.959454, 24.803722) rotate(36.000000) translate(-24.959454, -24.803722) "></path>
                        <path d="M4.01151385,29.4427054 C4.01151385,29.4427054 3.09277051,23.4661741 2.83149133,22.26376 C2.57021214,21.0613459 -0.277231467,14.7351783 -0.277231467,14.7351783 C-0.277231467,14.7351783 4.14745664,15.4522751 8.07793609,15.0544114 C12.0084155,14.6565477 16.7276342,14.8358887 16.7276342,14.8358887" transform="translate(8.225201, 22.088942) rotate(-85.000000) translate(-8.225201, -22.088942) "></path>
                    </g>
                </g>
            </g>
        </g>
    </g>
</svg>