<?xml version="1.0" encoding="UTF-8"?>
<svg width="264px" height="84px" viewBox="0 0 264 84" version="1.1" xmlns="http://www.w3.org/2000/svg" xmlns:xlink="http://www.w3.org/1999/xlink">
    <!-- Generator: Sketch 47.1 (45422) - http://www.bohemiancoding.com/sketch -->
    <title>Artboard 3</title>
    <desc>Created with Sketch.</desc>
    <defs></defs>
    <g stroke="none" stroke-width="1" fill="none" fill-rule="evenodd">
        <g>
            <path d="M4.81880539,40.9992347 C4.84013883,41.0845685 4.85080539,41.2072339 4.85080539,41.3672347 C4.85080539,41.5272355 4.81880571,41.6872339 4.75480539,41.8472347 C4.69080507,42.0072355 4.60013931,42.1459008 4.48280539,42.2632347 C4.36547147,42.3805686 4.20013979,42.4392347 3.98680539,42.4392347 C3.51746971,42.1405665 3.12280699,41.7459038 2.80280539,41.2552347 C2.63213787,40.6152315 2.47747275,39.8792389 2.33880539,39.0472347 C2.20013803,38.2152305 2.08813915,37.3459059 2.00280539,36.4392347 C1.91747163,35.5325635 1.85880555,34.6099061 1.82680539,33.6712347 C1.79480523,32.7325633 1.78947195,31.8259057 1.81080539,30.9512347 C1.81080539,30.8019006 1.82680523,30.6099025 1.85880539,30.3752347 C1.89080555,30.1405669 1.94947163,29.9112358 2.03480539,29.6872347 C2.12013915,29.4632336 2.22680475,29.2712355 2.35480539,29.1112347 C2.48280603,28.9512339 2.66413755,28.8712347 2.89880539,28.8712347 C3.17614011,28.8712347 3.40013787,28.9565672 3.57080539,29.1272347 C3.74147291,29.2979022 3.82680539,29.5752328 3.82680539,29.9592347 C3.80547195,30.8125723 3.81080523,31.7245632 3.84280539,32.6952347 C3.87480555,33.6659062 3.93347163,34.6418965 4.01880539,35.6232347 C4.10413915,36.6045729 4.21613803,37.5592301 4.35480539,38.4872347 C4.49347275,39.4152393 4.64813787,40.2525643 4.81880539,40.9992347 Z M9.77880539,33.3832347 C9.80013883,33.7245697 9.83747179,34.1458989 9.89080539,34.6472347 C9.94413899,35.1485705 10.0028051,35.671232 10.0668054,36.2152347 C10.1308057,36.7592374 10.2001384,37.2978987 10.2748054,37.8312347 C10.3494724,38.3645707 10.4188051,38.8552325 10.4828054,39.3032347 L11.3468054,37.5752347 C11.6881404,36.8925646 12.0454702,36.2365712 12.4188054,35.6072347 C12.7921406,34.9778982 13.1761368,34.4445702 13.5708054,34.0072347 C13.965474,33.5698992 14.3228038,33.3512347 14.6428054,33.3512347 C14.9841404,33.3512347 15.298804,33.5165664 15.5868054,33.8472347 C15.8748068,34.177903 16.125471,34.577899 16.3388054,35.0472347 C16.5521398,35.5165704 16.7388046,36.0178987 16.8988054,36.5512347 C17.0588062,37.0845707 17.1921382,37.5538993 17.2988054,37.9592347 C17.3841392,37.6819 17.496138,37.3672365 17.6348054,37.0152347 C17.7734728,36.6632329 17.9228046,36.3005699 18.0828054,35.9272347 C18.2428062,35.5538995 18.4241377,35.1859032 18.6268054,34.8232347 C18.8294731,34.4605662 19.0481376,34.1405694 19.2828054,33.8632347 C19.5601401,33.5645665 19.8588038,33.3459021 20.1788054,33.2072347 C20.498807,33.0685673 20.7334713,32.9992347 20.8828054,32.9992347 C21.0748064,32.9992347 21.3041374,33.0579008 21.5708054,33.1752347 C21.8374734,33.2925686 22.1094707,33.4472337 22.3868054,33.6392347 C22.6641401,33.8312357 22.9254708,34.0605667 23.1708054,34.3272347 C23.41614,34.5939027 23.6134713,34.8659 23.7628054,35.1432347 C24.0614736,35.7192376 24.3014712,36.3485646 24.4828054,37.0312347 C24.6641396,37.7139048 24.7974716,38.3645649 24.8828054,38.9832347 C24.9681392,39.6019045 25.0268052,40.1512323 25.0588054,40.6312347 C25.0908056,41.1112371 25.117472,41.4472337 25.1388054,41.6392347 C25.1388054,41.9165694 25.1068057,42.1245673 25.0428054,42.2632347 C24.9788051,42.4019021 24.8614729,42.5139009 24.6908054,42.5992347 C24.4561376,42.7059019 24.2534729,42.7432349 24.0828054,42.7112347 C23.9121379,42.6792345 23.7734726,42.6099019 23.6668054,42.5032347 C23.5601382,42.3965675 23.4748057,42.2739021 23.4108054,42.1352347 C23.3468051,41.9965673 23.3041388,41.8739019 23.2828054,41.7672347 C23.2188051,41.2765656 23.1494724,40.7752373 23.0748054,40.2632347 C23.0001384,39.7512321 22.9201392,39.2552371 22.8348054,38.7752347 C22.7494716,38.2952323 22.6481393,37.8472368 22.5308054,37.4312347 C22.4134715,37.0152326 22.290806,36.6472363 22.1628054,36.3272347 C22.1201385,36.2419009 22.0508059,36.1299021 21.9548054,35.9912347 C21.8588049,35.8525673 21.7521393,35.7192353 21.6348054,35.5912347 C21.5174715,35.4632341 21.4054726,35.3565685 21.2988054,35.2712347 C21.1921382,35.1859009 21.1174723,35.1325681 21.0748054,35.1112347 C20.861471,35.1112347 20.6374732,35.3085661 20.4028054,35.7032347 C20.1681376,36.0979033 19.9441398,36.5725653 19.7308054,37.1272347 C19.517471,37.6819041 19.3201396,38.2632317 19.1388054,38.8712347 C18.9574712,39.4792377 18.8241392,39.9965659 18.7388054,40.4232347 C18.7388054,40.9779041 18.6321398,41.3885667 18.4188054,41.6552347 C18.205471,41.9219027 17.9814732,42.0552347 17.7468054,42.0552347 C17.5121376,42.0552347 17.2614734,41.9645689 16.9948054,41.7832347 C16.7281374,41.6019005 16.5521392,41.3939025 16.4668054,41.1592347 C16.3388048,40.8178997 16.2001395,40.4339035 16.0508054,40.0072347 C15.9014713,39.5805659 15.7468062,39.1432369 15.5868054,38.6952347 C15.4268046,38.2472325 15.2668062,37.8099035 15.1068054,37.3832347 C14.9468046,36.9565659 14.7921395,36.5725697 14.6428054,36.2312347 C14.3441372,36.6365701 14.0508068,37.0845656 13.7628054,37.5752347 C13.474804,38.0659038 13.1974734,38.5672321 12.9308054,39.0792347 C12.6641374,39.5912373 12.40814,40.0978989 12.1628054,40.5992347 C11.9174708,41.1005705 11.6881398,41.5432328 11.4748054,41.9272347 C11.3254713,42.1619025 11.1654729,42.3699005 10.9948054,42.5512347 C10.8241379,42.7325689 10.6214732,42.8232347 10.3868054,42.8232347 C10.2161379,42.8232347 10.0348064,42.7432355 9.84280539,42.5832347 C9.65080443,42.4232339 9.46947291,42.2259025 9.29880539,41.9912347 C9.12813787,41.7565669 8.97347275,41.4899029 8.83480539,41.1912347 C8.69613803,40.8925665 8.59480571,40.5939029 8.53080539,40.2952347 C8.36013787,39.3778968 8.21613931,38.3699069 8.09880539,37.2712347 C7.98147147,36.1725625 7.86947259,35.1005733 7.76280539,34.0552347 C7.74147195,33.6925662 7.78947147,33.3565696 7.90680539,33.0472347 C8.02413931,32.7378998 8.25347035,32.5299019 8.59480539,32.4232347 C8.95747387,32.3592344 9.23480443,32.4125672 9.42680539,32.5832347 C9.61880635,32.7539022 9.73613851,33.0205662 9.77880539,33.3832347 Z M33.1068054,30.6632347 C33.0641385,30.8765691 32.9148067,30.9939013 32.6588054,31.0152347 C32.4028041,31.0365681 32.1894729,31.0472347 32.0188054,31.0472347 C31.4854694,31.0685681 30.9361416,31.1219009 30.3708054,31.2072347 C29.8054692,31.2925685 29.2134752,31.4205672 28.5948054,31.5912347 C28.3388041,31.6765685 28.0614736,31.6445688 27.7628054,31.4952347 C27.4641372,31.3459006 27.2828057,31.0472369 27.2188054,30.5992347 C27.2188054,30.4285672 27.2828048,30.2899019 27.4108054,30.1832347 C27.538806,30.0765675 27.6881379,29.9805685 27.8588054,29.8952347 C28.1361401,29.7672341 28.4668035,29.6552352 28.8508054,29.5592347 C29.2348073,29.4632342 29.6241368,29.3939016 30.0188054,29.3512347 C30.413474,29.3085678 30.7921369,29.292568 31.1548054,29.3032347 C31.5174739,29.3139014 31.8161376,29.3512344 32.0508054,29.4152347 C32.3921404,29.5219019 32.6641377,29.6819003 32.8668054,29.8952347 C33.0694731,30.1085691 33.1494723,30.3645665 33.1068054,30.6632347 Z M32.3708054,41.3192347 C32.5201395,41.6605697 32.6001387,42.0285661 32.6108054,42.4232347 C32.6214721,42.8179033 32.5094732,43.0899006 32.2748054,43.2392347 C31.9761372,43.4312357 31.6561404,43.4205691 31.3148054,43.2072347 C30.9734704,42.9939003 30.7174729,42.7059032 30.5468054,42.3432347 C30.3121376,41.8952325 30.130806,41.3459046 30.0028054,40.6952347 C29.8748048,40.0445648 29.7788057,39.3992379 29.7148054,38.7592347 C29.6508051,38.1192315 29.6134721,37.5219041 29.6028054,36.9672347 C29.5921387,36.4125653 29.5868054,35.9965694 29.5868054,35.7192347 C29.6081388,35.4205665 29.6934713,35.143236 29.8428054,34.8872347 C29.9921395,34.6312334 30.1841376,34.4819016 30.4188054,34.4392347 C30.8028073,34.4605681 31.1121376,34.6365664 31.3468054,34.9672347 C31.5814732,35.297903 31.6881388,35.7085656 31.6668054,36.1992347 C31.6668054,36.5832366 31.677472,37.009899 31.6988054,37.4792347 C31.7201388,37.9485704 31.7628051,38.417899 31.8268054,38.8872347 C31.8908057,39.3565704 31.9654716,39.8098992 32.0508054,40.2472347 C32.1361392,40.6845702 32.2428048,41.0419 32.3708054,41.3192347 Z M52.4348054,31.8792347 C52.5201392,32.476571 52.5894718,33.1112313 52.6428054,33.7832347 C52.696139,34.4552381 52.7388052,35.1325646 52.7708054,35.8152347 C52.8028056,36.4979048 52.8188054,37.1592315 52.8188054,37.7992347 C52.8188054,38.4392379 52.8081388,39.0152321 52.7868054,39.5272347 C53.4694755,39.9965704 53.880138,40.4125662 54.0188054,40.7752347 C54.1574728,41.1379032 54.1734726,41.4579 54.0668054,41.7352347 C53.9388048,42.1192366 53.7094737,42.316568 53.3788054,42.3272347 C53.0481371,42.3379014 52.6694742,42.2259025 52.2428054,41.9912347 C51.9441372,42.2045691 51.6028073,42.4339001 51.2188054,42.6792347 C50.8348035,42.9245693 50.4294742,43.1592336 50.0028054,43.3832347 C49.5761366,43.6072358 49.1494742,43.8045672 48.7228054,43.9752347 C48.2961366,44.1459022 47.9014739,44.2632344 47.5388054,44.3272347 C46.8561353,44.4339019 46.2428081,44.3059032 45.6988054,43.9432347 C45.1548027,43.5805662 44.7868064,43.0365717 44.5948054,42.3112347 C44.4668048,41.8205656 44.4348051,41.313904 44.4988054,40.7912347 C44.5628057,40.2685654 44.7228041,39.7672371 44.9788054,39.2872347 C45.2348067,38.8072323 45.5814699,38.3752366 46.0188054,37.9912347 C46.4561409,37.6072328 46.9734691,37.3085691 47.5708054,37.0952347 C47.7201395,37.0312344 47.9281374,36.9779016 48.1948054,36.9352347 C48.4614734,36.8925678 48.738804,36.876568 49.0268054,36.8872347 C49.3148068,36.8979014 49.6081372,36.9565675 49.9068054,37.0632347 C50.2054736,37.1699019 50.4828041,37.3512334 50.7388054,37.6072347 C50.7388054,37.2445662 50.7334721,36.8445702 50.7228054,36.4072347 C50.7121387,35.9698992 50.6961388,35.5272369 50.6748054,35.0792347 C50.653472,34.6312325 50.6268056,34.2099033 50.5948054,33.8152347 C50.5628052,33.4205661 50.5254723,33.0845694 50.4828054,32.8072347 C50.4401385,32.4872331 50.3174731,32.2899017 50.1148054,32.2152347 C49.9121377,32.1405677 49.6614736,32.1565675 49.3628054,32.2632347 C48.8508028,32.4339022 48.2534755,32.7645656 47.5708054,33.2552347 C46.8881353,33.7459038 46.2374752,34.2685653 45.6188054,34.8232347 C45.4268044,35.0152357 45.20814,35.1005681 44.9628054,35.0792347 C44.7174708,35.0579013 44.5094729,34.9619022 44.3388054,34.7912347 C44.1681379,34.6205672 44.0721388,34.4232358 44.0508054,34.1992347 C44.029472,33.9752336 44.1148044,33.735236 44.3068054,33.4792347 C44.6694739,33.0952328 45.0748032,32.7005701 45.5228054,32.2952347 C45.9708076,31.8898993 46.4401363,31.521903 46.9308054,31.1912347 C47.4214745,30.8605664 47.9228028,30.5885691 48.4348054,30.3752347 C48.946808,30.1619003 49.4588028,30.0445681 49.9708054,30.0232347 C50.7174758,30.0019013 51.29347,30.1672329 51.6988054,30.5192347 C52.1041408,30.8712365 52.3494716,31.3245653 52.4348054,31.8792347 Z M48.7228054,38.7592347 C48.4454707,38.823235 48.1521403,38.956567 47.8428054,39.1592347 C47.5334705,39.3619024 47.25614,39.6072333 47.0108054,39.8952347 C46.7654708,40.1832361 46.5841393,40.5032329 46.4668054,40.8552347 C46.3494715,41.2072365 46.3441382,41.5538997 46.4508054,41.8952347 C46.4934723,42.0232353 46.584138,42.1192344 46.7228054,42.1832347 C46.8614728,42.247235 47.0161379,42.2579016 47.1868054,42.2152347 C47.698808,42.1085675 48.2801355,41.9005696 48.9308054,41.5912347 C49.5814753,41.2818998 50.0988035,40.9459032 50.4828054,40.5832347 C50.4828054,40.4552341 50.418806,40.2899024 50.2908054,40.0872347 C50.1628048,39.884567 50.0134729,39.6819024 49.8428054,39.4792347 C49.6721379,39.276567 49.4854731,39.1005688 49.2828054,38.9512347 C49.0801377,38.8019006 48.8934729,38.7379013 48.7228054,38.7592347 Z M57.9708054,33.1592347 C58.0348057,33.4792363 58.1041384,33.8365661 58.1788054,34.2312347 C58.2534724,34.6259033 58.3334716,35.0312326 58.4188054,35.4472347 C58.5041392,35.8632368 58.5788051,36.2845659 58.6428054,36.7112347 C58.7068057,37.1379035 58.7601385,37.5432328 58.8028054,37.9272347 C59.0588067,37.3725653 59.3361372,36.7859045 59.6348054,36.1672347 C59.9334736,35.5485649 60.2588036,34.977904 60.6108054,34.4552347 C60.9628072,33.9325654 61.3361368,33.5005697 61.7308054,33.1592347 C62.125474,32.8178997 62.5574697,32.6472347 63.0268054,32.6472347 C63.7308089,32.6472347 64.322803,32.9032321 64.8028054,33.4152347 C65.2828078,33.9272373 65.6881371,34.5618976 66.0188054,35.3192347 C66.3494737,36.0765718 66.6108044,36.8712305 66.8028054,37.7032347 C66.9948064,38.5352389 67.1548048,39.2712315 67.2828054,39.9112347 C67.410806,40.4872376 67.1548086,40.9139 66.5148054,41.1912347 C66.2161372,41.3405688 65.9921395,41.3619019 65.8428054,41.2552347 C65.6934713,41.1485675 65.6081388,41.0419019 65.5868054,40.9352347 C65.4801382,40.6792334 65.3468062,40.2312379 65.1868054,39.5912347 C65.0268046,38.9512315 64.8454731,38.3005713 64.6428054,37.6392347 C64.4401377,36.9778981 64.2108067,36.4019038 63.9548054,35.9112347 C63.6988041,35.4205656 63.410807,35.1965678 63.0908054,35.2392347 C62.7068035,35.2605681 62.3654736,35.5485653 62.0668054,36.1032347 C61.8108041,36.5512369 61.5494734,37.047232 61.2828054,37.5912347 C61.0161374,38.1352374 60.7548067,38.6898985 60.4988054,39.2552347 C60.2428041,39.8205709 59.99214,40.3858985 59.7468054,40.9512347 C59.5014708,41.5165709 59.2721398,42.033899 59.0588054,42.5032347 C58.9094713,42.6525688 58.7228065,42.7539011 58.4988054,42.8072347 C58.2748043,42.8605683 58.0454732,42.8445685 57.8108054,42.7592347 C57.597471,42.6952344 57.426806,42.5885688 57.2988054,42.4392347 C57.1708048,42.2899006 57.1068054,42.1405688 57.1068054,41.9912347 C56.9148044,40.3272264 56.7174731,38.8125749 56.5148054,37.4472347 C56.3121377,36.0818945 56.050807,34.6845752 55.7308054,33.2552347 C55.5814713,32.7645656 55.5548049,32.3752361 55.6508054,32.0872347 C55.7468059,31.7992333 56.0614694,31.6872344 56.5948054,31.7512347 C57.3414758,31.8792353 57.8001379,32.348564 57.9708054,33.1592347 Z M74.8988054,27.4952347 C74.8348051,27.1112328 74.8614715,26.7592363 74.9788054,26.4392347 C75.0961393,26.1192331 75.3361369,25.9379016 75.6988054,25.8952347 C76.018807,25.8525678 76.3014708,25.9379003 76.5468054,26.1512347 C76.79214,26.3645691 76.9468051,26.6418997 77.0108054,26.9832347 C77.4374742,29.4365803 77.8374702,31.8738893 78.2108054,34.2952347 C78.5841406,36.7165801 78.9201372,39.0898897 79.2188054,41.4152347 C79.3041392,42.0339045 79.2614729,42.4552336 79.0908054,42.6792347 C78.9201379,42.9032358 78.7174732,43.0685675 78.4828054,43.1752347 C78.2268041,43.2819019 77.9868065,43.2819019 77.7628054,43.1752347 C77.5388043,43.0685675 77.3948057,42.8765694 77.3308054,42.5992347 L77.2988054,42.4072347 L77.1708054,42.4392347 C76.4668019,42.695236 75.7308092,42.8392345 74.9628054,42.8712347 C74.1948016,42.9032349 73.4588089,42.8125691 72.7548054,42.5992347 C72.0508019,42.3859003 71.4268081,42.0392371 70.8828054,41.5592347 C70.3388027,41.0792323 69.9494732,40.4659051 69.7148054,39.7192347 C69.2028028,38.0765598 69.5227996,36.5832414 70.6748054,35.2392347 C71.1654745,34.6845653 71.7734684,34.1832369 72.4988054,33.7352347 C73.2241424,33.2872325 74.0988003,32.935236 75.1228054,32.6792347 L75.6988054,32.5512347 L74.8988054,27.4952347 Z M71.6668054,38.9192347 C71.794806,39.4312373 72.0294704,39.8259 72.3708054,40.1032347 C72.7121404,40.3805694 73.1174697,40.5672342 73.5868054,40.6632347 C74.0561411,40.7592352 74.5574694,40.775235 75.0908054,40.7112347 C75.6241414,40.6472344 76.1468028,40.5299022 76.6588054,40.3592347 L76.9468054,40.2632347 L76.0508054,34.6312347 L75.4108054,34.7912347 C74.9628032,34.9192353 74.4881412,35.1165667 73.9868054,35.3832347 C73.4854696,35.6499027 73.0428073,35.9645662 72.6588054,36.3272347 C72.2748035,36.6899032 71.9814731,37.0952325 71.7788054,37.5432347 C71.5761377,37.9912369 71.5388048,38.449899 71.6668054,38.9192347 Z M93.5548054,40.9992347 C93.5761388,41.0845685 93.5868054,41.2072339 93.5868054,41.3672347 C93.5868054,41.5272355 93.5548057,41.6872339 93.4908054,41.8472347 C93.4268051,42.0072355 93.3361393,42.1459008 93.2188054,42.2632347 C93.1014715,42.3805686 92.9361398,42.4392347 92.7228054,42.4392347 C92.2534697,42.1405665 91.858807,41.7459038 91.5388054,41.2552347 C91.3681379,40.6152315 91.2134728,39.8792389 91.0748054,39.0472347 C90.936138,38.2152305 90.8241392,37.3459059 90.7388054,36.4392347 C90.6534716,35.5325635 90.5948056,34.6099061 90.5628054,33.6712347 C90.5308052,32.7325633 90.525472,31.8259057 90.5468054,30.9512347 C90.5468054,30.8019006 90.5628052,30.6099025 90.5948054,30.3752347 C90.6268056,30.1405669 90.6854716,29.9112358 90.7708054,29.6872347 C90.8561392,29.4632336 90.9628048,29.2712355 91.0908054,29.1112347 C91.218806,28.9512339 91.4001376,28.8712347 91.6348054,28.8712347 C91.9121401,28.8712347 92.1361379,28.9565672 92.3068054,29.1272347 C92.4774729,29.2979022 92.5628054,29.5752328 92.5628054,29.9592347 C92.541472,30.8125723 92.5468052,31.7245632 92.5788054,32.6952347 C92.6108056,33.6659062 92.6694716,34.6418965 92.7548054,35.6232347 C92.8401392,36.6045729 92.952138,37.5592301 93.0908054,38.4872347 C93.2294728,39.4152393 93.3841379,40.2525643 93.5548054,40.9992347 Z M107.474805,27.4632347 C107.496139,27.8045697 107.512139,28.2205656 107.522805,28.7112347 C107.533472,29.2019038 107.549472,29.7352318 107.570805,30.3112347 C107.592139,30.8872376 107.624139,31.4685651 107.666805,32.0552347 C107.709472,32.6419043 107.773472,33.2018987 107.858805,33.7352347 C108.178807,33.2018987 108.546803,32.7965694 108.962805,32.5192347 C109.378807,32.2419 109.800137,32.071235 110.226805,32.0072347 C110.888142,31.9219009 111.464136,31.9965669 111.954805,32.2312347 C112.445475,32.4659025 112.850804,32.7912326 113.170805,33.2072347 C113.490807,33.6232368 113.725471,34.0818989 113.874805,34.5832347 C114.024139,35.0845705 114.098805,35.569899 114.098805,36.0392347 C114.098805,37.0419064 113.837475,37.9698971 113.314805,38.8232347 C112.792136,39.6765723 112.184142,40.4338981 111.490805,41.0952347 C110.797469,41.7565713 110.114809,42.3112325 109.442805,42.7592347 C108.770802,43.2072369 108.285474,43.5272337 107.986805,43.7192347 C107.560137,43.8899022 107.144141,43.9325685 106.738805,43.8472347 C106.33347,43.7619009 106.066806,43.6339022 105.938805,43.4632347 C105.832138,43.2072334 105.800139,42.9885689 105.842805,42.8072347 C105.885472,42.6259005 105.970805,42.4605688 106.098805,42.3112347 C106.226806,42.1619006 106.381471,42.0285686 106.562805,41.9112347 C106.74414,41.7939008 106.898805,41.6819019 107.026805,41.5752347 C106.514803,39.2285563 106.12014,36.8552467 105.842805,34.4552347 C105.565471,32.0552227 105.448139,29.6179137 105.490805,27.1432347 C105.490805,26.7165659 105.581471,26.471235 105.762805,26.4072347 C105.94414,26.3432344 106.098805,26.3112347 106.226805,26.3112347 C106.525474,26.3539016 106.792138,26.4712337 107.026805,26.6632347 C107.261473,26.8552357 107.410805,27.1218997 107.474805,27.4632347 Z M112.146805,35.9432347 C112.146805,35.2178977 111.965474,34.7112361 111.602805,34.4232347 C111.240137,34.1352333 110.866807,34.0125678 110.482805,34.0552347 C110.162804,34.0979016 109.874807,34.2152337 109.618805,34.4072347 C109.362804,34.5992357 109.138806,34.8339 108.946805,35.1112347 C108.754804,35.3885694 108.610806,35.6978997 108.514805,36.0392347 C108.418805,36.3805697 108.381472,36.7112331 108.402805,37.0312347 C108.445472,37.5645707 108.504138,38.1405649 108.578805,38.7592347 C108.653472,39.3779045 108.744138,39.9325656 108.850805,40.4232347 C109.19214,40.1885669 109.554803,39.9165696 109.938805,39.6072347 C110.322807,39.2978998 110.680137,38.9512366 111.010805,38.5672347 C111.341474,38.1832328 111.613471,37.7725702 111.826805,37.3352347 C112.04014,36.8978992 112.146805,36.4339038 112.146805,35.9432347 Z M124.338805,31.8792347 C124.424139,32.476571 124.493472,33.1112313 124.546805,33.7832347 C124.600139,34.4552381 124.642805,35.1325646 124.674805,35.8152347 C124.706806,36.4979048 124.722805,37.1592315 124.722805,37.7992347 C124.722805,38.4392379 124.712139,39.0152321 124.690805,39.5272347 C125.373475,39.9965704 125.784138,40.4125662 125.922805,40.7752347 C126.061473,41.1379032 126.077473,41.4579 125.970805,41.7352347 C125.842805,42.1192366 125.613474,42.316568 125.282805,42.3272347 C124.952137,42.3379014 124.573474,42.2259025 124.146805,41.9912347 C123.848137,42.2045691 123.506807,42.4339001 123.122805,42.6792347 C122.738803,42.9245693 122.333474,43.1592336 121.906805,43.3832347 C121.480137,43.6072358 121.053474,43.8045672 120.626805,43.9752347 C120.200137,44.1459022 119.805474,44.2632344 119.442805,44.3272347 C118.760135,44.4339019 118.146808,44.3059032 117.602805,43.9432347 C117.058803,43.5805662 116.690806,43.0365717 116.498805,42.3112347 C116.370805,41.8205656 116.338805,41.313904 116.402805,40.7912347 C116.466806,40.2685654 116.626804,39.7672371 116.882805,39.2872347 C117.138807,38.8072323 117.48547,38.3752366 117.922805,37.9912347 C118.360141,37.6072328 118.877469,37.3085691 119.474805,37.0952347 C119.624139,37.0312344 119.832137,36.9779016 120.098805,36.9352347 C120.365473,36.8925678 120.642804,36.876568 120.930805,36.8872347 C121.218807,36.8979014 121.512137,36.9565675 121.810805,37.0632347 C122.109474,37.1699019 122.386804,37.3512334 122.642805,37.6072347 C122.642805,37.2445662 122.637472,36.8445702 122.626805,36.4072347 C122.616139,35.9698992 122.600139,35.5272369 122.578805,35.0792347 C122.557472,34.6312325 122.530806,34.2099033 122.498805,33.8152347 C122.466805,33.4205661 122.429472,33.0845694 122.386805,32.8072347 C122.344139,32.4872331 122.221473,32.2899017 122.018805,32.2152347 C121.816138,32.1405677 121.565474,32.1565675 121.266805,32.2632347 C120.754803,32.4339022 120.157475,32.7645656 119.474805,33.2552347 C118.792135,33.7459038 118.141475,34.2685653 117.522805,34.8232347 C117.330804,35.0152357 117.11214,35.1005681 116.866805,35.0792347 C116.621471,35.0579013 116.413473,34.9619022 116.242805,34.7912347 C116.072138,34.6205672 115.976139,34.4232358 115.954805,34.1992347 C115.933472,33.9752336 116.018804,33.735236 116.210805,33.4792347 C116.573474,33.0952328 116.978803,32.7005701 117.426805,32.2952347 C117.874808,31.8898993 118.344136,31.521903 118.834805,31.1912347 C119.325475,30.8605664 119.826803,30.5885691 120.338805,30.3752347 C120.850808,30.1619003 121.362803,30.0445681 121.874805,30.0232347 C122.621476,30.0019013 123.19747,30.1672329 123.602805,30.5192347 C124.008141,30.8712365 124.253472,31.3245653 124.338805,31.8792347 Z M120.626805,38.7592347 C120.349471,38.823235 120.05614,38.956567 119.746805,39.1592347 C119.437471,39.3619024 119.16014,39.6072333 118.914805,39.8952347 C118.669471,40.1832361 118.488139,40.5032329 118.370805,40.8552347 C118.253471,41.2072365 118.248138,41.5538997 118.354805,41.8952347 C118.397472,42.0232353 118.488138,42.1192344 118.626805,42.1832347 C118.765473,42.247235 118.920138,42.2579016 119.090805,42.2152347 C119.602808,42.1085675 120.184135,41.9005696 120.834805,41.5912347 C121.485475,41.2818998 122.002803,40.9459032 122.386805,40.5832347 C122.386805,40.4552341 122.322806,40.2899024 122.194805,40.0872347 C122.066805,39.884567 121.917473,39.6819024 121.746805,39.4792347 C121.576138,39.276567 121.389473,39.1005688 121.186805,38.9512347 C120.984138,38.8019006 120.797473,38.7379013 120.626805,38.7592347 Z M135.186805,35.4952347 C135.037471,35.5805685 134.85614,35.6072349 134.642805,35.5752347 C134.429471,35.5432345 134.248139,35.4099025 134.098805,35.1752347 C133.75747,34.7272325 133.341475,34.5032347 132.850805,34.5032347 C132.402803,34.5032347 132.002807,34.604567 131.650805,34.8072347 C131.298804,35.0099024 130.989473,35.2765664 130.722805,35.6072347 C130.456137,35.937903 130.237473,36.3058993 130.066805,36.7112347 C129.896138,37.1165701 129.778806,37.5218993 129.714805,37.9272347 C129.608138,38.6739051 129.736137,39.3032321 130.098805,39.8152347 C130.461474,40.3272373 131.026802,40.5832347 131.794805,40.5832347 C132.413475,40.6045681 133.112135,40.4819027 133.890805,40.2152347 C134.669476,39.9485667 135.400135,39.6019035 136.082805,39.1752347 C136.381474,39.0472341 136.658804,38.9725681 136.914805,38.9512347 C137.170807,38.9299013 137.384138,39.0579 137.554805,39.3352347 C137.76814,39.6765697 137.714807,40.0232329 137.394805,40.3752347 C137.074804,40.7272365 136.648141,41.0419 136.114805,41.3192347 C135.581469,41.6179029 135.021475,41.8792336 134.434805,42.1032347 C133.848136,42.3272358 133.256142,42.4872342 132.658805,42.5832347 C132.061469,42.6792352 131.469475,42.6845685 130.882805,42.5992347 C130.296136,42.5139009 129.746808,42.3112363 129.234805,41.9912347 C128.424135,41.4365653 127.933473,40.6472398 127.762805,39.6232347 C127.592138,38.5992296 127.666804,37.5432401 127.986805,36.4552347 C128.114806,36.0498993 128.296138,35.6392368 128.530805,35.2232347 C128.765473,34.8072326 129.048137,34.4285697 129.378805,34.0872347 C129.709474,33.7458997 130.07747,33.4525693 130.482805,33.2072347 C130.888141,32.9619001 131.336136,32.7965685 131.826805,32.7112347 C132.616143,32.5832341 133.373468,32.6632333 134.098805,32.9512347 C134.824142,33.2392361 135.304138,33.7672309 135.538805,34.5352347 C135.581472,34.7059022 135.581472,34.8819005 135.538805,35.0632347 C135.496139,35.2445689 135.378806,35.3885675 135.186805,35.4952347 Z M148.210805,33.2552347 C148.296139,33.2339013 148.424138,33.2179014 148.594805,33.2072347 C148.765473,33.196568 148.930805,33.2072345 149.090805,33.2392347 C149.250806,33.2712349 149.389471,33.3245677 149.506805,33.3992347 C149.624139,33.4739017 149.693472,33.5645675 149.714805,33.6712347 C149.757472,33.927236 149.720139,34.156567 149.602805,34.3592347 C149.485471,34.5619024 149.277474,34.7379006 148.978805,34.8872347 C148.168135,35.2712366 147.325476,35.7032323 146.450805,36.1832347 C145.576134,36.6632371 144.829475,37.0952328 144.210805,37.4792347 C144.594807,37.735236 145.03747,38.0232331 145.538805,38.3432347 C146.040141,38.6632363 146.557469,38.9992329 147.090805,39.3512347 C147.624141,39.7032365 148.157469,40.0765661 148.690805,40.4712347 C149.224141,40.8659033 149.72547,41.2552328 150.194805,41.6392347 C150.621474,42.0019032 150.69614,42.3325665 150.418805,42.6312347 C150.290805,42.7805688 150.082807,42.8872344 149.794805,42.9512347 C149.506804,43.015235 149.234807,42.9832353 148.978805,42.8552347 C148.50947,42.6205669 147.997475,42.337903 147.442805,42.0072347 C146.888136,41.6765664 146.322808,41.3352365 145.746805,40.9832347 C145.170803,40.6312329 144.610808,40.2792365 144.066805,39.9272347 C143.522803,39.5752329 143.026808,39.2499029 142.578805,38.9512347 C142.664139,39.6979051 142.744138,40.4445643 142.818805,41.1912347 C142.893472,41.9379051 142.962805,42.6845643 143.026805,43.4312347 C143.154806,43.8365701 143.144139,44.1672334 142.994805,44.4232347 C142.845471,44.679236 142.60014,44.7965681 142.258805,44.7752347 C141.896137,44.7112344 141.629473,44.5672358 141.458805,44.3432347 C141.288138,44.1192336 141.160139,43.8259032 141.074805,43.4632347 C140.946805,42.5885637 140.802806,41.5539073 140.642805,40.3592347 C140.482805,39.1645621 140.317473,37.9272411 140.146805,36.6472347 C139.976138,35.3672283 139.810806,34.1192408 139.650805,32.9032347 C139.490805,31.6872286 139.346806,30.6099061 139.218805,29.6712347 C139.176139,29.3725665 139.149472,29.0472365 139.138805,28.6952347 C139.128139,28.3432329 139.240138,28.1139019 139.474805,28.0072347 C139.794807,27.8792341 140.12547,27.9485667 140.466805,28.2152347 C140.80814,28.4819027 141.064138,28.8818987 141.234805,29.4152347 C141.405473,30.3965729 141.576138,31.4632289 141.746805,32.6152347 C141.917473,33.7672405 142.088138,34.9832283 142.258805,36.2632347 C142.685474,36.0072334 143.181469,35.7245696 143.746805,35.4152347 C144.312142,35.1058998 144.877469,34.8072361 145.442805,34.5192347 C146.008142,34.2312333 146.536136,33.9699025 147.026805,33.7352347 C147.517475,33.5005669 147.912137,33.3405685 148.210805,33.2552347 Z M172.754805,42.9832347 C172.584138,43.2179025 172.39214,43.3725677 172.178805,43.4472347 C171.965471,43.5219017 171.773473,43.5592347 171.602805,43.5592347 C171.304137,43.5379013 171.026807,43.4365689 170.770805,43.2552347 C170.514804,43.0739005 170.354806,42.8872357 170.290805,42.6952347 C170.162805,42.3325662 170.024139,41.9272369 169.874805,41.4792347 C169.725471,41.0312325 169.581473,40.5779037 169.442805,40.1192347 C169.304138,39.6605657 169.160139,39.2125702 169.010805,38.7752347 C168.861471,38.3378992 168.722806,37.9379032 168.594805,37.5752347 C168.168137,38.3219051 167.762807,39.0738976 167.378805,39.8312347 C166.994803,40.5885718 166.568141,41.372564 166.098805,42.1832347 C165.885471,42.5032363 165.64014,42.7219008 165.362805,42.8392347 C165.085471,42.9565686 164.850806,43.0045681 164.658805,42.9832347 C164.381471,42.9619013 164.130807,42.8552357 163.906805,42.6632347 C163.682804,42.4712337 163.506806,42.2899022 163.378805,42.1192347 C163.144138,41.7352328 162.909473,41.2392377 162.674805,40.6312347 C162.440138,40.0232317 162.221473,39.3832381 162.018805,38.7112347 C161.816138,38.0392313 161.629473,37.3672381 161.458805,36.6952347 C161.288138,36.0232313 161.149473,35.4205707 161.042805,34.8872347 C160.978805,34.5245662 160.984138,34.1832363 161.058805,33.8632347 C161.133472,33.5432331 161.320137,33.3619016 161.618805,33.3192347 C161.981474,33.2979013 162.312137,33.4205667 162.610805,33.6872347 C162.909474,33.9539027 163.080139,34.2152334 163.122805,34.4712347 C163.208139,34.8979035 163.309471,35.3618989 163.426805,35.8632347 C163.544139,36.3645705 163.672138,36.8712321 163.810805,37.3832347 C163.949473,37.8952373 164.088138,38.3965656 164.226805,38.8872347 C164.365473,39.3779038 164.509471,39.8152328 164.658805,40.1992347 C164.978807,39.6872321 165.336137,39.0952381 165.730805,38.4232347 C166.125474,37.7512313 166.504137,37.1005712 166.866805,36.4712347 C167.229474,35.8418982 167.560137,35.2925704 167.858805,34.8232347 C168.157474,34.353899 168.392138,34.0659019 168.562805,33.9592347 C168.690806,33.8739009 168.872138,33.8792342 169.106805,33.9752347 C169.341473,34.0712352 169.512138,34.2045672 169.618805,34.3752347 C170.088141,35.3139061 170.477471,36.3432291 170.786805,37.4632347 C171.09614,38.5832403 171.400137,39.6232299 171.698805,40.5832347 C171.997474,40.1992328 172.31747,39.6925712 172.658805,39.0632347 C173.00014,38.4338982 173.330804,37.7672382 173.650805,37.0632347 C173.970807,36.3592312 174.269471,35.6552382 174.546805,34.9512347 C174.82414,34.2472312 175.048138,33.6179041 175.218805,33.0632347 C175.389473,32.4872318 175.624137,32.2099013 175.922805,32.2312347 C176.306807,32.2739016 176.637471,32.4019003 176.914805,32.6152347 C177.19214,32.8285691 177.298806,33.0525669 177.234805,33.2872347 C176.76547,35.1645774 176.157476,36.8872269 175.410805,38.4552347 C174.664135,40.0232425 173.778811,41.5325608 172.754805,42.9832347 Z M181.778805,29.5432347 C181.778805,30.0552373 181.773472,30.6312315 181.762805,31.2712347 C181.752139,31.9112379 181.752139,32.5725646 181.762805,33.2552347 C181.773472,33.9379048 181.784139,34.6418977 181.794805,35.3672347 C181.805472,36.0925717 181.821472,36.7858981 181.842805,37.4472347 C182.05614,37.0205659 182.312137,36.5992368 182.610805,36.1832347 C182.909474,35.7672326 183.24547,35.3992363 183.618805,35.0792347 C183.992141,34.7592331 184.386803,34.5032357 184.802805,34.3112347 C185.218807,34.1192337 185.672136,34.0232347 186.162805,34.0232347 C186.696141,34.0232347 187.170803,34.1938997 187.586805,34.5352347 C188.002807,34.8765697 188.365471,35.3298985 188.674805,35.8952347 C188.98414,36.4605709 189.245471,37.0898979 189.458805,37.7832347 C189.67214,38.4765715 189.848138,39.1805645 189.986805,39.8952347 C190.125473,40.6099049 190.226805,41.2925648 190.290805,41.9432347 C190.354806,42.5939046 190.408139,43.153899 190.450805,43.6232347 C190.450805,43.9645697 190.365473,44.2419003 190.194805,44.4552347 C190.024138,44.6685691 189.821473,44.7752347 189.586805,44.7752347 C189.416138,44.7752347 189.20814,44.6632358 188.962805,44.4392347 C188.717471,44.2152336 188.541473,43.9432363 188.434805,43.6232347 C188.370805,43.3672334 188.306806,42.9939038 188.242805,42.5032347 C188.178805,42.0125656 188.104139,41.4845709 188.018805,40.9192347 C187.933472,40.3538985 187.826806,39.7832376 187.698805,39.2072347 C187.570805,38.6312318 187.41614,38.1139037 187.234805,37.6552347 C187.053471,37.1965657 186.834807,36.839236 186.578805,36.5832347 C186.322804,36.3272334 186.02414,36.2312344 185.682805,36.2952347 C185.149469,36.4019019 184.685474,36.7752315 184.290805,37.4152347 C183.896137,38.0552379 183.554807,38.780564 183.266805,39.5912347 C182.978804,40.4019054 182.74414,41.2232305 182.562805,42.0552347 C182.381471,42.8872389 182.248139,43.5592321 182.162805,44.0712347 C182.077472,44.4552366 181.965473,44.7165673 181.826805,44.8552347 C181.688138,44.9939021 181.533473,45.0632347 181.362805,45.0632347 C181.192138,45.0632347 181.037473,44.9779022 180.898805,44.8072347 C180.760138,44.6365672 180.632139,44.4285693 180.514805,44.1832347 C180.397471,43.9379001 180.296139,43.6819027 180.210805,43.4152347 C180.125472,43.1485667 180.072139,42.9192357 180.050805,42.7272347 C179.944138,41.5752289 179.858806,40.47124 179.794805,39.4152347 C179.730805,38.3592294 179.682806,37.2979067 179.650805,36.2312347 C179.618805,35.1645627 179.602805,34.0712403 179.602805,32.9512347 C179.602805,31.8312291 179.624139,30.6312411 179.666805,29.3512347 C179.666805,28.2845627 180.050802,27.8045675 180.818805,27.9112347 C181.074807,27.9539016 181.298804,28.1405664 181.490805,28.4712347 C181.682806,28.801903 181.778805,29.1592328 181.778805,29.5432347 Z M200.498805,36.1992347 C199.666801,36.6899038 198.77081,37.0685667 197.810805,37.3352347 C196.850801,37.6019027 195.816144,37.7352347 194.706805,37.7352347 C194.749472,38.4819051 194.962803,39.0738992 195.346805,39.5112347 C195.730807,39.9485702 196.210803,40.2099009 196.786805,40.2952347 C197.12814,40.3379016 197.474804,40.327235 197.826805,40.2632347 C198.178807,40.1992344 198.509471,40.0979021 198.818805,39.9592347 C199.12814,39.8205673 199.410804,39.6659022 199.666805,39.4952347 C199.922807,39.3245672 200.146804,39.1539022 200.338805,38.9832347 C200.530806,38.8125672 200.733471,38.7005683 200.946805,38.6472347 C201.16014,38.5939011 201.320138,38.5885678 201.426805,38.6312347 C201.725474,38.7379019 201.832139,39.0578987 201.746805,39.5912347 C201.40547,40.2739048 200.914809,40.8552323 200.274805,41.3352347 C199.634802,41.8152371 198.920143,42.1192341 198.130805,42.2472347 C197.448135,42.3752353 196.744142,42.3432357 196.018805,42.1512347 C195.293468,41.9592337 194.642808,41.5859041 194.066805,41.0312347 C193.576136,40.5405656 193.202807,39.9645713 192.946805,39.3032347 C192.690804,38.6418981 192.530806,37.9592382 192.466805,37.2552347 C192.402805,36.5938981 192.461471,35.964571 192.642805,35.3672347 C192.82414,34.7698984 193.106803,34.2419037 193.490805,33.7832347 C193.874807,33.3245657 194.354803,32.9459029 194.930805,32.6472347 C195.506808,32.3485665 196.178802,32.1779016 196.946805,32.1352347 C197.864143,32.0712344 198.696135,32.2418993 199.442805,32.6472347 C200.189476,33.0525701 200.712137,33.6178977 201.010805,34.3432347 C201.181473,34.7485701 201.229472,35.1005665 201.154805,35.3992347 C201.080138,35.6979029 200.861474,35.9645669 200.498805,36.1992347 Z M196.818805,34.0232347 C196.605471,34.0659016 196.37614,34.1405675 196.130805,34.2472347 C195.885471,34.3539019 195.661473,34.4872339 195.458805,34.6472347 C195.256138,34.8072355 195.074806,34.988567 194.914805,35.1912347 C194.754805,35.3939024 194.664139,35.6232334 194.642805,35.8792347 C195.005474,35.8792347 195.40547,35.847235 195.842805,35.7832347 C196.280141,35.7192344 196.706803,35.6392352 197.122805,35.5432347 C197.538807,35.4472342 197.922804,35.3352353 198.274805,35.2072347 C198.626807,35.0792341 198.920138,34.9405688 199.154805,34.7912347 C198.984138,34.3858993 198.669474,34.1352352 198.210805,34.0392347 C197.752136,33.9432342 197.288141,33.9379009 196.818805,34.0232347 Z M206.034805,33.1592347 C206.098806,33.4792363 206.168138,33.8365661 206.242805,34.2312347 C206.317472,34.6259033 206.397472,35.0312326 206.482805,35.4472347 C206.568139,35.8632368 206.642805,36.2845659 206.706805,36.7112347 C206.770806,37.1379035 206.824139,37.5432328 206.866805,37.9272347 C207.122807,37.3725653 207.400137,36.7859045 207.698805,36.1672347 C207.997474,35.5485649 208.322804,34.977904 208.674805,34.4552347 C209.026807,33.9325654 209.400137,33.5005697 209.794805,33.1592347 C210.189474,32.8178997 210.62147,32.6472347 211.090805,32.6472347 C211.794809,32.6472347 212.386803,32.9032321 212.866805,33.4152347 C213.346808,33.9272373 213.752137,34.5618976 214.082805,35.3192347 C214.413474,36.0765718 214.674804,36.8712305 214.866805,37.7032347 C215.058806,38.5352389 215.218805,39.2712315 215.346805,39.9112347 C215.474806,40.4872376 215.218809,40.9139 214.578805,41.1912347 C214.280137,41.3405688 214.056139,41.3619019 213.906805,41.2552347 C213.757471,41.1485675 213.672139,41.0419019 213.650805,40.9352347 C213.544138,40.6792334 213.410806,40.2312379 213.250805,39.5912347 C213.090805,38.9512315 212.909473,38.3005713 212.706805,37.6392347 C212.504138,36.9778981 212.274807,36.4019038 212.018805,35.9112347 C211.762804,35.4205656 211.474807,35.1965678 211.154805,35.2392347 C210.770803,35.2605681 210.429474,35.5485653 210.130805,36.1032347 C209.874804,36.5512369 209.613473,37.047232 209.346805,37.5912347 C209.080137,38.1352374 208.818807,38.6898985 208.562805,39.2552347 C208.306804,39.8205709 208.05614,40.3858985 207.810805,40.9512347 C207.565471,41.5165709 207.33614,42.033899 207.122805,42.5032347 C206.973471,42.6525688 206.786807,42.7539011 206.562805,42.8072347 C206.338804,42.8605683 206.109473,42.8445685 205.874805,42.7592347 C205.661471,42.6952344 205.490806,42.5885688 205.362805,42.4392347 C205.234805,42.2899006 205.170805,42.1405688 205.170805,41.9912347 C204.978804,40.3272264 204.781473,38.8125749 204.578805,37.4472347 C204.376138,36.0818945 204.114807,34.6845752 203.794805,33.2552347 C203.645471,32.7645656 203.618805,32.3752361 203.714805,32.0872347 C203.810806,31.7992333 204.125469,31.6872344 204.658805,31.7512347 C205.405476,31.8792353 205.864138,32.348564 206.034805,33.1592347 Z M4.81880539,70.9992347 C4.84013883,71.0845685 4.85080539,71.2072339 4.85080539,71.3672347 C4.85080539,71.5272355 4.81880571,71.6872339 4.75480539,71.8472347 C4.69080507,72.0072355 4.60013931,72.1459008 4.48280539,72.2632347 C4.36547147,72.3805686 4.20013979,72.4392347 3.98680539,72.4392347 C3.51746971,72.1405665 3.12280699,71.7459038 2.80280539,71.2552347 C2.63213787,70.6152315 2.47747275,69.8792389 2.33880539,69.0472347 C2.20013803,68.2152305 2.08813915,67.3459059 2.00280539,66.4392347 C1.91747163,65.5325635 1.85880555,64.6099061 1.82680539,63.6712347 C1.79480523,62.7325633 1.78947195,61.8259057 1.81080539,60.9512347 C1.81080539,60.8019006 1.82680523,60.6099025 1.85880539,60.3752347 C1.89080555,60.1405669 1.94947163,59.9112358 2.03480539,59.6872347 C2.12013915,59.4632336 2.22680475,59.2712355 2.35480539,59.1112347 C2.48280603,58.9512339 2.66413755,58.8712347 2.89880539,58.8712347 C3.17614011,58.8712347 3.40013787,58.9565672 3.57080539,59.1272347 C3.74147291,59.2979022 3.82680539,59.5752328 3.82680539,59.9592347 C3.80547195,60.8125723 3.81080523,61.7245632 3.84280539,62.6952347 C3.87480555,63.6659062 3.93347163,64.6418965 4.01880539,65.6232347 C4.10413915,66.6045729 4.21613803,67.5592301 4.35480539,68.4872347 C4.49347275,69.4152393 4.64813787,70.2525643 4.81880539,70.9992347 Z M28.2108054,72.9832347 C28.0401379,73.2179025 27.8481398,73.3725677 27.6348054,73.4472347 C27.421471,73.5219017 27.2294729,73.5592347 27.0588054,73.5592347 C26.7601372,73.5379013 26.4828067,73.4365689 26.2268054,73.2552347 C25.9708041,73.0739005 25.8108057,72.8872357 25.7468054,72.6952347 C25.6188048,72.3325662 25.4801395,71.9272369 25.3308054,71.4792347 C25.1814713,71.0312325 25.0374728,70.5779037 24.8988054,70.1192347 C24.760138,69.6605657 24.6161395,69.2125702 24.4668054,68.7752347 C24.3174713,68.3378992 24.178806,67.9379032 24.0508054,67.5752347 C23.6241366,68.3219051 23.2188073,69.0738976 22.8348054,69.8312347 C22.4508035,70.5885718 22.0241411,71.372564 21.5548054,72.1832347 C21.341471,72.5032363 21.0961401,72.7219008 20.8188054,72.8392347 C20.5414707,72.9565686 20.3068064,73.0045681 20.1148054,72.9832347 C19.8374707,72.9619013 19.5868065,72.8552357 19.3628054,72.6632347 C19.1388043,72.4712337 18.962806,72.2899022 18.8348054,72.1192347 C18.6001376,71.7352328 18.3654732,71.2392377 18.1308054,70.6312347 C17.8961376,70.0232317 17.6774731,69.3832381 17.4748054,68.7112347 C17.2721377,68.0392313 17.0854729,67.3672381 16.9148054,66.6952347 C16.7441379,66.0232313 16.6054726,65.4205707 16.4988054,64.8872347 C16.4348051,64.5245662 16.4401384,64.1832363 16.5148054,63.8632347 C16.5894724,63.5432331 16.7761372,63.3619016 17.0748054,63.3192347 C17.4374739,63.2979013 17.7681372,63.4205667 18.0668054,63.6872347 C18.3654736,63.9539027 18.5361385,64.2152334 18.5788054,64.4712347 C18.6641392,64.8979035 18.7654715,65.3618989 18.8828054,65.8632347 C19.0001393,66.3645705 19.128138,66.8712321 19.2668054,67.3832347 C19.4054728,67.8952373 19.544138,68.3965656 19.6828054,68.8872347 C19.8214728,69.3779038 19.9654713,69.8152328 20.1148054,70.1992347 C20.434807,69.6872321 20.7921368,69.0952381 21.1868054,68.4232347 C21.581474,67.7512313 21.9601369,67.1005712 22.3228054,66.4712347 C22.6854739,65.8418982 23.0161372,65.2925704 23.3148054,64.8232347 C23.6134736,64.353899 23.8481379,64.0659019 24.0188054,63.9592347 C24.146806,63.8739009 24.3281376,63.8792342 24.5628054,63.9752347 C24.7974732,64.0712352 24.9681382,64.2045672 25.0748054,64.3752347 C25.5441411,65.3139061 25.9334705,66.3432291 26.2428054,67.4632347 C26.5521403,68.5832403 26.8561372,69.6232299 27.1548054,70.5832347 C27.4534736,70.1992328 27.7734704,69.6925712 28.1148054,69.0632347 C28.4561404,68.4338982 28.7868038,67.7672382 29.1068054,67.0632347 C29.426807,66.3592312 29.7254707,65.6552382 30.0028054,64.9512347 C30.2801401,64.2472312 30.5041379,63.6179041 30.6748054,63.0632347 C30.8454729,62.4872318 31.0801372,62.2099013 31.3788054,62.2312347 C31.7628073,62.2739016 32.0934707,62.4019003 32.3708054,62.6152347 C32.6481401,62.8285691 32.7548057,63.0525669 32.6908054,63.2872347 C32.2214697,65.1645774 31.6134758,66.8872269 30.8668054,68.4552347 C30.120135,70.0232425 29.2348105,71.5325608 28.2108054,72.9832347 Z M42.9948054,61.8792347 C43.0801392,62.476571 43.1494718,63.1112313 43.2028054,63.7832347 C43.256139,64.4552381 43.2988052,65.1325646 43.3308054,65.8152347 C43.3628056,66.4979048 43.3788054,67.1592315 43.3788054,67.7992347 C43.3788054,68.4392379 43.3681388,69.0152321 43.3468054,69.5272347 C44.0294755,69.9965704 44.440138,70.4125662 44.5788054,70.7752347 C44.7174728,71.1379032 44.7334726,71.4579 44.6268054,71.7352347 C44.4988048,72.1192366 44.2694737,72.316568 43.9388054,72.3272347 C43.6081371,72.3379014 43.2294742,72.2259025 42.8028054,71.9912347 C42.5041372,72.2045691 42.1628073,72.4339001 41.7788054,72.6792347 C41.3948035,72.9245693 40.9894742,73.1592336 40.5628054,73.3832347 C40.1361366,73.6072358 39.7094742,73.8045672 39.2828054,73.9752347 C38.8561366,74.1459022 38.4614739,74.2632344 38.0988054,74.3272347 C37.4161353,74.4339019 36.8028081,74.3059032 36.2588054,73.9432347 C35.7148027,73.5805662 35.3468064,73.0365717 35.1548054,72.3112347 C35.0268048,71.8205656 34.9948051,71.313904 35.0588054,70.7912347 C35.1228057,70.2685654 35.2828041,69.7672371 35.5388054,69.2872347 C35.7948067,68.8072323 36.1414699,68.3752366 36.5788054,67.9912347 C37.0161409,67.6072328 37.5334691,67.3085691 38.1308054,67.0952347 C38.2801395,67.0312344 38.4881374,66.9779016 38.7548054,66.9352347 C39.0214734,66.8925678 39.298804,66.876568 39.5868054,66.8872347 C39.8748068,66.8979014 40.1681372,66.9565675 40.4668054,67.0632347 C40.7654736,67.1699019 41.0428041,67.3512334 41.2988054,67.6072347 C41.2988054,67.2445662 41.2934721,66.8445702 41.2828054,66.4072347 C41.2721387,65.9698992 41.2561388,65.5272369 41.2348054,65.0792347 C41.213472,64.6312325 41.1868056,64.2099033 41.1548054,63.8152347 C41.1228052,63.4205661 41.0854723,63.0845694 41.0428054,62.8072347 C41.0001385,62.4872331 40.8774731,62.2899017 40.6748054,62.2152347 C40.4721377,62.1405677 40.2214736,62.1565675 39.9228054,62.2632347 C39.4108028,62.4339022 38.8134755,62.7645656 38.1308054,63.2552347 C37.4481353,63.7459038 36.7974752,64.2685653 36.1788054,64.8232347 C35.9868044,65.0152357 35.76814,65.1005681 35.5228054,65.0792347 C35.2774708,65.0579013 35.0694729,64.9619022 34.8988054,64.7912347 C34.7281379,64.6205672 34.6321388,64.4232358 34.6108054,64.1992347 C34.589472,63.9752336 34.6748044,63.735236 34.8668054,63.4792347 C35.2294739,63.0952328 35.6348032,62.7005701 36.0828054,62.2952347 C36.5308076,61.8898993 37.0001363,61.521903 37.4908054,61.1912347 C37.9814745,60.8605664 38.4828028,60.5885691 38.9948054,60.3752347 C39.506808,60.1619003 40.0188028,60.0445681 40.5308054,60.0232347 C41.2774758,60.0019013 41.85347,60.1672329 42.2588054,60.5192347 C42.6641408,60.8712365 42.9094716,61.3245653 42.9948054,61.8792347 Z M39.2828054,68.7592347 C39.0054707,68.823235 38.7121403,68.956567 38.4028054,69.1592347 C38.0934705,69.3619024 37.81614,69.6072333 37.5708054,69.8952347 C37.3254708,70.1832361 37.1441393,70.5032329 37.0268054,70.8552347 C36.9094715,71.2072365 36.9041382,71.5538997 37.0108054,71.8952347 C37.0534723,72.0232353 37.144138,72.1192344 37.2828054,72.1832347 C37.4214728,72.247235 37.5761379,72.2579016 37.7468054,72.2152347 C38.258808,72.1085675 38.8401355,71.9005696 39.4908054,71.5912347 C40.1414753,71.2818998 40.6588035,70.9459032 41.0428054,70.5832347 C41.0428054,70.4552341 40.978806,70.2899024 40.8508054,70.0872347 C40.7228048,69.884567 40.5734729,69.6819024 40.4028054,69.4792347 C40.2321379,69.276567 40.0454731,69.1005688 39.8428054,68.9512347 C39.6401377,68.8019006 39.4534729,68.7379013 39.2828054,68.7592347 Z M52.4668054,64.1512347 C52.4241385,63.9165669 52.3814723,63.6925691 52.3388054,63.4792347 C52.2961385,63.2659003 52.1894729,63.127235 52.0188054,63.0632347 C51.6561369,62.9565675 51.2721408,62.9459009 50.8668054,63.0312347 C50.46147,63.1165685 50.0881404,63.2499005 49.7468054,63.4312347 C49.4054704,63.6125689 49.1174732,63.8152336 48.8828054,64.0392347 C48.6481376,64.2632358 48.5201388,64.4605672 48.4988054,64.6312347 C48.4348051,64.9512363 48.5201376,65.2605665 48.7548054,65.5592347 C48.9894732,65.8579029 49.3308032,66.1565665 49.7788054,66.4552347 C50.5254758,66.9032369 51.3041347,67.361899 52.1148054,67.8312347 C52.9254761,68.3005704 53.608136,68.7805656 54.1628054,69.2712347 C54.7174748,69.7619038 55.0961377,70.3005651 55.2988054,70.8872347 C55.5014731,71.4739043 55.4534736,72.1405643 55.1548054,72.8872347 C54.9201376,73.4632376 54.4828086,73.9325662 53.8428054,74.2952347 C53.2028022,74.6579032 52.4988092,74.940567 51.7308054,75.1432347 C50.9628016,75.3459024 50.1948092,75.4845677 49.4268054,75.5592347 C48.6588016,75.6339017 48.0081414,75.6712347 47.4748054,75.6712347 C47.3468048,75.6712347 47.1921396,75.6232352 47.0108054,75.5272347 C46.8294712,75.4312342 46.6588062,75.3192353 46.4988054,75.1912347 C46.3388046,75.0632341 46.2001393,74.9299021 46.0828054,74.7912347 C45.9654715,74.6525673 45.9068054,74.5299019 45.9068054,74.4232347 C45.9068054,74.0392328 46.0774704,73.7725688 46.4188054,73.6232347 C46.7601404,73.4739006 47.1121369,73.3992347 47.4748054,73.3992347 C47.986808,73.3992347 48.5361358,73.3725683 49.1228054,73.3192347 C49.709475,73.2659011 50.2694694,73.1805686 50.8028054,73.0632347 C51.3361414,72.9459008 51.8161366,72.7912357 52.2428054,72.5992347 C52.6694742,72.4072337 52.9681379,72.1619029 53.1388054,71.8632347 C53.2881395,71.6072334 53.1974737,71.3032365 52.8668054,70.9512347 C52.5361371,70.5992329 52.0988081,70.2312366 51.5548054,69.8472347 C51.0108027,69.4632328 50.4241419,69.0899032 49.7948054,68.7272347 C49.1654689,68.3645662 48.6268076,68.0339029 48.1788054,67.7352347 C47.7308032,67.4365665 47.346807,67.0792368 47.0268054,66.6632347 C46.7068038,66.2472326 46.5041392,65.7299045 46.4188054,65.1112347 C46.397472,64.5565653 46.5148041,64.0232373 46.7708054,63.5112347 C47.0268067,62.9992321 47.3628033,62.5459033 47.7788054,62.1512347 C48.1948075,61.7565661 48.6694694,61.4419025 49.2028054,61.2072347 C49.7361414,60.9725669 50.2694694,60.8552347 50.8028054,60.8552347 C51.7201433,60.8979016 52.4774691,61.1485657 53.0748054,61.6072347 C53.6721417,62.0659037 54.0241382,62.7432302 54.1308054,63.6392347 C54.1308054,63.9379029 54.0828059,64.1832337 53.9868054,64.3752347 C53.8908049,64.5672357 53.7254732,64.6845678 53.4908054,64.7272347 C53.1921372,64.7699016 52.9521396,64.7325686 52.7708054,64.6152347 C52.5894712,64.4979008 52.4881388,64.3432357 52.4668054,64.1512347 Z M68.3388054,73.4312347 C67.9548035,73.1112331 67.6774729,72.7219037 67.5068054,72.2632347 C67.3361379,71.8045657 67.2508054,71.5005688 67.2508054,71.3512347 C66.9521372,67.9165509 67.0908025,64.5565845 67.6668054,61.2712347 C67.7734726,60.8232325 67.8908048,60.4179032 68.0188054,60.0552347 C68.146806,59.6925662 68.2748048,59.5112347 68.4028054,59.5112347 C68.5521395,59.5112347 68.7121379,59.5539009 68.8828054,59.6392347 C69.0534729,59.7245685 69.2028048,59.8312341 69.3308054,59.9592347 C69.458806,60.0872353 69.5601384,60.2259006 69.6348054,60.3752347 C69.7094724,60.5245688 69.7468054,60.6632341 69.7468054,60.7912347 C69.3201366,62.8819118 69.0908056,64.9672243 69.0588054,67.0472347 C69.0268052,69.1272451 69.0748048,71.201891 69.2028054,73.2712347 C69.2028054,73.4845691 69.1068064,73.6125678 68.9148054,73.6552347 C68.8081382,73.6765681 68.7068059,73.6605683 68.6108054,73.6072347 C68.5148049,73.5539011 68.4241392,73.495235 68.3388054,73.4312347 Z M74.2908054,65.9112347 C74.8881417,65.9112347 75.5068022,65.8899016 76.1468054,65.8472347 C76.7868086,65.8045678 77.3948025,65.8472341 77.9708054,65.9752347 C78.7174758,66.1459022 79.2721369,66.5192318 79.6348054,67.0952347 C79.9974739,67.6712376 80.0508067,68.3325643 79.7948054,69.0792347 C79.6028044,69.6125707 79.3361404,70.1245656 78.9948054,70.6152347 C78.6534704,71.1059038 78.2641409,71.5645659 77.8268054,71.9912347 C77.3894699,72.4179035 76.9308078,72.8232328 76.4508054,73.2072347 C75.970803,73.5912366 75.5068076,73.9538997 75.0588054,74.2952347 C74.7601372,74.4872357 74.450807,74.5245686 74.1308054,74.4072347 C73.8108038,74.2899008 73.5654729,74.1245691 73.3948054,73.9112347 C72.9681366,73.4205656 73.032136,73.1112353 73.5868054,72.9832347 C74.6748108,72.172564 75.6134681,71.3672387 76.4028054,70.5672347 C77.1921427,69.7672307 77.7788035,68.9512389 78.1628054,68.1192347 C78.2054723,67.9699006 78.0881401,67.8739016 77.8108054,67.8312347 C77.5334707,67.7885678 77.1868075,67.7779013 76.7708054,67.7992347 C76.3548033,67.8205681 75.9014745,67.8525678 75.4108054,67.8952347 C74.9201363,67.9379016 74.4828073,67.9805678 74.0988054,68.0232347 C73.9708048,68.0445681 73.8108064,68.0445681 73.6188054,68.0232347 C73.4268044,68.0019013 73.2348064,67.9485685 73.0428054,67.8632347 C72.8508044,67.7779009 72.690806,67.6552355 72.5628054,67.4952347 C72.4348048,67.3352339 72.3708054,67.127236 72.3708054,66.8712347 C72.4348057,65.1858929 72.5681377,63.511243 72.7708054,61.8472347 C72.9734731,60.1832264 73.1921376,58.6579083 73.4268054,57.2712347 C73.4694723,57.0579003 73.5708046,56.9299016 73.7308054,56.8872347 C73.8908062,56.8445678 74.0561379,56.8552344 74.2268054,56.9192347 C74.5894739,57.0899022 74.8614712,57.3085667 75.0428054,57.5752347 C75.2241396,57.8419027 75.2934723,58.0925669 75.2508054,58.3272347 C75.1654716,58.7539035 75.0854724,59.201899 75.0108054,59.6712347 C74.9361384,60.1405704 74.8668057,60.6205656 74.8028054,61.1112347 C75.9548112,61.0045675 77.037467,60.9459014 78.0508054,60.9352347 C79.0641438,60.924568 79.9868012,60.9725675 80.8188054,61.0792347 C81.0961401,61.1219016 81.378804,61.1699011 81.6668054,61.2232347 C81.9548068,61.2765683 82.2588038,61.3565675 82.5788054,61.4632347 C82.8134732,61.5059016 82.9948048,61.6392336 83.1228054,61.8632347 C83.250806,62.0872358 83.2294729,62.2739006 83.0588054,62.4232347 C82.6961369,62.5939022 82.39214,62.7165677 82.1468054,62.7912347 C81.9014708,62.8659017 81.7574723,62.9032347 81.7148054,62.9032347 C79.1334592,62.7752341 76.7441497,62.8818997 74.5468054,63.2232347 C74.5041385,63.7139038 74.4614723,64.1885657 74.4188054,64.6472347 C74.3761385,65.1059037 74.3334723,65.5272328 74.2908054,65.9112347 Z M103.506805,63.6392347 C103.570806,64.7912405 103.640138,65.9538955 103.714805,67.1272347 C103.789472,68.3005739 103.805472,69.4578957 103.762805,70.5992347 C103.720139,71.7405737 103.60814,72.8552293 103.426805,73.9432347 C103.245471,75.0312401 102.941474,76.0712297 102.514805,77.0632347 C102.088137,78.0552397 101.517476,78.9778971 100.802805,79.8312347 C100.088135,80.6845723 99.1868108,81.4525646 98.0988054,82.1352347 C97.9281379,82.2419019 97.7414731,82.3059013 97.5388054,82.3272347 C97.3361377,82.3485681 97.1388064,82.3432349 96.9468054,82.3112347 C96.7548044,82.2792345 96.5841395,82.2259017 96.4348054,82.1512347 C96.2854713,82.0765677 96.1894723,81.9752353 96.1468054,81.8472347 C96.0828051,81.6552337 96.1148048,81.4419025 96.2428054,81.2072347 C96.370806,80.9725669 96.5841372,80.727236 96.8828054,80.4712347 C97.8214768,79.7672312 98.6108022,79.020572 99.2508054,78.2312347 C99.8908086,77.4418974 100.402803,76.5885726 100.786805,75.6712347 C101.170807,74.7538968 101.421471,73.7565734 101.538805,72.6792347 C101.656139,71.601896 101.650806,70.4232411 101.522805,69.1432347 C101.266804,69.4632363 100.96814,69.7938997 100.626805,70.1352347 C100.28547,70.4765697 99.9228073,70.7805667 99.5388054,71.0472347 C99.1548035,71.3139027 98.7601408,71.5379005 98.3548054,71.7192347 C97.94947,71.9005689 97.5654739,71.9912347 97.2028054,71.9912347 C96.9041372,71.9912347 96.6054736,71.9272353 96.3068054,71.7992347 C96.0081372,71.6712341 95.7094736,71.4259032 95.4108054,71.0632347 C95.0694704,70.6152325 94.7654734,70.1085709 94.4988054,69.5432347 C94.2321374,68.9778985 94.0028064,68.4285707 93.8108054,67.8952347 C93.6188044,67.3618987 93.4641393,66.8819035 93.3468054,66.4552347 C93.2294715,66.0285659 93.1601388,65.7299022 93.1388054,65.5592347 C93.0961385,65.3459003 93.0961385,65.1432357 93.1388054,64.9512347 C93.1814723,64.7592337 93.3201376,64.6419016 93.5548054,64.5992347 C93.874807,64.5352344 94.1734707,64.5565675 94.4508054,64.6632347 C94.7281401,64.7699019 94.9201382,64.9405669 95.0268054,65.1752347 C95.1121392,65.4099025 95.2294713,65.7725656 95.3788054,66.2632347 C95.5281395,66.7539038 95.709471,67.2392323 95.9228054,67.7192347 C96.1361398,68.1992371 96.3654708,68.6205662 96.6108054,68.9832347 C96.85614,69.3459032 97.1174707,69.5272347 97.3948054,69.5272347 C97.714807,69.5272347 98.0934699,69.3672363 98.5308054,69.0472347 C98.9681409,68.7272331 99.38947,68.3112373 99.7948054,67.7992347 C100.200141,67.2872321 100.546804,66.7165712 100.834805,66.0872347 C101.122807,65.4578982 101.266805,64.844571 101.266805,64.2472347 C101.266805,64.1192341 101.288139,63.9699022 101.330805,63.7992347 C101.373472,63.6285672 101.437472,63.4632355 101.522805,63.3032347 C101.608139,63.1432339 101.709471,63.0045686 101.826805,62.8872347 C101.944139,62.7699008 102.066805,62.7005681 102.194805,62.6792347 C102.53614,62.6365678 102.840137,62.7272336 103.106805,62.9512347 C103.373473,63.1752358 103.506805,63.4045669 103.506805,63.6392347 Z M114.322805,66.1992347 C113.490801,66.6899038 112.59481,67.0685667 111.634805,67.3352347 C110.674801,67.6019027 109.640144,67.7352347 108.530805,67.7352347 C108.573472,68.4819051 108.786803,69.0738992 109.170805,69.5112347 C109.554807,69.9485702 110.034803,70.2099009 110.610805,70.2952347 C110.95214,70.3379016 111.298804,70.327235 111.650805,70.2632347 C112.002807,70.1992344 112.333471,70.0979021 112.642805,69.9592347 C112.95214,69.8205673 113.234804,69.6659022 113.490805,69.4952347 C113.746807,69.3245672 113.970804,69.1539022 114.162805,68.9832347 C114.354806,68.8125672 114.557471,68.7005683 114.770805,68.6472347 C114.98414,68.5939011 115.144138,68.5885678 115.250805,68.6312347 C115.549474,68.7379019 115.656139,69.0578987 115.570805,69.5912347 C115.22947,70.2739048 114.738809,70.8552323 114.098805,71.3352347 C113.458802,71.8152371 112.744143,72.1192341 111.954805,72.2472347 C111.272135,72.3752353 110.568142,72.3432357 109.842805,72.1512347 C109.117468,71.9592337 108.466808,71.5859041 107.890805,71.0312347 C107.400136,70.5405656 107.026807,69.9645713 106.770805,69.3032347 C106.514804,68.6418981 106.354806,67.9592382 106.290805,67.2552347 C106.226805,66.5938981 106.285471,65.964571 106.466805,65.3672347 C106.64814,64.7698984 106.930803,64.2419037 107.314805,63.7832347 C107.698807,63.3245657 108.178803,62.9459029 108.754805,62.6472347 C109.330808,62.3485665 110.002802,62.1779016 110.770805,62.1352347 C111.688143,62.0712344 112.520135,62.2418993 113.266805,62.6472347 C114.013476,63.0525701 114.536137,63.6178977 114.834805,64.3432347 C115.005473,64.7485701 115.053472,65.1005665 114.978805,65.3992347 C114.904138,65.6979029 114.685474,65.9645669 114.322805,66.1992347 Z M110.642805,64.0232347 C110.429471,64.0659016 110.20014,64.1405675 109.954805,64.2472347 C109.709471,64.3539019 109.485473,64.4872339 109.282805,64.6472347 C109.080138,64.8072355 108.898806,64.988567 108.738805,65.1912347 C108.578805,65.3939024 108.488139,65.6232334 108.466805,65.8792347 C108.829474,65.8792347 109.22947,65.847235 109.666805,65.7832347 C110.104141,65.7192344 110.530803,65.6392352 110.946805,65.5432347 C111.362807,65.4472342 111.746804,65.3352353 112.098805,65.2072347 C112.450807,65.0792341 112.744138,64.9405688 112.978805,64.7912347 C112.808138,64.3858993 112.493474,64.1352352 112.034805,64.0392347 C111.576136,63.9432342 111.112141,63.9379009 110.642805,64.0232347 Z M125.810805,61.8792347 C125.896139,62.476571 125.965472,63.1112313 126.018805,63.7832347 C126.072139,64.4552381 126.114805,65.1325646 126.146805,65.8152347 C126.178806,66.4979048 126.194805,67.1592315 126.194805,67.7992347 C126.194805,68.4392379 126.184139,69.0152321 126.162805,69.5272347 C126.845475,69.9965704 127.256138,70.4125662 127.394805,70.7752347 C127.533473,71.1379032 127.549473,71.4579 127.442805,71.7352347 C127.314805,72.1192366 127.085474,72.316568 126.754805,72.3272347 C126.424137,72.3379014 126.045474,72.2259025 125.618805,71.9912347 C125.320137,72.2045691 124.978807,72.4339001 124.594805,72.6792347 C124.210803,72.9245693 123.805474,73.1592336 123.378805,73.3832347 C122.952137,73.6072358 122.525474,73.8045672 122.098805,73.9752347 C121.672137,74.1459022 121.277474,74.2632344 120.914805,74.3272347 C120.232135,74.4339019 119.618808,74.3059032 119.074805,73.9432347 C118.530803,73.5805662 118.162806,73.0365717 117.970805,72.3112347 C117.842805,71.8205656 117.810805,71.313904 117.874805,70.7912347 C117.938806,70.2685654 118.098804,69.7672371 118.354805,69.2872347 C118.610807,68.8072323 118.95747,68.3752366 119.394805,67.9912347 C119.832141,67.6072328 120.349469,67.3085691 120.946805,67.0952347 C121.096139,67.0312344 121.304137,66.9779016 121.570805,66.9352347 C121.837473,66.8925678 122.114804,66.876568 122.402805,66.8872347 C122.690807,66.8979014 122.984137,66.9565675 123.282805,67.0632347 C123.581474,67.1699019 123.858804,67.3512334 124.114805,67.6072347 C124.114805,67.2445662 124.109472,66.8445702 124.098805,66.4072347 C124.088139,65.9698992 124.072139,65.5272369 124.050805,65.0792347 C124.029472,64.6312325 124.002806,64.2099033 123.970805,63.8152347 C123.938805,63.4205661 123.901472,63.0845694 123.858805,62.8072347 C123.816139,62.4872331 123.693473,62.2899017 123.490805,62.2152347 C123.288138,62.1405677 123.037474,62.1565675 122.738805,62.2632347 C122.226803,62.4339022 121.629475,62.7645656 120.946805,63.2552347 C120.264135,63.7459038 119.613475,64.2685653 118.994805,64.8232347 C118.802804,65.0152357 118.58414,65.1005681 118.338805,65.0792347 C118.093471,65.0579013 117.885473,64.9619022 117.714805,64.7912347 C117.544138,64.6205672 117.448139,64.4232358 117.426805,64.1992347 C117.405472,63.9752336 117.490804,63.735236 117.682805,63.4792347 C118.045474,63.0952328 118.450803,62.7005701 118.898805,62.2952347 C119.346808,61.8898993 119.816136,61.521903 120.306805,61.1912347 C120.797475,60.8605664 121.298803,60.5885691 121.810805,60.3752347 C122.322808,60.1619003 122.834803,60.0445681 123.346805,60.0232347 C124.093476,60.0019013 124.66947,60.1672329 125.074805,60.5192347 C125.480141,60.8712365 125.725472,61.3245653 125.810805,61.8792347 Z M122.098805,68.7592347 C121.821471,68.823235 121.52814,68.956567 121.218805,69.1592347 C120.909471,69.3619024 120.63214,69.6072333 120.386805,69.8952347 C120.141471,70.1832361 119.960139,70.5032329 119.842805,70.8552347 C119.725471,71.2072365 119.720138,71.5538997 119.826805,71.8952347 C119.869472,72.0232353 119.960138,72.1192344 120.098805,72.1832347 C120.237473,72.247235 120.392138,72.2579016 120.562805,72.2152347 C121.074808,72.1085675 121.656135,71.9005696 122.306805,71.5912347 C122.957475,71.2818998 123.474803,70.9459032 123.858805,70.5832347 C123.858805,70.4552341 123.794806,70.2899024 123.666805,70.0872347 C123.538805,69.884567 123.389473,69.6819024 123.218805,69.4792347 C123.048138,69.276567 122.861473,69.1005688 122.658805,68.9512347 C122.456138,68.8019006 122.269473,68.7379013 122.098805,68.7592347 Z M138.866805,62.6792347 C138.482803,62.8925691 138.082807,63.1165669 137.666805,63.3512347 C137.250803,63.5859025 136.834807,63.8578998 136.418805,64.1672347 C136.002803,64.4765696 135.608141,64.8392326 135.234805,65.2552347 C134.86147,65.6712368 134.525474,66.1672318 134.226805,66.7432347 C133.800137,67.5539054 133.512139,68.3805638 133.362805,69.2232347 C133.213471,70.0659056 133.117472,70.892564 133.074805,71.7032347 C133.074805,72.0872366 132.98414,72.4765661 132.802805,72.8712347 C132.621471,73.2659033 132.370807,73.4632347 132.050805,73.4632347 C131.64547,73.4632347 131.32014,73.2552368 131.074805,72.8392347 C130.829471,72.4232326 130.664139,72.0232366 130.578805,71.6392347 C130.216137,70.1245605 129.917473,68.6259088 129.682805,67.1432347 C129.448138,65.6605606 129.245473,64.1832421 129.074805,62.7112347 C129.074805,62.4125665 129.165471,62.2205685 129.346805,62.1352347 C129.52814,62.0499009 129.736138,62.0179013 129.970805,62.0392347 C130.226807,62.0605681 130.472138,62.1245675 130.706805,62.2312347 C130.941473,62.3379019 131.080139,62.5085669 131.122805,62.7432347 C131.208139,63.532572 131.314805,64.3592304 131.442805,65.2232347 C131.570806,66.087239 131.698805,66.8285649 131.826805,67.4472347 C131.912139,66.7218977 132.146803,66.0179048 132.530805,65.3352347 C132.914807,64.6525646 133.389469,64.0339041 133.954805,63.4792347 C134.520142,62.9245653 135.160135,62.4552366 135.874805,62.0712347 C136.589476,61.6872328 137.320135,61.4312353 138.066805,61.3032347 C138.386807,61.2605678 138.653471,61.2605678 138.866805,61.3032347 C139.08014,61.3459016 139.229472,61.4205675 139.314805,61.5272347 C139.400139,61.6339019 139.416139,61.8045669 139.362805,62.0392347 C139.309472,62.2739025 139.14414,62.4872337 138.866805,62.6792347 Z M146.770805,64.1512347 C146.728139,63.9165669 146.685472,63.6925691 146.642805,63.4792347 C146.600139,63.2659003 146.493473,63.127235 146.322805,63.0632347 C145.960137,62.9565675 145.576141,62.9459009 145.170805,63.0312347 C144.76547,63.1165685 144.39214,63.2499005 144.050805,63.4312347 C143.70947,63.6125689 143.421473,63.8152336 143.186805,64.0392347 C142.952138,64.2632358 142.824139,64.4605672 142.802805,64.6312347 C142.738805,64.9512363 142.824138,65.2605665 143.058805,65.5592347 C143.293473,65.8579029 143.634803,66.1565665 144.082805,66.4552347 C144.829476,66.9032369 145.608135,67.361899 146.418805,67.8312347 C147.229476,68.3005704 147.912136,68.7805656 148.466805,69.2712347 C149.021475,69.7619038 149.400138,70.3005651 149.602805,70.8872347 C149.805473,71.4739043 149.757474,72.1405643 149.458805,72.8872347 C149.224138,73.4632376 148.786809,73.9325662 148.146805,74.2952347 C147.506802,74.6579032 146.802809,74.940567 146.034805,75.1432347 C145.266802,75.3459024 144.498809,75.4845677 143.730805,75.5592347 C142.962802,75.6339017 142.312141,75.6712347 141.778805,75.6712347 C141.650805,75.6712347 141.49614,75.6232352 141.314805,75.5272347 C141.133471,75.4312342 140.962806,75.3192353 140.802805,75.1912347 C140.642805,75.0632341 140.504139,74.9299021 140.386805,74.7912347 C140.269471,74.6525673 140.210805,74.5299019 140.210805,74.4232347 C140.210805,74.0392328 140.38147,73.7725688 140.722805,73.6232347 C141.06414,73.4739006 141.416137,73.3992347 141.778805,73.3992347 C142.290808,73.3992347 142.840136,73.3725683 143.426805,73.3192347 C144.013475,73.2659011 144.573469,73.1805686 145.106805,73.0632347 C145.640141,72.9459008 146.120137,72.7912357 146.546805,72.5992347 C146.973474,72.4072337 147.272138,72.1619029 147.442805,71.8632347 C147.592139,71.6072334 147.501474,71.3032365 147.170805,70.9512347 C146.840137,70.5992329 146.402808,70.2312366 145.858805,69.8472347 C145.314803,69.4632328 144.728142,69.0899032 144.098805,68.7272347 C143.469469,68.3645662 142.930808,68.0339029 142.482805,67.7352347 C142.034803,67.4365665 141.650807,67.0792368 141.330805,66.6632347 C141.010804,66.2472326 140.808139,65.7299045 140.722805,65.1112347 C140.701472,64.5565653 140.818804,64.0232373 141.074805,63.5112347 C141.330807,62.9992321 141.666803,62.5459033 142.082805,62.1512347 C142.498807,61.7565661 142.973469,61.4419025 143.506805,61.2072347 C144.040141,60.9725669 144.573469,60.8552347 145.106805,60.8552347 C146.024143,60.8979016 146.781469,61.1485657 147.378805,61.6072347 C147.976142,62.0659037 148.328138,62.7432302 148.434805,63.6392347 C148.434805,63.9379029 148.386806,64.1832337 148.290805,64.3752347 C148.194805,64.5672357 148.029473,64.6845678 147.794805,64.7272347 C147.496137,64.7699016 147.25614,64.7325686 147.074805,64.6152347 C146.893471,64.4979008 146.792139,64.3432357 146.770805,64.1512347 Z M167.954805,62.5512347 C168.594809,62.7859025 169.13347,63.137899 169.570805,63.6072347 C170.008141,64.0765704 170.344138,64.6045651 170.578805,65.1912347 C170.813473,65.7779043 170.946805,66.3805649 170.978805,66.9992347 C171.010806,67.6179045 170.941473,68.1938987 170.770805,68.7272347 C170.536138,69.324571 170.237474,69.9112318 169.874805,70.4872347 C169.512137,71.0632376 169.096141,71.5752325 168.626805,72.0232347 C168.15747,72.4712369 167.624142,72.8339 167.026805,73.1112347 C166.429469,73.3885694 165.768142,73.5272347 165.042805,73.5272347 C164.168134,73.5272347 163.432142,73.3245701 162.834805,72.9192347 C162.237469,72.5138993 161.76814,71.9912379 161.426805,71.3512347 C161.08547,70.7112315 160.866806,69.9859054 160.770805,69.1752347 C160.674805,68.364564 160.690805,67.5539054 160.818805,66.7432347 C160.904139,66.1458984 161.048138,65.5645709 161.250805,64.9992347 C161.453473,64.4338985 161.714804,63.9325702 162.034805,63.4952347 C162.354807,63.0578992 162.722803,62.7005694 163.138805,62.4232347 C163.554807,62.1459 164.029469,62.0072347 164.562805,62.0072347 C164.861474,62.0072347 165.234803,62.0659008 165.682805,62.1832347 C166.130808,62.3005686 166.546803,62.4659003 166.930805,62.6792347 C167.20814,62.4232334 167.54947,62.3805672 167.954805,62.5512347 Z M166.738805,64.8872347 C166.504138,64.7379006 166.23214,64.5405693 165.922805,64.2952347 C165.613471,64.0499001 165.341473,63.9272347 165.106805,63.9272347 C164.850804,63.9272347 164.60014,64.0445669 164.354805,64.2792347 C164.109471,64.5139025 163.89614,64.7858998 163.714805,65.0952347 C163.533471,65.4045696 163.378806,65.7192331 163.250805,66.0392347 C163.122805,66.3592363 163.037472,66.6152337 162.994805,66.8072347 C162.930805,67.1272363 162.888139,67.5112325 162.866805,67.9592347 C162.845472,68.4072369 162.877472,68.8498992 162.962805,69.2872347 C163.048139,69.7245702 163.213471,70.1192329 163.458805,70.4712347 C163.70414,70.8232365 164.072136,71.0739006 164.562805,71.2232347 C164.861474,71.3085685 165.21347,71.3032352 165.618805,71.2072347 C166.024141,71.1112342 166.424137,70.935236 166.818805,70.6792347 C167.213474,70.4232334 167.586804,70.0819035 167.938805,69.6552347 C168.290807,69.2285659 168.562804,68.7379041 168.754805,68.1832347 C168.96814,67.5645649 168.973473,66.9192381 168.770805,66.2472347 C168.568138,65.5752313 168.157475,65.0899029 167.538805,64.7912347 C167.389471,64.8979019 167.240139,64.9512347 167.090805,64.9512347 C166.941471,64.9512347 166.824139,64.9299016 166.738805,64.8872347 Z M176.210805,58.7432347 C176.317473,61.0685797 176.498804,63.4738889 176.754805,65.9592347 C177.010807,68.4445805 177.288137,70.8178901 177.586805,73.0792347 C177.650806,74.0179061 177.394808,74.4979013 176.818805,74.5192347 C176.690805,74.5192347 176.562806,74.4712352 176.434805,74.3752347 C176.306805,74.2792342 176.189473,74.1565688 176.082805,74.0072347 C175.976138,73.8579006 175.874806,73.6979022 175.778805,73.5272347 C175.682805,73.3565672 175.624139,73.2072353 175.602805,73.0792347 C175.432138,71.9912293 175.272139,70.8392408 175.122805,69.6232347 C174.973471,68.4072286 174.840139,67.1859075 174.722805,65.9592347 C174.605471,64.7325619 174.504139,63.5325739 174.418805,62.3592347 C174.333472,61.1858955 174.280139,60.1085729 174.258805,59.1272347 C174.301472,58.6152321 174.376138,58.1832365 174.482805,57.8312347 C174.589473,57.4792329 174.81347,57.3139013 175.154805,57.3352347 C175.517474,57.3565681 175.778805,57.5005667 175.938805,57.7672347 C176.098806,58.0339027 176.189472,58.3592328 176.210805,58.7432347 Z M185.618805,57.4952347 C185.554805,57.1112328 185.581471,56.7592363 185.698805,56.4392347 C185.816139,56.1192331 186.056137,55.9379016 186.418805,55.8952347 C186.738807,55.8525678 187.021471,55.9379003 187.266805,56.1512347 C187.51214,56.3645691 187.666805,56.6418997 187.730805,56.9832347 C188.157474,59.4365803 188.55747,61.8738893 188.930805,64.2952347 C189.304141,66.7165801 189.640137,69.0898897 189.938805,71.4152347 C190.024139,72.0339045 189.981473,72.4552336 189.810805,72.6792347 C189.640138,72.9032358 189.437473,73.0685675 189.202805,73.1752347 C188.946804,73.2819019 188.706807,73.2819019 188.482805,73.1752347 C188.258804,73.0685675 188.114806,72.8765694 188.050805,72.5992347 L188.018805,72.4072347 L187.890805,72.4392347 C187.186802,72.695236 186.450809,72.8392345 185.682805,72.8712347 C184.914802,72.9032349 184.178809,72.8125691 183.474805,72.5992347 C182.770802,72.3859003 182.146808,72.0392371 181.602805,71.5592347 C181.058803,71.0792323 180.669473,70.4659051 180.434805,69.7192347 C179.922803,68.0765598 180.2428,66.5832414 181.394805,65.2392347 C181.885475,64.6845653 182.493468,64.1832369 183.218805,63.7352347 C183.944142,63.2872325 184.8188,62.935236 185.842805,62.6792347 L186.418805,62.5512347 L185.618805,57.4952347 Z M182.386805,68.9192347 C182.514806,69.4312373 182.74947,69.8259 183.090805,70.1032347 C183.43214,70.3805694 183.83747,70.5672342 184.306805,70.6632347 C184.776141,70.7592352 185.277469,70.775235 185.810805,70.7112347 C186.344141,70.6472344 186.866803,70.5299022 187.378805,70.3592347 L187.666805,70.2632347 L186.770805,64.6312347 L186.130805,64.7912347 C185.682803,64.9192353 185.208141,65.1165667 184.706805,65.3832347 C184.20547,65.6499027 183.762807,65.9645662 183.378805,66.3272347 C182.994803,66.6899032 182.701473,67.0952325 182.498805,67.5432347 C182.296138,67.9912369 182.258805,68.449899 182.386805,68.9192347 Z M196.690805,56.9512347 C196.498804,57.8899061 196.301473,58.8178968 196.098805,59.7352347 C195.896138,60.6525726 195.709473,61.5698968 195.538805,62.4872347 C195.368138,63.4045726 195.240139,64.3218968 195.154805,65.2392347 C195.069472,66.1565726 195.058805,67.0738968 195.122805,67.9912347 C195.165472,68.2259025 195.128139,68.4499003 195.010805,68.6632347 C194.893471,68.8765691 194.760139,69.0152344 194.610805,69.0792347 C194.14147,69.2499022 193.80014,69.1325701 193.586805,68.7272347 C193.330804,67.6392293 193.197472,66.5619067 193.186805,65.4952347 C193.176139,64.4285627 193.250805,63.3725733 193.410805,62.3272347 C193.570806,61.2818961 193.784137,60.2419065 194.050805,59.2072347 C194.317473,58.1725629 194.589471,57.1432398 194.866805,56.1192347 C194.973473,55.6925659 195.144138,55.4579016 195.378805,55.4152347 C195.613473,55.3725678 195.837471,55.3939009 196.050805,55.4792347 C196.370807,55.5859019 196.573472,55.7992331 196.658805,56.1192347 C196.744139,56.4392363 196.754806,56.7165669 196.690805,56.9512347 Z M195.410805,74.1672347 C195.410805,74.4019025 195.384139,74.7165661 195.330805,75.1112347 C195.277472,75.5059033 195.192139,75.8738997 195.074805,76.2152347 C194.957471,76.5565697 194.797473,76.8339003 194.594805,77.0472347 C194.392138,77.2605691 194.141474,77.3032353 193.842805,77.1752347 C193.672138,77.0685675 193.501473,76.8659029 193.330805,76.5672347 C193.160138,76.2685665 193.085472,75.991236 193.106805,75.7352347 C193.149472,75.2232321 193.256138,74.7219038 193.426805,74.2312347 C193.597473,73.7405656 193.821471,73.4419019 194.098805,73.3352347 C194.226806,73.2925678 194.370805,73.2925678 194.530805,73.3352347 C194.690806,73.3779016 194.834805,73.4472342 194.962805,73.5432347 C195.090806,73.6392352 195.197472,73.7459008 195.282805,73.8632347 C195.368139,73.9805686 195.410805,74.0819009 195.410805,74.1672347 Z" fill="#25262A" transform="translate(108.588406, 54.112301) rotate(-4.000000) translate(-108.588406, -54.112301) "></path>
            <g transform="translate(243.377349, 24.973041) scale(-1, 1) rotate(72.000000) translate(-243.377349, -24.973041) translate(215.377349, -2.026959)" stroke-width="2" stroke="#25262A">
                <path d="M12.3908006,40.6211633 C12.3908006,40.6211633 44.0465123,68.1405413 46.7928961,6.99367822" transform="translate(29.591848, 26.895163) rotate(36.000000) translate(-29.591848, -26.895163) "></path>
                <path d="M4.51463156,35.2873947 C4.51463156,35.2873947 3.95546059,31.6499231 3.79643933,30.9181028 C3.63741806,30.1862825 1.90439022,26.3360132 1.90439022,26.3360132 C1.90439022,26.3360132 4.59736986,26.7724569 6.98956132,26.5303068 C9.38175278,26.2881566 12.2539913,26.3973082 12.2539913,26.3973082" transform="translate(7.079191, 30.811704) rotate(46.000000) translate(-7.079191, -30.811704) "></path>
            </g>
        </g>
    </g>
</svg>