<?xml version="1.0" encoding="UTF-8"?>
<svg width="109px" height="90px" viewBox="0 0 109 90" version="1.1" xmlns="http://www.w3.org/2000/svg" xmlns:xlink="http://www.w3.org/1999/xlink">
    <!-- Generator: Sketch 47.1 (45422) - http://www.bohemiancoding.com/sketch -->
    <title>Artboard 6</title>
    <desc>Created with Sketch.</desc>
    <defs></defs>
    <g stroke="none" stroke-width="1" fill="none" fill-rule="evenodd">
        <g>
            <path d="M11.4788253,15.4847878 C11.4468251,15.5807883 11.3348262,15.6927872 11.1428253,15.8207878 C10.9508243,15.9487885 10.7908259,16.0127878 10.6628253,16.0127878 C9.97482183,15.9487875 9.29082867,15.8927881 8.61082527,15.8447878 C7.93082187,15.7967876 7.23882879,15.7647879 6.53482527,15.7487878 C6.63082575,16.3087906 6.72282483,16.868785 6.81082527,17.4287878 C6.89882571,17.9887906 6.98282487,18.548785 7.06282527,19.1087878 C8.42283207,19.0607876 9.76681863,18.9887883 11.0948253,18.8927878 C11.3188264,18.8927878 11.5428241,18.9647871 11.7668253,19.1087878 C11.9908264,19.2527886 12.1028253,19.3887872 12.1028253,19.5167878 C12.1028253,19.6927887 12.030826,19.8487872 11.8868253,19.9847878 C11.7428245,20.1207885 11.5668263,20.2047877 11.3588253,20.2367878 C10.6868219,20.3487884 10.0108287,20.4327876 9.33082527,20.4887878 C8.65082187,20.5447881 7.95882879,20.5887877 7.25482527,20.6207878 C7.33482567,21.1807906 7.40282499,21.7367851 7.45882527,22.2887878 C7.51482555,22.8407906 7.56682503,23.3887851 7.61482527,23.9327878 C7.64682543,24.156789 7.62682563,24.3927866 7.55482527,24.6407878 C7.48282491,24.8887891 7.36682607,25.0127878 7.20682527,25.0127878 C7.06282455,25.0127878 6.92682591,24.9727882 6.79882527,24.8927878 C6.67082463,24.8127874 6.55482579,24.7207884 6.45082527,24.6167878 C6.34682475,24.5127873 6.26282559,24.3967885 6.19882527,24.2687878 C6.13482495,24.1407872 6.09482535,24.0287883 6.07882527,23.9327878 C5.91882447,22.556781 5.74682619,21.1887946 5.56282527,19.8287878 C5.37882435,18.468781 5.17482639,17.1007947 4.95082527,15.7247878 L4.15882527,15.7247878 C3.93482415,15.7247878 3.72682623,15.7007881 3.53482527,15.6527878 C3.34282431,15.6047876 3.19882575,15.4847888 3.10282527,15.2927878 C3.07082511,15.2447876 3.05082531,15.1647884 3.04282527,15.0527878 C3.03482523,14.9407873 3.04282515,14.8287884 3.06682527,14.7167878 C3.09082539,14.6047873 3.13482495,14.5007883 3.19882527,14.4047878 C3.26282559,14.3087874 3.35082471,14.244788 3.46282527,14.2127878 C4.08682839,14.1167874 4.75482171,14.0767878 5.46682527,14.0927878 C6.17882883,14.1087879 6.87482187,14.1527875 7.55482527,14.2247878 C8.23482867,14.2967882 8.87482227,14.3967872 9.47482527,14.5247878 C10.0748283,14.6527885 10.5908231,14.7887871 11.0228253,14.9327878 C11.2948266,15.0927886 11.4468251,15.2767868 11.4788253,15.4847878 Z M18.9188253,17.4527878 C19.3988277,17.6287887 19.8028236,17.8927861 20.1308253,18.2447878 C20.4588269,18.5967896 20.7108244,18.9927856 20.8868253,19.4327878 C21.0628261,19.87279 21.1628251,20.3247855 21.1868253,20.7887878 C21.2108254,21.2527902 21.1588259,21.6847858 21.0308253,22.0847878 C20.8548244,22.5327901 20.6308266,22.9727857 20.3588253,23.4047878 C20.0868239,23.83679 19.774827,24.2207862 19.4228253,24.5567878 C19.0708235,24.8927895 18.6708275,25.1647868 18.2228253,25.3727878 C17.774823,25.5807889 17.278828,25.6847878 16.7348253,25.6847878 C16.078822,25.6847878 15.5268275,25.5327894 15.0788253,25.2287878 C14.630823,24.9247863 14.2788265,24.5327902 14.0228253,24.0527878 C13.766824,23.5727854 13.6028256,23.0287909 13.5308253,22.4207878 C13.4588249,21.8127848 13.4708248,21.2047909 13.5668253,20.5967878 C13.6308256,20.1487856 13.7388245,19.71279 13.8908253,19.2887878 C14.042826,18.8647857 14.2388241,18.4887895 14.4788253,18.1607878 C14.7188265,17.8327862 14.9948237,17.5647889 15.3068253,17.3567878 C15.6188268,17.1487868 15.9748233,17.0447878 16.3748253,17.0447878 C16.5988264,17.0447878 16.8788236,17.0887874 17.2148253,17.1767878 C17.5508269,17.2647883 17.8628238,17.388787 18.1508253,17.5487878 C18.3588263,17.3567869 18.6148237,17.3247872 18.9188253,17.4527878 Z M18.0068253,19.2047878 C17.8308244,19.0927873 17.6268264,18.9447888 17.3948253,18.7607878 C17.1628241,18.5767869 16.9588261,18.4847878 16.7828253,18.4847878 C16.5908243,18.4847878 16.4028262,18.572787 16.2188253,18.7487878 C16.0348243,18.9247887 15.8748259,19.1287867 15.7388253,19.3607878 C15.6028246,19.592789 15.4868257,19.8287866 15.3908253,20.0687878 C15.2948248,20.308789 15.2308254,20.5007871 15.1988253,20.6447878 C15.150825,20.884789 15.1188253,21.1727862 15.1028253,21.5087878 C15.0868252,21.8447895 15.1108249,22.1767862 15.1748253,22.5047878 C15.2388256,22.8327895 15.3628243,23.1287865 15.5468253,23.3927878 C15.7308262,23.6567892 16.0068234,23.8447873 16.3748253,23.9567878 C16.5988264,24.0207882 16.8628237,24.0167882 17.1668253,23.9447878 C17.4708268,23.8727875 17.7708238,23.7407888 18.0668253,23.5487878 C18.3628267,23.3567869 18.6428239,23.1007894 18.9068253,22.7807878 C19.1708266,22.4607862 19.3748245,22.0927899 19.5188253,21.6767878 C19.6788261,21.2127855 19.682826,20.7287904 19.5308253,20.2247878 C19.3788245,19.7207853 19.0708276,19.356789 18.6068253,19.1327878 C18.4948247,19.2127882 18.3828258,19.2527878 18.2708253,19.2527878 C18.1588247,19.2527878 18.0708256,19.236788 18.0068253,19.2047878 Z M30.2708253,17.5487878 C29.9828238,17.7087886 29.6828268,17.876787 29.3708253,18.0527878 C29.0588237,18.2287887 28.7468268,18.4327867 28.4348253,18.6647878 C28.1228237,18.896789 27.8268267,19.1687863 27.5468253,19.4807878 C27.2668239,19.7927894 27.0148264,20.1647857 26.7908253,20.5967878 C26.4708237,21.2047909 26.2548258,21.8247847 26.1428253,22.4567878 C26.0308247,23.088791 25.9588254,23.7087848 25.9268253,24.3167878 C25.9268253,24.6047893 25.8588259,24.8967864 25.7228253,25.1927878 C25.5868246,25.4887893 25.3988265,25.6367878 25.1588253,25.6367878 C24.8548237,25.6367878 24.6108262,25.4807894 24.4268253,25.1687878 C24.2428243,24.8567863 24.1188256,24.5567893 24.0548253,24.2687878 C23.7828239,23.1327822 23.5588261,22.0087934 23.3828253,20.8967878 C23.2068244,19.7847823 23.0548259,18.6767934 22.9268253,17.5727878 C22.9268253,17.3487867 22.9948246,17.2047882 23.1308253,17.1407878 C23.2668259,17.0767875 23.4228244,17.0527878 23.5988253,17.0687878 C23.7908262,17.0847879 23.9748244,17.1327874 24.1508253,17.2127878 C24.3268261,17.2927882 24.4308251,17.420787 24.4628253,17.5967878 C24.5268256,18.1887908 24.6068248,18.8087846 24.7028253,19.4567878 C24.7988257,20.1047911 24.8948248,20.6607855 24.9908253,21.1247878 C25.0548256,20.5807851 25.2308238,20.0527904 25.5188253,19.5407878 C25.8068267,19.0287853 26.1628231,18.5647899 26.5868253,18.1487878 C27.0108274,17.7327858 27.4908226,17.3807893 28.0268253,17.0927878 C28.5628279,16.8047864 29.1108225,16.6127883 29.6708253,16.5167878 C29.9108265,16.4847877 30.1108245,16.4847877 30.2708253,16.5167878 C30.4308261,16.548788 30.5428249,16.6047874 30.6068253,16.6847878 C30.6708256,16.7647882 30.6828255,16.892787 30.6428253,17.0687878 C30.6028251,17.2447887 30.4788263,17.4047871 30.2708253,17.5487878 Z M44.4308253,16.9487878 C44.4948256,17.3967901 44.5468251,17.8727853 44.5868253,18.3767878 C44.6268255,18.8807904 44.6588251,19.3887853 44.6828253,19.9007878 C44.7068254,20.4127904 44.7188253,20.9087854 44.7188253,21.3887878 C44.7188253,21.8687902 44.7108253,22.3007859 44.6948253,22.6847878 C45.2068278,23.0367896 45.5148247,23.3487865 45.6188253,23.6207878 C45.7228258,23.8927892 45.7348257,24.1327868 45.6548253,24.3407878 C45.5588248,24.6287893 45.3868265,24.7767878 45.1388253,24.7847878 C44.890824,24.7927879 44.6068269,24.7087887 44.2868253,24.5327878 C44.0628241,24.6927886 43.8068267,24.8647869 43.5188253,25.0487878 C43.2308238,25.2327888 42.9268269,25.408787 42.6068253,25.5767878 C42.2868237,25.7447887 41.9668269,25.8927872 41.6468253,26.0207878 C41.3268237,26.1487885 41.0308266,26.2367876 40.7588253,26.2847878 C40.2468227,26.3647882 39.7868273,26.2687892 39.3788253,25.9967878 C38.9708232,25.7247865 38.694826,25.3167906 38.5508253,24.7727878 C38.4548248,24.404786 38.430825,24.0247898 38.4788253,23.6327878 C38.5268255,23.2407859 38.6468243,22.8647896 38.8388253,22.5047878 C39.0308262,22.144786 39.2908236,21.8207893 39.6188253,21.5327878 C39.9468269,21.2447864 40.334823,21.0207886 40.7828253,20.8607878 C40.8948258,20.8127876 41.0508243,20.772788 41.2508253,20.7407878 C41.4508263,20.7087877 41.6588242,20.6967878 41.8748253,20.7047878 C42.0908263,20.7127879 42.3108241,20.7567874 42.5348253,20.8367878 C42.7588264,20.9167882 42.9668243,21.0527869 43.1588253,21.2447878 C43.1588253,20.9727865 43.1548253,20.6727895 43.1468253,20.3447878 C43.1388252,20.0167862 43.1268253,19.6847895 43.1108253,19.3487878 C43.0948252,19.0127862 43.0748254,18.6967893 43.0508253,18.4007878 C43.0268251,18.1047864 42.9988254,17.8527889 42.9668253,17.6447878 C42.9348251,17.4047866 42.842826,17.2567881 42.6908253,17.2007878 C42.5388245,17.1447876 42.3508264,17.1567874 42.1268253,17.2367878 C41.7428233,17.3647885 41.2948278,17.612786 40.7828253,17.9807878 C40.2708227,18.3487897 39.7828276,18.7407858 39.3188253,19.1567878 C39.1748245,19.3007886 39.0108262,19.3647879 38.8268253,19.3487878 C38.6428243,19.3327878 38.4868259,19.2607885 38.3588253,19.1327878 C38.2308246,19.0047872 38.1588253,18.8567887 38.1428253,18.6887878 C38.1268252,18.520787 38.1908245,18.3407888 38.3348253,18.1487878 C38.6068266,17.8607864 38.9108236,17.5647894 39.2468253,17.2607878 C39.5828269,16.9567863 39.9348234,16.6807891 40.3028253,16.4327878 C40.6708271,16.1847866 41.0468233,15.9807886 41.4308253,15.8207878 C41.8148272,15.660787 42.1988233,15.5727879 42.5828253,15.5567878 C43.1428281,15.5407878 43.5748237,15.6647865 43.8788253,15.9287878 C44.1828268,16.1927892 44.3668249,16.5327858 44.4308253,16.9487878 Z M41.6468253,22.1087878 C41.4388242,22.1567881 41.2188264,22.2567871 40.9868253,22.4087878 C40.7548241,22.5607886 40.5468262,22.7447868 40.3628253,22.9607878 C40.1788243,23.1767889 40.0428257,23.4167865 39.9548253,23.6807878 C39.8668248,23.9447892 39.8628249,24.2047866 39.9428253,24.4607878 C39.9748254,24.5567883 40.0428247,24.6287876 40.1468253,24.6767878 C40.2508258,24.7247881 40.3668246,24.732788 40.4948253,24.7007878 C40.8788272,24.6207874 41.3148228,24.464789 41.8028253,24.2327878 C42.2908277,24.0007867 42.6788238,23.7487892 42.9668253,23.4767878 C42.9668253,23.3807874 42.9188257,23.2567886 42.8228253,23.1047878 C42.7268248,22.9527871 42.6148259,22.8007886 42.4868253,22.6487878 C42.3588246,22.4967871 42.218826,22.3647884 42.0668253,22.2527878 C41.9148245,22.1407873 41.7748259,22.0927878 41.6468253,22.1087878 Z M55.7828253,14.5967878 C55.8628257,16.3407966 55.9988243,18.1447785 56.1908253,20.0087878 C56.3828262,21.8727972 56.5908241,23.6527794 56.8148253,25.3487878 C56.8628255,26.0527914 56.6708274,26.4127878 56.2388253,26.4287878 C56.1428248,26.4287878 56.0468257,26.3927882 55.9508253,26.3207878 C55.8548248,26.2487875 55.7668257,26.1567884 55.6868253,26.0447878 C55.6068249,25.9327873 55.5308256,25.8127885 55.4588253,25.6847878 C55.3868249,25.5567872 55.3428253,25.4447883 55.3268253,25.3487878 C55.1988246,24.5327838 55.0788258,23.6687924 54.9668253,22.7567878 C54.8548247,21.8447833 54.7548257,20.9287924 54.6668253,20.0087878 C54.5788248,19.0887832 54.5028256,18.1887922 54.4388253,17.3087878 C54.3748249,16.4287834 54.3348253,15.6207915 54.3188253,14.8847878 C54.3508254,14.5007859 54.4068249,14.1767892 54.4868253,13.9127878 C54.5668257,13.6487865 54.734824,13.5247878 54.9908253,13.5407878 C55.2628266,13.5567879 55.4588247,13.6647868 55.5788253,13.8647878 C55.6988259,14.0647888 55.7668252,14.3087864 55.7828253,14.5967878 Z M62.8148253,16.0367878 C62.7828251,16.1967886 62.6708262,16.2847878 62.4788253,16.3007878 C62.2868243,16.3167879 62.1268259,16.3247878 61.9988253,16.3247878 C61.5988233,16.3407879 61.1868274,16.3807875 60.7628253,16.4447878 C60.3388231,16.5087882 59.8948276,16.6047872 59.4308253,16.7327878 C59.2388243,16.7967882 59.0308264,16.7727884 58.8068253,16.6607878 C58.5828241,16.5487873 58.4468255,16.3247895 58.3988253,15.9887878 C58.3988253,15.8607872 58.4468248,15.7567882 58.5428253,15.6767878 C58.6388257,15.5967874 58.7508246,15.5247882 58.8788253,15.4607878 C59.0868263,15.3647874 59.3348238,15.2807882 59.6228253,15.2087878 C59.9108267,15.1367875 60.2028238,15.084788 60.4988253,15.0527878 C60.7948267,15.0207877 61.0788239,15.0087878 61.3508253,15.0167878 C61.6228266,15.0247879 61.8468244,15.0527876 62.0228253,15.1007878 C62.2788265,15.1807882 62.4828245,15.300787 62.6348253,15.4607878 C62.786826,15.6207886 62.8468254,15.8127867 62.8148253,16.0367878 Z M62.2628253,24.0287878 C62.3748258,24.2847891 62.4348252,24.5607864 62.4428253,24.8567878 C62.4508253,25.1527893 62.3668261,25.3567873 62.1908253,25.4687878 C61.9668241,25.6127886 61.7268265,25.6047886 61.4708253,25.4447878 C61.214824,25.284787 61.0228259,25.0687892 60.8948253,24.7967878 C60.7188244,24.4607862 60.5828257,24.0487903 60.4868253,23.5607878 C60.3908248,23.0727854 60.3188255,22.5887902 60.2708253,22.1087878 C60.222825,21.6287854 60.1948253,21.1807899 60.1868253,20.7647878 C60.1788252,20.3487858 60.1748253,20.0367889 60.1748253,19.8287878 C60.1908253,19.6047867 60.2548247,19.3967888 60.3668253,19.2047878 C60.4788258,19.0127869 60.6228244,18.900788 60.7988253,18.8687878 C61.0868267,18.8847879 61.3188244,19.0167866 61.4948253,19.2647878 C61.6708261,19.5127891 61.7508253,19.820786 61.7348253,20.1887878 C61.7348253,20.4767893 61.7428252,20.7967861 61.7588253,21.1487878 C61.7748253,21.5007896 61.806825,21.8527861 61.8548253,22.2047878 C61.9028255,22.5567896 61.9588249,22.8967862 62.0228253,23.2247878 C62.0868256,23.5527895 62.1668248,23.8207868 62.2628253,24.0287878 Z M66.0308253,18.0767878 C66.0468253,18.3327891 66.0748251,18.648786 66.1148253,19.0247878 C66.1548255,19.4007897 66.198825,19.7927858 66.2468253,20.2007878 C66.2948255,20.6087899 66.346825,21.0127858 66.4028253,21.4127878 C66.4588255,21.8127898 66.510825,22.1807862 66.5588253,22.5167878 L67.2068253,21.2207878 C67.4628265,20.7087853 67.7308239,20.2167902 68.0108253,19.7447878 C68.2908267,19.2727855 68.5788238,18.8727895 68.8748253,18.5447878 C69.1708267,18.2167862 69.4388241,18.0527878 69.6788253,18.0527878 C69.9348265,18.0527878 70.1708242,18.1767866 70.3868253,18.4247878 C70.6028263,18.6727891 70.7908245,18.9727861 70.9508253,19.3247878 C71.1108261,19.6767896 71.2508247,20.0527858 71.3708253,20.4527878 C71.4908259,20.8527898 71.5908249,21.2047863 71.6708253,21.5087878 C71.7348256,21.3007868 71.8188247,21.0647892 71.9228253,20.8007878 C72.0268258,20.5367865 72.1388247,20.2647892 72.2588253,19.9847878 C72.3788259,19.7047864 72.5148245,19.4287892 72.6668253,19.1567878 C72.818826,18.8847865 72.9828244,18.6447889 73.1588253,18.4367878 C73.3668263,18.2127867 73.5908241,18.0487884 73.8308253,17.9447878 C74.0708265,17.8407873 74.2468247,17.7887878 74.3588253,17.7887878 C74.502826,17.7887878 74.6748243,17.8327874 74.8748253,17.9207878 C75.0748263,18.0087883 75.2788242,18.1247871 75.4868253,18.2687878 C75.6948263,18.4127886 75.8908243,18.5847868 76.0748253,18.7847878 C76.2588262,18.9847888 76.4068247,19.1887868 76.5188253,19.3967878 C76.7428264,19.82879 76.9228246,20.3007853 77.0588253,20.8127878 C77.1948259,21.3247904 77.2948249,21.8127855 77.3588253,22.2767878 C77.4228256,22.7407902 77.4668251,23.152786 77.4908253,23.5127878 C77.5148254,23.8727896 77.5348252,24.1247871 77.5508253,24.2687878 C77.5508253,24.4767889 77.5268255,24.6327873 77.4788253,24.7367878 C77.430825,24.8407884 77.3428259,24.9247875 77.2148253,24.9887878 C77.0388244,25.0687882 76.8868259,25.096788 76.7588253,25.0727878 C76.6308246,25.0487877 76.5268257,24.9967882 76.4468253,24.9167878 C76.3668249,24.8367874 76.3028255,24.7447884 76.2548253,24.6407878 C76.206825,24.5367873 76.1748253,24.4447882 76.1588253,24.3647878 C76.110825,23.996786 76.0588255,23.6207898 76.0028253,23.2367878 C75.946825,22.8527859 75.8868256,22.4807896 75.8228253,22.1207878 C75.7588249,21.760786 75.6828257,21.4247894 75.5948253,21.1127878 C75.5068248,20.8007863 75.4148257,20.524789 75.3188253,20.2847878 C75.2868251,20.2207875 75.2348256,20.1367884 75.1628253,20.0327878 C75.0908249,19.9287873 75.0108257,19.8287883 74.9228253,19.7327878 C74.8348248,19.6367874 74.7508257,19.5567882 74.6708253,19.4927878 C74.5908249,19.4287875 74.5348254,19.3887879 74.5028253,19.3727878 C74.3428245,19.3727878 74.1748261,19.5207864 73.9988253,19.8167878 C73.8228244,20.1127893 73.6548261,20.4687858 73.4948253,20.8847878 C73.3348245,21.3007899 73.1868259,21.7367856 73.0508253,22.1927878 C72.9148246,22.6487901 72.8148256,23.0367862 72.7508253,23.3567878 C72.7508253,23.7727899 72.6708261,24.0807868 72.5108253,24.2807878 C72.3508245,24.4807888 72.1828261,24.5807878 72.0068253,24.5807878 C71.8308244,24.5807878 71.6428263,24.5127885 71.4428253,24.3767878 C71.2428243,24.2407872 71.1108256,24.0847887 71.0468253,23.9087878 C70.9508248,23.6527866 70.8468258,23.3647894 70.7348253,23.0447878 C70.6228247,22.7247862 70.5068259,22.3967895 70.3868253,22.0607878 C70.2668247,21.7247862 70.1468259,21.3967894 70.0268253,21.0767878 C69.9068247,20.7567862 69.7908258,20.4687891 69.6788253,20.2127878 C69.4548241,20.5167894 69.2348263,20.852786 69.0188253,21.2207878 C68.8028242,21.5887897 68.5948263,21.9647859 68.3948253,22.3487878 C68.1948243,22.7327898 68.0028262,23.112786 67.8188253,23.4887878 C67.6348243,23.8647897 67.4628261,24.1967864 67.3028253,24.4847878 C67.1908247,24.6607887 67.0708259,24.8167872 66.9428253,24.9527878 C66.8148246,25.0887885 66.6628261,25.1567878 66.4868253,25.1567878 C66.3588246,25.1567878 66.222826,25.0967884 66.0788253,24.9767878 C65.9348245,24.8567872 65.7988259,24.7087887 65.6708253,24.5327878 C65.5428246,24.356787 65.4268258,24.156789 65.3228253,23.9327878 C65.2188247,23.7087867 65.1428255,23.484789 65.0948253,23.2607878 C64.9668246,22.5727844 64.8588257,21.816792 64.7708253,20.9927878 C64.6828248,20.1687837 64.5988257,19.3647918 64.5188253,18.5807878 C64.5028252,18.3087865 64.5388248,18.056789 64.6268253,17.8247878 C64.7148257,17.5927867 64.886824,17.4367882 65.1428253,17.3567878 C65.4148266,17.3087876 65.6228245,17.3487872 65.7668253,17.4767878 C65.910826,17.6047885 65.9988251,17.8047865 66.0308253,18.0767878 Z M83.5268253,16.0367878 C83.4948251,16.1967886 83.3828262,16.2847878 83.1908253,16.3007878 C82.9988243,16.3167879 82.8388259,16.3247878 82.7108253,16.3247878 C82.3108233,16.3407879 81.8988274,16.3807875 81.4748253,16.4447878 C81.0508231,16.5087882 80.6068276,16.6047872 80.1428253,16.7327878 C79.9508243,16.7967882 79.7428264,16.7727884 79.5188253,16.6607878 C79.2948241,16.5487873 79.1588255,16.3247895 79.1108253,15.9887878 C79.1108253,15.8607872 79.1588248,15.7567882 79.2548253,15.6767878 C79.3508257,15.5967874 79.4628246,15.5247882 79.5908253,15.4607878 C79.7988263,15.3647874 80.0468238,15.2807882 80.3348253,15.2087878 C80.6228267,15.1367875 80.9148238,15.084788 81.2108253,15.0527878 C81.5068267,15.0207877 81.7908239,15.0087878 82.0628253,15.0167878 C82.3348266,15.0247879 82.5588244,15.0527876 82.7348253,15.1007878 C82.9908265,15.1807882 83.1948245,15.300787 83.3468253,15.4607878 C83.498826,15.6207886 83.5588254,15.8127867 83.5268253,16.0367878 Z M82.9748253,24.0287878 C83.0868258,24.2847891 83.1468252,24.5607864 83.1548253,24.8567878 C83.1628253,25.1527893 83.0788261,25.3567873 82.9028253,25.4687878 C82.6788241,25.6127886 82.4388265,25.6047886 82.1828253,25.4447878 C81.926824,25.284787 81.7348259,25.0687892 81.6068253,24.7967878 C81.4308244,24.4607862 81.2948257,24.0487903 81.1988253,23.5607878 C81.1028248,23.0727854 81.0308255,22.5887902 80.9828253,22.1087878 C80.934825,21.6287854 80.9068253,21.1807899 80.8988253,20.7647878 C80.8908252,20.3487858 80.8868253,20.0367889 80.8868253,19.8287878 C80.9028253,19.6047867 80.9668247,19.3967888 81.0788253,19.2047878 C81.1908258,19.0127869 81.3348244,18.900788 81.5108253,18.8687878 C81.7988267,18.8847879 82.0308244,19.0167866 82.2068253,19.2647878 C82.3828261,19.5127891 82.4628253,19.820786 82.4468253,20.1887878 C82.4468253,20.4767893 82.4548252,20.7967861 82.4708253,21.1487878 C82.4868253,21.5007896 82.518825,21.8527861 82.5668253,22.2047878 C82.6148255,22.5567896 82.6708249,22.8967862 82.7348253,23.2247878 C82.7988256,23.5527895 82.8788248,23.8207868 82.9748253,24.0287878 Z M90.7508253,19.3967878 C91.0548268,19.3807878 91.3588237,19.452787 91.6628253,19.6127878 C91.9668268,19.7727886 92.1188253,20.0207862 92.1188253,20.3567878 C92.0868251,20.6287892 91.9388266,20.8007875 91.6748253,20.8727878 C91.4108239,20.9447882 91.1988261,20.9807878 91.0388253,20.9807878 C90.7188237,20.9807878 90.3748271,20.9887878 90.0068253,21.0047878 C89.6388234,21.0207879 89.2628272,21.0447877 88.8788253,21.0767878 C88.8468251,21.6047905 88.8188254,22.1007855 88.7948253,22.5647878 C88.7708251,23.0287902 88.7508253,23.440786 88.7348253,23.8007878 C88.7188252,24.1607896 88.7108253,24.4527867 88.7108253,24.6767878 C88.7108253,24.900789 88.7188252,25.0207878 88.7348253,25.0367878 C89.086827,24.9727875 89.4668232,24.8647886 89.8748253,24.7127878 C90.2828273,24.5607871 90.6908232,24.3927888 91.0988253,24.2087878 C91.5068273,24.0247869 91.9068233,23.8327888 92.2988253,23.6327878 C92.6908272,23.4327868 93.0628235,23.2447887 93.4148253,23.0687878 C93.5748261,22.9887874 93.7228246,22.9647877 93.8588253,22.9967878 C93.9948259,23.028788 94.0788251,23.1007873 94.1108253,23.2127878 C94.1428254,23.3887887 94.1188257,23.6047866 94.0388253,23.8607878 C93.9588249,24.1167891 93.8148263,24.3487868 93.6068253,24.5567878 C93.3668241,24.7487888 93.0508272,24.9687866 92.6588253,25.2167878 C92.2668233,25.4647891 91.8468275,25.7007867 91.3988253,25.9247878 C90.950823,26.148789 90.4988275,26.344787 90.0428253,26.5127878 C89.586823,26.6807887 89.182827,26.7807877 88.8308253,26.8127878 C88.3028226,26.8607881 87.9028266,26.7167895 87.6308253,26.3807878 C87.3588239,26.0447862 87.2068254,25.6207904 87.1748253,25.1087878 C87.1428251,24.5967853 87.1388251,24.0047912 87.1628253,23.3327878 C87.1868254,22.6607845 87.2148251,21.9487916 87.2468253,21.1967878 C86.9428237,21.228788 86.6508267,21.2567877 86.3708253,21.2807878 C86.0908239,21.304788 85.8228265,21.3327877 85.5668253,21.3647878 C85.3588242,21.3647878 85.1308265,21.3167883 84.8828253,21.2207878 C84.634824,21.1247874 84.5108253,20.9407892 84.5108253,20.6687878 C84.5108253,20.5727874 84.5508249,20.4447886 84.6308253,20.2847878 C84.7108257,20.124787 84.8868239,20.0047882 85.1588253,19.9247878 C85.8148285,19.8127873 86.5428213,19.7167882 87.3428253,19.6367878 C87.3908255,18.8847841 87.4468249,18.1567914 87.5108253,17.4527878 C87.5748256,16.7487843 87.630825,16.1087907 87.6788253,15.5327878 C87.6948253,15.3407869 87.7508248,15.1727886 87.8468253,15.0287878 C87.9428257,14.8847871 88.0468247,14.8127878 88.1588253,14.8127878 C88.4308266,14.7967878 88.690824,14.8647871 88.9388253,15.0167878 C89.1868265,15.1687886 89.3108253,15.3407869 89.3108253,15.5327878 C89.2468249,16.0767906 89.1868255,16.6927844 89.1308253,17.3807878 C89.074825,18.0687913 89.0228255,18.7727842 88.9748253,19.4927878 C89.2948269,19.4607877 89.6028238,19.4407879 89.8988253,19.4327878 C90.1948267,19.4247878 90.4788239,19.4127879 90.7508253,19.3967878 Z M100.902825,20.1887878 C100.278822,20.5567897 99.6068289,20.8407868 98.8868253,21.0407878 C98.1668217,21.2407888 97.3908294,21.3407878 96.5588253,21.3407878 C96.5908254,21.9007906 96.7508238,22.3447862 97.0388253,22.6727878 C97.3268267,23.0007895 97.6868231,23.1967875 98.1188253,23.2607878 C98.3748265,23.292788 98.6348239,23.2847881 98.8988253,23.2367878 C99.1628266,23.1887876 99.4108241,23.1127884 99.6428253,23.0087878 C99.8748264,22.9047873 100.086824,22.7887885 100.278825,22.6607878 C100.470826,22.5327872 100.638825,22.4047885 100.782825,22.2767878 C100.926826,22.1487872 101.078824,22.064788 101.238825,22.0247878 C101.398826,21.9847876 101.518825,21.9807877 101.598825,22.0127878 C101.822826,22.0927882 101.902826,22.3327858 101.838825,22.7327878 C101.582824,23.2447904 101.214828,23.680786 100.734825,24.0407878 C100.254823,24.4007896 99.7188282,24.6287874 99.1268253,24.7247878 C98.6148227,24.8207883 98.086828,24.7967886 97.5428253,24.6527878 C96.9988225,24.5087871 96.5108274,24.2287899 96.0788253,23.8127878 C95.7108234,23.444786 95.4308262,23.0127903 95.2388253,22.5167878 C95.0468243,22.0207854 94.9268255,21.5087905 94.8788253,20.9807878 C94.830825,20.4847854 94.8748246,20.0127901 95.0108253,19.5647878 C95.1468259,19.1167856 95.3588238,18.7207896 95.6468253,18.3767878 C95.9348267,18.0327861 96.2948231,17.748789 96.7268253,17.5247878 C97.1588274,17.3007867 97.6628224,17.172788 98.2388253,17.1407878 C98.9268287,17.0927876 99.5508225,17.2207863 100.110825,17.5247878 C100.670828,17.8287894 101.062824,18.2527851 101.286825,18.7967878 C101.414826,19.1007894 101.450826,19.3647867 101.394825,19.5887878 C101.338825,19.812789 101.174827,20.012787 100.902825,20.1887878 Z M98.1428253,18.5567878 C97.9828245,18.588788 97.8108262,18.6447874 97.6268253,18.7247878 C97.4428243,18.8047882 97.274826,18.9047872 97.1228253,19.0247878 C96.9708245,19.1447884 96.8348259,19.2807871 96.7148253,19.4327878 C96.5948247,19.5847886 96.5268253,19.7567869 96.5108253,19.9487878 C96.7828266,19.9487878 97.0828236,19.9247881 97.4108253,19.8767878 C97.7388269,19.8287876 98.0588237,19.7687882 98.3708253,19.6967878 C98.6828268,19.6247875 98.9708239,19.5407883 99.2348253,19.4447878 C99.4988266,19.3487874 99.7188244,19.2447884 99.8948253,19.1327878 C99.7668246,18.8287863 99.530827,18.6407882 99.1868253,18.5687878 C98.8428235,18.4967875 98.494827,18.4927875 98.1428253,18.5567878 Z M107.574825,13.6607878 C107.526825,13.3727864 107.546825,13.108789 107.634825,12.8687878 C107.722826,12.6287866 107.902824,12.492788 108.174825,12.4607878 C108.414826,12.4287877 108.626824,12.492787 108.810825,12.6527878 C108.994826,12.8127886 109.110825,13.0207866 109.158825,13.2767878 C109.478827,15.116797 109.778824,16.9447788 110.058825,18.7607878 C110.338827,20.5767969 110.590824,22.3567791 110.814825,24.1007878 C110.878826,24.5647902 110.846826,24.880787 110.718825,25.0487878 C110.590825,25.2167887 110.438826,25.3407874 110.262825,25.4207878 C110.070824,25.5007882 109.890826,25.5007882 109.722825,25.4207878 C109.554824,25.3407874 109.446826,25.1967889 109.398825,24.9887878 L109.374825,24.8447878 L109.278825,24.8687878 C108.750823,25.0607888 108.198828,25.1687877 107.622825,25.1927878 C107.046822,25.216788 106.494828,25.1487886 105.966825,24.9887878 C105.438823,24.828787 104.970827,24.5687896 104.562825,24.2087878 C104.154823,23.848786 103.862826,23.3887906 103.686825,22.8287878 C103.302823,21.5967817 103.542821,20.4767929 104.406825,19.4687878 C104.774827,19.0527858 105.230823,18.6767895 105.774825,18.3407878 C106.318828,18.0047862 106.974821,17.7407888 107.742825,17.5487878 L108.174825,17.4527878 L107.574825,13.6607878 Z M105.150825,22.2287878 C105.246826,22.6127898 105.422824,22.9087868 105.678825,23.1167878 C105.934827,23.3247889 106.238824,23.4647875 106.590825,23.5367878 C106.942827,23.6087882 107.318823,23.6207881 107.718825,23.5727878 C108.118827,23.5247876 108.510823,23.4367885 108.894825,23.3087878 L109.110825,23.2367878 L108.438825,19.0127878 L107.958825,19.1327878 C107.622824,19.2287883 107.266827,19.3767868 106.890825,19.5767878 C106.514823,19.7767888 106.182827,20.0127865 105.894825,20.2847878 C105.606824,20.5567892 105.386826,20.8607862 105.234825,21.1967878 C105.082825,21.5327895 105.054825,21.8767861 105.150825,22.2287878 Z M20.0828253,40.3967878 C20.3868268,40.3807878 20.6908237,40.452787 20.9948253,40.6127878 C21.2988268,40.7727886 21.4508253,41.0207862 21.4508253,41.3567878 C21.4188251,41.6287892 21.2708266,41.8007875 21.0068253,41.8727878 C20.7428239,41.9447882 20.5308261,41.9807878 20.3708253,41.9807878 C20.0508237,41.9807878 19.7068271,41.9887878 19.3388253,42.0047878 C18.9708234,42.0207879 18.5948272,42.0447877 18.2108253,42.0767878 C18.1788251,42.6047905 18.1508254,43.1007855 18.1268253,43.5647878 C18.1028251,44.0287902 18.0828253,44.440786 18.0668253,44.8007878 C18.0508252,45.1607896 18.0428253,45.4527867 18.0428253,45.6767878 C18.0428253,45.900789 18.0508252,46.0207878 18.0668253,46.0367878 C18.418827,45.9727875 18.7988232,45.8647886 19.2068253,45.7127878 C19.6148273,45.5607871 20.0228232,45.3927888 20.4308253,45.2087878 C20.8388273,45.0247869 21.2388233,44.8327888 21.6308253,44.6327878 C22.0228272,44.4327868 22.3948235,44.2447887 22.7468253,44.0687878 C22.9068261,43.9887874 23.0548246,43.9647877 23.1908253,43.9967878 C23.3268259,44.028788 23.4108251,44.1007873 23.4428253,44.2127878 C23.4748254,44.3887887 23.4508257,44.6047866 23.3708253,44.8607878 C23.2908249,45.1167891 23.1468263,45.3487868 22.9388253,45.5567878 C22.6988241,45.7487888 22.3828272,45.9687866 21.9908253,46.2167878 C21.5988233,46.4647891 21.1788275,46.7007867 20.7308253,46.9247878 C20.282823,47.148789 19.8308275,47.344787 19.3748253,47.5127878 C18.918823,47.6807887 18.514827,47.7807877 18.1628253,47.8127878 C17.6348226,47.8607881 17.2348266,47.7167895 16.9628253,47.3807878 C16.6908239,47.0447862 16.5388254,46.6207904 16.5068253,46.1087878 C16.4748251,45.5967853 16.4708251,45.0047912 16.4948253,44.3327878 C16.5188254,43.6607845 16.5468251,42.9487916 16.5788253,42.1967878 C16.2748237,42.228788 15.9828267,42.2567877 15.7028253,42.2807878 C15.4228239,42.304788 15.1548265,42.3327877 14.8988253,42.3647878 C14.6908242,42.3647878 14.4628265,42.3167883 14.2148253,42.2207878 C13.966824,42.1247874 13.8428253,41.9407892 13.8428253,41.6687878 C13.8428253,41.5727874 13.8828249,41.4447886 13.9628253,41.2847878 C14.0428257,41.124787 14.2188239,41.0047882 14.4908253,40.9247878 C15.1468285,40.8127873 15.8748213,40.7167882 16.6748253,40.6367878 C16.7228255,39.8847841 16.7788249,39.1567914 16.8428253,38.4527878 C16.9068256,37.7487843 16.962825,37.1087907 17.0108253,36.5327878 C17.0268253,36.3407869 17.0828248,36.1727886 17.1788253,36.0287878 C17.2748257,35.8847871 17.3788247,35.8127878 17.4908253,35.8127878 C17.7628266,35.7967878 18.022824,35.8647871 18.2708253,36.0167878 C18.5188265,36.1687886 18.6428253,36.3407869 18.6428253,36.5327878 C18.5788249,37.0767906 18.5188255,37.6927844 18.4628253,38.3807878 C18.406825,39.0687913 18.3548255,39.7727842 18.3068253,40.4927878 C18.6268269,40.4607877 18.9348238,40.4407879 19.2308253,40.4327878 C19.5268267,40.4247878 19.8108239,40.4127879 20.0828253,40.3967878 Z M28.4588253,37.0367878 C28.4268251,37.1967886 28.3148262,37.2847878 28.1228253,37.3007878 C27.9308243,37.3167879 27.7708259,37.3247878 27.6428253,37.3247878 C27.2428233,37.3407879 26.8308274,37.3807875 26.4068253,37.4447878 C25.9828231,37.5087882 25.5388276,37.6047872 25.0748253,37.7327878 C24.8828243,37.7967882 24.6748264,37.7727884 24.4508253,37.6607878 C24.2268241,37.5487873 24.0908255,37.3247895 24.0428253,36.9887878 C24.0428253,36.8607872 24.0908248,36.7567882 24.1868253,36.6767878 C24.2828257,36.5967874 24.3948246,36.5247882 24.5228253,36.4607878 C24.7308263,36.3647874 24.9788238,36.2807882 25.2668253,36.2087878 C25.5548267,36.1367875 25.8468238,36.084788 26.1428253,36.0527878 C26.4388267,36.0207877 26.7228239,36.0087878 26.9948253,36.0167878 C27.2668266,36.0247879 27.4908244,36.0527876 27.6668253,36.1007878 C27.9228265,36.1807882 28.1268245,36.300787 28.2788253,36.4607878 C28.430826,36.6207886 28.4908254,36.8127867 28.4588253,37.0367878 Z M27.9068253,45.0287878 C28.0188258,45.2847891 28.0788252,45.5607864 28.0868253,45.8567878 C28.0948253,46.1527893 28.0108261,46.3567873 27.8348253,46.4687878 C27.6108241,46.6127886 27.3708265,46.6047886 27.1148253,46.4447878 C26.858824,46.284787 26.6668259,46.0687892 26.5388253,45.7967878 C26.3628244,45.4607862 26.2268257,45.0487903 26.1308253,44.5607878 C26.0348248,44.0727854 25.9628255,43.5887902 25.9148253,43.1087878 C25.866825,42.6287854 25.8388253,42.1807899 25.8308253,41.7647878 C25.8228252,41.3487858 25.8188253,41.0367889 25.8188253,40.8287878 C25.8348253,40.6047867 25.8988247,40.3967888 26.0108253,40.2047878 C26.1228258,40.0127869 26.2668244,39.900788 26.4428253,39.8687878 C26.7308267,39.8847879 26.9628244,40.0167866 27.1388253,40.2647878 C27.3148261,40.5127891 27.3948253,40.820786 27.3788253,41.1887878 C27.3788253,41.4767893 27.3868252,41.7967861 27.4028253,42.1487878 C27.4188253,42.5007896 27.450825,42.8527861 27.4988253,43.2047878 C27.5468255,43.5567896 27.6028249,43.8967862 27.6668253,44.2247878 C27.7308256,44.5527895 27.8108248,44.8207868 27.9068253,45.0287878 Z M31.6748253,39.0767878 C31.6908253,39.3327891 31.7188251,39.648786 31.7588253,40.0247878 C31.7988255,40.4007897 31.842825,40.7927858 31.8908253,41.2007878 C31.9388255,41.6087899 31.990825,42.0127858 32.0468253,42.4127878 C32.1028255,42.8127898 32.154825,43.1807862 32.2028253,43.5167878 L32.8508253,42.2207878 C33.1068265,41.7087853 33.3748239,41.2167902 33.6548253,40.7447878 C33.9348267,40.2727855 34.2228238,39.8727895 34.5188253,39.5447878 C34.8148267,39.2167862 35.0828241,39.0527878 35.3228253,39.0527878 C35.5788265,39.0527878 35.8148242,39.1767866 36.0308253,39.4247878 C36.2468263,39.6727891 36.4348245,39.9727861 36.5948253,40.3247878 C36.7548261,40.6767896 36.8948247,41.0527858 37.0148253,41.4527878 C37.1348259,41.8527898 37.2348249,42.2047863 37.3148253,42.5087878 C37.3788256,42.3007868 37.4628247,42.0647892 37.5668253,41.8007878 C37.6708258,41.5367865 37.7828247,41.2647892 37.9028253,40.9847878 C38.0228259,40.7047864 38.1588245,40.4287892 38.3108253,40.1567878 C38.462826,39.8847865 38.6268244,39.6447889 38.8028253,39.4367878 C39.0108263,39.2127867 39.2348241,39.0487884 39.4748253,38.9447878 C39.7148265,38.8407873 39.8908247,38.7887878 40.0028253,38.7887878 C40.146826,38.7887878 40.3188243,38.8327874 40.5188253,38.9207878 C40.7188263,39.0087883 40.9228242,39.1247871 41.1308253,39.2687878 C41.3388263,39.4127886 41.5348243,39.5847868 41.7188253,39.7847878 C41.9028262,39.9847888 42.0508247,40.1887868 42.1628253,40.3967878 C42.3868264,40.82879 42.5668246,41.3007853 42.7028253,41.8127878 C42.8388259,42.3247904 42.9388249,42.8127855 43.0028253,43.2767878 C43.0668256,43.7407902 43.1108251,44.152786 43.1348253,44.5127878 C43.1588254,44.8727896 43.1788252,45.1247871 43.1948253,45.2687878 C43.1948253,45.4767889 43.1708255,45.6327873 43.1228253,45.7367878 C43.074825,45.8407884 42.9868259,45.9247875 42.8588253,45.9887878 C42.6828244,46.0687882 42.5308259,46.096788 42.4028253,46.0727878 C42.2748246,46.0487877 42.1708257,45.9967882 42.0908253,45.9167878 C42.0108249,45.8367874 41.9468255,45.7447884 41.8988253,45.6407878 C41.850825,45.5367873 41.8188253,45.4447882 41.8028253,45.3647878 C41.754825,44.996786 41.7028255,44.6207898 41.6468253,44.2367878 C41.590825,43.8527859 41.5308256,43.4807896 41.4668253,43.1207878 C41.4028249,42.760786 41.3268257,42.4247894 41.2388253,42.1127878 C41.1508248,41.8007863 41.0588257,41.524789 40.9628253,41.2847878 C40.9308251,41.2207875 40.8788256,41.1367884 40.8068253,41.0327878 C40.7348249,40.9287873 40.6548257,40.8287883 40.5668253,40.7327878 C40.4788248,40.6367874 40.3948257,40.5567882 40.3148253,40.4927878 C40.2348249,40.4287875 40.1788254,40.3887879 40.1468253,40.3727878 C39.9868245,40.3727878 39.8188261,40.5207864 39.6428253,40.8167878 C39.4668244,41.1127893 39.2988261,41.4687858 39.1388253,41.8847878 C38.9788245,42.3007899 38.8308259,42.7367856 38.6948253,43.1927878 C38.5588246,43.6487901 38.4588256,44.0367862 38.3948253,44.3567878 C38.3948253,44.7727899 38.3148261,45.0807868 38.1548253,45.2807878 C37.9948245,45.4807888 37.8268261,45.5807878 37.6508253,45.5807878 C37.4748244,45.5807878 37.2868263,45.5127885 37.0868253,45.3767878 C36.8868243,45.2407872 36.7548256,45.0847887 36.6908253,44.9087878 C36.5948248,44.6527866 36.4908258,44.3647894 36.3788253,44.0447878 C36.2668247,43.7247862 36.1508259,43.3967895 36.0308253,43.0607878 C35.9108247,42.7247862 35.7908259,42.3967894 35.6708253,42.0767878 C35.5508247,41.7567862 35.4348258,41.4687891 35.3228253,41.2127878 C35.0988241,41.5167894 34.8788263,41.852786 34.6628253,42.2207878 C34.4468242,42.5887897 34.2388263,42.9647859 34.0388253,43.3487878 C33.8388243,43.7327898 33.6468262,44.112786 33.4628253,44.4887878 C33.2788243,44.8647897 33.1068261,45.1967864 32.9468253,45.4847878 C32.8348247,45.6607887 32.7148259,45.8167872 32.5868253,45.9527878 C32.4588246,46.0887885 32.3068261,46.1567878 32.1308253,46.1567878 C32.0028246,46.1567878 31.866826,46.0967884 31.7228253,45.9767878 C31.5788245,45.8567872 31.4428259,45.7087887 31.3148253,45.5327878 C31.1868246,45.356787 31.0708258,45.156789 30.9668253,44.9327878 C30.8628247,44.7087867 30.7868255,44.484789 30.7388253,44.2607878 C30.6108246,43.5727844 30.5028257,42.816792 30.4148253,41.9927878 C30.3268248,41.1687837 30.2428257,40.3647918 30.1628253,39.5807878 C30.1468252,39.3087865 30.1828248,39.056789 30.2708253,38.8247878 C30.3588257,38.5927867 30.530824,38.4367882 30.7868253,38.3567878 C31.0588266,38.3087876 31.2668245,38.3487872 31.4108253,38.4767878 C31.554826,38.6047885 31.6428251,38.8047865 31.6748253,39.0767878 Z M50.9468253,41.1887878 C50.3228221,41.5567897 49.6508289,41.8407868 48.9308253,42.0407878 C48.2108217,42.2407888 47.4348294,42.3407878 46.6028253,42.3407878 C46.6348254,42.9007906 46.7948238,43.3447862 47.0828253,43.6727878 C47.3708267,44.0007895 47.7308231,44.1967875 48.1628253,44.2607878 C48.4188265,44.292788 48.6788239,44.2847881 48.9428253,44.2367878 C49.2068266,44.1887876 49.4548241,44.1127884 49.6868253,44.0087878 C49.9188264,43.9047873 50.1308243,43.7887885 50.3228253,43.6607878 C50.5148262,43.5327872 50.6828245,43.4047885 50.8268253,43.2767878 C50.970826,43.1487872 51.1228245,43.064788 51.2828253,43.0247878 C51.4428261,42.9847876 51.5628249,42.9807877 51.6428253,43.0127878 C51.8668264,43.0927882 51.9468256,43.3327858 51.8828253,43.7327878 C51.626824,44.2447904 51.2588277,44.680786 50.7788253,45.0407878 C50.2988229,45.4007896 49.7628282,45.6287874 49.1708253,45.7247878 C48.6588227,45.8207883 48.130828,45.7967886 47.5868253,45.6527878 C47.0428225,45.5087871 46.5548274,45.2287899 46.1228253,44.8127878 C45.7548234,44.444786 45.4748262,44.0127903 45.2828253,43.5167878 C45.0908243,43.0207854 44.9708255,42.5087905 44.9228253,41.9807878 C44.874825,41.4847854 44.9188246,41.0127901 45.0548253,40.5647878 C45.1908259,40.1167856 45.4028238,39.7207896 45.6908253,39.3767878 C45.9788267,39.0327861 46.3388231,38.748789 46.7708253,38.5247878 C47.2028274,38.3007867 47.7068224,38.172788 48.2828253,38.1407878 C48.9708287,38.0927876 49.5948225,38.2207863 50.1548253,38.5247878 C50.7148281,38.8287894 51.1068241,39.2527851 51.3308253,39.7967878 C51.4588259,40.1007894 51.4948255,40.3647867 51.4388253,40.5887878 C51.382825,40.812789 51.2188266,41.012787 50.9468253,41.1887878 Z M48.1868253,39.5567878 C48.0268245,39.588788 47.8548262,39.6447874 47.6708253,39.7247878 C47.4868243,39.8047882 47.318826,39.9047872 47.1668253,40.0247878 C47.0148245,40.1447884 46.8788259,40.2807871 46.7588253,40.4327878 C46.6388247,40.5847886 46.5708253,40.7567869 46.5548253,40.9487878 C46.8268266,40.9487878 47.1268236,40.9247881 47.4548253,40.8767878 C47.7828269,40.8287876 48.1028237,40.7687882 48.4148253,40.6967878 C48.7268268,40.6247875 49.0148239,40.5407883 49.2788253,40.4447878 C49.5428266,40.3487874 49.7628244,40.2447884 49.9388253,40.1327878 C49.8108246,39.8287863 49.574827,39.6407882 49.2308253,39.5687878 C48.8868235,39.4967875 48.538827,39.4927875 48.1868253,39.5567878 Z M65.8028253,38.4527878 C66.2828277,38.6287887 66.6868236,38.8927861 67.0148253,39.2447878 C67.3428269,39.5967896 67.5948244,39.9927856 67.7708253,40.4327878 C67.9468261,40.87279 68.0468251,41.3247855 68.0708253,41.7887878 C68.0948254,42.2527902 68.0428259,42.6847858 67.9148253,43.0847878 C67.7388244,43.5327901 67.5148266,43.9727857 67.2428253,44.4047878 C66.9708239,44.83679 66.658827,45.2207862 66.3068253,45.5567878 C65.9548235,45.8927895 65.5548275,46.1647868 65.1068253,46.3727878 C64.658823,46.5807889 64.162828,46.6847878 63.6188253,46.6847878 C62.962822,46.6847878 62.4108275,46.5327894 61.9628253,46.2287878 C61.514823,45.9247863 61.1628265,45.5327902 60.9068253,45.0527878 C60.650824,44.5727854 60.4868256,44.0287909 60.4148253,43.4207878 C60.3428249,42.8127848 60.3548248,42.2047909 60.4508253,41.5967878 C60.5148256,41.1487856 60.6228245,40.71279 60.7748253,40.2887878 C60.926826,39.8647857 61.1228241,39.4887895 61.3628253,39.1607878 C61.6028265,38.8327862 61.8788237,38.5647889 62.1908253,38.3567878 C62.5028268,38.1487868 62.8588233,38.0447878 63.2588253,38.0447878 C63.4828264,38.0447878 63.7628236,38.0887874 64.0988253,38.1767878 C64.4348269,38.2647883 64.7468238,38.388787 65.0348253,38.5487878 C65.2428263,38.3567869 65.4988237,38.3247872 65.8028253,38.4527878 Z M64.8908253,40.2047878 C64.7148244,40.0927873 64.5108264,39.9447888 64.2788253,39.7607878 C64.0468241,39.5767869 63.8428261,39.4847878 63.6668253,39.4847878 C63.4748243,39.4847878 63.2868262,39.572787 63.1028253,39.7487878 C62.9188243,39.9247887 62.7588259,40.1287867 62.6228253,40.3607878 C62.4868246,40.592789 62.3708257,40.8287866 62.2748253,41.0687878 C62.1788248,41.308789 62.1148254,41.5007871 62.0828253,41.6447878 C62.034825,41.884789 62.0028253,42.1727862 61.9868253,42.5087878 C61.9708252,42.8447895 61.9948249,43.1767862 62.0588253,43.5047878 C62.1228256,43.8327895 62.2468243,44.1287865 62.4308253,44.3927878 C62.6148262,44.6567892 62.8908234,44.8447873 63.2588253,44.9567878 C63.4828264,45.0207882 63.7468237,45.0167882 64.0508253,44.9447878 C64.3548268,44.8727875 64.6548238,44.7407888 64.9508253,44.5487878 C65.2468267,44.3567869 65.5268239,44.1007894 65.7908253,43.7807878 C66.0548266,43.4607862 66.2588245,43.0927899 66.4028253,42.6767878 C66.5628261,42.2127855 66.566826,41.7287904 66.4148253,41.2247878 C66.2628245,40.7207853 65.9548276,40.356789 65.4908253,40.1327878 C65.3788247,40.2127882 65.2668258,40.2527878 65.1548253,40.2527878 C65.0428247,40.2527878 64.9548256,40.236788 64.8908253,40.2047878 Z M71.5148253,38.9087878 C71.5628255,39.148789 71.614825,39.4167864 71.6708253,39.7127878 C71.7268255,40.0087893 71.7868249,40.3127863 71.8508253,40.6247878 C71.9148256,40.9367894 71.970825,41.2527862 72.0188253,41.5727878 C72.0668255,41.8927894 72.1068251,42.1967864 72.1388253,42.4847878 C72.3308262,42.0687858 72.5388241,41.6287902 72.7628253,41.1647878 C72.9868264,40.7007855 73.2308239,40.2727898 73.4948253,39.8807878 C73.7588266,39.4887859 74.0388238,39.1647891 74.3348253,38.9087878 C74.6308267,38.6527866 74.9548235,38.5247878 75.3068253,38.5247878 C75.8348279,38.5247878 76.2788235,38.7167859 76.6388253,39.1007878 C76.9988271,39.4847898 77.302824,39.960785 77.5508253,40.5287878 C77.7988265,41.0967907 77.9948245,41.6927847 78.1388253,42.3167878 C78.282826,42.940791 78.4028248,43.4927854 78.4988253,43.9727878 C78.5948257,44.40479 78.4028277,44.7247868 77.9228253,44.9327878 C77.6988241,45.0447884 77.5308258,45.0607882 77.4188253,44.9807878 C77.3068247,44.9007874 77.2428253,44.8207882 77.2268253,44.7407878 C77.1468249,44.5487869 77.0468259,44.2127902 76.9268253,43.7327878 C76.8068247,43.2527854 76.670826,42.7647903 76.5188253,42.2687878 C76.3668245,41.7727854 76.1948262,41.3407897 76.0028253,40.9727878 C75.8108243,40.604786 75.5948265,40.4367877 75.3548253,40.4687878 C75.0668238,40.4847879 74.8108264,40.7007858 74.5868253,41.1167878 C74.3948243,41.4527895 74.1988263,41.8247858 73.9988253,42.2327878 C73.7988243,42.6407899 73.6028262,43.0567857 73.4108253,43.4807878 C73.2188243,43.90479 73.0308262,44.3287857 72.8468253,44.7527878 C72.6628243,45.17679 72.4908261,45.5647861 72.3308253,45.9167878 C72.2188247,46.0287884 72.0788261,46.1047876 71.9108253,46.1447878 C71.7428244,46.184788 71.5708261,46.1727882 71.3948253,46.1087878 C71.2348245,46.0607876 71.1068257,45.9807884 71.0108253,45.8687878 C70.9148248,45.7567873 70.8668253,45.6447884 70.8668253,45.5327878 C70.7228245,44.2847816 70.574826,43.148793 70.4228253,42.1247878 C70.2708245,41.1007827 70.0748265,40.0527932 69.8348253,38.9807878 C69.7228247,38.612786 69.7028249,38.3207889 69.7748253,38.1047878 C69.8468256,37.8887868 70.0828233,37.8047876 70.4828253,37.8527878 C71.0428281,37.9487883 71.3868246,38.3007848 71.5148253,38.9087878 Z M82.1708253,35.5967878 C82.2508257,37.3407966 82.3868243,39.1447785 82.5788253,41.0087878 C82.7708262,42.8727972 82.9788241,44.6527794 83.2028253,46.3487878 C83.2508255,47.0527914 83.0588274,47.4127878 82.6268253,47.4287878 C82.5308248,47.4287878 82.4348257,47.3927882 82.3388253,47.3207878 C82.2428248,47.2487875 82.1548257,47.1567884 82.0748253,47.0447878 C81.9948249,46.9327873 81.9188256,46.8127885 81.8468253,46.6847878 C81.7748249,46.5567872 81.7308253,46.4447883 81.7148253,46.3487878 C81.5868246,45.5327838 81.4668258,44.6687924 81.3548253,43.7567878 C81.2428247,42.8447833 81.1428257,41.9287924 81.0548253,41.0087878 C80.9668248,40.0887832 80.8908256,39.1887922 80.8268253,38.3087878 C80.7628249,37.4287834 80.7228253,36.6207915 80.7068253,35.8847878 C80.7388254,35.5007859 80.7948249,35.1767892 80.8748253,34.9127878 C80.9548257,34.6487865 81.122824,34.5247878 81.3788253,34.5407878 C81.6508266,34.5567879 81.8468247,34.6647868 81.9668253,34.8647878 C82.0868259,35.0647888 82.1548252,35.3087864 82.1708253,35.5967878 Z M92.6108253,39.2687878 C92.6588255,40.1327922 92.710825,41.0047834 92.7668253,41.8847878 C92.8228255,42.7647922 92.8348254,43.6327836 92.8028253,44.4887878 C92.7708251,45.3447921 92.6868259,46.1807838 92.5508253,46.9967878 C92.4148246,47.8127919 92.1868269,48.5927841 91.8668253,49.3367878 C91.5468237,50.0807916 91.1188279,50.7727846 90.5828253,51.4127878 C90.0468226,52.052791 89.3708293,52.6287853 88.5548253,53.1407878 C88.4268246,53.2207882 88.286826,53.2687878 88.1348253,53.2847878 C87.9828245,53.3007879 87.834826,53.296788 87.6908253,53.2727878 C87.5468245,53.2487877 87.4188258,53.2087881 87.3068253,53.1527878 C87.1948247,53.0967876 87.1228254,53.0207883 87.0908253,52.9247878 C87.042825,52.7807871 87.0668248,52.6207887 87.1628253,52.4447878 C87.2588257,52.268787 87.4188241,52.0847888 87.6428253,51.8927878 C88.3468288,51.3647852 88.9388229,50.8047908 89.4188253,50.2127878 C89.8988277,49.6207849 90.2828238,48.9807913 90.5708253,48.2927878 C90.8588267,47.6047844 91.0468248,46.8567919 91.1348253,46.0487878 C91.2228257,45.2407838 91.2188257,44.3567926 91.1228253,43.3967878 C90.9308243,43.636789 90.7068265,43.8847866 90.4508253,44.1407878 C90.194824,44.3967891 89.9228267,44.6247868 89.6348253,44.8247878 C89.3468238,45.0247888 89.0508268,45.1927872 88.7468253,45.3287878 C88.4428237,45.4647885 88.1548266,45.5327878 87.8828253,45.5327878 C87.6588241,45.5327878 87.4348264,45.4847883 87.2108253,45.3887878 C86.9868241,45.2927874 86.7628264,45.1087892 86.5388253,44.8367878 C86.282824,44.5007862 86.0548263,44.12079 85.8548253,43.6967878 C85.6548243,43.2727857 85.482826,42.8607898 85.3388253,42.4607878 C85.1948245,42.0607858 85.0788257,41.7007894 84.9908253,41.3807878 C84.9028248,41.0607862 84.8508253,40.8367885 84.8348253,40.7087878 C84.8028251,40.548787 84.8028251,40.3967886 84.8348253,40.2527878 C84.8668254,40.1087871 84.9708244,40.020788 85.1468253,39.9887878 C85.3868265,39.9407876 85.6108242,39.9567874 85.8188253,40.0367878 C86.0268263,40.1167882 86.1708249,40.244787 86.2508253,40.4207878 C86.3148256,40.5967887 86.4028247,40.868786 86.5148253,41.2367878 C86.6268258,41.6047897 86.7628245,41.968786 86.9228253,42.3287878 C87.0828261,42.6887896 87.2548243,43.0047865 87.4388253,43.2767878 C87.6228262,43.5487892 87.8188242,43.6847878 88.0268253,43.6847878 C88.2668265,43.6847878 88.5508236,43.564789 88.8788253,43.3247878 C89.2068269,43.0847866 89.5228237,42.7727898 89.8268253,42.3887878 C90.1308268,42.0047859 90.3908242,41.5767902 90.6068253,41.1047878 C90.8228263,40.6327855 90.9308253,40.1727901 90.9308253,39.7247878 C90.9308253,39.6287874 90.9468251,39.5167885 90.9788253,39.3887878 C91.0108254,39.2607872 91.0588249,39.1367884 91.1228253,39.0167878 C91.1868256,38.8967872 91.2628248,38.7927883 91.3508253,38.7047878 C91.4388257,38.6167874 91.5308248,38.5647879 91.6268253,38.5487878 C91.8828265,38.5167877 92.1108243,38.584787 92.3108253,38.7527878 C92.5108263,38.9207887 92.6108253,39.092787 92.6108253,39.2687878 Z M98.7068253,34.2527878 C98.5628245,34.9567914 98.414826,35.6527844 98.2628253,36.3407878 C98.1108245,37.0287913 97.9708259,37.7167844 97.8428253,38.4047878 C97.7148246,39.0927913 97.6188256,39.7807844 97.5548253,40.4687878 C97.4908249,41.1567913 97.482825,41.8447844 97.5308253,42.5327878 C97.5628254,42.7087887 97.5348257,42.876787 97.4468253,43.0367878 C97.3588248,43.1967886 97.2588258,43.3007876 97.1468253,43.3487878 C96.7948235,43.4767885 96.5388261,43.3887894 96.3788253,43.0847878 C96.1868243,42.2687838 96.0868253,41.4607918 96.0788253,40.6607878 C96.0708252,39.8607838 96.1268247,39.0687918 96.2468253,38.2847878 C96.3668259,37.5007839 96.5268243,36.7207917 96.7268253,35.9447878 C96.9268263,35.168784 97.1308242,34.3967917 97.3388253,33.6287878 C97.4188257,33.3087862 97.5468244,33.132788 97.7228253,33.1007878 C97.8988261,33.0687877 98.0668245,33.0847875 98.2268253,33.1487878 C98.4668265,33.2287882 98.6188249,33.3887866 98.6828253,33.6287878 C98.7468256,33.868789 98.7548255,34.076787 98.7068253,34.2527878 Z M97.7468253,47.1647878 C97.7468253,47.3407887 97.7268255,47.5767864 97.6868253,47.8727878 C97.6468251,48.1687893 97.5828257,48.4447866 97.4948253,48.7007878 C97.4068248,48.9567891 97.286826,49.164787 97.1348253,49.3247878 C96.9828245,49.4847886 96.7948264,49.5167883 96.5708253,49.4207878 C96.4428246,49.3407874 96.3148259,49.188789 96.1868253,48.9647878 C96.0588246,48.7407867 96.0028252,48.5327888 96.0188253,48.3407878 C96.0508254,47.9567859 96.1308246,47.5807897 96.2588253,47.2127878 C96.3868259,46.844786 96.5548242,46.6207882 96.7628253,46.5407878 C96.8588257,46.5087877 96.9668247,46.5087877 97.0868253,46.5407878 C97.2068259,46.572788 97.3148248,46.6247875 97.4108253,46.6967878 C97.5068257,46.7687882 97.5868249,46.8487874 97.6508253,46.9367878 C97.7148256,47.0247883 97.7468253,47.1007875 97.7468253,47.1647878 Z" fill="#25262A" transform="translate(56.943325, 32.873588) rotate(-14.000000) translate(-56.943325, -32.873588) "></path>
            <g transform="translate(60.907202, 72.808792) scale(-1, -1) rotate(78.000000) translate(-60.907202, -72.808792) translate(42.907202, 55.308792)" stroke-width="2" stroke="#FFD001">
                <path d="M2.21631294,11.8952043 C2.21631294,11.8952043 20.1071866,39.410367 34.2478898,19.2623842" transform="translate(18.232101, 19.266794) rotate(36.000000) translate(-18.232101, -19.266794) "></path>
                <path d="M6.58251595,11.8817395 C6.58251595,11.8817395 6.02334498,8.24426797 5.86432372,7.51244766 C5.70530245,6.78062735 3.97227461,2.93035808 3.97227461,2.93035808 C3.97227461,2.93035808 6.66525425,3.36680178 9.05744571,3.12465163 C11.4496372,2.88250148 14.3218757,2.99165307 14.3218757,2.99165307" transform="translate(9.147075, 7.406049) rotate(40.000000) translate(-9.147075, -7.406049) "></path>
            </g>
        </g>
    </g>
</svg>