<?xml version="1.0" encoding="UTF-8"?>
<svg width="122px" height="34px" viewBox="0 0 122 34" version="1.1" xmlns="http://www.w3.org/2000/svg" xmlns:xlink="http://www.w3.org/1999/xlink">
    <!-- Generator: Sketch 47.1 (45422) - http://www.bohemiancoding.com/sketch -->
    <title>Artboard 5</title>
    <desc>Created with Sketch.</desc>
    <defs></defs>
    <g stroke="none" stroke-width="1" fill="none" fill-rule="evenodd">
        <g>
            <g transform="translate(63.727524, 21.398644) rotate(-4.000000) translate(-63.727524, -21.398644) translate(-0.272476, -5.601356)">
                <g transform="translate(-0.000000, 0.000000)">
                    <path d="M17.988,14.28 C17.988,15.4373391 17.7733355,16.4126627 17.344,17.206 C16.9146645,17.9993373 16.3360036,18.6386642 15.608,19.124 C14.8799964,19.6093358 14.0400048,19.9639989 13.088,20.188 C12.1359952,20.4120011 11.1466718,20.524 10.12,20.524 L7.74,20.524 L7.74,28 L2.952,28 L2.952,8.176 L10.232,8.176 C11.3146721,8.176 12.3273286,8.28333226 13.27,8.498 C14.2126714,8.71266774 15.0339965,9.05799762 15.734,9.534 C16.4340035,10.0100024 16.9846647,10.6353295 17.386,11.41 C17.7873353,12.1846705 17.988,13.1413276 17.988,14.28 Z M13.2,14.308 C13.2,13.841331 13.1066676,13.4586682 12.92,13.16 C12.7333324,12.8613318 12.4813349,12.6280008 12.164,12.46 C11.8466651,12.2919992 11.4873353,12.1800003 11.086,12.124 C10.6846647,12.0679997 10.2693355,12.04 9.84,12.04 L7.74,12.04 L7.74,16.716 L9.756,16.716 C10.2040022,16.716 10.6333313,16.678667 11.044,16.604 C11.4546687,16.529333 11.8233317,16.3986676 12.15,16.212 C12.4766683,16.0253324 12.7333324,15.7780015 12.92,15.47 C13.1066676,15.1619985 13.2,14.774669 13.2,14.308 Z M20.872,28 L20.872,8.176 L25.688,8.176 L25.688,23.828 L33.36,23.828 L33.36,28 L20.872,28 Z M51.728,20.524 C51.728,21.7186726 51.5273353,22.8059951 51.126,23.786 C50.7246647,24.7660049 50.1506704,25.6059965 49.404,26.306 C48.6573296,27.0060035 47.7566719,27.551998 46.702,27.944 C45.6473281,28.336002 44.4760064,28.532 43.188,28.532 C41.8813268,28.532 40.7053386,28.336002 39.66,27.944 C38.6146614,27.551998 37.7280036,27.0060035 37,26.306 C36.2719964,25.6059965 35.712002,24.7660049 35.32,23.786 C34.927998,22.8059951 34.732,21.7186726 34.732,20.524 L34.732,8.176 L39.492,8.176 L39.492,20.132 C39.492,20.673336 39.5619993,21.1866642 39.702,21.672 C39.8420007,22.1573358 40.0566652,22.5913314 40.346,22.974 C40.6353348,23.3566686 41.0179976,23.6599989 41.494,23.884 C41.9700024,24.1080011 42.5439966,24.22 43.216,24.22 C43.8880034,24.22 44.4619976,24.1080011 44.938,23.884 C45.4140024,23.6599989 45.8013318,23.3566686 46.1,22.974 C46.3986682,22.5913314 46.6133327,22.1573358 46.744,21.672 C46.8746673,21.1866642 46.94,20.673336 46.94,20.132 L46.94,8.176 L51.728,8.176 L51.728,20.524 Z M66.064,13.328 C65.6533313,12.8053307 65.11667,12.3900015 64.454,12.082 C63.79133,11.7739985 63.1520031,11.62 62.536,11.62 C62.2186651,11.62 61.8966683,11.6479997 61.57,11.704 C61.2433317,11.7600003 60.9493346,11.8673325 60.688,12.026 C60.4266654,12.1846675 60.2073342,12.3899987 60.03,12.642 C59.8526658,12.8940013 59.764,13.215998 59.764,13.608 C59.764,13.9440017 59.8339993,14.2239989 59.974,14.448 C60.1140007,14.6720011 60.319332,14.8679992 60.59,15.036 C60.860668,15.2040008 61.1826648,15.3579993 61.556,15.498 C61.9293352,15.6380007 62.349331,15.7826659 62.816,15.932 C63.4880034,16.1560011 64.1879964,16.403332 64.916,16.674 C65.6440036,16.944668 66.3066637,17.3039978 66.904,17.752 C67.5013363,18.2000022 67.995998,18.75533 68.388,19.418 C68.780002,20.08067 68.976,20.9066617 68.976,21.896 C68.976,23.0346724 68.7660021,24.0193292 68.346,24.85 C67.9259979,25.6806708 67.3613369,26.366664 66.652,26.908 C65.9426631,27.449336 65.1306712,27.8506654 64.216,28.112 C63.3013288,28.3733346 62.3586715,28.504 61.388,28.504 C59.9693262,28.504 58.59734,28.2566691 57.272,27.762 C55.94666,27.2673309 54.8453377,26.5626712 53.968,25.648 L57.104,22.456 C57.5893358,23.0533363 58.2286627,23.5526647 59.022,23.954 C59.8153373,24.3553353 60.6039961,24.556 61.388,24.556 C61.7426684,24.556 62.0879983,24.518667 62.424,24.444 C62.7600017,24.369333 63.0539987,24.2480008 63.306,24.08 C63.5580013,23.9119992 63.7586659,23.6880014 63.908,23.408 C64.0573341,23.1279986 64.132,22.792002 64.132,22.4 C64.132,22.0266648 64.0386676,21.7093346 63.852,21.448 C63.6653324,21.1866654 63.3993351,20.9486677 63.054,20.734 C62.7086649,20.5193323 62.2793359,20.3233342 61.766,20.146 C61.2526641,19.9686658 60.6693366,19.7773344 60.016,19.572 C59.3813302,19.3666656 58.7606697,19.1240014 58.154,18.844 C57.5473303,18.5639986 57.0060024,18.2046689 56.53,17.766 C56.0539976,17.3273311 55.6713348,16.7953365 55.382,16.17 C55.0926652,15.5446635 54.948,14.7840045 54.948,13.888 C54.948,12.7866612 55.1719978,11.8440039 55.62,11.06 C56.0680022,10.2759961 56.6559964,9.63200252 57.384,9.128 C58.1120036,8.62399748 58.9333288,8.2553345 59.848,8.022 C60.7626712,7.7886655 61.686662,7.672 62.62,7.672 C63.7400056,7.672 64.8833275,7.87733128 66.05,8.288 C67.2166725,8.69866872 68.2386623,9.30532932 69.116,10.108 L66.064,13.328 Z M72.728,21.364 L72.728,8.176 L77.432,8.176 L77.432,21.364 L72.728,21.364 Z M77.824,25.62 C77.824,25.9933352 77.7540007,26.3433317 77.614,26.67 C77.4739993,26.9966683 77.2780013,27.2766655 77.026,27.51 C76.7739987,27.7433345 76.4800017,27.9299993 76.144,28.07 C75.8079983,28.2100007 75.4533352,28.28 75.08,28.28 C74.7066648,28.28 74.3566683,28.2146673 74.03,28.084 C73.7033317,27.9533327 73.4186679,27.7666679 73.176,27.524 C72.9333321,27.2813321 72.7373341,27.0013349 72.588,26.684 C72.4386659,26.3666651 72.364,26.0213352 72.364,25.648 C72.364,25.2933316 72.4339993,24.9526683 72.574,24.626 C72.7140007,24.2993317 72.9053321,24.0146679 73.148,23.772 C73.3906679,23.5293321 73.6799983,23.3380007 74.016,23.198 C74.3520017,23.0579993 74.7066648,22.988 75.08,22.988 C75.4533352,22.988 75.8079983,23.0579993 76.144,23.198 C76.4800017,23.3380007 76.7739987,23.5246655 77.026,23.758 C77.2780013,23.9913345 77.4739993,24.2713317 77.614,24.598 C77.7540007,24.9246683 77.824,25.2653316 77.824,25.62 Z" fill="#25262A"></path>
                    <g transform="translate(100.943751, 26.833135) scale(-1, -1) rotate(36.000000) translate(-100.943751, -26.833135) translate(81.443751, 7.833135)" stroke-width="2" stroke="#25262A">
                        <path d="M9.0381569,33.3982423 C9.0381569,33.3982423 34.5252035,34.8967394 31.6471557,4.08734522" transform="translate(20.455961, 18.748682) rotate(36.000000) translate(-20.455961, -18.748682) "></path>
                        <path d="M3.7050383,31.9510899 C3.7050383,31.9510899 3.14586733,28.3136183 2.98684607,27.581798 C2.8278248,26.8499777 1.09479696,22.9997084 1.09479696,22.9997084 C1.09479696,22.9997084 3.7877766,23.4361521 6.17996806,23.194002 C8.57215952,22.9518518 11.4443981,23.0610034 11.4443981,23.0610034" transform="translate(6.269598, 27.475399) rotate(-5.000000) translate(-6.269598, -27.475399) "></path>
                    </g>
                    <path d="M2.01705165,33.5117047 C2.01705165,33.5117047 9.48076888,34.3418569 25.4477638,34.3553772 C41.4147588,34.3688975 62.0650678,33.5650996 79.6670532,33.5349259" stroke="#FFD001" stroke-width="2" stroke-linecap="round" stroke-linejoin="round"></path>
                </g>
            </g>
        </g>
    </g>
</svg>