<?xml version="1.0" encoding="UTF-8"?>
<svg width="268px" height="82px" viewBox="0 0 268 82" version="1.1" xmlns="http://www.w3.org/2000/svg" xmlns:xlink="http://www.w3.org/1999/xlink">
    <!-- Generator: Sketch 47.1 (45422) - http://www.bohemiancoding.com/sketch -->
    <title>Artboard 4</title>
    <desc>Created with Sketch.</desc>
    <defs></defs>
    <g stroke="none" stroke-width="1" fill="none" fill-rule="evenodd">
        <g>
            <path d="M11.4541861,35.5186526 C9.94351188,35.4453189 8.4915264,35.5626511 7.0981861,35.8706526 C5.7048458,36.1786542 4.32619292,36.59665 2.9621861,37.1246526 C2.61018434,37.2566533 2.34252035,37.2419868 2.1591861,37.0806526 C1.97585185,36.9193185 1.8841861,36.7579868 1.8841861,36.5966526 C1.98685328,36.3179846 2.17018478,36.0906535 2.4341861,35.9146526 C5.4408678,34.4479786 8.4475044,33.9053174 11.4541861,34.2866526 C11.6008535,34.3306529 11.7218523,34.4369851 11.8171861,34.6056526 C11.9125199,34.7743202 11.9455196,34.9173187 11.9161861,35.0346526 C11.8868526,35.18132 11.8428531,35.3023188 11.7841861,35.3976526 C11.7255191,35.4929865 11.6155202,35.5333194 11.4541861,35.5186526 Z M8.3301861,43.1966526 C8.3301861,43.3579868 8.27518665,43.5009854 8.1651861,43.6256526 C8.05518555,43.7503199 7.91952024,43.8273192 7.7581861,43.8566526 C7.4648513,43.9006529 7.27418654,43.84932 7.1861861,43.7026526 C7.09818566,43.5559852 7.04685284,43.3873203 7.0321861,43.1966526 C7.01751936,42.1699808 6.99918621,41.1469911 6.9771861,40.1276526 C6.95518599,39.1083142 6.9075198,38.0853244 6.8341861,37.0586526 C6.8341861,36.9999857 6.82685284,36.9303197 6.8121861,36.8496526 C6.79751936,36.7689856 6.79751936,36.6883197 6.8121861,36.6076526 C6.82685284,36.5269856 6.85985251,36.4573196 6.9111861,36.3986526 C6.96251969,36.3399857 7.04685218,36.2959861 7.1641861,36.2666526 C7.50152112,36.2079857 7.7435187,36.2629851 7.8901861,36.4316526 C8.0368535,36.6003202 8.1101861,36.7653185 8.1101861,36.9266526 C8.22752002,37.9826579 8.30085262,39.0313141 8.3301861,40.0726526 C8.35951958,41.1139912 8.35951958,42.1553141 8.3301861,43.1966526 Z M14.7981861,34.5286526 C14.7981861,34.8806544 14.7945195,35.2766504 14.7871861,35.7166526 C14.7798527,36.1566548 14.7798527,36.611317 14.7871861,37.0806526 C14.7945195,37.5499883 14.8018527,38.0339835 14.8091861,38.5326526 C14.8165195,39.0313218 14.8275194,39.5079837 14.8421861,39.9626526 C14.9888535,39.6693178 15.1648517,39.3796541 15.3701861,39.0936526 C15.5755205,38.8076512 15.8065181,38.5546537 16.0631861,38.3346526 C16.319854,38.1146515 16.5911847,37.9386533 16.8771861,37.8066526 C17.1631875,37.674652 17.4748511,37.6086526 17.8121861,37.6086526 C18.1788546,37.6086526 18.5051847,37.7259848 18.7911861,37.9606526 C19.0771875,38.1953205 19.3265184,38.506984 19.5391861,38.8956526 C19.7518538,39.2843213 19.9315187,39.7169836 20.0781861,40.1936526 C20.2248535,40.6703217 20.3458523,41.1543169 20.4411861,41.6456526 C20.5365199,42.1369884 20.6061859,42.6063171 20.6501861,43.0536526 C20.6941863,43.5009882 20.7308526,43.8859844 20.7601861,44.2086526 C20.7601861,44.4433205 20.70152,44.6339852 20.5841861,44.7806526 C20.4668522,44.92732 20.3275202,45.0006526 20.1661861,45.0006526 C20.0488522,45.0006526 19.9058536,44.9236534 19.7371861,44.7696526 C19.5685186,44.6156519 19.4475198,44.4286537 19.3741861,44.2086526 C19.3301859,44.0326518 19.2861863,43.7759877 19.2421861,43.4386526 C19.1981859,43.1013176 19.1468531,42.7383213 19.0881861,42.3496526 C19.0295191,41.960984 18.9561865,41.5686546 18.8681861,41.1726526 C18.7801857,40.7766507 18.6738534,40.4209876 18.5491861,40.1056526 C18.4245188,39.7903177 18.274187,39.5446535 18.0981861,39.3686526 C17.9221852,39.1926518 17.7168539,39.1266524 17.4821861,39.1706526 C17.1155176,39.2439863 16.7965208,39.5006504 16.5251861,39.9406526 C16.2538514,40.3806548 16.0191871,40.8793165 15.8211861,41.4366526 C15.6231851,41.9939888 15.4618534,42.5586498 15.3371861,43.1306526 C15.2125188,43.7026555 15.1208531,44.1646509 15.0621861,44.5166526 C15.0035191,44.780654 14.9265199,44.9603188 14.8311861,45.0556526 C14.7358523,45.1509865 14.62952,45.1986526 14.5121861,45.1986526 C14.3948522,45.1986526 14.2885199,45.1399866 14.1931861,45.0226526 C14.0978523,44.9053187 14.0098532,44.7623202 13.9291861,44.5936526 C13.848519,44.4249851 13.7788531,44.2489869 13.7201861,44.0656526 C13.6615191,43.8823184 13.6248528,43.7246533 13.6101861,43.5926526 C13.5368524,42.8006487 13.4781863,42.0416563 13.4341861,41.3156526 C13.3901859,40.589649 13.3571862,39.8599896 13.3351861,39.1266526 C13.313186,38.3933156 13.3021861,37.6416565 13.3021861,36.8716526 C13.3021861,36.1016488 13.3168526,35.276657 13.3461861,34.3966526 C13.3461861,33.6633156 13.6101835,33.3333189 14.1381861,33.4066526 C14.314187,33.4359861 14.4681854,33.5643182 14.6001861,33.7916526 C14.7321868,34.0189871 14.7981861,34.2646513 14.7981861,34.5286526 Z M26.0401861,35.2986526 C26.0108526,35.44532 25.908187,35.5259859 25.7321861,35.5406526 C25.5561852,35.5553194 25.40952,35.5626526 25.2921861,35.5626526 C24.9255176,35.5773194 24.5478547,35.6139857 24.1591861,35.6726526 C23.7705175,35.7313196 23.3635216,35.8193187 22.9381861,35.9366526 C22.7621852,35.9953196 22.5715205,35.9733198 22.3661861,35.8706526 C22.1608517,35.7679855 22.0361863,35.5626542 21.9921861,35.2546526 C21.9921861,35.1373187 22.0361857,35.0419863 22.1241861,34.9686526 C22.2121865,34.8953189 22.3148522,34.8293196 22.4321861,34.7706526 C22.6228537,34.6826522 22.8501848,34.605653 23.1141861,34.5396526 C23.3781874,34.4736523 23.6458514,34.4259861 23.9171861,34.3966526 C24.1885208,34.3673192 24.4488515,34.3563193 24.6981861,34.3636526 C24.9475207,34.370986 25.152852,34.3966524 25.3141861,34.4406526 C25.5488539,34.5139863 25.7358521,34.6239852 25.8751861,34.7706526 C26.0145201,34.91732 26.0695196,35.0933183 26.0401861,35.2986526 Z M25.5341861,42.6246526 C25.6368533,42.8593205 25.6918527,43.112318 25.6991861,43.3836526 C25.7065195,43.6549873 25.6295202,43.8419855 25.4681861,43.9446526 C25.2628517,44.0766533 25.0428539,44.06932 24.8081861,43.9226526 C24.5735183,43.7759852 24.39752,43.5779872 24.2801861,43.3286526 C24.118852,43.0206511 23.9941865,42.6429882 23.9061861,42.1956526 C23.8181857,41.7483171 23.7521863,41.3046548 23.7081861,40.8646526 C23.6641859,40.4246504 23.6385195,40.0139879 23.6311861,39.6326526 C23.6238527,39.2513174 23.6201861,38.9653203 23.6201861,38.7746526 C23.6348528,38.5693183 23.6935189,38.3786535 23.7961861,38.2026526 C23.8988533,38.0266518 24.030852,37.9239861 24.1921861,37.8946526 C24.4561874,37.9093194 24.668852,38.0303182 24.8301861,38.2576526 C24.9915202,38.4849871 25.0648528,38.7673176 25.0501861,39.1046526 C25.0501861,39.368654 25.0575194,39.6619844 25.0721861,39.9846526 C25.0868528,40.3073209 25.1161859,40.6299844 25.1601861,40.9526526 C25.2041863,41.2753209 25.2555191,41.5869845 25.3141861,41.8876526 C25.3728531,42.1883208 25.4461857,42.433985 25.5341861,42.6246526 Z M31.7821861,37.6966526 C31.7528526,37.5353185 31.7235196,37.38132 31.6941861,37.2346526 C31.6648526,37.0879852 31.59152,36.9926529 31.4741861,36.9486526 C31.2248515,36.8753189 30.9608542,36.8679857 30.6821861,36.9266526 C30.403518,36.9853196 30.1468539,37.0769854 29.9121861,37.2016526 C29.6775183,37.3263199 29.4795202,37.4656519 29.3181861,37.6196526 C29.156852,37.7736534 29.0688528,37.9093187 29.0541861,38.0266526 C29.0101859,38.2466537 29.068852,38.4593183 29.2301861,38.6646526 C29.3915202,38.869987 29.6261846,39.0753183 29.9341861,39.2806526 C30.447522,39.5886542 30.98285,39.9039844 31.5401861,40.2266526 C32.0975222,40.5493209 32.5668509,40.8793176 32.9481861,41.2166526 C33.3295213,41.5539877 33.5898521,41.9243173 33.7291861,42.3276526 C33.8685201,42.730988 33.8355205,43.1893167 33.6301861,43.7026526 C33.468852,44.0986546 33.1681883,44.4213181 32.7281861,44.6706526 C32.2881839,44.9199872 31.8041887,45.1143186 31.2761861,45.2536526 C30.7481835,45.3929867 30.2201887,45.4883191 29.6921861,45.5396526 C29.1641835,45.5909862 28.7168546,45.6166526 28.3501861,45.6166526 C28.2621857,45.6166526 28.1558534,45.583653 28.0311861,45.5176526 C27.9065188,45.4516523 27.7891866,45.3746531 27.6791861,45.2866526 C27.5691855,45.1986522 27.4738532,45.1069865 27.3931861,45.0116526 C27.312519,44.9163188 27.2721861,44.8319863 27.2721861,44.7586526 C27.2721861,44.4946513 27.3895183,44.3113198 27.6241861,44.2086526 C27.8588539,44.1059855 28.1008515,44.0546526 28.3501861,44.0546526 C28.7021879,44.0546526 29.0798507,44.0363195 29.4831861,43.9996526 C29.8865214,43.9629858 30.2715176,43.9043197 30.6381861,43.8236526 C31.0048546,43.7429856 31.3348513,43.6366533 31.6281861,43.5046526 C31.9215209,43.372652 32.1268522,43.203987 32.2441861,42.9986526 C32.3468533,42.8226518 32.2845206,42.6136539 32.0571861,42.3716526 C31.8298516,42.1296514 31.529188,41.876654 31.1551861,41.6126526 C30.7811842,41.3486513 30.3778549,41.0919872 29.9451861,40.8426526 C29.5125173,40.5933181 29.1421876,40.365987 28.8341861,40.1606526 C28.5261846,39.9553183 28.2621872,39.7096541 28.0421861,39.4236526 C27.822185,39.1376512 27.6828531,38.7819881 27.6241861,38.3566526 C27.6095194,37.9753174 27.6901852,37.6086544 27.8661861,37.2566526 C28.042187,36.9046509 28.2731847,36.5929873 28.5591861,36.3216526 C28.8451875,36.050318 29.1715176,35.8339868 29.5381861,35.6726526 C29.9048546,35.5113185 30.2715176,35.4306526 30.6381861,35.4306526 C31.2688559,35.4599861 31.7895174,35.6323177 32.2001861,35.9476526 C32.6108548,36.2629876 32.8528524,36.7286496 32.9261861,37.3446526 C32.9261861,37.549987 32.8931864,37.718652 32.8271861,37.8506526 C32.7611858,37.9826533 32.6475202,38.0633192 32.4861861,38.0926526 C32.2808517,38.1219861 32.1158534,38.0963197 31.9911861,38.0156526 C31.8665188,37.9349856 31.7968528,37.8286533 31.7821861,37.6966526 Z M45.0261861,46.6726526 C45.0115194,46.8339868 44.9381868,46.9843186 44.8061861,47.1236526 C44.6741854,47.2629867 44.5275202,47.3253194 44.3661861,47.3106526 C44.1168515,47.2959859 43.9261868,47.2006535 43.7941861,47.0246526 C43.6621854,46.8486518 43.5961861,46.7019866 43.5961861,46.5846526 C43.5961861,46.0273165 43.5815196,45.4443224 43.5521861,44.8356526 C43.5228526,44.2269829 43.4861863,43.5999892 43.4421861,42.9546526 C43.2515185,42.9839861 43.0791869,42.965653 42.9251861,42.8996526 C42.7711853,42.8336523 42.6648531,42.72732 42.6061861,42.5806526 C42.5035189,42.3313181 42.5181854,42.1113203 42.6501861,41.9206526 C42.7821868,41.729985 42.9948513,41.5466535 43.2881861,41.3706526 C43.2148524,40.8279833 43.1451864,40.2926553 43.0791861,39.7646526 C43.0131858,39.23665 42.9435198,38.7233218 42.8701861,38.2246526 C42.8555194,38.1366522 42.8628526,38.0559863 42.8921861,37.9826526 C42.9215196,37.9093189 42.9581859,37.839653 43.0021861,37.7736526 C43.0461863,37.7076523 43.1268522,37.6453196 43.2441861,37.5866526 C43.4348537,37.5133189 43.6511849,37.571985 43.8931861,37.7626526 C44.1351873,37.9533203 44.3001857,38.1953178 44.3881861,38.4886526 C44.4321863,38.7673207 44.4798525,39.0863175 44.5311861,39.4456526 C44.5825197,39.8049878 44.6301859,40.1973172 44.6741861,40.6226526 C44.9821876,40.431985 45.2718514,40.2266537 45.5431861,40.0066526 C45.8145208,39.7866515 46.0491851,39.5519872 46.2471861,39.3026526 C46.4451871,39.0533181 46.5955189,38.7929873 46.6981861,38.5216526 C46.8008533,38.250318 46.8301863,37.9679874 46.7861861,37.6746526 C46.7568526,37.4253181 46.6468537,37.2016536 46.4561861,37.0036526 C46.2655185,36.8056517 45.9648548,36.6993194 45.5541861,36.6846526 C45.1875176,36.6699859 44.8245212,36.6993189 44.4651861,36.7726526 C44.105851,36.8459863 43.7538545,36.9413187 43.4091861,37.0586526 C43.0645177,37.1759866 42.7271877,37.3153185 42.3971861,37.4766526 C42.0671844,37.6379868 41.7481876,37.7993185 41.4401861,37.9606526 C41.2348517,38.0779866 41.0331871,38.1256528 40.8351861,38.1036526 C40.6371851,38.0816525 40.5088531,38.0119866 40.4501861,37.8946526 C40.3181854,37.6013178 40.3291853,37.3373205 40.4831861,37.1026526 C40.6371869,36.8679848 40.8755178,36.647987 41.1981861,36.4426526 C41.4768542,36.2813185 41.8105175,36.1163202 42.1991861,35.9476526 C42.5878547,35.7789851 42.9985173,35.6323199 43.4311861,35.5076526 C43.8638549,35.3829854 44.3038505,35.2949862 44.7511861,35.2436526 C45.1985217,35.1923191 45.6275174,35.1996523 46.0381861,35.2656526 C46.4488548,35.331653 46.8191844,35.4709849 47.1491861,35.6836526 C47.4791877,35.8963204 47.7468517,36.2079839 47.9521861,36.6186526 C48.2015207,37.2933227 48.2711866,37.9129832 48.1611861,38.4776526 C48.0511855,39.0423221 47.8311877,39.5556503 47.5011861,40.0176526 C47.1711844,40.479655 46.7678551,40.8976508 46.2911861,41.2716526 C45.814517,41.6456545 45.3341885,41.9793178 44.8501861,42.2726526 C44.9235198,43.0646566 44.9748526,43.8493154 45.0041861,44.6266526 C45.0335196,45.4039899 45.0408528,46.085983 45.0261861,46.6726526 Z M51.5381861,33.9786526 C51.6115198,35.5773273 51.7361852,37.2309774 51.9121861,38.9396526 C52.088187,40.6483279 52.2788517,42.2799782 52.4841861,43.8346526 C52.5281863,44.4799892 52.3521881,44.8099859 51.9561861,44.8246526 C51.8681857,44.8246526 51.7801865,44.791653 51.6921861,44.7256526 C51.6041857,44.6596523 51.5235198,44.5753198 51.4501861,44.4726526 C51.3768524,44.3699855 51.3071864,44.2599866 51.2411861,44.1426526 C51.1751858,44.0253187 51.1348528,43.9226531 51.1201861,43.8346526 C51.0028522,43.0866489 50.8928533,42.2946568 50.7901861,41.4586526 C50.6875189,40.6226485 50.5958532,39.7829902 50.5151861,38.9396526 C50.434519,38.0963151 50.3648531,37.2713233 50.3061861,36.4646526 C50.2475191,35.6579819 50.2108528,34.9173227 50.1961861,34.2426526 C50.2255196,33.8906509 50.2768524,33.5936539 50.3501861,33.3516526 C50.4235198,33.1096514 50.5775183,32.9959859 50.8121861,33.0106526 C51.0615207,33.0253194 51.2411855,33.1243184 51.3511861,33.3076526 C51.4611866,33.4909869 51.5235194,33.7146513 51.5381861,33.9786526 Z M59.7881861,36.1346526 C59.8468531,36.5453214 59.8945192,36.9816503 59.9311861,37.4436526 C59.9678529,37.905655 59.997186,38.371317 60.0191861,38.8406526 C60.0411862,39.3099883 60.0521861,39.7646504 60.0521861,40.2046526 C60.0521861,40.6446548 60.0448528,41.0406509 60.0301861,41.3926526 C60.4995218,41.7153209 60.7818523,42.0013181 60.8771861,42.2506526 C60.9725199,42.4999872 60.9835198,42.719985 60.9101861,42.9106526 C60.8221857,43.174654 60.6645206,43.3103193 60.4371861,43.3176526 C60.2098516,43.324986 59.9495209,43.2479868 59.6561861,43.0866526 C59.4508517,43.23332 59.2161874,43.3909851 58.9521861,43.5596526 C58.6881848,43.7283202 58.4095209,43.8896519 58.1161861,44.0436526 C57.8228513,44.1976534 57.5295209,44.3333187 57.2361861,44.4506526 C56.9428513,44.5679866 56.6715207,44.6486524 56.4221861,44.6926526 C55.9528504,44.7659863 55.531188,44.6779872 55.1571861,44.4286526 C54.7831842,44.1793181 54.5301868,43.8053218 54.3981861,43.3066526 C54.3101857,42.9693176 54.2881859,42.6209878 54.3321861,42.2616526 C54.3761863,41.9023175 54.4861852,41.5576543 54.6621861,41.2276526 C54.838187,40.897651 55.0765179,40.600654 55.3771861,40.3366526 C55.6778543,40.0726513 56.0335174,39.86732 56.4441861,39.7206526 C56.5468533,39.6766524 56.6898518,39.6399861 56.8731861,39.6106526 C57.0565203,39.5813192 57.2471851,39.5703193 57.4451861,39.5776526 C57.6431871,39.584986 57.8448517,39.6253189 58.0501861,39.6986526 C58.2555205,39.7719863 58.4461852,39.8966518 58.6221861,40.0726526 C58.6221861,39.8233181 58.6185195,39.5483208 58.6111861,39.2476526 C58.6038527,38.9469845 58.5928528,38.6426542 58.5781861,38.3346526 C58.5635194,38.0266511 58.5451862,37.7369873 58.5231861,37.4656526 C58.501186,37.194318 58.4755196,36.9633203 58.4461861,36.7726526 C58.4168526,36.5526515 58.3325201,36.4169862 58.1931861,36.3656526 C58.0538521,36.3143191 57.8815205,36.3253189 57.6761861,36.3986526 C57.3241843,36.5159866 56.9135218,36.7433176 56.4441861,37.0806526 C55.9748504,37.4179877 55.5275216,37.7773174 55.1021861,38.1586526 C54.9701854,38.2906533 54.8198536,38.3493194 54.6511861,38.3346526 C54.4825186,38.3199859 54.33952,38.2539866 54.2221861,38.1366526 C54.1048522,38.0193187 54.0388528,37.8836534 54.0241861,37.7296526 C54.0095194,37.5756519 54.0681854,37.4106535 54.2001861,37.2346526 C54.4495207,36.9706513 54.7281846,36.6993207 55.0361861,36.4206526 C55.3441876,36.1419846 55.6668511,35.8889871 56.0041861,35.6616526 C56.3415211,35.4343182 56.6861843,35.24732 57.0381861,35.1006526 C57.3901879,34.9539852 57.7421843,34.8733194 58.0941861,34.8586526 C58.607522,34.8439859 59.003518,34.9576514 59.2821861,35.1996526 C59.5608542,35.4416539 59.7295191,35.7533174 59.7881861,36.1346526 Z M57.2361861,40.8646526 C57.0455185,40.9086529 56.8438538,41.0003186 56.6311861,41.1396526 C56.4185184,41.2789867 56.2278536,41.4476517 56.0591861,41.6456526 C55.8905186,41.8436536 55.7658532,42.0636514 55.6851861,42.3056526 C55.604519,42.5476539 55.6008524,42.7859848 55.6741861,43.0206526 C55.7035196,43.1086531 55.7658523,43.1746524 55.8611861,43.2186526 C55.9565199,43.2626529 56.0628522,43.2699861 56.1801861,43.2406526 C56.5321879,43.1673189 56.9318505,43.0243204 57.3791861,42.8116526 C57.8265217,42.5989849 58.1821848,42.3679872 58.4461861,42.1186526 C58.4461861,42.0306522 58.4021865,41.9169867 58.3141861,41.7776526 C58.2261857,41.6383186 58.12352,41.4989867 58.0061861,41.3596526 C57.8888522,41.2203186 57.7605201,41.0993198 57.6211861,40.9966526 C57.4818521,40.8939855 57.35352,40.8499859 57.2361861,40.8646526 Z M63.5941861,37.0146526 C63.6381863,37.2346537 63.6858525,37.480318 63.7371861,37.7516526 C63.7885197,38.0229873 63.8435191,38.3016512 63.9021861,38.5876526 C63.9608531,38.8736541 64.0121859,39.1633178 64.0561861,39.4566526 C64.1001863,39.7499874 64.1368526,40.0286513 64.1661861,40.2926526 C64.342187,39.9113174 64.5328517,39.5079881 64.7381861,39.0826526 C64.9435205,38.6573172 65.1671849,38.2649878 65.4091861,37.9056526 C65.6511873,37.5463175 65.9078514,37.2493205 66.1791861,37.0146526 C66.4505208,36.7799848 66.7475178,36.6626526 67.0701861,36.6626526 C67.5541885,36.6626526 67.9611844,36.8386509 68.2911861,37.1906526 C68.6211877,37.5426544 68.8998516,37.9789834 69.1271861,38.4996526 C69.3545206,39.0203219 69.5341854,39.5666498 69.6661861,40.1386526 C69.7981868,40.7106555 69.9081857,41.2166504 69.9961861,41.6566526 C70.0841865,42.0526546 69.9081883,42.345985 69.4681861,42.5366526 C69.2628517,42.6393198 69.1088533,42.6539863 69.0061861,42.5806526 C68.9035189,42.5073189 68.8448528,42.4339863 68.8301861,42.3606526 C68.7568524,42.1846518 68.6651866,41.8766548 68.5551861,41.4366526 C68.4451855,40.9966504 68.3205201,40.5493216 68.1811861,40.0946526 C68.0418521,39.6399837 67.884187,39.2439877 67.7081861,38.9066526 C67.5321852,38.5693176 67.3341872,38.4153192 67.1141861,38.4446526 C66.8501848,38.4593194 66.6155205,38.6573174 66.4101861,39.0386526 C66.2341852,39.3466542 66.0545203,39.6876508 65.8711861,40.0616526 C65.6878518,40.4356545 65.508187,40.816984 65.3321861,41.2056526 C65.1561852,41.5943213 64.9838536,41.982984 64.8151861,42.3716526 C64.6465186,42.7603213 64.4888535,43.1159844 64.3421861,43.4386526 C64.2395189,43.5413198 64.1111869,43.6109858 63.9571861,43.6476526 C63.8031853,43.6843195 63.6455202,43.6733196 63.4841861,43.6146526 C63.3375187,43.5706524 63.2201865,43.4973198 63.1321861,43.3946526 C63.0441857,43.2919855 63.0001861,43.1893198 63.0001861,43.0866526 C62.8681854,41.9426469 62.7325201,40.901324 62.5931861,39.9626526 C62.4538521,39.0239813 62.2741872,38.0633242 62.0541861,37.0806526 C61.9515189,36.7433176 61.9331858,36.4756536 61.9991861,36.2776526 C62.0651864,36.0796517 62.2815176,36.0026524 62.6481861,36.0466526 C63.161522,36.1346531 63.4768522,36.4573165 63.5941861,37.0146526 Z M81.6781861,38.2026526 C81.79552,38.3639868 81.9091855,38.5656514 82.0191861,38.8076526 C82.1291866,39.0496539 82.2135191,39.2953181 82.2721861,39.5446526 C82.3601865,39.9406546 82.4591855,40.3696503 82.5691861,40.8316526 C82.6791866,41.293655 82.7891855,41.7739835 82.8991861,42.2726526 C83.0091866,42.7713218 83.1118523,43.2773167 83.2071861,43.7906526 C83.3025199,44.3039885 83.3868524,44.795317 83.4601861,45.2646526 C83.5481865,45.9099892 83.5005203,46.5296497 83.3171861,47.1236526 C83.1338518,47.7176556 82.8295216,48.249317 82.4041861,48.7186526 C81.9788506,49.1879883 81.4508559,49.5619846 80.8201861,49.8406526 C80.1895163,50.1193207 79.4781901,50.2733192 78.6861861,50.3026526 C78.5101852,50.2879859 78.3268537,50.2036534 78.1361861,50.0496526 C77.9455185,49.8956519 77.8501861,49.7379868 77.8501861,49.5766526 C77.8355194,49.4153185 77.9125186,49.2869865 78.0811861,49.1916526 C78.2498536,49.0963188 78.4221852,49.0339861 78.5981861,49.0046526 C78.9061876,48.9753192 79.2251844,48.9129865 79.5551861,48.8176526 C79.8851877,48.7223188 80.1968513,48.5866535 80.4901861,48.4106526 C80.7835209,48.2346518 81.0511849,48.0219872 81.2931861,47.7726526 C81.5351873,47.5233181 81.7221854,47.2299877 81.8541861,46.8926526 C81.9568533,46.6286513 82.0081861,46.3023213 82.0081861,45.9136526 C82.0081861,45.524984 81.9825197,45.1399879 81.9311861,44.7586526 C81.8798525,44.3773174 81.8138532,44.014321 81.7331861,43.6696526 C81.652519,43.3249843 81.5828531,43.0646535 81.5241861,42.8886526 C81.4215189,42.9913198 81.2931869,43.1013187 81.1391861,43.2186526 C80.9851853,43.3359866 80.8128537,43.4459855 80.6221861,43.5486526 C80.4315185,43.6513198 80.2225206,43.7319857 79.9951861,43.7906526 C79.7678516,43.8493196 79.5368539,43.8713194 79.3021861,43.8566526 C79.0528515,43.8419859 78.8218538,43.7539868 78.6091861,43.5926526 C78.3965184,43.4313185 78.2095202,43.2223206 78.0481861,42.9656526 C77.886852,42.7089847 77.7585199,42.4119877 77.6631861,42.0746526 C77.5678523,41.7373176 77.5201861,41.3853211 77.5201861,41.0186526 C77.5495196,40.1386482 77.773184,39.3576561 78.1911861,38.6756526 C78.6091882,37.9936492 79.2801815,37.4619879 80.2041861,37.0806526 C80.2775198,37.0659859 80.3765188,37.0513194 80.5011861,37.0366526 C80.6258534,37.0219859 80.7541854,37.0183193 80.8861861,37.0256526 C81.0181868,37.032986 81.1465188,37.0513192 81.2711861,37.0806526 C81.3958534,37.1099861 81.5021857,37.1539857 81.5901861,37.2126526 C81.7515202,37.3299866 81.8321861,37.4986515 81.8321861,37.7186526 C81.8321861,37.9386537 81.7808533,38.0999855 81.6781861,38.2026526 Z M78.9061861,41.2166526 C78.9061861,41.3779868 78.9208526,41.5576517 78.9501861,41.7556526 C78.9795196,41.9536536 79.074852,42.0966522 79.2361861,42.1846526 C79.412187,42.2873198 79.6285181,42.3019863 79.8851861,42.2286526 C80.141854,42.1553189 80.380185,42.0306535 80.6001861,41.8546526 C80.8055205,41.6933185 80.9411858,41.5136536 81.0071861,41.3156526 C81.0731864,41.1176517 81.0695198,40.8499877 80.9961861,40.5126526 C80.9228524,40.1753176 80.8421865,39.8233211 80.7541861,39.4566526 C80.6661857,39.0899841 80.6075196,38.7599874 80.5781861,38.4666526 C80.4021852,38.5546531 80.2151871,38.6793185 80.0171861,38.8406526 C79.8191851,39.0019868 79.6395202,39.2036514 79.4781861,39.4456526 C79.316852,39.6876539 79.1811866,39.9553178 79.0711861,40.2486526 C78.9611855,40.5419874 78.9061861,40.8646509 78.9061861,41.2166526 Z M90.4561861,39.1046526 C89.8841832,39.4419877 89.2681894,39.7023184 88.6081861,39.8856526 C87.9481828,40.0689869 87.2368566,40.1606526 86.4741861,40.1606526 C86.5035196,40.6739885 86.6501848,41.0809845 86.9141861,41.3816526 C87.1781874,41.6823208 87.5081841,41.8619857 87.9041861,41.9206526 C88.1388539,41.9499861 88.3771849,41.9426529 88.6191861,41.8986526 C88.8611873,41.8546524 89.0885184,41.7849865 89.3011861,41.6896526 C89.5138538,41.5943188 89.7081852,41.4879866 89.8841861,41.3706526 C90.060187,41.2533187 90.2141854,41.1359866 90.3461861,41.0186526 C90.4781868,40.9013187 90.6175187,40.8243195 90.7641861,40.7876526 C90.9108535,40.7509858 91.0208524,40.7473192 91.0941861,40.7766526 C91.2995205,40.8499863 91.3728531,41.0699841 91.3141861,41.4366526 C91.0795183,41.9059883 90.7421883,42.305651 90.3021861,42.6356526 C89.8621839,42.9656543 89.3708555,43.1746522 88.8281861,43.2626526 C88.3588504,43.3506531 87.8748553,43.3286533 87.3761861,43.1966526 C86.8775169,43.064652 86.4301881,42.8079879 86.0341861,42.4266526 C85.6968511,42.0893176 85.440187,41.6933216 85.2641861,41.2386526 C85.0881852,40.7839837 84.9781863,40.3146551 84.9341861,39.8306526 C84.8901859,39.3759837 84.9305188,38.9433214 85.0551861,38.5326526 C85.1798534,38.1219839 85.3741848,37.7589876 85.6381861,37.4436526 C85.9021874,37.1283177 86.2321841,36.867987 86.6281861,36.6626526 C87.0241881,36.4573183 87.4861835,36.3399861 88.0141861,36.3106526 C88.6448559,36.2666524 89.2168502,36.3839846 89.7301861,36.6626526 C90.243522,36.9413207 90.6028517,37.3299835 90.8081861,37.8286526 C90.92552,38.1073207 90.9585197,38.3493183 90.9071861,38.5546526 C90.8558525,38.759987 90.7055207,38.9433185 90.4561861,39.1046526 Z M87.9261861,37.6086526 C87.7795187,37.6379861 87.6218536,37.6893189 87.4531861,37.7626526 C87.2845186,37.8359863 87.1305201,37.9276521 86.9911861,38.0376526 C86.8518521,38.1476532 86.7271866,38.2723186 86.6171861,38.4116526 C86.5071855,38.5509867 86.4448528,38.7086518 86.4301861,38.8846526 C86.6795207,38.8846526 86.9545179,38.8626529 87.2551861,38.8186526 C87.5558543,38.7746524 87.8491847,38.719653 88.1351861,38.6536526 C88.4211875,38.5876523 88.6851849,38.5106531 88.9271861,38.4226526 C89.1691873,38.3346522 89.370852,38.2393198 89.5321861,38.1366526 C89.4148522,37.8579846 89.198521,37.685653 88.8831861,37.6196526 C88.5678512,37.5536523 88.2488544,37.5499857 87.9261861,37.6086526 Z M97.8481861,38.3786526 C98.1268542,38.3639859 98.405518,38.4299852 98.6841861,38.5766526 C98.9628542,38.72332 99.1021861,38.9506511 99.1021861,39.2586526 C99.0728526,39.5079872 98.9371873,39.6656523 98.6951861,39.7316526 C98.4531849,39.797653 98.2588535,39.8306526 98.1121861,39.8306526 C97.8188513,39.8306526 97.5035211,39.8379859 97.1661861,39.8526526 C96.8288511,39.8673194 96.4841879,39.8893192 96.1321861,39.9186526 C96.1028526,40.4026551 96.0771862,40.8573172 96.0551861,41.2826526 C96.033186,41.7079881 96.0148528,42.085651 96.0001861,42.4156526 C95.9855194,42.7456543 95.9781861,43.0133183 95.9781861,43.2186526 C95.9781861,43.423987 95.9855194,43.5339859 96.0001861,43.5486526 C96.3228544,43.4899857 96.6711842,43.3909867 97.0451861,43.2516526 C97.419188,43.1123186 97.7931842,42.9583202 98.1671861,42.7896526 C98.541188,42.6209851 98.907851,42.4449869 99.2671861,42.2616526 C99.6265212,42.0783184 99.9675178,41.9059868 100.290186,41.7446526 C100.436853,41.6713189 100.572519,41.6493192 100.697186,41.6786526 C100.821853,41.7079861 100.898853,41.7739855 100.928186,41.8766526 C100.95752,42.0379868 100.93552,42.2359848 100.862186,42.4706526 C100.788852,42.7053205 100.656854,42.917985 100.466186,43.1086526 C100.246185,43.2846535 99.9565212,43.4863182 99.5971861,43.7136526 C99.237851,43.9409871 98.8528548,44.1573183 98.4421861,44.3626526 C98.0315174,44.567987 97.6171882,44.7476519 97.1991861,44.9016526 C96.781184,45.0556534 96.4108544,45.1473192 96.0881861,45.1766526 C95.6041837,45.2206529 95.2375207,45.0886542 94.9881861,44.7806526 C94.7388515,44.4726511 94.5995196,44.0839883 94.5701861,43.6146526 C94.5408526,43.145317 94.537186,42.6026557 94.5591861,41.9866526 C94.5811862,41.3706496 94.6068526,40.7179894 94.6361861,40.0286526 C94.357518,40.0579861 94.089854,40.0836525 93.8331861,40.1056526 C93.5765181,40.1276528 93.3308539,40.1533192 93.0961861,40.1826526 C92.9055185,40.1826526 92.6965206,40.1386531 92.4691861,40.0506526 C92.2418516,39.9626522 92.1281861,39.7939872 92.1281861,39.5446526 C92.1281861,39.4566522 92.1648524,39.33932 92.2381861,39.1926526 C92.3115198,39.0459852 92.4728515,38.9359863 92.7221861,38.8626526 C93.3235224,38.7599855 93.9908491,38.6719863 94.7241861,38.5986526 C94.7681863,37.9093159 94.8195191,37.2419892 94.8781861,36.5966526 C94.9368531,35.9513161 94.9881859,35.3646553 95.0321861,34.8366526 C95.0468528,34.6606518 95.0981857,34.5066533 95.1861861,34.3746526 C95.2741865,34.242652 95.3695189,34.1766526 95.4721861,34.1766526 C95.7215207,34.1619859 95.9598516,34.2243186 96.1871861,34.3636526 C96.4145206,34.5029867 96.5281861,34.6606518 96.5281861,34.8366526 C96.4695191,35.3353218 96.4145197,35.8999828 96.3631861,36.5306526 C96.3118525,37.1613225 96.2641863,37.8066493 96.2201861,38.4666526 C96.5135209,38.4373192 96.7958514,38.418986 97.0671861,38.4116526 C97.3385208,38.4043193 97.5988515,38.3933194 97.8481861,38.3786526 Z M105.944186,37.6966526 C105.914853,37.5353185 105.88552,37.38132 105.856186,37.2346526 C105.826853,37.0879852 105.75352,36.9926529 105.636186,36.9486526 C105.386852,36.8753189 105.122854,36.8679857 104.844186,36.9266526 C104.565518,36.9853196 104.308854,37.0769854 104.074186,37.2016526 C103.839518,37.3263199 103.64152,37.4656519 103.480186,37.6196526 C103.318852,37.7736534 103.230853,37.9093187 103.216186,38.0266526 C103.172186,38.2466537 103.230852,38.4593183 103.392186,38.6646526 C103.55352,38.869987 103.788185,39.0753183 104.096186,39.2806526 C104.609522,39.5886542 105.14485,39.9039844 105.702186,40.2266526 C106.259522,40.5493209 106.728851,40.8793176 107.110186,41.2166526 C107.491521,41.5539877 107.751852,41.9243173 107.891186,42.3276526 C108.03052,42.730988 107.99752,43.1893167 107.792186,43.7026526 C107.630852,44.0986546 107.330188,44.4213181 106.890186,44.6706526 C106.450184,44.9199872 105.966189,45.1143186 105.438186,45.2536526 C104.910183,45.3929867 104.382189,45.4883191 103.854186,45.5396526 C103.326183,45.5909862 102.878855,45.6166526 102.512186,45.6166526 C102.424186,45.6166526 102.317853,45.583653 102.193186,45.5176526 C102.068519,45.4516523 101.951187,45.3746531 101.841186,45.2866526 C101.731186,45.1986522 101.635853,45.1069865 101.555186,45.0116526 C101.474519,44.9163188 101.434186,44.8319863 101.434186,44.7586526 C101.434186,44.4946513 101.551518,44.3113198 101.786186,44.2086526 C102.020854,44.1059855 102.262852,44.0546526 102.512186,44.0546526 C102.864188,44.0546526 103.241851,44.0363195 103.645186,43.9996526 C104.048521,43.9629858 104.433518,43.9043197 104.800186,43.8236526 C105.166855,43.7429856 105.496851,43.6366533 105.790186,43.5046526 C106.083521,43.372652 106.288852,43.203987 106.406186,42.9986526 C106.508853,42.8226518 106.446521,42.6136539 106.219186,42.3716526 C105.991852,42.1296514 105.691188,41.876654 105.317186,41.6126526 C104.943184,41.3486513 104.539855,41.0919872 104.107186,40.8426526 C103.674517,40.5933181 103.304188,40.365987 102.996186,40.1606526 C102.688185,39.9553183 102.424187,39.7096541 102.204186,39.4236526 C101.984185,39.1376512 101.844853,38.7819881 101.786186,38.3566526 C101.771519,37.9753174 101.852185,37.6086544 102.028186,37.2566526 C102.204187,36.9046509 102.435185,36.5929873 102.721186,36.3216526 C103.007188,36.050318 103.333518,35.8339868 103.700186,35.6726526 C104.066855,35.5113185 104.433518,35.4306526 104.800186,35.4306526 C105.430856,35.4599861 105.951517,35.6323177 106.362186,35.9476526 C106.772855,36.2629876 107.014852,36.7286496 107.088186,37.3446526 C107.088186,37.549987 107.055186,37.718652 106.989186,37.8506526 C106.923186,37.9826533 106.80952,38.0633192 106.648186,38.0926526 C106.442852,38.1219861 106.277853,38.0963197 106.153186,38.0156526 C106.028519,37.9349856 105.958853,37.8286533 105.944186,37.6966526 Z M122.268186,37.3446526 C122.312186,38.1366566 122.359853,38.9359819 122.411186,39.7426526 C122.46252,40.5493233 122.47352,41.3449821 122.444186,42.1296526 C122.414853,42.9143232 122.337853,43.6806489 122.213186,44.4286526 C122.088519,45.1766564 121.879521,45.8916492 121.586186,46.5736526 C121.292851,47.2556561 120.900522,47.889983 120.409186,48.4766526 C119.91785,49.0633222 119.29819,49.591317 118.550186,50.0606526 C118.432852,50.1339863 118.30452,50.1779859 118.165186,50.1926526 C118.025852,50.2073194 117.890187,50.2036528 117.758186,50.1816526 C117.626185,50.1596525 117.508853,50.1229862 117.406186,50.0716526 C117.303519,50.0203191 117.23752,49.9506531 117.208186,49.8626526 C117.164186,49.730652 117.186186,49.5839868 117.274186,49.4226526 C117.362187,49.2613185 117.508852,49.0926535 117.714186,48.9166526 C118.359523,48.4326502 118.902184,47.919322 119.342186,47.3766526 C119.782188,46.8339833 120.134185,46.2473225 120.398186,45.6166526 C120.662187,44.9859828 120.834519,44.300323 120.915186,43.5596526 C120.995853,42.8189823 120.992187,42.008657 120.904186,41.1286526 C120.728185,41.3486537 120.522854,41.5759848 120.288186,41.8106526 C120.053518,42.0453205 119.804187,42.2543184 119.540186,42.4376526 C119.276185,42.6209869 119.004854,42.7749854 118.726186,42.8996526 C118.447518,43.0243199 118.183521,43.0866526 117.934186,43.0866526 C117.728852,43.0866526 117.52352,43.0426531 117.318186,42.9546526 C117.112852,42.8666522 116.90752,42.6979872 116.702186,42.4486526 C116.467518,42.1406511 116.25852,41.7923213 116.075186,41.4036526 C115.891852,41.014984 115.734187,40.6373211 115.602186,40.2706526 C115.470185,39.9039841 115.363853,39.5739874 115.283186,39.2806526 C115.202519,38.9873178 115.154853,38.7819866 115.140186,38.6646526 C115.110853,38.5179852 115.110853,38.3786533 115.140186,38.2466526 C115.16952,38.114652 115.264852,38.0339861 115.426186,38.0046526 C115.646187,37.9606524 115.851518,37.9753189 116.042186,38.0486526 C116.232854,38.1219863 116.364852,38.2393185 116.438186,38.4006526 C116.496853,38.5619868 116.577519,38.8113176 116.680186,39.1486526 C116.782853,39.4859877 116.907519,39.819651 117.054186,40.1496526 C117.200853,40.4796543 117.358519,40.7693181 117.527186,41.0186526 C117.695854,41.2679872 117.875518,41.3926526 118.066186,41.3926526 C118.286187,41.3926526 118.546518,41.2826537 118.847186,41.0626526 C119.147854,40.8426515 119.437518,40.5566544 119.716186,40.2046526 C119.994854,39.8526509 120.233185,39.4603215 120.431186,39.0276526 C120.629187,38.5949838 120.728186,38.1733214 120.728186,37.7626526 C120.728186,37.6746522 120.742853,37.5719866 120.772186,37.4546526 C120.80152,37.3373187 120.845519,37.2236532 120.904186,37.1136526 C120.962853,37.0036521 121.032519,36.9083197 121.113186,36.8276526 C121.193853,36.7469856 121.278186,36.6993194 121.366186,36.6846526 C121.600854,36.6553192 121.809852,36.7176519 121.993186,36.8716526 C122.17652,37.0256534 122.268186,37.1833185 122.268186,37.3446526 Z M129.440186,36.5966526 C129.880188,36.7579868 130.250518,36.9999844 130.551186,37.3226526 C130.851854,37.6453209 131.082852,38.0083173 131.244186,38.4116526 C131.40552,38.814988 131.497186,39.2293172 131.519186,39.6546526 C131.541186,40.0799881 131.49352,40.4759841 131.376186,40.8426526 C131.214852,41.2533214 131.009521,41.6566507 130.760186,42.0526526 C130.510852,42.4486546 130.224854,42.8006511 129.902186,43.1086526 C129.579518,43.4166542 129.212855,43.665985 128.802186,43.8566526 C128.391517,44.0473203 127.936855,44.1426526 127.438186,44.1426526 C126.83685,44.1426526 126.330855,44.0033207 125.920186,43.7246526 C125.509517,43.4459846 125.186854,43.0866548 124.952186,42.6466526 C124.717518,42.2066504 124.567186,41.7079888 124.501186,41.1506526 C124.435186,40.5933165 124.446186,40.0359888 124.534186,39.4786526 C124.592853,39.0679839 124.691852,38.6683213 124.831186,38.2796526 C124.97052,37.890984 125.150185,37.5463208 125.370186,37.2456526 C125.590187,36.9449845 125.843185,36.6993203 126.129186,36.5086526 C126.415188,36.317985 126.741518,36.2226526 127.108186,36.2226526 C127.31352,36.2226526 127.570185,36.2629856 127.878186,36.3436526 C128.186188,36.4243197 128.472185,36.5379852 128.736186,36.6846526 C128.926854,36.5086518 129.161518,36.4793187 129.440186,36.5966526 Z M128.604186,38.2026526 C128.442852,38.0999855 128.255854,37.9643202 128.043186,37.7956526 C127.830518,37.6269851 127.64352,37.5426526 127.482186,37.5426526 C127.306185,37.5426526 127.133854,37.6233185 126.965186,37.7846526 C126.796519,37.9459868 126.649853,38.1329849 126.525186,38.3456526 C126.400519,38.5583204 126.294187,38.7746515 126.206186,38.9946526 C126.118186,39.2146537 126.05952,39.390652 126.030186,39.5226526 C125.986186,39.7426537 125.956853,40.0066511 125.942186,40.3146526 C125.927519,40.6226542 125.949519,40.9269845 126.008186,41.2276526 C126.066853,41.5283208 126.180519,41.7996514 126.349186,42.0416526 C126.517854,42.2836539 126.770851,42.4559855 127.108186,42.5586526 C127.31352,42.6173196 127.555518,42.613653 127.834186,42.5476526 C128.112854,42.4816523 128.387851,42.3606535 128.659186,42.1846526 C128.930521,42.0086518 129.187185,41.7739874 129.429186,41.4806526 C129.671187,41.1873178 129.858185,40.8499879 129.990186,40.4686526 C130.136853,40.0433172 130.14052,39.599655 130.001186,39.1376526 C129.861852,38.6756503 129.579522,38.341987 129.154186,38.1366526 C129.051519,38.2099863 128.948853,38.2466526 128.846186,38.2466526 C128.743519,38.2466526 128.662853,38.2319861 128.604186,38.2026526 Z M135.160186,37.7626526 C135.072186,38.1586546 134.984187,38.5949836 134.896186,39.0716526 C134.808186,39.5483217 134.745853,40.0066504 134.709186,40.4466526 C134.672519,40.8866548 134.672519,41.2826509 134.709186,41.6346526 C134.745853,41.9866544 134.837519,42.2359852 134.984186,42.3826526 C135.233521,42.4266529 135.519518,42.3203206 135.842186,42.0636526 C136.164854,41.8069847 136.480185,41.4806546 136.788186,41.0846526 C137.096188,40.6886507 137.374852,40.259655 137.624186,39.7976526 C137.873521,39.3356503 138.049519,38.9286544 138.152186,38.5766526 C138.210853,38.4006518 138.262186,38.2173203 138.306186,38.0266526 C138.350186,37.835985 138.372186,37.637987 138.372186,37.4326526 C138.372186,37.3153187 138.449185,37.2016532 138.603186,37.0916526 C138.757187,36.9816521 138.885519,36.9193194 138.988186,36.9046526 C139.06152,36.8899859 139.145852,36.9046524 139.241186,36.9486526 C139.33652,36.9926529 139.424519,37.0549856 139.505186,37.1356526 C139.585853,37.2163197 139.659186,37.3116521 139.725186,37.4216526 C139.791186,37.5316532 139.824186,37.6453187 139.824186,37.7626526 C139.85352,38.2026548 139.897519,38.68665 139.956186,39.2146526 C140.014853,39.7426553 140.084519,40.27065 140.165186,40.7986526 C140.245853,41.3266553 140.330186,41.8399835 140.418186,42.3386526 C140.506187,42.8373218 140.594186,43.2846507 140.682186,43.6806526 C140.726186,43.8419868 140.682187,44.0253183 140.550186,44.2306526 C140.418185,44.435987 140.27152,44.5606524 140.110186,44.6046526 C139.978185,44.6339861 139.84252,44.6193196 139.703186,44.5606526 C139.563852,44.5019857 139.45752,44.3846535 139.384186,44.2086526 C139.310852,44.0033183 139.241186,43.7503208 139.175186,43.4496526 C139.109186,43.1489845 139.05052,42.8336543 138.999186,42.5036526 C138.947853,42.173651 138.900186,41.8583208 138.856186,41.5576526 C138.812186,41.2569845 138.782853,41.003987 138.768186,40.7986526 C138.548185,41.1946546 138.287854,41.5943173 137.987186,41.9976526 C137.686518,42.400988 137.363854,42.767651 137.019186,43.0976526 C136.674518,43.4276543 136.315188,43.6843184 135.941186,43.8676526 C135.567184,44.0509869 135.182188,44.1206529 134.786186,44.0766526 C134.199516,44.0033189 133.752188,43.4533244 133.444186,42.4266526 C133.326852,42.0159839 133.271853,41.5613218 133.279186,41.0626526 C133.286519,40.5639835 133.323186,40.0689884 133.389186,39.5776526 C133.455186,39.0863169 133.535852,38.6206548 133.631186,38.1806526 C133.72652,37.7406504 133.810852,37.3813207 133.884186,37.1026526 C133.91352,36.9853187 133.972186,36.8789865 134.060186,36.7836526 C134.148187,36.6883188 134.250852,36.6553192 134.368186,36.6846526 C134.588187,36.7286529 134.789852,36.8606515 134.973186,37.0806526 C135.15652,37.3006537 135.218853,37.5279848 135.160186,37.7626526 Z M154.322186,37.2126526 C153.955518,38.4739923 153.610854,39.7316464 153.288186,40.9856526 C152.965518,42.2396589 152.650188,43.4166471 152.342186,44.5166526 C152.283519,44.7513205 152.158854,44.9309854 151.968186,45.0556526 C151.777518,45.1803199 151.608853,45.2133196 151.462186,45.1546526 C151.388852,45.1253192 151.322853,45.0593198 151.264186,44.9566526 C151.205519,44.8539855 151.157853,44.7329867 151.121186,44.5936526 C151.084519,44.4543186 151.062519,44.3076534 151.055186,44.1536526 C151.047853,43.9996519 151.051519,43.8566533 151.066186,43.7246526 C151.315521,42.800648 151.605184,41.7336587 151.935186,40.5236526 C152.265188,39.3136466 152.620851,38.0926588 153.002186,36.8606526 C152.650184,36.8899861 152.283521,36.9229858 151.902186,36.9596526 C151.520851,36.9963195 151.146855,37.0293192 150.780186,37.0586526 C150.413518,37.0879861 150.068854,37.1173192 149.746186,37.1466526 C149.423518,37.1759861 149.144854,37.2053192 148.910186,37.2346526 C148.660852,37.2346526 148.429854,37.1173205 148.217186,36.8826526 C148.004518,36.6479848 147.898186,36.4059872 147.898186,36.1566526 C147.898186,36.0833189 147.934852,36.0209862 148.008186,35.9696526 C148.08152,35.9183191 148.154852,35.8853194 148.228186,35.8706526 C148.609521,35.8119857 149.042184,35.7606529 149.526186,35.7166526 C150.010189,35.6726524 150.501517,35.6323195 151.000186,35.5956526 C151.498855,35.5589858 151.986517,35.5259861 152.463186,35.4966526 C152.939855,35.4673192 153.361518,35.4526526 153.728186,35.4526526 C153.816187,35.4526526 153.915186,35.4856523 154.025186,35.5516526 C154.135187,35.617653 154.234186,35.7019855 154.322186,35.8046526 C154.410187,35.9073198 154.483519,36.0173187 154.542186,36.1346526 C154.600853,36.2519866 154.630186,36.3546522 154.630186,36.4426526 L154.322186,37.2126526 Z M163.408186,37.1686526 C163.422853,37.4033205 163.448519,37.6929843 163.485186,38.0376526 C163.521853,38.382321 163.562186,38.7416508 163.606186,39.1156526 C163.650186,39.4896545 163.697853,39.8599841 163.749186,40.2266526 C163.80052,40.5933211 163.848186,40.9306511 163.892186,41.2386526 L164.486186,40.0506526 C164.720854,39.581317 164.966518,39.1303215 165.223186,38.6976526 C165.479854,38.2649838 165.743851,37.8983208 166.015186,37.5976526 C166.286521,37.2969845 166.532185,37.1466526 166.752186,37.1466526 C166.986854,37.1466526 167.203185,37.2603182 167.401186,37.4876526 C167.599187,37.7149871 167.771519,37.9899844 167.918186,38.3126526 C168.064853,38.6353209 168.193186,38.9799841 168.303186,39.3466526 C168.413187,39.7133211 168.504852,40.0359846 168.578186,40.3146526 C168.636853,40.123985 168.713852,39.9076539 168.809186,39.6656526 C168.90452,39.4236514 169.007186,39.1743206 169.117186,38.9176526 C169.227187,38.6609847 169.351852,38.4079872 169.491186,38.1586526 C169.63052,37.9093181 169.780852,37.6893203 169.942186,37.4986526 C170.132854,37.2933183 170.338185,37.1429865 170.558186,37.0476526 C170.778187,36.9523188 170.939519,36.9046526 171.042186,36.9046526 C171.174187,36.9046526 171.331852,36.9449856 171.515186,37.0256526 C171.69852,37.1063197 171.885518,37.212652 172.076186,37.3446526 C172.266854,37.4766533 172.446519,37.6343184 172.615186,37.8176526 C172.783854,38.0009869 172.919519,38.187985 173.022186,38.3786526 C173.22752,38.7746546 173.392519,39.207317 173.517186,39.6766526 C173.641853,40.1459883 173.733519,40.5933172 173.792186,41.0186526 C173.850853,41.4439881 173.891186,41.821651 173.913186,42.1516526 C173.935186,42.4816543 173.953519,42.712652 173.968186,42.8446526 C173.968186,43.0353203 173.946186,43.1783188 173.902186,43.2736526 C173.858186,43.3689865 173.77752,43.4459857 173.660186,43.5046526 C173.498852,43.5779863 173.35952,43.6036528 173.242186,43.5816526 C173.124852,43.5596525 173.02952,43.5119863 172.956186,43.4386526 C172.882852,43.3653189 172.824186,43.2809865 172.780186,43.1856526 C172.736186,43.0903188 172.706853,43.0059863 172.692186,42.9326526 C172.648186,42.5953176 172.60052,42.2506544 172.549186,41.8986526 C172.497853,41.5466509 172.442853,41.2056543 172.384186,40.8756526 C172.325519,40.545651 172.255853,40.2376541 172.175186,39.9516526 C172.094519,39.6656512 172.010187,39.4126537 171.922186,39.1926526 C171.892853,39.1339857 171.845186,39.0569865 171.779186,38.9616526 C171.713186,38.8663188 171.639853,38.7746531 171.559186,38.6866526 C171.478519,38.5986522 171.40152,38.5253196 171.328186,38.4666526 C171.254852,38.4079857 171.20352,38.3713194 171.174186,38.3566526 C171.027519,38.3566526 170.87352,38.492318 170.712186,38.7636526 C170.550852,39.0349873 170.396853,39.3613174 170.250186,39.7426526 C170.103519,40.1239879 169.967853,40.5236506 169.843186,40.9416526 C169.718519,41.3596547 169.626853,41.7153178 169.568186,42.0086526 C169.568186,42.3899879 169.494853,42.6723184 169.348186,42.8556526 C169.201519,43.0389869 169.04752,43.1306526 168.886186,43.1306526 C168.724852,43.1306526 168.55252,43.0683199 168.369186,42.9436526 C168.185852,42.8189854 168.064853,42.6759868 168.006186,42.5146526 C167.918186,42.2799848 167.822853,42.0159874 167.720186,41.7226526 C167.617519,41.4293178 167.511187,41.1286542 167.401186,40.8206526 C167.291186,40.5126511 167.181187,40.2119874 167.071186,39.9186526 C166.961186,39.6253178 166.854853,39.3613205 166.752186,39.1266526 C166.546852,39.4053207 166.345187,39.7133176 166.147186,40.0506526 C165.949185,40.3879877 165.75852,40.7326509 165.575186,41.0846526 C165.391852,41.4366544 165.215854,41.7849843 165.047186,42.1296526 C164.878519,42.474321 164.720853,42.7786513 164.574186,43.0426526 C164.471519,43.2039868 164.36152,43.3469854 164.244186,43.4716526 C164.126852,43.5963199 163.98752,43.6586526 163.826186,43.6586526 C163.708852,43.6586526 163.584187,43.6036532 163.452186,43.4936526 C163.320185,43.3836521 163.19552,43.2479868 163.078186,43.0866526 C162.960852,42.9253185 162.85452,42.741987 162.759186,42.5366526 C162.663852,42.3313183 162.594186,42.125987 162.550186,41.9206526 C162.432852,41.2899828 162.333853,40.5969898 162.253186,39.8416526 C162.172519,39.0863155 162.09552,38.3493229 162.022186,37.6306526 C162.007519,37.3813181 162.040519,37.1503204 162.121186,36.9376526 C162.201853,36.7249849 162.359518,36.5819863 162.594186,36.5086526 C162.843521,36.4646524 163.034185,36.5013187 163.166186,36.6186526 C163.298187,36.7359866 163.378853,36.9193181 163.408186,37.1686526 Z M180.810186,36.5966526 C181.250188,36.7579868 181.620518,36.9999844 181.921186,37.3226526 C182.221854,37.6453209 182.452852,38.0083173 182.614186,38.4116526 C182.77552,38.814988 182.867186,39.2293172 182.889186,39.6546526 C182.911186,40.0799881 182.86352,40.4759841 182.746186,40.8426526 C182.584852,41.2533214 182.379521,41.6566507 182.130186,42.0526526 C181.880852,42.4486546 181.594854,42.8006511 181.272186,43.1086526 C180.949518,43.4166542 180.582855,43.665985 180.172186,43.8566526 C179.761517,44.0473203 179.306855,44.1426526 178.808186,44.1426526 C178.20685,44.1426526 177.700855,44.0033207 177.290186,43.7246526 C176.879517,43.4459846 176.556854,43.0866548 176.322186,42.6466526 C176.087518,42.2066504 175.937186,41.7079888 175.871186,41.1506526 C175.805186,40.5933165 175.816186,40.0359888 175.904186,39.4786526 C175.962853,39.0679839 176.061852,38.6683213 176.201186,38.2796526 C176.34052,37.890984 176.520185,37.5463208 176.740186,37.2456526 C176.960187,36.9449845 177.213185,36.6993203 177.499186,36.5086526 C177.785188,36.317985 178.111518,36.2226526 178.478186,36.2226526 C178.68352,36.2226526 178.940185,36.2629856 179.248186,36.3436526 C179.556188,36.4243197 179.842185,36.5379852 180.106186,36.6846526 C180.296854,36.5086518 180.531518,36.4793187 180.810186,36.5966526 Z M179.974186,38.2026526 C179.812852,38.0999855 179.625854,37.9643202 179.413186,37.7956526 C179.200518,37.6269851 179.01352,37.5426526 178.852186,37.5426526 C178.676185,37.5426526 178.503854,37.6233185 178.335186,37.7846526 C178.166519,37.9459868 178.019853,38.1329849 177.895186,38.3456526 C177.770519,38.5583204 177.664187,38.7746515 177.576186,38.9946526 C177.488186,39.2146537 177.42952,39.390652 177.400186,39.5226526 C177.356186,39.7426537 177.326853,40.0066511 177.312186,40.3146526 C177.297519,40.6226542 177.319519,40.9269845 177.378186,41.2276526 C177.436853,41.5283208 177.550519,41.7996514 177.719186,42.0416526 C177.887854,42.2836539 178.140851,42.4559855 178.478186,42.5586526 C178.68352,42.6173196 178.925518,42.613653 179.204186,42.5476526 C179.482854,42.4816523 179.757851,42.3606535 180.029186,42.1846526 C180.300521,42.0086518 180.557185,41.7739874 180.799186,41.4806526 C181.041187,41.1873178 181.228185,40.8499879 181.360186,40.4686526 C181.506853,40.0433172 181.51052,39.599655 181.371186,39.1376526 C181.231852,38.6756503 180.949522,38.341987 180.524186,38.1366526 C180.421519,38.2099863 180.318853,38.2466526 180.216186,38.2466526 C180.113519,38.2466526 180.032853,38.2319861 179.974186,38.2026526 Z M186.046186,37.0146526 C186.090186,37.2346537 186.137853,37.480318 186.189186,37.7516526 C186.24052,38.0229873 186.295519,38.3016512 186.354186,38.5876526 C186.412853,38.8736541 186.464186,39.1633178 186.508186,39.4566526 C186.552186,39.7499874 186.588853,40.0286513 186.618186,40.2926526 C186.794187,39.9113174 186.984852,39.5079881 187.190186,39.0826526 C187.39552,38.6573172 187.619185,38.2649878 187.861186,37.9056526 C188.103187,37.5463175 188.359851,37.2493205 188.631186,37.0146526 C188.902521,36.7799848 189.199518,36.6626526 189.522186,36.6626526 C190.006189,36.6626526 190.413184,36.8386509 190.743186,37.1906526 C191.073188,37.5426544 191.351852,37.9789834 191.579186,38.4996526 C191.806521,39.0203219 191.986185,39.5666498 192.118186,40.1386526 C192.250187,40.7106555 192.360186,41.2166504 192.448186,41.6566526 C192.536187,42.0526546 192.360188,42.345985 191.920186,42.5366526 C191.714852,42.6393198 191.560853,42.6539863 191.458186,42.5806526 C191.355519,42.5073189 191.296853,42.4339863 191.282186,42.3606526 C191.208852,42.1846518 191.117187,41.8766548 191.007186,41.4366526 C190.897186,40.9966504 190.77252,40.5493216 190.633186,40.0946526 C190.493852,39.6399837 190.336187,39.2439877 190.160186,38.9066526 C189.984185,38.5693176 189.786187,38.4153192 189.566186,38.4446526 C189.302185,38.4593194 189.06752,38.6573174 188.862186,39.0386526 C188.686185,39.3466542 188.50652,39.6876508 188.323186,40.0616526 C188.139852,40.4356545 187.960187,40.816984 187.784186,41.2056526 C187.608185,41.5943213 187.435854,41.982984 187.267186,42.3716526 C187.098519,42.7603213 186.940853,43.1159844 186.794186,43.4386526 C186.691519,43.5413198 186.563187,43.6109858 186.409186,43.6476526 C186.255185,43.6843195 186.09752,43.6733196 185.936186,43.6146526 C185.789519,43.5706524 185.672187,43.4973198 185.584186,43.3946526 C185.496186,43.2919855 185.452186,43.1893198 185.452186,43.0866526 C185.320185,41.9426469 185.18452,40.901324 185.045186,39.9626526 C184.905852,39.0239813 184.726187,38.0633242 184.506186,37.0806526 C184.403519,36.7433176 184.385186,36.4756536 184.451186,36.2776526 C184.517186,36.0796517 184.733518,36.0026524 185.100186,36.0466526 C185.613522,36.1346531 185.928852,36.4573165 186.046186,37.0146526 Z M198.960186,38.3786526 C199.238854,38.3639859 199.517518,38.4299852 199.796186,38.5766526 C200.074854,38.72332 200.214186,38.9506511 200.214186,39.2586526 C200.184853,39.5079872 200.049187,39.6656523 199.807186,39.7316526 C199.565185,39.797653 199.370853,39.8306526 199.224186,39.8306526 C198.930851,39.8306526 198.615521,39.8379859 198.278186,39.8526526 C197.940851,39.8673194 197.596188,39.8893192 197.244186,39.9186526 C197.214853,40.4026551 197.189186,40.8573172 197.167186,41.2826526 C197.145186,41.7079881 197.126853,42.085651 197.112186,42.4156526 C197.097519,42.7456543 197.090186,43.0133183 197.090186,43.2186526 C197.090186,43.423987 197.097519,43.5339859 197.112186,43.5486526 C197.434854,43.4899857 197.783184,43.3909867 198.157186,43.2516526 C198.531188,43.1123186 198.905184,42.9583202 199.279186,42.7896526 C199.653188,42.6209851 200.019851,42.4449869 200.379186,42.2616526 C200.738521,42.0783184 201.079518,41.9059868 201.402186,41.7446526 C201.548853,41.6713189 201.684519,41.6493192 201.809186,41.6786526 C201.933853,41.7079861 202.010853,41.7739855 202.040186,41.8766526 C202.06952,42.0379868 202.04752,42.2359848 201.974186,42.4706526 C201.900852,42.7053205 201.768854,42.917985 201.578186,43.1086526 C201.358185,43.2846535 201.068521,43.4863182 200.709186,43.7136526 C200.349851,43.9409871 199.964855,44.1573183 199.554186,44.3626526 C199.143517,44.567987 198.729188,44.7476519 198.311186,44.9016526 C197.893184,45.0556534 197.522854,45.1473192 197.200186,45.1766526 C196.716184,45.2206529 196.349521,45.0886542 196.100186,44.7806526 C195.850852,44.4726511 195.71152,44.0839883 195.682186,43.6146526 C195.652853,43.145317 195.649186,42.6026557 195.671186,41.9866526 C195.693186,41.3706496 195.718853,40.7179894 195.748186,40.0286526 C195.469518,40.0579861 195.201854,40.0836525 194.945186,40.1056526 C194.688518,40.1276528 194.442854,40.1533192 194.208186,40.1826526 C194.017518,40.1826526 193.808521,40.1386531 193.581186,40.0506526 C193.353852,39.9626522 193.240186,39.7939872 193.240186,39.5446526 C193.240186,39.4566522 193.276852,39.33932 193.350186,39.1926526 C193.42352,39.0459852 193.584852,38.9359863 193.834186,38.8626526 C194.435522,38.7599855 195.102849,38.6719863 195.836186,38.5986526 C195.880186,37.9093159 195.931519,37.2419892 195.990186,36.5966526 C196.048853,35.9513161 196.100186,35.3646553 196.144186,34.8366526 C196.158853,34.6606518 196.210186,34.5066533 196.298186,34.3746526 C196.386187,34.242652 196.481519,34.1766526 196.584186,34.1766526 C196.833521,34.1619859 197.071852,34.2243186 197.299186,34.3636526 C197.526521,34.5029867 197.640186,34.6606518 197.640186,34.8366526 C197.581519,35.3353218 197.52652,35.8999828 197.475186,36.5306526 C197.423853,37.1613225 197.376186,37.8066493 197.332186,38.4666526 C197.625521,38.4373192 197.907851,38.418986 198.179186,38.4116526 C198.450521,38.4043193 198.710852,38.3933194 198.960186,38.3786526 Z M204.482186,34.5286526 C204.482186,34.8806544 204.478519,35.2766504 204.471186,35.7166526 C204.463853,36.1566548 204.463853,36.611317 204.471186,37.0806526 C204.478519,37.5499883 204.485853,38.0339835 204.493186,38.5326526 C204.500519,39.0313218 204.511519,39.5079837 204.526186,39.9626526 C204.672853,39.6693178 204.848852,39.3796541 205.054186,39.0936526 C205.25952,38.8076512 205.490518,38.5546537 205.747186,38.3346526 C206.003854,38.1146515 206.275185,37.9386533 206.561186,37.8066526 C206.847188,37.674652 207.158851,37.6086526 207.496186,37.6086526 C207.862855,37.6086526 208.189185,37.7259848 208.475186,37.9606526 C208.761188,38.1953205 209.010518,38.506984 209.223186,38.8956526 C209.435854,39.2843213 209.615519,39.7169836 209.762186,40.1936526 C209.908853,40.6703217 210.029852,41.1543169 210.125186,41.6456526 C210.22052,42.1369884 210.290186,42.6063171 210.334186,43.0536526 C210.378186,43.5009882 210.414853,43.8859844 210.444186,44.2086526 C210.444186,44.4433205 210.38552,44.6339852 210.268186,44.7806526 C210.150852,44.92732 210.01152,45.0006526 209.850186,45.0006526 C209.732852,45.0006526 209.589854,44.9236534 209.421186,44.7696526 C209.252519,44.6156519 209.13152,44.4286537 209.058186,44.2086526 C209.014186,44.0326518 208.970186,43.7759877 208.926186,43.4386526 C208.882186,43.1013176 208.830853,42.7383213 208.772186,42.3496526 C208.713519,41.960984 208.640187,41.5686546 208.552186,41.1726526 C208.464186,40.7766507 208.357853,40.4209876 208.233186,40.1056526 C208.108519,39.7903177 207.958187,39.5446535 207.782186,39.3686526 C207.606185,39.1926518 207.400854,39.1266524 207.166186,39.1706526 C206.799518,39.2439863 206.480521,39.5006504 206.209186,39.9406526 C205.937851,40.3806548 205.703187,40.8793165 205.505186,41.4366526 C205.307185,41.9939888 205.145853,42.5586498 205.021186,43.1306526 C204.896519,43.7026555 204.804853,44.1646509 204.746186,44.5166526 C204.687519,44.780654 204.61052,44.9603188 204.515186,45.0556526 C204.419852,45.1509865 204.31352,45.1986526 204.196186,45.1986526 C204.078852,45.1986526 203.97252,45.1399866 203.877186,45.0226526 C203.781852,44.9053187 203.693853,44.7623202 203.613186,44.5936526 C203.532519,44.4249851 203.462853,44.2489869 203.404186,44.0656526 C203.345519,43.8823184 203.308853,43.7246533 203.294186,43.5926526 C203.220852,42.8006487 203.162186,42.0416563 203.118186,41.3156526 C203.074186,40.589649 203.041186,39.8599896 203.019186,39.1266526 C202.997186,38.3933156 202.986186,37.6416565 202.986186,36.8716526 C202.986186,36.1016488 203.000853,35.276657 203.030186,34.3966526 C203.030186,33.6633156 203.294183,33.3333189 203.822186,33.4066526 C203.998187,33.4359861 204.152185,33.5643182 204.284186,33.7916526 C204.416187,34.0189871 204.482186,34.2646513 204.482186,34.5286526 Z M216.142186,37.6966526 C216.112853,37.5353185 216.08352,37.38132 216.054186,37.2346526 C216.024853,37.0879852 215.95152,36.9926529 215.834186,36.9486526 C215.584852,36.8753189 215.320854,36.8679857 215.042186,36.9266526 C214.763518,36.9853196 214.506854,37.0769854 214.272186,37.2016526 C214.037518,37.3263199 213.83952,37.4656519 213.678186,37.6196526 C213.516852,37.7736534 213.428853,37.9093187 213.414186,38.0266526 C213.370186,38.2466537 213.428852,38.4593183 213.590186,38.6646526 C213.75152,38.869987 213.986185,39.0753183 214.294186,39.2806526 C214.807522,39.5886542 215.34285,39.9039844 215.900186,40.2266526 C216.457522,40.5493209 216.926851,40.8793176 217.308186,41.2166526 C217.689521,41.5539877 217.949852,41.9243173 218.089186,42.3276526 C218.22852,42.730988 218.19552,43.1893167 217.990186,43.7026526 C217.828852,44.0986546 217.528188,44.4213181 217.088186,44.6706526 C216.648184,44.9199872 216.164189,45.1143186 215.636186,45.2536526 C215.108183,45.3929867 214.580189,45.4883191 214.052186,45.5396526 C213.524183,45.5909862 213.076855,45.6166526 212.710186,45.6166526 C212.622186,45.6166526 212.515853,45.583653 212.391186,45.5176526 C212.266519,45.4516523 212.149187,45.3746531 212.039186,45.2866526 C211.929186,45.1986522 211.833853,45.1069865 211.753186,45.0116526 C211.672519,44.9163188 211.632186,44.8319863 211.632186,44.7586526 C211.632186,44.4946513 211.749518,44.3113198 211.984186,44.2086526 C212.218854,44.1059855 212.460852,44.0546526 212.710186,44.0546526 C213.062188,44.0546526 213.439851,44.0363195 213.843186,43.9996526 C214.246521,43.9629858 214.631518,43.9043197 214.998186,43.8236526 C215.364855,43.7429856 215.694851,43.6366533 215.988186,43.5046526 C216.281521,43.372652 216.486852,43.203987 216.604186,42.9986526 C216.706853,42.8226518 216.644521,42.6136539 216.417186,42.3716526 C216.189852,42.1296514 215.889188,41.876654 215.515186,41.6126526 C215.141184,41.3486513 214.737855,41.0919872 214.305186,40.8426526 C213.872517,40.5933181 213.502188,40.365987 213.194186,40.1606526 C212.886185,39.9553183 212.622187,39.7096541 212.402186,39.4236526 C212.182185,39.1376512 212.042853,38.7819881 211.984186,38.3566526 C211.969519,37.9753174 212.050185,37.6086544 212.226186,37.2566526 C212.402187,36.9046509 212.633185,36.5929873 212.919186,36.3216526 C213.205188,36.050318 213.531518,35.8339868 213.898186,35.6726526 C214.264855,35.5113185 214.631518,35.4306526 214.998186,35.4306526 C215.628856,35.4599861 216.149517,35.6323177 216.560186,35.9476526 C216.970855,36.2629876 217.212852,36.7286496 217.286186,37.3446526 C217.286186,37.549987 217.253186,37.718652 217.187186,37.8506526 C217.121186,37.9826533 217.00752,38.0633192 216.846186,38.0926526 C216.640852,38.1219861 216.475853,38.0963197 216.351186,38.0156526 C216.226519,37.9349856 216.156853,37.8286533 216.142186,37.6966526 Z M45.1361861,70.2706526 C44.9308517,70.2999861 44.6925208,70.2779863 44.4211861,70.2046526 C44.1498514,70.1313189 43.9628533,69.9479874 43.8601861,69.6546526 C43.8161859,69.5079852 43.8088526,69.3649867 43.8381861,69.2256526 C43.8675196,69.0863186 44.021518,68.9873196 44.3001861,68.9286526 C44.5641874,68.8699857 44.8465179,68.8149862 45.1471861,68.7636526 C45.4478543,68.7123191 45.7521846,68.6646529 46.0601861,68.6206526 L45.2461861,66.1566526 C44.9968515,65.2179813 44.9675185,64.4113227 45.1581861,63.7366526 C45.3488537,63.0619826 45.891515,62.5779874 46.7861861,62.2846526 C47.1528546,62.1673187 47.515851,62.1233192 47.8751861,62.1526526 C48.2345212,62.1819861 48.5755178,62.2773185 48.8981861,62.4386526 C49.2208544,62.5999868 49.5141848,62.8126513 49.7781861,63.0766526 C50.0421874,63.340654 50.254852,63.6486509 50.4161861,64.0006526 C50.4748531,64.1619868 50.5078527,64.3049854 50.5151861,64.4296526 C50.5225195,64.5543199 50.4748533,64.6679855 50.3721861,64.7706526 C50.2255187,64.91732 50.064187,64.9796528 49.8881861,64.9576526 C49.7121852,64.9356525 49.5948531,64.8879863 49.5361861,64.8146526 C49.4041854,64.6533185 49.2611869,64.4883202 49.1071861,64.3196526 C48.9531853,64.1509851 48.7918536,64.0043199 48.6231861,63.8796526 C48.4545186,63.7549854 48.2748537,63.659653 48.0841861,63.5936526 C47.8935185,63.5276523 47.6881872,63.5093192 47.4681861,63.5386526 C47.3655189,63.5533194 47.2445201,63.6046522 47.1051861,63.6926526 C46.9658521,63.7806531 46.8448533,63.9163184 46.7421861,64.0996526 C46.6395189,64.2829869 46.5771862,64.5213178 46.5551861,64.8146526 C46.533186,65.1079874 46.5808522,65.4746504 46.6981861,65.9146526 C46.8008533,66.2813211 46.9181854,66.6773172 47.0501861,67.1026526 C47.1821868,67.5279881 47.328852,67.975317 47.4901861,68.4446526 C48.1941896,68.3713189 48.8395165,68.3493192 49.4261861,68.3786526 C49.7488544,68.4079861 50.049518,68.4666522 50.3281861,68.5546526 C50.6068542,68.6426531 50.8341852,68.7746518 51.0101861,68.9506526 C51.0541863,69.09732 51.0468531,69.2183188 50.9881861,69.3136526 C50.9295191,69.4089865 50.8451866,69.4896523 50.7351861,69.5556526 C50.6251855,69.621653 50.5005201,69.6693192 50.3611861,69.6986526 C50.2218521,69.7279861 50.0861868,69.7499859 49.9541861,69.7646526 C49.6608513,69.7939861 49.3528544,69.8269858 49.0301861,69.8636526 C48.7075178,69.9003195 48.3701879,69.9333192 48.0181861,69.9626526 C48.2528539,70.6226559 48.4691851,71.2496497 48.6671861,71.8436526 C48.8651871,72.4376556 49.0228522,72.9326507 49.1401861,73.3286526 C49.1988531,73.5486537 49.2061863,73.7833181 49.1621861,74.0326526 C49.1181859,74.2819872 49.0595198,74.5239848 48.9861861,74.7586526 C48.8688522,75.0959877 48.722187,75.3673183 48.5461861,75.5726526 C48.3701852,75.777987 48.1795205,75.8439863 47.9741861,75.7706526 C47.812852,75.6973189 47.7101863,75.6019866 47.6661861,75.4846526 C47.6221859,75.3673187 47.6148526,75.205987 47.6441861,75.0006526 C47.6735196,74.7659848 47.6881861,74.5313205 47.6881861,74.2966526 C47.6881861,74.0619848 47.6771862,73.8456536 47.6551861,73.6476526 C47.633186,73.4496517 47.6038529,73.2736534 47.5671861,73.1196526 C47.5305192,72.9656519 47.5048528,72.8593196 47.4901861,72.8006526 L46.5661861,70.1166526 C46.3315183,70.1459861 46.0968539,70.1716525 45.8621861,70.1936526 C45.6275183,70.2156528 45.3855207,70.2413192 45.1361861,70.2706526 Z M59.1061861,66.6846526 C58.8421848,66.83132 58.5671875,66.9853185 58.2811861,67.1466526 C57.9951847,67.3079868 57.7091875,67.4949849 57.4231861,67.7076526 C57.1371847,67.9203204 56.865854,68.1696512 56.6091861,68.4556526 C56.3525181,68.7416541 56.1215205,69.0826507 55.9161861,69.4786526 C55.6228513,70.0359888 55.4248533,70.6043164 55.3221861,71.1836526 C55.2195189,71.7629889 55.1535196,72.3313165 55.1241861,72.8886526 C55.1241861,73.152654 55.0618534,73.420318 54.9371861,73.6916526 C54.8125188,73.9629873 54.6401872,74.0986526 54.4201861,74.0986526 C54.141518,74.0986526 53.9178536,73.9556541 53.7491861,73.6696526 C53.5805186,73.3836512 53.4668531,73.108654 53.4081861,72.8446526 C53.1588515,71.8033141 52.9535202,70.7729911 52.7921861,69.7536526 C52.630852,68.7343142 52.49152,67.7186577 52.3741861,66.7066526 C52.3741861,66.5013183 52.4365188,66.3693196 52.5611861,66.3106526 C52.6858534,66.2519857 52.828852,66.2299859 52.9901861,66.2446526 C53.166187,66.2593194 53.334852,66.3033189 53.4961861,66.3766526 C53.6575202,66.4499863 53.7528526,66.5673185 53.7821861,66.7286526 C53.8408531,67.271322 53.9141857,67.8396497 54.0021861,68.4336526 C54.0901865,69.0276556 54.1781857,69.5373172 54.2661861,69.9626526 C54.3248531,69.4639835 54.4861848,68.9799883 54.7501861,68.5106526 C55.0141874,68.041317 55.3405175,67.6159879 55.7291861,67.2346526 C56.1178547,66.8533174 56.5578503,66.530654 57.0491861,66.2666526 C57.5405219,66.0026513 58.0428502,65.8266531 58.5561861,65.7386526 C58.7761872,65.7093192 58.9595187,65.7093192 59.1061861,65.7386526 C59.2528535,65.7679861 59.3555191,65.8193189 59.4141861,65.8926526 C59.4728531,65.9659863 59.4838529,66.0833185 59.4471861,66.2446526 C59.4105192,66.4059868 59.2968537,66.552652 59.1061861,66.6846526 Z M65.7501861,69.1046526 C65.1781832,69.4419877 64.5621894,69.7023184 63.9021861,69.8856526 C63.2421828,70.0689869 62.5308566,70.1606526 61.7681861,70.1606526 C61.7975196,70.6739885 61.9441848,71.0809845 62.2081861,71.3816526 C62.4721874,71.6823208 62.8021841,71.8619857 63.1981861,71.9206526 C63.4328539,71.9499861 63.6711849,71.9426529 63.9131861,71.8986526 C64.1551873,71.8546524 64.3825184,71.7849865 64.5951861,71.6896526 C64.8078538,71.5943188 65.0021852,71.4879866 65.1781861,71.3706526 C65.354187,71.2533187 65.5081854,71.1359866 65.6401861,71.0186526 C65.7721868,70.9013187 65.9115187,70.8243195 66.0581861,70.7876526 C66.2048535,70.7509858 66.3148524,70.7473192 66.3881861,70.7766526 C66.5935205,70.8499863 66.6668531,71.0699841 66.6081861,71.4366526 C66.3735183,71.9059883 66.0361883,72.305651 65.5961861,72.6356526 C65.1561839,72.9656543 64.6648555,73.1746522 64.1221861,73.2626526 C63.6528504,73.3506531 63.1688553,73.3286533 62.6701861,73.1966526 C62.1715169,73.064652 61.7241881,72.8079879 61.3281861,72.4266526 C60.9908511,72.0893176 60.734187,71.6933216 60.5581861,71.2386526 C60.3821852,70.7839837 60.2721863,70.3146551 60.2281861,69.8306526 C60.1841859,69.3759837 60.2245188,68.9433214 60.3491861,68.5326526 C60.4738534,68.1219839 60.6681848,67.7589876 60.9321861,67.4436526 C61.1961874,67.1283177 61.5261841,66.867987 61.9221861,66.6626526 C62.3181881,66.4573183 62.7801835,66.3399861 63.3081861,66.3106526 C63.9388559,66.2666524 64.5108502,66.3839846 65.0241861,66.6626526 C65.537522,66.9413207 65.8968517,67.3299835 66.1021861,67.8286526 C66.21952,68.1073207 66.2525197,68.3493183 66.2011861,68.5546526 C66.1498525,68.759987 65.9995207,68.9433185 65.7501861,69.1046526 Z M63.2201861,67.6086526 C63.0735187,67.6379861 62.9158536,67.6893189 62.7471861,67.7626526 C62.5785186,67.8359863 62.4245201,67.9276521 62.2851861,68.0376526 C62.1458521,68.1476532 62.0211866,68.2723186 61.9111861,68.4116526 C61.8011855,68.5509867 61.7388528,68.7086518 61.7241861,68.8846526 C61.9735207,68.8846526 62.2485179,68.8626529 62.5491861,68.8186526 C62.8498543,68.7746524 63.1431847,68.719653 63.4291861,68.6536526 C63.7151875,68.5876523 63.9791849,68.5106531 64.2211861,68.4226526 C64.4631873,68.3346522 64.664852,68.2393198 64.8261861,68.1366526 C64.7088522,67.8579846 64.492521,67.685653 64.1771861,67.6196526 C63.8618512,67.5536523 63.5428544,67.5499857 63.2201861,67.6086526 Z M73.4721861,69.1046526 C72.9001832,69.4419877 72.2841894,69.7023184 71.6241861,69.8856526 C70.9641828,70.0689869 70.2528566,70.1606526 69.4901861,70.1606526 C69.5195196,70.6739885 69.6661848,71.0809845 69.9301861,71.3816526 C70.1941874,71.6823208 70.5241841,71.8619857 70.9201861,71.9206526 C71.1548539,71.9499861 71.3931849,71.9426529 71.6351861,71.8986526 C71.8771873,71.8546524 72.1045184,71.7849865 72.3171861,71.6896526 C72.5298538,71.5943188 72.7241852,71.4879866 72.9001861,71.3706526 C73.076187,71.2533187 73.2301854,71.1359866 73.3621861,71.0186526 C73.4941868,70.9013187 73.6335187,70.8243195 73.7801861,70.7876526 C73.9268535,70.7509858 74.0368524,70.7473192 74.1101861,70.7766526 C74.3155205,70.8499863 74.3888531,71.0699841 74.3301861,71.4366526 C74.0955183,71.9059883 73.7581883,72.305651 73.3181861,72.6356526 C72.8781839,72.9656543 72.3868555,73.1746522 71.8441861,73.2626526 C71.3748504,73.3506531 70.8908553,73.3286533 70.3921861,73.1966526 C69.8935169,73.064652 69.4461881,72.8079879 69.0501861,72.4266526 C68.7128511,72.0893176 68.456187,71.6933216 68.2801861,71.2386526 C68.1041852,70.7839837 67.9941863,70.3146551 67.9501861,69.8306526 C67.9061859,69.3759837 67.9465188,68.9433214 68.0711861,68.5326526 C68.1958534,68.1219839 68.3901848,67.7589876 68.6541861,67.4436526 C68.9181874,67.1283177 69.2481841,66.867987 69.6441861,66.6626526 C70.0401881,66.4573183 70.5021835,66.3399861 71.0301861,66.3106526 C71.6608559,66.2666524 72.2328502,66.3839846 72.7461861,66.6626526 C73.259522,66.9413207 73.6188517,67.3299835 73.8241861,67.8286526 C73.94152,68.1073207 73.9745197,68.3493183 73.9231861,68.5546526 C73.8718525,68.759987 73.7215207,68.9433185 73.4721861,69.1046526 Z M70.9421861,67.6086526 C70.7955187,67.6379861 70.6378536,67.6893189 70.4691861,67.7626526 C70.3005186,67.8359863 70.1465201,67.9276521 70.0071861,68.0376526 C69.8678521,68.1476532 69.7431866,68.2723186 69.6331861,68.4116526 C69.5231855,68.5509867 69.4608528,68.7086518 69.4461861,68.8846526 C69.6955207,68.8846526 69.9705179,68.8626529 70.2711861,68.8186526 C70.5718543,68.7746524 70.8651847,68.719653 71.1511861,68.6536526 C71.4371875,68.5876523 71.7011849,68.5106531 71.9431861,68.4226526 C72.1851873,68.3346522 72.386852,68.2393198 72.5481861,68.1366526 C72.4308522,67.8579846 72.214521,67.685653 71.8991861,67.6196526 C71.5838512,67.5536523 71.2648544,67.5499857 70.9421861,67.6086526 Z M82.8001861,70.2706526 C82.5948517,70.2999861 82.3565208,70.2779863 82.0851861,70.2046526 C81.8138514,70.1313189 81.6268533,69.9479874 81.5241861,69.6546526 C81.4801859,69.5079852 81.4728526,69.3649867 81.5021861,69.2256526 C81.5315196,69.0863186 81.685518,68.9873196 81.9641861,68.9286526 C82.2281874,68.8699857 82.5105179,68.8149862 82.8111861,68.7636526 C83.1118543,68.7123191 83.4161846,68.6646529 83.7241861,68.6206526 L82.9101861,66.1566526 C82.6608515,65.2179813 82.6315185,64.4113227 82.8221861,63.7366526 C83.0128537,63.0619826 83.555515,62.5779874 84.4501861,62.2846526 C84.8168546,62.1673187 85.179851,62.1233192 85.5391861,62.1526526 C85.8985212,62.1819861 86.2395178,62.2773185 86.5621861,62.4386526 C86.8848544,62.5999868 87.1781848,62.8126513 87.4421861,63.0766526 C87.7061874,63.340654 87.918852,63.6486509 88.0801861,64.0006526 C88.1388531,64.1619868 88.1718527,64.3049854 88.1791861,64.4296526 C88.1865195,64.5543199 88.1388533,64.6679855 88.0361861,64.7706526 C87.8895187,64.91732 87.728187,64.9796528 87.5521861,64.9576526 C87.3761852,64.9356525 87.2588531,64.8879863 87.2001861,64.8146526 C87.0681854,64.6533185 86.9251869,64.4883202 86.7711861,64.3196526 C86.6171853,64.1509851 86.4558536,64.0043199 86.2871861,63.8796526 C86.1185186,63.7549854 85.9388537,63.659653 85.7481861,63.5936526 C85.5575185,63.5276523 85.3521872,63.5093192 85.1321861,63.5386526 C85.0295189,63.5533194 84.9085201,63.6046522 84.7691861,63.6926526 C84.6298521,63.7806531 84.5088533,63.9163184 84.4061861,64.0996526 C84.3035189,64.2829869 84.2411862,64.5213178 84.2191861,64.8146526 C84.197186,65.1079874 84.2448522,65.4746504 84.3621861,65.9146526 C84.4648533,66.2813211 84.5821854,66.6773172 84.7141861,67.1026526 C84.8461868,67.5279881 84.992852,67.975317 85.1541861,68.4446526 C85.8581896,68.3713189 86.5035165,68.3493192 87.0901861,68.3786526 C87.4128544,68.4079861 87.713518,68.4666522 87.9921861,68.5546526 C88.2708542,68.6426531 88.4981852,68.7746518 88.6741861,68.9506526 C88.7181863,69.09732 88.7108531,69.2183188 88.6521861,69.3136526 C88.5935191,69.4089865 88.5091866,69.4896523 88.3991861,69.5556526 C88.2891855,69.621653 88.1645201,69.6693192 88.0251861,69.6986526 C87.8858521,69.7279861 87.7501868,69.7499859 87.6181861,69.7646526 C87.3248513,69.7939861 87.0168544,69.8269858 86.6941861,69.8636526 C86.3715178,69.9003195 86.0341879,69.9333192 85.6821861,69.9626526 C85.9168539,70.6226559 86.1331851,71.2496497 86.3311861,71.8436526 C86.5291871,72.4376556 86.6868522,72.9326507 86.8041861,73.3286526 C86.8628531,73.5486537 86.8701863,73.7833181 86.8261861,74.0326526 C86.7821859,74.2819872 86.7235198,74.5239848 86.6501861,74.7586526 C86.5328522,75.0959877 86.386187,75.3673183 86.2101861,75.5726526 C86.0341852,75.777987 85.8435205,75.8439863 85.6381861,75.7706526 C85.476852,75.6973189 85.3741863,75.6019866 85.3301861,75.4846526 C85.2861859,75.3673187 85.2788526,75.205987 85.3081861,75.0006526 C85.3375196,74.7659848 85.3521861,74.5313205 85.3521861,74.2966526 C85.3521861,74.0619848 85.3411862,73.8456536 85.3191861,73.6476526 C85.297186,73.4496517 85.2678529,73.2736534 85.2311861,73.1196526 C85.1945192,72.9656519 85.1688528,72.8593196 85.1541861,72.8006526 L84.2301861,70.1166526 C83.9955183,70.1459861 83.7608539,70.1716525 83.5261861,70.1936526 C83.2915183,70.2156528 83.0495207,70.2413192 82.8001861,70.2706526 Z M95.2521861,66.5966526 C95.6921883,66.7579868 96.0625179,66.9999844 96.3631861,67.3226526 C96.6638543,67.6453209 96.894852,68.0083173 97.0561861,68.4116526 C97.2175202,68.814988 97.309186,69.2293172 97.3311861,69.6546526 C97.3531862,70.0799881 97.30552,70.4759841 97.1881861,70.8426526 C97.026852,71.2533214 96.8215207,71.6566507 96.5721861,72.0526526 C96.3228515,72.4486546 96.0368544,72.8006511 95.7141861,73.1086526 C95.3915178,73.4166542 95.0248548,73.665985 94.6141861,73.8566526 C94.2035174,74.0473203 93.7488553,74.1426526 93.2501861,74.1426526 C92.6488498,74.1426526 92.1428548,74.0033207 91.7321861,73.7246526 C91.3215174,73.4459846 90.9988539,73.0866548 90.7641861,72.6466526 C90.5295183,72.2066504 90.3791864,71.7079888 90.3131861,71.1506526 C90.2471858,70.5933165 90.2581857,70.0359888 90.3461861,69.4786526 C90.4048531,69.0679839 90.5038521,68.6683213 90.6431861,68.2796526 C90.7825201,67.890984 90.962185,67.5463208 91.1821861,67.2456526 C91.4021872,66.9449845 91.6551847,66.6993203 91.9411861,66.5086526 C92.2271875,66.317985 92.5535176,66.2226526 92.9201861,66.2226526 C93.1255205,66.2226526 93.3821846,66.2629856 93.6901861,66.3436526 C93.9981876,66.4243197 94.2841848,66.5379852 94.5481861,66.6846526 C94.7388537,66.5086518 94.973518,66.4793187 95.2521861,66.5966526 Z M94.4161861,68.2026526 C94.254852,68.0999855 94.0678538,67.9643202 93.8551861,67.7956526 C93.6425184,67.6269851 93.4555202,67.5426526 93.2941861,67.5426526 C93.1181852,67.5426526 92.9458536,67.6233185 92.7771861,67.7846526 C92.6085186,67.9459868 92.4618534,68.1329849 92.3371861,68.3456526 C92.2125188,68.5583204 92.1061865,68.7746515 92.0181861,68.9946526 C91.9301857,69.2146537 91.8715196,69.390652 91.8421861,69.5226526 C91.7981859,69.7426537 91.7688528,70.0066511 91.7541861,70.3146526 C91.7395194,70.6226542 91.7615191,70.9269845 91.8201861,71.2276526 C91.8788531,71.5283208 91.9925186,71.7996514 92.1611861,72.0416526 C92.3298536,72.2836539 92.5828511,72.4559855 92.9201861,72.5586526 C93.1255205,72.6173196 93.367518,72.613653 93.6461861,72.5476526 C93.9248542,72.4816523 94.1998514,72.3606535 94.4711861,72.1846526 C94.7425208,72.0086518 94.9991849,71.7739874 95.2411861,71.4806526 C95.4831873,71.1873178 95.6701854,70.8499879 95.8021861,70.4686526 C95.9488535,70.0433172 95.9525201,69.599655 95.8131861,69.1376526 C95.6738521,68.6756503 95.3915216,68.341987 94.9661861,68.1366526 C94.8635189,68.2099863 94.7608533,68.2466526 94.6581861,68.2466526 C94.5555189,68.2466526 94.4748531,68.2319861 94.4161861,68.2026526 Z M105.658186,66.6846526 C105.394185,66.83132 105.119188,66.9853185 104.833186,67.1466526 C104.547185,67.3079868 104.261188,67.4949849 103.975186,67.7076526 C103.689185,67.9203204 103.417854,68.1696512 103.161186,68.4556526 C102.904518,68.7416541 102.67352,69.0826507 102.468186,69.4786526 C102.174851,70.0359888 101.976853,70.6043164 101.874186,71.1836526 C101.771519,71.7629889 101.70552,72.3313165 101.676186,72.8886526 C101.676186,73.152654 101.613853,73.420318 101.489186,73.6916526 C101.364519,73.9629873 101.192187,74.0986526 100.972186,74.0986526 C100.693518,74.0986526 100.469854,73.9556541 100.301186,73.6696526 C100.132519,73.3836512 100.018853,73.108654 99.9601861,72.8446526 C99.7108515,71.8033141 99.5055202,70.7729911 99.3441861,69.7536526 C99.182852,68.7343142 99.04352,67.7186577 98.9261861,66.7066526 C98.9261861,66.5013183 98.9885188,66.3693196 99.1131861,66.3106526 C99.2378534,66.2519857 99.380852,66.2299859 99.5421861,66.2446526 C99.718187,66.2593194 99.886852,66.3033189 100.048186,66.3766526 C100.20952,66.4499863 100.304853,66.5673185 100.334186,66.7286526 C100.392853,67.271322 100.466186,67.8396497 100.554186,68.4336526 C100.642187,69.0276556 100.730186,69.5373172 100.818186,69.9626526 C100.876853,69.4639835 101.038185,68.9799883 101.302186,68.5106526 C101.566187,68.041317 101.892517,67.6159879 102.281186,67.2346526 C102.669855,66.8533174 103.10985,66.530654 103.601186,66.2666526 C104.092522,66.0026513 104.59485,65.8266531 105.108186,65.7386526 C105.328187,65.7093192 105.511519,65.7093192 105.658186,65.7386526 C105.804853,65.7679861 105.907519,65.8193189 105.966186,65.8926526 C106.024853,65.9659863 106.035853,66.0833185 105.999186,66.2446526 C105.962519,66.4059868 105.848854,66.552652 105.658186,66.6846526 Z M118.132186,68.3786526 C118.410854,68.3639859 118.689518,68.4299852 118.968186,68.5766526 C119.246854,68.72332 119.386186,68.9506511 119.386186,69.2586526 C119.356853,69.5079872 119.221187,69.6656523 118.979186,69.7316526 C118.737185,69.797653 118.542853,69.8306526 118.396186,69.8306526 C118.102851,69.8306526 117.787521,69.8379859 117.450186,69.8526526 C117.112851,69.8673194 116.768188,69.8893192 116.416186,69.9186526 C116.386853,70.4026551 116.361186,70.8573172 116.339186,71.2826526 C116.317186,71.7079881 116.298853,72.085651 116.284186,72.4156526 C116.269519,72.7456543 116.262186,73.0133183 116.262186,73.2186526 C116.262186,73.423987 116.269519,73.5339859 116.284186,73.5486526 C116.606854,73.4899857 116.955184,73.3909867 117.329186,73.2516526 C117.703188,73.1123186 118.077184,72.9583202 118.451186,72.7896526 C118.825188,72.6209851 119.191851,72.4449869 119.551186,72.2616526 C119.910521,72.0783184 120.251518,71.9059868 120.574186,71.7446526 C120.720853,71.6713189 120.856519,71.6493192 120.981186,71.6786526 C121.105853,71.7079861 121.182853,71.7739855 121.212186,71.8766526 C121.24152,72.0379868 121.21952,72.2359848 121.146186,72.4706526 C121.072852,72.7053205 120.940854,72.917985 120.750186,73.1086526 C120.530185,73.2846535 120.240521,73.4863182 119.881186,73.7136526 C119.521851,73.9409871 119.136855,74.1573183 118.726186,74.3626526 C118.315517,74.567987 117.901188,74.7476519 117.483186,74.9016526 C117.065184,75.0556534 116.694854,75.1473192 116.372186,75.1766526 C115.888184,75.2206529 115.521521,75.0886542 115.272186,74.7806526 C115.022852,74.4726511 114.88352,74.0839883 114.854186,73.6146526 C114.824853,73.145317 114.821186,72.6026557 114.843186,71.9866526 C114.865186,71.3706496 114.890853,70.7179894 114.920186,70.0286526 C114.641518,70.0579861 114.373854,70.0836525 114.117186,70.1056526 C113.860518,70.1276528 113.614854,70.1533192 113.380186,70.1826526 C113.189518,70.1826526 112.980521,70.1386531 112.753186,70.0506526 C112.525852,69.9626522 112.412186,69.7939872 112.412186,69.5446526 C112.412186,69.4566522 112.448852,69.33932 112.522186,69.1926526 C112.59552,69.0459852 112.756852,68.9359863 113.006186,68.8626526 C113.607522,68.7599855 114.274849,68.6719863 115.008186,68.5986526 C115.052186,67.9093159 115.103519,67.2419892 115.162186,66.5966526 C115.220853,65.9513161 115.272186,65.3646553 115.316186,64.8366526 C115.330853,64.6606518 115.382186,64.5066533 115.470186,64.3746526 C115.558187,64.242652 115.653519,64.1766526 115.756186,64.1766526 C116.005521,64.1619859 116.243852,64.2243186 116.471186,64.3636526 C116.698521,64.5029867 116.812186,64.6606518 116.812186,64.8366526 C116.753519,65.3353218 116.69852,65.8999828 116.647186,66.5306526 C116.595853,67.1613225 116.548186,67.8066493 116.504186,68.4666526 C116.797521,68.4373192 117.079851,68.418986 117.351186,68.4116526 C117.622521,68.4043193 117.882852,68.3933194 118.132186,68.3786526 Z M123.654186,64.5286526 C123.654186,64.8806544 123.650519,65.2766504 123.643186,65.7166526 C123.635853,66.1566548 123.635853,66.611317 123.643186,67.0806526 C123.650519,67.5499883 123.657853,68.0339835 123.665186,68.5326526 C123.672519,69.0313218 123.683519,69.5079837 123.698186,69.9626526 C123.844853,69.6693178 124.020852,69.3796541 124.226186,69.0936526 C124.43152,68.8076512 124.662518,68.5546537 124.919186,68.3346526 C125.175854,68.1146515 125.447185,67.9386533 125.733186,67.8066526 C126.019188,67.674652 126.330851,67.6086526 126.668186,67.6086526 C127.034855,67.6086526 127.361185,67.7259848 127.647186,67.9606526 C127.933188,68.1953205 128.182518,68.506984 128.395186,68.8956526 C128.607854,69.2843213 128.787519,69.7169836 128.934186,70.1936526 C129.080853,70.6703217 129.201852,71.1543169 129.297186,71.6456526 C129.39252,72.1369884 129.462186,72.6063171 129.506186,73.0536526 C129.550186,73.5009882 129.586853,73.8859844 129.616186,74.2086526 C129.616186,74.4433205 129.55752,74.6339852 129.440186,74.7806526 C129.322852,74.92732 129.18352,75.0006526 129.022186,75.0006526 C128.904852,75.0006526 128.761854,74.9236534 128.593186,74.7696526 C128.424519,74.6156519 128.30352,74.4286537 128.230186,74.2086526 C128.186186,74.0326518 128.142186,73.7759877 128.098186,73.4386526 C128.054186,73.1013176 128.002853,72.7383213 127.944186,72.3496526 C127.885519,71.960984 127.812187,71.5686546 127.724186,71.1726526 C127.636186,70.7766507 127.529853,70.4209876 127.405186,70.1056526 C127.280519,69.7903177 127.130187,69.5446535 126.954186,69.3686526 C126.778185,69.1926518 126.572854,69.1266524 126.338186,69.1706526 C125.971518,69.2439863 125.652521,69.5006504 125.381186,69.9406526 C125.109851,70.3806548 124.875187,70.8793165 124.677186,71.4366526 C124.479185,71.9939888 124.317853,72.5586498 124.193186,73.1306526 C124.068519,73.7026555 123.976853,74.1646509 123.918186,74.5166526 C123.859519,74.780654 123.78252,74.9603188 123.687186,75.0556526 C123.591852,75.1509865 123.48552,75.1986526 123.368186,75.1986526 C123.250852,75.1986526 123.14452,75.1399866 123.049186,75.0226526 C122.953852,74.9053187 122.865853,74.7623202 122.785186,74.5936526 C122.704519,74.4249851 122.634853,74.2489869 122.576186,74.0656526 C122.517519,73.8823184 122.480853,73.7246533 122.466186,73.5926526 C122.392852,72.8006487 122.334186,72.0416563 122.290186,71.3156526 C122.246186,70.589649 122.213186,69.8599896 122.191186,69.1266526 C122.169186,68.3933156 122.158186,67.6416565 122.158186,66.8716526 C122.158186,66.1016488 122.172853,65.276657 122.202186,64.3966526 C122.202186,63.6633156 122.466183,63.3333189 122.994186,63.4066526 C123.170187,63.4359861 123.324185,63.5643182 123.456186,63.7916526 C123.588187,64.0189871 123.654186,64.2646513 123.654186,64.5286526 Z M136.524186,69.1046526 C135.952183,69.4419877 135.336189,69.7023184 134.676186,69.8856526 C134.016183,70.0689869 133.304857,70.1606526 132.542186,70.1606526 C132.57152,70.6739885 132.718185,71.0809845 132.982186,71.3816526 C133.246187,71.6823208 133.576184,71.8619857 133.972186,71.9206526 C134.206854,71.9499861 134.445185,71.9426529 134.687186,71.8986526 C134.929187,71.8546524 135.156518,71.7849865 135.369186,71.6896526 C135.581854,71.5943188 135.776185,71.4879866 135.952186,71.3706526 C136.128187,71.2533187 136.282185,71.1359866 136.414186,71.0186526 C136.546187,70.9013187 136.685519,70.8243195 136.832186,70.7876526 C136.978853,70.7509858 137.088852,70.7473192 137.162186,70.7766526 C137.36752,70.8499863 137.440853,71.0699841 137.382186,71.4366526 C137.147518,71.9059883 136.810188,72.305651 136.370186,72.6356526 C135.930184,72.9656543 135.438855,73.1746522 134.896186,73.2626526 C134.42685,73.3506531 133.942855,73.3286533 133.444186,73.1966526 C132.945517,73.064652 132.498188,72.8079879 132.102186,72.4266526 C131.764851,72.0893176 131.508187,71.6933216 131.332186,71.2386526 C131.156185,70.7839837 131.046186,70.3146551 131.002186,69.8306526 C130.958186,69.3759837 130.998519,68.9433214 131.123186,68.5326526 C131.247853,68.1219839 131.442185,67.7589876 131.706186,67.4436526 C131.970187,67.1283177 132.300184,66.867987 132.696186,66.6626526 C133.092188,66.4573183 133.554183,66.3399861 134.082186,66.3106526 C134.712856,66.2666524 135.28485,66.3839846 135.798186,66.6626526 C136.311522,66.9413207 136.670852,67.3299835 136.876186,67.8286526 C136.99352,68.1073207 137.02652,68.3493183 136.975186,68.5546526 C136.923853,68.759987 136.773521,68.9433185 136.524186,69.1046526 Z M133.994186,67.6086526 C133.847519,67.6379861 133.689854,67.6893189 133.521186,67.7626526 C133.352519,67.8359863 133.19852,67.9276521 133.059186,68.0376526 C132.919852,68.1476532 132.795187,68.2723186 132.685186,68.4116526 C132.575186,68.5509867 132.512853,68.7086518 132.498186,68.8846526 C132.747521,68.8846526 133.022518,68.8626529 133.323186,68.8186526 C133.623854,68.7746524 133.917185,68.719653 134.203186,68.6536526 C134.489188,68.5876523 134.753185,68.5106531 134.995186,68.4226526 C135.237187,68.3346522 135.438852,68.2393198 135.600186,68.1366526 C135.482852,67.8579846 135.266521,67.685653 134.951186,67.6196526 C134.635851,67.5536523 134.316854,67.5499857 133.994186,67.6086526 Z M151.902186,67.3446526 C151.946186,68.1366566 151.993853,68.9359819 152.045186,69.7426526 C152.09652,70.5493233 152.10752,71.3449821 152.078186,72.1296526 C152.048853,72.9143232 151.971853,73.6806489 151.847186,74.4286526 C151.722519,75.1766564 151.513521,75.8916492 151.220186,76.5736526 C150.926851,77.2556561 150.534522,77.889983 150.043186,78.4766526 C149.55185,79.0633222 148.93219,79.591317 148.184186,80.0606526 C148.066852,80.1339863 147.93852,80.1779859 147.799186,80.1926526 C147.659852,80.2073194 147.524187,80.2036528 147.392186,80.1816526 C147.260185,80.1596525 147.142853,80.1229862 147.040186,80.0716526 C146.937519,80.0203191 146.87152,79.9506531 146.842186,79.8626526 C146.798186,79.730652 146.820186,79.5839868 146.908186,79.4226526 C146.996187,79.2613185 147.142852,79.0926535 147.348186,78.9166526 C147.993523,78.4326502 148.536184,77.919322 148.976186,77.3766526 C149.416188,76.8339833 149.768185,76.2473225 150.032186,75.6166526 C150.296187,74.9859828 150.468519,74.300323 150.549186,73.5596526 C150.629853,72.8189823 150.626187,72.008657 150.538186,71.1286526 C150.362185,71.3486537 150.156854,71.5759848 149.922186,71.8106526 C149.687518,72.0453205 149.438187,72.2543184 149.174186,72.4376526 C148.910185,72.6209869 148.638854,72.7749854 148.360186,72.8996526 C148.081518,73.0243199 147.817521,73.0866526 147.568186,73.0866526 C147.362852,73.0866526 147.15752,73.0426531 146.952186,72.9546526 C146.746852,72.8666522 146.54152,72.6979872 146.336186,72.4486526 C146.101518,72.1406511 145.89252,71.7923213 145.709186,71.4036526 C145.525852,71.014984 145.368187,70.6373211 145.236186,70.2706526 C145.104185,69.9039841 144.997853,69.5739874 144.917186,69.2806526 C144.836519,68.9873178 144.788853,68.7819866 144.774186,68.6646526 C144.744853,68.5179852 144.744853,68.3786533 144.774186,68.2466526 C144.80352,68.114652 144.898852,68.0339861 145.060186,68.0046526 C145.280187,67.9606524 145.485518,67.9753189 145.676186,68.0486526 C145.866854,68.1219863 145.998852,68.2393185 146.072186,68.4006526 C146.130853,68.5619868 146.211519,68.8113176 146.314186,69.1486526 C146.416853,69.4859877 146.541519,69.819651 146.688186,70.1496526 C146.834853,70.4796543 146.992519,70.7693181 147.161186,71.0186526 C147.329854,71.2679872 147.509518,71.3926526 147.700186,71.3926526 C147.920187,71.3926526 148.180518,71.2826537 148.481186,71.0626526 C148.781854,70.8426515 149.071518,70.5566544 149.350186,70.2046526 C149.628854,69.8526509 149.867185,69.4603215 150.065186,69.0276526 C150.263187,68.5949838 150.362186,68.1733214 150.362186,67.7626526 C150.362186,67.6746522 150.376853,67.5719866 150.406186,67.4546526 C150.43552,67.3373187 150.479519,67.2236532 150.538186,67.1136526 C150.596853,67.0036521 150.666519,66.9083197 150.747186,66.8276526 C150.827853,66.7469856 150.912186,66.6993194 151.000186,66.6846526 C151.234854,66.6553192 151.443852,66.7176519 151.627186,66.8716526 C151.81052,67.0256534 151.902186,67.1833185 151.902186,67.3446526 Z M159.338186,69.1046526 C158.766183,69.4419877 158.150189,69.7023184 157.490186,69.8856526 C156.830183,70.0689869 156.118857,70.1606526 155.356186,70.1606526 C155.38552,70.6739885 155.532185,71.0809845 155.796186,71.3816526 C156.060187,71.6823208 156.390184,71.8619857 156.786186,71.9206526 C157.020854,71.9499861 157.259185,71.9426529 157.501186,71.8986526 C157.743187,71.8546524 157.970518,71.7849865 158.183186,71.6896526 C158.395854,71.5943188 158.590185,71.4879866 158.766186,71.3706526 C158.942187,71.2533187 159.096185,71.1359866 159.228186,71.0186526 C159.360187,70.9013187 159.499519,70.8243195 159.646186,70.7876526 C159.792853,70.7509858 159.902852,70.7473192 159.976186,70.7766526 C160.18152,70.8499863 160.254853,71.0699841 160.196186,71.4366526 C159.961518,71.9059883 159.624188,72.305651 159.184186,72.6356526 C158.744184,72.9656543 158.252855,73.1746522 157.710186,73.2626526 C157.24085,73.3506531 156.756855,73.3286533 156.258186,73.1966526 C155.759517,73.064652 155.312188,72.8079879 154.916186,72.4266526 C154.578851,72.0893176 154.322187,71.6933216 154.146186,71.2386526 C153.970185,70.7839837 153.860186,70.3146551 153.816186,69.8306526 C153.772186,69.3759837 153.812519,68.9433214 153.937186,68.5326526 C154.061853,68.1219839 154.256185,67.7589876 154.520186,67.4436526 C154.784187,67.1283177 155.114184,66.867987 155.510186,66.6626526 C155.906188,66.4573183 156.368183,66.3399861 156.896186,66.3106526 C157.526856,66.2666524 158.09885,66.3839846 158.612186,66.6626526 C159.125522,66.9413207 159.484852,67.3299835 159.690186,67.8286526 C159.80752,68.1073207 159.84052,68.3493183 159.789186,68.5546526 C159.737853,68.759987 159.587521,68.9433185 159.338186,69.1046526 Z M156.808186,67.6086526 C156.661519,67.6379861 156.503854,67.6893189 156.335186,67.7626526 C156.166519,67.8359863 156.01252,67.9276521 155.873186,68.0376526 C155.733852,68.1476532 155.609187,68.2723186 155.499186,68.4116526 C155.389186,68.5509867 155.326853,68.7086518 155.312186,68.8846526 C155.561521,68.8846526 155.836518,68.8626529 156.137186,68.8186526 C156.437854,68.7746524 156.731185,68.719653 157.017186,68.6536526 C157.303188,68.5876523 157.567185,68.5106531 157.809186,68.4226526 C158.051187,68.3346522 158.252852,68.2393198 158.414186,68.1366526 C158.296852,67.8579846 158.080521,67.685653 157.765186,67.6196526 C157.449851,67.5536523 157.130854,67.5499857 156.808186,67.6086526 Z M167.236186,66.1346526 C167.294853,66.5453214 167.342519,66.9816503 167.379186,67.4436526 C167.415853,67.905655 167.445186,68.371317 167.467186,68.8406526 C167.489186,69.3099883 167.500186,69.7646504 167.500186,70.2046526 C167.500186,70.6446548 167.492853,71.0406509 167.478186,71.3926526 C167.947522,71.7153209 168.229852,72.0013181 168.325186,72.2506526 C168.42052,72.4999872 168.43152,72.719985 168.358186,72.9106526 C168.270186,73.174654 168.112521,73.3103193 167.885186,73.3176526 C167.657852,73.324986 167.397521,73.2479868 167.104186,73.0866526 C166.898852,73.23332 166.664187,73.3909851 166.400186,73.5596526 C166.136185,73.7283202 165.857521,73.8896519 165.564186,74.0436526 C165.270851,74.1976534 164.977521,74.3333187 164.684186,74.4506526 C164.390851,74.5679866 164.119521,74.6486524 163.870186,74.6926526 C163.40085,74.7659863 162.979188,74.6779872 162.605186,74.4286526 C162.231184,74.1793181 161.978187,73.8053218 161.846186,73.3066526 C161.758186,72.9693176 161.736186,72.6209878 161.780186,72.2616526 C161.824186,71.9023175 161.934185,71.5576543 162.110186,71.2276526 C162.286187,70.897651 162.524518,70.600654 162.825186,70.3366526 C163.125854,70.0726513 163.481517,69.86732 163.892186,69.7206526 C163.994853,69.6766524 164.137852,69.6399861 164.321186,69.6106526 C164.50452,69.5813192 164.695185,69.5703193 164.893186,69.5776526 C165.091187,69.584986 165.292852,69.6253189 165.498186,69.6986526 C165.70352,69.7719863 165.894185,69.8966518 166.070186,70.0726526 C166.070186,69.8233181 166.066519,69.5483208 166.059186,69.2476526 C166.051853,68.9469845 166.040853,68.6426542 166.026186,68.3346526 C166.011519,68.0266511 165.993186,67.7369873 165.971186,67.4656526 C165.949186,67.194318 165.92352,66.9633203 165.894186,66.7726526 C165.864853,66.5526515 165.78052,66.4169862 165.641186,66.3656526 C165.501852,66.3143191 165.32952,66.3253189 165.124186,66.3986526 C164.772184,66.5159866 164.361522,66.7433176 163.892186,67.0806526 C163.42285,67.4179877 162.975522,67.7773174 162.550186,68.1586526 C162.418185,68.2906533 162.267854,68.3493194 162.099186,68.3346526 C161.930519,68.3199859 161.78752,68.2539866 161.670186,68.1366526 C161.552852,68.0193187 161.486853,67.8836534 161.472186,67.7296526 C161.457519,67.5756519 161.516185,67.4106535 161.648186,67.2346526 C161.897521,66.9706513 162.176185,66.6993207 162.484186,66.4206526 C162.792188,66.1419846 163.114851,65.8889871 163.452186,65.6616526 C163.789521,65.4343182 164.134184,65.24732 164.486186,65.1006526 C164.838188,64.9539852 165.190184,64.8733194 165.542186,64.8586526 C166.055522,64.8439859 166.451518,64.9576514 166.730186,65.1996526 C167.008854,65.4416539 167.177519,65.7533174 167.236186,66.1346526 Z M164.684186,70.8646526 C164.493518,70.9086529 164.291854,71.0003186 164.079186,71.1396526 C163.866518,71.2789867 163.675854,71.4476517 163.507186,71.6456526 C163.338519,71.8436536 163.213853,72.0636514 163.133186,72.3056526 C163.052519,72.5476539 163.048852,72.7859848 163.122186,73.0206526 C163.15152,73.1086531 163.213852,73.1746524 163.309186,73.2186526 C163.40452,73.2626529 163.510852,73.2699861 163.628186,73.2406526 C163.980188,73.1673189 164.379851,73.0243204 164.827186,72.8116526 C165.274522,72.5989849 165.630185,72.3679872 165.894186,72.1186526 C165.894186,72.0306522 165.850187,71.9169867 165.762186,71.7776526 C165.674186,71.6383186 165.57152,71.4989867 165.454186,71.3596526 C165.336852,71.2203186 165.20852,71.0993198 165.069186,70.9966526 C164.929852,70.8939855 164.80152,70.8499859 164.684186,70.8646526 Z M176.212186,66.6846526 C175.948185,66.83132 175.673188,66.9853185 175.387186,67.1466526 C175.101185,67.3079868 174.815188,67.4949849 174.529186,67.7076526 C174.243185,67.9203204 173.971854,68.1696512 173.715186,68.4556526 C173.458518,68.7416541 173.22752,69.0826507 173.022186,69.4786526 C172.728851,70.0359888 172.530853,70.6043164 172.428186,71.1836526 C172.325519,71.7629889 172.25952,72.3313165 172.230186,72.8886526 C172.230186,73.152654 172.167853,73.420318 172.043186,73.6916526 C171.918519,73.9629873 171.746187,74.0986526 171.526186,74.0986526 C171.247518,74.0986526 171.023854,73.9556541 170.855186,73.6696526 C170.686519,73.3836512 170.572853,73.108654 170.514186,72.8446526 C170.264852,71.8033141 170.05952,70.7729911 169.898186,69.7536526 C169.736852,68.7343142 169.59752,67.7186577 169.480186,66.7066526 C169.480186,66.5013183 169.542519,66.3693196 169.667186,66.3106526 C169.791853,66.2519857 169.934852,66.2299859 170.096186,66.2446526 C170.272187,66.2593194 170.440852,66.3033189 170.602186,66.3766526 C170.76352,66.4499863 170.858853,66.5673185 170.888186,66.7286526 C170.946853,67.271322 171.020186,67.8396497 171.108186,68.4336526 C171.196187,69.0276556 171.284186,69.5373172 171.372186,69.9626526 C171.430853,69.4639835 171.592185,68.9799883 171.856186,68.5106526 C172.120187,68.041317 172.446517,67.6159879 172.835186,67.2346526 C173.223855,66.8533174 173.66385,66.530654 174.155186,66.2666526 C174.646522,66.0026513 175.14885,65.8266531 175.662186,65.7386526 C175.882187,65.7093192 176.065519,65.7093192 176.212186,65.7386526 C176.358853,65.7679861 176.461519,65.8193189 176.520186,65.8926526 C176.578853,65.9659863 176.589853,66.0833185 176.553186,66.2446526 C176.516519,66.4059868 176.402854,66.552652 176.212186,66.6846526 Z" fill="#25262A" transform="translate(110.028931, 56.605424) rotate(-5.000000) translate(-110.028931, -56.605424) "></path>
            <g transform="translate(243.300484, 23.595400) scale(-1, 1) rotate(72.000000) translate(-243.300484, -23.595400) translate(217.800484, -3.404600)" stroke-width="2" stroke="#25262A">
                <path d="M12.8271879,49.9827919 C12.8271879,49.9827919 40.6874336,42.1852216 39.1330569,3.78044118" transform="translate(26.011474, 26.881617) rotate(36.000000) translate(-26.011474, -26.881617) "></path>
                <path d="M4.13337248,44.253426 C4.13337248,44.253426 3.57420151,40.6159544 3.41518024,39.8841341 C3.25615898,39.1523138 1.52313114,35.3020445 1.52313114,35.3020445 C1.52313114,35.3020445 4.21611077,35.7384882 6.60830224,35.496338 C9.0004937,35.2541879 11.8727323,35.3633395 11.8727323,35.3633395" transform="translate(6.697932, 39.777735) rotate(-19.000000) translate(-6.697932, -39.777735) "></path>
            </g>
        </g>
    </g>
</svg>