<?xml version="1.0" encoding="UTF-8"?>
<svg width="180px" height="22px" viewBox="0 0 180 22" version="1.1" xmlns="http://www.w3.org/2000/svg" xmlns:xlink="http://www.w3.org/1999/xlink">
    <!-- Generator: Sketch 47.1 (45422) - http://www.bohemiancoding.com/sketch -->
    <title>Artboard 4</title>
    <desc>Created with Sketch.</desc>
    <defs></defs>
    <g stroke="none" stroke-width="1" fill="none" fill-rule="evenodd">
        <g>
            <path d="M6.97679832,10.6552919 C6.9527982,10.7272923 6.86879904,10.8112915 6.72479832,10.9072919 C6.5807976,11.0032924 6.4607988,11.0512919 6.36479832,11.0512919 C5.84879574,11.0032917 5.33580087,10.9612921 4.82579832,10.9252919 C4.31579577,10.8892918 3.79680096,10.865292 3.26879832,10.8532919 C3.34079868,11.273294 3.40979799,11.6932898 3.47579832,12.1132919 C3.54179865,12.533294 3.60479802,12.9532898 3.66479832,13.3732919 C4.68480342,13.3372918 5.69279334,13.2832923 6.68879832,13.2112919 C6.85679916,13.2112919 7.02479748,13.2652914 7.19279832,13.3732919 C7.36079916,13.4812925 7.44479832,13.5832915 7.44479832,13.6792919 C7.44479832,13.8112926 7.39079886,13.9282914 7.28279832,14.0302919 C7.17479778,14.1322925 7.0427991,14.1952918 6.88679832,14.2192919 C6.3827958,14.3032924 5.87580087,14.3662917 5.36579832,14.4082919 C4.85579577,14.4502922 4.33680096,14.4832918 3.80879832,14.5072919 C3.86879862,14.927294 3.91979811,15.3442899 3.96179832,15.7582919 C4.00379853,16.172294 4.04279814,16.5832899 4.07879832,16.9912919 C4.10279844,17.1592928 4.08779859,17.336291 4.03379832,17.5222919 C3.97979805,17.7082929 3.89279892,17.8012919 3.77279832,17.8012919 C3.66479778,17.8012919 3.5627988,17.7712922 3.46679832,17.7112919 C3.37079784,17.6512916 3.28379871,17.5822923 3.20579832,17.5042919 C3.12779793,17.4262916 3.06479856,17.3392924 3.01679832,17.2432919 C2.96879808,17.1472915 2.93879838,17.0632923 2.92679832,16.9912919 C2.80679772,15.9592868 2.67779901,14.933297 2.53979832,13.9132919 C2.40179763,12.8932868 2.24879916,11.8672971 2.08079832,10.8352919 L1.48679832,10.8352919 C1.31879748,10.8352919 1.16279904,10.8172921 1.01879832,10.7812919 C0.874797604,10.7452918 0.766798684,10.6552927 0.694798324,10.5112919 C0.670798204,10.4752918 0.655798354,10.4152924 0.649798324,10.3312919 C0.643798294,10.2472915 0.649798234,10.1632924 0.667798324,10.0792919 C0.685798414,9.99529152 0.718798084,9.9172923 0.766798324,9.84529194 C0.814798564,9.77329158 0.880797904,9.72529206 0.964798324,9.70129194 C1.43280066,9.62929158 1.93379565,9.59929188 2.46779832,9.61129194 C3.00180099,9.623292 3.52379577,9.65629167 4.03379832,9.71029194 C4.54380087,9.76429221 5.02379607,9.83929146 5.47379832,9.93529194 C5.92380057,10.0312924 6.3107967,10.1332914 6.63479832,10.2412919 C6.83879934,10.3612925 6.9527982,10.4992912 6.97679832,10.6552919 Z M12.5567983,12.1312919 C12.9168001,12.2632926 13.2197971,12.4612906 13.4657983,12.7252919 C13.7117996,12.9892933 13.9007977,13.2862903 14.0327983,13.6162919 C14.164799,13.9462936 14.2397982,14.2852902 14.2577983,14.6332919 C14.2757984,14.9812937 14.2367988,15.3052904 14.1407983,15.6052919 C14.0087977,15.9412936 13.8407993,16.2712903 13.6367983,16.5952919 C13.4327973,16.9192936 13.1987996,17.2072907 12.9347983,17.4592919 C12.670797,17.7112932 12.3708,17.9152912 12.0347983,18.0712919 C11.6987966,18.2272927 11.3268004,18.3052919 10.9187983,18.3052919 C10.4267959,18.3052919 10.0128,18.1912931 9.67679832,17.9632919 C9.34079664,17.7352908 9.07679928,17.4412937 8.88479832,17.0812919 C8.69279736,16.7212901 8.56979859,16.3132942 8.51579832,15.8572919 C8.46179805,15.4012897 8.47079796,14.9452942 8.54279832,14.4892919 C8.59079856,14.1532903 8.67179775,13.8262935 8.78579832,13.5082919 C8.89979889,13.1902904 9.04679742,12.9082932 9.22679832,12.6622919 C9.40679922,12.4162907 9.61379715,12.2152927 9.84779832,12.0592919 C10.0817995,11.9032912 10.3487968,11.8252919 10.6487983,11.8252919 C10.8167992,11.8252919 11.0267971,11.8582916 11.2787983,11.9242919 C11.5307996,11.9902923 11.7647972,12.0832913 11.9807983,12.2032919 C12.1367991,12.0592912 12.3287972,12.0352915 12.5567983,12.1312919 Z M11.8727983,13.4452919 C11.7407977,13.3612915 11.5877992,13.2502926 11.4137983,13.1122919 C11.2397975,12.9742913 11.086799,12.9052919 10.9547983,12.9052919 C10.8107976,12.9052919 10.669799,12.9712913 10.5317983,13.1032919 C10.3937976,13.2352926 10.2737988,13.3882911 10.1717983,13.5622919 C10.0697978,13.7362928 9.98279868,13.913291 9.91079832,14.0932919 C9.83879796,14.2732928 9.79079844,14.4172914 9.76679832,14.5252919 C9.73079814,14.7052928 9.70679838,14.9212907 9.69479832,15.1732919 C9.68279826,15.4252932 9.70079808,15.6742907 9.74879832,15.9202919 C9.79679856,16.1662932 9.88979763,16.388291 10.0277983,16.5862919 C10.165799,16.7842929 10.3727969,16.9252915 10.6487983,17.0092919 C10.8167992,17.0572922 11.0147972,17.0542922 11.2427983,17.0002919 C11.4707995,16.9462917 11.6957972,16.8472927 11.9177983,16.7032919 C12.1397994,16.5592912 12.3497973,16.3672931 12.5477983,16.1272919 C12.7457993,15.8872907 12.8987978,15.6112935 13.0067983,15.2992919 C13.1267989,14.9512902 13.1297989,14.5882938 13.0157983,14.2102919 C12.9017978,13.8322901 12.6708001,13.5592928 12.3227983,13.3912919 C12.2387979,13.4512922 12.1547987,13.4812919 12.0707983,13.4812919 C11.9867979,13.4812919 11.9207986,13.4692921 11.8727983,13.4452919 Z M21.0707983,12.2032919 C20.8547972,12.3232925 20.6297995,12.4492913 20.3957983,12.5812919 C20.1617972,12.7132926 19.9277995,12.8662911 19.6937983,13.0402919 C19.4597972,13.2142928 19.2377994,13.4182908 19.0277983,13.6522919 C18.8177973,13.8862931 18.6287992,14.1652903 18.4607983,14.4892919 C18.2207971,14.9452942 18.0587987,15.4102896 17.9747983,15.8842919 C17.8907979,16.3582943 17.8367984,16.8232897 17.8127983,17.2792919 C17.8127983,17.495293 17.7617988,17.7142908 17.6597983,17.9362919 C17.5577978,18.1582931 17.4167992,18.2692919 17.2367983,18.2692919 C17.0087972,18.2692919 16.825799,18.1522931 16.6877983,17.9182919 C16.5497976,17.6842908 16.4567986,17.459293 16.4087983,17.2432919 C16.2047973,16.3912877 16.036799,15.5482961 15.9047983,14.7142919 C15.7727977,13.8802878 15.6587988,13.0492961 15.5627983,12.2212919 C15.5627983,12.0532911 15.6137978,11.9452922 15.7157983,11.8972919 C15.8177988,11.8492917 15.9347977,11.8312919 16.0667983,11.8432919 C16.210799,11.855292 16.3487977,11.8912916 16.4807983,11.9512919 C16.612799,12.0112922 16.6907982,12.1072913 16.7147983,12.2392919 C16.7627986,12.6832942 16.822798,13.1482895 16.8947983,13.6342919 C16.9667987,14.1202944 17.038798,14.5372902 17.1107983,14.8852919 C17.1587986,14.4772899 17.2907972,14.0812939 17.5067983,13.6972919 C17.7227994,13.31329 17.9897967,12.9652935 18.3077983,12.6532919 C18.6257999,12.3412904 18.9857963,12.077293 19.3877983,11.8612919 C19.7898003,11.6452909 20.2007962,11.5012923 20.6207983,11.4292919 C20.8007992,11.4052918 20.9507977,11.4052918 21.0707983,11.4292919 C21.1907989,11.4532921 21.2747981,11.4952916 21.3227983,11.5552919 C21.3707986,11.6152922 21.3797985,11.7112913 21.3497983,11.8432919 C21.3197982,11.9752926 21.2267991,12.0952914 21.0707983,12.2032919 Z M31.6907983,11.7532919 C31.7387986,12.0892936 31.7777982,12.4462901 31.8077983,12.8242919 C31.8377985,13.2022938 31.8617982,13.58329 31.8797983,13.9672919 C31.8977984,14.3512939 31.9067983,14.7232901 31.9067983,15.0832919 C31.9067983,15.4432937 31.9007984,15.7672905 31.8887983,16.0552919 C32.2728002,16.3192933 32.5037979,16.5532909 32.5817983,16.7572919 C32.6597987,16.961293 32.6687986,17.1412912 32.6087983,17.2972919 C32.536798,17.513293 32.4077993,17.6242919 32.2217983,17.6302919 C32.0357974,17.636292 31.8227995,17.5732926 31.5827983,17.4412919 C31.4147975,17.5612925 31.2227994,17.6902913 31.0067983,17.8282919 C30.7907972,17.9662926 30.5627995,18.0982913 30.3227983,18.2242919 C30.0827971,18.3502926 29.8427995,18.4612915 29.6027983,18.5572919 C29.3627971,18.6532924 29.1407993,18.7192918 28.9367983,18.7552919 C28.5527964,18.8152922 28.2077999,18.743293 27.9017983,18.5392919 C27.5957968,18.3352909 27.3887989,18.029294 27.2807983,17.6212919 C27.208798,17.3452906 27.1907981,17.0602934 27.2267983,16.7662919 C27.2627985,16.4722905 27.3527976,16.1902933 27.4967983,15.9202919 C27.640799,15.6502906 27.8357971,15.407293 28.0817983,15.1912919 C28.3277996,14.9752909 28.6187966,14.8072925 28.9547983,14.6872919 C29.0387987,14.6512918 29.1557976,14.6212921 29.3057983,14.5972919 C29.4557991,14.5732918 29.6117975,14.5642919 29.7737983,14.5702919 C29.9357991,14.576292 30.1007975,14.6092916 30.2687983,14.6692919 C30.4367992,14.7292922 30.5927976,14.8312912 30.7367983,14.9752919 C30.7367983,14.7712909 30.7337984,14.5462932 30.7277983,14.3002919 C30.7217983,14.0542907 30.7127984,13.8052932 30.7007983,13.5532919 C30.6887983,13.3012907 30.6737984,13.0642931 30.6557983,12.8422919 C30.6377982,12.6202908 30.6167984,12.4312927 30.5927983,12.2752919 C30.5687982,12.095291 30.4997989,11.9842922 30.3857983,11.9422919 C30.2717978,11.9002917 30.1307992,11.9092916 29.9627983,11.9692919 C29.6747969,12.0652924 29.3388002,12.2512906 28.9547983,12.5272919 C28.5707964,12.8032933 28.2048001,13.0972904 27.8567983,13.4092919 C27.7487978,13.5172925 27.625799,13.565292 27.4877983,13.5532919 C27.3497976,13.5412919 27.2327988,13.4872924 27.1367983,13.3912919 C27.0407978,13.2952915 26.9867984,13.1842926 26.9747983,13.0582919 C26.9627983,12.9322913 27.0107978,12.7972927 27.1187983,12.6532919 C27.3227993,12.4372909 27.5507971,12.2152931 27.8027983,11.9872919 C28.0547996,11.7592908 28.3187969,11.5522929 28.5947983,11.3662919 C28.8707997,11.180291 29.1527969,11.0272925 29.4407983,10.9072919 C29.7287998,10.7872913 30.0167969,10.721292 30.3047983,10.7092919 C30.7248004,10.6972919 31.0487972,10.790291 31.2767983,10.9882919 C31.5047995,11.1862929 31.6427981,11.4412904 31.6907983,11.7532919 Z M29.6027983,15.6232919 C29.4467975,15.6592921 29.2817992,15.7342914 29.1077983,15.8482919 C28.9337975,15.9622925 28.777799,16.1002911 28.6397983,16.2622919 C28.5017976,16.4242928 28.3997987,16.604291 28.3337983,16.8022919 C28.267798,17.0002929 28.264798,17.195291 28.3247983,17.3872919 C28.3487984,17.4592923 28.3997979,17.5132918 28.4777983,17.5492919 C28.5557987,17.5852921 28.6427978,17.5912921 28.7387983,17.5672919 C29.0267998,17.5072916 29.3537965,17.3902928 29.7197983,17.2162919 C30.0858002,17.0422911 30.3767972,16.853293 30.5927983,16.6492919 C30.5927983,16.5772916 30.5567987,16.4842925 30.4847983,16.3702919 C30.412798,16.2562914 30.3287988,16.1422925 30.2327983,16.0282919 C30.1367978,15.9142914 30.0317989,15.8152924 29.9177983,15.7312919 C29.8037978,15.6472915 29.6987988,15.6112919 29.6027983,15.6232919 Z M40.2047983,9.98929194 C40.2647986,11.2972985 40.3667976,12.650285 40.5107983,14.0482919 C40.654799,15.4462989 40.8107975,16.7812856 40.9787983,18.0532919 C41.0147985,18.5812946 40.8707999,18.8512919 40.5467983,18.8632919 C40.474798,18.8632919 40.4027987,18.8362922 40.3307983,18.7822919 C40.258798,18.7282917 40.1927986,18.6592924 40.1327983,18.5752919 C40.072798,18.4912915 40.0157986,18.4012924 39.9617983,18.3052919 C39.9077981,18.2092915 39.8747984,18.1252923 39.8627983,18.0532919 C39.7667978,17.4412889 39.6767987,16.7932954 39.5927983,16.1092919 C39.5087979,15.4252885 39.4337987,14.7382954 39.3677983,14.0482919 C39.301798,13.3582885 39.2447986,12.6832952 39.1967983,12.0232919 C39.1487981,11.3632886 39.1187984,10.7572947 39.1067983,10.2052919 C39.1307984,9.9172905 39.172798,9.67429293 39.2327983,9.47629194 C39.2927986,9.27829095 39.4187974,9.18529188 39.6107983,9.19729194 C39.8147993,9.209292 39.9617979,9.29029119 40.0517983,9.44029194 C40.1417988,9.59029269 40.1927983,9.77329086 40.2047983,9.98929194 Z M45.4787983,11.0692919 C45.4547982,11.1892925 45.370799,11.2552919 45.2267983,11.2672919 C45.0827976,11.279292 44.9627988,11.2852919 44.8667983,11.2852919 C44.5667968,11.297292 44.2577999,11.3272917 43.9397983,11.3752919 C43.6217967,11.4232922 43.2888001,11.4952915 42.9407983,11.5912919 C42.7967976,11.6392922 42.6407992,11.6212924 42.4727983,11.5372919 C42.3047975,11.4532915 42.2027985,11.2852932 42.1667983,11.0332919 C42.1667983,10.9372915 42.202798,10.8592922 42.2747983,10.7992919 C42.3467987,10.7392916 42.4307978,10.6852922 42.5267983,10.6372919 C42.6827991,10.5652916 42.8687972,10.5022922 43.0847983,10.4482919 C43.3007994,10.3942917 43.5197972,10.3552921 43.7417983,10.3312919 C43.9637994,10.3072918 44.1767973,10.2982919 44.3807983,10.3042919 C44.5847993,10.310292 44.7527977,10.3312918 44.8847983,10.3672919 C45.0767993,10.4272922 45.2297978,10.5172913 45.3437983,10.6372919 C45.4577989,10.7572925 45.5027984,10.9012911 45.4787983,11.0692919 Z M45.0647983,17.0632919 C45.1487987,17.2552929 45.1937983,17.4622908 45.1997983,17.6842919 C45.2057984,17.9062931 45.142799,18.0592915 45.0107983,18.1432919 C44.8427975,18.2512925 44.6627993,18.2452925 44.4707983,18.1252919 C44.2787974,18.0052913 44.1347988,17.843293 44.0387983,17.6392919 C43.9067977,17.3872907 43.8047987,17.0782938 43.7327983,16.7122919 C43.660798,16.3462901 43.6067985,15.9832937 43.5707983,15.6232919 C43.5347981,15.2632901 43.5137984,14.9272935 43.5077983,14.6152919 C43.5017983,14.3032904 43.4987983,14.0692927 43.4987983,13.9132919 C43.5107984,13.7452911 43.5587979,13.5892927 43.6427983,13.4452919 C43.7267987,13.3012912 43.8347977,13.2172921 43.9667983,13.1932919 C44.1827994,13.205292 44.3567977,13.304291 44.4887983,13.4902919 C44.620799,13.6762929 44.6807984,13.9072906 44.6687983,14.1832919 C44.6687983,14.399293 44.6747983,14.6392906 44.6867983,14.9032919 C44.6987984,15.1672933 44.7227981,15.4312906 44.7587983,15.6952919 C44.7947985,15.9592933 44.8367981,16.2142907 44.8847983,16.4602919 C44.9327986,16.7062932 44.992798,16.9072912 45.0647983,17.0632919 Z M47.8907983,12.5992919 C47.9027984,12.7912929 47.9237982,13.0282905 47.9537983,13.3102919 C47.9837985,13.5922934 48.0167981,13.8862904 48.0527983,14.1922919 C48.0887985,14.4982935 48.1277981,14.8012904 48.1697983,15.1012919 C48.2117985,15.4012934 48.2507981,15.6772907 48.2867983,15.9292919 L48.7727983,14.9572919 C48.9647993,14.57329 49.1657973,14.2042937 49.3757983,13.8502919 C49.5857994,13.4962902 49.8017972,13.1962932 50.0237983,12.9502919 C50.2457994,12.7042907 50.4467974,12.5812919 50.6267983,12.5812919 C50.8187993,12.5812919 50.9957975,12.674291 51.1577983,12.8602919 C51.3197991,13.0462929 51.4607977,13.2712906 51.5807983,13.5352919 C51.7007989,13.7992933 51.8057979,14.0812904 51.8957983,14.3812919 C51.9857988,14.6812934 52.060798,14.9452908 52.1207983,15.1732919 C52.1687986,15.0172912 52.2317979,14.8402929 52.3097983,14.6422919 C52.3877987,14.444291 52.4717979,14.240293 52.5617983,14.0302919 C52.6517988,13.8202909 52.7537978,13.613293 52.8677983,13.4092919 C52.9817989,13.2052909 53.1047977,13.0252927 53.2367983,12.8692919 C53.3927991,12.7012911 53.5607974,12.5782923 53.7407983,12.5002919 C53.9207992,12.4222916 54.0527979,12.3832919 54.1367983,12.3832919 C54.2447989,12.3832919 54.3737976,12.4162916 54.5237983,12.4822919 C54.6737991,12.5482923 54.8267975,12.6352914 54.9827983,12.7432919 C55.1387991,12.8512925 55.2857976,12.9802912 55.4237983,13.1302919 C55.561799,13.2802927 55.6727979,13.4332912 55.7567983,13.5892919 C55.9247992,13.9132936 56.0597978,14.26729 56.1617983,14.6512919 C56.2637988,15.0352939 56.3387981,15.4012902 56.3867983,15.7492919 C56.4347986,16.0972937 56.4677982,16.4062906 56.4857983,16.6762919 C56.5037984,16.9462933 56.5187983,17.1352914 56.5307983,17.2432919 C56.5307983,17.3992927 56.5127985,17.5162916 56.4767983,17.5942919 C56.4407981,17.6722923 56.3747988,17.7352917 56.2787983,17.7832919 C56.1467977,17.8432922 56.0327988,17.864292 55.9367983,17.8462919 C55.8407978,17.8282919 55.7627986,17.7892922 55.7027983,17.7292919 C55.642798,17.6692916 55.5947985,17.6002923 55.5587983,17.5222919 C55.5227981,17.4442916 55.4987984,17.3752922 55.4867983,17.3152919 C55.4507981,17.0392906 55.4117985,16.7572934 55.3697983,16.4692919 C55.3277981,16.1812905 55.2827986,15.9022933 55.2347983,15.6322919 C55.1867981,15.3622906 55.1297987,15.1102931 55.0637983,14.8762919 C54.997798,14.6422908 54.9287987,14.4352928 54.8567983,14.2552919 C54.8327982,14.2072917 54.7937986,14.1442923 54.7397983,14.0662919 C54.6857981,13.9882916 54.6257987,13.9132923 54.5597983,13.8412919 C54.493798,13.7692916 54.4307986,13.7092922 54.3707983,13.6612919 C54.310798,13.6132917 54.2687984,13.583292 54.2447983,13.5712919 C54.1247977,13.5712919 53.998799,13.6822908 53.8667983,13.9042919 C53.7347977,14.1262931 53.6087989,14.3932904 53.4887983,14.7052919 C53.3687977,15.0172935 53.2577988,15.3442902 53.1557983,15.6862919 C53.0537978,16.0282937 52.9787986,16.3192907 52.9307983,16.5592919 C52.9307983,16.8712935 52.8707989,17.1022912 52.7507983,17.2522919 C52.6307977,17.4022927 52.504799,17.4772919 52.3727983,17.4772919 C52.2407977,17.4772919 52.0997991,17.4262925 51.9497983,17.3242919 C51.7997976,17.2222914 51.7007986,17.1052926 51.6527983,16.9732919 C51.580798,16.781291 51.5027987,16.5652931 51.4187983,16.3252919 C51.3347979,16.0852907 51.2477988,15.8392932 51.1577983,15.5872919 C51.0677979,15.3352907 50.9777988,15.0892931 50.8877983,14.8492919 C50.7977979,14.6092907 50.7107987,14.3932929 50.6267983,14.2012919 C50.4587975,14.4292931 50.2937991,14.6812906 50.1317983,14.9572919 C49.9697975,15.2332933 49.8137991,15.5152905 49.6637983,15.8032919 C49.5137976,16.0912934 49.369799,16.3762905 49.2317983,16.6582919 C49.0937976,16.9402934 48.9647989,17.1892909 48.8447983,17.4052919 C48.7607979,17.5372926 48.6707988,17.6542914 48.5747983,17.7562919 C48.4787978,17.8582925 48.364799,17.9092919 48.2327983,17.9092919 C48.1367978,17.9092919 48.0347989,17.8642924 47.9267983,17.7742919 C47.8187978,17.6842915 47.7167988,17.5732926 47.6207983,17.4412919 C47.5247978,17.3092913 47.4377987,17.1592928 47.3597983,16.9912919 C47.2817979,16.8232911 47.2247985,16.6552928 47.1887983,16.4872919 C47.0927978,15.9712894 47.0117987,15.404295 46.9457983,14.7862919 C46.879798,14.1682889 46.8167986,13.5652949 46.7567983,12.9772919 C46.7447983,12.7732909 46.771798,12.5842928 46.8377983,12.4102919 C46.9037987,12.2362911 47.0327974,12.1192922 47.2247983,12.0592919 C47.4287993,12.0232918 47.5847978,12.0532915 47.6927983,12.1492919 C47.8007989,12.2452924 47.8667982,12.3952909 47.8907983,12.5992919 Z M61.0127983,11.0692919 C60.9887982,11.1892925 60.904799,11.2552919 60.7607983,11.2672919 C60.6167976,11.279292 60.4967988,11.2852919 60.4007983,11.2852919 C60.1007968,11.297292 59.7917999,11.3272917 59.4737983,11.3752919 C59.1557967,11.4232922 58.8228001,11.4952915 58.4747983,11.5912919 C58.3307976,11.6392922 58.1747992,11.6212924 58.0067983,11.5372919 C57.8387975,11.4532915 57.7367985,11.2852932 57.7007983,11.0332919 C57.7007983,10.9372915 57.736798,10.8592922 57.8087983,10.7992919 C57.8807987,10.7392916 57.9647978,10.6852922 58.0607983,10.6372919 C58.2167991,10.5652916 58.4027972,10.5022922 58.6187983,10.4482919 C58.8347994,10.3942917 59.0537972,10.3552921 59.2757983,10.3312919 C59.4977994,10.3072918 59.7107973,10.2982919 59.9147983,10.3042919 C60.1187993,10.310292 60.2867977,10.3312918 60.4187983,10.3672919 C60.6107993,10.4272922 60.7637978,10.5172913 60.8777983,10.6372919 C60.9917989,10.7572925 61.0367984,10.9012911 61.0127983,11.0692919 Z M60.5987983,17.0632919 C60.6827987,17.2552929 60.7277983,17.4622908 60.7337983,17.6842919 C60.7397984,17.9062931 60.676799,18.0592915 60.5447983,18.1432919 C60.3767975,18.2512925 60.1967993,18.2452925 60.0047983,18.1252919 C59.8127974,18.0052913 59.6687988,17.843293 59.5727983,17.6392919 C59.4407977,17.3872907 59.3387987,17.0782938 59.2667983,16.7122919 C59.194798,16.3462901 59.1407985,15.9832937 59.1047983,15.6232919 C59.0687981,15.2632901 59.0477984,14.9272935 59.0417983,14.6152919 C59.0357983,14.3032904 59.0327983,14.0692927 59.0327983,13.9132919 C59.0447984,13.7452911 59.0927979,13.5892927 59.1767983,13.4452919 C59.2607987,13.3012912 59.3687977,13.2172921 59.5007983,13.1932919 C59.7167994,13.205292 59.8907977,13.304291 60.0227983,13.4902919 C60.154799,13.6762929 60.2147984,13.9072906 60.2027983,14.1832919 C60.2027983,14.399293 60.2087983,14.6392906 60.2207983,14.9032919 C60.2327984,15.1672933 60.2567981,15.4312906 60.2927983,15.6952919 C60.3287985,15.9592933 60.3707981,16.2142907 60.4187983,16.4602919 C60.4667986,16.7062932 60.526798,16.9072912 60.5987983,17.0632919 Z M66.4307983,13.5892919 C66.6587995,13.5772919 66.8867972,13.6312913 67.1147983,13.7512919 C67.3427995,13.8712925 67.4567983,14.0572907 67.4567983,14.3092919 C67.4327982,14.513293 67.3217993,14.6422917 67.1237983,14.6962919 C66.9257973,14.7502922 66.7667989,14.7772919 66.6467983,14.7772919 C66.4067971,14.7772919 66.1487997,14.7832919 65.8727983,14.7952919 C65.5967969,14.807292 65.3147998,14.8252918 65.0267983,14.8492919 C65.0027982,15.2452939 64.9817984,15.6172902 64.9637983,15.9652919 C64.9457982,16.3132937 64.9307984,16.6222906 64.9187983,16.8922919 C64.9067983,17.1622933 64.9007983,17.3812911 64.9007983,17.5492919 C64.9007983,17.7172928 64.9067983,17.8072919 64.9187983,17.8192919 C65.1827996,17.7712917 65.4677968,17.6902925 65.7737983,17.5762919 C66.0797999,17.4622914 66.3857968,17.3362926 66.6917983,17.1982919 C66.9977999,17.0602913 67.2977969,16.9162927 67.5917983,16.7662919 C67.8857998,16.6162912 68.164797,16.4752926 68.4287983,16.3432919 C68.5487989,16.2832916 68.6597978,16.2652918 68.7617983,16.2892919 C68.8637988,16.3132921 68.9267982,16.3672915 68.9507983,16.4512919 C68.9747984,16.5832926 68.9567986,16.745291 68.8967983,16.9372919 C68.836798,17.1292929 68.7287991,17.3032912 68.5727983,17.4592919 C68.3927974,17.6032927 68.1557998,17.768291 67.8617983,17.9542919 C67.5677969,18.1402929 67.2528,18.3172911 66.9167983,18.4852919 C66.5807966,18.6532928 66.2418,18.8002913 65.8997983,18.9262919 C65.5577966,19.0522926 65.2547996,19.1272918 64.9907983,19.1512919 C64.5947963,19.1872921 64.2947993,19.0792932 64.0907983,18.8272919 C63.8867973,18.5752907 63.7727984,18.2572939 63.7487983,17.8732919 C63.7247982,17.48929 63.7217982,17.0452945 63.7397983,16.5412919 C63.7577984,16.0372894 63.7787982,15.5032948 63.8027983,14.9392919 C63.5747972,14.9632921 63.3557994,14.9842919 63.1457983,15.0022919 C62.9357973,15.020292 62.7347993,15.0412918 62.5427983,15.0652919 C62.3867975,15.0652919 62.2157993,15.0292923 62.0297983,14.9572919 C61.8437974,14.8852916 61.7507983,14.747293 61.7507983,14.5432919 C61.7507983,14.4712916 61.780798,14.3752925 61.8407983,14.2552919 C61.9007986,14.1352913 62.0327973,14.0452922 62.2367983,13.9852919 C62.7288008,13.9012915 63.2747953,13.8292922 63.8747983,13.7692919 C63.9107985,13.2052891 63.9527981,12.6592946 64.0007983,12.1312919 C64.0487986,11.6032893 64.0907981,11.1232941 64.1267983,10.6912919 C64.1387984,10.5472912 64.180798,10.4212925 64.2527983,10.3132919 C64.3247987,10.2052914 64.4027979,10.1512919 64.4867983,10.1512919 C64.6907993,10.1392919 64.8857974,10.1902914 65.0717983,10.3042919 C65.2577993,10.4182925 65.3507983,10.5472912 65.3507983,10.6912919 C65.3027981,11.099294 65.2577985,11.5612894 65.2157983,12.0772919 C65.1737981,12.5932945 65.1347985,13.1212892 65.0987983,13.6612919 C65.3387995,13.6372918 65.5697972,13.622292 65.7917983,13.6162919 C66.0137994,13.6102919 66.2267973,13.601292 66.4307983,13.5892919 Z M74.0447983,14.1832919 C73.576796,14.4592933 73.072801,14.6722912 72.5327983,14.8222919 C71.9927956,14.9722927 71.4108014,15.0472919 70.7867983,15.0472919 C70.8107984,15.467294 70.9307972,15.8002907 71.1467983,16.0462919 C71.3627994,16.2922932 71.6327967,16.4392917 71.9567983,16.4872919 C72.1487993,16.5112921 72.3437973,16.5052921 72.5417983,16.4692919 C72.7397993,16.4332918 72.9257975,16.3762923 73.0997983,16.2982919 C73.2737992,16.2202916 73.4327976,16.1332924 73.5767983,16.0372919 C73.720799,15.9412915 73.8467978,15.8452924 73.9547983,15.7492919 C74.0627989,15.6532915 74.1767977,15.5902921 74.2967983,15.5602919 C74.4167989,15.5302918 74.506798,15.5272918 74.5667983,15.5512919 C74.7347992,15.6112922 74.7947986,15.7912904 74.7467983,16.0912919 C74.5547974,16.4752939 74.2788001,16.8022906 73.9187983,17.0722919 C73.5587965,17.3422933 73.1568005,17.5132916 72.7127983,17.5852919 C72.3287964,17.6572923 71.9328004,17.6392925 71.5247983,17.5312919 C71.1167963,17.4232914 70.7507999,17.2132935 70.4267983,16.9012919 C70.1507969,16.6252906 69.940799,16.3012938 69.7967983,15.9292919 C69.6527976,15.5572901 69.5627985,15.1732939 69.5267983,14.7772919 C69.4907981,14.4052901 69.5237978,14.0512936 69.6257983,13.7152919 C69.7277988,13.3792903 69.8867972,13.0822932 70.1027983,12.8242919 C70.3187994,12.5662907 70.5887967,12.3532928 70.9127983,12.1852919 C71.2367999,12.0172911 71.6147962,11.9212921 72.0467983,11.8972919 C72.5628009,11.8612918 73.0307962,11.9572908 73.4507983,12.1852919 C73.8708004,12.4132931 74.1647975,12.7312899 74.3327983,13.1392919 C74.4287988,13.3672931 74.4557985,13.5652911 74.4137983,13.7332919 C74.3717981,13.9012928 74.2487993,14.0512913 74.0447983,14.1832919 Z M71.9747983,12.9592919 C71.8547977,12.9832921 71.725799,13.0252916 71.5877983,13.0852919 C71.4497976,13.1452922 71.3237989,13.2202915 71.2097983,13.3102919 C71.0957978,13.4002924 70.9937988,13.5022914 70.9037983,13.6162919 C70.8137979,13.7302925 70.7627984,13.8592912 70.7507983,14.0032919 C70.9547993,14.0032919 71.1797971,13.9852921 71.4257983,13.9492919 C71.6717996,13.9132918 71.9117972,13.8682922 72.1457983,13.8142919 C72.3797995,13.7602917 72.5957973,13.6972923 72.7937983,13.6252919 C72.9917993,13.5532916 73.1567977,13.4752924 73.2887983,13.3912919 C73.1927978,13.1632908 73.0157996,13.0222922 72.7577983,12.9682919 C72.499797,12.9142917 72.2387996,12.9112917 71.9747983,12.9592919 Z M79.0487983,9.28729194 C79.0127981,9.07129086 79.027798,8.87329284 79.0937983,8.69329194 C79.1597987,8.51329104 79.2947973,8.41129206 79.4987983,8.38729194 C79.6787992,8.36329182 79.8377976,8.41129134 79.9757983,8.53129194 C80.113799,8.65129254 80.2007981,8.80729098 80.2367983,8.99929194 C80.4767995,10.3792988 80.7017973,11.7502851 80.9117983,13.1122919 C81.1217994,14.4742988 81.3107975,15.8092854 81.4787983,17.1172919 C81.5267986,17.4652937 81.5027988,17.7022913 81.4067983,17.8282919 C81.3107978,17.9542926 81.196799,18.0472916 81.0647983,18.1072919 C80.9207976,18.1672922 80.785799,18.1672922 80.6597983,18.1072919 C80.5337977,18.0472916 80.4527985,17.9392927 80.4167983,17.7832919 L80.3987983,17.6752919 L80.3267983,17.6932919 C79.9307963,17.8372927 79.5168005,17.9182919 79.0847983,17.9362919 C78.6527962,17.954292 78.2388003,17.9032925 77.8427983,17.7832919 C77.4467963,17.6632913 77.0957999,17.4682933 76.7897983,17.1982919 C76.4837968,16.9282906 76.264799,16.583294 76.1327983,16.1632919 C75.8447969,15.2392873 76.0247951,14.3992957 76.6727983,13.6432919 C76.9487997,13.3312904 77.2907963,13.0492932 77.6987983,12.7972919 C78.1068004,12.5452907 78.5987954,12.3472927 79.1747983,12.2032919 L79.4987983,12.1312919 L79.0487983,9.28729194 Z M77.2307983,15.7132919 C77.3027987,16.0012934 77.4347974,16.2232912 77.6267983,16.3792919 C77.8187993,16.5352927 78.046797,16.6402917 78.3107983,16.6942919 C78.5747996,16.7482922 78.8567968,16.7572921 79.1567983,16.7212919 C79.4567998,16.6852918 79.7507969,16.6192924 80.0387983,16.5232919 L80.2007983,16.4692919 L79.6967983,13.3012919 L79.3367983,13.3912919 C79.0847971,13.4632923 78.8177997,13.5742912 78.5357983,13.7242919 C78.2537969,13.8742927 78.0047994,14.0512909 77.7887983,14.2552919 C77.5727972,14.459293 77.4077989,14.6872907 77.2937983,14.9392919 C77.1797978,15.1912932 77.158798,15.4492906 77.2307983,15.7132919 Z M91.5587983,13.5892919 C91.7867995,13.5772919 92.0147972,13.6312913 92.2427983,13.7512919 C92.4707995,13.8712925 92.5847983,14.0572907 92.5847983,14.3092919 C92.5607982,14.513293 92.4497993,14.6422917 92.2517983,14.6962919 C92.0537973,14.7502922 91.8947989,14.7772919 91.7747983,14.7772919 C91.5347971,14.7772919 91.2767997,14.7832919 91.0007983,14.7952919 C90.7247969,14.807292 90.4427998,14.8252918 90.1547983,14.8492919 C90.1307982,15.2452939 90.1097984,15.6172902 90.0917983,15.9652919 C90.0737982,16.3132937 90.0587984,16.6222906 90.0467983,16.8922919 C90.0347983,17.1622933 90.0287983,17.3812911 90.0287983,17.5492919 C90.0287983,17.7172928 90.0347983,17.8072919 90.0467983,17.8192919 C90.3107996,17.7712917 90.5957968,17.6902925 90.9017983,17.5762919 C91.2077999,17.4622914 91.5137968,17.3362926 91.8197983,17.1982919 C92.1257999,17.0602913 92.4257969,16.9162927 92.7197983,16.7662919 C93.0137998,16.6162912 93.292797,16.4752926 93.5567983,16.3432919 C93.6767989,16.2832916 93.7877978,16.2652918 93.8897983,16.2892919 C93.9917988,16.3132921 94.0547982,16.3672915 94.0787983,16.4512919 C94.1027984,16.5832926 94.0847986,16.745291 94.0247983,16.9372919 C93.964798,17.1292929 93.8567991,17.3032912 93.7007983,17.4592919 C93.5207974,17.6032927 93.2837998,17.768291 92.9897983,17.9542919 C92.6957969,18.1402929 92.3808,18.3172911 92.0447983,18.4852919 C91.7087966,18.6532928 91.3698,18.8002913 91.0277983,18.9262919 C90.6857966,19.0522926 90.3827996,19.1272918 90.1187983,19.1512919 C89.7227963,19.1872921 89.4227993,19.0792932 89.2187983,18.8272919 C89.0147973,18.5752907 88.9007984,18.2572939 88.8767983,17.8732919 C88.8527982,17.48929 88.8497982,17.0452945 88.8677983,16.5412919 C88.8857984,16.0372894 88.9067982,15.5032948 88.9307983,14.9392919 C88.7027972,14.9632921 88.4837994,14.9842919 88.2737983,15.0022919 C88.0637973,15.020292 87.8627993,15.0412918 87.6707983,15.0652919 C87.5147975,15.0652919 87.3437993,15.0292923 87.1577983,14.9572919 C86.9717974,14.8852916 86.8787983,14.747293 86.8787983,14.5432919 C86.8787983,14.4712916 86.908798,14.3752925 86.9687983,14.2552919 C87.0287986,14.1352913 87.1607973,14.0452922 87.3647983,13.9852919 C87.8568008,13.9012915 88.4027953,13.8292922 89.0027983,13.7692919 C89.0387985,13.2052891 89.0807981,12.6592946 89.1287983,12.1312919 C89.1767986,11.6032893 89.2187981,11.1232941 89.2547983,10.6912919 C89.2667984,10.5472912 89.308798,10.4212925 89.3807983,10.3132919 C89.4527987,10.2052914 89.5307979,10.1512919 89.6147983,10.1512919 C89.8187993,10.1392919 90.0137974,10.1902914 90.1997983,10.3042919 C90.3857993,10.4182925 90.4787983,10.5472912 90.4787983,10.6912919 C90.4307981,11.099294 90.3857985,11.5612894 90.3437983,12.0772919 C90.3017981,12.5932945 90.2627985,13.1212892 90.2267983,13.6612919 C90.4667995,13.6372918 90.6977972,13.622292 90.9197983,13.6162919 C91.1417994,13.6102919 91.3547973,13.601292 91.5587983,13.5892919 Z M97.8407983,11.0692919 C97.8167982,11.1892925 97.732799,11.2552919 97.5887983,11.2672919 C97.4447976,11.279292 97.3247988,11.2852919 97.2287983,11.2852919 C96.9287968,11.297292 96.6197999,11.3272917 96.3017983,11.3752919 C95.9837967,11.4232922 95.6508001,11.4952915 95.3027983,11.5912919 C95.1587976,11.6392922 95.0027992,11.6212924 94.8347983,11.5372919 C94.6667975,11.4532915 94.5647985,11.2852932 94.5287983,11.0332919 C94.5287983,10.9372915 94.564798,10.8592922 94.6367983,10.7992919 C94.7087987,10.7392916 94.7927978,10.6852922 94.8887983,10.6372919 C95.0447991,10.5652916 95.2307972,10.5022922 95.4467983,10.4482919 C95.6627994,10.3942917 95.8817972,10.3552921 96.1037983,10.3312919 C96.3257994,10.3072918 96.5387973,10.2982919 96.7427983,10.3042919 C96.9467993,10.310292 97.1147977,10.3312918 97.2467983,10.3672919 C97.4387993,10.4272922 97.5917978,10.5172913 97.7057983,10.6372919 C97.8197989,10.7572925 97.8647984,10.9012911 97.8407983,11.0692919 Z M97.4267983,17.0632919 C97.5107987,17.2552929 97.5557983,17.4622908 97.5617983,17.6842919 C97.5677984,17.9062931 97.504799,18.0592915 97.3727983,18.1432919 C97.2047975,18.2512925 97.0247993,18.2452925 96.8327983,18.1252919 C96.6407974,18.0052913 96.4967988,17.843293 96.4007983,17.6392919 C96.2687977,17.3872907 96.1667987,17.0782938 96.0947983,16.7122919 C96.022798,16.3462901 95.9687985,15.9832937 95.9327983,15.6232919 C95.8967981,15.2632901 95.8757984,14.9272935 95.8697983,14.6152919 C95.8637983,14.3032904 95.8607983,14.0692927 95.8607983,13.9132919 C95.8727984,13.7452911 95.9207979,13.5892927 96.0047983,13.4452919 C96.0887987,13.3012912 96.1967977,13.2172921 96.3287983,13.1932919 C96.5447994,13.205292 96.7187977,13.304291 96.8507983,13.4902919 C96.982799,13.6762929 97.0427984,13.9072906 97.0307983,14.1832919 C97.0307983,14.399293 97.0367983,14.6392906 97.0487983,14.9032919 C97.0607984,15.1672933 97.0847981,15.4312906 97.1207983,15.6952919 C97.1567985,15.9592933 97.1987981,16.2142907 97.2467983,16.4602919 C97.2947986,16.7062932 97.354798,16.9072912 97.4267983,17.0632919 Z M100.252798,12.5992919 C100.264798,12.7912929 100.285798,13.0282905 100.315798,13.3102919 C100.345798,13.5922934 100.378798,13.8862904 100.414798,14.1922919 C100.450799,14.4982935 100.489798,14.8012904 100.531798,15.1012919 C100.573799,15.4012934 100.612798,15.6772907 100.648798,15.9292919 L101.134798,14.9572919 C101.326799,14.57329 101.527797,14.2042937 101.737798,13.8502919 C101.947799,13.4962902 102.163797,13.1962932 102.385798,12.9502919 C102.607799,12.7042907 102.808797,12.5812919 102.988798,12.5812919 C103.180799,12.5812919 103.357798,12.674291 103.519798,12.8602919 C103.681799,13.0462929 103.822798,13.2712906 103.942798,13.5352919 C104.062799,13.7992933 104.167798,14.0812904 104.257798,14.3812919 C104.347799,14.6812934 104.422798,14.9452908 104.482798,15.1732919 C104.530799,15.0172912 104.593798,14.8402929 104.671798,14.6422919 C104.749799,14.444291 104.833798,14.240293 104.923798,14.0302919 C105.013799,13.8202909 105.115798,13.613293 105.229798,13.4092919 C105.343799,13.2052909 105.466798,13.0252927 105.598798,12.8692919 C105.754799,12.7012911 105.922797,12.5782923 106.102798,12.5002919 C106.282799,12.4222916 106.414798,12.3832919 106.498798,12.3832919 C106.606799,12.3832919 106.735798,12.4162916 106.885798,12.4822919 C107.035799,12.5482923 107.188798,12.6352914 107.344798,12.7432919 C107.500799,12.8512925 107.647798,12.9802912 107.785798,13.1302919 C107.923799,13.2802927 108.034798,13.4332912 108.118798,13.5892919 C108.286799,13.9132936 108.421798,14.26729 108.523798,14.6512919 C108.625799,15.0352939 108.700798,15.4012902 108.748798,15.7492919 C108.796799,16.0972937 108.829798,16.4062906 108.847798,16.6762919 C108.865798,16.9462933 108.880798,17.1352914 108.892798,17.2432919 C108.892798,17.3992927 108.874799,17.5162916 108.838798,17.5942919 C108.802798,17.6722923 108.736799,17.7352917 108.640798,17.7832919 C108.508798,17.8432922 108.394799,17.864292 108.298798,17.8462919 C108.202798,17.8282919 108.124799,17.7892922 108.064798,17.7292919 C108.004798,17.6692916 107.956799,17.6002923 107.920798,17.5222919 C107.884798,17.4442916 107.860798,17.3752922 107.848798,17.3152919 C107.812798,17.0392906 107.773799,16.7572934 107.731798,16.4692919 C107.689798,16.1812905 107.644799,15.9022933 107.596798,15.6322919 C107.548798,15.3622906 107.491799,15.1102931 107.425798,14.8762919 C107.359798,14.6422908 107.290799,14.4352928 107.218798,14.2552919 C107.194798,14.2072917 107.155799,14.1442923 107.101798,14.0662919 C107.047798,13.9882916 106.987799,13.9132923 106.921798,13.8412919 C106.855798,13.7692916 106.792799,13.7092922 106.732798,13.6612919 C106.672798,13.6132917 106.630798,13.583292 106.606798,13.5712919 C106.486798,13.5712919 106.360799,13.6822908 106.228798,13.9042919 C106.096798,14.1262931 105.970799,14.3932904 105.850798,14.7052919 C105.730798,15.0172935 105.619799,15.3442902 105.517798,15.6862919 C105.415798,16.0282937 105.340799,16.3192907 105.292798,16.5592919 C105.292798,16.8712935 105.232799,17.1022912 105.112798,17.2522919 C104.992798,17.4022927 104.866799,17.4772919 104.734798,17.4772919 C104.602798,17.4772919 104.461799,17.4262925 104.311798,17.3242919 C104.161798,17.2222914 104.062799,17.1052926 104.014798,16.9732919 C103.942798,16.781291 103.864799,16.5652931 103.780798,16.3252919 C103.696798,16.0852907 103.609799,15.8392932 103.519798,15.5872919 C103.429798,15.3352907 103.339799,15.0892931 103.249798,14.8492919 C103.159798,14.6092907 103.072799,14.3932929 102.988798,14.2012919 C102.820797,14.4292931 102.655799,14.6812906 102.493798,14.9572919 C102.331798,15.2332933 102.175799,15.5152905 102.025798,15.8032919 C101.875798,16.0912934 101.731799,16.3762905 101.593798,16.6582919 C101.455798,16.9402934 101.326799,17.1892909 101.206798,17.4052919 C101.122798,17.5372926 101.032799,17.6542914 100.936798,17.7562919 C100.840798,17.8582925 100.726799,17.9092919 100.594798,17.9092919 C100.498798,17.9092919 100.396799,17.8642924 100.288798,17.7742919 C100.180798,17.6842915 100.078799,17.5732926 99.9827983,17.4412919 C99.8867978,17.3092913 99.7997987,17.1592928 99.7217983,16.9912919 C99.6437979,16.8232911 99.5867985,16.6552928 99.5507983,16.4872919 C99.4547978,15.9712894 99.3737987,15.404295 99.3077983,14.7862919 C99.241798,14.1682889 99.1787986,13.5652949 99.1187983,12.9772919 C99.1067983,12.7732909 99.133798,12.5842928 99.1997983,12.4102919 C99.2657987,12.2362911 99.3947974,12.1192922 99.5867983,12.0592919 C99.7907993,12.0232918 99.9467978,12.0532915 100.054798,12.1492919 C100.162799,12.2452924 100.228798,12.3952909 100.252798,12.5992919 Z M114.706798,14.1832919 C114.238796,14.4592933 113.734801,14.6722912 113.194798,14.8222919 C112.654796,14.9722927 112.072801,15.0472919 111.448798,15.0472919 C111.472798,15.467294 111.592797,15.8002907 111.808798,16.0462919 C112.024799,16.2922932 112.294797,16.4392917 112.618798,16.4872919 C112.810799,16.5112921 113.005797,16.5052921 113.203798,16.4692919 C113.401799,16.4332918 113.587797,16.3762923 113.761798,16.2982919 C113.935799,16.2202916 114.094798,16.1332924 114.238798,16.0372919 C114.382799,15.9412915 114.508798,15.8452924 114.616798,15.7492919 C114.724799,15.6532915 114.838798,15.5902921 114.958798,15.5602919 C115.078799,15.5302918 115.168798,15.5272918 115.228798,15.5512919 C115.396799,15.6112922 115.456799,15.7912904 115.408798,16.0912919 C115.216797,16.4752939 114.9408,16.8022906 114.580798,17.0722919 C114.220797,17.3422933 113.818801,17.5132916 113.374798,17.5852919 C112.990796,17.6572923 112.5948,17.6392925 112.186798,17.5312919 C111.778796,17.4232914 111.4128,17.2132935 111.088798,16.9012919 C110.812797,16.6252906 110.602799,16.3012938 110.458798,15.9292919 C110.314798,15.5572901 110.224799,15.1732939 110.188798,14.7772919 C110.152798,14.4052901 110.185798,14.0512936 110.287798,13.7152919 C110.389799,13.3792903 110.548797,13.0822932 110.764798,12.8242919 C110.980799,12.5662907 111.250797,12.3532928 111.574798,12.1852919 C111.8988,12.0172911 112.276796,11.9212921 112.708798,11.8972919 C113.224801,11.8612918 113.692796,11.9572908 114.112798,12.1852919 C114.5328,12.4132931 114.826797,12.7312899 114.994798,13.1392919 C115.090799,13.3672931 115.117799,13.5652911 115.075798,13.7332919 C115.033798,13.9012928 114.910799,14.0512913 114.706798,14.1832919 Z M112.636798,12.9592919 C112.516798,12.9832921 112.387799,13.0252916 112.249798,13.0852919 C112.111798,13.1452922 111.985799,13.2202915 111.871798,13.3102919 C111.757798,13.4002924 111.655799,13.5022914 111.565798,13.6162919 C111.475798,13.7302925 111.424798,13.8592912 111.412798,14.0032919 C111.616799,14.0032919 111.841797,13.9852921 112.087798,13.9492919 C112.3338,13.9132918 112.573797,13.8682922 112.807798,13.8142919 C113.041799,13.7602917 113.257797,13.6972923 113.455798,13.6252919 C113.653799,13.5532916 113.818798,13.4752924 113.950798,13.3912919 C113.854798,13.1632908 113.6778,13.0222922 113.419798,12.9682919 C113.161797,12.9142917 112.9008,12.9112917 112.636798,12.9592919 Z M125.848798,12.1312919 C126.2088,12.2632926 126.511797,12.4612906 126.757798,12.7252919 C127.0038,12.9892933 127.192798,13.2862903 127.324798,13.6162919 C127.456799,13.9462936 127.531798,14.2852902 127.549798,14.6332919 C127.567798,14.9812937 127.528799,15.3052904 127.432798,15.6052919 C127.300798,15.9412936 127.132799,16.2712903 126.928798,16.5952919 C126.724797,16.9192936 126.4908,17.2072907 126.226798,17.4592919 C125.962797,17.7112932 125.6628,17.9152912 125.326798,18.0712919 C124.990797,18.2272927 124.6188,18.3052919 124.210798,18.3052919 C123.718796,18.3052919 123.3048,18.1912931 122.968798,17.9632919 C122.632797,17.7352908 122.368799,17.4412937 122.176798,17.0812919 C121.984797,16.7212901 121.861799,16.3132942 121.807798,15.8572919 C121.753798,15.4012897 121.762798,14.9452942 121.834798,14.4892919 C121.882799,14.1532903 121.963798,13.8262935 122.077798,13.5082919 C122.191799,13.1902904 122.338797,12.9082932 122.518798,12.6622919 C122.698799,12.4162907 122.905797,12.2152927 123.139798,12.0592919 C123.373799,11.9032912 123.640797,11.8252919 123.940798,11.8252919 C124.108799,11.8252919 124.318797,11.8582916 124.570798,11.9242919 C124.8228,11.9902923 125.056797,12.0832913 125.272798,12.2032919 C125.428799,12.0592912 125.620797,12.0352915 125.848798,12.1312919 Z M125.164798,13.4452919 C125.032798,13.3612915 124.879799,13.2502926 124.705798,13.1122919 C124.531797,12.9742913 124.378799,12.9052919 124.246798,12.9052919 C124.102798,12.9052919 123.961799,12.9712913 123.823798,13.1032919 C123.685798,13.2352926 123.565799,13.3882911 123.463798,13.5622919 C123.361798,13.7362928 123.274799,13.913291 123.202798,14.0932919 C123.130798,14.2732928 123.082798,14.4172914 123.058798,14.5252919 C123.022798,14.7052928 122.998798,14.9212907 122.986798,15.1732919 C122.974798,15.4252932 122.992798,15.6742907 123.040798,15.9202919 C123.088799,16.1662932 123.181798,16.388291 123.319798,16.5862919 C123.457799,16.7842929 123.664797,16.9252915 123.940798,17.0092919 C124.108799,17.0572922 124.306797,17.0542922 124.534798,17.0002919 C124.762799,16.9462917 124.987797,16.8472927 125.209798,16.7032919 C125.431799,16.5592912 125.641797,16.3672931 125.839798,16.1272919 C126.037799,15.8872907 126.190798,15.6112935 126.298798,15.2992919 C126.418799,14.9512902 126.421799,14.5882938 126.307798,14.2102919 C126.193798,13.8322901 125.9628,13.5592928 125.614798,13.3912919 C125.530798,13.4512922 125.446799,13.4812919 125.362798,13.4812919 C125.278798,13.4812919 125.212799,13.4692921 125.164798,13.4452919 Z M130.132798,12.4732919 C130.168799,12.6532928 130.207798,12.8542908 130.249798,13.0762919 C130.291799,13.2982931 130.336798,13.5262908 130.384798,13.7602919 C130.432799,13.9942931 130.474798,14.2312907 130.510798,14.4712919 C130.546799,14.7112931 130.576798,14.9392909 130.600798,15.1552919 C130.744799,14.8432904 130.900797,14.5132937 131.068798,14.1652919 C131.236799,13.8172902 131.419797,13.4962934 131.617798,13.2022919 C131.815799,12.9082905 132.025797,12.6652929 132.247798,12.4732919 C132.469799,12.281291 132.712797,12.1852919 132.976798,12.1852919 C133.3728,12.1852919 133.705797,12.3292905 133.975798,12.6172919 C134.2458,12.9052934 134.473797,13.2622898 134.659798,13.6882919 C134.845799,14.1142941 134.992798,14.5612896 135.100798,15.0292919 C135.208799,15.4972943 135.298798,15.9112901 135.370798,16.2712919 C135.442799,16.5952936 135.2988,16.8352912 134.938798,16.9912919 C134.770797,17.0752924 134.644799,17.0872922 134.560798,17.0272919 C134.476798,16.9672916 134.428798,16.9072922 134.416798,16.8472919 C134.356798,16.7032912 134.281799,16.4512937 134.191798,16.0912919 C134.101798,15.7312901 133.999799,15.3652938 133.885798,14.9932919 C133.771798,14.6212901 133.642799,14.2972933 133.498798,14.0212919 C133.354798,13.7452906 133.192799,13.6192918 133.012798,13.6432919 C132.796797,13.655292 132.604799,13.8172904 132.436798,14.1292919 C132.292798,14.3812932 132.145799,14.6602904 131.995798,14.9662919 C131.845798,15.2722935 131.698799,15.5842904 131.554798,15.9022919 C131.410798,16.2202935 131.269799,16.5382904 131.131798,16.8562919 C130.993798,17.1742935 130.864799,17.4652906 130.744798,17.7292919 C130.660798,17.8132924 130.555799,17.8702918 130.429798,17.9002919 C130.303798,17.9302921 130.174799,17.9212922 130.042798,17.8732919 C129.922798,17.8372918 129.826799,17.7772924 129.754798,17.6932919 C129.682798,17.6092915 129.646798,17.5252924 129.646798,17.4412919 C129.538798,16.5052873 129.427799,15.6532958 129.313798,14.8852919 C129.199798,14.1172881 129.052799,13.331296 128.872798,12.5272919 C128.788798,12.2512906 128.773798,12.0322928 128.827798,11.8702919 C128.881799,11.7082911 129.058797,11.6452918 129.358798,11.6812919 C129.7788,11.7532923 130.036798,12.0172897 130.132798,12.4732919 Z M138.124798,9.98929194 C138.184799,11.2972985 138.286798,12.650285 138.430798,14.0482919 C138.574799,15.4462989 138.730797,16.7812856 138.898798,18.0532919 C138.934799,18.5812946 138.7908,18.8512919 138.466798,18.8632919 C138.394798,18.8632919 138.322799,18.8362922 138.250798,18.7822919 C138.178798,18.7282917 138.112799,18.6592924 138.052798,18.5752919 C137.992798,18.4912915 137.935799,18.4012924 137.881798,18.3052919 C137.827798,18.2092915 137.794798,18.1252923 137.782798,18.0532919 C137.686798,17.4412889 137.596799,16.7932954 137.512798,16.1092919 C137.428798,15.4252885 137.353799,14.7382954 137.287798,14.0482919 C137.221798,13.3582885 137.164799,12.6832952 137.116798,12.0232919 C137.068798,11.3632886 137.038798,10.7572947 137.026798,10.2052919 C137.050798,9.9172905 137.092798,9.67429293 137.152798,9.47629194 C137.212799,9.27829095 137.338797,9.18529188 137.530798,9.19729194 C137.734799,9.209292 137.881798,9.29029119 137.971798,9.44029194 C138.061799,9.59029269 138.112798,9.77329086 138.124798,9.98929194 Z M145.954798,12.7432919 C145.990799,13.3912952 146.029798,14.0452886 146.071798,14.7052919 C146.113799,15.3652952 146.122798,16.0162887 146.098798,16.6582919 C146.074798,17.3002952 146.011799,17.9272889 145.909798,18.5392919 C145.807798,19.151295 145.6368,19.7362892 145.396798,20.2942919 C145.156797,20.8522947 144.8358,21.3712895 144.433798,21.8512919 C144.031796,22.3312943 143.524801,22.76329 142.912798,23.1472919 C142.816798,23.2072922 142.711799,23.2432919 142.597798,23.2552919 C142.483798,23.267292 142.372799,23.264292 142.264798,23.2462919 C142.156798,23.2282919 142.060799,23.1982922 141.976798,23.1562919 C141.892798,23.1142917 141.838798,23.0572923 141.814798,22.9852919 C141.778798,22.8772914 141.796798,22.7572926 141.868798,22.6252919 C141.940799,22.4932913 142.060797,22.3552927 142.228798,22.2112919 C142.756801,21.81529 143.200797,21.3952942 143.560798,20.9512919 C143.9208,20.5072897 144.208797,20.0272945 144.424798,19.5112919 C144.640799,18.9952894 144.781798,18.434295 144.847798,17.8282919 C144.913799,17.2222889 144.910799,16.5592955 144.838798,15.8392919 C144.694798,16.0192928 144.526799,16.205291 144.334798,16.3972919 C144.142797,16.5892929 143.938799,16.7602912 143.722798,16.9102919 C143.506797,17.0602927 143.284799,17.1862914 143.056798,17.2882919 C142.828797,17.3902925 142.612799,17.4412919 142.408798,17.4412919 C142.240797,17.4412919 142.072799,17.4052923 141.904798,17.3332919 C141.736797,17.2612916 141.568799,17.123293 141.400798,16.9192919 C141.208797,16.6672907 141.037799,16.3822935 140.887798,16.0642919 C140.737798,15.7462904 140.608799,15.4372934 140.500798,15.1372919 C140.392798,14.8372904 140.305799,14.5672931 140.239798,14.3272919 C140.173798,14.0872907 140.134798,13.9192924 140.122798,13.8232919 C140.098798,13.7032913 140.098798,13.5892925 140.122798,13.4812919 C140.146798,13.3732914 140.224798,13.3072921 140.356798,13.2832919 C140.536799,13.2472918 140.704798,13.2592916 140.860798,13.3192919 C141.016799,13.3792922 141.124798,13.4752913 141.184798,13.6072919 C141.232799,13.7392926 141.298798,13.9432906 141.382798,14.2192919 C141.466799,14.4952933 141.568798,14.7682906 141.688798,15.0382919 C141.808799,15.3082933 141.937798,15.5452909 142.075798,15.7492919 C142.213799,15.953293 142.360798,16.0552919 142.516798,16.0552919 C142.696799,16.0552919 142.909797,15.9652928 143.155798,15.7852919 C143.4018,15.605291 143.638797,15.3712934 143.866798,15.0832919 C144.094799,14.7952905 144.289798,14.4742937 144.451798,14.1202919 C144.613799,13.7662902 144.694798,13.4212936 144.694798,13.0852919 C144.694798,13.0132916 144.706798,12.9292924 144.730798,12.8332919 C144.754798,12.7372915 144.790798,12.6442924 144.838798,12.5542919 C144.886799,12.4642915 144.943798,12.3862923 145.009798,12.3202919 C145.075799,12.2542916 145.144798,12.215292 145.216798,12.2032919 C145.408799,12.1792918 145.579798,12.2302913 145.729798,12.3562919 C145.879799,12.4822926 145.954798,12.6112913 145.954798,12.7432919 Z M150.526798,8.98129194 C150.418798,9.50929458 150.307799,10.0312894 150.193798,10.5472919 C150.079798,11.0632945 149.974799,11.5792894 149.878798,12.0952919 C149.782798,12.6112945 149.710799,13.1272894 149.662798,13.6432919 C149.614798,14.1592945 149.608798,14.6752894 149.644798,15.1912919 C149.668798,15.3232926 149.647799,15.4492913 149.581798,15.5692919 C149.515798,15.6892925 149.440799,15.7672918 149.356798,15.8032919 C149.092797,15.8992924 148.900799,15.8332931 148.780798,15.6052919 C148.636798,14.9932889 148.561798,14.3872949 148.555798,13.7872919 C148.549798,13.1872889 148.591798,12.5932949 148.681798,12.0052919 C148.771799,11.417289 148.891798,10.8322949 149.041798,10.2502919 C149.191799,9.66828903 149.344798,9.08929482 149.500798,8.51329194 C149.560799,8.27329074 149.656798,8.14129206 149.788798,8.11729194 C149.920799,8.09329182 150.046798,8.1052917 150.166798,8.15329194 C150.346799,8.21329224 150.460798,8.33329104 150.508798,8.51329194 C150.556799,8.69329284 150.562799,8.84929128 150.526798,8.98129194 Z M149.806798,18.6652919 C149.806798,18.7972926 149.791798,18.9742908 149.761798,19.1962919 C149.731798,19.4182931 149.683799,19.625291 149.617798,19.8172919 C149.551798,20.0092929 149.461799,20.1652913 149.347798,20.2852919 C149.233798,20.4052925 149.092799,20.4292923 148.924798,20.3572919 C148.828798,20.2972916 148.732799,20.1832928 148.636798,20.0152919 C148.540798,19.8472911 148.498798,19.6912927 148.510798,19.5472919 C148.534798,19.2592905 148.594798,18.9772933 148.690798,18.7012919 C148.786799,18.4252906 148.912798,18.2572922 149.068798,18.1972919 C149.140799,18.1732918 149.221798,18.1732918 149.311798,18.1972919 C149.401799,18.2212921 149.482798,18.2602917 149.554798,18.3142919 C149.626799,18.3682922 149.686798,18.4282916 149.734798,18.4942919 C149.782799,18.5602923 149.806798,18.6172917 149.806798,18.6652919 Z" fill="#25262A" transform="translate(75.598745, 15.683892) rotate(-2.000000) translate(-75.598745, -15.683892) "></path>
            <g transform="translate(167.000000, 8.516413) scale(-1, 1) rotate(-29.000000) translate(-167.000000, -8.516413) translate(156.000000, -1.983587)" stroke-width="2" stroke="#FFD001">
                <path d="M0.89410253,7.74374406 C0.89410253,7.74374406 4.82997577,21.4610559 21.3262685,12.4430895" transform="translate(11.110186, 11.628648) rotate(36.000000) translate(-11.110186, -11.628648) "></path>
                <path d="M3.19882727,7.57907347 C3.19882727,7.57907347 2.84214567,5.25881858 2.74070986,4.79200816 C2.63927405,4.32519773 1.53381763,1.86920435 1.53381763,1.86920435 C1.53381763,1.86920435 3.25160403,2.1476012 4.77752494,1.99313949 C6.30344585,1.83867778 8.13557717,1.90830293 8.13557717,1.90830293" transform="translate(4.834697, 4.724139) rotate(64.000000) translate(-4.834697, -4.724139) "></path>
            </g>
        </g>
    </g>
</svg>