<?xml version="1.0" encoding="UTF-8"?>
<svg width="268px" height="64px" viewBox="0 0 268 64" version="1.1" xmlns="http://www.w3.org/2000/svg" xmlns:xlink="http://www.w3.org/1999/xlink">
    <!-- Generator: Sketch 47.1 (45422) - http://www.bohemiancoding.com/sketch -->
    <title>Artboard 12</title>
    <desc>Created with Sketch.</desc>
    <defs></defs>
    <g stroke="none" stroke-width="1" fill="none" fill-rule="evenodd">
        <g>
            <g transform="translate(-1.000000, -9.000000)">
                <path d="M12.6567576,26.5058014 C11.0087494,26.425801 9.42476523,26.5537998 7.90475763,26.8898014 C6.38475003,27.2258031 4.88076507,27.6817986 3.39275763,28.2578014 C3.00875571,28.4018022 2.71675863,28.3858023 2.51675763,28.2098014 C2.31675663,28.0338006 2.21675763,27.8578023 2.21675763,27.6818014 C2.32875819,27.3777999 2.52875619,27.1298024 2.81675763,26.9378014 C6.09677403,25.3377934 9.37674123,24.7457994 12.6567576,25.1618014 C12.8167584,25.2098017 12.9487571,25.3258005 13.0527576,25.5098014 C13.1567581,25.6938024 13.1927578,25.8498008 13.1607576,25.9778014 C13.1287575,26.1378022 13.0807579,26.2698009 13.0167576,26.3738014 C12.9527573,26.477802 12.8327585,26.5218015 12.6567576,26.5058014 Z M9.24875763,34.8818014 C9.24875763,35.0578023 9.18875823,35.2138008 9.06875763,35.3498014 C8.94875703,35.4858021 8.80075851,35.5698013 8.62475763,35.6018014 C8.30475603,35.6498017 8.09675811,35.5938022 8.00075763,35.4338014 C7.90475715,35.2738006 7.84875771,35.0898025 7.83275763,34.8818014 C7.81675755,33.7617958 7.79675775,32.645807 7.77275763,31.5338014 C7.74875751,30.4217959 7.69675803,29.305807 7.61675763,28.1858014 C7.61675763,28.1218011 7.60875771,28.0458019 7.59275763,27.9578014 C7.57675755,27.869801 7.57675755,27.7818019 7.59275763,27.6938014 C7.60875771,27.605801 7.64475735,27.5298018 7.70075763,27.4658014 C7.75675791,27.4018011 7.84875699,27.3538016 7.97675763,27.3218014 C8.34475947,27.2578011 8.60875683,27.3178005 8.76875763,27.5018014 C8.92875843,27.6858024 9.00875763,27.8658006 9.00875763,28.0418014 C9.13675827,29.1938072 9.21675747,30.3377958 9.24875763,31.4738014 C9.28075779,32.6098071 9.28075779,33.7457958 9.24875763,34.8818014 Z M16.3047576,25.4258014 C16.3047576,25.8098034 16.3007577,26.241799 16.2927576,26.7218014 C16.2847576,27.2018038 16.2847576,27.6977989 16.2927576,28.2098014 C16.3007577,28.721804 16.3087576,29.2497987 16.3167576,29.7938014 C16.3247577,30.3378042 16.3367575,30.857799 16.3527576,31.3538014 C16.5127584,31.0337998 16.7047565,30.717803 16.9287576,30.4058014 C17.1527587,30.0937999 17.4047562,29.8178026 17.6847576,29.5778014 C17.964759,29.3378002 18.2607561,29.1458022 18.5727576,29.0018014 C18.8847592,28.8578007 19.2247558,28.7858014 19.5927576,28.7858014 C19.9927596,28.7858014 20.3487561,28.9138002 20.6607576,29.1698014 C20.9727592,29.4258027 21.2447565,29.7657993 21.4767576,30.1898014 C21.7087588,30.6138036 21.9047568,31.0857988 22.0647576,31.6058014 C22.2247584,32.125804 22.3567571,32.6537988 22.4607576,33.1898014 C22.5647581,33.7258041 22.6407574,34.237799 22.6887576,34.7258014 C22.7367579,35.2138039 22.7767575,35.6337997 22.8087576,35.9858014 C22.8087576,36.2418027 22.7447583,36.4498006 22.6167576,36.6098014 C22.488757,36.7698022 22.3367585,36.8498014 22.1607576,36.8498014 C22.032757,36.8498014 21.8767585,36.7658023 21.6927576,36.5978014 C21.5087567,36.4298006 21.376758,36.2258026 21.2967576,35.9858014 C21.2487574,35.7938005 21.2007579,35.5138033 21.1527576,35.1458014 C21.1047574,34.7777996 21.0487579,34.3818036 20.9847576,33.9578014 C20.9207573,33.5337993 20.8407581,33.1058036 20.7447576,32.6738014 C20.6487571,32.2417993 20.5327583,31.8538032 20.3967576,31.5098014 C20.2607569,31.1657997 20.0967586,30.8978024 19.9047576,30.7058014 C19.7127567,30.5138005 19.4887589,30.4418012 19.2327576,30.4898014 C18.8327556,30.5698018 18.4847591,30.849799 18.1887576,31.3298014 C17.8927561,31.8098038 17.6367587,32.3537984 17.4207576,32.9618014 C17.2047565,33.5698045 17.0287583,34.1857983 16.8927576,34.8098014 C16.7567569,35.4338046 16.6567579,35.9377995 16.5927576,36.3218014 C16.5287573,36.6098029 16.4447581,36.8058009 16.3407576,36.9098014 C16.2367571,37.013802 16.1207583,37.0658014 15.9927576,37.0658014 C15.864757,37.0658014 15.7487581,37.0018021 15.6447576,36.8738014 C15.5407571,36.7458008 15.4447581,36.5898024 15.3567576,36.4058014 C15.2687572,36.2218005 15.1927579,36.0298024 15.1287576,35.8298014 C15.0647573,35.6298004 15.0247577,35.4578022 15.0087576,35.3138014 C14.9287572,34.4497971 14.8647579,33.6218054 14.8167576,32.8298014 C14.7687574,32.0377975 14.7327577,31.2418054 14.7087576,30.4418014 C14.6847575,29.6417974 14.6727576,28.8218056 14.6727576,27.9818014 C14.6727576,27.1417972 14.6887575,26.2418062 14.7207576,25.2818014 C14.7207576,24.4817974 15.0087547,24.121801 15.5847576,24.2018014 C15.7767586,24.2338016 15.9447569,24.3738002 16.0887576,24.6218014 C16.2327583,24.8698027 16.3047576,25.1378 16.3047576,25.4258014 Z M28.5687576,26.2658014 C28.5367575,26.4258022 28.4247586,26.5138014 28.2327576,26.5298014 C28.0407567,26.5458015 27.8807583,26.5538014 27.7527576,26.5538014 C27.3527556,26.5698015 26.9407597,26.6098011 26.5167576,26.6738014 C26.0927555,26.7378018 25.6487599,26.8338008 25.1847576,26.9618014 C24.9927567,27.0258018 24.7847587,27.001802 24.5607576,26.8898014 C24.3367565,26.7778009 24.2007579,26.5538031 24.1527576,26.2178014 C24.1527576,26.0898008 24.2007571,25.9858018 24.2967576,25.9058014 C24.3927581,25.825801 24.504757,25.7538018 24.6327576,25.6898014 C24.8407587,25.593801 25.0887562,25.5098018 25.3767576,25.4378014 C25.6647591,25.3658011 25.9567561,25.3138016 26.2527576,25.2818014 C26.5487591,25.2498013 26.8327563,25.2378014 27.1047576,25.2458014 C27.376759,25.2538015 27.6007567,25.2818012 27.7767576,25.3298014 C28.0327589,25.4098018 28.2367569,25.5298006 28.3887576,25.6898014 C28.5407584,25.8498022 28.6007578,26.0418003 28.5687576,26.2658014 Z M28.0167576,34.2578014 C28.1287582,34.5138027 28.1887576,34.7898 28.1967576,35.0858014 C28.2047577,35.3818029 28.1207585,35.5858009 27.9447576,35.6978014 C27.7207565,35.8418022 27.4807589,35.8338022 27.2247576,35.6738014 C26.9687563,35.5138006 26.7767583,35.2978028 26.6487576,35.0258014 C26.4727567,34.6897998 26.3367581,34.2778039 26.2407576,33.7898014 C26.1447571,33.301799 26.0727579,32.8178038 26.0247576,32.3378014 C25.9767574,31.857799 25.9487577,31.4098035 25.9407576,30.9938014 C25.9327576,30.5777994 25.9287576,30.2658025 25.9287576,30.0578014 C25.9447577,29.8338003 26.0087571,29.6258024 26.1207576,29.4338014 C26.2327582,29.2418005 26.3767567,29.1298016 26.5527576,29.0978014 C26.8407591,29.1138015 27.0727567,29.2458002 27.2487576,29.4938014 C27.4247585,29.7418027 27.5047577,30.0497996 27.4887576,30.4178014 C27.4887576,30.7058029 27.4967575,31.0257997 27.5127576,31.3778014 C27.5287577,31.7298032 27.5607574,32.0817997 27.6087576,32.4338014 C27.6567579,32.7858032 27.7127573,33.1257998 27.7767576,33.4538014 C27.8407579,33.7818031 27.9207571,34.0498004 28.0167576,34.2578014 Z M34.8327576,28.8818014 C34.8007575,28.7058006 34.7687578,28.5378022 34.7367576,28.3778014 C34.7047575,28.2178006 34.6247583,28.1138017 34.4967576,28.0658014 C34.2247563,27.985801 33.9367591,27.9778011 33.6327576,28.0418014 C33.3287561,28.1058018 33.0487589,28.2058008 32.7927576,28.3418014 C32.5367563,28.4778021 32.3207585,28.6298006 32.1447576,28.7978014 C31.9687567,28.9658023 31.8727577,29.1138008 31.8567576,29.2418014 C31.8087574,29.4818026 31.8727567,29.7138003 32.0487576,29.9378014 C32.2247585,30.1618026 32.4807559,30.3858003 32.8167576,30.6098014 C33.3767604,30.9458031 33.9607546,31.2897997 34.5687576,31.6418014 C35.1767607,31.9938032 35.6887555,32.3537996 36.1047576,32.7218014 C36.5207597,33.0898033 36.8047569,33.4937992 36.9567576,33.9338014 C37.1087584,34.3738036 37.0727587,34.8737986 36.8487576,35.4338014 C36.6727567,35.8658036 36.34476,36.2178001 35.8647576,36.4898014 C35.3847552,36.7618028 34.8567605,36.9738007 34.2807576,37.1258014 C33.7047547,37.2778022 33.1287605,37.3818012 32.5527576,37.4378014 C31.9767547,37.4938017 31.4887596,37.5218014 31.0887576,37.5218014 C30.9927571,37.5218014 30.8767583,37.4858018 30.7407576,37.4138014 C30.6047569,37.3418011 30.4767582,37.2578019 30.3567576,37.1618014 C30.236757,37.065801 30.1327581,36.965802 30.0447576,36.8618014 C29.9567572,36.7578009 29.9127576,36.6658018 29.9127576,36.5858014 C29.9127576,36.2978 30.0407563,36.097802 30.2967576,35.9858014 C30.5527589,35.8738009 30.8167563,35.8178014 31.0887576,35.8178014 C31.4727595,35.8178014 31.8847554,35.7978016 32.3247576,35.7578014 C32.7647598,35.7178012 33.1847556,35.6538019 33.5847576,35.5658014 C33.9847596,35.477801 34.344756,35.3618022 34.6647576,35.2178014 C34.9847592,35.0738007 35.208757,34.8898026 35.3367576,34.6658014 C35.4487582,34.4738005 35.3807589,34.2458028 35.1327576,33.9818014 C34.8847564,33.7178001 34.5567597,33.4418029 34.1487576,33.1538014 C33.7407556,32.8658 33.30076,32.5858028 32.8287576,32.3138014 C32.3567553,32.0418001 31.9527593,31.7938026 31.6167576,31.5698014 C31.2807559,31.3458003 30.9927588,31.077803 30.7527576,30.7658014 C30.5127564,30.4537999 30.3607579,30.0658038 30.2967576,29.6018014 C30.2807575,29.1857994 30.3687567,28.7858034 30.5607576,28.4018014 C30.7527586,28.0177995 31.0047561,27.6778029 31.3167576,27.3818014 C31.6287592,27.0858 31.9847556,26.8498023 32.3847576,26.6738014 C32.7847596,26.4978006 33.1847556,26.4098014 33.5847576,26.4098014 C34.2727611,26.4418016 34.8407554,26.6297997 35.2887576,26.9738014 C35.7367599,27.3178032 36.0007572,27.8257981 36.0807576,28.4978014 C36.0807576,28.7218026 36.044758,28.9058007 35.9727576,29.0498014 C35.9007573,29.1938022 35.7767585,29.2818013 35.6007576,29.3138014 C35.3767565,29.3458016 35.1967583,29.3178019 35.0607576,29.2298014 C34.9247569,29.141801 34.8487577,29.0258022 34.8327576,28.8818014 Z M49.2807576,38.6738014 C49.2647575,38.8498023 49.1847583,39.0138007 49.0407576,39.1658014 C48.8967569,39.3178022 48.7367585,39.3858015 48.5607576,39.3698014 C48.2887563,39.3538014 48.0807583,39.2498024 47.9367576,39.0578014 C47.7927569,38.8658005 47.7207576,38.7058021 47.7207576,38.5778014 C47.7207576,37.9697984 47.7047578,37.3338048 47.6727576,36.6698014 C47.6407575,36.0057981 47.6007579,35.321805 47.5527576,34.6178014 C47.3447566,34.6498016 47.1567585,34.6298018 46.9887576,34.5578014 C46.8207568,34.4858011 46.7047579,34.3698022 46.6407576,34.2098014 C46.5287571,33.9378001 46.5447569,33.6978025 46.6887576,33.4898014 C46.8327583,33.2818004 47.064756,33.0818024 47.3847576,32.8898014 C47.3047572,32.2977985 47.228758,31.7138043 47.1567576,31.1378014 C47.0847573,30.5617986 47.008758,30.0018042 46.9287576,29.4578014 C46.9127575,29.361801 46.9207575,29.2738018 46.9527576,29.1938014 C46.9847578,29.113801 47.0247574,29.0378018 47.0727576,28.9658014 C47.1207579,28.8938011 47.208757,28.8258018 47.3367576,28.7618014 C47.5447587,28.681801 47.7807563,28.7458004 48.0447576,28.9538014 C48.3087589,29.1618025 48.4887571,29.4257998 48.5847576,29.7458014 C48.6327579,30.049803 48.6847573,30.3977995 48.7407576,30.7898014 C48.7967579,31.1818034 48.8487574,31.6097991 48.8967576,32.0738014 C49.2327593,31.8658004 49.5487561,31.6418026 49.8447576,31.4018014 C50.1407591,31.1618002 50.3967565,30.9058028 50.6127576,30.6338014 C50.8287587,30.3618001 50.9927571,30.0778029 51.1047576,29.7818014 C51.2167582,29.4858 51.2487579,29.177803 51.2007576,28.8578014 C51.1687575,28.5858001 51.0487587,28.3418025 50.8407576,28.1258014 C50.6327566,27.9098004 50.3047599,27.7938015 49.8567576,27.7778014 C49.4567556,27.7618014 49.0607596,27.793801 48.6687576,27.8738014 C48.2767557,27.9538018 47.8927595,28.0578008 47.5167576,28.1858014 C47.1407557,28.3138021 46.7727594,28.4658006 46.4127576,28.6418014 C46.0527558,28.8178023 45.7047593,28.9938006 45.3687576,29.1698014 C45.1447565,29.2978021 44.9247587,29.3498016 44.7087576,29.3258014 C44.4927565,29.3018013 44.3527579,29.2258021 44.2887576,29.0978014 C44.1447569,28.7777998 44.1567568,28.4898027 44.3247576,28.2338014 C44.4927585,27.9778002 44.7527559,27.7378026 45.1047576,27.5138014 C45.4087591,27.3378006 45.7727555,27.1578024 46.1967576,26.9738014 C46.6207597,26.7898005 47.0687553,26.6298021 47.5407576,26.4938014 C48.01276,26.3578008 48.4927552,26.2618017 48.9807576,26.2058014 C49.4687601,26.1498012 49.9367554,26.1578011 50.3847576,26.2298014 C50.8327599,26.3018018 51.2367558,26.4538003 51.5967576,26.6858014 C51.9567594,26.9178026 52.2487565,27.2577992 52.4727576,27.7058014 C52.744759,28.4418051 52.8207582,29.1177984 52.7007576,29.7338014 C52.580757,30.3498045 52.3407594,30.9097989 51.9807576,31.4138014 C51.6207558,31.917804 51.1807602,32.3737994 50.6607576,32.7818014 C50.140755,33.1898035 49.6167603,33.5537998 49.0887576,33.8738014 C49.168758,34.7378058 49.2247575,35.5937972 49.2567576,36.4418014 C49.2887578,37.2898057 49.2967577,38.0337982 49.2807576,38.6738014 Z M56.3847576,24.8258014 C56.464758,26.5698102 56.6007567,28.3737921 56.7927576,30.2378014 C56.9847586,32.1018108 57.1927565,33.881793 57.4167576,35.5778014 C57.4647579,36.281805 57.2727598,36.6418014 56.8407576,36.6578014 C56.7447571,36.6578014 56.6487581,36.6218018 56.5527576,36.5498014 C56.4567571,36.4778011 56.368758,36.385802 56.2887576,36.2738014 C56.2087572,36.1618009 56.132758,36.0418021 56.0607576,35.9138014 C55.9887573,35.7858008 55.9447577,35.6738019 55.9287576,35.5778014 C55.800757,34.7617974 55.6807582,33.897806 55.5687576,32.9858014 C55.4567571,32.0737969 55.3567581,31.157806 55.2687576,30.2378014 C55.1807572,29.3177968 55.1047579,28.4178058 55.0407576,27.5378014 C54.9767573,26.657797 54.9367577,25.8498051 54.9207576,25.1138014 C54.9527578,24.7297995 55.0087572,24.4058028 55.0887576,24.1418014 C55.168758,23.8778001 55.3367563,23.7538014 55.5927576,23.7698014 C55.864759,23.7858015 56.060757,23.8938004 56.1807576,24.0938014 C56.3007582,24.2938024 56.3687575,24.5378 56.3847576,24.8258014 Z M65.3847576,27.1778014 C65.4487579,27.6258037 65.5007574,28.1017989 65.5407576,28.6058014 C65.5807578,29.109804 65.6127575,29.6177989 65.6367576,30.1298014 C65.6607577,30.641804 65.6727576,31.137799 65.6727576,31.6178014 C65.6727576,32.0978038 65.6647577,32.5297995 65.6487576,32.9138014 C66.1607602,33.2658032 66.4687571,33.5778001 66.5727576,33.8498014 C66.6767581,34.1218028 66.688758,34.3618004 66.6087576,34.5698014 C66.5127571,34.8578029 66.3407589,35.0058014 66.0927576,35.0138014 C65.8447564,35.0218015 65.5607592,34.9378023 65.2407576,34.7618014 C65.0167565,34.9218022 64.7607591,35.0938005 64.4727576,35.2778014 C64.1847562,35.4618024 63.8807592,35.6378006 63.5607576,35.8058014 C63.240756,35.9738023 62.9207592,36.1218008 62.6007576,36.2498014 C62.280756,36.3778021 61.984759,36.4658012 61.7127576,36.5138014 C61.2007551,36.5938018 60.7407597,36.4978028 60.3327576,36.2258014 C59.9247556,35.9538001 59.6487583,35.5458042 59.5047576,35.0018014 C59.4087571,34.6337996 59.3847574,34.2538034 59.4327576,33.8618014 C59.4807579,33.4697995 59.6007567,33.0938032 59.7927576,32.7338014 C59.9847586,32.3737996 60.244756,32.0498029 60.5727576,31.7618014 C60.9007593,31.4738 61.2887554,31.2498022 61.7367576,31.0898014 C61.8487582,31.0418012 62.0047566,31.0018016 62.2047576,30.9698014 C62.4047586,30.9378013 62.6127565,30.9258014 62.8287576,30.9338014 C63.0447587,30.9418015 63.2647565,30.985801 63.4887576,31.0658014 C63.7127587,31.1458018 63.9207567,31.2818005 64.1127576,31.4738014 C64.1127576,31.2018001 64.1087577,30.9018031 64.1007576,30.5738014 C64.0927576,30.2457998 64.0807577,29.9138031 64.0647576,29.5778014 C64.0487575,29.2417998 64.0287577,28.9258029 64.0047576,28.6298014 C63.9807575,28.3338 63.9527578,28.0818025 63.9207576,27.8738014 C63.8887575,27.6338002 63.7967584,27.4858017 63.6447576,27.4298014 C63.4927569,27.3738012 63.3047587,27.385801 63.0807576,27.4658014 C62.6967557,27.5938021 62.2487602,27.8417996 61.7367576,28.2098014 C61.2247551,28.5778033 60.7367599,28.9697994 60.2727576,29.3858014 C60.1287569,29.5298022 59.9647585,29.5938015 59.7807576,29.5778014 C59.5967567,29.5618014 59.4407583,29.4898021 59.3127576,29.3618014 C59.184757,29.2338008 59.1127577,29.0858023 59.0967576,28.9178014 C59.0807575,28.7498006 59.1447569,28.5698024 59.2887576,28.3778014 C59.560759,28.0898 59.8647559,27.793803 60.2007576,27.4898014 C60.5367593,27.1857999 60.8887558,26.9098027 61.2567576,26.6618014 C61.6247595,26.4138002 62.0007557,26.2098022 62.3847576,26.0498014 C62.7687595,25.8898006 63.1527557,25.8018015 63.5367576,25.7858014 C64.0967604,25.7698014 64.5287561,25.8938001 64.8327576,26.1578014 C65.1367591,26.4218028 65.3207573,26.7617994 65.3847576,27.1778014 Z M62.6007576,32.3378014 C62.3927566,32.3858017 62.1727588,32.4858007 61.9407576,32.6378014 C61.7087565,32.7898022 61.5007585,32.9738004 61.3167576,33.1898014 C61.1327567,33.4058025 60.9967581,33.6458001 60.9087576,33.9098014 C60.8207572,34.1738028 60.8167572,34.4338002 60.8967576,34.6898014 C60.9287578,34.7858019 60.9967571,34.8578012 61.1007576,34.9058014 C61.2047581,34.9538017 61.320757,34.9618016 61.4487576,34.9298014 C61.8327595,34.849801 62.2687552,34.6938026 62.7567576,34.4618014 C63.2447601,34.2298003 63.6327562,33.9778028 63.9207576,33.7058014 C63.9207576,33.609801 63.8727581,33.4858022 63.7767576,33.3338014 C63.6807571,33.1818007 63.5687583,33.0298022 63.4407576,32.8778014 C63.312757,32.7258007 63.1727584,32.593802 63.0207576,32.4818014 C62.8687569,32.3698009 62.7287583,32.3218014 62.6007576,32.3378014 Z M69.5367576,28.1378014 C69.5847579,28.3778026 69.6367573,28.6458 69.6927576,28.9418014 C69.7487579,29.2378029 69.8087573,29.5417999 69.8727576,29.8538014 C69.9367579,30.165803 69.9927574,30.4817998 70.0407576,30.8018014 C70.0887579,31.121803 70.1287575,31.4258 70.1607576,31.7138014 C70.3527586,31.2977994 70.5607565,30.8578038 70.7847576,30.3938014 C71.0087587,29.9297991 71.2527563,29.5018034 71.5167576,29.1098014 C71.7807589,28.7177995 72.0607561,28.3938027 72.3567576,28.1378014 C72.6527591,27.8818002 72.9767559,27.7538014 73.3287576,27.7538014 C73.8567603,27.7538014 74.3007558,27.9457995 74.6607576,28.3298014 C75.0207594,28.7138034 75.3247564,29.1897986 75.5727576,29.7578014 C75.8207589,30.3258043 76.0167569,30.9217983 76.1607576,31.5458014 C76.3047583,32.1698046 76.4247571,32.721799 76.5207576,33.2018014 C76.6167581,33.6338036 76.42476,33.9538004 75.9447576,34.1618014 C75.7207565,34.273802 75.5527582,34.2898018 75.4407576,34.2098014 C75.3287571,34.129801 75.2647577,34.0498018 75.2487576,33.9698014 C75.1687572,33.7778005 75.0687582,33.4418038 74.9487576,32.9618014 C74.828757,32.481799 74.6927584,31.9938039 74.5407576,31.4978014 C74.3887569,31.001799 74.2167586,30.5698033 74.0247576,30.2018014 C73.8327567,29.8337996 73.6167588,29.6658013 73.3767576,29.6978014 C73.0887562,29.7138015 72.8327587,29.9297994 72.6087576,30.3458014 C72.4167567,30.6818031 72.2207586,31.0537994 72.0207576,31.4618014 C71.8207566,31.8698035 71.6247586,32.2857993 71.4327576,32.7098014 C71.2407567,33.1338036 71.0527585,33.5577993 70.8687576,33.9818014 C70.6847567,34.4058036 70.5127584,34.7937997 70.3527576,35.1458014 C70.2407571,35.257802 70.1007585,35.3338012 69.9327576,35.3738014 C69.7647568,35.4138016 69.5927585,35.4018018 69.4167576,35.3378014 C69.2567568,35.2898012 69.1287581,35.209802 69.0327576,35.0978014 C68.9367571,34.9858009 68.8887576,34.873802 68.8887576,34.7618014 C68.7447569,33.5137952 68.5967584,32.3778066 68.4447576,31.3538014 C68.2927569,30.3297963 68.0967588,29.2818068 67.8567576,28.2098014 C67.7447571,27.8417996 67.7247573,27.5498025 67.7967576,27.3338014 C67.868758,27.1178004 68.1047556,27.0338012 68.5047576,27.0818014 C69.0647604,27.1778019 69.408757,27.5297984 69.5367576,28.1378014 Z M89.2647576,29.4338014 C89.3927583,29.6098023 89.516757,29.8298001 89.6367576,30.0938014 C89.7567582,30.3578028 89.8487573,30.6258001 89.9127576,30.8978014 C90.0087581,31.3298036 90.116757,31.7977989 90.2367576,32.3018014 C90.3567582,32.805804 90.476757,33.3297987 90.5967576,33.8738014 C90.7167582,34.4178042 90.8287571,34.9697986 90.9327576,35.5298014 C91.0367581,36.0898042 91.1287572,36.6257989 91.2087576,37.1378014 C91.3047581,37.841805 91.2527586,38.5177982 91.0527576,39.1658014 C90.8527566,39.8138047 90.5207599,40.3937989 90.0567576,40.9058014 C89.5927553,41.417804 89.0167611,41.8257999 88.3287576,42.1298014 C87.6407542,42.433803 86.8647619,42.6018013 86.0007576,42.6338014 C85.8087567,42.6178014 85.6087587,42.5258023 85.4007576,42.3578014 C85.1927566,42.1898006 85.0887576,42.0178023 85.0887576,41.8418014 C85.0727575,41.6658006 85.1567567,41.525802 85.3407576,41.4218014 C85.5247585,41.3178009 85.7127567,41.2498016 85.9047576,41.2178014 C86.2407593,41.1858013 86.5887558,41.117802 86.9487576,41.0138014 C87.3087594,40.9098009 87.648756,40.7618024 87.9687576,40.5698014 C88.2887592,40.3778005 88.5807563,40.1458028 88.8447576,39.8738014 C89.1087589,39.6018001 89.3127569,39.2818033 89.4567576,38.9138014 C89.5687582,38.6258 89.6247576,38.2698036 89.6247576,37.8458014 C89.6247576,37.4217993 89.5967579,37.0018035 89.5407576,36.5858014 C89.4847573,36.1697994 89.4127581,35.7738033 89.3247576,35.3978014 C89.2367572,35.0217996 89.1607579,34.7378024 89.0967576,34.5458014 C88.9847571,34.657802 88.8447585,34.7778008 88.6767576,34.9058014 C88.5087568,35.0338021 88.3207587,35.1538009 88.1127576,35.2658014 C87.9047566,35.377802 87.6767589,35.4658011 87.4287576,35.5298014 C87.1807564,35.5938018 86.9287589,35.6178015 86.6727576,35.6018014 C86.4007563,35.5858014 86.1487588,35.4898023 85.9167576,35.3138014 C85.6847565,35.1378006 85.4807585,34.9098028 85.3047576,34.6298014 C85.1287567,34.3498 84.9887581,34.0258033 84.8847576,33.6578014 C84.7807571,33.2897996 84.7287576,32.9058034 84.7287576,32.5058014 C84.7607578,31.5457966 85.0047553,30.6938052 85.4607576,29.9498014 C85.9167599,29.2057977 86.6487526,28.6258035 87.6567576,28.2098014 C87.736758,28.1938014 87.8447569,28.1778015 87.9807576,28.1618014 C88.1167583,28.1458014 88.2567569,28.1418014 88.4007576,28.1498014 C88.5447583,28.1578015 88.6847569,28.1778013 88.8207576,28.2098014 C88.9567583,28.2418016 89.0727571,28.2898011 89.1687576,28.3538014 C89.3447585,28.4818021 89.4327576,28.6658002 89.4327576,28.9058014 C89.4327576,29.1458026 89.3767582,29.3218009 89.2647576,29.4338014 Z M86.2407576,32.7218014 C86.2407576,32.8978023 86.2567575,33.0938004 86.2887576,33.3098014 C86.3207578,33.5258025 86.4247567,33.681801 86.6007576,33.7778014 C86.7927586,33.889802 87.0287562,33.9058018 87.3087576,33.8258014 C87.588759,33.745801 87.8487564,33.6098024 88.0887576,33.4178014 C88.3127587,33.2418006 88.4607573,33.0458025 88.5327576,32.8298014 C88.604758,32.6138004 88.600758,32.3218033 88.5207576,31.9538014 C88.4407572,31.5857996 88.3527581,31.2018034 88.2567576,30.8018014 C88.1607571,30.4017994 88.0967578,30.041803 88.0647576,29.7218014 C87.8727567,29.8178019 87.6687587,29.9538006 87.4527576,30.1298014 C87.2367565,30.3058023 87.0407585,30.5258001 86.8647576,30.7898014 C86.6887567,31.0538028 86.5407582,31.3457998 86.4207576,31.6658014 C86.300757,31.985803 86.2407576,32.3377995 86.2407576,32.7218014 Z M98.8407576,30.4178014 C98.2167545,30.7858033 97.5447612,31.0698004 96.8247576,31.2698014 C96.104754,31.4698024 95.3287618,31.5698014 94.4967576,31.5698014 C94.5287578,32.1298042 94.6887562,32.5737998 94.9767576,32.9018014 C95.2647591,33.2298031 95.6247555,33.4258011 96.0567576,33.4898014 C96.3127589,33.5218016 96.5727563,33.5138017 96.8367576,33.4658014 C97.1007589,33.4178012 97.3487565,33.341802 97.5807576,33.2378014 C97.8127588,33.1338009 98.0247567,33.0178021 98.2167576,32.8898014 C98.4087586,32.7618008 98.5767569,32.6338021 98.7207576,32.5058014 C98.8647583,32.3778008 99.0167568,32.2938016 99.1767576,32.2538014 C99.3367584,32.2138012 99.4567572,32.2098013 99.5367576,32.2418014 C99.7607587,32.3218018 99.8407579,32.5617994 99.7767576,32.9618014 C99.5207563,33.473804 99.15276,33.9097996 98.6727576,34.2698014 C98.1927552,34.6298032 97.6567606,34.857801 97.0647576,34.9538014 C96.5527551,35.0498019 96.0247603,35.0258022 95.4807576,34.8818014 C94.9367549,34.7378007 94.4487598,34.4578035 94.0167576,34.0418014 C93.6487558,33.6737996 93.3687586,33.2418039 93.1767576,32.7458014 C92.9847567,32.249799 92.8647579,31.7378041 92.8167576,31.2098014 C92.7687574,30.713799 92.8127569,30.2418037 92.9487576,29.7938014 C93.0847583,29.3457992 93.2967562,28.9498032 93.5847576,28.6058014 C93.8727591,28.2617997 94.2327555,27.9778026 94.6647576,27.7538014 C95.0967598,27.5298003 95.6007547,27.4018016 96.1767576,27.3698014 C96.8647611,27.3218012 97.4887548,27.4497999 98.0487576,27.7538014 C98.6087604,28.057803 99.0007565,28.4817987 99.2247576,29.0258014 C99.3527583,29.329803 99.3887579,29.5938003 99.3327576,29.8178014 C99.2767573,30.0418026 99.112759,30.2418006 98.8407576,30.4178014 Z M96.0807576,28.7858014 C95.9207568,28.8178016 95.7487585,28.873801 95.5647576,28.9538014 C95.3807567,29.0338018 95.2127584,29.1338008 95.0607576,29.2538014 C94.9087569,29.373802 94.7727582,29.5098007 94.6527576,29.6618014 C94.532757,29.8138022 94.4647577,29.9858005 94.4487576,30.1778014 C94.720759,30.1778014 95.020756,30.1538017 95.3487576,30.1058014 C95.6767593,30.0578012 95.9967561,29.9978018 96.3087576,29.9258014 C96.6207592,29.8538011 96.9087563,29.7698019 97.1727576,29.6738014 C97.4367589,29.577801 97.6567567,29.473802 97.8327576,29.3618014 C97.704757,29.0577999 97.4687593,28.8698018 97.1247576,28.7978014 C96.7807559,28.7258011 96.4327594,28.7218011 96.0807576,28.7858014 Z M106.904758,29.6258014 C107.208759,29.6098014 107.512756,29.6818006 107.816758,29.8418014 C108.120759,30.0018022 108.272758,30.2497998 108.272758,30.5858014 C108.240757,30.8578028 108.092759,31.0298011 107.828758,31.1018014 C107.564756,31.1738018 107.352758,31.2098014 107.192758,31.2098014 C106.872756,31.2098014 106.528759,31.2178014 106.160758,31.2338014 C105.792756,31.2498015 105.41676,31.2738013 105.032758,31.3058014 C105.000757,31.8338041 104.972758,32.3297991 104.948758,32.7938014 C104.924758,33.2578038 104.904758,33.6697996 104.888758,34.0298014 C104.872758,34.3898032 104.864758,34.6818003 104.864758,34.9058014 C104.864758,35.1298026 104.872758,35.2498014 104.888758,35.2658014 C105.240759,35.2018011 105.620756,35.0938022 106.028758,34.9418014 C106.43676,34.7898007 106.844756,34.6218024 107.252758,34.4378014 C107.66076,34.2538005 108.060756,34.0618024 108.452758,33.8618014 C108.84476,33.6618004 109.216756,33.4738023 109.568758,33.2978014 C109.728758,33.217801 109.876757,33.1938013 110.012758,33.2258014 C110.148758,33.2578016 110.232757,33.3298009 110.264758,33.4418014 C110.296758,33.6178023 110.272758,33.8338002 110.192758,34.0898014 C110.112757,34.3458027 109.968759,34.5778004 109.760758,34.7858014 C109.520756,34.9778024 109.20476,35.1978002 108.812758,35.4458014 C108.420756,35.6938027 108.00076,35.9298003 107.552758,36.1538014 C107.104755,36.3778026 106.65276,36.5738006 106.196758,36.7418014 C105.740755,36.9098023 105.336759,37.0098013 104.984758,37.0418014 C104.456755,37.0898017 104.056759,36.9458031 103.784758,36.6098014 C103.512756,36.2737998 103.360758,35.849804 103.328758,35.3378014 C103.296757,34.8257989 103.292758,34.2338048 103.316758,33.5618014 C103.340758,32.8897981 103.368757,32.1778052 103.400758,31.4258014 C103.096756,31.4578016 102.804759,31.4858013 102.524758,31.5098014 C102.244756,31.5338016 101.976759,31.5618013 101.720758,31.5938014 C101.512757,31.5938014 101.284759,31.5458019 101.036758,31.4498014 C100.788756,31.353801 100.664758,31.1698028 100.664758,30.8978014 C100.664758,30.801801 100.704757,30.6738022 100.784758,30.5138014 C100.864758,30.3538006 101.040756,30.2338018 101.312758,30.1538014 C101.968761,30.0418009 102.696754,29.9458018 103.496758,29.8658014 C103.544758,29.1137977 103.600757,28.385805 103.664758,27.6818014 C103.728758,26.9777979 103.784757,26.3378043 103.832758,25.7618014 C103.848758,25.5698005 103.904757,25.4018022 104.000758,25.2578014 C104.096758,25.1138007 104.200757,25.0418014 104.312758,25.0418014 C104.584759,25.0258014 104.844756,25.0938007 105.092758,25.2458014 C105.340759,25.3978022 105.464758,25.5698005 105.464758,25.7618014 C105.400757,26.3058042 105.340758,26.921798 105.284758,27.6098014 C105.228757,28.2978049 105.176758,29.0017978 105.128758,29.7218014 C105.448759,29.6898013 105.756756,29.6698015 106.052758,29.6618014 C106.348759,29.6538014 106.632756,29.6418015 106.904758,29.6258014 Z M115.736758,28.8818014 C115.704757,28.7058006 115.672758,28.5378022 115.640758,28.3778014 C115.608757,28.2178006 115.528758,28.1138017 115.400758,28.0658014 C115.128756,27.985801 114.840759,27.9778011 114.536758,28.0418014 C114.232756,28.1058018 113.952759,28.2058008 113.696758,28.3418014 C113.440756,28.4778021 113.224759,28.6298006 113.048758,28.7978014 C112.872757,28.9658023 112.776758,29.1138008 112.760758,29.2418014 C112.712757,29.4818026 112.776757,29.7138003 112.952758,29.9378014 C113.128759,30.1618026 113.384756,30.3858003 113.720758,30.6098014 C114.28076,30.9458031 114.864755,31.2897997 115.472758,31.6418014 C116.080761,31.9938032 116.592756,32.3537996 117.008758,32.7218014 C117.42476,33.0898033 117.708757,33.4937992 117.860758,33.9338014 C118.012758,34.3738036 117.976759,34.8737986 117.752758,35.4338014 C117.576757,35.8658036 117.24876,36.2178001 116.768758,36.4898014 C116.288755,36.7618028 115.760761,36.9738007 115.184758,37.1258014 C114.608755,37.2778022 114.032761,37.3818012 113.456758,37.4378014 C112.880755,37.4938017 112.39276,37.5218014 111.992758,37.5218014 C111.896757,37.5218014 111.780758,37.4858018 111.644758,37.4138014 C111.508757,37.3418011 111.380758,37.2578019 111.260758,37.1618014 C111.140757,37.065801 111.036758,36.965802 110.948758,36.8618014 C110.860757,36.7578009 110.816758,36.6658018 110.816758,36.5858014 C110.816758,36.2978 110.944756,36.097802 111.200758,35.9858014 C111.456759,35.8738009 111.720756,35.8178014 111.992758,35.8178014 C112.37676,35.8178014 112.788755,35.7978016 113.228758,35.7578014 C113.66876,35.7178012 114.088756,35.6538019 114.488758,35.5658014 C114.88876,35.477801 115.248756,35.3618022 115.568758,35.2178014 C115.888759,35.0738007 116.112757,34.8898026 116.240758,34.6658014 C116.352758,34.4738005 116.284759,34.2458028 116.036758,33.9818014 C115.788756,33.7178001 115.46076,33.4418029 115.052758,33.1538014 C114.644756,32.8658 114.20476,32.5858028 113.732758,32.3138014 C113.260755,32.0418001 112.856759,31.7938026 112.520758,31.5698014 C112.184756,31.3458003 111.896759,31.077803 111.656758,30.7658014 C111.416756,30.4537999 111.264758,30.0658038 111.200758,29.6018014 C111.184758,29.1857994 111.272757,28.7858034 111.464758,28.4018014 C111.656759,28.0177995 111.908756,27.6778029 112.220758,27.3818014 C112.532759,27.0858 112.888756,26.8498023 113.288758,26.6738014 C113.68876,26.4978006 114.088756,26.4098014 114.488758,26.4098014 C115.176761,26.4418016 115.744755,26.6297997 116.192758,26.9738014 C116.64076,27.3178032 116.904757,27.8257981 116.984758,28.4978014 C116.984758,28.7218026 116.948758,28.9058007 116.876758,29.0498014 C116.804757,29.1938022 116.680759,29.2818013 116.504758,29.3138014 C116.280757,29.3458016 116.100758,29.3178019 115.964758,29.2298014 C115.828757,29.141801 115.752758,29.0258022 115.736758,28.8818014 Z M133.544758,28.4978014 C133.592758,29.3618058 133.644757,30.233797 133.700758,31.1138014 C133.756758,31.9938058 133.768758,32.8617972 133.736758,33.7178014 C133.704757,34.5738057 133.620758,35.4097974 133.484758,36.2258014 C133.348757,37.0418055 133.120759,37.8217977 132.800758,38.5658014 C132.480756,39.3098052 132.05276,40.0017982 131.516758,40.6418014 C130.980755,41.2818046 130.304762,41.8577989 129.488758,42.3698014 C129.360757,42.4498018 129.220758,42.4978014 129.068758,42.5138014 C128.916757,42.5298015 128.768758,42.5258016 128.624758,42.5018014 C128.480757,42.4778013 128.352758,42.4378017 128.240758,42.3818014 C128.128757,42.3258012 128.056758,42.2498019 128.024758,42.1538014 C127.976757,42.0098007 128.000757,41.8498023 128.096758,41.6738014 C128.192758,41.4978006 128.352757,41.3138024 128.576758,41.1218014 C129.280761,40.5937988 129.872755,40.0338044 130.352758,39.4418014 C130.83276,38.8497985 131.216756,38.2098049 131.504758,37.5218014 C131.792759,36.833798 131.980757,36.0858055 132.068758,35.2778014 C132.156758,34.4697974 132.152758,33.5858062 132.056758,32.6258014 C131.864757,32.8658026 131.640759,33.1138002 131.384758,33.3698014 C131.128756,33.6258027 130.856759,33.8538004 130.568758,34.0538014 C130.280756,34.2538024 129.984759,34.4218008 129.680758,34.5578014 C129.376756,34.6938021 129.088759,34.7618014 128.816758,34.7618014 C128.592757,34.7618014 128.368759,34.7138019 128.144758,34.6178014 C127.920757,34.521801 127.696759,34.3378028 127.472758,34.0658014 C127.216756,33.7297998 126.988759,33.3498036 126.788758,32.9258014 C126.588757,32.5017993 126.416758,32.0898034 126.272758,31.6898014 C126.128757,31.2897994 126.012758,30.929803 125.924758,30.6098014 C125.836757,30.2897998 125.784758,30.0658021 125.768758,29.9378014 C125.736757,29.7778006 125.736757,29.6258022 125.768758,29.4818014 C125.800758,29.3378007 125.904757,29.2498016 126.080758,29.2178014 C126.320759,29.1698012 126.544757,29.185801 126.752758,29.2658014 C126.960759,29.3458018 127.104757,29.4738006 127.184758,29.6498014 C127.248758,29.8258023 127.336757,30.0977996 127.448758,30.4658014 C127.560758,30.8338033 127.696757,31.1977996 127.856758,31.5578014 C128.016758,31.9178032 128.188757,32.2338001 128.372758,32.5058014 C128.556759,32.7778028 128.752757,32.9138014 128.960758,32.9138014 C129.200759,32.9138014 129.484756,32.7938026 129.812758,32.5538014 C130.140759,32.3138002 130.456756,32.0018034 130.760758,31.6178014 C131.064759,31.2337995 131.324757,30.8058038 131.540758,30.3338014 C131.756759,29.8617991 131.864758,29.4018037 131.864758,28.9538014 C131.864758,28.857801 131.880757,28.7458021 131.912758,28.6178014 C131.944758,28.4898008 131.992757,28.365802 132.056758,28.2458014 C132.120758,28.1258008 132.196757,28.0218019 132.284758,27.9338014 C132.372758,27.845801 132.464757,27.7938015 132.560758,27.7778014 C132.816759,27.7458013 133.044757,27.8138006 133.244758,27.9818014 C133.444759,28.1498023 133.544758,28.3218006 133.544758,28.4978014 Z M141.368758,27.6818014 C141.84876,27.8578023 142.252756,28.1217997 142.580758,28.4738014 C142.908759,28.8258032 143.160757,29.2217992 143.336758,29.6618014 C143.512759,30.1018036 143.612758,30.5537991 143.636758,31.0178014 C143.660758,31.4818038 143.608758,31.9137994 143.480758,32.3138014 C143.304757,32.7618037 143.080759,33.2017993 142.808758,33.6338014 C142.536756,34.0658036 142.224759,34.4497998 141.872758,34.7858014 C141.520756,35.1218031 141.12076,35.3938004 140.672758,35.6018014 C140.224755,35.8098025 139.72876,35.9138014 139.184758,35.9138014 C138.528754,35.9138014 137.97676,35.761803 137.528758,35.4578014 C137.080755,35.1537999 136.728759,34.7618038 136.472758,34.2818014 C136.216756,33.801799 136.052758,33.2578045 135.980758,32.6498014 C135.908757,32.0417984 135.920757,31.4338045 136.016758,30.8258014 C136.080758,30.3777992 136.188757,29.9418036 136.340758,29.5178014 C136.492758,29.0937993 136.688756,28.7178031 136.928758,28.3898014 C137.168759,28.0617998 137.444756,27.7938025 137.756758,27.5858014 C138.068759,27.3778004 138.424756,27.2738014 138.824758,27.2738014 C139.048759,27.2738014 139.328756,27.317801 139.664758,27.4058014 C140.000759,27.4938019 140.312756,27.6178006 140.600758,27.7778014 C140.808759,27.5858005 141.064756,27.5538008 141.368758,27.6818014 Z M140.456758,29.4338014 C140.280757,29.3218009 140.076759,29.1738024 139.844758,28.9898014 C139.612756,28.8058005 139.408759,28.7138014 139.232758,28.7138014 C139.040757,28.7138014 138.852759,28.8018006 138.668758,28.9778014 C138.484757,29.1538023 138.324758,29.3578003 138.188758,29.5898014 C138.052757,29.8218026 137.936758,30.0578002 137.840758,30.2978014 C137.744757,30.5378026 137.680758,30.7298007 137.648758,30.8738014 C137.600757,31.1138026 137.568758,31.4017998 137.552758,31.7378014 C137.536758,32.0738031 137.560757,32.4057998 137.624758,32.7338014 C137.688758,33.0618031 137.812757,33.3578001 137.996758,33.6218014 C138.180759,33.8858028 138.456756,34.0738009 138.824758,34.1858014 C139.048759,34.2498018 139.312756,34.2458018 139.616758,34.1738014 C139.920759,34.1018011 140.220756,33.9698024 140.516758,33.7778014 C140.812759,33.5858005 141.092756,33.329803 141.356758,33.0098014 C141.620759,32.6897998 141.824757,32.3218035 141.968758,31.9058014 C142.128758,31.4417991 142.132758,30.957804 141.980758,30.4538014 C141.828757,29.9497989 141.52076,29.5858026 141.056758,29.3618014 C140.944757,29.4418018 140.832758,29.4818014 140.720758,29.4818014 C140.608757,29.4818014 140.520758,29.4658016 140.456758,29.4338014 Z M147.608758,28.9538014 C147.512757,29.3858036 147.416758,29.8617988 147.320758,30.3818014 C147.224757,30.901804 147.156758,31.401799 147.116758,31.8818014 C147.076757,32.3618038 147.076757,32.7937995 147.116758,33.1778014 C147.156758,33.5618034 147.256757,33.8338006 147.416758,33.9938014 C147.688759,34.0418017 148.000756,33.9258028 148.352758,33.6458014 C148.704759,33.3658 149.048756,33.0098036 149.384758,32.5778014 C149.720759,32.1457993 150.024756,31.677804 150.296758,31.1738014 C150.568759,30.6697989 150.760757,30.2258034 150.872758,29.8418014 C150.936758,29.6498005 150.992757,29.4498025 151.040758,29.2418014 C151.088758,29.0338004 151.112758,28.8178026 151.112758,28.5938014 C151.112758,28.4658008 151.196757,28.341802 151.364758,28.2218014 C151.532758,28.1018008 151.672757,28.0338015 151.784758,28.0178014 C151.864758,28.0018014 151.956757,28.0178012 152.060758,28.0658014 C152.164758,28.1138017 152.260757,28.181801 152.348758,28.2698014 C152.436758,28.3578019 152.516757,28.4618008 152.588758,28.5818014 C152.660758,28.701802 152.696758,28.8258008 152.696758,28.9538014 C152.728758,29.4338038 152.776757,29.9617986 152.840758,30.5378014 C152.904758,31.1138043 152.980757,31.6897986 153.068758,32.2658014 C153.156758,32.8418043 153.248757,33.4017987 153.344758,33.9458014 C153.440758,34.4898042 153.536757,34.9777993 153.632758,35.4098014 C153.680758,35.5858023 153.632758,35.7858003 153.488758,36.0098014 C153.344757,36.2338026 153.184759,36.3698012 153.008758,36.4178014 C152.864757,36.4498016 152.716758,36.4338018 152.564758,36.3698014 C152.412757,36.3058011 152.296758,36.1778024 152.216758,35.9858014 C152.136757,35.7618003 152.060758,35.4858031 151.988758,35.1578014 C151.916757,34.8297998 151.852758,34.4858032 151.796758,34.1258014 C151.740757,33.7657996 151.688758,33.4218031 151.640758,33.0938014 C151.592757,32.7657998 151.560758,32.4898026 151.544758,32.2658014 C151.304756,32.6978036 151.020759,33.1337992 150.692758,33.5738014 C150.364756,34.0138036 150.01276,34.4137996 149.636758,34.7738014 C149.260756,35.1338032 148.86876,35.4138004 148.460758,35.6138014 C148.052756,35.8138024 147.63276,35.8898017 147.200758,35.8418014 C146.560754,35.761801 146.072759,35.161807 145.736758,34.0418014 C145.608757,33.5937992 145.548758,33.0978042 145.556758,32.5538014 C145.564758,32.0097987 145.604757,31.4698041 145.676758,30.9338014 C145.748758,30.3977988 145.836757,29.8898038 145.940758,29.4098014 C146.044758,28.929799 146.136757,28.537803 146.216758,28.2338014 C146.248758,28.1058008 146.312757,27.989802 146.408758,27.8858014 C146.504758,27.7818009 146.616757,27.7458013 146.744758,27.7778014 C146.984759,27.8258017 147.204757,27.9698002 147.404758,28.2098014 C147.604759,28.4498026 147.672758,28.6978002 147.608758,28.9538014 Z M168.512758,28.3538014 C168.112756,29.7298083 167.736759,31.1017946 167.384758,32.4698014 C167.032756,33.8378083 166.688759,35.1217954 166.352758,36.3218014 C166.288757,36.5778027 166.152759,36.7738008 165.944758,36.9098014 C165.736757,37.0458021 165.552758,37.0818018 165.392758,37.0178014 C165.312757,36.9858013 165.240758,36.913802 165.176758,36.8018014 C165.112757,36.6898009 165.060758,36.5578022 165.020758,36.4058014 C164.980757,36.2538007 164.956758,36.0938023 164.948758,35.9258014 C164.940758,35.7578006 164.944758,35.6018022 164.960758,35.4578014 C165.232759,34.4497964 165.548756,33.285808 165.908758,31.9658014 C166.268759,30.6457948 166.656756,29.3138082 167.072758,27.9698014 C166.688756,28.0018016 166.28876,28.0378012 165.872758,28.0778014 C165.456756,28.1178016 165.04876,28.1538013 164.648758,28.1858014 C164.248756,28.2178016 163.872759,28.2498013 163.520758,28.2818014 C163.168756,28.3138016 162.864759,28.3458013 162.608758,28.3778014 C162.336756,28.3778014 162.084759,28.2498027 161.852758,27.9938014 C161.620756,27.7378002 161.504758,27.4738028 161.504758,27.2018014 C161.504758,27.121801 161.544757,27.0538017 161.624758,26.9978014 C161.704758,26.9418012 161.784757,26.9058015 161.864758,26.8898014 C162.28076,26.8258011 162.752755,26.7698017 163.280758,26.7218014 C163.80876,26.6738012 164.344755,26.6298016 164.888758,26.5898014 C165.43276,26.5498012 165.964755,26.5138016 166.484758,26.4818014 C167.00476,26.4498013 167.464756,26.4338014 167.864758,26.4338014 C167.960758,26.4338014 168.068757,26.4698011 168.188758,26.5418014 C168.308758,26.6138018 168.416757,26.7058009 168.512758,26.8178014 C168.608758,26.929802 168.688757,27.0498008 168.752758,27.1778014 C168.816758,27.3058021 168.848758,27.417801 168.848758,27.5138014 L168.512758,28.3538014 Z M4.23275763,58.3058014 C4.24875771,58.5618027 4.27675743,58.8777996 4.31675763,59.2538014 C4.35675783,59.6298033 4.40075739,60.0217994 4.44875763,60.4298014 C4.49675787,60.8378035 4.54875735,61.2417994 4.60475763,61.6418014 C4.66075791,62.0418034 4.71275739,62.4097998 4.76075763,62.7458014 L5.40875763,61.4498014 C5.66475891,60.9377989 5.93275623,60.4458038 6.21275763,59.9738014 C6.49275903,59.5017991 6.78075615,59.1018031 7.07675763,58.7738014 C7.37275911,58.4457998 7.64075643,58.2818014 7.88075763,58.2818014 C8.13675891,58.2818014 8.37275655,58.4058002 8.58875763,58.6538014 C8.80475871,58.9018027 8.99275683,59.2017997 9.15275763,59.5538014 C9.31275843,59.9058032 9.45275703,60.2817994 9.57275763,60.6818014 C9.69275823,61.0818034 9.79275723,61.4337999 9.87275763,61.7378014 C9.93675795,61.5298004 10.0207571,61.2938028 10.1247576,61.0298014 C10.2287581,60.7658001 10.340757,60.4938028 10.4607576,60.2138014 C10.5807582,59.9338 10.7167569,59.6578028 10.8687576,59.3858014 C11.0207584,59.1138001 11.1847567,58.8738025 11.3607576,58.6658014 C11.5687587,58.4418003 11.7927564,58.277802 12.0327576,58.1738014 C12.2727588,58.0698009 12.4487571,58.0178014 12.5607576,58.0178014 C12.7047583,58.0178014 12.8767566,58.061801 13.0767576,58.1498014 C13.2767586,58.2378019 13.4807566,58.3538007 13.6887576,58.4978014 C13.8967587,58.6418022 14.0927567,58.8138004 14.2767576,59.0138014 C14.4607585,59.2138024 14.6087571,59.4178004 14.7207576,59.6258014 C14.9447587,60.0578036 15.1247569,60.5297989 15.2607576,61.0418014 C15.3967583,61.553804 15.4967573,62.0417991 15.5607576,62.5058014 C15.6247579,62.9698038 15.6687575,63.3817996 15.6927576,63.7418014 C15.7167577,64.1018032 15.7367575,64.3538007 15.7527576,64.4978014 C15.7527576,64.7058025 15.7287579,64.8618009 15.6807576,64.9658014 C15.6327574,65.069802 15.5447583,65.1538011 15.4167576,65.2178014 C15.2407567,65.2978018 15.0887583,65.3258016 14.9607576,65.3018014 C14.832757,65.2778013 14.728758,65.2258018 14.6487576,65.1458014 C14.5687572,65.065801 14.5047579,64.973802 14.4567576,64.8698014 C14.4087574,64.7658009 14.3767577,64.6738018 14.3607576,64.5938014 C14.3127574,64.2257996 14.2607579,63.8498034 14.2047576,63.4658014 C14.1487573,63.0817995 14.0887579,62.7098032 14.0247576,62.3498014 C13.9607573,61.9897996 13.8847581,61.653803 13.7967576,61.3418014 C13.7087572,61.0297999 13.6167581,60.7538026 13.5207576,60.5138014 C13.4887575,60.4498011 13.436758,60.365802 13.3647576,60.2618014 C13.2927573,60.1578009 13.2127581,60.0578019 13.1247576,59.9618014 C13.0367572,59.865801 12.952758,59.7858018 12.8727576,59.7218014 C12.7927572,59.6578011 12.7367578,59.6178015 12.7047576,59.6018014 C12.5447568,59.6018014 12.3767585,59.7498 12.2007576,60.0458014 C12.0247567,60.3418029 11.8567584,60.6977994 11.6967576,61.1138014 C11.5367568,61.5298035 11.3887583,61.9657992 11.2527576,62.4218014 C11.1167569,62.8778037 11.0167579,63.2657998 10.9527576,63.5858014 C10.9527576,64.0018035 10.8727584,64.3098004 10.7127576,64.5098014 C10.5527568,64.7098024 10.3847585,64.8098014 10.2087576,64.8098014 C10.0327567,64.8098014 9.84475863,64.7418021 9.64475763,64.6058014 C9.44475663,64.4698008 9.31275795,64.3138023 9.24875763,64.1378014 C9.15275715,63.8818002 9.04875819,63.593803 8.93675763,63.2738014 C8.82475707,62.9537998 8.70875823,62.6258031 8.58875763,62.2898014 C8.46875703,61.9537998 8.34875823,61.625803 8.22875763,61.3058014 C8.10875703,60.9857998 7.99275819,60.6978027 7.88075763,60.4418014 C7.65675651,60.745803 7.43675871,61.0817996 7.22075763,61.4498014 C7.00475655,61.8178033 6.79675863,62.1937995 6.59675763,62.5778014 C6.39675663,62.9618034 6.20475855,63.3417996 6.02075763,63.7178014 C5.83675671,64.0938033 5.66475843,64.4258 5.50475763,64.7138014 C5.39275707,64.8898023 5.27275827,65.0458008 5.14475763,65.1818014 C5.01675699,65.3178021 4.86475851,65.3858014 4.68875763,65.3858014 C4.56075699,65.3858014 4.42475835,65.325802 4.28075763,65.2058014 C4.13675691,65.0858008 4.00075827,64.9378023 3.87275763,64.7618014 C3.74475699,64.5858006 3.62875815,64.3858026 3.52475763,64.1618014 C3.42075711,63.9378003 3.34475787,63.7138026 3.29675763,63.4898014 C3.16875699,62.801798 3.06075807,62.0458056 2.97275763,61.2218014 C2.88475719,60.3977973 2.80075803,59.5938054 2.72075763,58.8098014 C2.70475755,58.5378001 2.74075719,58.2858026 2.82875763,58.0538014 C2.91675807,57.8218003 3.08875635,57.6658018 3.34475763,57.5858014 C3.61675899,57.5378012 3.82475691,57.5778008 3.96875763,57.7058014 C4.11275835,57.8338021 4.20075747,58.0338001 4.23275763,58.3058014 Z M23.2167576,57.6818014 C23.69676,57.8578023 24.100756,58.1217997 24.4287576,58.4738014 C24.7567593,58.8258032 25.0087567,59.2217992 25.1847576,59.6618014 C25.3607585,60.1018036 25.4607575,60.5537991 25.4847576,61.0178014 C25.5087577,61.4818038 25.4567583,61.9137994 25.3287576,62.3138014 C25.1527567,62.7618037 24.928759,63.2017993 24.6567576,63.6338014 C24.3847563,64.0658036 24.0727594,64.4497998 23.7207576,64.7858014 C23.3687559,65.1218031 22.9687599,65.3938004 22.5207576,65.6018014 C22.0727554,65.8098025 21.5767603,65.9138014 21.0327576,65.9138014 C20.3767543,65.9138014 19.8247599,65.761803 19.3767576,65.4578014 C18.9287554,65.1537999 18.5767589,64.7618038 18.3207576,64.2818014 C18.0647563,63.801799 17.900758,63.2578045 17.8287576,62.6498014 C17.7567573,62.0417984 17.7687571,61.4338045 17.8647576,60.8258014 C17.9287579,60.3777992 18.0367569,59.9418036 18.1887576,59.5178014 C18.3407584,59.0937993 18.5367564,58.7178031 18.7767576,58.3898014 C19.0167588,58.0617998 19.2927561,57.7938025 19.6047576,57.5858014 C19.9167592,57.3778004 20.2727556,57.2738014 20.6727576,57.2738014 C20.8967587,57.2738014 21.1767559,57.317801 21.5127576,57.4058014 C21.8487593,57.4938019 22.1607562,57.6178006 22.4487576,57.7778014 C22.6567587,57.5858005 22.9127561,57.5538008 23.2167576,57.6818014 Z M22.3047576,59.4338014 C22.1287567,59.3218009 21.9247588,59.1738024 21.6927576,58.9898014 C21.4607565,58.8058005 21.2567585,58.7138014 21.0807576,58.7138014 C20.8887567,58.7138014 20.7007585,58.8018006 20.5167576,58.9778014 C20.3327567,59.1538023 20.1727583,59.3578003 20.0367576,59.5898014 C19.9007569,59.8218026 19.7847581,60.0578002 19.6887576,60.2978014 C19.5927571,60.5378026 19.5287578,60.7298007 19.4967576,60.8738014 C19.4487574,61.1138026 19.4167577,61.4017998 19.4007576,61.7378014 C19.3847575,62.0738031 19.4087573,62.4057998 19.4727576,62.7338014 C19.5367579,63.0618031 19.6607567,63.3578001 19.8447576,63.6218014 C20.0287585,63.8858028 20.3047558,64.0738009 20.6727576,64.1858014 C20.8967587,64.2498018 21.1607561,64.2458018 21.4647576,64.1738014 C21.7687591,64.1018011 22.0687561,63.9698024 22.3647576,63.7778014 C22.6607591,63.5858005 22.9407563,63.329803 23.2047576,63.0098014 C23.4687589,62.6897998 23.6727569,62.3218035 23.8167576,61.9058014 C23.9767584,61.4417991 23.9807584,60.957804 23.8287576,60.4538014 C23.6767569,59.9497989 23.3687599,59.5858026 22.9047576,59.3618014 C22.7927571,59.4418018 22.6807582,59.4818014 22.5687576,59.4818014 C22.4567571,59.4818014 22.3687579,59.4658016 22.3047576,59.4338014 Z M28.9287576,58.1378014 C28.9767579,58.3778026 29.0287573,58.6458 29.0847576,58.9418014 C29.1407579,59.2378029 29.2007573,59.5417999 29.2647576,59.8538014 C29.3287579,60.165803 29.3847574,60.4817998 29.4327576,60.8018014 C29.4807579,61.121803 29.5207575,61.4258 29.5527576,61.7138014 C29.7447586,61.2977994 29.9527565,60.8578038 30.1767576,60.3938014 C30.4007587,59.9297991 30.6447563,59.5018034 30.9087576,59.1098014 C31.1727589,58.7177995 31.4527561,58.3938027 31.7487576,58.1378014 C32.0447591,57.8818002 32.3687559,57.7538014 32.7207576,57.7538014 C33.2487603,57.7538014 33.6927558,57.9457995 34.0527576,58.3298014 C34.4127594,58.7138034 34.7167564,59.1897986 34.9647576,59.7578014 C35.2127589,60.3258043 35.4087569,60.9217983 35.5527576,61.5458014 C35.6967583,62.1698046 35.8167571,62.721799 35.9127576,63.2018014 C36.0087581,63.6338036 35.81676,63.9538004 35.3367576,64.1618014 C35.1127565,64.273802 34.9447582,64.2898018 34.8327576,64.2098014 C34.7207571,64.129801 34.6567577,64.0498018 34.6407576,63.9698014 C34.5607572,63.7778005 34.4607582,63.4418038 34.3407576,62.9618014 C34.220757,62.481799 34.0847584,61.9938039 33.9327576,61.4978014 C33.7807569,61.001799 33.6087586,60.5698033 33.4167576,60.2018014 C33.2247567,59.8337996 33.0087588,59.6658013 32.7687576,59.6978014 C32.4807562,59.7138015 32.2247587,59.9297994 32.0007576,60.3458014 C31.8087567,60.6818031 31.6127586,61.0537994 31.4127576,61.4618014 C31.2127566,61.8698035 31.0167586,62.2857993 30.8247576,62.7098014 C30.6327567,63.1338036 30.4447585,63.5577993 30.2607576,63.9818014 C30.0767567,64.4058036 29.9047584,64.7937997 29.7447576,65.1458014 C29.6327571,65.257802 29.4927585,65.3338012 29.3247576,65.3738014 C29.1567568,65.4138016 28.9847585,65.4018018 28.8087576,65.3378014 C28.6487568,65.2898012 28.5207581,65.209802 28.4247576,65.0978014 C28.3287571,64.9858009 28.2807576,64.873802 28.2807576,64.7618014 C28.1367569,63.5137952 27.9887584,62.3778066 27.8367576,61.3538014 C27.6847569,60.3297963 27.4887588,59.2818068 27.2487576,58.2098014 C27.1367571,57.8417996 27.1167573,57.5498025 27.1887576,57.3338014 C27.260758,57.1178004 27.4967556,57.0338012 27.8967576,57.0818014 C28.4567604,57.1778019 28.800757,57.5297984 28.9287576,58.1378014 Z M43.0167576,59.6258014 C43.3207591,59.6098014 43.6247561,59.6818006 43.9287576,59.8418014 C44.2327591,60.0018022 44.3847576,60.2497998 44.3847576,60.5858014 C44.3527575,60.8578028 44.2047589,61.0298011 43.9407576,61.1018014 C43.6767563,61.1738018 43.4647584,61.2098014 43.3047576,61.2098014 C42.984756,61.2098014 42.6407595,61.2178014 42.2727576,61.2338014 C41.9047558,61.2498015 41.5287595,61.2738013 41.1447576,61.3058014 C41.1127575,61.8338041 41.0847577,62.3297991 41.0607576,62.7938014 C41.0367575,63.2578038 41.0167577,63.6697996 41.0007576,64.0298014 C40.9847575,64.3898032 40.9767576,64.6818003 40.9767576,64.9058014 C40.9767576,65.1298026 40.9847575,65.2498014 41.0007576,65.2658014 C41.3527594,65.2018011 41.7327556,65.0938022 42.1407576,64.9418014 C42.5487597,64.7898007 42.9567556,64.6218024 43.3647576,64.4378014 C43.7727597,64.2538005 44.1727557,64.0618024 44.5647576,63.8618014 C44.9567596,63.6618004 45.3287559,63.4738023 45.6807576,63.2978014 C45.8407584,63.217801 45.9887569,63.1938013 46.1247576,63.2258014 C46.2607583,63.2578016 46.3447575,63.3298009 46.3767576,63.4418014 C46.4087578,63.6178023 46.384758,63.8338002 46.3047576,64.0898014 C46.2247572,64.3458027 46.0807587,64.5778004 45.8727576,64.7858014 C45.6327564,64.9778024 45.3167596,65.1978002 44.9247576,65.4458014 C44.5327557,65.6938027 44.1127599,65.9298003 43.6647576,66.1538014 C43.2167554,66.3778026 42.7647599,66.5738006 42.3087576,66.7418014 C41.8527553,66.9098023 41.4487594,67.0098013 41.0967576,67.0418014 C40.568755,67.0898017 40.168759,66.9458031 39.8967576,66.6098014 C39.6247563,66.2737998 39.4727578,65.849804 39.4407576,65.3378014 C39.4087575,64.8257989 39.4047575,64.2338048 39.4287576,63.5618014 C39.4527577,62.8897981 39.4807575,62.1778052 39.5127576,61.4258014 C39.2087561,61.4578016 38.916759,61.4858013 38.6367576,61.5098014 C38.3567562,61.5338016 38.0887589,61.5618013 37.8327576,61.5938014 C37.6247566,61.5938014 37.3967589,61.5458019 37.1487576,61.4498014 C36.9007564,61.353801 36.7767576,61.1698028 36.7767576,60.8978014 C36.7767576,60.801801 36.8167572,60.6738022 36.8967576,60.5138014 C36.976758,60.3538006 37.1527563,60.2338018 37.4247576,60.1538014 C38.0807609,60.0418009 38.8087536,59.9458018 39.6087576,59.8658014 C39.6567579,59.1137977 39.7127573,58.385805 39.7767576,57.6818014 C39.8407579,56.9777979 39.8967574,56.3378043 39.9447576,55.7618014 C39.9607577,55.5698005 40.0167571,55.4018022 40.1127576,55.2578014 C40.2087581,55.1138007 40.3127571,55.0418014 40.4247576,55.0418014 C40.696759,55.0258014 40.9567564,55.0938007 41.2047576,55.2458014 C41.4527589,55.3978022 41.5767576,55.5698005 41.5767576,55.7618014 C41.5127573,56.3058042 41.4527579,56.921798 41.3967576,57.6098014 C41.3407573,58.2978049 41.2887579,59.0017978 41.2407576,59.7218014 C41.5607592,59.6898013 41.8687561,59.6698015 42.1647576,59.6618014 C42.4607591,59.6538014 42.7447563,59.6418015 43.0167576,59.6258014 Z M49.0407576,55.4258014 C49.0407576,55.8098034 49.0367577,56.241799 49.0287576,56.7218014 C49.0207576,57.2018038 49.0207576,57.6977989 49.0287576,58.2098014 C49.0367577,58.721804 49.0447576,59.2497987 49.0527576,59.7938014 C49.0607577,60.3378042 49.0727575,60.857799 49.0887576,61.3538014 C49.2487584,61.0337998 49.4407565,60.717803 49.6647576,60.4058014 C49.8887587,60.0937999 50.1407562,59.8178026 50.4207576,59.5778014 C50.700759,59.3378002 50.9967561,59.1458022 51.3087576,59.0018014 C51.6207592,58.8578007 51.9607558,58.7858014 52.3287576,58.7858014 C52.7287596,58.7858014 53.0847561,58.9138002 53.3967576,59.1698014 C53.7087592,59.4258027 53.9807565,59.7657993 54.2127576,60.1898014 C54.4447588,60.6138036 54.6407568,61.0857988 54.8007576,61.6058014 C54.9607584,62.125804 55.0927571,62.6537988 55.1967576,63.1898014 C55.3007581,63.7258041 55.3767574,64.237799 55.4247576,64.7258014 C55.4727579,65.2138039 55.5127575,65.6337997 55.5447576,65.9858014 C55.5447576,66.2418027 55.4807583,66.4498006 55.3527576,66.6098014 C55.224757,66.7698022 55.0727585,66.8498014 54.8967576,66.8498014 C54.768757,66.8498014 54.6127585,66.7658023 54.4287576,66.5978014 C54.2447567,66.4298006 54.112758,66.2258026 54.0327576,65.9858014 C53.9847574,65.7938005 53.9367579,65.5138033 53.8887576,65.1458014 C53.8407574,64.7777996 53.7847579,64.3818036 53.7207576,63.9578014 C53.6567573,63.5337993 53.5767581,63.1058036 53.4807576,62.6738014 C53.3847571,62.2417993 53.2687583,61.8538032 53.1327576,61.5098014 C52.9967569,61.1657997 52.8327586,60.8978024 52.6407576,60.7058014 C52.4487567,60.5138005 52.2247589,60.4418012 51.9687576,60.4898014 C51.5687556,60.5698018 51.2207591,60.849799 50.9247576,61.3298014 C50.6287561,61.8098038 50.3727587,62.3537984 50.1567576,62.9618014 C49.9407565,63.5698045 49.7647583,64.1857983 49.6287576,64.8098014 C49.4927569,65.4338046 49.3927579,65.9377995 49.3287576,66.3218014 C49.2647573,66.6098029 49.1807581,66.8058009 49.0767576,66.9098014 C48.9727571,67.013802 48.8567583,67.0658014 48.7287576,67.0658014 C48.600757,67.0658014 48.4847581,67.0018021 48.3807576,66.8738014 C48.2767571,66.7458008 48.1807581,66.5898024 48.0927576,66.4058014 C48.0047572,66.2218005 47.9287579,66.0298024 47.8647576,65.8298014 C47.8007573,65.6298004 47.7607577,65.4578022 47.7447576,65.3138014 C47.6647572,64.4497971 47.6007579,63.6218054 47.5527576,62.8298014 C47.5047574,62.0377975 47.4687577,61.2418054 47.4447576,60.4418014 C47.4207575,59.6417974 47.4087576,58.8218056 47.4087576,57.9818014 C47.4087576,57.1417972 47.4247575,56.2418062 47.4567576,55.2818014 C47.4567576,54.4817974 47.7447547,54.121801 48.3207576,54.2018014 C48.5127586,54.2338016 48.6807569,54.3738002 48.8247576,54.6218014 C48.9687583,54.8698027 49.0407576,55.1378 49.0407576,55.4258014 Z M61.7607576,58.8818014 C61.7287575,58.7058006 61.6967578,58.5378022 61.6647576,58.3778014 C61.6327575,58.2178006 61.5527583,58.1138017 61.4247576,58.0658014 C61.1527563,57.985801 60.8647591,57.9778011 60.5607576,58.0418014 C60.2567561,58.1058018 59.9767589,58.2058008 59.7207576,58.3418014 C59.4647563,58.4778021 59.2487585,58.6298006 59.0727576,58.7978014 C58.8967567,58.9658023 58.8007577,59.1138008 58.7847576,59.2418014 C58.7367574,59.4818026 58.8007567,59.7138003 58.9767576,59.9378014 C59.1527585,60.1618026 59.4087559,60.3858003 59.7447576,60.6098014 C60.3047604,60.9458031 60.8887546,61.2897997 61.4967576,61.6418014 C62.1047607,61.9938032 62.6167555,62.3537996 63.0327576,62.7218014 C63.4487597,63.0898033 63.7327569,63.4937992 63.8847576,63.9338014 C64.0367584,64.3738036 64.0007587,64.8737986 63.7767576,65.4338014 C63.6007567,65.8658036 63.27276,66.2178001 62.7927576,66.4898014 C62.3127552,66.7618028 61.7847605,66.9738007 61.2087576,67.1258014 C60.6327547,67.2778022 60.0567605,67.3818012 59.4807576,67.4378014 C58.9047547,67.4938017 58.4167596,67.5218014 58.0167576,67.5218014 C57.9207571,67.5218014 57.8047583,67.4858018 57.6687576,67.4138014 C57.5327569,67.3418011 57.4047582,67.2578019 57.2847576,67.1618014 C57.164757,67.065801 57.0607581,66.965802 56.9727576,66.8618014 C56.8847572,66.7578009 56.8407576,66.6658018 56.8407576,66.5858014 C56.8407576,66.2978 56.9687563,66.097802 57.2247576,65.9858014 C57.4807589,65.8738009 57.7447563,65.8178014 58.0167576,65.8178014 C58.4007595,65.8178014 58.8127554,65.7978016 59.2527576,65.7578014 C59.6927598,65.7178012 60.1127556,65.6538019 60.5127576,65.5658014 C60.9127596,65.477801 61.272756,65.3618022 61.5927576,65.2178014 C61.9127592,65.0738007 62.136757,64.8898026 62.2647576,64.6658014 C62.3767582,64.4738005 62.3087589,64.2458028 62.0607576,63.9818014 C61.8127564,63.7178001 61.4847597,63.4418029 61.0767576,63.1538014 C60.6687556,62.8658 60.22876,62.5858028 59.7567576,62.3138014 C59.2847553,62.0418001 58.8807593,61.7938026 58.5447576,61.5698014 C58.2087559,61.3458003 57.9207588,61.077803 57.6807576,60.7658014 C57.4407564,60.4537999 57.2887579,60.0658038 57.2247576,59.6018014 C57.2087575,59.1857994 57.2967567,58.7858034 57.4887576,58.4018014 C57.6807586,58.0177995 57.9327561,57.6778029 58.2447576,57.3818014 C58.5567592,57.0858 58.9127556,56.8498023 59.3127576,56.6738014 C59.7127596,56.4978006 60.1127556,56.4098014 60.5127576,56.4098014 C61.2007611,56.4418016 61.7687554,56.6297997 62.2167576,56.9738014 C62.6647599,57.3178032 62.9287572,57.8257981 63.0087576,58.4978014 C63.0087576,58.7218026 62.972758,58.9058007 62.9007576,59.0498014 C62.8287573,59.1938022 62.7047585,59.2818013 62.5287576,59.3138014 C62.3047565,59.3458016 62.1247583,59.3178019 61.9887576,59.2298014 C61.8527569,59.141801 61.7767577,59.0258022 61.7607576,58.8818014 Z M72.9687576,61.6898014 C72.7447565,61.7218016 72.4847591,61.6978018 72.1887576,61.6178014 C71.8927561,61.537801 71.6887582,61.337803 71.5767576,61.0178014 C71.5287574,60.8578006 71.5207575,60.7018022 71.5527576,60.5498014 C71.5847578,60.3978007 71.7527561,60.2898018 72.0567576,60.2258014 C72.3447591,60.1618011 72.652756,60.1018017 72.9807576,60.0458014 C73.3087593,59.9898012 73.6407559,59.9378017 73.9767576,59.8898014 L73.0887576,57.2018014 C72.8167563,56.1777963 72.7847566,55.2978051 72.9927576,54.5618014 C73.2007587,53.8257978 73.7927527,53.297803 74.7687576,52.9778014 C75.1687596,52.8498008 75.5647557,52.8018013 75.9567576,52.8338014 C76.3487596,52.8658016 76.7207559,52.9698006 77.0727576,53.1458014 C77.4247594,53.3218023 77.7447562,53.5538 78.0327576,53.8418014 C78.3207591,54.1298029 78.5527567,54.4657995 78.7287576,54.8498014 C78.7927579,55.0258023 78.8287576,55.1818008 78.8367576,55.3178014 C78.8447577,55.4538021 78.7927582,55.5778009 78.6807576,55.6898014 C78.5207568,55.8498022 78.3447586,55.9178016 78.1527576,55.8938014 C77.9607567,55.8698013 77.8327579,55.8178018 77.7687576,55.7378014 C77.6247569,55.5618006 77.4687585,55.3818024 77.3007576,55.1978014 C77.1327568,55.0138005 76.9567585,54.8538021 76.7727576,54.7178014 C76.5887567,54.5818008 76.3927587,54.4778018 76.1847576,54.4058014 C75.9767566,54.3338011 75.7527588,54.3138013 75.5127576,54.3458014 C75.4007571,54.3618015 75.2687584,54.417801 75.1167576,54.5138014 C74.9647569,54.6098019 74.8327582,54.7578004 74.7207576,54.9578014 C74.6087571,55.1578024 74.5407577,55.4177998 74.5167576,55.7378014 C74.4927575,56.057803 74.544757,56.457799 74.6727576,56.9378014 C74.7847582,57.3378034 74.9127569,57.7697991 75.0567576,58.2338014 C75.2007583,58.6978038 75.3607567,59.1857989 75.5367576,59.6978014 C76.3047615,59.617801 77.0087544,59.5938013 77.6487576,59.6258014 C78.0007594,59.6578016 78.3287561,59.721801 78.6327576,59.8178014 C78.9367591,59.9138019 79.1847567,60.0578005 79.3767576,60.2498014 C79.4247579,60.4098022 79.4167579,60.5418009 79.3527576,60.6458014 C79.2887573,60.749802 79.1967582,60.8378011 79.0767576,60.9098014 C78.956757,60.9818018 78.8207584,61.0338013 78.6687576,61.0658014 C78.5167569,61.0978016 78.3687583,61.1218014 78.2247576,61.1378014 C77.904756,61.1698016 77.5687594,61.2058012 77.2167576,61.2458014 C76.8647559,61.2858016 76.4967595,61.3218013 76.1127576,61.3538014 C76.3687589,62.073805 76.6047565,62.7577982 76.8207576,63.4058014 C77.0367587,64.0538047 77.208757,64.5937993 77.3367576,65.0258014 C77.4007579,65.2658026 77.4087579,65.5218001 77.3607576,65.7938014 C77.3127574,66.0658028 77.248758,66.3298002 77.1687576,66.5858014 C77.040757,66.9538033 76.8807586,67.2498003 76.6887576,67.4738014 C76.4967567,67.6978026 76.2887587,67.7698018 76.0647576,67.6898014 C75.8887567,67.609801 75.7767579,67.5058021 75.7287576,67.3778014 C75.6807574,67.2498008 75.6727575,67.0738026 75.7047576,66.8498014 C75.7367578,66.5938002 75.7527576,66.3378027 75.7527576,66.0818014 C75.7527576,65.8258002 75.7407577,65.5898025 75.7167576,65.3738014 C75.6927575,65.1578004 75.6607578,64.9658023 75.6207576,64.7978014 C75.5807574,64.6298006 75.5527577,64.5138018 75.5367576,64.4498014 L74.5287576,61.5218014 C74.2727563,61.5538016 74.0167589,61.5818013 73.7607576,61.6058014 C73.5047563,61.6298016 73.240759,61.6578013 72.9687576,61.6898014 Z M88.2087576,57.7778014 C87.9207562,57.9378022 87.6207592,58.1058006 87.3087576,58.2818014 C86.9967561,58.4578023 86.6847592,58.6618003 86.3727576,58.8938014 C86.0607561,59.1258026 85.764759,59.3977999 85.4847576,59.7098014 C85.2047562,60.021803 84.9527587,60.3937993 84.7287576,60.8258014 C84.408756,61.4338045 84.1927582,62.0537983 84.0807576,62.6858014 C83.9687571,63.3178046 83.8967578,63.9377984 83.8647576,64.5458014 C83.8647576,64.8338029 83.7967583,65.1258 83.6607576,65.4218014 C83.5247569,65.7178029 83.3367588,65.8658014 83.0967576,65.8658014 C82.7927561,65.8658014 82.5487585,65.709803 82.3647576,65.3978014 C82.1807567,65.0857999 82.0567579,64.7858029 81.9927576,64.4978014 C81.7207563,63.3617958 81.4967585,62.237807 81.3207576,61.1258014 C81.1447567,60.0137959 80.9927583,58.905807 80.8647576,57.8018014 C80.8647576,57.5778003 80.9327569,57.4338018 81.0687576,57.3698014 C81.2047583,57.3058011 81.3607567,57.2818014 81.5367576,57.2978014 C81.7287586,57.3138015 81.9127567,57.361801 82.0887576,57.4418014 C82.2647585,57.5218018 82.3687575,57.6498006 82.4007576,57.8258014 C82.4647579,58.4178044 82.5447571,59.0377982 82.6407576,59.6858014 C82.7367581,60.3338047 82.8327571,60.8897991 82.9287576,61.3538014 C82.9927579,60.8097987 83.1687562,60.281804 83.4567576,59.7698014 C83.7447591,59.2577989 84.1007555,58.7938035 84.5247576,58.3778014 C84.9487597,57.9617994 85.4287549,57.6098029 85.9647576,57.3218014 C86.5007603,57.0338 87.0487548,56.8418019 87.6087576,56.7458014 C87.8487588,56.7138013 88.0487568,56.7138013 88.2087576,56.7458014 C88.3687584,56.7778016 88.4807573,56.833801 88.5447576,56.9138014 C88.6087579,56.9938018 88.6207578,57.1218006 88.5807576,57.2978014 C88.5407574,57.4738023 88.4167587,57.6338007 88.2087576,57.7778014 Z M95.4567576,60.4178014 C94.8327545,60.7858033 94.1607612,61.0698004 93.4407576,61.2698014 C92.720754,61.4698024 91.9447618,61.5698014 91.1127576,61.5698014 C91.1447578,62.1298042 91.3047562,62.5737998 91.5927576,62.9018014 C91.8807591,63.2298031 92.2407555,63.4258011 92.6727576,63.4898014 C92.9287589,63.5218016 93.1887563,63.5138017 93.4527576,63.4658014 C93.7167589,63.4178012 93.9647565,63.341802 94.1967576,63.2378014 C94.4287588,63.1338009 94.6407567,63.0178021 94.8327576,62.8898014 C95.0247586,62.7618008 95.1927569,62.6338021 95.3367576,62.5058014 C95.4807583,62.3778008 95.6327568,62.2938016 95.7927576,62.2538014 C95.9527584,62.2138012 96.0727572,62.2098013 96.1527576,62.2418014 C96.3767587,62.3218018 96.4567579,62.5617994 96.3927576,62.9618014 C96.1367563,63.473804 95.76876,63.9097996 95.2887576,64.2698014 C94.8087552,64.6298032 94.2727606,64.857801 93.6807576,64.9538014 C93.1687551,65.0498019 92.6407603,65.0258022 92.0967576,64.8818014 C91.5527549,64.7378007 91.0647598,64.4578035 90.6327576,64.0418014 C90.2647558,63.6737996 89.9847586,63.2418039 89.7927576,62.7458014 C89.6007567,62.249799 89.4807579,61.7378041 89.4327576,61.2098014 C89.3847574,60.713799 89.4287569,60.2418037 89.5647576,59.7938014 C89.7007583,59.3457992 89.9127562,58.9498032 90.2007576,58.6058014 C90.4887591,58.2617997 90.8487555,57.9778026 91.2807576,57.7538014 C91.7127598,57.5298003 92.2167547,57.4018016 92.7927576,57.3698014 C93.4807611,57.3218012 94.1047548,57.4497999 94.6647576,57.7538014 C95.2247604,58.057803 95.6167565,58.4817987 95.8407576,59.0258014 C95.9687583,59.329803 96.0047579,59.5938003 95.9487576,59.8178014 C95.8927573,60.0418026 95.728759,60.2418006 95.4567576,60.4178014 Z M92.6967576,58.7858014 C92.5367568,58.8178016 92.3647585,58.873801 92.1807576,58.9538014 C91.9967567,59.0338018 91.8287584,59.1338008 91.6767576,59.2538014 C91.5247569,59.373802 91.3887582,59.5098007 91.2687576,59.6618014 C91.148757,59.8138022 91.0807577,59.9858005 91.0647576,60.1778014 C91.336759,60.1778014 91.636756,60.1538017 91.9647576,60.1058014 C92.2927593,60.0578012 92.6127561,59.9978018 92.9247576,59.9258014 C93.2367592,59.8538011 93.5247563,59.7698019 93.7887576,59.6738014 C94.0527589,59.577801 94.2727567,59.473802 94.4487576,59.3618014 C94.320757,59.0577999 94.0847593,58.8698018 93.7407576,58.7978014 C93.3967559,58.7258011 93.0487594,58.7218011 92.6967576,58.7858014 Z M103.880758,60.4178014 C103.256755,60.7858033 102.584761,61.0698004 101.864758,61.2698014 C101.144754,61.4698024 100.368762,61.5698014 99.5367576,61.5698014 C99.5687578,62.1298042 99.7287562,62.5737998 100.016758,62.9018014 C100.304759,63.2298031 100.664755,63.4258011 101.096758,63.4898014 C101.352759,63.5218016 101.612756,63.5138017 101.876758,63.4658014 C102.140759,63.4178012 102.388756,63.341802 102.620758,63.2378014 C102.852759,63.1338009 103.064757,63.0178021 103.256758,62.8898014 C103.448759,62.7618008 103.616757,62.6338021 103.760758,62.5058014 C103.904758,62.3778008 104.056757,62.2938016 104.216758,62.2538014 C104.376758,62.2138012 104.496757,62.2098013 104.576758,62.2418014 C104.800759,62.3218018 104.880758,62.5617994 104.816758,62.9618014 C104.560756,63.473804 104.19276,63.9097996 103.712758,64.2698014 C103.232755,64.6298032 102.696761,64.857801 102.104758,64.9538014 C101.592755,65.0498019 101.06476,65.0258022 100.520758,64.8818014 C99.9767549,64.7378007 99.4887598,64.4578035 99.0567576,64.0418014 C98.6887558,63.6737996 98.4087586,63.2418039 98.2167576,62.7458014 C98.0247567,62.249799 97.9047579,61.7378041 97.8567576,61.2098014 C97.8087574,60.713799 97.8527569,60.2418037 97.9887576,59.7938014 C98.1247583,59.3457992 98.3367562,58.9498032 98.6247576,58.6058014 C98.9127591,58.2617997 99.2727555,57.9778026 99.7047576,57.7538014 C100.13676,57.5298003 100.640755,57.4018016 101.216758,57.3698014 C101.904761,57.3218012 102.528755,57.4497999 103.088758,57.7538014 C103.64876,58.057803 104.040757,58.4817987 104.264758,59.0258014 C104.392758,59.329803 104.428758,59.5938003 104.372758,59.8178014 C104.316757,60.0418026 104.152759,60.2418006 103.880758,60.4178014 Z M101.120758,58.7858014 C100.960757,58.8178016 100.788759,58.873801 100.604758,58.9538014 C100.420757,59.0338018 100.252758,59.1338008 100.100758,59.2538014 C99.9487569,59.373802 99.8127582,59.5098007 99.6927576,59.6618014 C99.572757,59.8138022 99.5047577,59.9858005 99.4887576,60.1778014 C99.760759,60.1778014 100.060756,60.1538017 100.388758,60.1058014 C100.716759,60.0578012 101.036756,59.9978018 101.348758,59.9258014 C101.660759,59.8538011 101.948756,59.7698019 102.212758,59.6738014 C102.476759,59.577801 102.696757,59.473802 102.872758,59.3618014 C102.744757,59.0577999 102.508759,58.8698018 102.164758,58.7978014 C101.820756,58.7258011 101.472759,58.7218011 101.120758,58.7858014 Z M114.056758,61.6898014 C113.832757,61.7218016 113.572759,61.6978018 113.276758,61.6178014 C112.980756,61.537801 112.776758,61.337803 112.664758,61.0178014 C112.616757,60.8578006 112.608757,60.7018022 112.640758,60.5498014 C112.672758,60.3978007 112.840756,60.2898018 113.144758,60.2258014 C113.432759,60.1618011 113.740756,60.1018017 114.068758,60.0458014 C114.396759,59.9898012 114.728756,59.9378017 115.064758,59.8898014 L114.176758,57.2018014 C113.904756,56.1777963 113.872757,55.2978051 114.080758,54.5618014 C114.288759,53.8257978 114.880753,53.297803 115.856758,52.9778014 C116.25676,52.8498008 116.652756,52.8018013 117.044758,52.8338014 C117.43676,52.8658016 117.808756,52.9698006 118.160758,53.1458014 C118.512759,53.3218023 118.832756,53.5538 119.120758,53.8418014 C119.408759,54.1298029 119.640757,54.4657995 119.816758,54.8498014 C119.880758,55.0258023 119.916758,55.1818008 119.924758,55.3178014 C119.932758,55.4538021 119.880758,55.5778009 119.768758,55.6898014 C119.608757,55.8498022 119.432759,55.9178016 119.240758,55.8938014 C119.048757,55.8698013 118.920758,55.8178018 118.856758,55.7378014 C118.712757,55.5618006 118.556758,55.3818024 118.388758,55.1978014 C118.220757,55.0138005 118.044759,54.8538021 117.860758,54.7178014 C117.676757,54.5818008 117.480759,54.4778018 117.272758,54.4058014 C117.064757,54.3338011 116.840759,54.3138013 116.600758,54.3458014 C116.488757,54.3618015 116.356758,54.417801 116.204758,54.5138014 C116.052757,54.6098019 115.920758,54.7578004 115.808758,54.9578014 C115.696757,55.1578024 115.628758,55.4177998 115.604758,55.7378014 C115.580758,56.057803 115.632757,56.457799 115.760758,56.9378014 C115.872758,57.3378034 116.000757,57.7697991 116.144758,58.2338014 C116.288758,58.6978038 116.448757,59.1857989 116.624758,59.6978014 C117.392761,59.617801 118.096754,59.5938013 118.736758,59.6258014 C119.088759,59.6578016 119.416756,59.721801 119.720758,59.8178014 C120.024759,59.9138019 120.272757,60.0578005 120.464758,60.2498014 C120.512758,60.4098022 120.504758,60.5418009 120.440758,60.6458014 C120.376757,60.749802 120.284758,60.8378011 120.164758,60.9098014 C120.044757,60.9818018 119.908758,61.0338013 119.756758,61.0658014 C119.604757,61.0978016 119.456758,61.1218014 119.312758,61.1378014 C118.992756,61.1698016 118.656759,61.2058012 118.304758,61.2458014 C117.952756,61.2858016 117.58476,61.3218013 117.200758,61.3538014 C117.456759,62.073805 117.692757,62.7577982 117.908758,63.4058014 C118.124759,64.0538047 118.296757,64.5937993 118.424758,65.0258014 C118.488758,65.2658026 118.496758,65.5218001 118.448758,65.7938014 C118.400757,66.0658028 118.336758,66.3298002 118.256758,66.5858014 C118.128757,66.9538033 117.968759,67.2498003 117.776758,67.4738014 C117.584757,67.6978026 117.376759,67.7698018 117.152758,67.6898014 C116.976757,67.609801 116.864758,67.5058021 116.816758,67.3778014 C116.768757,67.2498008 116.760757,67.0738026 116.792758,66.8498014 C116.824758,66.5938002 116.840758,66.3378027 116.840758,66.0818014 C116.840758,65.8258002 116.828758,65.5898025 116.804758,65.3738014 C116.780758,65.1578004 116.748758,64.9658023 116.708758,64.7978014 C116.668757,64.6298006 116.640758,64.5138018 116.624758,64.4498014 L115.616758,61.5218014 C115.360756,61.5538016 115.104759,61.5818013 114.848758,61.6058014 C114.592756,61.6298016 114.328759,61.6578013 114.056758,61.6898014 Z M127.640758,57.6818014 C128.12076,57.8578023 128.524756,58.1217997 128.852758,58.4738014 C129.180759,58.8258032 129.432757,59.2217992 129.608758,59.6618014 C129.784759,60.1018036 129.884758,60.5537991 129.908758,61.0178014 C129.932758,61.4818038 129.880758,61.9137994 129.752758,62.3138014 C129.576757,62.7618037 129.352759,63.2017993 129.080758,63.6338014 C128.808756,64.0658036 128.496759,64.4497998 128.144758,64.7858014 C127.792756,65.1218031 127.39276,65.3938004 126.944758,65.6018014 C126.496755,65.8098025 126.00076,65.9138014 125.456758,65.9138014 C124.800754,65.9138014 124.24876,65.761803 123.800758,65.4578014 C123.352755,65.1537999 123.000759,64.7618038 122.744758,64.2818014 C122.488756,63.801799 122.324758,63.2578045 122.252758,62.6498014 C122.180757,62.0417984 122.192757,61.4338045 122.288758,60.8258014 C122.352758,60.3777992 122.460757,59.9418036 122.612758,59.5178014 C122.764758,59.0937993 122.960756,58.7178031 123.200758,58.3898014 C123.440759,58.0617998 123.716756,57.7938025 124.028758,57.5858014 C124.340759,57.3778004 124.696756,57.2738014 125.096758,57.2738014 C125.320759,57.2738014 125.600756,57.317801 125.936758,57.4058014 C126.272759,57.4938019 126.584756,57.6178006 126.872758,57.7778014 C127.080759,57.5858005 127.336756,57.5538008 127.640758,57.6818014 Z M126.728758,59.4338014 C126.552757,59.3218009 126.348759,59.1738024 126.116758,58.9898014 C125.884756,58.8058005 125.680759,58.7138014 125.504758,58.7138014 C125.312757,58.7138014 125.124759,58.8018006 124.940758,58.9778014 C124.756757,59.1538023 124.596758,59.3578003 124.460758,59.5898014 C124.324757,59.8218026 124.208758,60.0578002 124.112758,60.2978014 C124.016757,60.5378026 123.952758,60.7298007 123.920758,60.8738014 C123.872757,61.1138026 123.840758,61.4017998 123.824758,61.7378014 C123.808758,62.0738031 123.832757,62.4057998 123.896758,62.7338014 C123.960758,63.0618031 124.084757,63.3578001 124.268758,63.6218014 C124.452759,63.8858028 124.728756,64.0738009 125.096758,64.1858014 C125.320759,64.2498018 125.584756,64.2458018 125.888758,64.1738014 C126.192759,64.1018011 126.492756,63.9698024 126.788758,63.7778014 C127.084759,63.5858005 127.364756,63.329803 127.628758,63.0098014 C127.892759,62.6897998 128.096757,62.3218035 128.240758,61.9058014 C128.400758,61.4417991 128.404758,60.957804 128.252758,60.4538014 C128.100757,59.9497989 127.79276,59.5858026 127.328758,59.3618014 C127.216757,59.4418018 127.104758,59.4818014 126.992758,59.4818014 C126.880757,59.4818014 126.792758,59.4658016 126.728758,59.4338014 Z M138.992758,57.7778014 C138.704756,57.9378022 138.404759,58.1058006 138.092758,58.2818014 C137.780756,58.4578023 137.468759,58.6618003 137.156758,58.8938014 C136.844756,59.1258026 136.548759,59.3977999 136.268758,59.7098014 C135.988756,60.021803 135.736759,60.3937993 135.512758,60.8258014 C135.192756,61.4338045 134.976758,62.0537983 134.864758,62.6858014 C134.752757,63.3178046 134.680758,63.9377984 134.648758,64.5458014 C134.648758,64.8338029 134.580758,65.1258 134.444758,65.4218014 C134.308757,65.7178029 134.120759,65.8658014 133.880758,65.8658014 C133.576756,65.8658014 133.332759,65.709803 133.148758,65.3978014 C132.964757,65.0857999 132.840758,64.7858029 132.776758,64.4978014 C132.504756,63.3617958 132.280759,62.237807 132.104758,61.1258014 C131.928757,60.0137959 131.776758,58.905807 131.648758,57.8018014 C131.648758,57.5778003 131.716757,57.4338018 131.852758,57.3698014 C131.988758,57.3058011 132.144757,57.2818014 132.320758,57.2978014 C132.512759,57.3138015 132.696757,57.361801 132.872758,57.4418014 C133.048759,57.5218018 133.152757,57.6498006 133.184758,57.8258014 C133.248758,58.4178044 133.328757,59.0377982 133.424758,59.6858014 C133.520758,60.3338047 133.616757,60.8897991 133.712758,61.3538014 C133.776758,60.8097987 133.952756,60.281804 134.240758,59.7698014 C134.528759,59.2577989 134.884756,58.7938035 135.308758,58.3778014 C135.73276,57.9617994 136.212755,57.6098029 136.748758,57.3218014 C137.28476,57.0338 137.832755,56.8418019 138.392758,56.7458014 C138.632759,56.7138013 138.832757,56.7138013 138.992758,56.7458014 C139.152758,56.7778016 139.264757,56.833801 139.328758,56.9138014 C139.392758,56.9938018 139.404758,57.1218006 139.364758,57.2978014 C139.324757,57.4738023 139.200759,57.6338007 138.992758,57.7778014 Z M152.600758,59.6258014 C152.904759,59.6098014 153.208756,59.6818006 153.512758,59.8418014 C153.816759,60.0018022 153.968758,60.2497998 153.968758,60.5858014 C153.936757,60.8578028 153.788759,61.0298011 153.524758,61.1018014 C153.260756,61.1738018 153.048758,61.2098014 152.888758,61.2098014 C152.568756,61.2098014 152.224759,61.2178014 151.856758,61.2338014 C151.488756,61.2498015 151.11276,61.2738013 150.728758,61.3058014 C150.696757,61.8338041 150.668758,62.3297991 150.644758,62.7938014 C150.620758,63.2578038 150.600758,63.6697996 150.584758,64.0298014 C150.568758,64.3898032 150.560758,64.6818003 150.560758,64.9058014 C150.560758,65.1298026 150.568758,65.2498014 150.584758,65.2658014 C150.936759,65.2018011 151.316756,65.0938022 151.724758,64.9418014 C152.13276,64.7898007 152.540756,64.6218024 152.948758,64.4378014 C153.35676,64.2538005 153.756756,64.0618024 154.148758,63.8618014 C154.54076,63.6618004 154.912756,63.4738023 155.264758,63.2978014 C155.424758,63.217801 155.572757,63.1938013 155.708758,63.2258014 C155.844758,63.2578016 155.928757,63.3298009 155.960758,63.4418014 C155.992758,63.6178023 155.968758,63.8338002 155.888758,64.0898014 C155.808757,64.3458027 155.664759,64.5778004 155.456758,64.7858014 C155.216756,64.9778024 154.90076,65.1978002 154.508758,65.4458014 C154.116756,65.6938027 153.69676,65.9298003 153.248758,66.1538014 C152.800755,66.3778026 152.34876,66.5738006 151.892758,66.7418014 C151.436755,66.9098023 151.032759,67.0098013 150.680758,67.0418014 C150.152755,67.0898017 149.752759,66.9458031 149.480758,66.6098014 C149.208756,66.2737998 149.056758,65.849804 149.024758,65.3378014 C148.992757,64.8257989 148.988758,64.2338048 149.012758,63.5618014 C149.036758,62.8897981 149.064757,62.1778052 149.096758,61.4258014 C148.792756,61.4578016 148.500759,61.4858013 148.220758,61.5098014 C147.940756,61.5338016 147.672759,61.5618013 147.416758,61.5938014 C147.208757,61.5938014 146.980759,61.5458019 146.732758,61.4498014 C146.484756,61.353801 146.360758,61.1698028 146.360758,60.8978014 C146.360758,60.801801 146.400757,60.6738022 146.480758,60.5138014 C146.560758,60.3538006 146.736756,60.2338018 147.008758,60.1538014 C147.664761,60.0418009 148.392754,59.9458018 149.192758,59.8658014 C149.240758,59.1137977 149.296757,58.385805 149.360758,57.6818014 C149.424758,56.9777979 149.480757,56.3378043 149.528758,55.7618014 C149.544758,55.5698005 149.600757,55.4018022 149.696758,55.2578014 C149.792758,55.1138007 149.896757,55.0418014 150.008758,55.0418014 C150.280759,55.0258014 150.540756,55.0938007 150.788758,55.2458014 C151.036759,55.3978022 151.160758,55.5698005 151.160758,55.7618014 C151.096757,56.3058042 151.036758,56.921798 150.980758,57.6098014 C150.924757,58.2978049 150.872758,59.0017978 150.824758,59.7218014 C151.144759,59.6898013 151.452756,59.6698015 151.748758,59.6618014 C152.044759,59.6538014 152.328756,59.6418015 152.600758,59.6258014 Z M158.624758,55.4258014 C158.624758,55.8098034 158.620758,56.241799 158.612758,56.7218014 C158.604758,57.2018038 158.604758,57.6977989 158.612758,58.2098014 C158.620758,58.721804 158.628758,59.2497987 158.636758,59.7938014 C158.644758,60.3378042 158.656758,60.857799 158.672758,61.3538014 C158.832758,61.0337998 159.024757,60.717803 159.248758,60.4058014 C159.472759,60.0937999 159.724756,59.8178026 160.004758,59.5778014 C160.284759,59.3378002 160.580756,59.1458022 160.892758,59.0018014 C161.204759,58.8578007 161.544756,58.7858014 161.912758,58.7858014 C162.31276,58.7858014 162.668756,58.9138002 162.980758,59.1698014 C163.292759,59.4258027 163.564756,59.7657993 163.796758,60.1898014 C164.028759,60.6138036 164.224757,61.0857988 164.384758,61.6058014 C164.544758,62.125804 164.676757,62.6537988 164.780758,63.1898014 C164.884758,63.7258041 164.960757,64.237799 165.008758,64.7258014 C165.056758,65.2138039 165.096757,65.6337997 165.128758,65.9858014 C165.128758,66.2418027 165.064758,66.4498006 164.936758,66.6098014 C164.808757,66.7698022 164.656759,66.8498014 164.480758,66.8498014 C164.352757,66.8498014 164.196759,66.7658023 164.012758,66.5978014 C163.828757,66.4298006 163.696758,66.2258026 163.616758,65.9858014 C163.568757,65.7938005 163.520758,65.5138033 163.472758,65.1458014 C163.424757,64.7777996 163.368758,64.3818036 163.304758,63.9578014 C163.240757,63.5337993 163.160758,63.1058036 163.064758,62.6738014 C162.968757,62.2417993 162.852758,61.8538032 162.716758,61.5098014 C162.580757,61.1657997 162.416759,60.8978024 162.224758,60.7058014 C162.032757,60.5138005 161.808759,60.4418012 161.552758,60.4898014 C161.152756,60.5698018 160.804759,60.849799 160.508758,61.3298014 C160.212756,61.8098038 159.956759,62.3537984 159.740758,62.9618014 C159.524757,63.5698045 159.348758,64.1857983 159.212758,64.8098014 C159.076757,65.4338046 158.976758,65.9377995 158.912758,66.3218014 C158.848757,66.6098029 158.764758,66.8058009 158.660758,66.9098014 C158.556757,67.013802 158.440758,67.0658014 158.312758,67.0658014 C158.184757,67.0658014 158.068758,67.0018021 157.964758,66.8738014 C157.860757,66.7458008 157.764758,66.5898024 157.676758,66.4058014 C157.588757,66.2218005 157.512758,66.0298024 157.448758,65.8298014 C157.384757,65.6298004 157.344758,65.4578022 157.328758,65.3138014 C157.248757,64.4497971 157.184758,63.6218054 157.136758,62.8298014 C157.088757,62.0377975 157.052758,61.2418054 157.028758,60.4418014 C157.004758,59.6417974 156.992758,58.8218056 156.992758,57.9818014 C156.992758,57.1417972 157.008757,56.2418062 157.040758,55.2818014 C157.040758,54.4817974 157.328755,54.121801 157.904758,54.2018014 C158.096759,54.2338016 158.264757,54.3738002 158.408758,54.6218014 C158.552758,54.8698027 158.624758,55.1378 158.624758,55.4258014 Z M172.664758,60.4178014 C172.040755,60.7858033 171.368761,61.0698004 170.648758,61.2698014 C169.928754,61.4698024 169.152762,61.5698014 168.320758,61.5698014 C168.352758,62.1298042 168.512756,62.5737998 168.800758,62.9018014 C169.088759,63.2298031 169.448755,63.4258011 169.880758,63.4898014 C170.136759,63.5218016 170.396756,63.5138017 170.660758,63.4658014 C170.924759,63.4178012 171.172756,63.341802 171.404758,63.2378014 C171.636759,63.1338009 171.848757,63.0178021 172.040758,62.8898014 C172.232759,62.7618008 172.400757,62.6338021 172.544758,62.5058014 C172.688758,62.3778008 172.840757,62.2938016 173.000758,62.2538014 C173.160758,62.2138012 173.280757,62.2098013 173.360758,62.2418014 C173.584759,62.3218018 173.664758,62.5617994 173.600758,62.9618014 C173.344756,63.473804 172.97676,63.9097996 172.496758,64.2698014 C172.016755,64.6298032 171.480761,64.857801 170.888758,64.9538014 C170.376755,65.0498019 169.84876,65.0258022 169.304758,64.8818014 C168.760755,64.7378007 168.27276,64.4578035 167.840758,64.0418014 C167.472756,63.6737996 167.192759,63.2418039 167.000758,62.7458014 C166.808757,62.249799 166.688758,61.7378041 166.640758,61.2098014 C166.592757,60.713799 166.636757,60.2418037 166.772758,59.7938014 C166.908758,59.3457992 167.120756,58.9498032 167.408758,58.6058014 C167.696759,58.2617997 168.056755,57.9778026 168.488758,57.7538014 C168.92076,57.5298003 169.424755,57.4018016 170.000758,57.3698014 C170.688761,57.3218012 171.312755,57.4497999 171.872758,57.7538014 C172.43276,58.057803 172.824757,58.4817987 173.048758,59.0258014 C173.176758,59.329803 173.212758,59.5938003 173.156758,59.8178014 C173.100757,60.0418026 172.936759,60.2418006 172.664758,60.4178014 Z M169.904758,58.7858014 C169.744757,58.8178016 169.572759,58.873801 169.388758,58.9538014 C169.204757,59.0338018 169.036758,59.1338008 168.884758,59.2538014 C168.732757,59.373802 168.596758,59.5098007 168.476758,59.6618014 C168.356757,59.8138022 168.288758,59.9858005 168.272758,60.1778014 C168.544759,60.1778014 168.844756,60.1538017 169.172758,60.1058014 C169.500759,60.0578012 169.820756,59.9978018 170.132758,59.9258014 C170.444759,59.8538011 170.732756,59.7698019 170.996758,59.6738014 C171.260759,59.577801 171.480757,59.473802 171.656758,59.3618014 C171.528757,59.0577999 171.292759,58.8698018 170.948758,58.7978014 C170.604756,58.7258011 170.256759,58.7218011 169.904758,58.7858014 Z M189.440758,58.4978014 C189.488758,59.3618058 189.540757,60.233797 189.596758,61.1138014 C189.652758,61.9938058 189.664758,62.8617972 189.632758,63.7178014 C189.600757,64.5738057 189.516758,65.4097974 189.380758,66.2258014 C189.244757,67.0418055 189.016759,67.8217977 188.696758,68.5658014 C188.376756,69.3098052 187.94876,70.0017982 187.412758,70.6418014 C186.876755,71.2818046 186.200762,71.8577989 185.384758,72.3698014 C185.256757,72.4498018 185.116758,72.4978014 184.964758,72.5138014 C184.812757,72.5298015 184.664758,72.5258016 184.520758,72.5018014 C184.376757,72.4778013 184.248758,72.4378017 184.136758,72.3818014 C184.024757,72.3258012 183.952758,72.2498019 183.920758,72.1538014 C183.872757,72.0098007 183.896757,71.8498023 183.992758,71.6738014 C184.088758,71.4978006 184.248757,71.3138024 184.472758,71.1218014 C185.176761,70.5937988 185.768755,70.0338044 186.248758,69.4418014 C186.72876,68.8497985 187.112756,68.2098049 187.400758,67.5218014 C187.688759,66.833798 187.876757,66.0858055 187.964758,65.2778014 C188.052758,64.4697974 188.048758,63.5858062 187.952758,62.6258014 C187.760757,62.8658026 187.536759,63.1138002 187.280758,63.3698014 C187.024756,63.6258027 186.752759,63.8538004 186.464758,64.0538014 C186.176756,64.2538024 185.880759,64.4218008 185.576758,64.5578014 C185.272756,64.6938021 184.984759,64.7618014 184.712758,64.7618014 C184.488757,64.7618014 184.264759,64.7138019 184.040758,64.6178014 C183.816757,64.521801 183.592759,64.3378028 183.368758,64.0658014 C183.112756,63.7297998 182.884759,63.3498036 182.684758,62.9258014 C182.484757,62.5017993 182.312758,62.0898034 182.168758,61.6898014 C182.024757,61.2897994 181.908758,60.929803 181.820758,60.6098014 C181.732757,60.2897998 181.680758,60.0658021 181.664758,59.9378014 C181.632757,59.7778006 181.632757,59.6258022 181.664758,59.4818014 C181.696758,59.3378007 181.800757,59.2498016 181.976758,59.2178014 C182.216759,59.1698012 182.440757,59.185801 182.648758,59.2658014 C182.856759,59.3458018 183.000757,59.4738006 183.080758,59.6498014 C183.144758,59.8258023 183.232757,60.0977996 183.344758,60.4658014 C183.456758,60.8338033 183.592757,61.1977996 183.752758,61.5578014 C183.912758,61.9178032 184.084757,62.2338001 184.268758,62.5058014 C184.452759,62.7778028 184.648757,62.9138014 184.856758,62.9138014 C185.096759,62.9138014 185.380756,62.7938026 185.708758,62.5538014 C186.036759,62.3138002 186.352756,62.0018034 186.656758,61.6178014 C186.960759,61.2337995 187.220757,60.8058038 187.436758,60.3338014 C187.652759,59.8617991 187.760758,59.4018037 187.760758,58.9538014 C187.760758,58.857801 187.776757,58.7458021 187.808758,58.6178014 C187.840758,58.4898008 187.888757,58.365802 187.952758,58.2458014 C188.016758,58.1258008 188.092757,58.0218019 188.180758,57.9338014 C188.268758,57.845801 188.360757,57.7938015 188.456758,57.7778014 C188.712759,57.7458013 188.940757,57.8138006 189.140758,57.9818014 C189.340759,58.1498023 189.440758,58.3218006 189.440758,58.4978014 Z M197.552758,60.4178014 C196.928755,60.7858033 196.256761,61.0698004 195.536758,61.2698014 C194.816754,61.4698024 194.040762,61.5698014 193.208758,61.5698014 C193.240758,62.1298042 193.400756,62.5737998 193.688758,62.9018014 C193.976759,63.2298031 194.336755,63.4258011 194.768758,63.4898014 C195.024759,63.5218016 195.284756,63.5138017 195.548758,63.4658014 C195.812759,63.4178012 196.060756,63.341802 196.292758,63.2378014 C196.524759,63.1338009 196.736757,63.0178021 196.928758,62.8898014 C197.120759,62.7618008 197.288757,62.6338021 197.432758,62.5058014 C197.576758,62.3778008 197.728757,62.2938016 197.888758,62.2538014 C198.048758,62.2138012 198.168757,62.2098013 198.248758,62.2418014 C198.472759,62.3218018 198.552758,62.5617994 198.488758,62.9618014 C198.232756,63.473804 197.86476,63.9097996 197.384758,64.2698014 C196.904755,64.6298032 196.368761,64.857801 195.776758,64.9538014 C195.264755,65.0498019 194.73676,65.0258022 194.192758,64.8818014 C193.648755,64.7378007 193.16076,64.4578035 192.728758,64.0418014 C192.360756,63.6737996 192.080759,63.2418039 191.888758,62.7458014 C191.696757,62.249799 191.576758,61.7378041 191.528758,61.2098014 C191.480757,60.713799 191.524757,60.2418037 191.660758,59.7938014 C191.796758,59.3457992 192.008756,58.9498032 192.296758,58.6058014 C192.584759,58.2617997 192.944755,57.9778026 193.376758,57.7538014 C193.80876,57.5298003 194.312755,57.4018016 194.888758,57.3698014 C195.576761,57.3218012 196.200755,57.4497999 196.760758,57.7538014 C197.32076,58.057803 197.712757,58.4817987 197.936758,59.0258014 C198.064758,59.329803 198.100758,59.5938003 198.044758,59.8178014 C197.988757,60.0418026 197.824759,60.2418006 197.552758,60.4178014 Z M194.792758,58.7858014 C194.632757,58.8178016 194.460759,58.873801 194.276758,58.9538014 C194.092757,59.0338018 193.924758,59.1338008 193.772758,59.2538014 C193.620757,59.373802 193.484758,59.5098007 193.364758,59.6618014 C193.244757,59.8138022 193.176758,59.9858005 193.160758,60.1778014 C193.432759,60.1778014 193.732756,60.1538017 194.060758,60.1058014 C194.388759,60.0578012 194.708756,59.9978018 195.020758,59.9258014 C195.332759,59.8538011 195.620756,59.7698019 195.884758,59.6738014 C196.148759,59.577801 196.368757,59.473802 196.544758,59.3618014 C196.416757,59.0577999 196.180759,58.8698018 195.836758,58.7978014 C195.492756,58.7258011 195.144759,58.7218011 194.792758,58.7858014 Z M206.168758,57.1778014 C206.232758,57.6258037 206.284757,58.1017989 206.324758,58.6058014 C206.364758,59.109804 206.396758,59.6177989 206.420758,60.1298014 C206.444758,60.641804 206.456758,61.137799 206.456758,61.6178014 C206.456758,62.0978038 206.448758,62.5297995 206.432758,62.9138014 C206.94476,63.2658032 207.252757,63.5778001 207.356758,63.8498014 C207.460758,64.1218028 207.472758,64.3618004 207.392758,64.5698014 C207.296757,64.8578029 207.124759,65.0058014 206.876758,65.0138014 C206.628756,65.0218015 206.344759,64.9378023 206.024758,64.7618014 C205.800757,64.9218022 205.544759,65.0938005 205.256758,65.2778014 C204.968756,65.4618024 204.664759,65.6378006 204.344758,65.8058014 C204.024756,65.9738023 203.704759,66.1218008 203.384758,66.2498014 C203.064756,66.3778021 202.768759,66.4658012 202.496758,66.5138014 C201.984755,66.5938018 201.52476,66.4978028 201.116758,66.2258014 C200.708756,65.9538001 200.432758,65.5458042 200.288758,65.0018014 C200.192757,64.6337996 200.168757,64.2538034 200.216758,63.8618014 C200.264758,63.4697995 200.384757,63.0938032 200.576758,62.7338014 C200.768759,62.3737996 201.028756,62.0498029 201.356758,61.7618014 C201.684759,61.4738 202.072755,61.2498022 202.520758,61.0898014 C202.632758,61.0418012 202.788757,61.0018016 202.988758,60.9698014 C203.188759,60.9378013 203.396757,60.9258014 203.612758,60.9338014 C203.828759,60.9418015 204.048757,60.985801 204.272758,61.0658014 C204.496759,61.1458018 204.704757,61.2818005 204.896758,61.4738014 C204.896758,61.2018001 204.892758,60.9018031 204.884758,60.5738014 C204.876758,60.2457998 204.864758,59.9138031 204.848758,59.5778014 C204.832758,59.2417998 204.812758,58.9258029 204.788758,58.6298014 C204.764758,58.3338 204.736758,58.0818025 204.704758,57.8738014 C204.672757,57.6338002 204.580758,57.4858017 204.428758,57.4298014 C204.276757,57.3738012 204.088759,57.385801 203.864758,57.4658014 C203.480756,57.5938021 203.03276,57.8417996 202.520758,58.2098014 C202.008755,58.5778033 201.52076,58.9697994 201.056758,59.3858014 C200.912757,59.5298022 200.748759,59.5938015 200.564758,59.5778014 C200.380757,59.5618014 200.224758,59.4898021 200.096758,59.3618014 C199.968757,59.2338008 199.896758,59.0858023 199.880758,58.9178014 C199.864758,58.7498006 199.928757,58.5698024 200.072758,58.3778014 C200.344759,58.0898 200.648756,57.793803 200.984758,57.4898014 C201.320759,57.1857999 201.672756,56.9098027 202.040758,56.6618014 C202.408759,56.4138002 202.784756,56.2098022 203.168758,56.0498014 C203.55276,55.8898006 203.936756,55.8018015 204.320758,55.7858014 C204.88076,55.7698014 205.312756,55.8938001 205.616758,56.1578014 C205.920759,56.4218028 206.104757,56.7617994 206.168758,57.1778014 Z M203.384758,62.3378014 C203.176757,62.3858017 202.956759,62.4858007 202.724758,62.6378014 C202.492756,62.7898022 202.284759,62.9738004 202.100758,63.1898014 C201.916757,63.4058025 201.780758,63.6458001 201.692758,63.9098014 C201.604757,64.1738028 201.600757,64.4338002 201.680758,64.6898014 C201.712758,64.7858019 201.780757,64.8578012 201.884758,64.9058014 C201.988758,64.9538017 202.104757,64.9618016 202.232758,64.9298014 C202.61676,64.849801 203.052755,64.6938026 203.540758,64.4618014 C204.02876,64.2298003 204.416756,63.9778028 204.704758,63.7058014 C204.704758,63.609801 204.656758,63.4858022 204.560758,63.3338014 C204.464757,63.1818007 204.352758,63.0298022 204.224758,62.8778014 C204.096757,62.7258007 203.956758,62.593802 203.804758,62.4818014 C203.652757,62.3698009 203.512758,62.3218014 203.384758,62.3378014 Z M215.960758,57.7778014 C215.672756,57.9378022 215.372759,58.1058006 215.060758,58.2818014 C214.748756,58.4578023 214.436759,58.6618003 214.124758,58.8938014 C213.812756,59.1258026 213.516759,59.3977999 213.236758,59.7098014 C212.956756,60.021803 212.704759,60.3937993 212.480758,60.8258014 C212.160756,61.4338045 211.944758,62.0537983 211.832758,62.6858014 C211.720757,63.3178046 211.648758,63.9377984 211.616758,64.5458014 C211.616758,64.8338029 211.548758,65.1258 211.412758,65.4218014 C211.276757,65.7178029 211.088759,65.8658014 210.848758,65.8658014 C210.544756,65.8658014 210.300759,65.709803 210.116758,65.3978014 C209.932757,65.0857999 209.808758,64.7858029 209.744758,64.4978014 C209.472756,63.3617958 209.248759,62.237807 209.072758,61.1258014 C208.896757,60.0137959 208.744758,58.905807 208.616758,57.8018014 C208.616758,57.5778003 208.684757,57.4338018 208.820758,57.3698014 C208.956758,57.3058011 209.112757,57.2818014 209.288758,57.2978014 C209.480759,57.3138015 209.664757,57.361801 209.840758,57.4418014 C210.016759,57.5218018 210.120757,57.6498006 210.152758,57.8258014 C210.216758,58.4178044 210.296757,59.0377982 210.392758,59.6858014 C210.488758,60.3338047 210.584757,60.8897991 210.680758,61.3538014 C210.744758,60.8097987 210.920756,60.281804 211.208758,59.7698014 C211.496759,59.2577989 211.852756,58.7938035 212.276758,58.3778014 C212.70076,57.9617994 213.180755,57.6098029 213.716758,57.3218014 C214.25276,57.0338 214.800755,56.8418019 215.360758,56.7458014 C215.600759,56.7138013 215.800757,56.7138013 215.960758,56.7458014 C216.120758,56.7778016 216.232757,56.833801 216.296758,56.9138014 C216.360758,56.9938018 216.372758,57.1218006 216.332758,57.2978014 C216.292757,57.4738023 216.168759,57.6338007 215.960758,57.7778014 Z" fill="#25262A" transform="translate(109.286296, 48.145916) rotate(-4.000000) translate(-109.286296, -48.145916) "></path>
                <g transform="translate(244.558459, 32.595400) scale(-1, 1) rotate(72.000000) translate(-244.558459, -32.595400) translate(219.058459, 5.595400)" stroke-width="2" stroke="#25262A">
                    <path d="M12.8271879,49.9827919 C12.8271879,49.9827919 40.6874336,42.1852216 39.1330569,3.78044118" transform="translate(26.011474, 26.881617) rotate(36.000000) translate(-26.011474, -26.881617) "></path>
                    <path d="M4.13337248,44.253426 C4.13337248,44.253426 3.57420151,40.6159544 3.41518024,39.8841341 C3.25615898,39.1523138 1.52313114,35.3020445 1.52313114,35.3020445 C1.52313114,35.3020445 4.21611077,35.7384882 6.60830224,35.496338 C9.0004937,35.2541879 11.8727323,35.3633395 11.8727323,35.3633395" transform="translate(6.697932, 39.777735) rotate(-19.000000) translate(-6.697932, -39.777735) "></path>
                </g>
            </g>
        </g>
    </g>
</svg>