<?xml version="1.0" encoding="UTF-8"?>
<svg width="55px" height="44px" viewBox="0 0 55 44" version="1.1" xmlns="http://www.w3.org/2000/svg" xmlns:xlink="http://www.w3.org/1999/xlink">
    <!-- Generator: Sketch 47.1 (45422) - http://www.bohemiancoding.com/sketch -->
    <title>Artboard 7</title>
    <desc>Created with Sketch.</desc>
    <defs></defs>
    <g stroke="none" stroke-width="1" fill="none" fill-rule="evenodd">
        <g>
            <g transform="translate(30.477747, 7.357443) rotate(-7.000000) translate(-30.477747, -7.357443) translate(-10.022253, -3.142557)" fill="#25262A">
                <path d="M15.534,7.082 C15.4859998,7.1420003 15.3990006,7.18699985 15.273,7.217 C15.1469994,7.24700015 15.0180007,7.21400048 14.886,7.118 C14.7899995,7.04599964 14.6760007,6.97100039 14.544,6.893 C14.4119993,6.81499961 14.2680008,6.74000036 14.112,6.668 C13.9559992,6.59599964 13.8000008,6.53600024 13.644,6.488 C13.4879992,6.43999976 13.3380007,6.416 13.194,6.416 C13.0139991,6.416 12.825001,6.45799958 12.627,6.542 C12.428999,6.62600042 12.2580007,6.74599922 12.114,6.902 C11.8379986,7.2020015 11.7389996,7.49299859 11.817,7.775 C11.8950004,8.05700141 12.1019983,8.3179988 12.438,8.558 C12.6540011,8.71400078 12.8879987,8.87299919 13.14,9.035 C13.3920013,9.19700081 13.6409988,9.35599922 13.887,9.512 C14.1330012,9.66800078 14.3669989,9.81799928 14.589,9.962 C14.8110011,10.1060007 15.0059992,10.2319995 15.174,10.34 C15.3900011,10.4840007 15.593999,10.6399992 15.786,10.808 C15.978001,10.9760008 16.1459993,11.1649989 16.29,11.375 C16.4340007,11.585001 16.5479996,11.8219987 16.632,12.086 C16.7160004,12.3500013 16.758,12.6499983 16.758,12.986 C16.6739996,13.6460033 16.4130022,14.170998 15.975,14.561 C15.5369978,14.9510019 15.0300029,15.1999995 14.454,15.308 C13.9499975,15.4040005 13.4550024,15.3860007 12.969,15.254 C12.4829976,15.1219993 12.0720017,14.8700019 11.736,14.498 C11.6519996,14.4019995 11.5800003,14.2700008 11.52,14.102 C11.4599997,13.9339992 11.4539998,13.8140004 11.502,13.742 C11.5740004,13.6339995 11.6999991,13.5590002 11.88,13.517 C12.0600009,13.4749998 12.1979995,13.4839997 12.294,13.544 C12.5700014,13.7960013 12.8939981,13.9789994 13.266,14.093 C13.6380019,14.2070006 14.027998,14.2160005 14.436,14.12 C14.7480016,14.0479996 14.999999,13.913001 15.192,13.715 C15.384001,13.516999 15.5039998,13.2920013 15.552,13.04 C15.6120003,12.7759987 15.5790006,12.5030014 15.453,12.221 C15.3269994,11.9389986 15.1020016,11.6840011 14.778,11.456 C14.2859975,11.0839981 13.7610028,10.7360016 13.203,10.412 C12.6449972,10.0879984 12.0780029,9.7160021 11.502,9.296 C11.2259986,9.0559988 11.0250006,8.79200144 10.899,8.504 C10.7729994,8.21599856 10.71,7.93400138 10.71,7.658 C10.71,7.36999856 10.7699994,7.09700129 10.89,6.839 C11.0100006,6.58099871 11.1779989,6.34700105 11.394,6.137 C11.6100011,5.92699895 11.8619986,5.75600066 12.15,5.624 C12.4380014,5.49199934 12.7559983,5.41400012 13.104,5.39 C13.5840024,5.36599988 14.0459978,5.46499889 14.49,5.687 C14.9340022,5.90900111 15.2939986,6.18199838 15.57,6.506 C15.6300003,6.57800036 15.657,6.66799946 15.651,6.776 C15.645,6.88400054 15.6060004,6.98599952 15.534,7.082 Z M22.5,8.09 C22.5480002,8.42600168 22.5869999,8.78299811 22.617,9.161 C22.6470002,9.53900189 22.6709999,9.91999808 22.689,10.304 C22.7070001,10.6880019 22.716,11.0599982 22.716,11.42 C22.716,11.7800018 22.7100001,12.1039986 22.698,12.392 C23.0820019,12.6560013 23.3129996,12.889999 23.391,13.094 C23.4690004,13.298001 23.4780003,13.4779992 23.418,13.634 C23.3459996,13.8500011 23.2170009,13.961 23.031,13.967 C22.8449991,13.973 22.6320012,13.9100007 22.392,13.778 C22.2239992,13.8980006 22.0320011,14.0269993 21.816,14.165 C21.5999989,14.3030007 21.3720012,14.4349994 21.132,14.561 C20.8919988,14.6870006 20.6520012,14.7979995 20.412,14.894 C20.1719988,14.9900005 19.950001,15.0559998 19.746,15.092 C19.3619981,15.1520003 19.0170015,15.080001 18.711,14.876 C18.4049985,14.671999 18.1980005,14.366002 18.09,13.958 C18.0179996,13.6819986 17.9999998,13.3970015 18.036,13.103 C18.0720002,12.8089985 18.1619993,12.5270013 18.306,12.257 C18.4500007,11.9869986 18.6449988,11.7440011 18.891,11.528 C19.1370012,11.3119989 19.4279983,11.1440006 19.764,11.024 C19.8480004,10.9879998 19.9649993,10.9580001 20.115,10.934 C20.2650008,10.9099999 20.4209992,10.901 20.583,10.907 C20.7450008,10.913 20.9099992,10.9459997 21.078,11.006 C21.2460008,11.0660003 21.4019993,11.1679993 21.546,11.312 C21.546,11.107999 21.543,10.8830012 21.537,10.637 C21.531,10.3909988 21.5220001,10.1420013 21.51,9.89 C21.4979999,9.63799874 21.4830001,9.40100111 21.465,9.179 C21.4469999,8.95699889 21.4260001,8.76800078 21.402,8.612 C21.3779999,8.4319991 21.3090006,8.32100021 21.195,8.279 C21.0809994,8.23699979 20.9400008,8.2459997 20.772,8.306 C20.4839986,8.40200048 20.1480019,8.58799862 19.764,8.864 C19.3799981,9.14000138 19.0140017,9.43399844 18.666,9.746 C18.5579995,9.85400054 18.4350007,9.90200006 18.297,9.89 C18.1589993,9.87799994 18.0420005,9.82400048 17.946,9.728 C17.8499995,9.63199952 17.7960001,9.52100063 17.784,9.395 C17.7719999,9.26899937 17.8199995,9.13400072 17.928,8.99 C18.132001,8.77399892 18.3599987,8.55200114 18.612,8.324 C18.8640013,8.09599886 19.1279986,7.88900093 19.404,7.703 C19.6800014,7.51699907 19.9619986,7.3640006 20.25,7.244 C20.5380014,7.1239994 20.8259986,7.05800006 21.114,7.046 C21.5340021,7.03399994 21.8579989,7.12699901 22.086,7.325 C22.3140011,7.52300099 22.4519998,7.77799844 22.5,8.09 Z M20.412,11.96 C20.2559992,11.9960002 20.0910009,12.0709994 19.917,12.185 C19.7429991,12.2990006 19.5870007,12.4369992 19.449,12.599 C19.3109993,12.7610008 19.2090003,12.940999 19.143,13.139 C19.0769997,13.337001 19.0739997,13.531999 19.134,13.724 C19.1580001,13.7960004 19.2089996,13.8499998 19.287,13.886 C19.3650004,13.9220002 19.4519995,13.9280001 19.548,13.904 C19.8360014,13.8439997 20.1629982,13.7270009 20.529,13.553 C20.8950018,13.3789991 21.1859989,13.190001 21.402,12.986 C21.402,12.9139996 21.3660004,12.8210006 21.294,12.707 C21.2219996,12.5929994 21.1380005,12.4790006 21.042,12.365 C20.9459995,12.2509994 20.8410006,12.1520004 20.727,12.068 C20.6129994,11.9839996 20.5080005,11.9479999 20.412,11.96 Z M30.528,8.216 C30.335999,8.54000162 30.144001,8.85799844 29.952,9.17 C29.759999,9.48200156 29.5530011,9.83899799 29.331,10.241 C29.1089989,10.643002 28.8540014,11.1079974 28.566,11.636 C28.2779986,12.1640026 27.9420019,12.8059962 27.558,13.562 C27.4619995,13.7420009 27.3660005,13.8859995 27.27,13.994 C27.1739995,14.1020005 27.0600007,14.156 26.928,14.156 C26.7479991,14.156 26.6070005,14.1050005 26.505,14.003 C26.4029995,13.9009995 26.3160004,13.7900006 26.244,13.67 C25.847998,13.0099967 25.4580019,12.278004 25.074,11.474 C24.6899981,10.669996 24.3780012,9.88400384 24.138,9.116 C24.1139999,9.0559997 24.1169999,8.98700039 24.147,8.909 C24.1770002,8.83099961 24.2219997,8.78000012 24.282,8.756 C24.4020006,8.6959997 24.557999,8.68999976 24.75,8.738 C24.8940007,8.7980003 25.0379993,8.90599922 25.182,9.062 C25.3260007,9.21800078 25.4399996,9.37999916 25.524,9.548 C25.5960004,9.71600084 25.6799995,9.90799892 25.776,10.124 C25.8720005,10.3400011 25.9769994,10.5709988 26.091,10.817 C26.2050006,11.0630012 26.3219994,11.3059988 26.442,11.546 C26.5620006,11.7860012 26.6819994,12.001999 26.802,12.194 C27.006001,11.8339982 27.2249988,11.4470021 27.459,11.033 C27.6930012,10.6189979 27.9299988,10.1990021 28.17,9.773 C28.4100012,9.34699787 28.6529988,8.93600198 28.899,8.54 C29.1450012,8.14399802 29.3879988,7.79000156 29.628,7.478 C29.6880003,7.39399958 29.7719995,7.34600006 29.88,7.334 C29.9880005,7.32199994 30.1079993,7.36399952 30.24,7.46 C30.5400015,7.68800114 30.6360005,7.93999862 30.528,8.216 Z M36.09,10.52 C35.6219977,10.7960014 35.1180027,11.0089992 34.578,11.159 C34.0379973,11.3090007 33.4560031,11.384 32.832,11.384 C32.8560001,11.8040021 32.9759989,12.1369988 33.192,12.383 C33.4080011,12.6290012 33.6779984,12.7759998 34.002,12.824 C34.194001,12.8480001 34.388999,12.8420002 34.587,12.806 C34.785001,12.7699998 34.9709991,12.7130004 35.145,12.635 C35.3190009,12.5569996 35.4779993,12.4700005 35.622,12.374 C35.7660007,12.2779995 35.8919995,12.1820005 36,12.086 C36.1080005,11.9899995 36.2219994,11.9270001 36.342,11.897 C36.4620006,11.8669998 36.5519997,11.8639999 36.612,11.888 C36.7800008,11.9480003 36.8400002,12.1279985 36.792,12.428 C36.599999,12.8120019 36.3240018,13.1389986 35.964,13.409 C35.6039982,13.6790013 35.2020022,13.8499996 34.758,13.922 C34.3739981,13.9940004 33.978002,13.9760005 33.57,13.868 C33.161998,13.7599995 32.7960016,13.5500016 32.472,13.238 C32.1959986,12.9619986 31.9860007,12.6380019 31.842,12.266 C31.6979993,11.8939981 31.6080002,11.510002 31.572,11.114 C31.5359998,10.7419981 31.5689995,10.3880017 31.671,10.052 C31.7730005,9.71599832 31.9319989,9.41900129 32.148,9.161 C32.3640011,8.90299871 32.6339984,8.69000084 32.958,8.522 C33.2820016,8.35399916 33.6599978,8.25800012 34.092,8.234 C34.6080026,8.19799982 35.0759979,8.29399886 35.496,8.522 C35.9160021,8.75000114 36.2099992,9.06799796 36.378,9.476 C36.4740005,9.70400114 36.5010002,9.90199916 36.459,10.07 C36.4169998,10.2380008 36.294001,10.3879993 36.09,10.52 Z M34.02,9.296 C33.8999994,9.32000012 33.7710007,9.3619997 33.633,9.422 C33.4949993,9.4820003 33.3690006,9.55699955 33.255,9.647 C33.1409994,9.73700045 33.0390005,9.83899943 32.949,9.953 C32.8589996,10.0670006 32.8080001,10.1959993 32.796,10.34 C33.000001,10.34 33.2249988,10.3220002 33.471,10.286 C33.7170012,10.2499998 33.9569988,10.2050003 34.191,10.151 C34.4250012,10.0969997 34.640999,10.0340004 34.839,9.962 C35.037001,9.88999964 35.2019993,9.81200042 35.334,9.728 C35.2379995,9.49999886 35.0610013,9.35900027 34.803,9.305 C34.5449987,9.25099973 34.2840013,9.24799976 34.02,9.296 Z M46.62,5.426 C46.4399991,5.6660012 46.2390011,5.97799808 46.017,6.362 C45.7949989,6.74600192 45.5790011,7.1779976 45.369,7.658 C45.158999,8.1380024 44.9640009,8.6479973 44.784,9.188 C44.6039991,9.7280027 44.4690005,10.2649973 44.379,10.799 C44.2889996,11.3330027 44.2529999,11.8489975 44.271,12.347 C44.2890001,12.8450025 44.3879991,13.291998 44.568,13.688 C44.5800001,13.7360002 44.6099998,13.76 44.658,13.76 C44.850001,13.6879996 45.044999,13.5410011 45.243,13.319 C45.441001,13.0969989 45.6119993,12.8450014 45.756,12.563 C45.9000007,12.2809986 46.0079996,11.9930015 46.08,11.699 C46.1520004,11.4049985 46.1640002,11.156001 46.116,10.952 C46.0919999,10.8439995 46.0110007,10.7690002 45.873,10.727 C45.7349993,10.6849998 45.5940007,10.6430002 45.45,10.601 C45.3059993,10.5589998 45.1860005,10.5080003 45.09,10.448 C44.9939995,10.3879997 44.9819996,10.2860007 45.054,10.142 C45.0780001,10.1179999 45.1199997,10.0850002 45.18,10.043 C45.2400003,10.0009998 45.3179995,9.96200018 45.414,9.926 C45.5100005,9.88999982 45.6179994,9.86600006 45.738,9.854 C45.8580006,9.84199994 45.9899993,9.84799988 46.134,9.872 C46.3020008,9.89600012 46.4639992,9.9679994 46.62,10.088 C46.7760008,10.2080006 46.8839997,10.4059986 46.944,10.682 C47.0400005,11.0660019 47.0580003,11.455998 46.998,11.852 C46.9379997,12.248002 46.8180009,12.6259982 46.638,12.986 C46.4579991,13.3460018 46.2300014,13.6789985 45.954,13.985 C45.6779986,14.2910015 45.3780016,14.539999 45.054,14.732 C44.9099993,14.8160004 44.7600008,14.858 44.604,14.858 C44.2439982,14.7859996 43.9590011,14.6180013 43.749,14.354 C43.538999,14.0899987 43.3860005,13.7870017 43.29,13.445 C43.1939995,13.1029983 43.143,12.7430019 43.137,12.365 C43.131,11.9869981 43.1399999,11.6480015 43.164,11.348 C43.2600005,10.1599941 43.5449976,9.00500561 44.019,7.883 C44.4930024,6.76099439 45.1079962,5.71400486 45.864,4.742 C45.9600005,4.60999934 46.0679994,4.53500009 46.188,4.517 C46.3080006,4.49899991 46.4159995,4.52599964 46.512,4.598 C46.5960004,4.6580003 46.6619998,4.76299925 46.71,4.913 C46.7580002,5.06300075 46.7280005,5.23399904 46.62,5.426 Z M53.496,9.458 C53.496,9.73400138 53.4510005,10.072998 53.361,10.475 C53.2709996,10.877002 53.124001,11.281998 52.92,11.69 C52.715999,12.098002 52.4490017,12.4819982 52.119,12.842 C51.7889984,13.2020018 51.3840024,13.477999 50.904,13.67 C50.6039985,13.8020007 50.3070015,13.871 50.013,13.877 C49.7189985,13.883 49.4550012,13.8260006 49.221,13.706 C48.9869988,13.5859994 48.7920008,13.4030012 48.636,13.157 C48.4799992,12.9109988 48.3840002,12.590002 48.348,12.194 C48.3119998,11.7259977 48.3509994,11.2550024 48.465,10.781 C48.5790006,10.3069976 48.7589988,9.86300207 49.005,9.449 C49.2510012,9.03499793 49.5479983,8.66600162 49.896,8.342 C50.2440017,8.01799838 50.6339978,7.76000096 51.066,7.568 C51.1620005,7.51999976 51.2549996,7.52299973 51.345,7.577 C51.4350005,7.63100027 51.4919999,7.74199916 51.516,7.91 C52.1400031,7.9700003 52.6259983,8.13499865 52.974,8.405 C53.3220017,8.67500135 53.496,9.02599784 53.496,9.458 Z M49.572,12.158 C49.5960001,12.3260008 49.6439996,12.4459996 49.716,12.518 C49.7880004,12.5900004 49.8719995,12.6379999 49.968,12.662 C50.0640005,12.6740001 50.1719994,12.6620002 50.292,12.626 C50.4120006,12.5899998 50.5289994,12.5450003 50.643,12.491 C50.7570006,12.4369997 50.8619995,12.3770003 50.958,12.311 C51.0540005,12.2449997 51.1319997,12.1820003 51.192,12.122 C51.5280017,11.8099984 51.797999,11.4290022 52.002,10.979 C52.206001,10.5289977 52.3319998,10.0340027 52.38,9.494 C52.38,9.42199964 52.3320005,9.35000036 52.236,9.278 C52.1399995,9.20599964 52.0170008,9.14900021 51.867,9.107 C51.7169993,9.06499979 51.5520009,9.03200012 51.372,9.008 C51.1919991,8.98399988 51.0180008,8.97799994 50.85,8.99 C50.6699991,9.19400102 50.4960008,9.4159988 50.328,9.656 C50.1599992,9.8960012 50.0160006,10.1509986 49.896,10.421 C49.7759994,10.6910013 49.6860003,10.9729985 49.626,11.267 C49.5659997,11.5610015 49.5479999,11.8579985 49.572,12.158 Z M57.744,8.414 C57.7319999,8.79800192 57.6990003,9.17299817 57.645,9.539 C57.5909997,9.90500183 57.4980007,10.2439984 57.366,10.556 C57.2939996,10.7240008 57.1980006,10.8979991 57.078,11.078 C56.9579994,11.2580009 56.8170008,11.4199993 56.655,11.564 C56.4929992,11.7080007 56.316001,11.8189996 56.124,11.897 C55.931999,11.9750004 55.734001,11.9840003 55.53,11.924 C55.3499991,11.8759998 55.2030006,11.7890006 55.089,11.663 C54.9749994,11.5369994 54.8850003,11.3960008 54.819,11.24 C54.7529997,11.0839992 54.7080001,10.9220008 54.684,10.754 C54.6599999,10.5859992 54.6599999,10.4300007 54.684,10.286 C54.7080001,10.0339987 54.7739995,9.77300135 54.882,9.503 C54.9900005,9.23299865 55.1279992,8.97200126 55.296,8.72 C55.4640008,8.46799874 55.6559989,8.23700105 55.872,8.027 C56.0880011,7.81699895 56.3159988,7.64600066 56.556,7.514 C56.6880007,7.4539997 56.8259993,7.40600018 56.97,7.37 C57.1140007,7.33399982 57.2399995,7.3459997 57.348,7.406 C57.4080003,7.44200018 57.4439999,7.50799952 57.456,7.604 C57.4680001,7.70000048 57.4320004,7.78399964 57.348,7.856 L57.24,7.964 L57.312,7.964 C57.4320006,7.97600006 57.5339996,8.02399958 57.618,8.108 C57.7020004,8.19200042 57.744,8.2939994 57.744,8.414 Z M61.704,6.776 C61.1519972,7.88000552 60.6480023,9.07099361 60.192,10.349 C59.7359977,11.6270064 59.310002,12.8719939 58.914,14.084 C58.8539997,14.2160007 58.7670006,14.3119997 58.653,14.372 C58.5389994,14.4320003 58.4400004,14.4320003 58.356,14.372 C58.2719996,14.2999996 58.2120002,14.2070006 58.176,14.093 C58.1399998,13.9789994 58.1160001,13.8560007 58.104,13.724 C58.0919999,13.5919993 58.0919999,13.4600007 58.104,13.328 C58.1160001,13.1959993 58.1339999,13.0820005 58.158,12.986 C58.4700016,11.8219942 58.8449978,10.6790056 59.283,9.557 C59.7210022,8.43499439 60.2459969,7.31600558 60.858,6.2 C60.9180003,6.0799994 61.0019995,5.99900021 61.11,5.957 C61.2180005,5.91499979 61.3199995,5.91199982 61.416,5.948 C61.5600007,6.0080003 61.6709996,6.10999928 61.749,6.254 C61.8270004,6.39800072 61.8120005,6.57199898 61.704,6.776 Z M64.26,10.736 C64.5000012,11.1920023 64.617,11.5939983 64.611,11.942 C64.605,12.2900017 64.5270008,12.5959987 64.377,12.86 C64.2269993,13.1240013 64.0290012,13.3459991 63.783,13.526 C63.5369988,13.7060009 63.2940012,13.8499995 63.054,13.958 C62.4779971,14.2100013 62.0370015,14.240001 61.731,14.048 C61.4249985,13.855999 61.2839999,13.4960026 61.308,12.968 C61.3200001,12.7159987 61.3979993,12.4310016 61.542,12.113 C61.6860007,11.7949984 61.8689989,11.4980014 62.091,11.222 C62.3130011,10.9459986 62.5529987,10.712001 62.811,10.52 C63.0690013,10.327999 63.3239987,10.232 63.576,10.232 C63.7080007,10.232 63.8279995,10.2649997 63.936,10.331 C64.0440005,10.3970003 64.1519995,10.531999 64.26,10.736 Z M62.352,12.986 C62.3640001,13.0460003 62.4239995,13.0640001 62.532,13.04 C62.6400005,13.0159999 62.7629993,12.9620004 62.901,12.878 C63.0390007,12.7939996 63.1739993,12.6890006 63.306,12.563 C63.4380007,12.4369994 63.5339997,12.2960008 63.594,12.14 C63.6060001,12.1039998 63.6060001,12.0440004 63.594,11.96 C63.5819999,11.8759996 63.5640001,11.7950004 63.54,11.717 C63.5159999,11.6389996 63.4860002,11.5670003 63.45,11.501 C63.4139998,11.4349997 63.3780002,11.402 63.342,11.402 C63.2219994,11.3899999 63.0990006,11.4499993 62.973,11.582 C62.8469994,11.7140007 62.7360005,11.8729991 62.64,12.059 C62.5439995,12.2450009 62.4660003,12.4279991 62.406,12.608 C62.3459997,12.7880009 62.3279999,12.9139996 62.352,12.986 Z M55.728,10.322 C55.7159999,10.4060004 55.7249999,10.4899996 55.755,10.574 C55.7850002,10.6580004 55.8419996,10.7 55.926,10.7 C56.0940008,10.7 56.2289995,10.5920011 56.331,10.376 C56.4330005,10.1599989 56.5139997,9.95000102 56.574,9.746 C56.6220002,9.5659991 56.6549999,9.38000096 56.673,9.188 C56.6910001,8.99599904 56.7119999,8.7800012 56.736,8.54 C56.4959988,8.8400015 56.274001,9.14599844 56.07,9.458 C55.865999,9.77000156 55.7520001,10.0579987 55.728,10.322 Z"></path>
            </g>
            <g transform="translate(16.429680, 29.620707) rotate(-12.000000) translate(-16.429680, -29.620707) translate(0.429680, 13.120707)" stroke-width="2" stroke="#FFD001">
                <path d="M7.93276872,30.9110564 C7.93276872,30.9110564 25.1624911,26.0887741 24.2012117,2.33795325" transform="translate(16.086379, 16.624505) rotate(36.000000) translate(-16.086379, -16.624505) "></path>
                <path d="M2.55621795,27.3678219 C2.55621795,27.3678219 2.21040763,25.1182859 2.11206347,24.6657034 C2.01371932,24.2131208 0.941956036,21.8319835 0.941956036,21.8319835 C0.941956036,21.8319835 2.60738612,22.1018951 4.08679858,21.9521412 C5.56621104,21.8023874 7.34250094,21.8698904 7.34250094,21.8698904" transform="translate(4.142228, 24.599903) rotate(-19.000000) translate(-4.142228, -24.599903) "></path>
            </g>
        </g>
    </g>
</svg>