<?xml version="1.0" encoding="UTF-8"?>
<svg width="263px" height="87px" viewBox="0 0 263 87" version="1.1" xmlns="http://www.w3.org/2000/svg" xmlns:xlink="http://www.w3.org/1999/xlink">
    <!-- Generator: Sketch 47.1 (45422) - http://www.bohemiancoding.com/sketch -->
    <title>Artboard 17</title>
    <desc>Created with Sketch.</desc>
    <defs></defs>
    <g stroke="none" stroke-width="1" fill="none" fill-rule="evenodd">
        <g>
            <g transform="translate(-3.000000, -10.000000)">
                <g transform="translate(111.196248, 64.558272) rotate(-4.000000) translate(-111.196248, -64.558272) translate(2.196248, 31.058272)" fill="#000000">
                    <path d="M5.77245828,22.9992347 C5.79379172,23.0845685 5.80445828,23.2072339 5.80445828,23.3672347 C5.80445828,23.5272355 5.7724586,23.6872339 5.70845828,23.8472347 C5.64445796,24.0072355 5.5537922,24.1459008 5.43645828,24.2632347 C5.31912436,24.3805686 5.15379268,24.4392347 4.94045828,24.4392347 C4.4711226,24.1405665 4.07645988,23.7459038 3.75645828,23.2552347 C3.58579076,22.6152315 3.43112564,21.8792389 3.29245828,21.0472347 C3.15379092,20.2152305 3.04179204,19.3459059 2.95645828,18.4392347 C2.87112452,17.5325635 2.81245844,16.6099061 2.78045828,15.6712347 C2.74845812,14.7325633 2.74312484,13.8259057 2.76445828,12.9512347 C2.76445828,12.8019006 2.78045812,12.6099025 2.81245828,12.3752347 C2.84445844,12.1405669 2.90312452,11.9112358 2.98845828,11.6872347 C3.07379204,11.4632336 3.18045764,11.2712355 3.30845828,11.1112347 C3.43645892,10.9512339 3.61779044,10.8712347 3.85245828,10.8712347 C4.129793,10.8712347 4.35379076,10.9565672 4.52445828,11.1272347 C4.6951258,11.2979022 4.78045828,11.5752328 4.78045828,11.9592347 C4.75912484,12.8125723 4.76445812,13.7245632 4.79645828,14.6952347 C4.82845844,15.6659062 4.88712452,16.6418965 4.97245828,17.6232347 C5.05779204,18.6045729 5.16979092,19.5592301 5.30845828,20.4872347 C5.44712564,21.4152393 5.60179076,22.2525643 5.77245828,22.9992347 Z M10.7324583,15.3832347 C10.7537917,15.7245697 10.7911247,16.1458989 10.8444583,16.6472347 C10.8977919,17.1485705 10.956458,17.671232 11.0204583,18.2152347 C11.0844586,18.7592374 11.1537912,19.2978987 11.2284583,19.8312347 C11.3031253,20.3645707 11.372458,20.8552325 11.4364583,21.3032347 L12.3004583,19.5752347 C12.6417933,18.8925646 12.9991231,18.2365712 13.3724583,17.6072347 C13.7457935,16.9778982 14.1297896,16.4445702 14.5244583,16.0072347 C14.9191269,15.5698992 15.2764567,15.3512347 15.5964583,15.3512347 C15.9377933,15.3512347 16.2524568,15.5165664 16.5404583,15.8472347 C16.8284597,16.177903 17.0791239,16.577899 17.2924583,17.0472347 C17.5057927,17.5165704 17.6924575,18.0178987 17.8524583,18.5512347 C18.0124591,19.0845707 18.1457911,19.5538993 18.2524583,19.9592347 C18.337792,19.6819 18.4497909,19.3672365 18.5884583,19.0152347 C18.7271256,18.6632329 18.8764575,18.3005699 19.0364583,17.9272347 C19.1964591,17.5538995 19.3777906,17.1859032 19.5804583,16.8232347 C19.783126,16.4605662 20.0017904,16.1405694 20.2364583,15.8632347 C20.513793,15.5645665 20.8124567,15.3459021 21.1324583,15.2072347 C21.4524599,15.0685673 21.6871242,14.9992347 21.8364583,14.9992347 C22.0284592,14.9992347 22.2577903,15.0579008 22.5244583,15.1752347 C22.7911263,15.2925686 23.0631236,15.4472337 23.3404583,15.6392347 C23.617793,15.8312357 23.8791237,16.0605667 24.1244583,16.3272347 C24.3697928,16.5939027 24.5671242,16.8659 24.7164583,17.1432347 C25.0151264,17.7192376 25.255124,18.3485646 25.4364583,19.0312347 C25.6177925,19.7139048 25.7511245,20.3645649 25.8364583,20.9832347 C25.921792,21.6019045 25.9804581,22.1512323 26.0124583,22.6312347 C26.0444584,23.1112371 26.0711248,23.4472337 26.0924583,23.6392347 C26.0924583,23.9165694 26.0604586,24.1245673 25.9964583,24.2632347 C25.932458,24.4019021 25.8151258,24.5139009 25.6444583,24.5992347 C25.4097904,24.7059019 25.2071258,24.7432349 25.0364583,24.7112347 C24.8657908,24.6792345 24.7271255,24.6099019 24.6204583,24.5032347 C24.5137911,24.3965675 24.4284586,24.2739021 24.3644583,24.1352347 C24.300458,23.9965673 24.2577917,23.8739019 24.2364583,23.7672347 C24.172458,23.2765656 24.1031253,22.7752373 24.0284583,22.2632347 C23.9537912,21.7512321 23.873792,21.2552371 23.7884583,20.7752347 C23.7031245,20.2952323 23.6017922,19.8472368 23.4844583,19.4312347 C23.3671244,19.0152326 23.2444589,18.6472363 23.1164583,18.3272347 C23.0737914,18.2419009 23.0044588,18.1299021 22.9084583,17.9912347 C22.8124578,17.8525673 22.7057922,17.7192353 22.5884583,17.5912347 C22.4711244,17.4632341 22.3591255,17.3565685 22.2524583,17.2712347 C22.1457911,17.1859009 22.0711252,17.1325681 22.0284583,17.1112347 C21.8151239,17.1112347 21.5911261,17.3085661 21.3564583,17.7032347 C21.1217904,18.0979033 20.8977927,18.5725653 20.6844583,19.1272347 C20.4711239,19.6819041 20.2737925,20.2632317 20.0924583,20.8712347 C19.911124,21.4792377 19.777792,21.9965659 19.6924583,22.4232347 C19.6924583,22.9779041 19.5857927,23.3885667 19.3724583,23.6552347 C19.1591239,23.9219027 18.9351261,24.0552347 18.7004583,24.0552347 C18.4657904,24.0552347 18.2151263,23.9645689 17.9484583,23.7832347 C17.6817903,23.6019005 17.505792,23.3939025 17.4204583,23.1592347 C17.2924576,22.8178997 17.1537924,22.4339035 17.0044583,22.0072347 C16.8551242,21.5805659 16.7004591,21.1432369 16.5404583,20.6952347 C16.3804575,20.2472325 16.2204591,19.8099035 16.0604583,19.3832347 C15.9004575,18.9565659 15.7457924,18.5725697 15.5964583,18.2312347 C15.2977901,18.6365701 15.0044597,19.0845656 14.7164583,19.5752347 C14.4284568,20.0659038 14.1511263,20.5672321 13.8844583,21.0792347 C13.6177903,21.5912373 13.3617928,22.0978989 13.1164583,22.5992347 C12.8711237,23.1005705 12.6417927,23.5432328 12.4284583,23.9272347 C12.2791242,24.1619025 12.1191258,24.3699005 11.9484583,24.5512347 C11.7777908,24.7325689 11.5751261,24.8232347 11.3404583,24.8232347 C11.1697908,24.8232347 10.9884592,24.7432355 10.7964583,24.5832347 C10.6044573,24.4232339 10.4231258,24.2259025 10.2524583,23.9912347 C10.0817908,23.7565669 9.92712564,23.4899029 9.78845828,23.1912347 C9.64979092,22.8925665 9.5484586,22.5939029 9.48445828,22.2952347 C9.31379076,21.3778968 9.1697922,20.3699069 9.05245828,19.2712347 C8.93512436,18.1725625 8.82312548,17.1005733 8.71645828,16.0552347 C8.69512484,15.6925662 8.74312436,15.3565696 8.86045828,15.0472347 C8.9777922,14.7378998 9.20712324,14.5299019 9.54845828,14.4232347 C9.91112676,14.3592344 10.1884573,14.4125672 10.3804583,14.5832347 C10.5724592,14.7539022 10.6897914,15.0205662 10.7324583,15.3832347 Z M34.0604583,12.6632347 C34.0177914,12.8765691 33.8684596,12.9939013 33.6124583,13.0152347 C33.356457,13.0365681 33.1431258,13.0472347 32.9724583,13.0472347 C32.4391223,13.0685681 31.8897944,13.1219009 31.3244583,13.2072347 C30.7591221,13.2925685 30.167128,13.4205672 29.5484583,13.5912347 C29.292457,13.6765685 29.0151264,13.6445688 28.7164583,13.4952347 C28.4177901,13.3459006 28.2364586,13.0472369 28.1724583,12.5992347 C28.1724583,12.4285672 28.2364576,12.2899019 28.3644583,12.1832347 C28.4924589,12.0765675 28.6417908,11.9805685 28.8124583,11.8952347 C29.089793,11.7672341 29.4204564,11.6552352 29.8044583,11.5592347 C30.1884602,11.4632342 30.5777896,11.3939016 30.9724583,11.3512347 C31.3671269,11.3085678 31.7457898,11.292568 32.1084583,11.3032347 C32.4711268,11.3139014 32.7697904,11.3512344 33.0044583,11.4152347 C33.3457933,11.5219019 33.6177906,11.6819003 33.8204583,11.8952347 C34.023126,12.1085691 34.1031252,12.3645665 34.0604583,12.6632347 Z M33.3244583,23.3192347 C33.4737924,23.6605697 33.5537916,24.0285661 33.5644583,24.4232347 C33.575125,24.8179033 33.4631261,25.0899006 33.2284583,25.2392347 C32.9297901,25.4312357 32.6097933,25.4205691 32.2684583,25.2072347 C31.9271232,24.9939003 31.6711258,24.7059032 31.5004583,24.3432347 C31.2657904,23.8952325 31.0844589,23.3459046 30.9564583,22.6952347 C30.8284576,22.0445648 30.7324586,21.3992379 30.6684583,20.7592347 C30.604458,20.1192315 30.567125,19.5219041 30.5564583,18.9672347 C30.5457916,18.4125653 30.5404583,17.9965694 30.5404583,17.7192347 C30.5617917,17.4205665 30.6471242,17.143236 30.7964583,16.8872347 C30.9457924,16.6312334 31.1377904,16.4819016 31.3724583,16.4392347 C31.7564602,16.4605681 32.0657904,16.6365664 32.3004583,16.9672347 C32.5351261,17.297903 32.6417917,17.7085656 32.6204583,18.1992347 C32.6204583,18.5832366 32.6311248,19.009899 32.6524583,19.4792347 C32.6737917,19.9485704 32.716458,20.417899 32.7804583,20.8872347 C32.8444586,21.3565704 32.9191245,21.8098992 33.0044583,22.2472347 C33.089792,22.6845702 33.1964576,23.0419 33.3244583,23.3192347 Z M53.3884583,13.8792347 C53.473792,14.476571 53.5431247,15.1112313 53.5964583,15.7832347 C53.6497919,16.4552381 53.6924581,17.1325646 53.7244583,17.8152347 C53.7564584,18.4979048 53.7724583,19.1592315 53.7724583,19.7992347 C53.7724583,20.4392379 53.7617917,21.0152321 53.7404583,21.5272347 C54.4231284,21.9965704 54.8337909,22.4125662 54.9724583,22.7752347 C55.1111256,23.1379032 55.1271255,23.4579 55.0204583,23.7352347 C54.8924576,24.1192366 54.6631266,24.316568 54.3324583,24.3272347 C54.00179,24.3379014 53.6231271,24.2259025 53.1964583,23.9912347 C52.8977901,24.2045691 52.5564602,24.4339001 52.1724583,24.6792347 C51.7884564,24.9245693 51.3831271,25.1592336 50.9564583,25.3832347 C50.5297895,25.6072358 50.1031271,25.8045672 49.6764583,25.9752347 C49.2497895,26.1459022 48.8551268,26.2632344 48.4924583,26.3272347 C47.8097882,26.4339019 47.196461,26.3059032 46.6524583,25.9432347 C46.1084556,25.5805662 45.7404592,25.0365717 45.5484583,24.3112347 C45.4204576,23.8205656 45.388458,23.313904 45.4524583,22.7912347 C45.5164586,22.2685654 45.676457,21.7672371 45.9324583,21.2872347 C46.1884596,20.8072323 46.5351228,20.3752366 46.9724583,19.9912347 C47.4097938,19.6072328 47.927122,19.3085691 48.5244583,19.0952347 C48.6737924,19.0312344 48.8817903,18.9779016 49.1484583,18.9352347 C49.4151263,18.8925678 49.6924568,18.876568 49.9804583,18.8872347 C50.2684597,18.8979014 50.5617901,18.9565675 50.8604583,19.0632347 C51.1591264,19.1699019 51.436457,19.3512334 51.6924583,19.6072347 C51.6924583,19.2445662 51.687125,18.8445702 51.6764583,18.4072347 C51.6657916,17.9698992 51.6497917,17.5272369 51.6284583,17.0792347 C51.6071248,16.6312325 51.5804584,16.2099033 51.5484583,15.8152347 C51.5164581,15.4205661 51.4791252,15.0845694 51.4364583,14.8072347 C51.3937914,14.4872331 51.271126,14.2899017 51.0684583,14.2152347 C50.8657906,14.1405677 50.6151264,14.1565675 50.3164583,14.2632347 C49.8044557,14.4339022 49.2071284,14.7645656 48.5244583,15.2552347 C47.8417882,15.7459038 47.191128,16.2685653 46.5724583,16.8232347 C46.3804573,17.0152357 46.1617928,17.1005681 45.9164583,17.0792347 C45.6711237,17.0579013 45.4631258,16.9619022 45.2924583,16.7912347 C45.1217908,16.6205672 45.0257917,16.4232358 45.0044583,16.1992347 C44.9831248,15.9752336 45.0684573,15.735236 45.2604583,15.4792347 C45.6231268,15.0952328 46.028456,14.7005701 46.4764583,14.2952347 C46.9244605,13.8898993 47.3937892,13.521903 47.8844583,13.1912347 C48.3751274,12.8605664 48.8764557,12.5885691 49.3884583,12.3752347 C49.9004608,12.1619003 50.4124557,12.0445681 50.9244583,12.0232347 C51.6711287,12.0019013 52.2471229,12.1672329 52.6524583,12.5192347 C53.0577936,12.8712365 53.3031245,13.3245653 53.3884583,13.8792347 Z M49.6764583,20.7592347 C49.3991236,20.823235 49.1057932,20.956567 48.7964583,21.1592347 C48.4871234,21.3619024 48.2097928,21.6072333 47.9644583,21.8952347 C47.7191237,22.1832361 47.5377922,22.5032329 47.4204583,22.8552347 C47.3031244,23.2072365 47.2977911,23.5538997 47.4044583,23.8952347 C47.4471252,24.0232353 47.5377909,24.1192344 47.6764583,24.1832347 C47.8151256,24.247235 47.9697908,24.2579016 48.1404583,24.2152347 C48.6524608,24.1085675 49.2337884,23.9005696 49.8844583,23.5912347 C50.5351282,23.2818998 51.0524564,22.9459032 51.4364583,22.5832347 C51.4364583,22.4552341 51.3724589,22.2899024 51.2444583,22.0872347 C51.1164576,21.884567 50.9671258,21.6819024 50.7964583,21.4792347 C50.6257908,21.276567 50.439126,21.1005688 50.2364583,20.9512347 C50.0337906,20.8019006 49.8471258,20.7379013 49.6764583,20.7592347 Z M58.9244583,15.1592347 C58.9884586,15.4792363 59.0577912,15.8365661 59.1324583,16.2312347 C59.2071253,16.6259033 59.2871245,17.0312326 59.3724583,17.4472347 C59.457792,17.8632368 59.532458,18.2845659 59.5964583,18.7112347 C59.6604586,19.1379035 59.7137914,19.5432328 59.7564583,19.9272347 C60.0124596,19.3725653 60.2897901,18.7859045 60.5884583,18.1672347 C60.8871264,17.5485649 61.2124565,16.977904 61.5644583,16.4552347 C61.91646,15.9325654 62.2897896,15.5005697 62.6844583,15.1592347 C63.0791269,14.8178997 63.5111226,14.6472347 63.9804583,14.6472347 C64.6844618,14.6472347 65.2764559,14.9032321 65.7564583,15.4152347 C66.2364607,15.9272373 66.64179,16.5618976 66.9724583,17.3192347 C67.3031266,18.0765718 67.5644573,18.8712305 67.7564583,19.7032347 C67.9484592,20.5352389 68.1084576,21.2712315 68.2364583,21.9112347 C68.3644589,22.4872376 68.1084615,22.9139 67.4684583,23.1912347 C67.1697901,23.3405688 66.9457924,23.3619019 66.7964583,23.2552347 C66.6471242,23.1485675 66.5617917,23.0419019 66.5404583,22.9352347 C66.4337911,22.6792334 66.3004591,22.2312379 66.1404583,21.5912347 C65.9804575,20.9512315 65.799126,20.3005713 65.5964583,19.6392347 C65.3937906,18.9778981 65.1644596,18.4019038 64.9084583,17.9112347 C64.652457,17.4205656 64.3644599,17.1965678 64.0444583,17.2392347 C63.6604564,17.2605681 63.3191264,17.5485653 63.0204583,18.1032347 C62.764457,18.5512369 62.5031263,19.047232 62.2364583,19.5912347 C61.9697903,20.1352374 61.7084596,20.6898985 61.4524583,21.2552347 C61.196457,21.8205709 60.9457928,22.3858985 60.7004583,22.9512347 C60.4551237,23.5165709 60.2257927,24.033899 60.0124583,24.5032347 C59.8631242,24.6525688 59.6764594,24.7539011 59.4524583,24.8072347 C59.2284572,24.8605683 58.9991261,24.8445685 58.7644583,24.7592347 C58.5511239,24.6952344 58.3804589,24.5885688 58.2524583,24.4392347 C58.1244576,24.2899006 58.0604583,24.1405688 58.0604583,23.9912347 C57.8684573,22.3272264 57.671126,20.8125749 57.4684583,19.4472347 C57.2657906,18.0818945 57.0044599,16.6845752 56.6844583,15.2552347 C56.5351242,14.7645656 56.5084578,14.3752361 56.6044583,14.0872347 C56.7004588,13.7992333 57.0151223,13.6872344 57.5484583,13.7512347 C58.2951287,13.8792353 58.7537908,14.348564 58.9244583,15.1592347 Z M75.8524583,9.4952347 C75.788458,9.11123278 75.8151244,8.7592363 75.9324583,8.4392347 C76.0497922,8.1192331 76.2897898,7.93790158 76.6524583,7.8952347 C76.9724599,7.85256782 77.2551237,7.9379003 77.5004583,8.1512347 C77.7457928,8.3645691 77.900458,8.64189966 77.9644583,8.9832347 C78.3911271,11.4365803 78.7911231,13.8738893 79.1644583,16.2952347 C79.5377935,18.7165801 79.8737901,21.0898897 80.1724583,23.4152347 C80.257792,24.0339045 80.2151258,24.4552336 80.0444583,24.6792347 C79.8737908,24.9032358 79.6711261,25.0685675 79.4364583,25.1752347 C79.180457,25.2819019 78.9404594,25.2819019 78.7164583,25.1752347 C78.4924572,25.0685675 78.3484586,24.8765694 78.2844583,24.5992347 L78.2524583,24.4072347 L78.1244583,24.4392347 C77.4204548,24.695236 76.6844621,24.8392345 75.9164583,24.8712347 C75.1484544,24.9032349 74.4124618,24.8125691 73.7084583,24.5992347 C73.0044548,24.3859003 72.380461,24.0392371 71.8364583,23.5592347 C71.2924556,23.0792323 70.9031261,22.4659051 70.6684583,21.7192347 C70.1564557,20.0765598 70.4764525,18.5832414 71.6284583,17.2392347 C72.1191274,16.6845653 72.7271213,16.1832369 73.4524583,15.7352347 C74.1777952,15.2872325 75.0524532,14.935236 76.0764583,14.6792347 L76.6524583,14.5512347 L75.8524583,9.4952347 Z M72.6204583,20.9192347 C72.7484589,21.4312373 72.9831232,21.8259 73.3244583,22.1032347 C73.6657933,22.3805694 74.0711226,22.5672342 74.5404583,22.6632347 C75.009794,22.7592352 75.5111223,22.775235 76.0444583,22.7112347 C76.5777943,22.6472344 77.1004557,22.5299022 77.6124583,22.3592347 L77.9004583,22.2632347 L77.0044583,16.6312347 L76.3644583,16.7912347 C75.916456,16.9192353 75.4417941,17.1165667 74.9404583,17.3832347 C74.4391224,17.6499027 73.9964602,17.9645662 73.6124583,18.3272347 C73.2284564,18.6899032 72.935126,19.0952325 72.7324583,19.5432347 C72.5297906,19.9912369 72.4924576,20.449899 72.6204583,20.9192347 Z M94.5084583,22.9992347 C94.5297917,23.0845685 94.5404583,23.2072339 94.5404583,23.3672347 C94.5404583,23.5272355 94.5084586,23.6872339 94.4444583,23.8472347 C94.380458,24.0072355 94.2897922,24.1459008 94.1724583,24.2632347 C94.0551244,24.3805686 93.8897927,24.4392347 93.6764583,24.4392347 C93.2071226,24.1405665 92.8124599,23.7459038 92.4924583,23.2552347 C92.3217908,22.6152315 92.1671256,21.8792389 92.0284583,21.0472347 C91.8897909,20.2152305 91.777792,19.3459059 91.6924583,18.4392347 C91.6071245,17.5325635 91.5484584,16.6099061 91.5164583,15.6712347 C91.4844581,14.7325633 91.4791248,13.8259057 91.5004583,12.9512347 C91.5004583,12.8019006 91.5164581,12.6099025 91.5484583,12.3752347 C91.5804584,12.1405669 91.6391245,11.9112358 91.7244583,11.6872347 C91.809792,11.4632336 91.9164576,11.2712355 92.0444583,11.1112347 C92.1724589,10.9512339 92.3537904,10.8712347 92.5884583,10.8712347 C92.865793,10.8712347 93.0897908,10.9565672 93.2604583,11.1272347 C93.4311258,11.2979022 93.5164583,11.5752328 93.5164583,11.9592347 C93.4951248,12.8125723 93.5004581,13.7245632 93.5324583,14.6952347 C93.5644584,15.6659062 93.6231245,16.6418965 93.7084583,17.6232347 C93.793792,18.6045729 93.9057909,19.5592301 94.0444583,20.4872347 C94.1831256,21.4152393 94.3377908,22.2525643 94.5084583,22.9992347 Z M108.428458,9.4632347 C108.449792,9.80456974 108.465792,10.2205656 108.476458,10.7112347 C108.487125,11.2019038 108.503125,11.7352318 108.524458,12.3112347 C108.545792,12.8872376 108.577791,13.4685651 108.620458,14.0552347 C108.663125,14.6419043 108.727125,15.2018987 108.812458,15.7352347 C109.13246,15.2018987 109.500456,14.7965694 109.916458,14.5192347 C110.33246,14.2419 110.753789,14.071235 111.180458,14.0072347 C111.841795,13.9219009 112.417789,13.9965669 112.908458,14.2312347 C113.399127,14.4659025 113.804457,14.7912326 114.124458,15.2072347 C114.44446,15.6232368 114.679124,16.0818989 114.828458,16.5832347 C114.977792,17.0845705 115.052458,17.569899 115.052458,18.0392347 C115.052458,19.0419064 114.791128,19.9698971 114.268458,20.8232347 C113.745789,21.6765723 113.137795,22.4338981 112.444458,23.0952347 C111.751121,23.7565713 111.068462,24.3112325 110.396458,24.7592347 C109.724455,25.2072369 109.239126,25.5272337 108.940458,25.7192347 C108.513789,25.8899022 108.097794,25.9325685 107.692458,25.8472347 C107.287123,25.7619009 107.020459,25.6339022 106.892458,25.4632347 C106.785791,25.2072334 106.753791,24.9885689 106.796458,24.8072347 C106.839125,24.6259005 106.924458,24.4605688 107.052458,24.3112347 C107.180459,24.1619006 107.335124,24.0285686 107.516458,23.9112347 C107.697793,23.7939008 107.852458,23.6819019 107.980458,23.5752347 C107.468456,21.2285563 107.073793,18.8552467 106.796458,16.4552347 C106.519124,14.0552227 106.401791,11.6179137 106.444458,9.1432347 C106.444458,8.7165659 106.535124,8.47123502 106.716458,8.4072347 C106.897793,8.34323438 107.052458,8.3112347 107.180458,8.3112347 C107.479126,8.35390158 107.74579,8.47123374 107.980458,8.6632347 C108.215126,8.85523566 108.364458,9.12189966 108.428458,9.4632347 Z M113.100458,17.9432347 C113.100458,17.2178977 112.919127,16.7112361 112.556458,16.4232347 C112.19379,16.1352333 111.82046,16.0125678 111.436458,16.0552347 C111.116457,16.0979016 110.82846,16.2152337 110.572458,16.4072347 C110.316457,16.5992357 110.092459,16.8339 109.900458,17.1112347 C109.708457,17.3885694 109.564459,17.6978997 109.468458,18.0392347 C109.372458,18.3805697 109.335125,18.7112331 109.356458,19.0312347 C109.399125,19.5645707 109.457791,20.1405649 109.532458,20.7592347 C109.607125,21.3779045 109.697791,21.9325656 109.804458,22.4232347 C110.145793,22.1885669 110.508456,21.9165696 110.892458,21.6072347 C111.27646,21.2978998 111.63379,20.9512366 111.964458,20.5672347 C112.295127,20.1832328 112.567124,19.7725702 112.780458,19.3352347 C112.993793,18.8978992 113.100458,18.4339038 113.100458,17.9432347 Z M125.292458,13.8792347 C125.377792,14.476571 125.447125,15.1112313 125.500458,15.7832347 C125.553792,16.4552381 125.596458,17.1325646 125.628458,17.8152347 C125.660458,18.4979048 125.676458,19.1592315 125.676458,19.7992347 C125.676458,20.4392379 125.665792,21.0152321 125.644458,21.5272347 C126.327128,21.9965704 126.737791,22.4125662 126.876458,22.7752347 C127.015126,23.1379032 127.031125,23.4579 126.924458,23.7352347 C126.796458,24.1192366 126.567127,24.316568 126.236458,24.3272347 C125.90579,24.3379014 125.527127,24.2259025 125.100458,23.9912347 C124.80179,24.2045691 124.46046,24.4339001 124.076458,24.6792347 C123.692456,24.9245693 123.287127,25.1592336 122.860458,25.3832347 C122.433789,25.6072358 122.007127,25.8045672 121.580458,25.9752347 C121.153789,26.1459022 120.759127,26.2632344 120.396458,26.3272347 C119.713788,26.4339019 119.100461,26.3059032 118.556458,25.9432347 C118.012456,25.5805662 117.644459,25.0365717 117.452458,24.3112347 C117.324458,23.8205656 117.292458,23.313904 117.356458,22.7912347 C117.420459,22.2685654 117.580457,21.7672371 117.836458,21.2872347 C118.09246,20.8072323 118.439123,20.3752366 118.876458,19.9912347 C119.313794,19.6072328 119.831122,19.3085691 120.428458,19.0952347 C120.577792,19.0312344 120.78579,18.9779016 121.052458,18.9352347 C121.319126,18.8925678 121.596457,18.876568 121.884458,18.8872347 C122.17246,18.8979014 122.46579,18.9565675 122.764458,19.0632347 C123.063126,19.1699019 123.340457,19.3512334 123.596458,19.6072347 C123.596458,19.2445662 123.591125,18.8445702 123.580458,18.4072347 C123.569792,17.9698992 123.553792,17.5272369 123.532458,17.0792347 C123.511125,16.6312325 123.484458,16.2099033 123.452458,15.8152347 C123.420458,15.4205661 123.383125,15.0845694 123.340458,14.8072347 C123.297791,14.4872331 123.175126,14.2899017 122.972458,14.2152347 C122.769791,14.1405677 122.519126,14.1565675 122.220458,14.2632347 C121.708456,14.4339022 121.111128,14.7645656 120.428458,15.2552347 C119.745788,15.7459038 119.095128,16.2685653 118.476458,16.8232347 C118.284457,17.0152357 118.065793,17.1005681 117.820458,17.0792347 C117.575124,17.0579013 117.367126,16.9619022 117.196458,16.7912347 C117.025791,16.6205672 116.929792,16.4232358 116.908458,16.1992347 C116.887125,15.9752336 116.972457,15.735236 117.164458,15.4792347 C117.527127,15.0952328 117.932456,14.7005701 118.380458,14.2952347 C118.828461,13.8898993 119.297789,13.521903 119.788458,13.1912347 C120.279127,12.8605664 120.780456,12.5885691 121.292458,12.3752347 C121.804461,12.1619003 122.316456,12.0445681 122.828458,12.0232347 C123.575129,12.0019013 124.151123,12.1672329 124.556458,12.5192347 C124.961794,12.8712365 125.207125,13.3245653 125.292458,13.8792347 Z M121.580458,20.7592347 C121.303124,20.823235 121.009793,20.956567 120.700458,21.1592347 C120.391123,21.3619024 120.113793,21.6072333 119.868458,21.8952347 C119.623124,22.1832361 119.441792,22.5032329 119.324458,22.8552347 C119.207124,23.2072365 119.201791,23.5538997 119.308458,23.8952347 C119.351125,24.0232353 119.441791,24.1192344 119.580458,24.1832347 C119.719126,24.247235 119.873791,24.2579016 120.044458,24.2152347 C120.556461,24.1085675 121.137788,23.9005696 121.788458,23.5912347 C122.439128,23.2818998 122.956456,22.9459032 123.340458,22.5832347 C123.340458,22.4552341 123.276459,22.2899024 123.148458,22.0872347 C123.020458,21.884567 122.871126,21.6819024 122.700458,21.4792347 C122.529791,21.276567 122.343126,21.1005688 122.140458,20.9512347 C121.937791,20.8019006 121.751126,20.7379013 121.580458,20.7592347 Z M136.140458,17.4952347 C135.991124,17.5805685 135.809793,17.6072349 135.596458,17.5752347 C135.383124,17.5432345 135.201792,17.4099025 135.052458,17.1752347 C134.711123,16.7272325 134.295127,16.5032347 133.804458,16.5032347 C133.356456,16.5032347 132.95646,16.604567 132.604458,16.8072347 C132.252457,17.0099024 131.943126,17.2765664 131.676458,17.6072347 C131.40979,17.937903 131.191126,18.3058993 131.020458,18.7112347 C130.849791,19.1165701 130.732459,19.5218993 130.668458,19.9272347 C130.561791,20.6739051 130.68979,21.3032321 131.052458,21.8152347 C131.415127,22.3272373 131.980454,22.5832347 132.748458,22.5832347 C133.367128,22.6045681 134.065788,22.4819027 134.844458,22.2152347 C135.623129,21.9485667 136.353788,21.6019035 137.036458,21.1752347 C137.335126,21.0472341 137.612457,20.9725681 137.868458,20.9512347 C138.12446,20.9299013 138.337791,21.0579 138.508458,21.3352347 C138.721793,21.6765697 138.66846,22.0232329 138.348458,22.3752347 C138.028457,22.7272365 137.601794,23.0419 137.068458,23.3192347 C136.535122,23.6179029 135.975128,23.8792336 135.388458,24.1032347 C134.801789,24.3272358 134.209795,24.4872342 133.612458,24.5832347 C133.015122,24.6792352 132.423128,24.6845685 131.836458,24.5992347 C131.249789,24.5139009 130.700461,24.3112363 130.188458,23.9912347 C129.377788,23.4365653 128.887126,22.6472398 128.716458,21.6232347 C128.545791,20.5992296 128.620457,19.5432401 128.940458,18.4552347 C129.068459,18.0498993 129.24979,17.6392368 129.484458,17.2232347 C129.719126,16.8072326 130.00179,16.4285697 130.332458,16.0872347 C130.663127,15.7458997 131.031123,15.4525693 131.436458,15.2072347 C131.841794,14.9619001 132.289789,14.7965685 132.780458,14.7112347 C133.569796,14.5832341 134.327121,14.6632333 135.052458,14.9512347 C135.777795,15.2392361 136.25779,15.7672309 136.492458,16.5352347 C136.535125,16.7059022 136.535125,16.8819005 136.492458,17.0632347 C136.449791,17.2445689 136.332459,17.3885675 136.140458,17.4952347 Z M149.164458,15.2552347 C149.249792,15.2339013 149.377791,15.2179014 149.548458,15.2072347 C149.719126,15.196568 149.884457,15.2072345 150.044458,15.2392347 C150.204459,15.2712349 150.343124,15.3245677 150.460458,15.3992347 C150.577792,15.4739017 150.647125,15.5645675 150.668458,15.6712347 C150.711125,15.927236 150.673792,16.156567 150.556458,16.3592347 C150.439124,16.5619024 150.231126,16.7379006 149.932458,16.8872347 C149.121788,17.2712366 148.279129,17.7032323 147.404458,18.1832347 C146.529787,18.6632371 145.783128,19.0952328 145.164458,19.4792347 C145.54846,19.735236 145.991122,20.0232331 146.492458,20.3432347 C146.993794,20.6632363 147.511122,20.9992329 148.044458,21.3512347 C148.577794,21.7032365 149.111122,22.0765661 149.644458,22.4712347 C150.177794,22.8659033 150.679123,23.2552328 151.148458,23.6392347 C151.575127,24.0019032 151.649793,24.3325665 151.372458,24.6312347 C151.244458,24.7805688 151.03646,24.8872344 150.748458,24.9512347 C150.460457,25.015235 150.18846,24.9832353 149.932458,24.8552347 C149.463123,24.6205669 148.951128,24.337903 148.396458,24.0072347 C147.841789,23.6765664 147.276461,23.3352365 146.700458,22.9832347 C146.124455,22.6312329 145.564461,22.2792365 145.020458,21.9272347 C144.476456,21.5752329 143.980461,21.2499029 143.532458,20.9512347 C143.617792,21.6979051 143.697791,22.4445643 143.772458,23.1912347 C143.847125,23.9379051 143.916458,24.6845643 143.980458,25.4312347 C144.108459,25.8365701 144.097792,26.1672334 143.948458,26.4232347 C143.799124,26.679236 143.553793,26.7965681 143.212458,26.7752347 C142.84979,26.7112344 142.583126,26.5672358 142.412458,26.3432347 C142.241791,26.1192336 142.113792,25.8259032 142.028458,25.4632347 C141.900458,24.5885637 141.756459,23.5539073 141.596458,22.3592347 C141.436457,21.1645621 141.271126,19.9272411 141.100458,18.6472347 C140.929791,17.3672283 140.764459,16.1192408 140.604458,14.9032347 C140.444457,13.6872286 140.300459,12.6099061 140.172458,11.6712347 C140.129791,11.3725665 140.103125,11.0472365 140.092458,10.6952347 C140.081792,10.3432329 140.19379,10.1139019 140.428458,10.0072347 C140.74846,9.87923406 141.079123,9.9485667 141.420458,10.2152347 C141.761793,10.4819027 142.017791,10.8818987 142.188458,11.4152347 C142.359126,12.3965729 142.529791,13.4632289 142.700458,14.6152347 C142.871126,15.7672405 143.041791,16.9832283 143.212458,18.2632347 C143.639127,18.0072334 144.135122,17.7245696 144.700458,17.4152347 C145.265794,17.1058998 145.831122,16.8072361 146.396458,16.5192347 C146.961794,16.2312333 147.489789,15.9699025 147.980458,15.7352347 C148.471127,15.5005669 148.86579,15.3405685 149.164458,15.2552347 Z M173.708458,24.9832347 C173.537791,25.2179025 173.345793,25.3725677 173.132458,25.4472347 C172.919124,25.5219017 172.727126,25.5592347 172.556458,25.5592347 C172.25779,25.5379013 171.98046,25.4365689 171.724458,25.2552347 C171.468457,25.0739005 171.308459,24.8872357 171.244458,24.6952347 C171.116458,24.3325662 170.977792,23.9272369 170.828458,23.4792347 C170.679124,23.0312325 170.535126,22.5779037 170.396458,22.1192347 C170.257791,21.6605657 170.113792,21.2125702 169.964458,20.7752347 C169.815124,20.3378992 169.676459,19.9379032 169.548458,19.5752347 C169.121789,20.3219051 168.71646,21.0738976 168.332458,21.8312347 C167.948456,22.5885718 167.521794,23.372564 167.052458,24.1832347 C166.839124,24.5032363 166.593793,24.7219008 166.316458,24.8392347 C166.039124,24.9565686 165.804459,25.0045681 165.612458,24.9832347 C165.335124,24.9619013 165.084459,24.8552357 164.860458,24.6632347 C164.636457,24.4712337 164.460459,24.2899022 164.332458,24.1192347 C164.09779,23.7352328 163.863126,23.2392377 163.628458,22.6312347 C163.39379,22.0232317 163.175126,21.3832381 162.972458,20.7112347 C162.769791,20.0392313 162.583126,19.3672381 162.412458,18.6952347 C162.241791,18.0232313 162.103125,17.4205707 161.996458,16.8872347 C161.932458,16.5245662 161.937791,16.1832363 162.012458,15.8632347 C162.087125,15.5432331 162.27379,15.3619016 162.572458,15.3192347 C162.935127,15.2979013 163.26579,15.4205667 163.564458,15.6872347 C163.863126,15.9539027 164.033791,16.2152334 164.076458,16.4712347 C164.161792,16.8979035 164.263124,17.3618989 164.380458,17.8632347 C164.497792,18.3645705 164.625791,18.8712321 164.764458,19.3832347 C164.903126,19.8952373 165.041791,20.3965656 165.180458,20.8872347 C165.319126,21.3779038 165.463124,21.8152328 165.612458,22.1992347 C165.93246,21.6872321 166.28979,21.0952381 166.684458,20.4232347 C167.079127,19.7512313 167.45779,19.1005712 167.820458,18.4712347 C168.183127,17.8418982 168.51379,17.2925704 168.812458,16.8232347 C169.111126,16.353899 169.345791,16.0659019 169.516458,15.9592347 C169.644459,15.8739009 169.82579,15.8792342 170.060458,15.9752347 C170.295126,16.0712352 170.465791,16.2045672 170.572458,16.3752347 C171.041794,17.3139061 171.431123,18.3432291 171.740458,19.4632347 C172.049793,20.5832403 172.35379,21.6232299 172.652458,22.5832347 C172.951126,22.1992328 173.271123,21.6925712 173.612458,21.0632347 C173.953793,20.4338982 174.284457,19.7672382 174.604458,19.0632347 C174.92446,18.3592312 175.223124,17.6552382 175.500458,16.9512347 C175.777793,16.2472312 176.001791,15.6179041 176.172458,15.0632347 C176.343126,14.4872318 176.57779,14.2099013 176.876458,14.2312347 C177.26046,14.2739016 177.591124,14.4019003 177.868458,14.6152347 C178.145793,14.8285691 178.252459,15.0525669 178.188458,15.2872347 C177.719123,17.1645774 177.111129,18.8872269 176.364458,20.4552347 C175.617788,22.0232425 174.732463,23.5325608 173.708458,24.9832347 Z M182.732458,11.5432347 C182.732458,12.0552373 182.727125,12.6312315 182.716458,13.2712347 C182.705792,13.9112379 182.705792,14.5725646 182.716458,15.2552347 C182.727125,15.9379048 182.737792,16.6418977 182.748458,17.3672347 C182.759125,18.0925717 182.775125,18.7858981 182.796458,19.4472347 C183.009793,19.0205659 183.26579,18.5992368 183.564458,18.1832347 C183.863126,17.7672326 184.199123,17.3992363 184.572458,17.0792347 C184.945793,16.7592331 185.340456,16.5032357 185.756458,16.3112347 C186.17246,16.1192337 186.625789,16.0232347 187.116458,16.0232347 C187.649794,16.0232347 188.124456,16.1938997 188.540458,16.5352347 C188.95646,16.8765697 189.319123,17.3298985 189.628458,17.8952347 C189.937793,18.4605709 190.199124,19.0898979 190.412458,19.7832347 C190.625793,20.4765715 190.801791,21.1805645 190.940458,21.8952347 C191.079126,22.6099049 191.180458,23.2925648 191.244458,23.9432347 C191.308459,24.5939046 191.361791,25.153899 191.404458,25.6232347 C191.404458,25.9645697 191.319126,26.2419003 191.148458,26.4552347 C190.977791,26.6685691 190.775126,26.7752347 190.540458,26.7752347 C190.369791,26.7752347 190.161793,26.6632358 189.916458,26.4392347 C189.671124,26.2152336 189.495125,25.9432363 189.388458,25.6232347 C189.324458,25.3672334 189.260459,24.9939038 189.196458,24.5032347 C189.132458,24.0125656 189.057792,23.4845709 188.972458,22.9192347 C188.887125,22.3538985 188.780459,21.7832376 188.652458,21.2072347 C188.524458,20.6312318 188.369793,20.1139037 188.188458,19.6552347 C188.007124,19.1965657 187.78846,18.839236 187.532458,18.5832347 C187.276457,18.3272334 186.977793,18.2312344 186.636458,18.2952347 C186.103122,18.4019019 185.639127,18.7752315 185.244458,19.4152347 C184.84979,20.0552379 184.50846,20.780564 184.220458,21.5912347 C183.932457,22.4019054 183.697793,23.2232305 183.516458,24.0552347 C183.335124,24.8872389 183.201792,25.5592321 183.116458,26.0712347 C183.031125,26.4552366 182.919126,26.7165673 182.780458,26.8552347 C182.641791,26.9939021 182.487126,27.0632347 182.316458,27.0632347 C182.145791,27.0632347 181.991126,26.9779022 181.852458,26.8072347 C181.713791,26.6365672 181.585792,26.4285693 181.468458,26.1832347 C181.351124,25.9379001 181.249792,25.6819027 181.164458,25.4152347 C181.079125,25.1485667 181.025792,24.9192357 181.004458,24.7272347 C180.897791,23.5752289 180.812459,22.47124 180.748458,21.4152347 C180.684458,20.3592294 180.636458,19.2979067 180.604458,18.2312347 C180.572458,17.1645627 180.556458,16.0712403 180.556458,14.9512347 C180.556458,13.8312291 180.577791,12.6312411 180.620458,11.3512347 C180.620458,10.2845627 181.004454,9.8045675 181.772458,9.9112347 C182.02846,9.95390158 182.252457,10.1405664 182.444458,10.4712347 C182.636459,10.801903 182.732458,11.1592328 182.732458,11.5432347 Z M201.452458,18.1992347 C200.620454,18.6899038 199.724463,19.0685667 198.764458,19.3352347 C197.804453,19.6019027 196.769797,19.7352347 195.660458,19.7352347 C195.703125,20.4819051 195.916456,21.0738992 196.300458,21.5112347 C196.68446,21.9485702 197.164455,22.2099009 197.740458,22.2952347 C198.081793,22.3379016 198.428457,22.327235 198.780458,22.2632347 C199.13246,22.1992344 199.463123,22.0979021 199.772458,21.9592347 C200.081793,21.8205673 200.364457,21.6659022 200.620458,21.4952347 C200.87646,21.3245672 201.100457,21.1539022 201.292458,20.9832347 C201.484459,20.8125672 201.687124,20.7005683 201.900458,20.6472347 C202.113793,20.5939011 202.273791,20.5885678 202.380458,20.6312347 C202.679126,20.7379019 202.785792,21.0578987 202.700458,21.5912347 C202.359123,22.2739048 201.868461,22.8552323 201.228458,23.3352347 C200.588455,23.8152371 199.873796,24.1192341 199.084458,24.2472347 C198.401788,24.3752353 197.697795,24.3432357 196.972458,24.1512347 C196.247121,23.9592337 195.596461,23.5859041 195.020458,23.0312347 C194.529789,22.5405656 194.15646,21.9645713 193.900458,21.3032347 C193.644457,20.6418981 193.484459,19.9592382 193.420458,19.2552347 C193.356458,18.5938981 193.415124,17.964571 193.596458,17.3672347 C193.777793,16.7698984 194.060456,16.2419037 194.444458,15.7832347 C194.82846,15.3245657 195.308455,14.9459029 195.884458,14.6472347 C196.460461,14.3485665 197.132454,14.1779016 197.900458,14.1352347 C198.817796,14.0712344 199.649788,14.2418993 200.396458,14.6472347 C201.143129,15.0525701 201.66579,15.6178977 201.964458,16.3432347 C202.135126,16.7485701 202.183125,17.1005665 202.108458,17.3992347 C202.033791,17.6979029 201.815127,17.9645669 201.452458,18.1992347 Z M197.772458,16.0232347 C197.559124,16.0659016 197.329793,16.1405675 197.084458,16.2472347 C196.839124,16.3539019 196.615126,16.4872339 196.412458,16.6472347 C196.209791,16.8072355 196.028459,16.988567 195.868458,17.1912347 C195.708457,17.3939024 195.617792,17.6232334 195.596458,17.8792347 C195.959127,17.8792347 196.359123,17.847235 196.796458,17.7832347 C197.233794,17.7192344 197.660456,17.6392352 198.076458,17.5432347 C198.49246,17.4472342 198.876457,17.3352353 199.228458,17.2072347 C199.58046,17.0792341 199.87379,16.9405688 200.108458,16.7912347 C199.937791,16.3858993 199.623127,16.1352352 199.164458,16.0392347 C198.705789,15.9432342 198.241794,15.9379009 197.772458,16.0232347 Z M206.988458,15.1592347 C207.052459,15.4792363 207.121791,15.8365661 207.196458,16.2312347 C207.271125,16.6259033 207.351125,17.0312326 207.436458,17.4472347 C207.521792,17.8632368 207.596458,18.2845659 207.660458,18.7112347 C207.724459,19.1379035 207.777791,19.5432328 207.820458,19.9272347 C208.07646,19.3725653 208.35379,18.7859045 208.652458,18.1672347 C208.951126,17.5485649 209.276457,16.977904 209.628458,16.4552347 C209.98046,15.9325654 210.35379,15.5005697 210.748458,15.1592347 C211.143127,14.8178997 211.575123,14.6472347 212.044458,14.6472347 C212.748462,14.6472347 213.340456,14.9032321 213.820458,15.4152347 C214.300461,15.9272373 214.70579,16.5618976 215.036458,17.3192347 C215.367127,18.0765718 215.628457,18.8712305 215.820458,19.7032347 C216.012459,20.5352389 216.172458,21.2712315 216.300458,21.9112347 C216.428459,22.4872376 216.172461,22.9139 215.532458,23.1912347 C215.23379,23.3405688 215.009792,23.3619019 214.860458,23.2552347 C214.711124,23.1485675 214.625792,23.0419019 214.604458,22.9352347 C214.497791,22.6792334 214.364459,22.2312379 214.204458,21.5912347 C214.044457,20.9512315 213.863126,20.3005713 213.660458,19.6392347 C213.457791,18.9778981 213.22846,18.4019038 212.972458,17.9112347 C212.716457,17.4205656 212.42846,17.1965678 212.108458,17.2392347 C211.724456,17.2605681 211.383126,17.5485653 211.084458,18.1032347 C210.828457,18.5512369 210.567126,19.047232 210.300458,19.5912347 C210.03379,20.1352374 209.77246,20.6898985 209.516458,21.2552347 C209.260457,21.8205709 209.009793,22.3858985 208.764458,22.9512347 C208.519124,23.5165709 208.289793,24.033899 208.076458,24.5032347 C207.927124,24.6525688 207.740459,24.7539011 207.516458,24.8072347 C207.292457,24.8605683 207.063126,24.8445685 206.828458,24.7592347 C206.615124,24.6952344 206.444459,24.5885688 206.316458,24.4392347 C206.188458,24.2899006 206.124458,24.1405688 206.124458,23.9912347 C205.932457,22.3272264 205.735126,20.8125749 205.532458,19.4472347 C205.329791,18.0818945 205.06846,16.6845752 204.748458,15.2552347 C204.599124,14.7645656 204.572458,14.3752361 204.668458,14.0872347 C204.764459,13.7992333 205.079122,13.6872344 205.612458,13.7512347 C206.359129,13.8792353 206.817791,14.348564 206.988458,15.1592347 Z"></path>
                    <path d="M5.77245828,52.9992347 C5.79379172,53.0845685 5.80445828,53.2072339 5.80445828,53.3672347 C5.80445828,53.5272355 5.7724586,53.6872339 5.70845828,53.8472347 C5.64445796,54.0072355 5.5537922,54.1459008 5.43645828,54.2632347 C5.31912436,54.3805686 5.15379268,54.4392347 4.94045828,54.4392347 C4.4711226,54.1405665 4.07645988,53.7459038 3.75645828,53.2552347 C3.58579076,52.6152315 3.43112564,51.8792389 3.29245828,51.0472347 C3.15379092,50.2152305 3.04179204,49.3459059 2.95645828,48.4392347 C2.87112452,47.5325635 2.81245844,46.6099061 2.78045828,45.6712347 C2.74845812,44.7325633 2.74312484,43.8259057 2.76445828,42.9512347 C2.76445828,42.8019006 2.78045812,42.6099025 2.81245828,42.3752347 C2.84445844,42.1405669 2.90312452,41.9112358 2.98845828,41.6872347 C3.07379204,41.4632336 3.18045764,41.2712355 3.30845828,41.1112347 C3.43645892,40.9512339 3.61779044,40.8712347 3.85245828,40.8712347 C4.129793,40.8712347 4.35379076,40.9565672 4.52445828,41.1272347 C4.6951258,41.2979022 4.78045828,41.5752328 4.78045828,41.9592347 C4.75912484,42.8125723 4.76445812,43.7245632 4.79645828,44.6952347 C4.82845844,45.6659062 4.88712452,46.6418965 4.97245828,47.6232347 C5.05779204,48.6045729 5.16979092,49.5592301 5.30845828,50.4872347 C5.44712564,51.4152393 5.60179076,52.2525643 5.77245828,52.9992347 Z M29.1644583,54.9832347 C28.9937908,55.2179025 28.8017927,55.3725677 28.5884583,55.4472347 C28.3751239,55.5219017 28.1831258,55.5592347 28.0124583,55.5592347 C27.7137901,55.5379013 27.4364596,55.4365689 27.1804583,55.2552347 C26.924457,55.0739005 26.7644586,54.8872357 26.7004583,54.6952347 C26.5724576,54.3325662 26.4337924,53.9272369 26.2844583,53.4792347 C26.1351242,53.0312325 25.9911256,52.5779037 25.8524583,52.1192347 C25.7137909,51.6605657 25.5697924,51.2125702 25.4204583,50.7752347 C25.2711242,50.3378992 25.1324589,49.9379032 25.0044583,49.5752347 C24.5777895,50.3219051 24.1724602,51.0738976 23.7884583,51.8312347 C23.4044564,52.5885718 22.977794,53.372564 22.5084583,54.1832347 C22.2951239,54.5032363 22.049793,54.7219008 21.7724583,54.8392347 C21.4951236,54.9565686 21.2604592,55.0045681 21.0684583,54.9832347 C20.7911236,54.9619013 20.5404594,54.8552357 20.3164583,54.6632347 C20.0924572,54.4712337 19.9164589,54.2899022 19.7884583,54.1192347 C19.5537904,53.7352328 19.3191261,53.2392377 19.0844583,52.6312347 C18.8497904,52.0232317 18.631126,51.3832381 18.4284583,50.7112347 C18.2257906,50.0392313 18.0391258,49.3672381 17.8684583,48.6952347 C17.6977908,48.0232313 17.5591255,47.4205707 17.4524583,46.8872347 C17.388458,46.5245662 17.3937912,46.1832363 17.4684583,45.8632347 C17.5431253,45.5432331 17.7297901,45.3619016 18.0284583,45.3192347 C18.3911268,45.2979013 18.7217901,45.4205667 19.0204583,45.6872347 C19.3191264,45.9539027 19.4897914,46.2152334 19.5324583,46.4712347 C19.617792,46.8979035 19.7191244,47.3618989 19.8364583,47.8632347 C19.9537922,48.3645705 20.0817909,48.8712321 20.2204583,49.3832347 C20.3591256,49.8952373 20.4977909,50.3965656 20.6364583,50.8872347 C20.7751256,51.3779038 20.9191242,51.8152328 21.0684583,52.1992347 C21.3884599,51.6872321 21.7457896,51.0952381 22.1404583,50.4232347 C22.5351269,49.7512313 22.9137898,49.1005712 23.2764583,48.4712347 C23.6391268,47.8418982 23.9697901,47.2925704 24.2684583,46.8232347 C24.5671264,46.353899 24.8017908,46.0659019 24.9724583,45.9592347 C25.1004589,45.8739009 25.2817904,45.8792342 25.5164583,45.9752347 C25.7511261,46.0712352 25.9217911,46.2045672 26.0284583,46.3752347 C26.497794,47.3139061 26.8871234,48.3432291 27.1964583,49.4632347 C27.5057932,50.5832403 27.8097901,51.6232299 28.1084583,52.5832347 C28.4071264,52.1992328 28.7271232,51.6925712 29.0684583,51.0632347 C29.4097933,50.4338982 29.7404567,49.7672382 30.0604583,49.0632347 C30.3804599,48.3592312 30.6791236,47.6552382 30.9564583,46.9512347 C31.233793,46.2472312 31.4577908,45.6179041 31.6284583,45.0632347 C31.7991258,44.4872318 32.0337901,44.2099013 32.3324583,44.2312347 C32.7164602,44.2739016 33.0471236,44.4019003 33.3244583,44.6152347 C33.601793,44.8285691 33.7084586,45.0525669 33.6444583,45.2872347 C33.1751226,47.1645774 32.5671287,48.8872269 31.8204583,50.4552347 C31.0737879,52.0232425 30.1884634,53.5325608 29.1644583,54.9832347 Z M43.9484583,43.8792347 C44.033792,44.476571 44.1031247,45.1112313 44.1564583,45.7832347 C44.2097919,46.4552381 44.2524581,47.1325646 44.2844583,47.8152347 C44.3164584,48.4979048 44.3324583,49.1592315 44.3324583,49.7992347 C44.3324583,50.4392379 44.3217917,51.0152321 44.3004583,51.5272347 C44.9831284,51.9965704 45.3937909,52.4125662 45.5324583,52.7752347 C45.6711256,53.1379032 45.6871255,53.4579 45.5804583,53.7352347 C45.4524576,54.1192366 45.2231266,54.316568 44.8924583,54.3272347 C44.56179,54.3379014 44.1831271,54.2259025 43.7564583,53.9912347 C43.4577901,54.2045691 43.1164602,54.4339001 42.7324583,54.6792347 C42.3484564,54.9245693 41.9431271,55.1592336 41.5164583,55.3832347 C41.0897895,55.6072358 40.6631271,55.8045672 40.2364583,55.9752347 C39.8097895,56.1459022 39.4151268,56.2632344 39.0524583,56.3272347 C38.3697882,56.4339019 37.756461,56.3059032 37.2124583,55.9432347 C36.6684556,55.5805662 36.3004592,55.0365717 36.1084583,54.3112347 C35.9804576,53.8205656 35.948458,53.313904 36.0124583,52.7912347 C36.0764586,52.2685654 36.236457,51.7672371 36.4924583,51.2872347 C36.7484596,50.8072323 37.0951228,50.3752366 37.5324583,49.9912347 C37.9697938,49.6072328 38.487122,49.3085691 39.0844583,49.0952347 C39.2337924,49.0312344 39.4417903,48.9779016 39.7084583,48.9352347 C39.9751263,48.8925678 40.2524568,48.876568 40.5404583,48.8872347 C40.8284597,48.8979014 41.1217901,48.9565675 41.4204583,49.0632347 C41.7191264,49.1699019 41.996457,49.3512334 42.2524583,49.6072347 C42.2524583,49.2445662 42.247125,48.8445702 42.2364583,48.4072347 C42.2257916,47.9698992 42.2097917,47.5272369 42.1884583,47.0792347 C42.1671248,46.6312325 42.1404584,46.2099033 42.1084583,45.8152347 C42.0764581,45.4205661 42.0391252,45.0845694 41.9964583,44.8072347 C41.9537914,44.4872331 41.831126,44.2899017 41.6284583,44.2152347 C41.4257906,44.1405677 41.1751264,44.1565675 40.8764583,44.2632347 C40.3644557,44.4339022 39.7671284,44.7645656 39.0844583,45.2552347 C38.4017882,45.7459038 37.751128,46.2685653 37.1324583,46.8232347 C36.9404573,47.0152357 36.7217928,47.1005681 36.4764583,47.0792347 C36.2311237,47.0579013 36.0231258,46.9619022 35.8524583,46.7912347 C35.6817908,46.6205672 35.5857917,46.4232358 35.5644583,46.1992347 C35.5431248,45.9752336 35.6284573,45.735236 35.8204583,45.4792347 C36.1831268,45.0952328 36.588456,44.7005701 37.0364583,44.2952347 C37.4844605,43.8898993 37.9537892,43.521903 38.4444583,43.1912347 C38.9351274,42.8605664 39.4364557,42.5885691 39.9484583,42.3752347 C40.4604608,42.1619003 40.9724557,42.0445681 41.4844583,42.0232347 C42.2311287,42.0019013 42.8071229,42.1672329 43.2124583,42.5192347 C43.6177936,42.8712365 43.8631245,43.3245653 43.9484583,43.8792347 Z M40.2364583,50.7592347 C39.9591236,50.823235 39.6657932,50.956567 39.3564583,51.1592347 C39.0471234,51.3619024 38.7697928,51.6072333 38.5244583,51.8952347 C38.2791237,52.1832361 38.0977922,52.5032329 37.9804583,52.8552347 C37.8631244,53.2072365 37.8577911,53.5538997 37.9644583,53.8952347 C38.0071252,54.0232353 38.0977909,54.1192344 38.2364583,54.1832347 C38.3751256,54.247235 38.5297908,54.2579016 38.7004583,54.2152347 C39.2124608,54.1085675 39.7937884,53.9005696 40.4444583,53.5912347 C41.0951282,53.2818998 41.6124564,52.9459032 41.9964583,52.5832347 C41.9964583,52.4552341 41.9324589,52.2899024 41.8044583,52.0872347 C41.6764576,51.884567 41.5271258,51.6819024 41.3564583,51.4792347 C41.1857908,51.276567 40.999126,51.1005688 40.7964583,50.9512347 C40.5937906,50.8019006 40.4071258,50.7379013 40.2364583,50.7592347 Z M53.4204583,46.1512347 C53.3777914,45.9165669 53.3351252,45.6925691 53.2924583,45.4792347 C53.2497914,45.2659003 53.1431258,45.127235 52.9724583,45.0632347 C52.6097898,44.9565675 52.2257936,44.9459009 51.8204583,45.0312347 C51.4151229,45.1165685 51.0417933,45.2499005 50.7004583,45.4312347 C50.3591232,45.6125689 50.0711261,45.8152336 49.8364583,46.0392347 C49.6017904,46.2632358 49.4737917,46.4605672 49.4524583,46.6312347 C49.388458,46.9512363 49.4737904,47.2605665 49.7084583,47.5592347 C49.9431261,47.8579029 50.284456,48.1565665 50.7324583,48.4552347 C51.4791287,48.9032369 52.2577876,49.361899 53.0684583,49.8312347 C53.879129,50.3005704 54.5617888,50.7805656 55.1164583,51.2712347 C55.6711277,51.7619038 56.0497906,52.3005651 56.2524583,52.8872347 C56.455126,53.4739043 56.4071264,54.1405643 56.1084583,54.8872347 C55.8737904,55.4632376 55.4364615,55.9325662 54.7964583,56.2952347 C54.1564551,56.6579032 53.4524621,56.940567 52.6844583,57.1432347 C51.9164544,57.3459024 51.1484621,57.4845677 50.3804583,57.5592347 C49.6124544,57.6339017 48.9617943,57.6712347 48.4284583,57.6712347 C48.3004576,57.6712347 48.1457925,57.6232352 47.9644583,57.5272347 C47.783124,57.4312342 47.6124591,57.3192353 47.4524583,57.1912347 C47.2924575,57.0632341 47.1537922,56.9299021 47.0364583,56.7912347 C46.9191244,56.6525673 46.8604583,56.5299019 46.8604583,56.4232347 C46.8604583,56.0392328 47.0311232,55.7725688 47.3724583,55.6232347 C47.7137933,55.4739006 48.0657898,55.3992347 48.4284583,55.3992347 C48.9404608,55.3992347 49.4897887,55.3725683 50.0764583,55.3192347 C50.6631279,55.2659011 51.2231223,55.1805686 51.7564583,55.0632347 C52.2897943,54.9459008 52.7697895,54.7912357 53.1964583,54.5992347 C53.6231271,54.4072337 53.9217908,54.1619029 54.0924583,53.8632347 C54.2417924,53.6072334 54.1511266,53.3032365 53.8204583,52.9512347 C53.48979,52.5992329 53.052461,52.2312366 52.5084583,51.8472347 C51.9644556,51.4632328 51.3777948,51.0899032 50.7484583,50.7272347 C50.1191218,50.3645662 49.5804605,50.0339029 49.1324583,49.7352347 C48.684456,49.4365665 48.3004599,49.0792368 47.9804583,48.6632347 C47.6604567,48.2472326 47.457792,47.7299045 47.3724583,47.1112347 C47.3511248,46.5565653 47.468457,46.0232373 47.7244583,45.5112347 C47.9804596,44.9992321 48.3164562,44.5459033 48.7324583,44.1512347 C49.1484604,43.7565661 49.6231223,43.4419025 50.1564583,43.2072347 C50.6897943,42.9725669 51.2231223,42.8552347 51.7564583,42.8552347 C52.6737962,42.8979016 53.431122,43.1485657 54.0284583,43.6072347 C54.6257946,44.0659037 54.9777911,44.7432302 55.0844583,45.6392347 C55.0844583,45.9379029 55.0364588,46.1832337 54.9404583,46.3752347 C54.8444578,46.5672357 54.6791261,46.6845678 54.4444583,46.7272347 C54.1457901,46.7699016 53.9057925,46.7325686 53.7244583,46.6152347 C53.543124,46.4979008 53.4417917,46.3432357 53.4204583,46.1512347 Z M69.2924583,55.4312347 C68.9084564,55.1112331 68.6311258,54.7219037 68.4604583,54.2632347 C68.2897908,53.8045657 68.2044583,53.5005688 68.2044583,53.3512347 C67.9057901,49.9165509 68.0444554,46.5565845 68.6204583,43.2712347 C68.7271255,42.8232325 68.8444576,42.4179032 68.9724583,42.0552347 C69.1004589,41.6925662 69.2284576,41.5112347 69.3564583,41.5112347 C69.5057924,41.5112347 69.6657908,41.5539009 69.8364583,41.6392347 C70.0071258,41.7245685 70.1564576,41.8312341 70.2844583,41.9592347 C70.4124589,42.0872353 70.5137912,42.2259006 70.5884583,42.3752347 C70.6631253,42.5245688 70.7004583,42.6632341 70.7004583,42.7912347 C70.2737895,44.8819118 70.0444584,46.9672243 70.0124583,49.0472347 C69.9804581,51.1272451 70.0284576,53.201891 70.1564583,55.2712347 C70.1564583,55.4845691 70.0604592,55.6125678 69.8684583,55.6552347 C69.7617911,55.6765681 69.6604588,55.6605683 69.5644583,55.6072347 C69.4684578,55.5539011 69.377792,55.495235 69.2924583,55.4312347 Z M75.2444583,47.9112347 C75.8417946,47.9112347 76.4604551,47.8899016 77.1004583,47.8472347 C77.7404615,47.8045678 78.3484554,47.8472341 78.9244583,47.9752347 C79.6711287,48.1459022 80.2257898,48.5192318 80.5884583,49.0952347 C80.9511268,49.6712376 81.0044596,50.3325643 80.7484583,51.0792347 C80.5564573,51.6125707 80.2897933,52.1245656 79.9484583,52.6152347 C79.6071232,53.1059038 79.2177938,53.5645659 78.7804583,53.9912347 C78.3431228,54.4179035 77.8844607,54.8232328 77.4044583,55.2072347 C76.9244559,55.5912366 76.4604605,55.9538997 76.0124583,56.2952347 C75.7137901,56.4872357 75.4044599,56.5245686 75.0844583,56.4072347 C74.7644567,56.2899008 74.5191258,56.1245691 74.3484583,55.9112347 C73.9217895,55.4205656 73.9857888,55.1112353 74.5404583,54.9832347 C75.6284637,54.172564 76.567121,53.3672387 77.3564583,52.5672347 C78.1457956,51.7672307 78.7324564,50.9512389 79.1164583,50.1192347 C79.1591252,49.9699006 79.041793,49.8739016 78.7644583,49.8312347 C78.4871236,49.7885678 78.1404604,49.7779013 77.7244583,49.7992347 C77.3084562,49.8205681 76.8551274,49.8525678 76.3644583,49.8952347 C75.8737892,49.9379016 75.4364602,49.9805678 75.0524583,50.0232347 C74.9244576,50.0445681 74.7644592,50.0445681 74.5724583,50.0232347 C74.3804573,50.0019013 74.1884592,49.9485685 73.9964583,49.8632347 C73.8044573,49.7779009 73.6444589,49.6552355 73.5164583,49.4952347 C73.3884576,49.3352339 73.3244583,49.127236 73.3244583,48.8712347 C73.3884586,47.1858929 73.5217906,45.511243 73.7244583,43.8472347 C73.927126,42.1832264 74.1457904,40.6579083 74.3804583,39.2712347 C74.4231252,39.0579003 74.5244575,38.9299016 74.6844583,38.8872347 C74.8444591,38.8445678 75.0097908,38.8552344 75.1804583,38.9192347 C75.5431268,39.0899022 75.815124,39.3085667 75.9964583,39.5752347 C76.1777925,39.8419027 76.2471252,40.0925669 76.2044583,40.3272347 C76.1191245,40.7539035 76.0391253,41.201899 75.9644583,41.6712347 C75.8897912,42.1405704 75.8204586,42.6205656 75.7564583,43.1112347 C76.908464,43.0045675 77.9911199,42.9459014 79.0044583,42.9352347 C80.0177967,42.924568 80.9404541,42.9725675 81.7724583,43.0792347 C82.049793,43.1219016 82.3324568,43.1699011 82.6204583,43.2232347 C82.9084597,43.2765683 83.2124567,43.3565675 83.5324583,43.4632347 C83.7671261,43.5059016 83.9484576,43.6392336 84.0764583,43.8632347 C84.2044589,44.0872358 84.1831258,44.2739006 84.0124583,44.4232347 C83.6497898,44.5939022 83.3457928,44.7165677 83.1004583,44.7912347 C82.8551237,44.8659017 82.7111252,44.9032347 82.6684583,44.9032347 C80.087112,44.7752341 77.6978026,44.8818997 75.5004583,45.2232347 C75.4577914,45.7139038 75.4151252,46.1885657 75.3724583,46.6472347 C75.3297914,47.1059037 75.2871252,47.5272328 75.2444583,47.9112347 Z M104.460458,45.6392347 C104.524459,46.7912405 104.593791,47.9538955 104.668458,49.1272347 C104.743125,50.3005739 104.759125,51.4578957 104.716458,52.5992347 C104.673791,53.7405737 104.561793,54.8552293 104.380458,55.9432347 C104.199124,57.0312401 103.895127,58.0712297 103.468458,59.0632347 C103.041789,60.0552397 102.471129,60.9778971 101.756458,61.8312347 C101.041788,62.6845723 100.140464,63.4525646 99.0524583,64.1352347 C98.8817908,64.2419019 98.695126,64.3059013 98.4924583,64.3272347 C98.2897906,64.3485681 98.0924592,64.3432349 97.9004583,64.3112347 C97.7084573,64.2792345 97.5377924,64.2259017 97.3884583,64.1512347 C97.2391242,64.0765677 97.1431252,63.9752353 97.1004583,63.8472347 C97.036458,63.6552337 97.0684576,63.4419025 97.1964583,63.2072347 C97.3244589,62.9725669 97.5377901,62.727236 97.8364583,62.4712347 C98.7751296,61.7672312 99.5644551,61.020572 100.204458,60.2312347 C100.844461,59.4418974 101.356456,58.5885726 101.740458,57.6712347 C102.12446,56.7538968 102.375124,55.7565734 102.492458,54.6792347 C102.609792,53.601896 102.604459,52.4232411 102.476458,51.1432347 C102.220457,51.4632363 101.921793,51.7938997 101.580458,52.1352347 C101.239123,52.4765697 100.87646,52.7805667 100.492458,53.0472347 C100.108456,53.3139027 99.7137936,53.5379005 99.3084583,53.7192347 C98.9031229,53.9005689 98.5191268,53.9912347 98.1564583,53.9912347 C97.8577901,53.9912347 97.5591264,53.9272353 97.2604583,53.7992347 C96.9617901,53.6712341 96.6631264,53.4259032 96.3644583,53.0632347 C96.0231232,52.6152325 95.7191263,52.1085709 95.4524583,51.5432347 C95.1857903,50.9778985 94.9564592,50.4285707 94.7644583,49.8952347 C94.5724573,49.3618987 94.4177922,48.8819035 94.3004583,48.4552347 C94.1831244,48.0285659 94.1137917,47.7299022 94.0924583,47.5592347 C94.0497914,47.3459003 94.0497914,47.1432357 94.0924583,46.9512347 C94.1351252,46.7592337 94.2737904,46.6419016 94.5084583,46.5992347 C94.8284599,46.5352344 95.1271236,46.5565675 95.4044583,46.6632347 C95.681793,46.7699019 95.8737911,46.9405669 95.9804583,47.1752347 C96.065792,47.4099025 96.1831242,47.7725656 96.3324583,48.2632347 C96.4817924,48.7539038 96.6631239,49.2392323 96.8764583,49.7192347 C97.0897927,50.1992371 97.3191237,50.6205662 97.5644583,50.9832347 C97.8097928,51.3459032 98.0711236,51.5272347 98.3484583,51.5272347 C98.6684599,51.5272347 99.0471228,51.3672363 99.4844583,51.0472347 C99.9217938,50.7272331 100.343123,50.3112373 100.748458,49.7992347 C101.153794,49.2872321 101.500457,48.7165712 101.788458,48.0872347 C102.07646,47.4578982 102.220458,46.844571 102.220458,46.2472347 C102.220458,46.1192341 102.241791,45.9699022 102.284458,45.7992347 C102.327125,45.6285672 102.391125,45.4632355 102.476458,45.3032347 C102.561792,45.1432339 102.663124,45.0045686 102.780458,44.8872347 C102.897792,44.7699008 103.020458,44.7005681 103.148458,44.6792347 C103.489793,44.6365678 103.79379,44.7272336 104.060458,44.9512347 C104.327126,45.1752358 104.460458,45.4045669 104.460458,45.6392347 Z M115.276458,48.1992347 C114.444454,48.6899038 113.548463,49.0685667 112.588458,49.3352347 C111.628453,49.6019027 110.593797,49.7352347 109.484458,49.7352347 C109.527125,50.4819051 109.740456,51.0738992 110.124458,51.5112347 C110.50846,51.9485702 110.988455,52.2099009 111.564458,52.2952347 C111.905793,52.3379016 112.252457,52.327235 112.604458,52.2632347 C112.95646,52.1992344 113.287123,52.0979021 113.596458,51.9592347 C113.905793,51.8205673 114.188457,51.6659022 114.444458,51.4952347 C114.70046,51.3245672 114.924457,51.1539022 115.116458,50.9832347 C115.308459,50.8125672 115.511124,50.7005683 115.724458,50.6472347 C115.937793,50.5939011 116.097791,50.5885678 116.204458,50.6312347 C116.503126,50.7379019 116.609792,51.0578987 116.524458,51.5912347 C116.183123,52.2739048 115.692461,52.8552323 115.052458,53.3352347 C114.412455,53.8152371 113.697796,54.1192341 112.908458,54.2472347 C112.225788,54.3752353 111.521795,54.3432357 110.796458,54.1512347 C110.071121,53.9592337 109.420461,53.5859041 108.844458,53.0312347 C108.353789,52.5405656 107.98046,51.9645713 107.724458,51.3032347 C107.468457,50.6418981 107.308459,49.9592382 107.244458,49.2552347 C107.180458,48.5938981 107.239124,47.964571 107.420458,47.3672347 C107.601793,46.7698984 107.884456,46.2419037 108.268458,45.7832347 C108.65246,45.3245657 109.132455,44.9459029 109.708458,44.6472347 C110.284461,44.3485665 110.956454,44.1779016 111.724458,44.1352347 C112.641796,44.0712344 113.473788,44.2418993 114.220458,44.6472347 C114.967129,45.0525701 115.48979,45.6178977 115.788458,46.3432347 C115.959126,46.7485701 116.007125,47.1005665 115.932458,47.3992347 C115.857791,47.6979029 115.639127,47.9645669 115.276458,48.1992347 Z M111.596458,46.0232347 C111.383124,46.0659016 111.153793,46.1405675 110.908458,46.2472347 C110.663124,46.3539019 110.439126,46.4872339 110.236458,46.6472347 C110.033791,46.8072355 109.852459,46.988567 109.692458,47.1912347 C109.532457,47.3939024 109.441792,47.6232334 109.420458,47.8792347 C109.783127,47.8792347 110.183123,47.847235 110.620458,47.7832347 C111.057794,47.7192344 111.484456,47.6392352 111.900458,47.5432347 C112.31646,47.4472342 112.700457,47.3352353 113.052458,47.2072347 C113.40446,47.0792341 113.69779,46.9405688 113.932458,46.7912347 C113.761791,46.3858993 113.447127,46.1352352 112.988458,46.0392347 C112.529789,45.9432342 112.065794,45.9379009 111.596458,46.0232347 Z M126.764458,43.8792347 C126.849792,44.476571 126.919125,45.1112313 126.972458,45.7832347 C127.025792,46.4552381 127.068458,47.1325646 127.100458,47.8152347 C127.132458,48.4979048 127.148458,49.1592315 127.148458,49.7992347 C127.148458,50.4392379 127.137792,51.0152321 127.116458,51.5272347 C127.799128,51.9965704 128.209791,52.4125662 128.348458,52.7752347 C128.487126,53.1379032 128.503125,53.4579 128.396458,53.7352347 C128.268458,54.1192366 128.039127,54.316568 127.708458,54.3272347 C127.37779,54.3379014 126.999127,54.2259025 126.572458,53.9912347 C126.27379,54.2045691 125.93246,54.4339001 125.548458,54.6792347 C125.164456,54.9245693 124.759127,55.1592336 124.332458,55.3832347 C123.905789,55.6072358 123.479127,55.8045672 123.052458,55.9752347 C122.625789,56.1459022 122.231127,56.2632344 121.868458,56.3272347 C121.185788,56.4339019 120.572461,56.3059032 120.028458,55.9432347 C119.484456,55.5805662 119.116459,55.0365717 118.924458,54.3112347 C118.796458,53.8205656 118.764458,53.313904 118.828458,52.7912347 C118.892459,52.2685654 119.052457,51.7672371 119.308458,51.2872347 C119.56446,50.8072323 119.911123,50.3752366 120.348458,49.9912347 C120.785794,49.6072328 121.303122,49.3085691 121.900458,49.0952347 C122.049792,49.0312344 122.25779,48.9779016 122.524458,48.9352347 C122.791126,48.8925678 123.068457,48.876568 123.356458,48.8872347 C123.64446,48.8979014 123.93779,48.9565675 124.236458,49.0632347 C124.535126,49.1699019 124.812457,49.3512334 125.068458,49.6072347 C125.068458,49.2445662 125.063125,48.8445702 125.052458,48.4072347 C125.041792,47.9698992 125.025792,47.5272369 125.004458,47.0792347 C124.983125,46.6312325 124.956458,46.2099033 124.924458,45.8152347 C124.892458,45.4205661 124.855125,45.0845694 124.812458,44.8072347 C124.769791,44.4872331 124.647126,44.2899017 124.444458,44.2152347 C124.241791,44.1405677 123.991126,44.1565675 123.692458,44.2632347 C123.180456,44.4339022 122.583128,44.7645656 121.900458,45.2552347 C121.217788,45.7459038 120.567128,46.2685653 119.948458,46.8232347 C119.756457,47.0152357 119.537793,47.1005681 119.292458,47.0792347 C119.047124,47.0579013 118.839126,46.9619022 118.668458,46.7912347 C118.497791,46.6205672 118.401792,46.4232358 118.380458,46.1992347 C118.359125,45.9752336 118.444457,45.735236 118.636458,45.4792347 C118.999127,45.0952328 119.404456,44.7005701 119.852458,44.2952347 C120.300461,43.8898993 120.769789,43.521903 121.260458,43.1912347 C121.751127,42.8605664 122.252456,42.5885691 122.764458,42.3752347 C123.276461,42.1619003 123.788456,42.0445681 124.300458,42.0232347 C125.047129,42.0019013 125.623123,42.1672329 126.028458,42.5192347 C126.433794,42.8712365 126.679125,43.3245653 126.764458,43.8792347 Z M123.052458,50.7592347 C122.775124,50.823235 122.481793,50.956567 122.172458,51.1592347 C121.863123,51.3619024 121.585793,51.6072333 121.340458,51.8952347 C121.095124,52.1832361 120.913792,52.5032329 120.796458,52.8552347 C120.679124,53.2072365 120.673791,53.5538997 120.780458,53.8952347 C120.823125,54.0232353 120.913791,54.1192344 121.052458,54.1832347 C121.191126,54.247235 121.345791,54.2579016 121.516458,54.2152347 C122.028461,54.1085675 122.609788,53.9005696 123.260458,53.5912347 C123.911128,53.2818998 124.428456,52.9459032 124.812458,52.5832347 C124.812458,52.4552341 124.748459,52.2899024 124.620458,52.0872347 C124.492458,51.884567 124.343126,51.6819024 124.172458,51.4792347 C124.001791,51.276567 123.815126,51.1005688 123.612458,50.9512347 C123.409791,50.8019006 123.223126,50.7379013 123.052458,50.7592347 Z M139.820458,44.6792347 C139.436456,44.8925691 139.03646,45.1165669 138.620458,45.3512347 C138.204456,45.5859025 137.78846,45.8578998 137.372458,46.1672347 C136.956456,46.4765696 136.561793,46.8392326 136.188458,47.2552347 C135.815123,47.6712368 135.479126,48.1672318 135.180458,48.7432347 C134.753789,49.5539054 134.465792,50.3805638 134.316458,51.2232347 C134.167124,52.0659056 134.071125,52.892564 134.028458,53.7032347 C134.028458,54.0872366 133.937793,54.4765661 133.756458,54.8712347 C133.575124,55.2659033 133.32446,55.4632347 133.004458,55.4632347 C132.599123,55.4632347 132.273793,55.2552368 132.028458,54.8392347 C131.783124,54.4232326 131.617792,54.0232366 131.532458,53.6392347 C131.16979,52.1245605 130.871126,50.6259088 130.636458,49.1432347 C130.40179,47.6605606 130.199126,46.1832421 130.028458,44.7112347 C130.028458,44.4125665 130.119124,44.2205685 130.300458,44.1352347 C130.481793,44.0499009 130.68979,44.0179013 130.924458,44.0392347 C131.18046,44.0605681 131.42579,44.1245675 131.660458,44.2312347 C131.895126,44.3379019 132.033791,44.5085669 132.076458,44.7432347 C132.161792,45.532572 132.268458,46.3592304 132.396458,47.2232347 C132.524459,48.087239 132.652458,48.8285649 132.780458,49.4472347 C132.865792,48.7218977 133.100456,48.0179048 133.484458,47.3352347 C133.86846,46.6525646 134.343122,46.0339041 134.908458,45.4792347 C135.473794,44.9245653 136.113788,44.4552366 136.828458,44.0712347 C137.543129,43.6872328 138.273788,43.4312353 139.020458,43.3032347 C139.34046,43.2605678 139.607124,43.2605678 139.820458,43.3032347 C140.033793,43.3459016 140.183125,43.4205675 140.268458,43.5272347 C140.353792,43.6339019 140.369792,43.8045669 140.316458,44.0392347 C140.263125,44.2739025 140.097793,44.4872337 139.820458,44.6792347 Z M147.724458,46.1512347 C147.681791,45.9165669 147.639125,45.6925691 147.596458,45.4792347 C147.553791,45.2659003 147.447126,45.127235 147.276458,45.0632347 C146.91379,44.9565675 146.529794,44.9459009 146.124458,45.0312347 C145.719123,45.1165685 145.345793,45.2499005 145.004458,45.4312347 C144.663123,45.6125689 144.375126,45.8152336 144.140458,46.0392347 C143.90579,46.2632358 143.777792,46.4605672 143.756458,46.6312347 C143.692458,46.9512363 143.77779,47.2605665 144.012458,47.5592347 C144.247126,47.8579029 144.588456,48.1565665 145.036458,48.4552347 C145.783129,48.9032369 146.561788,49.361899 147.372458,49.8312347 C148.183129,50.3005704 148.865789,50.7805656 149.420458,51.2712347 C149.975128,51.7619038 150.353791,52.3005651 150.556458,52.8872347 C150.759126,53.4739043 150.711126,54.1405643 150.412458,54.8872347 C150.17779,55.4632376 149.740461,55.9325662 149.100458,56.2952347 C148.460455,56.6579032 147.756462,56.940567 146.988458,57.1432347 C146.220454,57.3459024 145.452462,57.4845677 144.684458,57.5592347 C143.916454,57.6339017 143.265794,57.6712347 142.732458,57.6712347 C142.604458,57.6712347 142.449793,57.6232352 142.268458,57.5272347 C142.087124,57.4312342 141.916459,57.3192353 141.756458,57.1912347 C141.596457,57.0632341 141.457792,56.9299021 141.340458,56.7912347 C141.223124,56.6525673 141.164458,56.5299019 141.164458,56.4232347 C141.164458,56.0392328 141.335123,55.7725688 141.676458,55.6232347 C142.017793,55.4739006 142.36979,55.3992347 142.732458,55.3992347 C143.244461,55.3992347 143.793789,55.3725683 144.380458,55.3192347 C144.967128,55.2659011 145.527122,55.1805686 146.060458,55.0632347 C146.593794,54.9459008 147.073789,54.7912357 147.500458,54.5992347 C147.927127,54.4072337 148.225791,54.1619029 148.396458,53.8632347 C148.545792,53.6072334 148.455127,53.3032365 148.124458,52.9512347 C147.79379,52.5992329 147.356461,52.2312366 146.812458,51.8472347 C146.268456,51.4632328 145.681795,51.0899032 145.052458,50.7272347 C144.423122,50.3645662 143.884461,50.0339029 143.436458,49.7352347 C142.988456,49.4365665 142.60446,49.0792368 142.284458,48.6632347 C141.964457,48.2472326 141.761792,47.7299045 141.676458,47.1112347 C141.655125,46.5565653 141.772457,46.0232373 142.028458,45.5112347 C142.28446,44.9992321 142.620456,44.5459033 143.036458,44.1512347 C143.45246,43.7565661 143.927122,43.4419025 144.460458,43.2072347 C144.993794,42.9725669 145.527122,42.8552347 146.060458,42.8552347 C146.977796,42.8979016 147.735122,43.1485657 148.332458,43.6072347 C148.929795,44.0659037 149.281791,44.7432302 149.388458,45.6392347 C149.388458,45.9379029 149.340459,46.1832337 149.244458,46.3752347 C149.148458,46.5672357 148.983126,46.6845678 148.748458,46.7272347 C148.44979,46.7699016 148.209793,46.7325686 148.028458,46.6152347 C147.847124,46.4979008 147.745792,46.3432357 147.724458,46.1512347 Z M168.908458,44.5512347 C169.548461,44.7859025 170.087123,45.137899 170.524458,45.6072347 C170.961794,46.0765704 171.29779,46.6045651 171.532458,47.1912347 C171.767126,47.7779043 171.900458,48.3805649 171.932458,48.9992347 C171.964458,49.6179045 171.895126,50.1938987 171.724458,50.7272347 C171.48979,51.324571 171.191127,51.9112318 170.828458,52.4872347 C170.46579,53.0632376 170.049794,53.5752325 169.580458,54.0232347 C169.111123,54.4712369 168.577795,54.8339 167.980458,55.1112347 C167.383122,55.3885694 166.721795,55.5272347 165.996458,55.5272347 C165.121787,55.5272347 164.385795,55.3245701 163.788458,54.9192347 C163.191122,54.5138993 162.721793,53.9912379 162.380458,53.3512347 C162.039123,52.7112315 161.820459,51.9859054 161.724458,51.1752347 C161.628458,50.364564 161.644458,49.5539054 161.772458,48.7432347 C161.857792,48.1458984 162.001791,47.5645709 162.204458,46.9992347 C162.407126,46.4338985 162.668457,45.9325702 162.988458,45.4952347 C163.30846,45.0578992 163.676456,44.7005694 164.092458,44.4232347 C164.50846,44.1459 164.983122,44.0072347 165.516458,44.0072347 C165.815126,44.0072347 166.188456,44.0659008 166.636458,44.1832347 C167.084461,44.3005686 167.500456,44.4659003 167.884458,44.6792347 C168.161793,44.4232334 168.503123,44.3805672 168.908458,44.5512347 Z M167.692458,46.8872347 C167.45779,46.7379006 167.185793,46.5405693 166.876458,46.2952347 C166.567123,46.0499001 166.295126,45.9272347 166.060458,45.9272347 C165.804457,45.9272347 165.553793,46.0445669 165.308458,46.2792347 C165.063124,46.5139025 164.849793,46.7858998 164.668458,47.0952347 C164.487124,47.4045696 164.332459,47.7192331 164.204458,48.0392347 C164.076458,48.3592363 163.991125,48.6152337 163.948458,48.8072347 C163.884458,49.1272363 163.841792,49.5112325 163.820458,49.9592347 C163.799125,50.4072369 163.831125,50.8498992 163.916458,51.2872347 C164.001792,51.7245702 164.167124,52.1192329 164.412458,52.4712347 C164.657793,52.8232365 165.025789,53.0739006 165.516458,53.2232347 C165.815126,53.3085685 166.167123,53.3032352 166.572458,53.2072347 C166.977794,53.1112342 167.37779,52.935236 167.772458,52.6792347 C168.167127,52.4232334 168.540457,52.0819035 168.892458,51.6552347 C169.24446,51.2285659 169.516457,50.7379041 169.708458,50.1832347 C169.921793,49.5645649 169.927126,48.9192381 169.724458,48.2472347 C169.521791,47.5752313 169.111128,47.0899029 168.492458,46.7912347 C168.343124,46.8979019 168.193792,46.9512347 168.044458,46.9512347 C167.895124,46.9512347 167.777792,46.9299016 167.692458,46.8872347 Z M177.164458,40.7432347 C177.271125,43.0685797 177.452457,45.4738889 177.708458,47.9592347 C177.96446,50.4445805 178.24179,52.8178901 178.540458,55.0792347 C178.604459,56.0179061 178.348461,56.4979013 177.772458,56.5192347 C177.644458,56.5192347 177.516459,56.4712352 177.388458,56.3752347 C177.260458,56.2792342 177.143125,56.1565688 177.036458,56.0072347 C176.929791,55.8579006 176.828459,55.6979022 176.732458,55.5272347 C176.636458,55.3565672 176.577792,55.2072353 176.556458,55.0792347 C176.385791,53.9912293 176.225792,52.8392408 176.076458,51.6232347 C175.927124,50.4072286 175.793792,49.1859075 175.676458,47.9592347 C175.559124,46.7325619 175.457792,45.5325739 175.372458,44.3592347 C175.287125,43.1858955 175.233792,42.1085729 175.212458,41.1272347 C175.255125,40.6152321 175.329791,40.1832365 175.436458,39.8312347 C175.543125,39.4792329 175.767123,39.3139013 176.108458,39.3352347 C176.471127,39.3565681 176.732457,39.5005667 176.892458,39.7672347 C177.052459,40.0339027 177.143125,40.3592328 177.164458,40.7432347 Z M186.572458,39.4952347 C186.508458,39.1112328 186.535124,38.7592363 186.652458,38.4392347 C186.769792,38.1192331 187.00979,37.9379016 187.372458,37.8952347 C187.69246,37.8525678 187.975124,37.9379003 188.220458,38.1512347 C188.465793,38.3645691 188.620458,38.6418997 188.684458,38.9832347 C189.111127,41.4365803 189.511123,43.8738893 189.884458,46.2952347 C190.257793,48.7165801 190.59379,51.0898897 190.892458,53.4152347 C190.977792,54.0339045 190.935126,54.4552336 190.764458,54.6792347 C190.593791,54.9032358 190.391126,55.0685675 190.156458,55.1752347 C189.900457,55.2819019 189.660459,55.2819019 189.436458,55.1752347 C189.212457,55.0685675 189.068459,54.8765694 189.004458,54.5992347 L188.972458,54.4072347 L188.844458,54.4392347 C188.140455,54.695236 187.404462,54.8392345 186.636458,54.8712347 C185.868454,54.9032349 185.132462,54.8125691 184.428458,54.5992347 C183.724455,54.3859003 183.100461,54.0392371 182.556458,53.5592347 C182.012456,53.0792323 181.623126,52.4659051 181.388458,51.7192347 C180.876456,50.0765598 181.196453,48.5832414 182.348458,47.2392347 C182.839127,46.6845653 183.447121,46.1832369 184.172458,45.7352347 C184.897795,45.2872325 185.772453,44.935236 186.796458,44.6792347 L187.372458,44.5512347 L186.572458,39.4952347 Z M183.340458,50.9192347 C183.468459,51.4312373 183.703123,51.8259 184.044458,52.1032347 C184.385793,52.3805694 184.791123,52.5672342 185.260458,52.6632347 C185.729794,52.7592352 186.231122,52.775235 186.764458,52.7112347 C187.297794,52.6472344 187.820456,52.5299022 188.332458,52.3592347 L188.620458,52.2632347 L187.724458,46.6312347 L187.084458,46.7912347 C186.636456,46.9192353 186.161794,47.1165667 185.660458,47.3832347 C185.159122,47.6499027 184.71646,47.9645662 184.332458,48.3272347 C183.948456,48.6899032 183.655126,49.0952325 183.452458,49.5432347 C183.249791,49.9912369 183.212458,50.449899 183.340458,50.9192347 Z M197.644458,38.9512347 C197.452457,39.8899061 197.255126,40.8178968 197.052458,41.7352347 C196.849791,42.6525726 196.663126,43.5698968 196.492458,44.4872347 C196.321791,45.4045726 196.193792,46.3218968 196.108458,47.2392347 C196.023125,48.1565726 196.012458,49.0738968 196.076458,49.9912347 C196.119125,50.2259025 196.081792,50.4499003 195.964458,50.6632347 C195.847124,50.8765691 195.713792,51.0152344 195.564458,51.0792347 C195.095123,51.2499022 194.753793,51.1325701 194.540458,50.7272347 C194.284457,49.6392293 194.151125,48.5619067 194.140458,47.4952347 C194.129792,46.4285627 194.204457,45.3725733 194.364458,44.3272347 C194.524459,43.2818961 194.73779,42.2419065 195.004458,41.2072347 C195.271126,40.1725629 195.543124,39.1432398 195.820458,38.1192347 C195.927125,37.6925659 196.09779,37.4579016 196.332458,37.4152347 C196.567126,37.3725678 196.791124,37.3939009 197.004458,37.4792347 C197.32446,37.5859019 197.527125,37.7992331 197.612458,38.1192347 C197.697792,38.4392363 197.708459,38.7165669 197.644458,38.9512347 Z M196.364458,56.1672347 C196.364458,56.4019025 196.337792,56.7165661 196.284458,57.1112347 C196.231125,57.5059033 196.145792,57.8738997 196.028458,58.2152347 C195.911124,58.5565697 195.751126,58.8339003 195.548458,59.0472347 C195.345791,59.2605691 195.095126,59.3032353 194.796458,59.1752347 C194.625791,59.0685675 194.455126,58.8659029 194.284458,58.5672347 C194.113791,58.2685665 194.039125,57.991236 194.060458,57.7352347 C194.103125,57.2232321 194.209791,56.7219038 194.380458,56.2312347 C194.551126,55.7405656 194.775124,55.4419019 195.052458,55.3352347 C195.180459,55.2925678 195.324457,55.2925678 195.484458,55.3352347 C195.644459,55.3779016 195.788458,55.4472342 195.916458,55.5432347 C196.044459,55.6392352 196.151125,55.7459008 196.236458,55.8632347 C196.321792,55.9805686 196.364458,56.0819009 196.364458,56.1672347 Z"></path>
                </g>
                <g transform="translate(246.331002, 34.973041) scale(-1, 1) rotate(72.000000) translate(-246.331002, -34.973041) translate(218.331002, 7.973041)" stroke-width="2" stroke="#25262A">
                    <path d="M12.3908003,40.6211634 C12.3908003,40.6211634 44.046512,68.1405414 46.7928958,6.99367836" transform="translate(29.591848, 26.895163) rotate(36.000000) translate(-29.591848, -26.895163) "></path>
                    <path d="M4.51463167,35.2873945 C4.51463167,35.2873945 3.9554607,31.6499229 3.79643944,30.9181026 C3.63741817,30.1862823 1.90439033,26.336013 1.90439033,26.336013 C1.90439033,26.336013 4.59736997,26.7724567 6.98956143,26.5303066 C9.38175289,26.2881564 12.2539914,26.397308 12.2539914,26.397308" transform="translate(7.079191, 30.811704) rotate(46.000000) translate(-7.079191, -30.811704) "></path>
                </g>
            </g>
        </g>
    </g>
</svg>