<?xml version="1.0" encoding="UTF-8"?>
<svg width="675px" height="85px" viewBox="0 0 675 85" version="1.1" xmlns="http://www.w3.org/2000/svg" xmlns:xlink="http://www.w3.org/1999/xlink">
    <!-- Generator: Sketch 47.1 (45422) - http://www.bohemiancoding.com/sketch -->
    <title>Artboard 3</title>
    <desc>Created with Sketch.</desc>
    <defs></defs>
    <g stroke="none" stroke-width="1" fill="none" fill-rule="evenodd">
        <g>
            <g transform="translate(-8.000000, -17.000000)">
                <text transform="translate(396.873963, 54.715448) rotate(-4.000000) translate(-396.873963, -54.715448) " font-family="NanumPen, Nanum Pen Script" font-size="34" font-weight="normal" line-spacing="32" fill="#000000">
                    <tspan x="72.1621997" y="53.715448">Eyal was featured on the cover of the 50th </tspan>
                    <tspan x="72.1621997" y="85.715448">anniversary collector’s issue of black belt magazine</tspan>
                </text>
                <g transform="translate(34.036807, 54.894258) rotate(25.000000) translate(-34.036807, -54.894258) translate(8.536807, 29.394258)" stroke-width="2" stroke="#25262A">
                    <path d="M8.02068371,43.773571 C8.02068371,43.773571 45.2303854,36.4714864 43.1474844,7.43598314" transform="translate(25.626231, 25.604777) rotate(36.000000) translate(-25.626231, -25.604777) "></path>
                    <path d="M7.93554687,41.6601563 C7.93554687,41.6601563 6.99121305,35.5171559 6.72265625,34.28125 C6.45409945,33.0453441 3.52734375,26.5429688 3.52734375,26.5429688 C3.52734375,26.5429688 8.07527619,27.2800395 12.1152344,26.8710938 C16.1551926,26.462148 21.0058594,26.6464844 21.0058594,26.6464844" transform="translate(12.266602, 34.101563) rotate(-25.000000) translate(-12.266602, -34.101563) "></path>
                </g>
            </g>
        </g>
    </g>
</svg>