<?xml version="1.0" encoding="UTF-8"?>
<svg width="263px" height="84px" viewBox="0 0 263 84" version="1.1" xmlns="http://www.w3.org/2000/svg" xmlns:xlink="http://www.w3.org/1999/xlink">
    <!-- Generator: Sketch 47.1 (45422) - http://www.bohemiancoding.com/sketch -->
    <title>Artboard 3</title>
    <desc>Created with Sketch.</desc>
    <defs></defs>
    <g stroke="none" stroke-width="1" fill="none" fill-rule="evenodd">
        <g>
            <g transform="translate(-3.000000, -10.000000)">
                <text transform="translate(111.932473, 61.719235) rotate(-4.000000) translate(-111.932473, -61.719235) " font-family="NanumPen, Nanum Pen Script" font-size="32" font-weight="normal" line-spacing="30" fill="#25262A">
                    <tspan x="2.78045828" y="60.7192347">Imi and I back when </tspan>
                    <tspan x="2.78045828" y="90.7192347">I was 15 years old!</tspan>
                </text>
                <g transform="translate(246.331002, 34.973041) scale(-1, 1) rotate(72.000000) translate(-246.331002, -34.973041) translate(218.331002, 7.973041)" stroke-width="2" stroke="#25262A">
                    <path d="M12.3908006,40.6211633 C12.3908006,40.6211633 44.0465123,68.1405413 46.7928961,6.99367822" transform="translate(29.591848, 26.895163) rotate(36.000000) translate(-29.591848, -26.895163) "></path>
                    <path d="M4.51463156,35.2873947 C4.51463156,35.2873947 3.95546059,31.6499231 3.79643933,30.9181028 C3.63741806,30.1862825 1.90439022,26.3360132 1.90439022,26.3360132 C1.90439022,26.3360132 4.59736986,26.7724569 6.98956132,26.5303068 C9.38175278,26.2881566 12.2539913,26.3973082 12.2539913,26.3973082" transform="translate(7.079191, 30.811704) rotate(46.000000) translate(-7.079191, -30.811704) "></path>
                </g>
            </g>
        </g>
    </g>
</svg>