<?xml version="1.0" encoding="UTF-8"?>
<svg width="177px" height="34px" viewBox="0 0 177 34" version="1.1" xmlns="http://www.w3.org/2000/svg" xmlns:xlink="http://www.w3.org/1999/xlink">
    <!-- Generator: Sketch 47.1 (45422) - http://www.bohemiancoding.com/sketch -->
    <title>Artboard 9</title>
    <desc>Created with Sketch.</desc>
    <defs></defs>
    <g stroke="none" stroke-width="1" fill="none" fill-rule="evenodd">
        <g>
            <path d="M29.3955619,25.8439842 C29.3222282,26.0933187 29.2268958,26.3169832 29.1095619,26.5149842 C28.992228,26.7129852 28.8675626,26.8266507 28.7355619,26.8559842 C28.4568938,26.9293179 28.2442293,26.8853183 28.0975619,26.7239842 C27.9508945,26.56265 27.8922284,26.3573187 27.9215619,26.1079842 C28.0388958,25.2279798 28.2295606,24.3003224 28.4935619,23.3249842 C28.7575632,22.349646 29.0655601,21.3743224 29.4175619,20.3989842 C29.7695637,19.423646 30.1545598,18.4776554 30.5725619,17.5609842 C30.990564,16.6443129 31.4195597,15.8119879 31.8595619,15.0639842 C31.9328956,14.9466502 32.0172281,14.8769843 32.1125619,14.8549842 C32.2078957,14.8329841 32.2922282,14.8366507 32.3655619,14.8659842 C32.4388956,14.8073172 32.5268947,14.7559844 32.6295619,14.7119842 C32.7322291,14.6679839 32.8348947,14.6459842 32.9375619,14.6459842 C32.9815621,14.6459842 33.0292283,14.6533174 33.0805619,14.6679842 C33.1318955,14.6826509 33.1868949,14.7266505 33.2455619,14.7999842 C33.3042289,14.8733179 33.3738948,14.9796501 33.4545619,15.1189842 C33.535229,15.2583182 33.634228,15.4599828 33.7515619,15.7239842 C33.9568963,16.4719879 34.1952272,17.2419802 34.4665619,18.0339842 C34.7378966,18.8259881 35.0202271,19.6179802 35.3135619,20.4099842 C35.3575621,20.3953174 35.397895,20.3843175 35.4345619,20.3769842 C35.4712287,20.3696508 35.5115617,20.3586509 35.5555619,20.3439842 C35.716896,20.3293174 35.9002275,20.3366507 36.1055619,20.3659842 C36.3108963,20.3953176 36.4502282,20.4979833 36.5235619,20.6739842 C36.6115623,20.8939853 36.5968958,21.08465 36.4795619,21.2459842 C36.362228,21.4073183 36.1495634,21.56865 35.8415619,21.7299842 C36.0322295,22.1993198 36.2228943,22.6576486 36.4135619,23.1049842 C36.6042295,23.5523197 36.8022275,23.9886487 37.0075619,24.4139842 C37.0222286,24.4873179 37.0442284,24.6009834 37.0735619,24.7549842 C37.1028954,24.9089849 37.1212285,25.0629834 37.1285619,25.2169842 C37.1358953,25.3709849 37.1248954,25.5139835 37.0955619,25.6459842 C37.0662284,25.7779848 37.0075623,25.8659839 36.9195619,25.9099842 C36.8168947,25.9539844 36.7105624,25.9466511 36.6005619,25.8879842 C36.4905613,25.8293172 36.3842291,25.752318 36.2815619,25.6569842 C36.1788947,25.5616504 36.087229,25.4589847 36.0065619,25.3489842 C35.9258948,25.2389836 35.8635621,25.1399846 35.8195619,25.0519842 C35.5702273,24.5679817 35.3318964,24.08032 35.1045619,23.5889842 C34.8772274,23.0976484 34.6608963,22.6026533 34.4555619,22.1039842 C33.8395588,22.2213181 33.1685655,22.3239837 32.4425619,22.4119842 C31.7165583,22.4999846 31.0015654,22.5586507 30.2975619,22.5879842 C30.1362278,23.1453203 29.9785627,23.6916482 29.8245619,24.2269842 C29.6705611,24.7623202 29.5275626,25.3013148 29.3955619,25.8439842 Z M32.5195619,16.6039842 C31.8448919,18.1146584 31.2582311,19.6253099 30.7595619,21.1359842 C31.7422335,21.1066507 32.7908897,20.9819853 33.9055619,20.7619842 C33.3775593,19.4273108 32.9155639,18.0413247 32.5195619,16.6039842 Z M39.9555619,18.5619842 C39.9995621,18.7819853 40.0472283,19.0276495 40.0985619,19.2989842 C40.1498955,19.5703189 40.2048949,19.8489827 40.2635619,20.1349842 C40.3222289,20.4209856 40.3735617,20.7106494 40.4175619,21.0039842 C40.4615621,21.297319 40.4982284,21.5759828 40.5275619,21.8399842 C40.7035628,21.4586489 40.8942275,21.0553196 41.0995619,20.6299842 C41.3048963,20.2046487 41.5285607,19.8123193 41.7705619,19.4529842 C42.0125631,19.093649 42.2692272,18.796652 42.5405619,18.5619842 C42.8118966,18.3273163 43.1088936,18.2099842 43.4315619,18.2099842 C43.9155643,18.2099842 44.3225602,18.3859824 44.6525619,18.7379842 C44.9825635,19.0899859 45.2612274,19.5263149 45.4885619,20.0469842 C45.7158964,20.5676534 45.8955612,21.1139813 46.0275619,21.6859842 C46.1595626,22.257987 46.2695615,22.763982 46.3575619,23.2039842 C46.4455623,23.5999861 46.2695641,23.8933165 45.8295619,24.0839842 C45.6242275,24.1866513 45.4702291,24.2013179 45.3675619,24.1279842 C45.2648947,24.0546505 45.2062286,23.9813179 45.1915619,23.9079842 C45.1182282,23.7319833 45.0265624,23.4239864 44.9165619,22.9839842 C44.8065613,22.543982 44.6818959,22.0966531 44.5425619,21.6419842 C44.4032279,21.1873152 44.2455628,20.7913192 44.0695619,20.4539842 C43.893561,20.1166491 43.695563,19.9626507 43.4755619,19.9919842 C43.2115606,20.0066509 42.9768963,20.2046489 42.7715619,20.5859842 C42.595561,20.8939857 42.4158961,21.2349823 42.2325619,21.6089842 C42.0492276,21.982986 41.8695628,22.3643156 41.6935619,22.7529842 C41.517561,23.1416528 41.3452294,23.5303156 41.1765619,23.9189842 C41.0078944,24.3076528 40.8502293,24.6633159 40.7035619,24.9859842 C40.6008947,25.0886513 40.4725627,25.1583173 40.3185619,25.1949842 C40.1645611,25.231651 40.006896,25.2206511 39.8455619,25.1619842 C39.6988945,25.1179839 39.5815623,25.0446513 39.4935619,24.9419842 C39.4055615,24.839317 39.3615619,24.7366513 39.3615619,24.6339842 C39.2295612,23.4899784 39.0938959,22.4486555 38.9545619,21.5099842 C38.8152279,20.5713128 38.635563,19.6106557 38.4155619,18.6279842 C38.3128947,18.2906491 38.2945616,18.0229852 38.3605619,17.8249842 C38.4265622,17.6269832 38.6428934,17.5499839 39.0095619,17.5939842 C39.5228978,17.6819846 39.838228,18.004648 39.9555619,18.5619842 Z M51.5935619,14.6679842 C51.5495617,14.4039828 51.5678948,14.1619853 51.6485619,13.9419842 C51.729229,13.7219831 51.8942273,13.5973176 52.1435619,13.5679842 C52.363563,13.5386507 52.5578944,13.5973168 52.7265619,13.7439842 C52.8952294,13.8906516 53.0015617,14.0813163 53.0455619,14.3159842 C53.3388967,16.0026593 53.6138939,17.6783092 53.8705619,19.3429842 C54.1272298,21.0076592 54.3582275,22.6393095 54.5635619,24.2379842 C54.6222289,24.6633196 54.5928958,24.9529834 54.4755619,25.1069842 C54.358228,25.2609849 54.218896,25.3746505 54.0575619,25.4479842 C53.881561,25.5213179 53.7165627,25.5213179 53.5625619,25.4479842 C53.4085611,25.3746505 53.3095621,25.2426518 53.2655619,25.0519842 L53.2435619,24.9199842 L53.1555619,24.9419842 C52.6715595,25.117985 52.1655645,25.2169841 51.6375619,25.2389842 C51.1095593,25.2609843 50.6035643,25.1986516 50.1195619,25.0519842 C49.6355595,24.9053168 49.2065638,24.6669858 48.8325619,24.3369842 C48.45856,24.0069825 48.190896,23.5853201 48.0295619,23.0719842 C47.6775601,21.9426452 47.8975579,20.9159888 48.6895619,19.9919842 C49.0268969,19.6106489 49.4448927,19.2659857 49.9435619,18.9579842 C50.4422311,18.6499826 51.0435584,18.407985 51.7475619,18.2319842 L52.1435619,18.1439842 L51.5935619,14.6679842 Z M49.3715619,22.5219842 C49.4595623,22.8739859 49.6208941,23.1453165 49.8555619,23.3359842 C50.0902297,23.5266518 50.3688936,23.6549838 50.6915619,23.7209842 C51.0142302,23.7869845 51.3588934,23.7979844 51.7255619,23.7539842 C52.0922304,23.7099839 52.4515601,23.6293181 52.8035619,23.5119842 L53.0015619,23.4459842 L52.3855619,19.5739842 L51.9455619,19.6839842 C51.6375604,19.7719846 51.3112303,19.9076499 50.9665619,20.0909842 C50.6218935,20.2743184 50.3175632,20.4906496 50.0535619,20.7399842 C49.7895606,20.9893187 49.5878959,21.2679826 49.4485619,21.5759842 C49.3092279,21.8839857 49.2835615,22.1993159 49.3715619,22.5219842 Z M65.8935619,19.7499842 C66.0108958,19.9113183 66.1245613,20.112983 66.2345619,20.3549842 C66.3445624,20.5969854 66.4288949,20.8426496 66.4875619,21.0919842 C66.5755623,21.4879861 66.6745613,21.9169819 66.7845619,22.3789842 C66.8945624,22.8409865 67.0045613,23.321315 67.1145619,23.8199842 C67.2245624,24.3186533 67.3272281,24.8246483 67.4225619,25.3379842 C67.5178957,25.8513201 67.6022282,26.3426485 67.6755619,26.8119842 C67.7635623,27.4573207 67.7158961,28.0769812 67.5325619,28.6709842 C67.3492276,29.2649871 67.0448974,29.7966485 66.6195619,30.2659842 C66.1942264,30.7353198 65.6662317,31.1093161 65.0355619,31.3879842 C64.4048921,31.6666522 63.6935659,31.8206507 62.9015619,31.8499842 C62.725561,31.8353174 62.5422295,31.7509849 62.3515619,31.5969842 C62.1608943,31.4429834 62.0655619,31.2853183 62.0655619,31.1239842 C62.0508952,30.96265 62.1278944,30.834318 62.2965619,30.7389842 C62.4652294,30.6436504 62.637561,30.5813176 62.8135619,30.5519842 C63.1215634,30.5226507 63.4405602,30.460318 63.7705619,30.3649842 C64.1005635,30.2696504 64.4122271,30.133985 64.7055619,29.9579842 C64.9988967,29.7819833 65.2665607,29.5693187 65.5085619,29.3199842 C65.7505631,29.0706496 65.9375612,28.7773192 66.0695619,28.4399842 C66.1722291,28.1759828 66.2235619,27.8496528 66.2235619,27.4609842 C66.2235619,27.0723156 66.1978955,26.6873194 66.1465619,26.3059842 C66.0952283,25.9246489 66.029229,25.5616526 65.9485619,25.2169842 C65.8678948,24.8723158 65.7982289,24.611985 65.7395619,24.4359842 C65.6368947,24.5386513 65.5085627,24.6486502 65.3545619,24.7659842 C65.2005611,24.8833181 65.0282295,24.993317 64.8375619,25.0959842 C64.6468943,25.1986513 64.4378964,25.2793172 64.2105619,25.3379842 C63.9832274,25.3966511 63.7522297,25.4186509 63.5175619,25.4039842 C63.2682273,25.3893174 63.0372296,25.3013183 62.8245619,25.1399842 C62.6118942,24.97865 62.424896,24.7696521 62.2635619,24.5129842 C62.1022278,24.2563162 61.9738957,23.9593192 61.8785619,23.6219842 C61.7832281,23.2846491 61.7355619,22.9326527 61.7355619,22.5659842 C61.7648954,21.6859798 61.9885598,20.9049876 62.4065619,20.2229842 C62.824564,19.5409808 63.4955573,19.0093194 64.4195619,18.6279842 C64.4928956,18.6133174 64.5918946,18.5986509 64.7165619,18.5839842 C64.8412292,18.5693174 64.9695612,18.5656508 65.1015619,18.5729842 C65.2335626,18.5803175 65.3618946,18.5986507 65.4865619,18.6279842 C65.6112292,18.6573176 65.7175615,18.7013172 65.8055619,18.7599842 C65.966896,18.8773181 66.0475619,19.0459831 66.0475619,19.2659842 C66.0475619,19.4859853 65.9962291,19.647317 65.8935619,19.7499842 Z M63.1215619,22.7639842 C63.1215619,22.9253183 63.1362284,23.1049832 63.1655619,23.3029842 C63.1948954,23.5009852 63.2902278,23.6439837 63.4515619,23.7319842 C63.6275628,23.8346513 63.8438939,23.8493179 64.1005619,23.7759842 C64.3572298,23.7026505 64.5955608,23.577985 64.8155619,23.4019842 C65.0208963,23.24065 65.1565616,23.0609852 65.2225619,22.8629842 C65.2885622,22.6649832 65.2848956,22.3973192 65.2115619,22.0599842 C65.1382282,21.7226491 65.0575623,21.3706527 64.9695619,21.0039842 C64.8815615,20.6373157 64.8228954,20.307319 64.7935619,20.0139842 C64.617561,20.1019846 64.4305629,20.22665 64.2325619,20.3879842 C64.0345609,20.5493183 63.854896,20.750983 63.6935619,20.9929842 C63.5322278,21.2349854 63.3965624,21.5026494 63.2865619,21.7959842 C63.1765613,22.089319 63.1215619,22.4119824 63.1215619,22.7639842 Z M75.9255619,18.2319842 C75.6615606,18.3786516 75.3865633,18.53265 75.1005619,18.6939842 C74.8145605,18.8553183 74.5285633,19.0423164 74.2425619,19.2549842 C73.9565605,19.4676519 73.6852298,19.7169827 73.4285619,20.0029842 C73.1718939,20.2889856 72.9408963,20.6299822 72.7355619,21.0259842 C72.4422271,21.5833203 72.2442291,22.1516479 72.1415619,22.7309842 C72.0388947,23.3103204 71.9728954,23.878648 71.9435619,24.4359842 C71.9435619,24.6999855 71.8812292,24.9676495 71.7565619,25.2389842 C71.6318946,25.5103189 71.459563,25.6459842 71.2395619,25.6459842 C70.9608938,25.6459842 70.7372294,25.5029856 70.5685619,25.2169842 C70.3998944,24.9309827 70.2862289,24.6559855 70.2275619,24.3919842 C69.9782273,23.3506456 69.772896,22.3203226 69.6115619,21.3009842 C69.4502278,20.2816457 69.3108958,19.2659892 69.1935619,18.2539842 C69.1935619,18.0486498 69.2558946,17.9166511 69.3805619,17.8579842 C69.5052292,17.7993172 69.6482278,17.7773174 69.8095619,17.7919842 C69.9855628,17.8066509 70.1542278,17.8506505 70.3155619,17.9239842 C70.476896,17.9973179 70.5722284,18.11465 70.6015619,18.2759842 C70.6602289,18.8186535 70.7335615,19.3869812 70.8215619,19.9809842 C70.9095623,20.5749871 70.9975615,21.0846487 71.0855619,21.5099842 C71.1442289,21.011315 71.3055606,20.5273198 71.5695619,20.0579842 C71.8335632,19.5886485 72.1598933,19.1633194 72.5485619,18.7819842 C72.9372305,18.4006489 73.3772261,18.0779855 73.8685619,17.8139842 C74.3598977,17.5499828 74.862226,17.3739846 75.3755619,17.2859842 C75.595563,17.2566507 75.7788945,17.2566507 75.9255619,17.2859842 C76.0722293,17.3153176 76.1748949,17.3666505 76.2335619,17.4399842 C76.2922289,17.5133179 76.3032287,17.63065 76.2665619,17.7919842 C76.229895,17.9533183 76.1162295,18.0999835 75.9255619,18.2319842 Z M82.3055619,18.1439842 C82.7455641,18.3053183 83.1158937,18.5473159 83.4165619,18.8699842 C83.7172301,19.1926524 83.9482278,19.5556488 84.1095619,19.9589842 C84.270896,20.3623195 84.3625618,20.7766487 84.3845619,21.2019842 C84.406562,21.6273196 84.3588958,22.0233157 84.2415619,22.3899842 C84.0802278,22.8006529 83.8748965,23.2039822 83.6255619,23.5999842 C83.3762273,23.9959861 83.0902302,24.3479826 82.7675619,24.6559842 C82.4448936,24.9639857 82.0782306,25.2133165 81.6675619,25.4039842 C81.2568932,25.5946518 80.8022311,25.6899842 80.3035619,25.6899842 C79.7022256,25.6899842 79.1962306,25.5506522 78.7855619,25.2719842 C78.3748932,24.9933161 78.0522297,24.6339864 77.8175619,24.1939842 C77.5828941,23.753982 77.4325622,23.2553203 77.3665619,22.6979842 C77.3005616,22.140648 77.3115615,21.5833203 77.3995619,21.0259842 C77.4582289,20.6153154 77.5572279,20.2156528 77.6965619,19.8269842 C77.8358959,19.4383156 78.0155608,19.0936523 78.2355619,18.7929842 C78.455563,18.492316 78.7085605,18.2466518 78.9945619,18.0559842 C79.2805633,17.8653165 79.6068934,17.7699842 79.9735619,17.7699842 C80.1788963,17.7699842 80.4355604,17.8103171 80.7435619,17.8909842 C81.0515634,17.9716512 81.3375606,18.0853168 81.6015619,18.2319842 C81.7922295,18.0559833 82.0268938,18.0266502 82.3055619,18.1439842 Z M81.4695619,19.7499842 C81.3082278,19.647317 81.1212296,19.5116517 80.9085619,19.3429842 C80.6958942,19.1743167 80.508896,19.0899842 80.3475619,19.0899842 C80.171561,19.0899842 79.9992294,19.17065 79.8305619,19.3319842 C79.6618944,19.4933183 79.5152292,19.6803164 79.3905619,19.8929842 C79.2658946,20.1056519 79.1595623,20.3219831 79.0715619,20.5419842 C78.9835615,20.7619853 78.9248954,20.9379835 78.8955619,21.0699842 C78.8515617,21.2899853 78.8222286,21.5539826 78.8075619,21.8619842 C78.7928952,22.1699857 78.8148949,22.474316 78.8735619,22.7749842 C78.9322289,23.0756523 79.0458944,23.346983 79.2145619,23.5889842 C79.3832294,23.8309854 79.6362269,24.003317 79.9735619,24.1059842 C80.1788963,24.1646511 80.4208938,24.1609845 80.6995619,24.0949842 C80.97823,24.0289838 81.2532272,23.907985 81.5245619,23.7319842 C81.7958966,23.5559833 82.0525607,23.321319 82.2945619,23.0279842 C82.5365631,22.7346494 82.7235612,22.3973194 82.8555619,22.0159842 C83.0022293,21.5906487 83.0058959,21.1469865 82.8665619,20.6849842 C82.7272279,20.2229819 82.4448974,19.8893185 82.0195619,19.6839842 C81.9168947,19.7573179 81.8142291,19.7939842 81.7115619,19.7939842 C81.6088947,19.7939842 81.5282289,19.7793176 81.4695619,19.7499842 Z M93.9655619,25.3159842 C93.848228,25.4773183 93.7162293,25.5836506 93.5695619,25.6349842 C93.4228945,25.6863178 93.2908958,25.7119842 93.1735619,25.7119842 C92.9682275,25.6973174 92.7775628,25.6276515 92.6015619,25.5029842 C92.425561,25.3783169 92.3155621,25.2499848 92.2715619,25.1179842 C92.1835615,24.8686496 92.0882291,24.5899857 91.9855619,24.2819842 C91.8828947,23.9739826 91.7838957,23.6623191 91.6885619,23.3469842 C91.5932281,23.0316493 91.4942291,22.7236523 91.3915619,22.4229842 C91.2888947,22.122316 91.1935623,21.8473187 91.1055619,21.5979842 C90.8122271,22.1113201 90.5335632,22.6283149 90.2695619,23.1489842 C90.0055606,23.6696534 89.7122302,24.208648 89.3895619,24.7659842 C89.2428945,24.9859853 89.0742295,25.1363171 88.8835619,25.2169842 C88.6928943,25.2976512 88.5315626,25.3306509 88.3995619,25.3159842 C88.2088943,25.3013174 88.0365627,25.2279848 87.8825619,25.0959842 C87.7285611,24.9639835 87.6075623,24.8393181 87.5195619,24.7219842 C87.3582278,24.4579828 87.196896,24.1169863 87.0355619,23.6989842 C86.8742278,23.2809821 86.7238959,22.8409865 86.5845619,22.3789842 C86.4452279,21.9169819 86.3168958,21.4549865 86.1995619,20.9929842 C86.082228,20.5309819 85.9868956,20.1166527 85.9135619,19.7499842 C85.8695617,19.5006496 85.8732283,19.2659853 85.9245619,19.0459842 C85.9758955,18.8259831 86.1042275,18.7013176 86.3095619,18.6719842 C86.5588965,18.6573174 86.7862275,18.7416499 86.9915619,18.9249842 C87.1968963,19.1083184 87.3142284,19.2879833 87.3435619,19.4639842 C87.4022289,19.757319 87.4718948,20.0763158 87.5525619,20.4209842 C87.633229,20.7656526 87.7212281,21.1139824 87.8165619,21.4659842 C87.9118957,21.8179859 88.0072281,22.1626491 88.1025619,22.4999842 C88.1978957,22.8373192 88.2968947,23.1379828 88.3995619,23.4019842 C88.619563,23.0499824 88.8652272,22.6429865 89.1365619,22.1809842 C89.4078966,21.7189819 89.6682273,21.271653 89.9175619,20.8389842 C90.1668965,20.4063153 90.3942275,20.0286524 90.5995619,19.7059842 C90.8048963,19.3833159 90.966228,19.1853179 91.0835619,19.1119842 C91.1715623,19.0533172 91.2962278,19.0569838 91.4575619,19.1229842 C91.618896,19.1889845 91.7362282,19.2806502 91.8095619,19.3979842 C92.1322302,20.0433207 92.3998942,20.7509803 92.6125619,21.5209842 C92.8252296,22.290988 93.0342275,23.0059809 93.2395619,23.6659842 C93.4448963,23.4019828 93.6648941,23.053653 93.8995619,22.6209842 C94.1342297,22.1883153 94.3615608,21.7299866 94.5815619,21.2459842 C94.801563,20.7619817 95.0068943,20.2779866 95.1975619,19.7939842 C95.3882295,19.3099817 95.542228,18.8773194 95.6595619,18.4959842 C95.7768958,18.0999822 95.9382275,17.9093174 96.1435619,17.9239842 C96.4075632,17.9533176 96.6348943,18.0413168 96.8255619,18.1879842 C97.0162295,18.3346516 97.0895621,18.48865 97.0455619,18.6499842 C96.7228936,19.9406573 96.3048978,21.1249788 95.7915619,22.2029842 C95.278226,23.2809896 94.6695654,24.3186458 93.9655619,25.3159842 Z M102.325562,16.8459842 C102.296228,16.9926516 102.193563,17.0733174 102.017562,17.0879842 C101.841561,17.1026509 101.694896,17.1099842 101.577562,17.1099842 C101.210893,17.1246509 100.833231,17.1613172 100.444562,17.2199842 C100.055893,17.2786511 99.6488974,17.3666502 99.2235619,17.4839842 C99.047561,17.5426511 98.8568963,17.5206513 98.6515619,17.4179842 C98.4462275,17.315317 98.3215621,17.1099857 98.2775619,16.8019842 C98.2775619,16.6846502 98.3215615,16.5893179 98.4095619,16.5159842 C98.4975623,16.4426505 98.600228,16.3766511 98.7175619,16.3179842 C98.9082295,16.2299837 99.1355606,16.1529845 99.3995619,16.0869842 C99.6635632,16.0209838 99.9312272,15.9733176 100.202562,15.9439842 C100.473897,15.9146507 100.734227,15.9036508 100.983562,15.9109842 C101.232896,15.9183175 101.438228,15.9439839 101.599562,15.9879842 C101.83423,16.0613179 102.021228,16.1713168 102.160562,16.3179842 C102.299896,16.4646516 102.354895,16.6406498 102.325562,16.8459842 Z M101.819562,24.1719842 C101.922229,24.406652 101.977229,24.6596495 101.984562,24.9309842 C101.991895,25.2023189 101.914896,25.389317 101.753562,25.4919842 C101.548228,25.6239848 101.32823,25.6166516 101.093562,25.4699842 C100.858894,25.3233168 100.682896,25.1253187 100.565562,24.8759842 C100.404228,24.5679826 100.279562,24.1903197 100.191562,23.7429842 C100.103561,23.2956486 100.037562,22.8519864 99.9935619,22.4119842 C99.9495617,21.971982 99.9238953,21.5613194 99.9165619,21.1799842 C99.9092285,20.7986489 99.9055619,20.5126518 99.9055619,20.3219842 C99.9202286,20.1166498 99.9788947,19.925985 100.081562,19.7499842 C100.184229,19.5739833 100.316228,19.4713176 100.477562,19.4419842 C100.741563,19.4566509 100.954228,19.5776497 101.115562,19.8049842 C101.276896,20.0323186 101.350229,20.3146491 101.335562,20.6519842 C101.335562,20.9159855 101.342895,21.2093159 101.357562,21.5319842 C101.372229,21.8546524 101.401562,22.1773159 101.445562,22.4999842 C101.489562,22.8226524 101.540895,23.134316 101.599562,23.4349842 C101.658229,23.7356523 101.731561,23.9813165 101.819562,24.1719842 Z M105.361562,18.5619842 C105.405562,18.7819853 105.453228,19.0276495 105.504562,19.2989842 C105.555895,19.5703189 105.610895,19.8489827 105.669562,20.1349842 C105.728229,20.4209856 105.779562,20.7106494 105.823562,21.0039842 C105.867562,21.297319 105.904228,21.5759828 105.933562,21.8399842 C106.109563,21.4586489 106.300228,21.0553196 106.505562,20.6299842 C106.710896,20.2046487 106.934561,19.8123193 107.176562,19.4529842 C107.418563,19.093649 107.675227,18.796652 107.946562,18.5619842 C108.217897,18.3273163 108.514894,18.2099842 108.837562,18.2099842 C109.321564,18.2099842 109.72856,18.3859824 110.058562,18.7379842 C110.388564,19.0899859 110.667227,19.5263149 110.894562,20.0469842 C111.121896,20.5676534 111.301561,21.1139813 111.433562,21.6859842 C111.565563,22.257987 111.675561,22.763982 111.763562,23.2039842 C111.851562,23.5999861 111.675564,23.8933165 111.235562,24.0839842 C111.030228,24.1866513 110.876229,24.2013179 110.773562,24.1279842 C110.670895,24.0546505 110.612229,23.9813179 110.597562,23.9079842 C110.524228,23.7319833 110.432562,23.4239864 110.322562,22.9839842 C110.212561,22.543982 110.087896,22.0966531 109.948562,21.6419842 C109.809228,21.1873152 109.651563,20.7913192 109.475562,20.4539842 C109.299561,20.1166491 109.101563,19.9626507 108.881562,19.9919842 C108.617561,20.0066509 108.382896,20.2046489 108.177562,20.5859842 C108.001561,20.8939857 107.821896,21.2349823 107.638562,21.6089842 C107.455228,21.982986 107.275563,22.3643156 107.099562,22.7529842 C106.923561,23.1416528 106.751229,23.5303156 106.582562,23.9189842 C106.413894,24.3076528 106.256229,24.6633159 106.109562,24.9859842 C106.006895,25.0886513 105.878563,25.1583173 105.724562,25.1949842 C105.570561,25.231651 105.412896,25.2206511 105.251562,25.1619842 C105.104894,25.1179839 104.987562,25.0446513 104.899562,24.9419842 C104.811561,24.839317 104.767562,24.7366513 104.767562,24.6339842 C104.635561,23.4899784 104.499896,22.4486555 104.360562,21.5099842 C104.221228,20.5713128 104.041563,19.6106557 103.821562,18.6279842 C103.718895,18.2906491 103.700562,18.0229852 103.766562,17.8249842 C103.832562,17.6269832 104.048893,17.5499839 104.415562,17.5939842 C104.928898,17.6819846 105.244228,18.004648 105.361562,18.5619842 Z M117.285562,19.7499842 C117.402896,19.9113183 117.516561,20.112983 117.626562,20.3549842 C117.736562,20.5969854 117.820895,20.8426496 117.879562,21.0919842 C117.967562,21.4879861 118.066561,21.9169819 118.176562,22.3789842 C118.286562,22.8409865 118.396561,23.321315 118.506562,23.8199842 C118.616562,24.3186533 118.719228,24.8246483 118.814562,25.3379842 C118.909896,25.8513201 118.994228,26.3426485 119.067562,26.8119842 C119.155562,27.4573207 119.107896,28.0769812 118.924562,28.6709842 C118.741228,29.2649871 118.436897,29.7966485 118.011562,30.2659842 C117.586226,30.7353198 117.058232,31.1093161 116.427562,31.3879842 C115.796892,31.6666522 115.085566,31.8206507 114.293562,31.8499842 C114.117561,31.8353174 113.93423,31.7509849 113.743562,31.5969842 C113.552894,31.4429834 113.457562,31.2853183 113.457562,31.1239842 C113.442895,30.96265 113.519894,30.834318 113.688562,30.7389842 C113.857229,30.6436504 114.029561,30.5813176 114.205562,30.5519842 C114.513563,30.5226507 114.83256,30.460318 115.162562,30.3649842 C115.492564,30.2696504 115.804227,30.133985 116.097562,29.9579842 C116.390897,29.7819833 116.658561,29.5693187 116.900562,29.3199842 C117.142563,29.0706496 117.329561,28.7773192 117.461562,28.4399842 C117.564229,28.1759828 117.615562,27.8496528 117.615562,27.4609842 C117.615562,27.0723156 117.589895,26.6873194 117.538562,26.3059842 C117.487228,25.9246489 117.421229,25.5616526 117.340562,25.2169842 C117.259895,24.8723158 117.190229,24.611985 117.131562,24.4359842 C117.028895,24.5386513 116.900563,24.6486502 116.746562,24.7659842 C116.592561,24.8833181 116.42023,24.993317 116.229562,25.0959842 C116.038894,25.1986513 115.829896,25.2793172 115.602562,25.3379842 C115.375227,25.3966511 115.14423,25.4186509 114.909562,25.4039842 C114.660227,25.3893174 114.42923,25.3013183 114.216562,25.1399842 C114.003894,24.97865 113.816896,24.7696521 113.655562,24.5129842 C113.494228,24.2563162 113.365896,23.9593192 113.270562,23.6219842 C113.175228,23.2846491 113.127562,22.9326527 113.127562,22.5659842 C113.156895,21.6859798 113.38056,20.9049876 113.798562,20.2229842 C114.216564,19.5409808 114.887557,19.0093194 115.811562,18.6279842 C115.884896,18.6133174 115.983895,18.5986509 116.108562,18.5839842 C116.233229,18.5693174 116.361561,18.5656508 116.493562,18.5729842 C116.625563,18.5803175 116.753895,18.5986507 116.878562,18.6279842 C117.003229,18.6573176 117.109561,18.7013172 117.197562,18.7599842 C117.358896,18.8773181 117.439562,19.0459831 117.439562,19.2659842 C117.439562,19.4859853 117.388229,19.647317 117.285562,19.7499842 Z M114.513562,22.7639842 C114.513562,22.9253183 114.528228,23.1049832 114.557562,23.3029842 C114.586895,23.5009852 114.682228,23.6439837 114.843562,23.7319842 C115.019563,23.8346513 115.235894,23.8493179 115.492562,23.7759842 C115.74923,23.7026505 115.987561,23.577985 116.207562,23.4019842 C116.412896,23.24065 116.548562,23.0609852 116.614562,22.8629842 C116.680562,22.6649832 116.676896,22.3973192 116.603562,22.0599842 C116.530228,21.7226491 116.449562,21.3706527 116.361562,21.0039842 C116.273561,20.6373157 116.214895,20.307319 116.185562,20.0139842 C116.009561,20.1019846 115.822563,20.22665 115.624562,20.3879842 C115.426561,20.5493183 115.246896,20.750983 115.085562,20.9929842 C114.924228,21.2349854 114.788562,21.5026494 114.678562,21.7959842 C114.568561,22.089319 114.513562,22.4119824 114.513562,22.7639842 Z M134.731562,25.3159842 C134.614228,25.4773183 134.482229,25.5836506 134.335562,25.6349842 C134.188894,25.6863178 134.056896,25.7119842 133.939562,25.7119842 C133.734228,25.6973174 133.543563,25.6276515 133.367562,25.5029842 C133.191561,25.3783169 133.081562,25.2499848 133.037562,25.1179842 C132.949561,24.8686496 132.854229,24.5899857 132.751562,24.2819842 C132.648895,23.9739826 132.549896,23.6623191 132.454562,23.3469842 C132.359228,23.0316493 132.260229,22.7236523 132.157562,22.4229842 C132.054895,22.122316 131.959562,21.8473187 131.871562,21.5979842 C131.578227,22.1113201 131.299563,22.6283149 131.035562,23.1489842 C130.771561,23.6696534 130.47823,24.208648 130.155562,24.7659842 C130.008894,24.9859853 129.84023,25.1363171 129.649562,25.2169842 C129.458894,25.2976512 129.297563,25.3306509 129.165562,25.3159842 C128.974894,25.3013174 128.802563,25.2279848 128.648562,25.0959842 C128.494561,24.9639835 128.373562,24.8393181 128.285562,24.7219842 C128.124228,24.4579828 127.962896,24.1169863 127.801562,23.6989842 C127.640228,23.2809821 127.489896,22.8409865 127.350562,22.3789842 C127.211228,21.9169819 127.082896,21.4549865 126.965562,20.9929842 C126.848228,20.5309819 126.752896,20.1166527 126.679562,19.7499842 C126.635562,19.5006496 126.639228,19.2659853 126.690562,19.0459842 C126.741895,18.8259831 126.870228,18.7013176 127.075562,18.6719842 C127.324896,18.6573174 127.552228,18.7416499 127.757562,18.9249842 C127.962896,19.1083184 128.080228,19.2879833 128.109562,19.4639842 C128.168229,19.757319 128.237895,20.0763158 128.318562,20.4209842 C128.399229,20.7656526 128.487228,21.1139824 128.582562,21.4659842 C128.677896,21.8179859 128.773228,22.1626491 128.868562,22.4999842 C128.963896,22.8373192 129.062895,23.1379828 129.165562,23.4019842 C129.385563,23.0499824 129.631227,22.6429865 129.902562,22.1809842 C130.173897,21.7189819 130.434227,21.271653 130.683562,20.8389842 C130.932896,20.4063153 131.160228,20.0286524 131.365562,19.7059842 C131.570896,19.3833159 131.732228,19.1853179 131.849562,19.1119842 C131.937562,19.0533172 132.062228,19.0569838 132.223562,19.1229842 C132.384896,19.1889845 132.502228,19.2806502 132.575562,19.3979842 C132.89823,20.0433207 133.165894,20.7509803 133.378562,21.5209842 C133.59123,22.290988 133.800228,23.0059809 134.005562,23.6659842 C134.210896,23.4019828 134.430894,23.053653 134.665562,22.6209842 C134.90023,22.1883153 135.127561,21.7299866 135.347562,21.2459842 C135.567563,20.7619817 135.772894,20.2779866 135.963562,19.7939842 C136.15423,19.3099817 136.308228,18.8773194 136.425562,18.4959842 C136.542896,18.0999822 136.704228,17.9093174 136.909562,17.9239842 C137.173563,17.9533176 137.400894,18.0413168 137.591562,18.1879842 C137.78223,18.3346516 137.855562,18.48865 137.811562,18.6499842 C137.488894,19.9406573 137.070898,21.1249788 136.557562,22.2029842 C136.044226,23.2809896 135.435565,24.3186458 134.731562,25.3159842 Z M144.719562,20.6519842 C144.147559,20.9893192 143.531565,21.2496499 142.871562,21.4329842 C142.211559,21.6163184 141.500232,21.7079842 140.737562,21.7079842 C140.766895,22.2213201 140.913561,22.628316 141.177562,22.9289842 C141.441563,23.2296523 141.77156,23.4093172 142.167562,23.4679842 C142.40223,23.4973176 142.640561,23.4899844 142.882562,23.4459842 C143.124563,23.4019839 143.351894,23.332318 143.564562,23.2369842 C143.77723,23.1416504 143.971561,23.0353181 144.147562,22.9179842 C144.323563,22.8006502 144.477561,22.6833181 144.609562,22.5659842 C144.741563,22.4486502 144.880894,22.371651 145.027562,22.3349842 C145.174229,22.2983173 145.284228,22.2946507 145.357562,22.3239842 C145.562896,22.3973179 145.636229,22.6173157 145.577562,22.9839842 C145.342894,23.4533198 145.005564,23.8529825 144.565562,24.1829842 C144.12556,24.5129858 143.634231,24.7219837 143.091562,24.8099842 C142.622226,24.8979846 142.138231,24.8759848 141.639562,24.7439842 C141.140893,24.6119835 140.693564,24.3553194 140.297562,23.9739842 C139.960227,23.6366491 139.703563,23.2406531 139.527562,22.7859842 C139.351561,22.3313152 139.241562,21.8619866 139.197562,21.3779842 C139.153562,20.9233152 139.193895,20.4906529 139.318562,20.0799842 C139.443229,19.6693154 139.637561,19.3063191 139.901562,18.9909842 C140.165563,18.6756493 140.49556,18.4153185 140.891562,18.2099842 C141.287564,18.0046498 141.749559,17.8873176 142.277562,17.8579842 C142.908232,17.8139839 143.480226,17.9313161 143.993562,18.2099842 C144.506898,18.4886522 144.866228,18.877315 145.071562,19.3759842 C145.188896,19.6546522 145.221895,19.8966498 145.170562,20.1019842 C145.119228,20.3073185 144.968896,20.49065 144.719562,20.6519842 Z M142.189562,19.1559842 C142.042894,19.1853176 141.885229,19.2366505 141.716562,19.3099842 C141.547894,19.3833179 141.393896,19.4749836 141.254562,19.5849842 C141.115228,19.6949847 140.990562,19.8196501 140.880562,19.9589842 C140.770561,20.0983182 140.708229,20.2559833 140.693562,20.4319842 C140.942896,20.4319842 141.217894,20.4099844 141.518562,20.3659842 C141.81923,20.3219839 142.11256,20.2669845 142.398562,20.2009842 C142.684563,20.1349838 142.948561,20.0579846 143.190562,19.9699842 C143.432563,19.8819837 143.634228,19.7866513 143.795562,19.6839842 C143.678228,19.4053161 143.461897,19.2329845 143.146562,19.1669842 C142.831227,19.1009838 142.51223,19.0973172 142.189562,19.1559842 Z M152.441562,20.6519842 C151.869559,20.9893192 151.253565,21.2496499 150.593562,21.4329842 C149.933559,21.6163184 149.222232,21.7079842 148.459562,21.7079842 C148.488895,22.2213201 148.635561,22.628316 148.899562,22.9289842 C149.163563,23.2296523 149.49356,23.4093172 149.889562,23.4679842 C150.12423,23.4973176 150.362561,23.4899844 150.604562,23.4459842 C150.846563,23.4019839 151.073894,23.332318 151.286562,23.2369842 C151.49923,23.1416504 151.693561,23.0353181 151.869562,22.9179842 C152.045563,22.8006502 152.199561,22.6833181 152.331562,22.5659842 C152.463563,22.4486502 152.602894,22.371651 152.749562,22.3349842 C152.896229,22.2983173 153.006228,22.2946507 153.079562,22.3239842 C153.284896,22.3973179 153.358229,22.6173157 153.299562,22.9839842 C153.064894,23.4533198 152.727564,23.8529825 152.287562,24.1829842 C151.84756,24.5129858 151.356231,24.7219837 150.813562,24.8099842 C150.344226,24.8979846 149.860231,24.8759848 149.361562,24.7439842 C148.862893,24.6119835 148.415564,24.3553194 148.019562,23.9739842 C147.682227,23.6366491 147.425563,23.2406531 147.249562,22.7859842 C147.073561,22.3313152 146.963562,21.8619866 146.919562,21.3779842 C146.875562,20.9233152 146.915895,20.4906529 147.040562,20.0799842 C147.165229,19.6693154 147.359561,19.3063191 147.623562,18.9909842 C147.887563,18.6756493 148.21756,18.4153185 148.613562,18.2099842 C149.009564,18.0046498 149.471559,17.8873176 149.999562,17.8579842 C150.630232,17.8139839 151.202226,17.9313161 151.715562,18.2099842 C152.228898,18.4886522 152.588228,18.877315 152.793562,19.3759842 C152.910896,19.6546522 152.943895,19.8966498 152.892562,20.1019842 C152.841228,20.3073185 152.690896,20.49065 152.441562,20.6519842 Z M149.911562,19.1559842 C149.764894,19.1853176 149.607229,19.2366505 149.438562,19.3099842 C149.269894,19.3833179 149.115896,19.4749836 148.976562,19.5849842 C148.837228,19.6949847 148.712562,19.8196501 148.602562,19.9589842 C148.492561,20.0983182 148.430229,20.2559833 148.415562,20.4319842 C148.664896,20.4319842 148.939894,20.4099844 149.240562,20.3659842 C149.54123,20.3219839 149.83456,20.2669845 150.120562,20.2009842 C150.406563,20.1349838 150.670561,20.0579846 150.912562,19.9699842 C151.154563,19.8819837 151.356228,19.7866513 151.517562,19.6839842 C151.400228,19.4053161 151.183897,19.2329845 150.868562,19.1669842 C150.553227,19.1009838 150.23423,19.0973172 149.911562,19.1559842 Z M160.889562,18.6279842 C160.948229,18.6133174 161.036228,18.6023175 161.153562,18.5949842 C161.270896,18.5876508 161.384561,18.5949841 161.494562,18.6169842 C161.604562,18.6389843 161.699895,18.6756506 161.780562,18.7269842 C161.861229,18.7783178 161.908895,18.8406505 161.923562,18.9139842 C161.952895,19.089985 161.927229,19.2476501 161.846562,19.3869842 C161.765895,19.5263182 161.622896,19.647317 161.417562,19.7499842 C160.860226,20.0139855 160.280898,20.3109825 159.679562,20.6409842 C159.078226,20.9709858 158.564897,21.2679828 158.139562,21.5319842 C158.403563,21.707985 158.707894,21.9059831 159.052562,22.1259842 C159.39723,22.3459853 159.752893,22.576983 160.119562,22.8189842 C160.48623,23.0609854 160.852893,23.3176495 161.219562,23.5889842 C161.58623,23.8603189 161.930894,24.1279828 162.253562,24.3919842 C162.546897,24.6413187 162.59823,24.8686498 162.407562,25.0739842 C162.319561,25.1766513 162.176563,25.2499839 161.978562,25.2939842 C161.780561,25.3379844 161.593563,25.3159846 161.417562,25.2279842 C161.094894,25.06665 160.742897,24.8723186 160.361562,24.6449842 C159.980227,24.4176497 159.591564,24.1829854 159.195562,23.9409842 C158.79956,23.698983 158.414564,23.4569854 158.040562,23.2149842 C157.66656,22.972983 157.325563,22.7493185 157.017562,22.5439842 C157.076229,23.0573201 157.131228,23.5706483 157.182562,24.0839842 C157.233895,24.5973201 157.281562,25.1106483 157.325562,25.6239842 C157.413562,25.9026522 157.406229,26.1299833 157.303562,26.3059842 C157.200895,26.481985 157.03223,26.5626509 156.797562,26.5479842 C156.548227,26.5039839 156.364896,26.4049849 156.247562,26.2509842 C156.130228,26.0969834 156.042229,25.8953187 155.983562,25.6459842 C155.895561,25.0446478 155.796562,24.3333216 155.686562,23.5119842 C155.576561,22.6906467 155.462896,21.8399886 155.345562,20.9599842 C155.228228,20.0799798 155.114562,19.2219883 155.004562,18.3859842 C154.894561,17.54998 154.795562,16.8093207 154.707562,16.1639842 C154.678228,15.9586498 154.659895,15.7349854 154.652562,15.4929842 C154.645229,15.250983 154.722228,15.0933179 154.883562,15.0199842 C155.103563,14.9319837 155.330894,14.9796499 155.565562,15.1629842 C155.80023,15.3463184 155.976228,15.6213157 156.093562,15.9879842 C156.210896,16.6626542 156.328228,17.3959802 156.445562,18.1879842 C156.562896,18.9799881 156.680228,19.8159798 156.797562,20.6959842 C157.090897,20.5199833 157.431893,20.3256519 157.820562,20.1129842 C158.209231,19.9003164 158.597893,19.6949852 158.986562,19.4969842 C159.375231,19.2989832 159.738227,19.1193183 160.075562,18.9579842 C160.412897,18.79665 160.684228,18.6866511 160.889562,18.6279842 Z M165.619562,15.5259842 C165.692896,17.1246588 165.817561,18.778309 165.993562,20.4869842 C166.169563,22.1956594 166.360228,23.8273097 166.565562,25.3819842 C166.609562,26.0273207 166.433564,26.3573174 166.037562,26.3719842 C165.949561,26.3719842 165.861562,26.3389845 165.773562,26.2729842 C165.685561,26.2069838 165.604896,26.1226513 165.531562,26.0199842 C165.458228,25.917317 165.388562,25.8073181 165.322562,25.6899842 C165.256562,25.5726502 165.216229,25.4699846 165.201562,25.3819842 C165.084228,24.6339804 164.974229,23.8419883 164.871562,23.0059842 C164.768895,22.16998 164.677229,21.3303217 164.596562,20.4869842 C164.515895,19.6436466 164.446229,18.8186549 164.387562,18.0119842 C164.328895,17.2053135 164.292229,16.4646542 164.277562,15.7899842 C164.306895,15.4379824 164.358228,15.1409854 164.431562,14.8989842 C164.504896,14.656983 164.658894,14.5433174 164.893562,14.5579842 C165.142896,14.5726509 165.322561,14.6716499 165.432562,14.8549842 C165.542562,15.0383184 165.604895,15.2619828 165.619562,15.5259842 Z M175.189562,18.8919842 C175.233562,19.6839881 175.281228,20.4833135 175.332562,21.2899842 C175.383895,22.0966549 175.394895,22.8923136 175.365562,23.6769842 C175.336228,24.4616548 175.259229,25.2279804 175.134562,25.9759842 C175.009895,26.7239879 174.800897,27.4389808 174.507562,28.1209842 C174.214227,28.8029876 173.821898,29.4373146 173.330562,30.0239842 C172.839226,30.6106538 172.219566,31.1386485 171.471562,31.6079842 C171.354228,31.6813179 171.225896,31.7253174 171.086562,31.7399842 C170.947228,31.7546509 170.811563,31.7509843 170.679562,31.7289842 C170.547561,31.7069841 170.430229,31.6703178 170.327562,31.6189842 C170.224895,31.5676506 170.158895,31.4979846 170.129562,31.4099842 C170.085562,31.2779835 170.107561,31.1313183 170.195562,30.9699842 C170.283562,30.80865 170.430228,30.639985 170.635562,30.4639842 C171.280898,29.9799817 171.82356,29.4666535 172.263562,28.9239842 C172.703564,28.3813148 173.055561,27.794654 173.319562,27.1639842 C173.583563,26.5333143 173.755895,25.8476545 173.836562,25.1069842 C173.917229,24.3663138 173.913562,23.5559886 173.825562,22.6759842 C173.649561,22.8959853 173.44423,23.1233163 173.209562,23.3579842 C172.974894,23.592652 172.725563,23.8016499 172.461562,23.9849842 C172.197561,24.1683184 171.92623,24.3223169 171.647562,24.4469842 C171.368894,24.5716515 171.104896,24.6339842 170.855562,24.6339842 C170.650228,24.6339842 170.444896,24.5899846 170.239562,24.5019842 C170.034228,24.4139837 169.828896,24.2453187 169.623562,23.9959842 C169.388894,23.6879826 169.179896,23.3396528 168.996562,22.9509842 C168.813228,22.5623156 168.655563,22.1846527 168.523562,21.8179842 C168.391561,21.4513157 168.285229,21.121319 168.204562,20.8279842 C168.123895,20.5346494 168.076229,20.3293181 168.061562,20.2119842 C168.032228,20.0653168 168.032228,19.9259848 168.061562,19.7939842 C168.090895,19.6619835 168.186228,19.5813176 168.347562,19.5519842 C168.567563,19.5079839 168.772894,19.5226505 168.963562,19.5959842 C169.15423,19.6693179 169.286228,19.78665 169.359562,19.9479842 C169.418229,20.1093183 169.498895,20.3586491 169.601562,20.6959842 C169.704229,21.0333192 169.828894,21.3669825 169.975562,21.6969842 C170.122229,22.0269858 170.279894,22.3166496 170.448562,22.5659842 C170.617229,22.8153187 170.796894,22.9399842 170.987562,22.9399842 C171.207563,22.9399842 171.467894,22.8299853 171.768562,22.6099842 C172.06923,22.3899831 172.358894,22.1039859 172.637562,21.7519842 C172.91623,21.3999824 173.154561,21.007653 173.352562,20.5749842 C173.550563,20.1423153 173.649562,19.7206529 173.649562,19.3099842 C173.649562,19.2219837 173.664228,19.1193181 173.693562,19.0019842 C173.722895,18.8846502 173.766895,18.7709847 173.825562,18.6609842 C173.884229,18.5509836 173.953895,18.4556512 174.034562,18.3749842 C174.115229,18.2943171 174.199561,18.2466509 174.287562,18.2319842 C174.52223,18.2026507 174.731228,18.2649834 174.914562,18.4189842 C175.097896,18.5729849 175.189562,18.73065 175.189562,18.8919842 Z" fill="#25262A" transform="translate(101.647895, 22.705317) rotate(-2.000000) translate(-101.647895, -22.705317) "></path>
            <g transform="translate(15.261339, 13.150723) scale(-1, 1) rotate(144.000000) translate(-15.261339, -13.150723) translate(1.261339, -0.349277)" stroke-width="2" stroke="#25262A">
                <path d="M5.11622467,23.0974526 C5.11622467,23.0974526 2.00985307,9.3767009 23.7135419,3.85910365" transform="translate(14.337958, 13.478278) rotate(36.000000) translate(-14.337958, -13.478278) "></path>
                <path d="M2.93849565,16.0027227 C2.93849565,16.0027227 2.43853336,12.7504103 2.2963503,12.0960799 C2.15416725,11.4417495 0.60464371,7.99917192 0.60464371,7.99917192 C0.60464371,7.99917192 3.01247308,8.38940211 5.15136369,8.1728924 C7.2902543,7.95638269 9.8583615,8.05397659 9.8583615,8.05397659" transform="translate(5.231503, 12.000947) rotate(-85.000000) translate(-5.231503, -12.000947) "></path>
            </g>
        </g>
    </g>
</svg>