<svg xmlns="http://www.w3.org/2000/svg" width="177" height="59" viewBox="0 0 177 59">
    <g fill="none" fill-rule="evenodd">
        <path fill="#25262A" d="M4.706 53.723c-.066.3-.16.572-.282.815-.122.243-.26.387-.413.433-.322.11-.577.075-.763-.103-.186-.178-.272-.415-.258-.712.066-1.047.214-2.156.445-3.328.23-1.172.513-2.347.848-3.526.334-1.179.71-2.326 1.128-3.44a32.082 32.082 0 0 1 1.311-3.05c.077-.145.17-.234.281-.268a.494.494 0 0 1 .3-.008c.08-.075.18-.143.298-.203a.918.918 0 0 1 .357-.103.618.618 0 0 1 .17.014c.063.013.131.06.206.142.075.081.166.201.273.359.106.157.24.387.4.688.304.865.648 1.753 1.033 2.665.385.911.784 1.822 1.195 2.731.05-.02.097-.037.14-.049.042-.011.089-.028.14-.049.189-.03.405-.037.65-.019.244.018.417.127.518.329.122.252.12.478-.005.678-.125.2-.362.407-.712.623.264.537.526 1.062.788 1.574.261.511.53 1.01.808 1.494.023.085.059.217.106.397.047.179.081.359.103.54.021.18.02.35-.004.508-.023.158-.085.267-.185.326a.417.417 0 0 1-.378 0 1.803 1.803 0 0 1-.395-.246 2.571 2.571 0 0 1-.35-.34 2.501 2.501 0 0 1-.245-.335 45.449 45.449 0 0 1-1.851-3.363 35.758 35.758 0 0 1-4.862.913c-.145.67-.285 1.328-.423 1.972a47.641 47.641 0 0 0-.372 1.941zm2.921-11.15a56.786 56.786 0 0 0-1.701 5.488 22.765 22.765 0 0 0 3.678-.7 48.02 48.02 0 0 1-1.977-4.789zm8.928 1.695c.07.256.146.541.23.857.082.316.17.64.263.972.093.332.177.67.253 1.012.076.342.142.667.199.976.176-.464.367-.955.574-1.473.207-.519.439-1 .694-1.443.256-.444.534-.815.835-1.114.3-.3.64-.462 1.021-.489a1.9 1.9 0 0 1 1.483.522c.418.388.783.88 1.094 1.474.31.595.567 1.225.77 1.888.203.664.374 1.251.514 1.763.137.46-.047.82-.55 1.08-.233.139-.414.169-.54.09-.128-.077-.203-.159-.226-.244-.101-.202-.235-.557-.4-1.067a31.44 31.44 0 0 0-.552-1.551 8.306 8.306 0 0 0-.656-1.362c-.235-.383-.481-.548-.738-.495-.31.039-.57.291-.781.758-.182.377-.366.794-.551 1.25-.186.456-.366.92-.541 1.393-.176.473-.347.946-.514 1.418a80.72 80.72 0 0 1-.47 1.297.934.934 0 0 1-.436.278.957.957 0 0 1-.56 0 .857.857 0 0 1-.434-.23.562.562 0 0 1-.18-.353c-.25-1.338-.496-2.554-.738-3.65a47.566 47.566 0 0 0-.873-3.352c-.149-.39-.193-.704-.131-.943.061-.238.31-.347.746-.325.612.061 1.01.415 1.195 1.063zm13.4-5.55a1.662 1.662 0 0 1 .004-.86c.077-.267.262-.427.553-.483.257-.052.491 0 .702.16.211.159.352.375.423.648.485 1.964.948 3.917 1.387 5.858.44 1.942.847 3.846 1.22 5.714.105.497.094.84-.031 1.032-.126.191-.28.337-.465.436a.69.69 0 0 1-.583.041c-.188-.074-.316-.221-.383-.442l-.037-.154-.102.033a5.941 5.941 0 0 1-1.765.476c-.62.069-1.222.037-1.805-.096a4.043 4.043 0 0 1-1.576-.737 3.244 3.244 0 0 1-1.051-1.425c-.509-1.302-.334-2.53.524-3.685.366-.478.83-.919 1.393-1.323.562-.404 1.251-.739 2.067-1.004l.46-.137-.935-4.052zm-1.973 9.442c.133.408.346.714.638.92.292.205.632.334 1.017.385.386.051.794.036 1.222-.046a6.448 6.448 0 0 0 1.251-.375l.228-.094-1.045-4.514-.51.166a5.99 5.99 0 0 0-1.12.56 4.938 4.938 0 0 0-1.023.841c-.291.316-.506.66-.645 1.036a1.608 1.608 0 0 0-.013 1.121zm19.25-4.63c.152.18.303.409.452.685.15.276.27.56.36.848.136.46.288.957.455 1.493.168.536.338 1.093.508 1.672.171.579.334 1.167.489 1.764.154.597.294 1.17.42 1.717a5.05 5.05 0 0 1-.016 2.203 4.953 4.953 0 0 1-.945 1.956 5.47 5.47 0 0 1-1.775 1.453c-.72.38-1.546.621-2.478.72-.208-.002-.431-.086-.669-.252-.237-.166-.363-.344-.376-.534-.03-.19.05-.347.24-.473.192-.126.39-.214.595-.263.36-.06.731-.16 1.113-.3a4.643 4.643 0 0 0 1.962-1.375c.265-.314.461-.675.59-1.083.098-.32.132-.71.1-1.167a10.22 10.22 0 0 0-.186-1.356c-.092-.445-.2-.868-.323-1.267-.124-.4-.227-.701-.311-.904a4.621 4.621 0 0 1-1.009.852 3.29 3.29 0 0 1-.72.338 2.607 2.607 0 0 1-.81.135 1.476 1.476 0 0 1-.84-.254 2.758 2.758 0 0 1-.713-.693 4.024 4.024 0 0 1-.527-1.02c-.14-.389-.225-.8-.256-1.232-.038-1.04.162-1.98.598-2.818.437-.838 1.184-1.52 2.242-2.046.085-.024.2-.049.347-.077a2.637 2.637 0 0 1 .911-.011c.15.024.278.067.387.13.2.124.309.316.327.576.018.26-.03.454-.142.583zm-3.02 3.782c.014.19.046.4.097.632a.65.65 0 0 0 .373.482c.216.106.472.106.768-.002a2.4 2.4 0 0 0 .812-.5c.23-.207.374-.43.436-.669.061-.238.035-.554-.08-.945-.114-.392-.238-.8-.372-1.225a8.842 8.842 0 0 1-.289-1.153c-.2.118-.41.28-.63.487-.22.207-.416.46-.586.758-.17.298-.308.625-.414.98-.105.355-.143.74-.114 1.155zm14.722-6.399c-.299.195-.61.4-.934.613a9.64 9.64 0 0 0-.966.732c-.32.275-.619.59-.898.95-.279.358-.523.779-.732 1.262a6.896 6.896 0 0 0-.56 2.06 16.52 16.52 0 0 0-.093 2.026 2.26 2.26 0 0 1-.154.962c-.125.33-.317.504-.576.522-.329.023-.604-.127-.826-.45a3.378 3.378 0 0 1-.47-.945 47.735 47.735 0 0 1-.982-3.593A87.489 87.489 0 0 1 51 41.494c-.016-.242.046-.403.188-.482a.966.966 0 0 1 .5-.113c.21.003.412.04.608.114a.548.548 0 0 1 .366.391c.114.635.247 1.3.4 1.992.153.693.299 1.287.437 1.781a4.566 4.566 0 0 1 .451-1.752A6.717 6.717 0 0 1 55 41.84a6.83 6.83 0 0 1 1.476-1.25 5.83 5.83 0 0 1 1.733-.747c.257-.052.473-.067.648-.045.176.023.3.075.376.156.075.082.098.22.068.413-.03.193-.152.375-.366.546zm7.515-.63a3.33 3.33 0 0 1 1.37.765c.38.356.683.765.906 1.227.224.462.366.943.427 1.443.06.5.037.97-.07 1.412-.157.497-.366.99-.627 1.477-.262.488-.57.926-.925 1.316a4.79 4.79 0 0 1-1.235.972 3.781 3.781 0 0 1-1.584.45c-.71.05-1.317-.073-1.825-.368a3.517 3.517 0 0 1-1.23-1.19 4.962 4.962 0 0 1-.655-1.727 7.19 7.19 0 0 1-.099-1.974 7.21 7.21 0 0 1 .252-1.438c.132-.47.315-.891.55-1.264.234-.372.512-.683.834-.931a2.038 2.038 0 0 1 1.13-.418c.243-.017.549.01.918.08.37.069.717.18 1.04.33.21-.223.484-.277.823-.161zm-.854 1.963a8.073 8.073 0 0 1-.694-.434c-.265-.18-.493-.265-.683-.252-.207.015-.404.124-.59.328a3.034 3.034 0 0 0-.472.698 5.708 5.708 0 0 0-.486 1.428 6.404 6.404 0 0 0-.039.941c.008.365.06.722.153 1.071.094.35.25.66.47.932.218.271.53.454.937.547.247.052.532.028.855-.073.323-.1.637-.266.943-.496.305-.23.588-.528.85-.893.26-.366.453-.78.577-1.24a2.5 2.5 0 0 0-.096-1.57 1.848 1.848 0 0 0-1.082-1.11.624.624 0 0 1-.354.155.648.648 0 0 1-.289-.032zm15.191 5.532c-.125.2-.272.336-.44.409a1.434 1.434 0 0 1-.46.123c-.244 0-.475-.067-.692-.2-.218-.132-.358-.274-.421-.426-.124-.287-.26-.607-.406-.962a41.17 41.17 0 0 1-.427-1.078c-.139-.364-.28-.719-.427-1.065-.146-.346-.28-.662-.405-.949-.303.63-.59 1.262-.858 1.898-.268.635-.57 1.295-.904 1.979-.155.271-.341.462-.56.573-.217.11-.405.163-.562.157a1.044 1.044 0 0 1-.627-.217 2.87 2.87 0 0 1-.46-.411 7.61 7.61 0 0 1-.654-1.166c-.225-.48-.438-.986-.64-1.52a38.46 38.46 0 0 1-.569-1.602 29.7 29.7 0 0 1-.44-1.441 2.058 2.058 0 0 1-.044-.831c.042-.264.183-.421.423-.473.292-.038.567.043.825.242.257.2.41.401.459.607a35.8 35.8 0 0 0 .723 2.32c.141.408.282.806.422 1.196.14.39.282.736.425 1.04.23-.434.486-.934.768-1.501.282-.567.552-1.116.81-1.647.258-.53.495-.994.71-1.392.216-.397.39-.644.522-.74.1-.076.246-.082.442-.018a.848.848 0 0 1 .438.296 13.83 13.83 0 0 1 1.121 2.436c.315.89.62 1.716.916 2.477a9.15 9.15 0 0 0 .692-1.286c.241-.53.472-1.089.691-1.677.22-.589.422-1.177.607-1.763.184-.586.33-1.109.437-1.568.106-.477.28-.715.524-.714.313.012.589.097.825.255.237.157.337.332.298.526a22.357 22.357 0 0 1-1.186 4.292 25.04 25.04 0 0 1-1.896 3.82zm9.158-10.675c-.022.175-.137.279-.343.31a6.46 6.46 0 0 1-.517.063 12.256 12.256 0 0 0-2.744.635c-.203.084-.43.073-.68-.03-.25-.105-.415-.337-.492-.696a.42.42 0 0 1 .132-.348c.098-.094.213-.18.347-.259.217-.12.48-.229.785-.329a7.018 7.018 0 0 1 1.853-.338c.294-.012.539.002.732.04.283.067.513.182.689.343a.715.715 0 0 1 .238.609zm.007 8.679c.14.268.226.562.258.88.03.32-.045.547-.227.681-.23.173-.49.182-.78.029a1.63 1.63 0 0 1-.67-.657c-.217-.35-.395-.785-.535-1.305a18.208 18.208 0 0 1-.536-2.999c-.04-.449-.068-.786-.083-1.01 0-.244.053-.473.16-.69.106-.215.254-.347.441-.395a.953.953 0 0 1 .782.375c.21.255.32.582.33.98.021.312.054.657.098 1.036.044.38.105.757.184 1.134.078.377.164.74.258 1.09.094.35.201.633.32.85zm3.714-6.906c.07.256.146.541.23.857.082.316.17.64.263.972.092.332.177.67.253 1.012.076.342.142.667.198.976.176-.464.368-.955.575-1.473.207-.519.438-1 .694-1.443.256-.444.534-.815.834-1.114.3-.3.641-.462 1.022-.489a1.9 1.9 0 0 1 1.483.522c.418.388.782.88 1.093 1.474.311.595.568 1.225.77 1.888.204.664.375 1.251.515 1.763.136.46-.047.82-.55 1.08-.234.139-.414.169-.541.09-.127-.077-.202-.159-.226-.244-.1-.202-.234-.557-.4-1.067a31.44 31.44 0 0 0-.552-1.551 8.306 8.306 0 0 0-.655-1.362c-.235-.383-.482-.548-.739-.496-.31.04-.57.292-.78.759-.183.377-.366.794-.552 1.25-.185.456-.365.92-.54 1.393-.176.473-.347.946-.514 1.418-.167.472-.324.904-.47 1.297a.934.934 0 0 1-.436.278.957.957 0 0 1-.56 0 .857.857 0 0 1-.434-.23.562.562 0 0 1-.181-.353c-.25-1.338-.496-2.554-.737-3.65a47.566 47.566 0 0 0-.873-3.352c-.15-.39-.193-.704-.131-.943.061-.238.31-.347.746-.325.612.061 1.01.415 1.195 1.063zm14.155.417c.152.18.303.41.452.685.15.277.27.56.36.849.136.46.288.957.456 1.492.167.536.337 1.093.507 1.672.171.579.334 1.167.489 1.764.154.598.294 1.17.42 1.717a5.05 5.05 0 0 1-.016 2.204 4.953 4.953 0 0 1-.945 1.955 5.47 5.47 0 0 1-1.775 1.454c-.72.38-1.546.62-2.478.72-.208-.003-.431-.087-.669-.253-.237-.166-.363-.344-.376-.534-.03-.189.05-.346.24-.473.192-.126.39-.214.595-.263.36-.06.731-.16 1.113-.3a4.643 4.643 0 0 0 1.962-1.374c.265-.314.461-.676.59-1.084.099-.32.132-.709.1-1.167a10.22 10.22 0 0 0-.186-1.355c-.092-.446-.2-.868-.323-1.268-.124-.4-.227-.7-.31-.903a4.621 4.621 0 0 1-1.009.852 3.29 3.29 0 0 1-.72.337 2.607 2.607 0 0 1-.812.135 1.476 1.476 0 0 1-.838-.254 2.758 2.758 0 0 1-.714-.693 4.024 4.024 0 0 1-.527-1.019c-.14-.39-.225-.8-.256-1.233-.037-1.04.162-1.979.598-2.818.437-.838 1.184-1.52 2.242-2.046.085-.023.2-.049.347-.076a2.637 2.637 0 0 1 .911-.012c.15.024.278.068.387.13.2.124.309.317.327.576.018.26-.03.454-.142.583zm-3.02 3.782c.014.19.046.401.097.632a.65.65 0 0 0 .373.482c.216.107.472.106.768-.001a2.4 2.4 0 0 0 .813-.5c.228-.207.373-.43.435-.67.061-.238.035-.553-.08-.945-.114-.392-.238-.8-.372-1.225a8.842 8.842 0 0 1-.289-1.153c-.2.119-.41.28-.63.487-.22.207-.416.46-.586.758-.17.299-.308.625-.413.98-.106.355-.144.74-.115 1.155zm24.047 1.342c-.125.2-.272.336-.44.409a1.434 1.434 0 0 1-.461.123c-.243 0-.474-.067-.692-.199-.217-.132-.358-.275-.42-.427-.125-.286-.26-.607-.407-.962a41.17 41.17 0 0 1-.427-1.078c-.138-.363-.28-.718-.426-1.064-.146-.346-.281-.663-.405-.95-.304.63-.59 1.262-.858 1.898-.268.636-.57 1.295-.904 1.979-.155.271-.341.463-.56.573-.218.111-.405.163-.562.157a1.044 1.044 0 0 1-.628-.217 2.87 2.87 0 0 1-.458-.41 7.61 7.61 0 0 1-.655-1.167c-.225-.48-.439-.986-.64-1.519a38.46 38.46 0 0 1-.569-1.602 29.7 29.7 0 0 1-.44-1.442 2.058 2.058 0 0 1-.045-.831c.043-.264.184-.421.423-.473.293-.037.568.043.825.242.257.2.41.402.46.607a35.8 35.8 0 0 0 .722 2.321c.142.407.283.806.423 1.196.14.39.281.736.424 1.038.23-.433.487-.933.768-1.5.282-.567.552-1.116.81-1.646.259-.531.496-.995.711-1.392.216-.398.39-.644.522-.74.099-.077.246-.083.442-.018a.848.848 0 0 1 .437.295 13.83 13.83 0 0 1 1.122 2.437c.314.89.62 1.716.916 2.477a9.15 9.15 0 0 0 .692-1.287c.241-.53.471-1.088.69-1.677.22-.589.422-1.176.607-1.763.185-.586.331-1.109.438-1.568.106-.476.28-.715.523-.714.314.013.59.098.826.255.237.157.336.333.298.526a22.357 22.357 0 0 1-1.186 4.293 25.04 25.04 0 0 1-1.896 3.82zm11.39-6.322a9.042 9.042 0 0 1-2.114 1.073 9.391 9.391 0 0 1-2.493.5c.077.603.284 1.07.62 1.404.336.332.74.517 1.211.553.28.016.56-.013.841-.084.282-.072.544-.173.787-.303a4.98 4.98 0 0 0 1.177-.877c.146-.15.304-.252.474-.307.17-.055.299-.069.388-.04.248.07.352.323.314.76a3.984 3.984 0 0 1-1.095 1.497 3.903 3.903 0 0 1-1.686.86 3.857 3.857 0 0 1-1.717.042 3.585 3.585 0 0 1-1.646-.797 4.008 4.008 0 0 1-1.005-1.337 6.123 6.123 0 0 1-.506-1.633 3.929 3.929 0 0 1 .036-1.54c.113-.494.312-.938.598-1.332a3.762 3.762 0 0 1 1.102-1.002c.45-.275.985-.451 1.605-.53.74-.103 1.424-.012 2.053.274.628.286 1.083.715 1.367 1.286.16.319.22.601.176.848-.044.246-.206.474-.486.685zm-3.105-1.555a2.783 2.783 0 0 0-1.067.583 2.666 2.666 0 0 0-.41.472 1.02 1.02 0 0 0-.182.573c.294-.02.617-.07.967-.146.351-.077.692-.166 1.024-.267.332-.102.637-.214.915-.338.278-.124.508-.253.69-.387-.162-.319-.431-.504-.808-.556a2.92 2.92 0 0 0-1.13.066zm12.21.919a9.042 9.042 0 0 1-2.115 1.073 9.391 9.391 0 0 1-2.493.5c.077.603.283 1.07.62 1.403.335.333.74.517 1.211.554.28.015.56-.013.841-.085.282-.072.544-.173.787-.303a4.98 4.98 0 0 0 1.177-.877c.146-.15.303-.251.473-.307.17-.055.3-.068.388-.04.249.07.353.323.314.76a3.984 3.984 0 0 1-1.094 1.497 3.903 3.903 0 0 1-1.686.86 3.857 3.857 0 0 1-1.717.043 3.585 3.585 0 0 1-1.646-.798 4.008 4.008 0 0 1-1.006-1.337 6.123 6.123 0 0 1-.505-1.632 3.929 3.929 0 0 1 .036-1.54c.113-.495.312-.939.597-1.333a3.762 3.762 0 0 1 1.103-1.002c.45-.275.985-.451 1.605-.53.74-.103 1.424-.012 2.052.274.628.287 1.084.715 1.367 1.286.162.319.22.602.177.848-.044.246-.206.475-.487.686zm-3.107-1.556a2.783 2.783 0 0 0-1.066.583 2.666 2.666 0 0 0-.41.472 1.02 1.02 0 0 0-.182.573c.294-.02.616-.07.967-.146.351-.076.692-.165 1.024-.267.332-.101.637-.214.915-.337.278-.124.508-.253.69-.388-.162-.318-.431-.504-.808-.556a2.92 2.92 0 0 0-1.13.066zm12.9-1.527a1.87 1.87 0 0 1 .308-.06c.138-.02.272-.02.404-.003a.983.983 0 0 1 .346.106c.1.054.16.124.184.209a.815.815 0 0 1-.052.564c-.083.17-.242.325-.476.463-.635.357-1.294.755-1.975 1.194-.682.438-1.263.83-1.742 1.177.325.186.7.394 1.125.625.424.231.863.474 1.315.73a31.844 31.844 0 0 1 2.646 1.679c.366.269.445.532.237.79-.095.128-.257.227-.487.295a.97.97 0 0 1-.667-.032 19.434 19.434 0 0 1-1.293-.6 146.88 146.88 0 0 1-1.433-.734c-.487-.252-.96-.506-1.421-.76-.461-.255-.882-.49-1.262-.707a129.597 129.597 0 0 1 .617 3.606c.127.32.137.59.03.805-.106.216-.298.325-.576.327-.298-.03-.522-.132-.673-.304a1.879 1.879 0 0 1-.361-.692c-.153-.702-.329-1.532-.526-2.491a5201.605 5201.605 0 0 1-1.76-8.582 7.16 7.16 0 0 1-.12-.787c-.029-.285.049-.477.233-.577.252-.121.524-.084.816.113.292.197.522.506.69.929.194.786.393 1.64.597 2.565.203.924.41 1.9.622 2.927.33-.231.717-.489 1.158-.771a57.556 57.556 0 0 1 2.563-1.548c.384-.218.695-.37.932-.456zm5.32-4.047a103.6 103.6 0 0 0 .85 5.818c.348 2 .708 3.908 1.078 5.724.105.757-.075 1.16-.541 1.21a.519.519 0 0 1-.32-.095 1.35 1.35 0 0 1-.306-.278 4.282 4.282 0 0 1-.273-.372 1.16 1.16 0 0 1-.168-.353 85.06 85.06 0 0 1-.585-2.774c-.19-.977-.367-1.96-.532-2.947-.165-.988-.315-1.955-.45-2.9a52.006 52.006 0 0 1-.313-2.611c.005-.418.041-.772.108-1.063.066-.292.238-.438.516-.44.295-.004.515.098.66.305.145.207.237.466.276.776zm11.56 3.18c.117.93.24 1.868.366 2.815.127.946.206 1.883.236 2.811.03.927.002 1.837-.083 2.73a10.945 10.945 0 0 1-.562 2.58c-.29.828-.7 1.608-1.231 2.34-.53.733-1.218 1.406-2.061 2.021-.132.096-.28.159-.443.188a1.78 1.78 0 0 1-.48.02 1.464 1.464 0 0 1-.425-.1.432.432 0 0 1-.25-.23c-.063-.153-.05-.327.041-.525.09-.197.25-.408.477-.633a10.795 10.795 0 0 0 1.792-1.95 8.502 8.502 0 0 0 1.1-2.161c.26-.766.406-1.588.44-2.468.034-.88-.037-1.835-.213-2.865-.19.274-.413.559-.67.855a6.462 6.462 0 0 1-.83.8 5.935 5.935 0 0 1-.922.612c-.318.17-.624.265-.918.286a1.835 1.835 0 0 1-.737-.105c-.25-.087-.506-.269-.768-.546a6.855 6.855 0 0 1-.826-1.18 16.107 16.107 0 0 1-1.109-2.438 6.124 6.124 0 0 1-.219-.714 1.185 1.185 0 0 1-.034-.493c.023-.158.13-.26.317-.309.256-.07.499-.07.73.001a.8.8 0 0 1 .496.383c.082.185.198.472.347.862.149.389.323.772.523 1.149s.41.705.63.986c.219.28.44.412.666.396.26-.018.557-.17.893-.453.337-.285.655-.646.954-1.084.3-.438.548-.92.746-1.446.198-.527.28-1.032.246-1.516a1.762 1.762 0 0 1 .154-.78c.06-.134.134-.252.223-.354a.556.556 0 0 1 .286-.19.928.928 0 0 1 .755.17c.229.166.35.344.363.534z"/>
        <g stroke="#FFD001" stroke-width="2">
            <path d="M6.17 3.115s.56 25.846 41.712 26.035M18.62 10.536S13.175 7.91 12.1 7.308c-1.073-.601-6.29-5.174-6.29-5.174s-.608 4.441-2.138 8.084C2.142 13.86.934 18.425.934 18.425"/>
        </g>
    </g>
</svg>
